<svg width="30" height="17" viewBox="0 0 30 17" fill="none" xmlns="http://www.w3.org/2000/svg">
<path d="M27.4949 1.31504L14.9999 13.495L2.50495 1.31504C2.2817 1.09699 1.98201 0.974912 1.66995 0.974912C1.35788 0.974912 1.05819 1.09699 0.834946 1.31504C0.726852 1.42096 0.640977 1.54737 0.582352 1.68688C0.523727 1.8264 0.49353 1.97621 0.49353 2.12754C0.49353 2.27888 0.523727 2.42869 0.582352 2.5682C0.640977 2.70772 0.726852 2.83413 0.834946 2.94004L14.1274 15.9C14.3609 16.1276 14.674 16.2549 14.9999 16.2549C15.3259 16.2549 15.639 16.1276 15.8724 15.9L29.1649 2.94254C29.2738 2.83655 29.3603 2.70983 29.4194 2.56985C29.4785 2.42987 29.5089 2.27948 29.5089 2.12754C29.5089 1.97561 29.4785 1.82521 29.4194 1.68524C29.3603 1.54526 29.2738 1.41853 29.1649 1.31254C28.9417 1.09449 28.642 0.972412 28.3299 0.972412C28.0179 0.972412 27.7182 1.09449 27.4949 1.31254V1.31504Z" fill="white"/>
</svg>
