<svg width="91" height="100" viewBox="0 0 91 100" fill="none" xmlns="http://www.w3.org/2000/svg">
<path fill-rule="evenodd" clip-rule="evenodd" d="M61.7182 30.0141C56.8566 27.3843 51.2827 25.7456 45.4643 25.7456C39.7143 25.7456 33.9653 27.3078 29.1029 30.0141H61.7182ZM67.1466 25.4023C67.6311 25.1185 68.0353 24.6995 68.3165 24.1896C68.5977 23.6796 68.7456 23.0976 68.7445 22.5049C68.7445 20.675 67.3606 19.2263 65.657 19.2263C64.0952 19.2263 62.7455 20.5218 62.6047 22.1616C62.2499 22.1616 61.9294 21.9705 61.5746 21.8183C62.0592 21.2143 62.3241 20.4425 62.3203 19.6452C62.3203 17.8541 60.9363 16.3676 59.2327 16.3676C57.5643 16.3676 56.1804 17.8541 56.1804 19.6452C55.8194 19.6056 55.4627 19.5293 55.1151 19.4173C55.3725 18.9429 55.5078 18.4033 55.5069 17.8541C55.5069 16.0243 54.1229 14.5766 52.4193 14.5766C50.714 14.5766 49.3318 16.0243 49.3318 17.8541C49.3318 18.0064 49.367 18.1587 49.367 18.3119C49.0123 18.273 48.6565 18.2352 48.2665 18.1974C48.3722 17.9308 48.4073 17.5875 48.4073 17.2442C48.4073 15.4532 47.0233 13.9667 45.355 13.9667C43.6523 13.9667 42.2684 15.4532 42.2684 17.2442C42.2684 17.5875 42.3035 17.9308 42.4101 18.2352C42.1266 18.2352 41.8079 18.2352 41.5235 18.274V17.9308C41.5235 16.1009 40.1396 14.6144 38.4713 14.6144C37.6525 14.6149 36.8674 14.9645 36.2885 15.5863C35.7096 16.2081 35.3842 17.0514 35.3837 17.9308C35.3837 18.4263 35.4902 18.9218 35.6672 19.3417C35.3836 19.4183 35.1345 19.4939 34.851 19.5705C34.6732 17.7785 33.3605 16.483 31.7634 16.483C30.9542 16.483 30.178 16.8283 29.6058 17.443C29.0335 18.0577 28.7121 18.8913 28.7121 19.7606C28.7121 20.4849 28.9251 21.1715 29.2799 21.7049C28.9603 21.857 28.6407 22.0093 28.3573 22.2003C28.2451 21.4165 27.8759 20.7015 27.3162 20.1843C26.7565 19.667 26.0432 19.3817 25.3049 19.3795C23.7079 19.3795 22.4656 20.866 22.4656 22.6959C22.4656 23.8779 23.0696 24.9068 23.7079 25.4789V30.0151H15.8292L23.7079 38.8966V57.7659C23.7079 62.7967 26.121 64.8175 29.5633 64.8175C37.6903 64.7797 42.1971 64.8175 45.4273 69.0483C48.4425 64.8175 53.6598 64.7797 61.2893 64.8175C64.5547 64.8175 67.18 62.9877 67.18 57.8425V38.9334L75.2717 30.0132H67.18V25.4391L67.1466 25.4023ZM65.657 20.865C66.5084 20.865 67.2189 21.5894 67.2189 22.5039C67.2189 23.4183 66.5084 24.1805 65.657 24.1805C64.8057 24.1805 64.1304 23.4183 64.1304 22.5039C64.1304 21.5894 64.8057 20.865 65.657 20.865ZM59.2336 18.0064C60.085 18.0064 60.7954 18.7686 60.7954 19.6452C60.7954 20.5596 60.085 21.3228 59.2336 21.3228C58.4175 21.3228 57.707 20.5596 57.707 19.6452C57.7061 18.7686 58.4166 18.0064 59.2336 18.0064ZM52.4203 16.2154C53.2716 16.2154 53.9451 16.9388 53.9451 17.8541C53.9451 18.7686 53.2716 19.5308 52.4203 19.5308C51.5689 19.5308 50.8936 18.7686 50.8936 17.8541C50.8921 17.6384 50.9305 17.4245 51.0067 17.2249C51.0829 17.0252 51.1953 16.8438 51.3373 16.6913C51.4794 16.5388 51.6483 16.4181 51.8343 16.3364C52.0202 16.2548 52.2193 16.2136 52.4203 16.2154ZM45.3568 15.6054C46.2082 15.6054 46.8834 16.3298 46.8834 17.2442C46.8834 18.1587 46.2082 18.9218 45.3568 18.9218C44.5054 18.9218 43.7959 18.1587 43.7959 17.2442C43.7959 16.3298 44.5054 15.6054 45.3568 15.6054ZM38.4721 16.291C39.3234 16.291 39.9978 17.0154 39.9978 17.9298C39.9978 18.8442 39.3234 19.5686 38.4721 19.5686C37.6208 19.5686 36.9112 18.8442 36.9112 17.9298C36.9112 17.0154 37.6208 16.291 38.4721 16.291ZM31.7643 18.1209C32.6166 18.1209 33.3253 18.8452 33.3253 19.7596C33.3253 20.675 32.6157 21.3984 31.7643 21.3984C30.9483 21.3984 30.2386 20.674 30.2386 19.7596C30.242 19.3261 30.4038 18.9113 30.6892 18.6048C30.9746 18.2982 31.3607 18.1244 31.7643 18.1209ZM25.3058 21.0173C26.1572 21.0173 26.8667 21.7805 26.8667 22.6949C26.8667 23.5715 26.1572 24.3337 25.3058 24.3337C24.4544 24.3337 23.7801 23.5715 23.7801 22.6949C23.7801 21.7805 24.4544 21.0173 25.3058 21.0173ZM25.6606 29.9376L25.5893 26.469L27.8607 27.841L28.0385 24.1049C28.9964 23.6093 29.9543 23.1904 30.9483 22.7705L33.5744 25.3625L34.3553 21.5507C35.3133 21.2839 36.272 21.0163 37.2651 20.8263L39.3586 23.8372L40.7779 20.2163C41.7357 20.1009 42.6944 19.9875 43.6884 19.9497L45.5347 23.267L47.2383 19.9507C48.3035 19.9885 49.3327 20.1029 50.361 20.2551L51.6393 23.8759L53.946 20.8263C54.9047 21.0163 55.8626 21.2839 56.8204 21.5507L57.531 25.4013L60.299 22.8093C61.2207 23.1526 62.0729 23.5715 62.9594 24.067L63.1374 27.8789L65.2652 26.3545L65.3023 29.9376C59.5172 26.1257 52.739 24.0292 45.4634 24.0292C38.2952 24.0292 31.4809 26.1257 25.6606 29.9376Z" fill="black"/>
<path fill-rule="evenodd" clip-rule="evenodd" d="M46.3164 54.8286H65.2661V56.1629H46.3164V54.8286ZM25.5558 38.7045H44.6138V40.0387H25.5558V38.7045Z" fill="#33348E"/>
<path fill-rule="evenodd" clip-rule="evenodd" d="M56.5361 32.2628H70.1998L69.0993 33.6359H56.5361V32.2628ZM56.5361 37.3325H65.6931L64.487 38.7045L56.5361 38.6657V37.3325ZM46.3164 40.0388H54.9408V41.3732H46.3164V40.0388ZM46.3164 44.995H54.9408V46.3671H46.3164V44.995ZM35.9885 48.0825H44.6129V49.4545H35.9885V48.0825ZM35.9885 53.0755H44.6129V54.4097H35.9885V53.0755ZM25.5558 56.5062H34.1793V57.8793H25.5558V56.5062ZM26.4784 61.4614H34.1441L34.1802 62.8345H29.3187C28.3238 62.8345 27.0102 62.2624 26.4784 61.4614Z" fill="white"/>
<path fill-rule="evenodd" clip-rule="evenodd" d="M56.5351 34.7792H67.9979L66.7565 36.1514L56.5351 36.1135V34.7792ZM46.3155 42.5552H54.9399V43.9274H46.3155V42.5552ZM35.9875 50.6357H44.6119V51.97H35.9875V50.6357ZM25.6605 59.0226H34.1783V60.3947H25.9449C25.8032 59.9748 25.6966 59.6315 25.6605 59.0226Z" fill="#33348E"/>
<path fill-rule="evenodd" clip-rule="evenodd" d="M65.2652 57.8784H46.3156L46.3508 65.4265C46.4916 65.2733 46.7056 65.1598 46.8482 65.0444C51.1771 62.2235 57.0678 62.8335 61.7533 62.6803C64.5917 62.4155 65.1596 60.6992 65.2652 57.8784ZM20.5859 32.2628H44.612V37.1802H25.0927L20.5859 32.2628ZM25.5549 41.6398H44.6128V46.3671H25.5549V41.6398ZM46.3156 48.0825H65.2652V52.8097H46.3156V48.0825Z" fill="#F2CA30"/>
<path fill-rule="evenodd" clip-rule="evenodd" d="M35.705 56.545H44.6129V65.4643C41.9505 63.52 37.8699 62.8345 35.705 62.8345V56.545ZM25.5558 48.0825H34.2497V54.4097H25.5558V48.0825ZM56.5361 40.0388H65.2661V46.3661H56.5361V40.0388ZM46.3164 32.2628H54.9408V38.7055H46.3164V32.2628Z" fill="#CC2229"/>
<path fill-rule="evenodd" clip-rule="evenodd" d="M32.7589 43.5085C33.1146 43.0129 33.5751 42.6318 33.8946 42.6318C34.4977 42.6318 34.5338 43.2795 34.5338 44.0049C35.173 43.7761 35.3852 43.5094 37.2665 43.6616C37.0887 44.7293 36.5209 46.0635 34.4986 46.0635C34.0373 46.0635 33.1146 45.5681 33.1146 44.9959C33.1146 44.5761 33.3268 44.5005 33.2916 44.1572C33.2554 43.8895 33.0072 43.6606 32.7589 43.5085ZM38.0466 34.1305C38.3662 33.635 38.8627 33.2539 39.1823 33.2539C39.7853 33.2539 39.8214 33.9016 39.8214 34.626C40.4606 34.3972 40.6737 34.0927 42.5543 34.2827C42.3773 35.3504 41.8094 36.6847 39.7863 36.6847C39.325 36.6847 38.4023 36.1892 38.4023 35.617C38.4023 35.1972 38.6154 35.1215 38.5802 34.7783C38.544 34.5125 38.2957 34.2827 38.0466 34.1305ZM27.3295 34.1305C27.6491 33.635 28.1456 33.2539 28.4653 33.2539C29.0683 33.2539 29.0683 33.9016 29.1035 34.626C29.7427 34.3972 29.9549 34.0927 31.8363 34.2827C31.6233 35.3504 31.0553 36.6847 29.0683 36.6847C28.607 36.6847 27.6843 36.1892 27.6843 35.617C27.6843 35.1972 27.8613 35.1215 27.8261 34.7783C27.8261 34.5125 27.5769 34.2827 27.3295 34.1305ZM48.482 49.9501C48.8368 49.4546 49.3333 49.0357 49.6177 49.0357C50.256 49.0357 50.256 49.6835 50.2912 50.4078C50.9294 50.2168 51.1073 49.9123 52.9887 50.1034C52.8109 51.1332 52.243 52.5053 50.256 52.5053C49.7585 52.5053 48.8368 51.971 48.8368 51.3988C48.8368 51.0177 49.0498 50.9034 49.0146 50.561C49.0137 50.3312 48.7654 50.1024 48.482 49.9501ZM58.2042 49.9501C58.5607 49.4546 59.0554 49.0357 59.3399 49.0357C59.9799 49.0357 59.9799 49.6835 60.0152 50.4078C60.6534 50.2168 60.8313 49.9123 62.7461 50.1034C62.5348 51.1332 61.967 52.5053 59.9799 52.5053C59.4825 52.5053 58.5607 51.971 58.5607 51.3988C58.5607 51.0177 58.772 50.9034 58.7368 50.561C58.7368 50.3312 58.4885 50.1024 58.2042 49.9501ZM53.1647 59.5559C53.5214 59.0605 53.9809 58.6405 54.3004 58.6405C54.9054 58.6405 54.9405 59.2883 54.9405 60.0136C55.5788 59.8226 55.7919 59.5181 57.6715 59.7092C57.4954 60.738 56.9276 62.1111 54.9054 62.1111C54.4431 62.1111 53.5214 61.5777 53.5214 61.0046C53.5214 60.6235 53.7326 60.5101 53.6974 60.1668C53.6622 59.937 53.413 59.7092 53.1647 59.5559Z" fill="#33348E"/>
<path fill-rule="evenodd" clip-rule="evenodd" d="M79.3213 66.5319C80.7053 63.2922 84.9286 59.2136 88.2644 57.6116C86.559 62.5678 84.3606 64.5498 79.3213 66.5319ZM63.2786 4.131C58.8794 4.01657 55.7918 2.72106 54.0178 0.16688C58.2393 -0.176393 61.2916 1.15791 63.2786 4.131ZM70.5895 7.67621C67.148 6.723 64.6987 4.39766 63.5631 1.23355C67.6446 2.41657 69.6316 4.131 70.5895 7.67621ZM77.829 13.5467C74.9545 11.7547 72.3292 8.47621 71.4057 5.16082C75.2741 7.02845 77.4046 9.88709 77.829 13.5467ZM83.1176 21.7426C80.9526 19.5317 79.0017 14.8811 79.0369 11.4125C82.2653 13.699 83.6502 17.5875 83.1176 21.7426ZM86.2756 31.1574C84.6089 28.5275 83.6854 22.8093 84.3606 19.4173C86.559 23.0769 87.9077 26.4311 86.2756 31.1574ZM87.8022 40.4587C86.5942 37.5235 86.5238 31.4241 88.2292 28.5654C90.144 32.9485 90.6415 36.4946 87.8022 40.4587ZM86.9508 50.369C86.8082 46.9005 88.0513 40.3055 90.747 37.8279C91.1391 43.203 91.1391 46.3661 86.9508 50.369ZM84.0041 58.336C84.7498 54.9819 87.943 50.4456 90.8193 47.8915C90.4636 53.6097 88.7248 55.3252 84.0041 58.336ZM67.9994 7.79064C64.0957 7.90603 61.3268 7.37172 59.589 5.04639C63.3491 4.77973 65.9762 5.42748 67.9994 7.79064ZM74.0327 11.5647C70.4477 11.6791 68.2125 10.8015 66.6145 8.62942C70.0586 8.3996 72.1866 9.42946 74.0327 11.5647ZM79.0369 17.8154C75.061 17.091 73.0378 15.3378 71.3 13.0503C75.1685 12.899 77.4399 14.5378 79.0369 17.8154ZM83.2602 26.1256C80.7405 24.5625 77.2611 21.8183 76.0911 18.1208C80.3135 19.4173 82.3718 22.7326 83.2602 26.1256ZM85.4964 35.9603C83.7206 33.7494 80.4922 28.8699 80.3496 25.9734C84.1819 27.9166 85.6725 32.0728 85.4964 35.9603ZM86.3126 44.1174C83.615 40.8776 82.0523 37.5991 81.841 33.8638C85.4603 36.5703 86.4886 40.2677 86.3126 44.1174ZM84.3236 54.1053C82.9045 50.0646 82.5497 46.3293 83.615 42.7463C86.0995 46.7094 85.7799 50.5979 84.3236 54.1053ZM79.7457 63.33C79.4621 58.9847 80.3135 55.1341 82.3709 51.7799C83.4733 56.2007 82.0893 60.3569 79.7457 63.33ZM72.684 73.1646C74.458 70.3438 79.7456 67.4851 83.7928 66.4175C81.5918 71.2573 77.2259 72.4015 72.684 73.1646ZM66.5089 77.5098C68.8156 75.0701 75.4872 73.5457 79.2482 73.3169C75.9846 77.6631 70.0938 77.7766 66.5089 77.5098ZM58.9498 80.7496C62.0021 79.0333 69.3129 78.5775 73.0379 78.8064C67.0063 83.7615 64.947 82.0849 58.9498 80.7496ZM73.5362 70.6493C74.4227 66.1498 76.5181 61.6136 78.5756 60.4326C78.9647 64.8922 76.5173 68.4374 73.5362 70.6493ZM65.9058 76.1377C68.5311 69.6185 70.5534 68.5896 73.6409 65.9976C73.0036 70.9925 69.702 74.5358 65.9058 76.1377ZM56.9627 80.3695C60.4042 74.6522 61.3268 73.6989 66.8636 71.3358C65.2306 76.0602 60.4403 79.2631 56.9627 80.3695ZM40.4597 86.848C36.8756 88.5644 31.9076 89.4788 28.5004 89.441L29.5648 91.1173C33.9659 90.3186 37.4083 89.3654 43.1211 86.9266L40.4597 86.848ZM51.7807 82.3506C54.4078 80.5586 57.0684 78.2352 58.8794 75.3377C56.3949 75.6044 51.5686 78.1576 51.0359 78.6163C49.6871 79.7606 47.5566 82.1236 46.7404 83.3436C49.8632 85.9724 52.7395 86.3933 54.8674 86.2391C60.0494 85.9346 61.2203 84.9436 64.2726 83.8371C61.9299 82.3127 57.4954 81.3596 51.7807 82.3506ZM39.1118 82.3127C36.4855 80.5207 33.788 78.1576 32.0141 75.2999C34.4976 75.5287 38.2957 76.7865 39.8576 78.5785C46.4226 85.9724 53.9466 89.0996 60.8321 89.023L59.7668 90.6996C57.1767 90.4708 54.23 89.9763 46.103 85.9346C43.4055 84.6391 39.5379 85.8967 36.0243 86.2013C32.8302 86.4679 29.6713 84.4849 26.6199 83.7993C28.9617 82.2749 33.398 81.2839 39.1118 82.3127ZM33.9298 80.256C30.4875 74.5367 29.5648 73.5835 24.0288 71.2204C25.6611 75.9089 30.4522 79.1496 33.9298 80.256ZM24.9876 76.0224C22.3614 69.504 20.3383 68.4752 17.2507 65.8832C17.9242 70.8393 21.1896 74.4224 24.9876 76.0224ZM17.3934 70.5338C16.4706 66.0355 14.3762 61.5002 12.353 60.3181C11.9621 64.7787 14.4114 68.3229 17.3934 70.5338ZM11.1469 63.2156C11.4304 58.8704 10.6143 54.9819 8.55589 51.6277C7.42018 56.0874 8.83937 60.2036 11.1469 63.2156ZM6.56795 53.9908C7.98714 49.9501 8.34284 46.2148 7.27754 42.6318C4.83006 46.5572 5.11355 50.4835 6.56795 53.9908ZM4.5809 44.0039C7.27754 40.7642 8.83937 37.4856 9.05243 33.7494C5.43223 36.4558 4.40305 40.1543 4.5809 44.0039ZM5.39702 35.8081C7.17191 33.6359 10.4012 28.7565 10.5429 25.8599C6.71058 27.8032 5.21917 31.9574 5.39702 35.8081ZM7.63324 26.0112C10.1529 24.449 13.6305 21.7038 14.8015 18.0064C10.5791 19.3029 8.51978 22.6192 7.63324 26.0112ZM11.8565 17.7009C15.8315 16.9765 17.8899 15.2234 19.5935 12.9368C15.7602 12.7836 13.4887 14.4234 11.8565 17.7009ZM16.8606 11.4503C20.48 11.5647 22.6801 10.6493 24.3133 8.51499C20.8348 8.28615 18.706 9.315 16.8606 11.4503ZM22.8932 7.67621C26.832 7.78966 29.5648 7.25633 31.3035 4.931C27.5425 4.6653 24.9163 5.31305 22.8932 7.67621ZM31.9427 80.6362C28.8913 78.9198 21.5795 78.464 17.8537 78.6909C23.8862 83.648 25.9455 81.9695 31.9427 80.6362ZM24.3836 77.3955C22.077 74.9556 15.4054 73.4313 11.6435 73.2025C14.9088 77.5496 20.7995 77.6631 24.3836 77.3955ZM18.2085 73.0493C16.4345 70.2294 11.1821 67.3707 7.10059 66.3031C9.30164 71.1438 13.6666 72.288 18.2085 73.0493ZM11.5721 66.4175C10.2234 63.1777 5.96488 59.0992 2.62906 57.4973C4.33263 62.4534 6.56795 64.4355 11.5721 66.4175ZM6.88753 58.1838C6.17794 54.8675 2.94865 50.3312 0.0741551 47.778C0.428953 53.4944 2.16773 55.2097 6.88753 58.1838ZM3.97783 50.2556C4.12047 46.787 2.84302 40.1921 0.180685 37.6757C-0.245434 43.0507 -0.245433 46.2526 3.97783 50.2556ZM3.09039 40.3055C4.29652 37.409 4.40305 31.3096 2.66427 28.451C0.748544 32.835 0.251106 36.3802 3.09039 40.3055ZM4.61701 31.043C6.32058 28.4132 7.20803 22.6948 6.53364 19.3028C4.33263 22.9625 2.98476 26.3166 4.61701 31.043ZM7.77498 21.6282C9.939 19.4173 11.8917 14.7288 11.8565 11.298C8.62722 13.5845 7.24233 17.4731 7.77498 21.6282ZM13.0635 13.3935C15.938 11.6404 18.5995 8.36276 19.4869 5.04542C15.6185 6.87621 13.4887 9.77273 13.0635 13.3935ZM20.3383 7.56178C23.7454 6.60857 26.1937 4.28324 27.3295 1.11912C23.2479 2.30118 21.2961 4.01657 20.3383 7.56178ZM27.6138 4.01657C32.0141 3.90215 35.1016 2.60566 36.8765 0.0524559C32.6533 -0.289847 29.6009 1.04445 27.6138 4.01657Z" fill="#BBBCBF"/>
<path fill-rule="evenodd" clip-rule="evenodd" d="M65.693 37.9802V57.9172C65.5504 60.3191 64.6981 62.7201 62.2516 63.1012C56.5721 63.1012 50.1136 62.2246 45.6059 66.7607C40.4599 62.7588 35.5984 63.1012 29.2816 63.1012C26.2301 62.8733 25.3427 60.8912 25.2714 57.9172V37.9802L19.7355 31.843H71.2659L65.693 37.9802ZM20.6581 32.2628H70.3785L65.3391 37.8279V57.9172C65.3039 60.4714 63.9551 62.6057 62.1794 62.7201H55.2956C52.7407 62.4912 47.666 63.939 45.5716 66.2265C43.3715 64.3967 40.2839 63.1002 35.8476 62.7201H29.2825C26.7628 62.7201 25.5567 60.8515 25.6271 57.9172V37.8279L20.6581 32.2628Z" fill="white"/>
<path fill-rule="evenodd" clip-rule="evenodd" d="M79.6052 98.6291V94.8164H81.1661C81.9118 94.8164 82.3018 95.1973 82.3018 95.8827C82.3018 96.0737 82.2666 96.3037 82.1609 96.4546C82.0536 96.6455 81.9127 96.7982 81.6988 96.7982V96.8355C81.8044 96.8755 81.9118 96.9137 81.9822 96.9509C82.0527 97.0273 82.1248 97.1027 82.1601 97.2182C82.1601 97.2937 82.1953 97.3691 82.1953 97.4846C82.1953 97.56 82.2305 97.7118 82.2305 97.8282C82.2305 98.0946 82.2657 98.2846 82.2657 98.3618C82.2657 98.4382 82.3009 98.5137 82.3713 98.6291H81.8757C81.8408 98.5955 81.8131 98.5546 81.7946 98.5082C81.776 98.4618 81.767 98.4127 81.7683 98.3618C81.7683 98.3227 81.733 98.1337 81.733 97.9037C81.733 97.7127 81.6978 97.5227 81.6978 97.4073C81.6274 97.3318 81.5922 97.2182 81.52 97.1427C81.4144 97.0646 81.2365 97.0273 81.0596 97.0273H80.0647V98.6291H79.6052ZM80.0656 95.2346V96.6082H81.0957C81.3088 96.6082 81.4505 96.53 81.5579 96.4927C81.6283 96.3791 81.7339 96.3037 81.7692 96.2282C81.7692 96.1127 81.8044 95.9991 81.8044 95.9218C81.8044 95.7327 81.7692 95.6173 81.7339 95.5027C81.6537 95.4182 81.5568 95.3527 81.4505 95.3137C81.3252 95.2655 81.1936 95.2391 81.0605 95.2355H80.0656V95.2346ZM80.7761 93.9018C82.2305 93.9018 83.4014 95.1591 83.4014 96.7218C83.4014 98.2837 82.2305 99.5437 80.7761 99.5437C79.3217 99.5437 78.1489 98.2837 78.1489 96.7218C78.1489 95.1591 79.3217 93.9018 80.7761 93.9018ZM80.7761 93.4427C82.4445 93.4427 83.8284 94.9291 83.8284 96.7218C83.8284 98.5137 82.4445 100 80.7761 100C79.1078 100 77.7238 98.5137 77.7238 96.7218C77.7238 94.9291 79.1078 93.4427 80.7761 93.4427Z" fill="black"/>
</svg>
