<svg width="81" height="100" viewBox="0 0 81 100" fill="none" xmlns="http://www.w3.org/2000/svg">
<path fill-rule="evenodd" clip-rule="evenodd" d="M80.9092 8.46887V10.3744L40.9077 3.89527L0.90918 10.3744V8.46887L40.9077 1.94702L80.9092 8.46887Z" fill="white"/>
<path fill-rule="evenodd" clip-rule="evenodd" d="M80.9092 6.52013V8.46895L40.9077 1.94711L0.90918 8.46895V6.52013L40.9077 0L80.9092 6.52013Z" fill="#33A457"/>
<path fill-rule="evenodd" clip-rule="evenodd" d="M80.9092 10.3744L40.9077 3.89526L0.90918 10.3744L0.909796 16.9486L1.25641 16.7671C1.39739 16.6942 15.5907 9.42136 40.9846 9.42136C66.3804 9.42136 80.4081 16.6959 80.5503 16.7682L80.8932 16.9503L80.9092 10.3744Z" fill="#CC2131"/>
<path fill-rule="evenodd" clip-rule="evenodd" d="M40.9855 10.692C63.9174 10.692 77.3454 16.6562 79.5217 17.7021V36.628C79.5217 46.9462 76.8923 57.2251 71.7097 67.1848C60.3657 88.9387 43.296 97.4805 40.9085 98.5952C38.5192 97.4805 21.4366 88.9387 10.0956 67.1848C4.91302 57.2251 2.28418 46.9462 2.28418 36.628V17.7043C4.48022 16.6597 18.0493 10.692 40.9855 10.692Z" fill="#FFF22D"/>
<path fill-rule="evenodd" clip-rule="evenodd" d="M1.25775 16.7666L0.911133 16.9482V36.628C0.911133 47.1397 3.58492 57.6052 8.85862 67.7328C21.2388 91.4884 40.4325 99.7986 40.6246 99.88L40.909 100L41.1928 99.88C41.3868 99.7986 60.5644 91.4861 72.944 67.7328C78.2201 57.6052 80.8945 47.1397 80.8945 36.628V16.9499L80.5516 16.7678C80.41 16.6955 66.3817 9.4209 40.986 9.4209C15.5921 9.4209 1.39873 16.6938 1.25775 16.7666ZM40.986 10.692C63.9179 10.692 77.3459 16.6563 79.5222 17.7021V36.628C79.5222 46.9462 76.8928 57.2251 71.7102 67.1848C60.3662 88.9387 43.2965 97.4805 40.909 98.5952C38.5197 97.4805 21.4371 88.9387 10.0961 67.1848C4.9135 57.2251 2.28466 46.9462 2.28466 36.628V17.7043C4.4807 16.6597 18.0497 10.692 40.986 10.692Z" fill="black"/>
<path fill-rule="evenodd" clip-rule="evenodd" d="M46.9923 80.2553C47.6584 80.6809 47.1751 81.42 46.682 81.5355C46.1685 81.6647 45.7295 81.1378 45.4808 81.7153C45.3411 82.0254 45.7203 84.3748 48.3208 84.3748C50.7484 84.3748 51.9064 81.4946 52.1348 81.061C52.3645 80.6286 52.5122 80.0766 52.2826 80.0766C51.2175 80.0766 50.9072 80.661 50.9072 80.661C50.9072 80.661 50.8265 80.0988 51.356 79.6743C51.7925 79.3278 52.3651 79.412 52.5719 79.412C53.006 79.412 52.9376 79.1133 53.1999 78.5221C53.7977 77.1309 54.209 77.0683 54.5974 76.4339C54.9194 75.9173 54.3111 75.7147 53.1112 75.6106C51.9076 75.5047 51.263 75.5497 50.7256 75.622C50.1869 75.6931 49.6506 75.8951 49.3163 76.6564C49.1372 77.0689 49.4653 77.4752 50.0958 77.3699C50.7256 77.2612 51.332 76.8208 51.332 76.8208C51.332 76.8208 51.0482 77.8632 50.1081 78.0789C49.2363 78.2769 48.2069 77.791 48.3455 76.9756C48.5258 75.9178 49.317 75.1429 50.7601 74.8817C52.2056 74.6126 53.6462 74.8185 54.9311 75.1104C56.2117 75.4092 57.1542 75.2282 58.3449 75.1639C60.9122 75.037 62.503 74.4771 62.503 74.4771C62.503 74.4771 61.3462 75.3449 59.7425 75.746C58.1387 76.1506 56.7085 75.9827 56.2455 76.1506C55.8718 76.2985 55.3436 76.9841 54.9083 77.7676C54.5082 78.488 54.0821 79.3182 54.2662 79.3182C55.7573 79.3705 56.3034 79.0689 56.3034 79.0689C56.3034 79.0689 56.0085 79.6635 55.298 79.9446C54.8049 80.129 53.9682 80.129 53.9682 80.129C53.9682 80.129 53.5921 81.0092 53.1685 81.8035C52.7418 82.5973 52.0431 83.8371 50.7853 84.4505C49.5226 85.0627 47.108 85.8263 45.5873 83.8047C43.9786 81.684 45.447 79.2715 46.9923 80.2553ZM28.3225 80.5318C28.6193 81.234 27.9889 81.5998 27.6225 81.5998C27.255 81.5998 26.7976 81.3478 26.7021 81.7722C26.6147 82.1933 27.678 84.3652 30.1517 84.3652C32.6266 84.3652 33.7735 83.0417 33.5993 81.8559C33.4054 80.5324 31.1305 80.0066 29.3174 79.1253C28.4303 78.6951 26.4251 78.4072 26.4251 76.6723C26.4251 72.9682 32.5244 75.334 32.5244 75.334C32.5244 75.334 32.5373 74.8709 32.8211 74.8493C32.9584 74.8373 33.2342 74.7872 33.326 75.206C33.4165 75.6282 33.8197 77.853 33.8197 77.853C33.8197 77.853 32.9233 76.1591 30.4632 75.4194C30.0279 75.2783 28.1249 74.9437 28.136 76.336C28.1588 77.1628 29.2491 77.5338 31.1392 78.212C33.6233 79.1122 34.8959 79.9503 34.3092 82.364C33.7508 84.6815 31.2992 85.0627 30.1073 85.0627C28.9179 85.0627 26.1807 84.2918 26.1807 81.7489C26.1807 79.9509 28.0892 79.993 28.3225 80.5318ZM41.3553 66.6039L42.357 67.0426C42.9345 67.2492 43.3033 67.1581 43.4356 67.1069C43.5754 67.0512 44.1042 66.5265 44.2193 66.0799C44.2735 65.8978 44.2446 65.7396 44.1399 65.623C43.7502 65.1962 43.0601 63.236 42.804 62.1766C42.7091 61.7834 42.8243 60.6983 42.9135 59.8249C42.9917 59.075 43.0398 58.609 42.9991 58.4889C42.9308 58.3034 42.631 58.1242 42.2862 57.9222L41.7401 57.5785C41.4489 57.3583 41.436 57.0584 41.42 56.7364L41.3621 56.2362C41.2353 55.7708 38.6723 53.3514 38.2752 53.3292C37.6996 53.2945 37.55 53.8783 37.513 54.2294C37.4902 54.4348 37.747 55.352 37.9785 56.1651L38.234 57.1455C38.4962 58.6869 40.2693 61.4016 41.0253 62.5601L41.3843 63.1234C41.5394 63.45 41.4791 63.7077 41.2033 63.8523C40.9355 63.9945 38.6311 63.772 37.5303 63.5376C37.0574 63.4375 36.4738 63.2195 35.9043 63.0062C35.2523 62.766 34.6342 62.5328 34.2772 62.5163C33.8604 62.4963 33.6627 62.5743 33.5094 62.6397L33.2595 62.704L33.0107 62.6306C32.7054 62.506 32.1347 62.2784 30.5765 62.1481C28.3053 61.9512 28.1348 62.3734 28.0424 62.6016C27.9298 62.8918 29.3181 64.2562 29.5662 64.4389C29.882 64.6745 30.9034 65.0335 31.527 64.9379C32.24 64.8321 33.4023 64.6989 33.5464 64.7257L33.7803 64.8577L33.9976 64.9999C34.1947 65.0745 35.4641 65.1388 35.8477 65.1575C36.2903 65.1797 37.4527 65.4022 38.3023 65.5666L39.2516 65.7436C39.6235 65.8068 40.5814 66.2438 41.3553 66.6039Z" fill="black"/>
<path fill-rule="evenodd" clip-rule="evenodd" d="M64.8494 39.3815C64.799 39.324 64.7571 39.3206 64.7306 39.3269C64.7066 39.3343 64.674 39.3553 64.6647 39.4236C64.6229 39.7161 64.2258 40.4677 63.9106 40.5787C63.2721 40.8069 62.9415 41.4988 62.702 42.0029C62.5795 42.2629 62.4601 42.511 62.3653 42.5144C62.3246 42.5173 62.2797 42.4769 62.2304 42.3926C61.837 41.7656 62.0574 40.8069 62.2341 40.0342L62.2748 39.8447C62.4188 39.1932 63.2438 38.2805 63.7369 37.7331L63.9549 37.4907C64.2904 37.1038 64.3748 35.7929 64.312 35.6944C64.2917 35.6887 64.2781 35.6995 64.2701 35.7109C64.2624 35.7166 64.256 35.7235 64.251 35.7314L64.2436 35.7303V35.7371C64.2233 35.7576 64.2061 35.7599 64.1895 35.8259C64.1014 36.2355 63.2912 37.068 61.9072 38.1741C61.6234 38.4011 61.3002 38.8114 61.0354 39.1408C60.8649 39.357 60.6648 39.6063 60.6119 39.6182C60.269 37.9272 60.8895 36.9604 61.1844 36.4933L61.3217 36.256C61.9072 34.7835 63.415 33.6682 63.431 33.658C63.4513 33.6153 63.4513 33.5698 63.4143 33.5408C63.3565 33.4998 63.2506 33.5174 63.0837 33.5948L62.9926 33.6369C62.4668 33.8731 60.8809 34.5871 59.9082 36.3067C59.2094 37.5448 58.9391 38.9286 58.9391 39.9721C58.9391 40.5047 59.0087 40.9463 59.1269 41.2387C59.4686 42.0808 60.067 44.1736 60.2511 44.9952C60.3656 45.5045 60.3835 47.253 60.3835 48.3489C60.3835 48.8843 60.381 49.2593 60.381 49.2735C60.3773 49.2735 60.0793 50.1623 60.0793 50.1623C60.0781 50.1714 59.934 50.8656 58.7064 52.0258C57.4702 53.1928 56.0936 53.5638 56.0813 53.5683C55.5284 53.6081 55.0242 53.5871 55.0063 53.5205C55.0063 52.1868 52.5351 49.084 51.2705 48.0604C49.9801 47.0152 48.9489 46.2664 47.1968 45.2809C45.4126 44.2772 43.4283 40.0694 43.4056 40.0285L43.2338 39.46C43.2338 39.46 43.1377 38.3249 43.1113 38.0296C43.1759 38.0637 43.2603 38.1121 43.2603 38.1121L43.8685 38.4393L44.5673 38.6873C44.5735 38.689 45.4822 38.8535 45.4822 38.8535C45.4822 38.8552 45.9907 39.0959 45.9907 39.0959L46.4623 39.3792L47.1955 39.8686L47.9485 40.2344C47.9639 40.2384 48.8529 40.2805 48.8529 40.2805L48.8732 40.2128C48.8732 40.2128 47.8438 39.7662 47.8413 39.7662C47.8413 39.7525 47.4707 39.1664 47.4707 39.1664C47.3266 38.9752 47.1828 38.7839 47.0391 38.5923C47.025 38.5832 46.5041 38.2959 46.5041 38.2959C46.2837 38.2648 46.0628 38.236 45.8417 38.2094C45.8417 38.2043 45.7118 38.1013 45.6447 38.0455C45.7026 38.0142 45.8115 37.9516 45.8115 37.9516C45.8115 37.959 46.5208 38.0347 46.5232 38.0347C46.5232 38.0415 47.1543 38.4381 47.1543 38.4381L47.8432 38.9286C47.8543 38.9337 48.4952 39.1636 48.4952 39.1636L48.5795 39.1943L48.2982 38.5178C48.1223 38.362 47.9452 38.2074 47.7669 38.054L46.9862 37.4407C46.98 37.4355 46.373 37.1465 46.373 37.1465C46.3669 37.1454 45.7192 36.9434 45.7192 36.9434C45.7192 36.9422 45.034 36.5382 45.034 36.5382C45.034 36.5382 45.0413 36.495 45.0463 36.458C45.1331 36.4887 45.995 36.8085 45.995 36.8085C45.9999 36.8091 46.8212 37.0156 46.8212 37.0156C46.82 37.0128 47.5101 37.2592 47.5101 37.2592C47.5077 37.2569 48.5007 37.7047 48.5007 37.7047C48.5093 37.7087 49.3318 37.8737 49.3318 37.8737C49.346 37.8742 50.3464 37.7087 50.3464 37.7087C50.3594 37.703 51.313 37.0896 51.313 37.0896C51.3241 37.0731 51.4996 36.7084 51.4996 36.7084L51.5371 36.6242L51.2305 36.7414C51.2281 36.7414 50.3649 37.1465 50.3637 37.1465L49.7659 37.27C49.7659 37.2671 49.0911 37.1448 49.0899 37.1448H49.0911C49.0911 37.1374 48.5438 36.6668 48.5438 36.6668L47.7669 35.9715L47.0644 35.6392C47.0545 35.6352 46.2333 35.5123 46.2333 35.5123C46.2333 35.5106 45.7333 35.2756 45.7247 35.2717C45.7272 35.2717 45.7284 35.2631 45.7284 35.2512C45.7284 35.1954 45.713 35.0736 45.7069 35.0167L46.7399 35.097L47.8715 35.0128C47.8715 35.0156 48.5087 35.1357 48.5087 35.1357L49.1533 35.3815L49.8133 35.464L49.9321 35.4788L49.1964 34.8284C49.189 34.825 48.4545 34.3345 48.4545 34.3345C48.4459 34.3305 47.8389 34.1251 47.8389 34.1251C47.8278 34.1228 46.8157 34.0438 46.7954 34.0421C46.804 34.0415 46.8052 34.0255 46.8052 34.0022C46.8052 33.9453 46.7954 33.8645 46.7898 33.823L47.2682 33.7479C47.2682 33.7507 48.034 33.91 48.034 33.91C48.034 33.9123 48.7593 34.3146 48.7593 34.3146L49.543 34.5621C49.5658 34.5627 50.6875 34.3999 50.6875 34.3999L50.7546 34.3914L50.4129 33.9743C50.3939 33.9607 49.8299 33.7985 49.8287 33.7985C49.8287 33.7957 49.3632 33.4776 49.3632 33.4776L48.6694 33.027C48.6596 33.0218 48.1418 32.8591 48.1418 32.8591C48.1332 32.8563 47.3168 32.7356 47.3143 32.7351C47.3143 32.7271 46.9129 32.3857 46.9043 32.38C46.9166 32.3777 46.9419 32.2588 46.9511 32.2048L47.3827 32.3163L47.938 32.561L48.7267 32.792L48.5524 32.4705L48.2458 32.1746L47.9774 31.8548L48.0938 31.8281C48.0938 31.8378 48.9329 32.2332 48.9329 32.2332L49.5867 32.4392C49.5867 32.4426 50.0916 32.8802 50.0916 32.8802C50.099 32.8858 51.0545 33.3843 51.0545 33.3843L51.1505 33.4344L50.9763 33.0031C50.9713 32.9934 50.453 32.3806 50.453 32.3806L50.0214 31.691C50.0177 31.683 49.2364 30.9484 49.2364 30.9484C49.229 30.9416 48.2348 30.4505 48.2323 30.4505C48.2323 30.4466 47.8537 30.05 47.8537 30.05C47.6219 29.8321 47.3906 29.6138 47.1598 29.3951C47.1598 29.3865 47.089 29.1623 47.0527 29.0485C47.1703 29.0832 47.7262 29.2539 47.7262 29.2539L48.5044 29.4571C48.5044 29.4588 49.0597 29.7786 49.0597 29.7786C49.0597 29.782 49.5227 30.3015 49.5227 30.3015C49.5393 30.3134 50.2769 30.6002 50.2769 30.6002L52.1565 30.8255L52.2661 30.838L51.7501 30.3362C51.7372 30.3271 50.7411 29.918 50.7411 29.918L50.1433 29.5151C50.1433 29.5077 49.809 28.9535 49.809 28.9535L49.4605 28.3822C49.4544 28.3737 48.8917 27.8838 48.8917 27.8838C48.883 27.8781 48.1904 27.5105 48.1904 27.5105L47.5052 26.9836C47.5052 26.9785 47.3402 26.6627 47.2349 26.4522L47.7108 26.8761L48.6202 27.6118C48.6312 27.6181 49.3251 27.9043 49.3251 27.9043L49.9192 28.3481L50.6093 28.999C50.6333 29.0093 51.712 29.1498 51.712 29.1498L51.8468 29.168L50.7515 28.2912C50.7515 28.2753 50.5041 27.5726 50.5041 27.5726C50.3146 27.4022 50.1233 27.2336 49.9303 27.0667L49.6323 26.743C49.6323 26.7344 49.3355 25.8986 49.3355 25.8986C49.1315 25.7023 48.9259 25.5075 48.7187 25.3142C48.7187 25.3097 47.7293 24.4567 47.7268 24.4533V24.4516C47.7268 24.4385 47.6917 24.3082 47.6714 24.2223C47.7472 24.2576 47.8506 24.3082 47.8506 24.3082L48.7587 24.797C48.7673 24.801 49.8484 25.0866 49.8484 25.0866L50.9763 25.3336L52.2796 25.5259L51.973 24.9529C51.9515 24.9347 51.3032 24.6906 51.3032 24.6906L50.7017 24.3663C50.6955 24.3646 49.961 24.0778 49.961 24.0778L49.314 23.8331C49.314 23.8274 48.8941 23.3267 48.6602 23.0502C48.8849 23.1896 49.2315 23.4075 49.2315 23.4075C49.2481 23.4126 49.8145 23.4542 49.8145 23.4542L51.5907 23.4547C51.5907 23.4593 52.3098 23.8183 52.3098 23.8195C52.3098 23.8217 52.923 24.4328 52.923 24.4328L53.0036 24.5131L52.9291 23.8234C52.9217 23.8035 52.532 23.3534 52.532 23.3534C52.5209 23.3455 51.4799 22.814 51.4799 22.814L50.6524 22.5261C50.6463 22.5244 49.3996 22.3207 49.3934 22.3207V22.319C49.3934 22.3082 49.1552 22.0459 49.1552 22.0459C49.1502 22.0436 48.2428 21.2675 48.2428 21.2675C48.0961 21.1967 47.9489 21.1267 47.8013 21.0575C47.8013 21.0553 47.6628 20.9238 47.5766 20.8408H48.0433C48.0433 20.8476 48.7587 21.2447 48.7587 21.2447C48.7648 21.2487 49.7197 21.5332 49.7197 21.5332L50.9381 21.6977H50.9369C50.9369 21.7096 51.3888 22.1773 51.3888 22.1773L52.0475 22.5512C52.2974 22.5938 52.5475 22.6349 52.798 22.6746L52.9026 22.69L51.3611 20.9443C51.3512 20.9358 50.6143 20.5688 50.6143 20.5688C50.6081 20.5654 49.7437 20.3201 49.7437 20.3201C49.7437 20.3116 48.9828 19.5139 48.9828 19.5139C48.9742 19.5053 48.0211 18.9756 48.0211 18.9756C47.7908 18.9217 47.5599 18.8697 47.3285 18.8197C47.3716 18.7554 47.5151 18.5369 47.5151 18.5358C47.5175 18.542 48.2785 18.2239 48.2785 18.2239C48.2785 18.2257 49.394 18.0225 49.394 18.0225C49.4242 17.9986 49.5085 17.7522 49.5085 17.7522C49.4944 17.7107 49.0179 17.4251 49.0179 17.4251C48.8277 17.368 48.6373 17.3119 48.4465 17.2566C48.4114 17.2606 48.1098 17.4239 48.1098 17.4251C48.1098 17.42 47.1764 17.4592 47.1764 17.4592C47.1764 17.4586 46.0609 17.2162 46.0609 17.2151C46.0609 17.21 44.9114 16.3246 44.9114 16.3246C44.7355 16.2409 44.5592 16.1578 44.3826 16.0754C44.3697 16.0731 42.471 15.8677 42.4661 15.8677C42.4661 15.8455 42.0197 15.2299 42.0197 15.2299L41.409 14.6131C41.4065 14.6097 40.6314 13.9633 40.6314 13.9633L40.6074 14.0105L40.3476 14.542C40.3488 14.5368 40.0915 14.9044 40.0915 14.9044V14.9135C40.0915 14.9812 40.1278 15.3363 40.1278 15.3363C40.1389 15.3585 40.3901 15.5963 40.3956 15.6031C40.3827 15.6031 40.3008 15.973 40.3008 15.9758C40.2983 15.9502 39.2591 15.9895 39.2573 15.9895C39.2573 15.9849 38.4083 15.6248 38.4083 15.6248C38.4027 15.6214 37.752 15.4177 37.752 15.4177C37.7391 15.4137 36.2252 15.4569 36.2252 15.4569C36.1919 15.4728 35.9352 15.8404 35.9352 15.8404L35.9007 15.8888L36.5669 15.9775C36.5669 15.9798 36.6654 16.0379 36.7202 16.0703L36.5496 16.1989C36.5496 16.1909 35.6231 16.1517 35.6231 16.1517C35.6077 16.1539 34.9557 16.398 34.9557 16.398L34.888 16.4248L35.2112 16.6256C35.2315 16.6325 36.6161 16.6729 36.6161 16.6729L37.6443 16.9175V16.9187C37.6443 16.9318 37.84 17.1901 37.84 17.1901C37.84 17.1901 37.9792 17.3716 38.0315 17.4427L37.5913 17.6669C37.5968 17.6663 36.3403 18.1562 36.3403 18.1562L33.7428 19.5042C33.7404 19.5019 32.0326 19.7375 32.0326 19.7375C32.0196 19.7415 31.364 20.0789 31.364 20.0789C31.3498 20.088 30.8234 20.7622 30.8234 20.7622C30.8179 20.7708 30.5199 21.61 30.5199 21.61C30.4965 23.0359 30.5581 23.069 30.5802 23.0803C30.6313 23.1099 31.0771 23.3432 31.4218 23.1725C31.8122 22.9762 32.6476 22.7833 33.0816 22.698C33.2959 22.6576 33.3962 22.7287 33.4141 22.8021C33.4375 22.8823 33.3728 22.9916 33.2128 23.032L33.1229 23.0564C32.3681 23.2459 31.5979 23.4752 31.6231 23.7444L31.7561 23.9498C32.0929 24.1768 32.9684 24.0692 33.4332 23.9719L33.9183 23.8462C34.337 23.7284 34.8129 23.597 35.2192 23.6391C35.4538 23.6641 35.6606 23.7574 35.905 23.8638C36.2363 24.0118 36.6149 24.1796 37.1794 24.2138C38.1208 24.2741 38.7635 24.4499 38.814 24.5011C38.9402 24.7384 38.8589 25.0895 38.7955 25.3717L38.7469 25.6272C38.4834 27.8354 35.8158 30.3322 34.5303 31.5299C34.183 31.8543 33.9534 32.0682 33.9042 32.1575L33.7564 32.4733C33.6314 32.7664 33.5298 33.019 33.1223 33.1703C32.8865 33.2551 32.3367 33.6375 31.6989 34.079C30.7779 34.714 29.6358 35.5038 29.3212 35.4697C28.7948 35.4122 26.3365 33.848 26.2331 33.7519C23.8388 31.6107 22.8371 32.05 22.2375 32.3117L22.1427 32.3527C21.4285 32.6531 20.6787 34.5229 20.6109 34.924L20.3216 36.0756L20.0993 36.9217C20.0334 37.2079 19.7385 37.9112 19.4572 38.5906L18.8797 40.07C18.7843 40.4125 18.5528 40.8939 18.3644 41.2831L18.1089 41.8595C17.931 42.536 17.9279 46.2413 18.2376 46.5691L18.2511 46.5827L18.3121 46.5992C18.623 46.5696 19.2904 45.9341 19.6105 45.6274L19.6844 45.5563C19.9553 45.3048 20.2428 44.6334 20.2428 44.3511C20.2428 44.0746 20.103 43.4965 20.0476 43.3389C19.6142 42.1155 19.7779 40.9497 19.8568 40.3909L19.8882 40.1417C19.9109 39.8822 20.1923 39.5949 20.4656 39.3195L20.811 38.9502C21.0006 38.7169 21.2112 38.6395 21.399 38.5707L21.7074 38.408L21.7554 38.3619C21.9598 38.1724 22.3028 37.8526 22.453 37.4247L22.746 36.2532L22.8101 35.9402C22.8248 35.8776 22.8593 35.8429 22.9166 35.8315C23.0329 35.8076 23.2071 35.893 23.2816 35.9846L25.4007 38.2572C25.9437 38.6845 26.5015 39.1943 26.5015 39.3064L26.5009 39.3161C26.5009 39.3144 26.488 39.3166 26.488 39.3166C26.1912 39.3451 24.6983 39.0509 24.4502 38.9855C22.4216 38.4358 21.4956 38.5326 20.7815 39.3588C19.9676 40.305 20.2237 43.2029 20.3899 43.5204C20.5426 43.8083 21.2851 47.3389 21.3183 47.8095C21.3516 48.271 21.5449 49.096 21.7468 49.2855L21.8022 49.3378C22.0522 49.5666 22.7109 50.1782 22.8273 50.7814C22.9529 51.438 24.4619 53.1962 25.0375 53.3538C25.0806 53.3654 25.1262 53.3672 25.1703 53.3593C25.2144 53.3514 25.2558 53.3339 25.2911 53.3083C25.7301 53.0204 25.9296 51.6132 25.9536 51.0192C25.9819 50.2789 25.6944 49.921 25.389 49.5381L25.2721 49.3885C25.0473 49.1051 24.6515 49.0021 24.3904 48.9344C24.279 48.9054 24.1263 48.8712 24.1263 48.8394C24.1263 48.8286 24.0955 47.7441 23.7212 47.5347C23.43 47.3691 23.132 46.3227 23.0969 45.9244C23.0631 45.529 22.8975 44.5742 22.6752 44.1548C22.4505 43.7338 22.2615 42.9577 22.3575 42.3591C22.3976 42.1019 22.5958 42.0211 22.7571 41.9978C23.0354 41.9568 23.3567 42.0677 23.4066 42.1577C23.5174 42.3636 25.6568 43.5562 26.3784 43.8123C26.8266 43.9693 27.433 44.4427 27.9686 44.8649C28.3497 45.1602 28.6772 45.4146 28.8816 45.5051C29.1575 45.628 29.9393 45.6422 30.5673 45.6536C30.9004 45.6587 31.2464 45.6661 31.2932 45.6917C31.0383 45.7861 31.0414 46.1992 31.0623 46.3324C31.3227 48.0411 38.0487 52.7347 38.569 52.9982C39.1711 53.2969 41.3308 55.3811 41.5198 55.6645C41.7156 55.9444 41.9058 56.2489 41.8695 56.4833C41.8178 56.8298 41.968 57.2258 42.2684 57.549C42.5559 57.85 42.9309 58.0315 43.2775 58.0315C43.5779 58.0315 43.7786 57.7823 43.927 57.6025L43.9584 57.5649C44.3598 57.0739 44.9552 56.3547 45.0321 55.2298C45.114 54.0764 45.6841 53.6184 45.87 53.5882C45.9531 53.574 46.0141 53.5973 46.0362 53.648C46.059 53.7003 46.0313 53.7879 45.9187 53.8568C45.6724 54.011 45.5185 54.5214 45.3498 55.067C45.3486 55.0716 45.287 55.6241 45.287 55.6241C45.2728 56.0366 45.2556 56.5043 44.8099 56.9578C44.1425 57.6258 43.3766 59.1661 43.1784 61.1109C43.0583 62.2825 43.629 63.9701 44.8739 66.1209L44.9607 66.2746L45.2975 66.7969C45.6379 67.3028 46.2068 68.1437 46.1803 68.3406C46.144 68.6183 46.1157 68.8362 45.5973 69.4376C45.0272 70.0988 42.9469 72.3361 42.7437 72.3714C42.33 72.3714 42.2604 72.4203 41.9274 72.6536L41.5764 72.9005C41.1923 73.1526 41.1252 73.3415 41.0605 73.5082C41.0131 73.634 40.9682 73.7438 40.7896 73.8673L40.656 73.9503C40.6283 73.9725 40.5532 74.0704 39.7172 74.8437C38.7586 75.7193 38.3307 76.7105 38.4785 77.6955C38.5259 78.0033 38.8128 78.1108 39.6636 78.1467C40.5132 78.1831 42.4611 76.9233 42.5479 76.5131L42.5781 76.3566C42.6526 75.9868 42.7776 75.3632 42.998 75.2733C43.264 75.1657 43.7195 74.6798 44.0538 74.3264L44.1185 74.2599C44.2964 74.0698 44.3395 73.8809 44.382 73.7011C44.4183 73.5589 44.4516 73.4155 44.5525 73.2846C44.6319 73.189 44.7483 73.1367 44.8831 73.0792C45.1417 72.9648 45.4674 72.8192 45.7019 72.2746C45.9353 71.7409 47.3279 70.8174 48.345 70.1455C48.8646 69.8041 49.2721 69.5309 49.3694 69.4109C49.503 69.2499 49.5849 68.9398 49.5849 68.6109C49.5849 68.2205 49.4716 67.8052 49.2063 67.5742C48.8202 67.243 48.457 66.2575 48.3486 65.9485V65.9417C48.3486 65.8137 48.3357 65.5793 48.3148 65.1428C48.3123 65.1229 48.3123 65.1019 48.3123 65.0831C48.3123 63.9286 50.1691 62.7991 50.9707 62.3126L51.3364 62.0794C54.2429 59.7101 54.8118 57.9086 54.9195 57.4142L54.9786 56.8218C54.9965 56.4116 55.0113 56.0207 55.2791 55.9695C55.3837 55.9507 55.558 56.0287 55.6639 56.1453C55.7242 56.2085 55.8128 56.3399 55.7537 56.4918C55.6214 56.8241 55.5771 60.1647 55.5758 60.3035C55.5857 60.3269 55.8886 60.6569 55.8886 60.6569L55.944 60.7166L55.9606 60.6387C55.9643 60.6 56.1311 59.6896 56.1311 59.3675C56.1311 59.0074 56.7579 57.4648 56.9093 57.4381C56.9093 57.4426 56.9192 57.4557 56.9192 57.4557C56.9924 57.6691 57.086 58.196 57.086 58.7513C57.086 59.297 56.9968 59.8705 56.7099 60.2028C56.2746 60.7007 55.928 61.4887 55.702 62.0088L55.4927 62.4509C55.4691 62.5122 55.4588 62.5772 55.4625 62.6421C55.4625 63.0654 55.6983 63.9679 55.8535 64.1357C55.8941 64.1755 55.9267 64.1755 55.9495 64.1681C56 64.1505 56.0456 64.0902 56.0456 63.7357C56.0456 62.3855 57.2732 61.4062 57.288 61.3988C58.3703 60.6051 58.6061 59.1331 58.6061 58.0116C58.6061 57.1627 58.4712 56.5146 58.4676 56.4969C58.2964 56.2623 58.1232 56.029 57.9479 55.7971C57.9732 55.8084 58.1142 55.7015 58.161 55.6668C58.2077 55.7225 58.7009 56.3268 58.7009 56.3268C58.784 56.4343 58.9946 56.7479 58.9946 56.8725C58.9946 57.5672 59.1103 58.0429 59.1928 58.3917L59.2131 58.4742C59.2999 58.844 59.8411 60.0259 59.8651 60.0765L59.923 60.2011L59.9408 60.0657C59.9408 60.06 60.0264 59.4421 59.9408 58.9135C59.8916 58.617 59.9531 58.2534 60.0153 57.8608L60.1138 56.9595C60.1138 56.2272 60.0005 55.7646 59.7179 55.3436L59.5739 55.1416C59.5172 55.0591 59.4618 54.9783 59.468 54.9618L59.5739 54.9197C61.8598 54.2027 62.9237 52.6471 63.3571 51.7856C63.8114 50.873 63.8355 49.4676 63.8355 49.1973C63.8355 48.8451 63.8188 47.0186 63.487 46.0803C63.2924 45.5267 63.3546 44.9321 63.4199 44.2903L63.4907 43.1915C63.4907 42.4399 63.9186 41.8817 64.3335 41.3423L64.8279 40.6344C65.1511 40.045 64.9793 39.5289 64.8494 39.3815Z" fill="black"/>
<path fill-rule="evenodd" clip-rule="evenodd" d="M39.2632 15.8551C39.3014 15.8574 39.7871 15.644 39.7871 15.644C39.8087 15.6036 39.696 15.1786 39.696 15.1786C39.3454 14.7943 38.993 14.4113 38.6389 14.0298L38.5866 13.9734L38.5687 14.044L38.4554 14.5043C38.4561 14.4998 38.1199 15.2429 38.1199 15.2429L38.1045 15.2742L38.8125 15.6087L39.2632 15.8551Z" fill="black"/>
<path fill-rule="evenodd" clip-rule="evenodd" d="M39.4723 18.8042C39.5844 18.8429 39.7537 18.8258 39.9137 18.7598C40.1588 18.6534 40.3035 18.4714 40.2413 18.3411L40.1286 18.2472C40.0178 18.2079 39.8485 18.2256 39.6909 18.2927C39.4809 18.3792 39.3467 18.5231 39.3467 18.6455C39.3467 18.6677 39.3535 18.6916 39.3615 18.7103L39.4723 18.8042ZM43.7013 17.1911L43.9032 17.2918C43.9194 17.3241 43.9432 17.3527 43.973 17.3753C44.0027 17.398 44.0375 17.4142 44.075 17.4227C44.118 17.431 44.1625 17.4302 44.2051 17.4204C44.2478 17.4105 44.2875 17.3918 44.3212 17.3658C44.3754 17.3265 44.3883 17.2531 44.3538 17.1604C44.2997 17.0062 44.1254 16.8378 43.9377 16.8378C43.6957 16.8378 43.4747 16.8634 43.4747 17.0284C43.4753 17.1211 43.5904 17.1564 43.7013 17.1911ZM43.9432 17.8506C43.8496 17.9143 43.8084 18.0002 43.8348 18.0873L43.8539 18.1595C43.8779 18.2449 43.8866 18.2625 43.9715 18.2716L44.1254 18.2972C44.3224 18.3439 44.634 18.2307 44.7048 18.085C44.7288 18.0378 44.7479 17.9462 44.6137 17.8597C44.3828 17.7174 44.0983 17.7482 43.9432 17.8506ZM44.573 20.3832C44.5164 20.3582 44.5404 20.2751 44.5841 20.1544C44.6192 20.056 44.6512 19.9616 44.5964 19.9098C44.5484 19.8671 44.4628 19.8705 44.3175 19.9206C43.7942 20.0947 43.7142 20.5875 43.6563 20.9476L43.6384 21.0586C43.6083 21.219 43.6976 21.2737 43.753 21.2919C43.9334 21.351 44.259 21.1997 44.3323 21.0842C44.4142 20.9596 44.8661 20.8458 45.1954 20.7627L45.3216 20.7308C45.4743 20.6922 45.5525 20.6381 45.5636 20.5647C45.5802 20.4685 45.4651 20.3809 45.3629 20.3246C45.2681 20.2728 45.1271 20.3098 44.9793 20.349C44.8328 20.386 44.6752 20.4242 44.573 20.3832ZM39.042 20.5681C39.1577 20.5573 39.2482 20.5158 39.3055 20.4395C39.4723 20.2096 39.4809 19.8842 39.319 19.5889C39.1626 19.3072 38.8948 19.1268 38.6215 19.1177L38.6252 19.1189L38.5655 19.1115L38.0619 19.1479C37.7959 19.2025 37.549 19.384 37.4893 19.5627C37.4591 19.6532 37.4764 19.7357 37.5435 19.7977C37.9473 20.1931 38.6449 20.596 39.042 20.5681ZM34.0829 20.1937C34.1432 20.3308 34.4196 20.3462 34.8254 20.2347L34.9146 20.2096L35.6417 19.9468L36.6951 19.3066C36.7259 19.2845 37.0011 19.0933 36.9444 18.9709C36.9044 18.8907 36.7671 18.9049 36.668 18.922C36.3774 18.9709 36.0924 19.1001 35.7889 19.2367L35.3604 19.4204L35.1714 19.4921C34.5194 19.7414 33.985 19.965 34.0829 20.1937ZM31.8678 20.9061C31.6486 20.9061 31.5501 21.0159 31.47 21.1132L31.3722 21.2156C31.2035 21.3493 31.1518 21.6725 31.1727 21.9183C31.1813 22.0208 31.2127 22.2063 31.3217 22.2654C31.5304 22.3843 31.6301 22.3007 31.8431 22.1135L32.0081 21.9826C32.2174 21.8205 32.4606 21.6367 32.4908 21.3539C32.5056 21.2344 32.4748 21.136 32.4028 21.062C32.2747 20.9334 32.0408 20.9061 31.8678 20.9061ZM33.0794 20.9954C33.0166 20.9829 32.979 21.0011 32.9593 21.0199C32.8959 21.0774 32.9218 21.2003 32.9415 21.2987L32.9538 21.3675L32.9408 21.4091C32.9267 21.4444 32.9107 21.4893 32.9408 21.5274C32.9679 21.5656 33.0338 21.5821 33.1459 21.5821C33.2881 21.5832 33.3022 21.5695 33.3502 21.4523L33.3884 21.3619C33.4229 21.2822 33.4235 21.2105 33.3909 21.1536C33.3324 21.0535 33.1871 21.0153 33.0794 20.9954ZM34.251 22.7502C34.3253 22.747 34.3955 22.7175 34.4469 22.6678C34.4983 22.618 34.527 22.5519 34.527 22.4831C34.527 22.4143 34.4983 22.3481 34.4469 22.2984C34.3955 22.2486 34.3253 22.2191 34.251 22.2159C34.2134 22.2161 34.1762 22.2232 34.1416 22.2368C34.107 22.2503 34.0756 22.2701 34.0493 22.2949C34.0229 22.3197 34.0022 22.3491 33.9882 22.3813C33.9742 22.4136 33.9673 22.448 33.9677 22.4828C33.9677 22.6302 34.094 22.7502 34.251 22.7502ZM39.529 22.0993C39.4883 22.0923 39.4463 22.0957 39.4076 22.1091C39.3688 22.1226 39.3348 22.1455 39.3092 22.1755C39.231 22.2597 38.7551 22.5613 38.4072 22.7821L37.9584 23.0768L37.9221 23.1092C37.8661 23.1582 37.8384 23.1883 37.8747 23.2896L37.9295 23.3607L38.0477 23.3386L38.2225 23.2788L38.4743 23.2424C38.7225 23.2128 38.994 23.1787 39.122 23.0575L39.2889 22.8054L39.537 22.4373C39.6558 22.3161 39.6619 22.233 39.6453 22.1858C39.6357 22.1633 39.6199 22.1434 39.5995 22.1283C39.5791 22.1131 39.5548 22.1031 39.529 22.0993ZM40.0504 23.5866C40.0504 23.7226 40.1237 23.7761 40.1649 23.7949C40.2764 23.8495 40.4364 23.7966 40.5319 23.6737L40.8545 23.4142C41.0293 23.2982 41.2245 23.1673 41.3975 22.9642C41.5575 22.7735 41.4886 22.6563 41.4313 22.6063C41.3217 22.5073 41.0964 22.4845 41.0201 22.5425L40.9271 22.6011C40.7159 22.728 40.216 23.0279 40.0904 23.3926C40.0656 23.4548 40.0521 23.5204 40.0504 23.5866ZM42.1523 23.4398C42.0864 23.3511 41.9731 23.3141 41.8888 23.3522L41.6616 23.5115C41.5015 23.6322 41.302 23.7852 41.129 23.8302C40.7092 23.9343 40.1397 24.1078 40.1046 24.3741L40.104 24.4088C40.104 24.4822 40.1397 24.5261 40.1742 24.5505C40.3336 24.6706 40.7209 24.5995 41.001 24.5016C41.4307 24.3548 41.6918 24.1755 42.0291 23.8922C42.2366 23.7175 42.2274 23.5428 42.1523 23.4398ZM40.5195 26.5067L40.3829 26.4925C40.0295 26.5796 39.4261 27.54 39.0026 28.2558L38.9268 28.3799L37.6574 30.5819L37.259 31.2829C37.2147 31.3466 37.2301 31.4399 37.2966 31.5008C37.3582 31.5577 37.4659 31.589 37.5964 31.5128C37.8082 31.3825 38.5809 30.6741 38.9392 30.1176L39.4163 29.5093C39.7223 29.14 40.0707 28.727 40.2751 28.2348L40.3472 28.0652C40.8317 26.9039 40.9074 26.7264 40.5195 26.5067ZM45.2933 22.274C45.2572 22.2732 45.2212 22.279 45.1875 22.2911C45.1538 22.3032 45.123 22.3213 45.0969 22.3444C45.0708 22.3675 45.0498 22.3951 45.0353 22.4257C45.0207 22.4563 45.0128 22.4892 45.012 22.5226C45.012 22.6597 45.1382 22.7713 45.2933 22.7713C45.4485 22.7713 45.5722 22.6597 45.5722 22.5226C45.5717 22.4893 45.564 22.4565 45.5497 22.426C45.5353 22.3954 45.5146 22.3678 45.4887 22.3447C45.4628 22.3216 45.4322 22.3035 45.3986 22.2913C45.3651 22.2792 45.3293 22.2733 45.2933 22.274ZM45.1597 23.3112C45.1597 23.4489 45.2859 23.5605 45.4411 23.5605C45.4769 23.5608 45.5124 23.5547 45.5456 23.5424C45.5788 23.53 45.6091 23.5118 45.6346 23.4886C45.6602 23.4655 45.6806 23.4379 45.6946 23.4074C45.7086 23.377 45.716 23.3443 45.7163 23.3112C45.7155 23.2445 45.686 23.1808 45.6345 23.134C45.5829 23.0873 45.5133 23.0614 45.4411 23.062C45.3681 23.0609 45.2977 23.0865 45.245 23.1332C45.1923 23.1798 45.1617 23.2438 45.1597 23.3112ZM45.4183 23.8626C45.2428 23.8626 45.0976 23.9701 45.0976 24.0987C45.0976 24.229 45.2428 24.3354 45.4183 24.3354C45.5962 24.3354 45.7403 24.2296 45.7403 24.0987C45.7409 23.9701 45.5962 23.8626 45.4183 23.8626ZM45.4054 24.5522C45.2034 24.5522 45.0421 24.67 45.0421 24.8151C45.0421 24.9591 45.2034 25.0768 45.4054 25.0768C45.6073 25.0768 45.7662 24.9585 45.7662 24.8151C45.7662 24.67 45.6073 24.5522 45.4054 24.5522ZM45.4183 25.4273C45.1961 25.4273 45.012 25.5497 45.012 25.7039C45.012 25.8558 45.1961 25.9781 45.4183 25.9781C45.6418 25.9781 45.8222 25.8558 45.8222 25.7039C45.8222 25.5497 45.6418 25.4273 45.4183 25.4273ZM45.281 26.8942C45.5334 26.8737 45.7187 26.7457 45.7046 26.5978L45.6252 26.4635C45.5384 26.3958 45.3869 26.3616 45.233 26.3747C44.9892 26.3952 44.8088 26.517 44.8088 26.6564L44.81 26.6706L44.8919 26.8043C44.9806 26.8737 45.1253 26.9079 45.281 26.8942ZM44.7294 27.6259L44.7282 27.6191L44.7294 27.6259ZM45.2669 27.8154C45.5494 27.7767 45.7489 27.6333 45.7261 27.4854L45.643 27.3625C45.5445 27.2925 45.3678 27.2646 45.1874 27.2891C44.9098 27.3249 44.7054 27.4712 44.7282 27.6191L44.8137 27.7414C44.9135 27.812 45.0865 27.8387 45.2669 27.8154ZM44.791 28.2598C44.791 28.4208 45.0027 28.5494 45.2804 28.5494C45.5568 28.5494 45.7662 28.4208 45.7662 28.2598C45.7662 28.0988 45.5568 27.9719 45.2804 27.9719C45.0021 27.9725 44.791 28.0988 44.791 28.2598ZM45.6566 29.2015C45.6566 29.0308 45.4041 28.9005 45.0815 28.9005C44.7626 28.9005 44.5102 29.0308 44.5102 29.2015C44.5102 29.3711 44.7626 29.5036 45.0815 29.5036C45.4041 29.5036 45.6566 29.3711 45.6566 29.2015ZM45.2896 29.9964C45.2896 29.8297 45.1006 29.6948 44.8722 29.6948C44.6401 29.6948 44.4511 29.8297 44.4511 29.9964C44.4511 30.1631 44.6401 30.2985 44.8722 30.2985C45.1012 30.2985 45.2896 30.1631 45.2896 29.9964ZM45.0926 30.9904C45.0926 30.8032 44.8932 30.649 44.645 30.649C44.4 30.649 44.2012 30.8032 44.2012 30.9904C44.2012 31.1793 44.3994 31.3313 44.645 31.3313C44.8932 31.3313 45.0926 31.1793 45.0926 30.9904ZM44.7294 31.9577C44.7294 31.7893 44.5656 31.6556 44.3662 31.6556C44.1679 31.6556 44.0005 31.7887 44.0005 31.9577C44.0005 32.1233 44.1673 32.2587 44.3662 32.2587C44.5656 32.2593 44.7294 32.1233 44.7294 31.9577ZM44.1002 32.5301C43.9081 32.5301 43.7493 32.665 43.7493 32.8323C43.7493 32.9978 43.9081 33.1327 44.1002 33.1327C44.2917 33.1327 44.4487 32.9973 44.4487 32.8323C44.4493 32.665 44.2917 32.5301 44.1002 32.5301ZM43.8034 33.9816C44.0005 33.9816 44.1679 33.8644 44.1679 33.7193C44.1679 33.5742 44.0011 33.4587 43.8034 33.4587C43.6052 33.4587 43.4427 33.5748 43.4427 33.7193C43.4427 33.8639 43.6052 33.9816 43.8034 33.9816ZM43.4691 34.6172C43.652 34.6172 43.8022 34.5188 43.8022 34.3947C43.8022 34.2713 43.6545 34.1734 43.4691 34.1734C43.2777 34.1734 43.1324 34.2707 43.1324 34.3947C43.1324 34.5188 43.2826 34.6172 43.4691 34.6172ZM43.1447 35.2283C43.3189 35.2283 43.4667 35.1287 43.4667 35.0053C43.4667 34.8829 43.3189 34.7834 43.1447 34.7834C42.9655 34.7834 42.8239 34.8829 42.8239 35.0053C42.8233 35.1287 42.9655 35.2283 43.1447 35.2283ZM33.6525 34.6872L33.7104 34.6974L34.1488 34.6246C34.5378 34.5449 35.124 34.4237 35.8449 34.4061C36.3719 34.393 36.9432 34.5632 37.3582 34.6883C37.7349 34.8044 37.9227 34.8545 37.9941 34.7828C38.0391 34.7356 38.0114 34.6667 37.9867 34.6183C37.8735 34.3925 37.3772 33.6499 35.7581 33.6158C34.7059 33.5936 33.8483 34.2548 33.6648 34.5341C33.6285 34.591 33.6187 34.6331 33.6371 34.6644L33.6525 34.6872ZM39.6736 37.5003C39.7765 37.4394 39.8208 37.3319 39.814 37.1777C39.7795 36.5723 39.6041 36.5034 39.2427 36.5034C38.8764 36.5034 38.6116 36.8431 38.6116 37.0195C38.6116 37.1851 38.7434 37.3302 38.9989 37.4485C39.1436 37.5191 39.4766 37.6198 39.6736 37.5003ZM44.6414 44.9012C45.1634 45.1266 45.3469 45.2068 45.4251 45.229C45.4275 45.229 45.43 45.2358 45.43 45.2358C45.43 45.2358 45.4337 45.233 45.4337 45.2318C45.47 45.2421 45.4817 45.2381 45.4903 45.2267C45.4854 45.2233 45.4651 45.1949 45.454 45.1869C45.4602 45.1823 45.4663 45.1704 45.4663 45.1704C45.4663 45.1704 45.4337 45.1579 45.4312 45.155C45.0859 44.7522 43.0062 42.0193 42.5635 40.2207C42.494 39.9242 42.4121 39.6483 42.2027 39.5379C42.0852 39.477 41.9368 39.4725 41.7564 39.5282H41.7552C41.7133 39.5396 41.6831 39.5715 41.664 39.6181C41.6462 39.6687 41.6384 39.722 41.6413 39.7752C41.6413 40.4176 42.3819 42.186 42.6239 42.5496C43.9623 44.5576 44.6161 44.8876 44.6414 44.9012ZM61.6408 45.6825L61.5614 45.6967C61.5638 45.7081 61.5817 46.2446 61.5817 46.9337C61.5817 47.9386 61.5441 49.2785 61.3558 49.8805C61.2031 50.3682 60.5031 51.3019 59.9379 52.049C59.9379 52.049 59.2804 52.9605 59.2804 52.9617C59.2616 52.9921 59.252 53.0267 59.2527 53.0618C59.2527 53.1517 59.3019 53.2365 59.3887 53.2894C59.4546 53.3315 59.6929 53.4396 60.0247 53.0737L60.4446 52.6635C61.0048 52.1469 61.7011 51.5056 62.1918 50.0899C62.7299 48.536 61.65 45.7092 61.6408 45.6825ZM44.126 50.7454C44.1765 50.7921 44.2584 50.8052 44.344 50.7767C44.4099 50.7556 44.4677 50.7173 44.5105 50.6664C44.5532 50.6155 44.579 50.5542 44.5847 50.4899C44.605 50.2953 44.7516 50.0342 44.9695 49.8111C45.0831 49.6918 45.1422 49.5364 45.1344 49.3777C45.1266 49.219 45.0524 49.0692 44.9276 48.9599L44.6487 48.8569C44.4696 48.8626 44.336 48.9952 44.3286 48.9992C44.2351 49.4126 44.1438 49.8265 44.0546 50.2407V50.2396C44.0282 50.3084 44.0041 50.6373 44.126 50.7454ZM53.1946 55.3281L53.1805 55.3224L53.1663 55.3281C53.1552 55.3361 52.9213 55.4368 52.8548 55.6479C52.8092 55.7901 52.8942 55.9136 52.9607 56.0155L53.0389 56.1509L53.0727 56.4212L53.1257 56.8189C53.1388 56.86 53.1667 56.8958 53.2047 56.9204C53.2428 56.945 53.2887 56.957 53.335 56.9543C53.4446 56.9509 53.572 56.8729 53.6139 56.7153C53.6705 56.502 53.6982 56.2129 53.6982 55.8283C53.697 55.4772 53.2162 55.3327 53.1946 55.3281ZM39.1195 52.0922C39.0882 52.0587 35.7636 48.7243 35.0451 47.8509C34.3131 46.9559 33.9634 46.8882 33.6051 47.0714C33.5787 47.0854 33.5563 47.105 33.5399 47.1287C33.5235 47.1524 33.5136 47.1794 33.5109 47.2074C33.4592 47.571 34.2897 48.4507 35.0168 49.0965C36.0333 50.0006 39.0358 52.1258 39.0666 52.1469L39.1195 52.0922ZM26.0892 42.2514C25.4157 41.8651 24.2496 41.6506 24.238 41.646L24.2072 41.7115L25.5007 42.6127C25.7137 42.7743 26.655 43.3143 26.9591 43.0935C26.9788 43.0798 26.9946 43.0619 27.0051 43.0413C27.0156 43.0206 27.0206 42.998 27.0195 42.9752C27.0096 42.813 26.6833 42.5962 26.0892 42.2514ZM25.7734 37.1504L25.8645 37.1145C25.9809 36.9933 25.7131 36.6491 25.3874 36.3709C25.0937 36.1205 24.7951 35.9589 24.6387 35.9669L24.5501 36.0021C24.5311 36.0235 24.5214 36.0507 24.523 36.0784C24.523 36.2354 24.7557 36.5131 25.026 36.7464C25.3203 36.9967 25.6213 37.1595 25.7734 37.1504ZM29.2297 36.7151L29.0973 36.7225C28.8461 36.8198 28.4472 37.4098 28.1289 38.1569C27.9048 38.6844 27.7355 39.2596 27.7355 39.6062C27.7355 39.7706 27.7737 39.8821 27.8586 39.9151L27.9891 39.9077C28.2403 39.8087 28.638 39.2175 28.96 38.4727C29.1835 37.9441 29.351 37.3689 29.351 37.0218C29.351 36.8585 29.3146 36.7464 29.2297 36.7151ZM23.0079 33.0712C22.6834 33.0712 22.4248 33.2135 22.4248 33.3933C22.4248 33.572 22.6834 33.7125 23.0079 33.7125C23.3372 33.7125 23.5934 33.572 23.5934 33.3933C23.5934 33.2135 23.3372 33.0712 23.0079 33.0712ZM20.9387 37.0525L21.0396 37.044C21.2151 36.9643 21.4804 36.5233 21.6805 35.9731C21.8923 35.3876 22.008 34.7589 21.803 34.6917L21.7039 34.7014C21.5254 34.7828 21.2606 35.2226 21.0624 35.7723C20.8469 36.3583 20.738 36.9871 20.9387 37.0525ZM21.4804 40.0813C21.6528 39.8679 21.6873 39.6278 21.5592 39.5379L21.4102 39.5083C21.2859 39.5231 21.1375 39.6198 21.0267 39.7626C20.8543 39.976 20.8198 40.2156 20.9473 40.3038L21.0969 40.3362C21.2206 40.3186 21.3708 40.223 21.4804 40.0813ZM21.2822 43.3985L21.268 43.3906L21.2034 43.3843C20.9707 43.4344 21.1344 44.3709 21.2545 44.8637C21.425 45.5516 21.6559 46.107 21.816 46.1991L21.8295 46.2082L21.8929 46.2145C22.1293 46.1644 21.9619 45.2233 21.8424 44.7351C21.6731 44.0432 21.4447 43.4913 21.2822 43.3985ZM18.9378 44.656C18.75 44.656 18.5986 44.7846 18.5986 44.9451C18.5986 45.0976 18.75 45.2261 18.9378 45.2261C19.1243 45.2261 19.2807 45.0976 19.2807 44.9451C19.2813 44.7846 19.1249 44.656 18.9378 44.656ZM24.6978 51.4544C24.594 51.4539 24.4941 51.4914 24.42 51.5586C24.3458 51.6259 24.3034 51.7174 24.302 51.8134C24.302 52.0069 24.4799 52.1668 24.6978 52.1668C24.8012 52.1684 24.9011 52.1322 24.9756 52.066C25.0502 51.9998 25.0933 51.909 25.0956 51.8134C25.0941 51.7171 25.0514 51.6253 24.9769 51.558C24.9024 51.4907 24.802 51.4535 24.6978 51.4544ZM44.1704 60.9259C44.1827 60.9435 44.2184 61.0027 44.2726 60.997L44.2954 60.9959L44.3372 60.9379L44.6943 59.9319L44.9732 59.2616L45.2114 58.7518C45.2847 58.5805 45.2847 58.4661 45.2127 58.3996C45.0982 58.3028 44.8618 58.3853 44.8328 58.395C44.8137 58.4092 44.1618 59.4152 44.1618 59.4152C44.0343 59.595 43.9863 59.8374 43.9863 60.0866C43.9863 60.4417 44.0823 60.7962 44.1704 60.9259ZM45.7994 65.9513L45.8123 65.85C45.8209 65.7903 46.0167 64.3911 45.5513 63.8505C45.5038 63.792 45.4435 63.7432 45.3744 63.7074C45.3052 63.6717 45.2288 63.6497 45.1499 63.6429C45.0101 63.6309 44.9141 63.6685 44.8611 63.7498C44.5773 64.1789 45.691 65.7948 45.7403 65.8648L45.7994 65.9513ZM48.4067 68.613C48.3536 68.6124 48.3008 68.6215 48.2515 68.6398C48.2022 68.6581 48.1572 68.6852 48.1192 68.7195C48.0813 68.7539 48.051 68.7949 48.0302 68.84C48.0093 68.8852 47.9984 68.9338 47.9979 68.9829C47.9979 69.1906 48.1808 69.3516 48.4067 69.3516C48.5127 69.3516 48.6143 69.3127 48.6892 69.2434C48.7642 69.1742 48.8063 69.0803 48.8063 68.9823C48.8063 68.8844 48.7642 68.7905 48.6892 68.7212C48.6143 68.652 48.5127 68.613 48.4067 68.613ZM42.268 64.1066C42.0765 64.1066 41.9134 64.2443 41.9134 64.4144C41.9134 64.5891 42.0772 64.7234 42.268 64.7234C42.4638 64.7234 42.6214 64.5891 42.6214 64.4144C42.6214 64.2443 42.4638 64.1066 42.268 64.1066ZM46.7413 69.5633L46.6983 69.5542C46.4865 69.5542 45.6849 70.2023 45.0015 70.8486C44.9412 70.9078 43.4574 72.3144 43.6538 72.4976L43.6649 72.509L43.7129 72.5181C43.9272 72.5181 44.7275 71.8677 45.4072 71.2247C45.4713 71.165 46.9574 69.7636 46.7549 69.5735L46.7413 69.5633ZM42.2859 73.3659C42.1621 73.3659 41.9682 73.4728 41.7952 73.6327C41.5883 73.8239 41.4381 74.0885 41.5489 74.1972L41.5563 74.204L41.5489 74.1972L41.6585 74.2336C41.7847 74.2336 41.9793 74.1289 42.1516 73.9656C42.3536 73.7721 42.5087 73.5132 42.3936 73.4034L42.2859 73.3659ZM40.3312 75.969C40.1791 75.969 39.9642 76.0845 39.7765 76.2604C39.5801 76.4424 39.4674 76.6439 39.4674 76.7838C39.4674 76.8373 39.4828 76.8806 39.5191 76.9107L39.6576 76.9597C39.8072 76.9597 40.0283 76.8476 40.2123 76.6706C40.4851 76.4129 40.5947 76.1369 40.4709 76.0174L40.3312 75.969ZM30.1119 62.8576C29.8189 62.8576 29.5806 63.0118 29.5806 63.2064C29.5806 63.3999 29.8195 63.549 30.1119 63.549C30.4074 63.549 30.6432 63.3999 30.6432 63.2064C30.6438 63.0118 30.4074 62.8576 30.1119 62.8576ZM34.44 63.1376C34.2319 63.1376 34.0699 63.2411 34.0699 63.3777C34.0699 63.5057 34.2319 63.611 34.44 63.611C34.6407 63.611 34.8069 63.5052 34.8069 63.3777C34.8069 63.244 34.6407 63.1376 34.44 63.1376ZM39.7223 64.7712L39.7543 64.7257C39.814 64.4958 38.5679 64.1367 37.9018 63.9808C37.1021 63.7919 36.1515 63.6406 35.9415 63.7572L35.9268 63.7663L35.8929 63.8141C35.8326 64.0463 37.078 64.4008 37.7454 64.5618C38.5445 64.7473 39.4951 64.8941 39.7081 64.7786L39.7223 64.7712Z" fill="white"/>
</svg>
