<svg width="82" height="102" viewBox="0 0 82 102" fill="none" xmlns="http://www.w3.org/2000/svg">
<path fill-rule="evenodd" clip-rule="evenodd" d="M63.5698 86.8104C57.5623 92.3037 52.3899 95.2639 41.4952 101C31.3528 96.3714 24.7334 91.8086 18.9928 87.3128C11.0598 81.1152 5.36103 71.0509 4.86712 64.8789L0.90918 6.12965C27.7212 -0.864448 56.2398 -0.705127 80.9092 6.59986L76.8933 64.7533C76.3823 70.0191 71.6879 80.26 63.5698 86.8104Z" fill="#EDC95E" stroke="black" stroke-width="0.545181" stroke-miterlimit="2.613"/>
<path fill-rule="evenodd" clip-rule="evenodd" d="M72.3002 62.8277L75.9241 10.8969C54.6934 4.11136 29.2623 4.01123 5.83105 10.1838L9.5299 62.7939C9.91468 68.2612 13.8396 76.6228 21.3629 83.0299C25.8903 86.8884 34.7604 93.3637 41.3119 95.8453C48.8602 92.0127 55.7232 87.2481 61.1623 82.5448C67.9078 76.3799 71.8912 68.7137 72.3002 62.8277Z" fill="#EDC95E" stroke="black" stroke-width="0.545181" stroke-miterlimit="2.613"/>
<path fill-rule="evenodd" clip-rule="evenodd" d="M60.2918 81.1738C55.0776 85.6857 48.0569 90.7425 41.3113 93.972C35.2868 92.1017 26.3826 85.2072 22.0982 81.5002C14.6256 75.0262 11.5876 68.2494 11.1279 61.8423L7.49518 11.6229C29.8052 5.74351 54.1564 5.74351 74.3909 12.2104L70.8013 61.7593C70.2831 68.3496 67.2287 74.6488 60.2918 81.1738Z" fill="#EDC95E" stroke="black" stroke-width="0.545181" stroke-miterlimit="2.613"/>
<path d="M72.803 13.2616C53.6148 7.35792 30.3181 7.03872 9.16296 12.5989M9.16296 12.5984L9.88234 21.2537L9.16296 12.5984ZM9.88234 21.2537C31.1797 15.912 53.4892 16.4481 72.0088 22.068L9.88234 21.2537ZM72.0088 22.068L72.803 13.2616L72.0088 22.068Z" stroke="black" stroke-width="0.545181" stroke-miterlimit="2.613"/>
<path fill-rule="evenodd" clip-rule="evenodd" d="M62.1226 15.8106L57.3196 15.0145L57.1344 17.2783L55.5705 17.0443L55.9387 11.0386L57.5372 11.2732L57.3691 13.5801L62.24 14.3684L62.3982 12.0615L64.0304 12.3724L63.5365 18.3941L61.9472 18.1003L62.1226 15.8106ZM38.9405 13.7738C38.3551 13.7738 37.8865 13.6144 37.5767 13.0944C37.3094 12.6668 37.3094 11.2743 37.5767 10.8129C37.8694 10.2763 38.3964 10.1253 38.8319 10.1253L45.6431 10.1342L45.6607 11.6096L39.2172 11.6013C38.8991 11.6013 38.8909 12.3144 39.242 12.3144H44.3212C44.9155 12.3144 45.443 12.6756 45.61 13.1441C45.7941 13.6481 45.7605 14.7889 45.61 15.258C45.4677 15.7281 44.932 15.9871 44.2622 15.9871H37.5431L37.5342 14.4779H43.5175C43.6057 14.4709 43.6882 14.4308 43.7484 14.3654C43.8085 14.3001 43.8419 14.2145 43.8419 14.1255C43.8419 14.0366 43.8085 13.951 43.7484 13.8856C43.6882 13.8204 43.6057 13.7801 43.5175 13.7731H38.9405V13.7738ZM35.0002 14.3734C34.9986 14.2983 34.9821 14.2241 34.9517 14.1555C34.9214 14.0868 34.8776 14.0249 34.8232 13.9733C34.7687 13.9218 34.7045 13.8816 34.6344 13.8553C34.5642 13.8289 34.4896 13.8168 34.4147 13.8196L29.8956 14.1471L29.9877 16.3943L28.5236 16.5453L28.2139 10.616L34.9424 10.1126C35.8127 10.0462 36.3231 10.6995 36.3645 11.245C36.4147 11.8906 36.44 12.7209 35.9379 13.065C36.3562 13.3754 36.4654 13.8368 36.4736 14.4824L36.4907 15.9998L35.0261 16.059L35.0002 14.3734Z" fill="black"/>
<path fill-rule="evenodd" clip-rule="evenodd" d="M34.0387 12.4491C34.6158 12.4153 34.5657 11.5181 34.0387 11.5684L29.7373 11.8954L29.7874 12.7168L34.0387 12.4491Z" fill="#EDC95E"/>
<path fill-rule="evenodd" clip-rule="evenodd" d="M19.9497 11.6612C21.3306 11.3342 24.1591 10.8817 25.6402 10.7721C26.3177 10.7224 26.8453 11.0742 26.9373 11.6031C27.1551 12.819 27.2891 14.0765 27.1379 15.7633C27.0961 16.2495 26.6777 16.6351 26.1253 16.753C24.2257 17.1723 22.0918 17.3985 20.5098 17.5496C20.1079 17.5916 19.4723 17.273 19.3638 16.7695C19.0876 15.5448 18.9867 13.8336 19.0711 12.6591C19.1047 12.2238 19.5066 11.7624 19.9497 11.6612Z" fill="black"/>
<path fill-rule="evenodd" clip-rule="evenodd" d="M25.3223 15.2735C25.5146 15.2309 25.5985 15.0217 25.6155 14.8707C25.6823 14.4095 25.6238 13.2014 25.5146 12.7992C25.4816 12.6399 25.3476 12.5386 25.0466 12.5641C24.2264 12.615 22.0589 12.9247 20.9879 13.1592C20.7034 13.2267 20.5943 13.3944 20.5778 13.5454C20.527 13.9392 20.6444 15.0212 20.7448 15.6247C20.7701 15.768 20.9543 15.8681 21.0959 15.8599C22.544 15.7431 24.2518 15.5085 25.3223 15.2735Z" fill="#EDC95E"/>
<path fill-rule="evenodd" clip-rule="evenodd" d="M49.0527 11.9114C48.7351 11.9031 48.5173 12.0962 48.4926 12.2638C48.4171 12.7589 48.3912 13.3956 48.3912 14.226C48.3912 14.3349 48.5753 14.637 48.7346 14.6619C50.1738 14.8638 52.9692 15.1155 54.4923 15.2156L54.3997 16.7668C52.4003 16.6749 50.3083 16.3556 48.1408 16.2053C47.4292 16.1544 46.9104 15.7693 46.8846 15.0818C46.8427 13.9494 46.9104 12.2384 47.1117 11.2404C47.2451 10.6286 47.8311 10.3094 48.4921 10.3266C50.4914 10.4024 52.0817 10.5788 54.7012 10.9307L54.6009 12.474C53.3303 12.365 50.9197 11.9872 49.0527 11.9114ZM16.3071 12.3618C18.3323 11.8838 18.6416 15.49 16.9508 15.9093L12.2311 17.092L12.4571 19.4231L10.9759 19.8169L10.4484 13.7453L16.3071 12.3618Z" fill="black"/>
<path fill-rule="evenodd" clip-rule="evenodd" d="M16.2852 14.7237C16.7702 14.6141 16.7036 13.7422 16.1843 13.8512L11.9248 14.883L12.0251 15.7803L16.2852 14.7237Z" fill="#EDC95E"/>
<path fill-rule="evenodd" clip-rule="evenodd" d="M66.3661 16.7107L66.2657 17.6837L70.9436 18.8665L70.818 20.2245L64.542 18.7408L65.0856 12.6265L71.4034 14.1611L71.2617 15.5866L66.5585 14.4465L66.4659 15.4782L71.1355 16.6188L71.0181 17.8265L66.3661 16.7107Z" fill="black"/>
<path d="M9.92468 22.5131L12.1672 53.4846H28.3766V43.3533M28.3771 43.3533V38.2627L28.3826 36.1163L28.3853 35.0763L40.4102 35.0675L40.4024 18.5793L28.3771 43.3533ZM40.4024 18.5793C31.0462 18.5793 20.7958 19.4677 9.92468 22.5131L40.4024 18.5793Z" stroke="black" stroke-width="0.545181" stroke-miterlimit="2.613"/>
<path fill-rule="evenodd" clip-rule="evenodd" d="M28.3595 37.7678C28.3595 37.6588 27.0289 37.5576 26.3674 37.6412C24.61 37.8508 20.2165 39.2348 18.3589 40.5182C18.3175 40.6272 18.3253 41.2391 18.2001 41.5245C18.0915 41.784 17.8154 42.0528 17.5474 42.1701C17.07 42.3792 16.5176 41.7425 16.2751 41.8348C16.0238 41.9267 15.4885 42.1452 14.9108 41.7342C14.6518 41.55 14.5184 41.03 14.6099 40.6438C14.6936 40.3667 14.9279 40.1487 15.1125 39.9728C15.2801 39.8052 15.1621 39.1596 15.7646 38.7736C16.1831 38.5058 16.7608 38.7243 17.2045 38.9583C17.3049 38.9246 17.3721 38.8831 17.4471 38.8161C17.505 38.6391 17.5976 38.1025 17.6814 37.6832C17.7823 37.2301 17.8159 36.9363 17.9493 36.5176C18.2839 35.5031 19.087 34.0438 19.9244 33.2805C20.5854 32.6935 21.6145 32.2238 22.3758 32.2742C22.3003 32.3908 21.3549 33.2383 21.0781 33.6162C20.4255 34.4875 19.8235 35.8295 19.539 36.9701C19.4381 37.3557 19.4381 37.499 19.5054 37.7501C20.1245 37.473 20.9276 37.2052 21.3968 37.0537C21.5809 36.6432 21.6813 36.173 21.8405 35.7963C22.0914 35.2088 22.2513 34.9571 22.5098 34.5466C23.2545 33.3893 24.8278 32.2487 25.9909 32.2742C25.6055 32.6093 24.8024 33.448 24.4849 33.9508C24.2257 34.3702 23.9826 34.8232 23.7985 35.2928C23.6398 35.7122 23.5896 36.0226 23.5478 36.3661C24.1503 36.1907 24.7445 36.0646 25.1293 36.0391C25.3889 35.8965 25.4721 35.6198 25.6149 35.3598C26.0581 34.5295 26.928 33.5985 27.4809 33.297C27.924 33.0536 28.5768 32.8185 29.0453 32.9701C28.5431 33.3473 28.0161 33.9503 27.7819 34.3116C27.5393 34.6971 27.1458 35.444 27.1623 35.7963C27.5729 35.8295 28.1071 35.808 28.3419 35.7492L28.3595 37.7678L28.365 35.621L28.3595 37.7678Z" fill="black"/>
<path fill-rule="evenodd" clip-rule="evenodd" d="M23.0297 24.1839C23.6658 23.2954 25.3388 21.9539 26.6282 22.0292C25.9255 22.641 25.3058 23.3203 24.8708 24.0417C24.3015 24.9722 23.8411 26.1389 23.7413 27.0357C24.1675 26.8763 25.1718 26.5914 25.7496 26.4653C26.26 25.35 26.9298 24.1169 27.7583 23.4542C28.352 22.9763 29.2053 22.5652 30.0007 22.6577C29.8166 22.9177 29.5151 23.1189 29.2891 23.3292C28.8785 23.6893 28.5946 24.1762 28.3685 24.6707C28.201 25.0397 27.9165 26.1467 27.9082 26.1975C28.4853 26.1892 29.5068 26.2555 29.7241 26.323C30.4021 25.4342 31.8832 24.1429 33.6577 24.4362C32.8876 24.8554 31.482 26.0797 31.5657 26.7507C32.7201 27.4975 34.4438 29.0653 34.5193 30.5158C33.7327 29.6943 32.4356 28.8805 31.783 28.6543C30.218 28.1005 28.352 28.0253 26.7952 28.3102C23.5485 28.9225 20.6781 30.3315 17.9252 31.9839C17.8585 32.4287 17.6153 33.0992 17.4147 33.3254C17.2141 33.5517 16.9126 33.7702 16.5867 33.8212C16.1766 33.8875 15.7582 33.7204 15.4066 33.5357C15.1806 33.4095 14.5863 33.5694 14.2103 33.3669C13.9507 33.233 13.5488 32.8558 13.658 32.2605C13.7501 31.7323 14.2771 31.4137 14.352 30.9102C14.4612 30.1728 14.9958 29.853 15.2726 29.8038C15.5736 29.7447 15.8833 29.8458 16.1596 29.9709C16.2765 30.0295 16.4016 30.1308 16.5112 30.1645C16.6198 30.1308 16.7786 29.9963 16.8712 29.9548C16.896 29.8702 17.1722 28.3362 17.3227 27.6652C17.4732 26.9942 17.7328 26.4232 17.9506 25.7953C18.6032 23.9338 20.6202 22.0547 22.2353 22.1553C22.1516 22.2732 21.6323 22.6504 20.913 23.4885C19.7498 24.856 19.4566 26.307 19.0216 28.7975C19.9168 28.3782 20.6952 28.0767 21.5066 27.7824C21.6996 27.0113 21.9586 26.2562 22.2767 25.5265C22.4862 25.0568 22.737 24.5949 23.0297 24.1839Z" fill="black"/>
<path fill-rule="evenodd" clip-rule="evenodd" d="M71.802 26.246L41.8937 26.272L41.9184 35.0947L71.1323 35.0781L71.802 26.246Z" fill="#CA3132"/>
<path fill-rule="evenodd" clip-rule="evenodd" d="M48.7653 65.7116C48.5563 66.5575 48.4554 67.9836 48.4725 68.0185C48.983 67.8077 49.4598 67.623 49.8788 67.4979C49.9113 67.447 50.5067 66.1476 50.7745 65.7952C51.4013 64.8226 52.2464 63.9917 53.2755 63.4386C53.9205 63.1111 54.7065 62.8096 55.4017 63.0701C54.4888 63.5055 53.7783 64.2944 53.3505 64.7469C52.9575 65.1662 52.4967 65.7864 52.2877 66.4236C52.254 66.5326 52.221 66.7594 52.221 66.7594C52.6472 66.6255 54.0114 66.4236 54.5809 66.3479C54.6475 66.339 54.8229 65.9622 54.9568 65.7775C55.125 65.5517 55.2248 65.409 55.4932 65.1076C56.18 64.3607 57.3427 63.5636 58.4722 63.7395C57.853 64.134 57.1745 64.7629 56.631 65.7526C56.5554 65.9036 56.4557 66.1132 56.4975 66.2051C56.6647 66.2394 57.4937 66.2222 57.9953 66.282C58.5724 65.9214 59.1838 65.6016 59.8448 65.46C60.5889 65.2912 61.5597 65.4262 61.9455 65.7775C61.4935 65.7526 61.0658 65.8366 60.6567 65.996C60.4219 66.0889 59.9539 66.3069 59.7769 66.6084C60.2218 66.734 60.9494 67.2125 61.4092 67.598C61.7267 67.8657 62.112 68.2519 62.3545 68.6049C62.9659 69.4346 63.091 70.9266 62.7647 71.372C62.6732 71.1114 62.5718 70.8525 62.4312 70.608C62.1374 70.114 61.6765 69.5774 61.2835 69.2831C59.3844 67.8331 56.6475 67.7574 54.4144 68.2094C52.4967 68.6049 49.0409 69.3256 46.7819 70.9355C46.8398 71.222 46.6634 71.6984 46.4048 71.8842C46.0614 72.1349 45.5758 71.7912 45.3249 71.9262C44.9827 72.1021 44.5554 71.9921 44.3795 71.9174C44.078 71.7907 43.8779 71.4809 43.852 71.1202C43.8272 70.8347 44.1028 70.4912 44.1618 70.1815C44.1878 70.0547 44.0532 69.4346 44.5808 69.116C44.681 69.058 44.9827 68.9484 45.191 68.9821C45.3999 69.0242 45.568 69.1581 45.7764 69.1917C46.0607 69.0906 46.3329 68.9582 46.5884 68.7974C46.7565 68.1512 46.8812 67.4044 46.9654 66.7422L48.7653 65.7116Z" fill="black"/>
<path d="M48.7609 65.692L46.9683 66.742M46.9683 66.742C45.4694 67.4887 43.5114 67.9922 41.8467 68.0591L46.9683 66.742ZM41.8467 68.0591L41.8556 92.1868L41.8467 68.0591ZM41.8556 92.1868C48.8431 88.632 56.5076 82.8117 59.7721 79.6165C65.0519 74.4573 68.6091 69.2325 69.1521 61.7012L41.8556 92.1868ZM69.1516 61.7017L69.6454 54.8421L53.7712 54.825L69.1516 61.7017ZM53.7718 54.8245C53.7718 58.7162 52.4829 62.7462 48.7609 65.692L53.7718 54.8245Z" stroke="black" stroke-width="0.545181" stroke-miterlimit="2.613"/>
<path fill-rule="evenodd" clip-rule="evenodd" d="M49.0538 74.6378C49.3057 74.2522 49.6072 73.6891 49.7567 73.4462C50.2842 72.5992 51.0454 71.9703 51.5653 71.7274C52.2758 71.3838 53.4224 71.1819 53.9328 71.4337C53.3717 71.5687 52.9455 71.8281 52.5514 72.1047C52.1495 72.3813 51.3629 73.1032 51.1623 73.4047C50.9374 73.7404 50.7853 74.0419 50.7274 74.2008C51.3624 74.0592 52.1248 73.9413 52.5178 73.9413C52.8033 73.5806 53.5558 72.7171 54.1164 72.3143C54.5684 71.9957 55.5309 71.6771 56.1329 71.9371C55.5557 72.1218 54.5354 72.9267 54.1583 73.5048C54.0745 73.6398 53.999 73.7826 53.983 73.8572C54.2923 73.8832 54.8777 73.9413 55.1963 73.9839C55.2288 73.9839 56.0998 73.4467 56.4928 73.3378C57.0044 73.1951 57.8407 73.0114 58.367 73.5734C57.9828 73.5812 57.6218 73.6143 57.3379 73.7411C56.9289 73.9258 56.7524 74.0597 56.5683 74.3192C57.3715 74.7468 58.2094 75.1921 58.7033 75.9809C58.8775 76.2576 59.1459 76.9114 58.9949 77.3391C58.7442 77.0204 58.4007 76.7101 58.125 76.5502C57.732 76.3233 57.447 76.1059 56.9697 75.9212C55.4719 75.3592 53.5133 75.2082 51.9484 75.4178C49.9242 75.6783 47.438 76.6852 46.1669 77.5571C46.2507 77.9503 46.0583 78.4117 45.8323 78.5207C45.3554 78.7636 44.8958 78.3531 44.8114 78.3779C44.6852 78.4199 44.2998 78.5538 44.0242 78.4372C43.7485 78.3282 43.5733 77.8408 43.6819 77.5304C43.7645 77.2959 44.0998 76.9601 44.0998 76.9601C44.049 76.4489 44.3842 76.1392 44.845 76.0794C45.1047 76.0546 45.2888 76.2564 45.4977 76.2979C45.6907 76.2061 45.824 76.1392 45.9249 76.0883C46.0423 75.6689 46.2177 75.2413 46.3339 74.8889C46.5269 74.2937 46.8119 73.7654 47.1718 73.2122C47.6894 72.4151 48.6112 71.6604 49.7075 71.6433C49.3729 71.9039 49.18 72.0466 48.971 72.3066C48.6117 72.7592 48.3349 73.1702 48.0842 73.6558C47.8582 74.0834 47.6492 74.7213 47.6144 75.2828C48.0169 75.0908 48.6359 74.8054 49.0538 74.6378ZM48.8923 79.1739C49.1767 79.0573 49.4777 78.9732 49.7792 79.0064C49.0764 79.4589 48.4314 80.1217 48.2555 80.9088C48.2395 80.9941 48.2395 81.1606 48.3145 81.2114C48.5147 81.1606 49.0252 81.0516 49.1597 80.9857C49.2434 80.8098 49.4523 80.5332 49.5945 80.3484C50.0962 79.6774 50.8167 79.0064 51.811 79.2581C51.1595 79.5507 50.783 79.9623 50.4975 80.4823C50.4479 80.5753 50.4137 80.7501 50.4804 80.7501C50.6485 80.7501 51.2847 80.7252 51.3762 80.7252C51.6689 80.4646 52.5228 79.9701 53.1088 80.1548C52.8167 80.2931 52.5485 80.4772 52.3144 80.7003C52.2565 80.7672 52.1799 80.8513 52.1639 80.9519C52.6827 81.2114 53.1424 81.5052 53.5702 81.8747C53.7962 82.0672 54.1224 82.4279 54.3225 83.0481C53.8209 82.6127 52.1799 81.8327 51.2852 81.7907C50.6998 81.7657 49.9715 81.8747 49.6034 81.9582C48.1889 82.2769 46.7319 82.9147 45.4862 83.6278C45.4938 83.8707 45.4525 84.1649 45.1763 84.3907C44.9922 84.5417 44.5909 84.6174 44.4398 84.3996C44.3572 84.2817 43.812 84.4073 43.6945 84.2568C43.6945 84.2568 43.5523 84.0383 43.5353 83.7783C43.5193 83.5017 43.7034 83.3341 43.8539 83.1913C43.8958 83.1416 43.8875 82.6718 44.238 82.5114C44.4558 82.4108 44.6742 82.4456 44.8583 82.5623C44.9338 82.5203 44.9917 82.4782 45.0413 82.4456C45.0832 81.9002 45.1845 81.3967 45.3847 80.8518C45.6614 80.0796 46.5649 79.1403 47.3433 79.1739C46.8168 79.7443 46.3897 80.5332 46.2474 81.1871C46.2055 81.3968 46.1895 81.8072 46.1895 82.0008C46.3757 81.8863 46.5714 81.7879 46.7744 81.7071C46.8582 81.5063 47.1007 81.0028 47.2264 80.7756C47.5455 80.1886 48.2562 79.4341 48.8923 79.1739Z" fill="black"/>
<path fill-rule="evenodd" clip-rule="evenodd" d="M12.9639 62.5898C13.0643 65.508 14.2527 69.0308 15.8844 71.4716H40.2279L40.1778 68.066C37.0478 68.066 32.2697 65.9948 30.3783 62.6075L12.9639 62.5898Z" fill="#CA3132"/>
<path d="M52.3468 55.1373L52.3557 36.4685L29.7028 36.4602V54.977M29.7022 54.9775C29.7022 70.4931 52.3468 70.4931 52.3468 55.1373L29.7022 54.9775Z" stroke="black" stroke-width="0.545181" stroke-miterlimit="2.613"/>
<path fill-rule="evenodd" clip-rule="evenodd" d="M36.9978 47.5425C37.2657 47.2488 37.5006 46.8626 37.5502 46.5358C37.5915 46.2674 36.8391 46.2846 36.5623 46.4523C36.4118 46.5446 36.2691 46.7288 36.1522 46.897C36.0685 47.0225 35.7675 47.1233 35.617 46.9805C35.4577 46.8295 35.7426 46.5695 35.7343 46.4101C35.7343 46.1424 35.2233 46.5446 34.9891 46.4356C34.8303 46.3599 34.8215 46.1175 34.9307 45.9748C34.9891 45.8985 35.1567 45.9328 35.2322 45.8486C35.3077 45.7646 35.3077 45.6395 35.3331 45.53C35.3667 45.4039 35.5001 45.3458 35.5838 45.2534C35.902 44.9431 36.5045 44.4148 36.6213 44.423C36.897 44.4485 37.2906 44.5906 37.5331 44.4645C37.5832 44.4403 37.6753 44.3566 37.5915 44.3058L36.9388 43.8781C36.9358 43.8106 36.9476 43.7434 36.9736 43.681C36.9995 43.6186 37.0388 43.5628 37.0888 43.5175C37.3903 43.2491 37.8588 43.4334 38.2525 43.3748C38.5281 43.3328 38.7882 43.2238 38.9883 43.0306C39.0386 43.232 38.9128 43.4334 38.9128 43.643C39.1642 43.8781 39.4238 44.079 39.6665 44.3058C40.3858 45.0271 40.6956 46.0749 40.7457 46.9976C40.7876 47.4253 40.7876 47.8618 40.7876 48.5749C40.9051 48.2734 40.9801 47.828 41.0053 47.4424C41.114 46.3018 40.9381 45.2871 40.2943 44.423C40.0323 44.0591 39.7351 43.7223 39.4067 43.4174C39.4403 43.0821 39.7253 42.5113 39.9927 42.7209C40.1686 42.8553 39.9095 43.0561 40.0936 43.1739C40.2948 43.3 40.5876 43.2829 40.7127 43.2575C41.006 43.1823 41.2903 43.107 41.5572 43.0821C41.6835 43.0733 41.8918 43.0146 41.9342 43.1408C41.9685 43.2243 41.8763 43.2829 41.7837 43.3166C41.6751 43.3504 41.5081 43.3255 41.4155 43.4179C41.34 43.4931 41.265 43.5766 41.2903 43.6856C41.323 43.8118 41.4575 43.8788 41.5908 43.8366C42.0958 43.6969 42.6156 43.618 43.1392 43.6015C43.416 43.6015 43.357 43.8029 43.2231 43.8788C43.1316 43.9285 42.9882 43.9711 42.8967 43.9794C42.4028 44.038 42.0346 44.0718 42.0936 44.3573C42.1355 44.5498 42.4447 44.365 42.5113 44.5071C42.587 44.6581 42.378 44.7423 42.3951 44.843C42.4447 45.161 43.056 45.0946 43.3405 45.0271C43.5493 44.9769 43.884 44.8093 43.9855 44.9436C44.077 45.0604 44.0015 45.2451 43.884 45.2789C43.5825 45.363 43.0637 45.5134 42.9215 45.6816C42.7881 45.8409 42.9475 46.1679 43.1056 46.1845C43.4651 46.2265 43.8592 46.2265 44.1436 46.3106C44.2522 46.3438 44.3448 46.4195 44.3448 46.5369C44.3448 46.663 44.2186 46.705 44.1188 46.7383C43.9258 46.7969 43.6001 46.7969 43.4231 46.8721C43.3652 46.8975 43.2478 46.9396 43.265 47.0065C43.3146 47.1326 43.5665 47.0989 43.7753 47.1238C43.8928 47.1326 44.1188 47.2245 44.1188 47.35C44.1188 47.4845 44.0013 47.526 43.7913 47.5099C43.4651 47.4845 43.1646 47.526 43.0223 47.5851C42.9793 47.6018 42.7297 47.635 42.7368 47.7534C42.754 47.895 43.0223 47.8031 43.088 47.9459C43.147 48.0798 42.9628 48.1555 42.9468 48.3231C42.9468 48.3906 42.9793 48.4238 43.0472 48.4493C43.265 48.5416 43.5157 48.5328 43.733 48.4913C43.959 48.4493 44.0427 48.7513 43.9848 48.785C43.6911 48.9444 43.0383 48.7768 42.8878 48.8686C42.679 49.003 43.2391 49.305 43.2225 49.3725C43.2055 49.4478 43.1387 49.523 43.088 49.5401C42.8046 49.6491 42.4365 49.4395 42.227 49.5568C42.0516 49.6658 42.1266 49.9424 42.018 50.0856C41.8835 50.2615 41.582 50.1863 41.4486 50.287C41.2733 50.4126 41.2645 50.7141 41.4575 50.8989C41.6078 51.0415 41.7501 51.1418 41.9431 51.2335C42.814 51.67 43.7175 52.1065 44.5626 52.0473C44.9975 52.0224 45.7081 51.9975 46.1022 52.0981C46.6126 52.2238 47.1302 52.6176 47.3998 52.7853C47.6165 52.9191 47.9682 52.954 48.2448 52.8533C48.445 52.7853 48.5783 52.5508 48.5376 52.3499C48.4113 51.6789 47.3072 51.4691 47.2896 50.7981C47.2736 50.027 47.2068 49.6076 46.955 49.1203C46.8635 48.9361 46.8463 48.5085 47.0647 48.4498C47.24 48.4078 47.2983 48.6518 47.4406 48.5925C48.0856 48.3403 48.1103 47.3174 48.7801 47.1244C49.1732 47.0154 50.4951 46.9983 50.3865 46.8306C50.1108 46.4368 50.236 45.9836 50.3865 45.774C50.4868 45.6401 50.7636 45.5051 50.8721 45.6401C51.0226 45.8155 50.6461 46.0251 50.672 46.2856C50.6968 46.5285 51.048 46.9983 50.7806 47.2499C50.6213 47.4004 49.424 47.4513 49.0728 47.9879C48.8551 48.3149 48.8308 48.5754 49.09 48.55C49.2988 48.525 49.4742 48.2734 49.666 48.1306C50.0095 47.8795 50.2861 47.7783 50.4791 47.9625C50.5795 48.0549 50.4455 48.2313 50.2613 48.2811C50.1108 48.3314 49.7426 48.7264 49.8423 48.826C49.9928 48.9853 50.8297 48.2563 51.0397 48.4073C51.1483 48.4908 50.6285 49.0279 50.7211 49.1706C50.8297 49.3465 51.182 49.07 51.2905 49.2044C51.4487 49.4058 51.0138 49.7996 50.763 49.9755C50.5711 50.1016 50.6456 50.5708 50.37 50.7135C50.0601 50.8645 49.918 51.1323 49.951 51.1744C49.9846 51.2413 50.0596 51.291 50.177 51.2164C50.5193 50.9979 50.9466 50.7384 51.1223 50.8059C51.2227 50.848 51.0816 51.3254 50.9553 51.5516C50.8291 51.7784 51.4658 51.6534 51.3732 51.8454C51.2943 52.0215 51.2711 52.2176 51.3065 52.4074C51.3572 52.668 50.6207 52.726 50.5541 52.9025C50.4786 53.1045 50.6285 53.1543 50.7046 53.1631C51.1483 53.23 51.0887 53.6405 50.9135 53.817C50.6797 54.0526 50.2773 54.1445 49.9262 54.0859C49.6247 54.0349 48.9466 53.9088 48.5458 53.6073C48.4196 53.5155 48.2361 53.5824 48.2102 53.708C48.1853 53.8508 48.3363 54.1113 48.4031 54.3293C48.4957 54.6556 48.445 55.0673 48.3363 55.3859C48.1027 56.048 47.4742 56.6013 47.2985 57.3979C47.2565 57.6086 47.3155 57.8681 47.3998 58.07C47.5828 58.5054 47.8507 58.9169 48.1523 59.2854C48.1942 59.4033 48.2526 59.5371 48.203 59.646C48.1363 59.8136 47.6165 60.1744 47.4666 60.3171C46.9897 60.7614 46.5796 61.3405 46.487 61.969C46.4533 62.1946 45.9693 62.4215 45.642 62.5144C45.4 62.5803 45.1486 62.6483 44.9473 62.807C44.9226 62.9919 45.0311 63.1518 45.056 63.3354C45.0978 63.654 44.6965 63.8139 44.3862 63.9145C44.2393 63.9714 44.0838 64.0025 43.9265 64.0064C43.8686 64.0064 43.851 63.9058 43.8597 63.8565C43.9512 63.42 44.0351 63.0676 44.2021 62.708C44.2698 62.573 44.3785 62.4641 44.4876 62.3723L45.6838 61.3654L46.6215 60.015C46.7042 59.8895 46.7378 59.7805 46.7378 59.6886C46.7378 59.4281 46.6292 59.1853 46.4451 59.0176C46.2113 58.808 45.868 58.7748 45.6083 58.6393C45.2737 58.4728 44.7881 58.002 44.7213 57.9683C44.5372 57.8764 44.4286 58.211 44.4038 58.4046C44.362 58.6984 44.4535 58.975 44.4457 59.2683C44.4457 59.4033 44.4286 59.479 44.362 59.562C43.5758 60.0145 42.5963 60.1821 42.0191 60.904C41.9177 61.0296 41.8273 61.1646 41.6928 61.2564C41.3653 61.4833 40.8223 61.2226 40.5792 61.5751C40.4707 61.735 40.5963 61.9446 40.5545 62.1205C40.5291 62.2213 40.3367 62.3551 40.1868 62.4309C39.9857 62.521 39.7703 62.5748 39.5506 62.5896C39.3081 62.4729 39.4586 62.1294 39.5418 61.8854C39.6256 61.6338 39.7431 61.3831 39.9355 61.2144C40.2205 60.9638 40.5792 60.6451 40.8063 60.5345C40.9982 60.4426 41.2915 60.4426 41.5252 60.3509C41.7723 60.2749 42.0066 60.1616 42.2198 60.015C42.5632 59.7976 42.8807 59.5288 43.0737 59.1593C43.2913 58.741 43.2666 58.1795 42.9898 57.8183C42.7391 57.4908 42.4463 57.1721 42.2793 56.8026C42.1867 56.6018 42.2535 56.3253 42.3967 56.1404C42.388 56.1326 42.2881 56.0646 42.2286 56.0824C41.0323 56.1333 39.8191 55.9994 38.7061 55.554C38.4128 55.4363 38.1118 55.0589 37.9025 55.0346C37.7101 55.0086 37.5926 55.252 37.4002 55.3024C37.0905 55.3864 36.6886 55.3361 36.3292 55.3024C35.9107 55.2603 35.0403 55.0755 34.4125 54.8748C34.3122 54.8919 34.2036 54.9085 34.1115 54.9676C33.9776 55.0595 33.9527 55.2603 33.944 55.429C33.9273 55.6548 33.9941 55.8644 33.9687 56.0989C33.961 56.2168 33.8943 56.3429 33.9273 56.4524C33.961 56.5863 34.0945 56.645 34.1865 56.729C34.337 56.8718 34.3623 57.1644 34.3623 57.399C34.3623 57.6595 34.2702 58.003 34.488 58.1801C34.622 58.289 34.8061 58.1458 34.9737 58.1801C35.1577 58.2128 35.2157 58.4395 35.2245 58.6155C35.2333 58.8163 35.0657 59.2444 34.9566 59.3534C34.8811 59.4293 34.7553 59.3706 34.6638 59.3285C34.4218 59.2195 34.1953 59.0431 34.0618 58.809C34.0035 58.7073 34.0035 58.5823 33.9445 58.4744C33.8525 58.2896 33.6848 58.1806 33.5178 58.054C33.3172 57.9029 33.2752 57.6274 33.2416 57.3829C33.2168 57.1573 33.2587 56.9376 33.2752 56.7119C33.3183 56.2629 33.2901 55.8099 33.1915 55.3698C33.116 55.0351 32.9323 54.6988 33.0156 54.3641C33.0576 54.2043 33.1661 54.0538 33.3172 53.9868C34.1286 53.9448 34.9323 53.8098 35.7018 53.5664L35.2002 53.0713C35.074 53.0713 34.9742 53.198 34.8485 53.198C34.7146 53.198 34.5305 53.0054 34.4808 52.9374C34.2212 52.5518 34.0542 52.1076 33.9367 51.655C33.8276 51.4791 33.6942 51.3016 33.493 51.2186C33.3535 51.1573 33.202 51.1285 33.0498 51.1345C32.6308 51.3193 32.2461 51.68 32.2125 52.1414C32.2042 52.2591 32.271 52.3599 32.2543 52.476C32.2296 52.6779 32.0785 52.8118 31.9363 52.9545C31.7941 53.0973 31.6601 53.24 31.6017 53.4408C31.5515 53.6084 31.6105 53.7844 31.685 53.9443C31.7356 54.0533 31.7941 54.1616 31.7522 54.2789C31.6513 54.5555 30.991 54.841 30.7985 54.841C30.7318 54.841 30.6728 54.7491 30.6481 54.6734C30.5725 54.4216 30.5896 54.1539 30.6397 53.901C30.8156 53.7085 30.9496 53.4829 31.0246 53.2311C31.1248 52.8965 31.0747 52.5353 31.234 52.2243C31.6518 51.5124 32.723 50.0868 32.933 49.8765C33.025 49.7841 33.2505 49.7338 33.3431 49.7924C33.7951 50.0861 34.063 50.4469 34.4973 50.6731C34.7322 50.7904 35.025 50.9669 35.2343 50.7988C35.4433 50.6311 35.477 49.5075 35.6108 49.2221C35.8518 48.7253 36.5298 48.0709 36.9978 47.5425ZM45.3277 40.5568L45.1436 41.261H44.4738L45.3448 37.9561H46.1061L46.9423 41.2361H46.2736L46.1061 40.5568H45.3277ZM43.5692 38.906C43.5781 38.688 43.5113 38.4031 43.3355 38.3356C43.1503 38.2688 42.9585 38.3268 42.8757 38.4529C42.7325 38.688 42.7325 39.0066 42.7412 39.4924C42.7412 39.7861 42.7501 40.1978 42.808 40.3903C42.9502 40.835 43.3267 40.8605 43.5108 40.5833C43.6035 40.4494 43.6035 40.1894 43.5946 39.9549H43.2092V39.468H44.2053V41.246H43.7286V41.0026C43.7197 41.0198 43.5108 41.1785 43.41 41.2294C43.2428 41.3046 42.9253 41.3046 42.6657 41.1951C42.448 41.1033 42.2396 40.8101 42.147 40.4329C42.0555 40.0379 42.0963 39.5261 42.0963 39.0903C42.1051 38.6294 42.3471 38.1171 42.6817 37.9246C42.9166 37.7901 43.3515 37.7901 43.6282 37.8909C43.9628 38.0086 44.2213 38.495 44.1717 38.9054H43.5692V38.906ZM32.3591 38.0065C32.627 38.1741 32.7692 38.4845 32.7196 38.8456H32.1915C32.1915 38.5105 32.0493 38.35 31.7655 38.3423C31.5896 38.3334 31.3718 38.5354 31.3718 38.6864C31.363 39.13 31.7571 39.223 32.0245 39.3065C32.2251 39.3658 32.4677 39.4913 32.5851 39.6671C32.8028 39.9853 32.8277 40.3216 32.6523 40.7575C32.5691 40.9666 32.2505 41.2184 31.9832 41.277C31.6816 41.3445 31.3133 41.3108 31.0125 41.0839C30.7698 40.8991 30.6607 40.5385 30.7108 40.2115H31.3051C31.3051 40.3714 31.33 40.4881 31.3972 40.5894C31.4473 40.6569 31.5393 40.7653 31.6987 40.7741C31.7617 40.7789 31.8251 40.7698 31.8841 40.7471C31.9432 40.7245 31.9966 40.6891 32.0405 40.6435C32.0843 40.5979 32.1177 40.5431 32.1381 40.4831C32.1585 40.423 32.1655 40.3593 32.1585 40.2961C32.1248 39.7845 31.2715 39.7508 30.9782 39.4233C30.6266 39.021 30.7362 38.3749 31.0207 38.1149C31.4137 37.747 31.9495 37.747 32.3591 38.0065ZM49.2565 40.1933C49.2641 40.3194 49.2735 40.7636 49.2901 41.0491C49.2988 41.1326 49.3816 41.2416 49.3816 41.2499H48.7537C48.671 41.2499 48.6622 41.0989 48.6533 40.9733C48.6373 40.638 48.6705 39.8409 48.3441 39.8409H47.9417V41.2416H47.3138V37.9705H48.4445C49.0127 37.9705 49.2983 38.298 49.2983 38.7423C49.2983 39.036 49.2895 39.3795 48.9548 39.5223C49.1302 39.6904 49.2305 39.9421 49.2565 40.1933Z" fill="black"/>
<path fill-rule="evenodd" clip-rule="evenodd" d="M48.3946 38.4437H47.9249V39.3249H48.2684C48.8384 39.3249 48.8295 38.4437 48.3946 38.4437Z" fill="#EDC95E"/>
<path fill-rule="evenodd" clip-rule="evenodd" d="M34.2647 41.2562H33.6368V38.4969H32.9169V37.9436H34.9924V38.4969H34.2647V41.2562ZM38.3048 41.2562V38.4969H37.5849V37.9436H39.6686V38.4969H38.9327V41.2562H38.3048ZM39.9508 37.9442H42.0346V38.5069H41.2981V41.2574H40.6702V38.5069H39.9508V37.9442ZM50.8373 38.5069V41.2662H50.2094V38.5069H49.4891V37.9454H51.5651V38.5069H50.8373ZM36.6339 40.3064V37.9497H37.2442V40.2477C37.2442 41.6231 35.2526 41.6231 35.2526 40.2899V37.9497H35.8628V40.3147C35.8633 40.827 36.6339 40.827 36.6339 40.3064Z" fill="black"/>
<path d="M38.0443 42.7807C38.2284 42.6219 38.4874 42.4028 38.789 42.2109C39.0569 42.0344 38.7554 42.4372 38.7388 42.6048C38.6882 43.0573 38.3453 43.1077 37.9688 43.0241C37.902 43.0076 37.9274 42.8814 38.0443 42.7807Z" stroke="black" stroke-width="0.545181" stroke-miterlimit="2.613"/>
<path fill-rule="evenodd" clip-rule="evenodd" d="M53.781 53.3542L69.7649 53.3454L70.4755 44.4897L53.781 44.498V53.3542ZM40.3009 80.9361L23.8154 80.9024C27.2126 83.9632 35.0789 89.6921 40.2507 92.015L40.3009 80.9361Z" fill="#CA3132"/>
<path fill-rule="evenodd" clip-rule="evenodd" d="M28.3769 46.0117V47.4295C27.7243 46.9433 24.6947 46.5909 22.8287 47.3205C22.3772 47.4959 20.9043 48.1337 20.2346 48.662L18.3521 50.155C18.1673 50.305 18.1513 50.633 18.1513 50.8847C18.1513 51.4379 17.5069 51.8573 17.1469 51.7394C16.8543 51.6387 16.4524 51.5807 16.0842 51.6637C15.6906 51.7477 15.3394 51.2532 15.3058 50.9677C15.2557 50.6159 15.5324 50.155 15.5483 50.0035C15.5649 49.8608 15.4728 49.2993 15.9916 48.9552C16.2258 48.8042 16.5527 48.8125 16.7864 48.9387C16.8546 48.9788 16.9357 48.9907 17.0124 48.9718C17.0963 48.9387 17.3223 48.7373 17.3807 48.6869C17.4061 48.3522 17.3559 47.8234 17.3896 47.5302C17.4644 46.9593 17.4982 46.6329 17.6739 46.0787C17.8244 45.6007 18.1513 44.9048 18.3933 44.5109C18.8288 43.7978 19.6909 43.1102 20.3348 43.1688C20.0834 43.504 20.0002 43.6805 19.8161 44.0247C19.4732 44.6537 19.1552 45.6935 19.0047 46.3973C18.9038 46.8503 18.8537 47.2027 18.8784 47.6807C19.3723 47.3117 19.8911 47.0102 20.2339 46.8165C20.3996 45.9845 20.6813 45.1799 21.0708 44.4268C21.4892 43.6302 22.6187 42.7662 23.3551 42.833C22.6606 43.5882 22.1672 44.6364 21.9831 45.3074C21.9076 45.5752 21.8154 45.8855 21.8574 46.0537C22.1329 45.9033 22.7029 45.7523 22.9786 45.7268C23.1627 45.2654 23.4136 44.7117 23.6231 44.3853C24.2757 43.3785 25.3048 42.7662 25.8914 42.7915C25.4311 43.4117 25.0369 43.9743 24.7531 44.804C24.6687 45.0469 24.6274 45.3074 24.6274 45.433C24.9868 45.3739 25.5474 45.3739 25.7739 45.3739C26.3837 44.8245 26.3236 44.674 26.9961 44.1585C27.4144 43.831 28.1923 43.3863 28.3764 43.3525V44.3438C28.0578 44.6298 27.4139 45.2439 27.2877 45.563C27.5649 45.6648 28.1173 45.8358 28.3769 46.0117Z" fill="black"/>
<path fill-rule="evenodd" clip-rule="evenodd" d="M46.0097 39.9562L45.7094 38.6306L45.4249 39.9562H46.0097Z" fill="#EDC95E"/>
<path fill-rule="evenodd" clip-rule="evenodd" d="M71.0429 35.9574L53.8412 35.9645V43.6075L70.5152 43.628L71.0225 36.2594L71.0429 35.9574ZM71.8344 25.4045L71.9871 22.9129C61.1926 19.57 51.2117 18.5681 41.8571 18.5681L41.8527 25.363L71.8344 25.4045ZM29.969 61.6932C28.7999 59.5269 28.3385 57.1476 28.3385 54.8181L12.4637 54.8352L12.9576 61.6949L29.969 61.6932ZM40.2415 79.78L40.2442 72.6305L16.4877 72.6045C18.0301 75.0745 20.0107 77.3432 22.321 79.6002C22.3845 79.6627 22.45 79.7269 22.5172 79.7916L40.2415 79.78Z" fill="black"/>
</svg>
