<svg width="14" height="10" viewBox="0 0 14 10" fill="none" xmlns="http://www.w3.org/2000/svg">
<path d="M0 10V5.71429C0 5.39286 0.0641667 5.10119 0.1925 4.83929C0.320833 4.57738 0.49 4.34524 0.7 4.14286V2.14286C0.7 1.54762 0.904167 1.04167 1.3125 0.625C1.72083 0.208333 2.21667 0 2.8 0H5.6C5.86833 0 6.11917 0.0507142 6.3525 0.152143C6.58583 0.253095 6.80167 0.392857 7 0.571429C7.19833 0.392857 7.41417 0.253095 7.6475 0.152143C7.88083 0.0507142 8.13167 0 8.4 0H11.2C11.7833 0 12.2792 0.208333 12.6875 0.625C13.0958 1.04167 13.3 1.54762 13.3 2.14286V4.14286C13.51 4.34524 13.6792 4.57738 13.8075 4.83929C13.9358 5.10119 14 5.39286 14 5.71429V10H12.6V8.57143H1.4V10H0ZM7.7 3.57143H11.9V2.14286C11.9 1.94048 11.8328 1.77071 11.6984 1.63357C11.5645 1.4969 11.3983 1.42857 11.2 1.42857H8.4C8.20167 1.42857 8.03553 1.4969 7.9016 1.63357C7.7672 1.77071 7.7 1.94048 7.7 2.14286V3.57143ZM2.1 3.57143H6.3V2.14286C6.3 1.94048 6.23303 1.77071 6.0991 1.63357C5.9647 1.4969 5.79833 1.42857 5.6 1.42857H2.8C2.60167 1.42857 2.4353 1.4969 2.3009 1.63357C2.16697 1.77071 2.1 1.94048 2.1 2.14286V3.57143Z" fill="black"/>
</svg>
