<svg width="25" height="25" viewBox="0 0 25 25" fill="none" xmlns="http://www.w3.org/2000/svg">
<path d="M18.3574 5.85938C18.7617 5.85938 19.0898 5.53125 19.0898 5.12695V0.732422C19.0898 0.328125 18.7617 0 18.3574 0H13.9629C11.1357 0 8.83594 2.2998 8.83594 5.12695V8.78906H6.63867C6.23437 8.78906 5.90625 9.11719 5.90625 9.52148V13.916C5.90625 14.3203 6.23437 14.6484 6.63867 14.6484H8.83594V24.2676C8.83594 24.6719 9.16406 25 9.56836 25H13.9629C14.3672 25 14.6953 24.6719 14.6953 24.2676V14.6484H17.625C17.9829 14.6484 18.2886 14.3896 18.3477 14.0366L19.0801 9.64209C19.1152 9.42969 19.0557 9.2124 18.9165 9.04785C18.7773 8.88379 18.5728 8.78906 18.3574 8.78906H14.6953V5.85938H18.3574ZM13.9629 10.2539H17.4927L17.0044 13.1836H13.9629C13.5586 13.1836 13.2305 13.5117 13.2305 13.916V23.5352H10.3008V13.916C10.3008 13.5117 9.97266 13.1836 9.56836 13.1836H7.37109V10.2539H9.56836C9.97266 10.2539 10.3008 9.92578 10.3008 9.52148V5.12695C10.3008 3.10791 11.9438 1.46484 13.9629 1.46484H17.625V4.39453H13.9629C13.5586 4.39453 13.2305 4.72266 13.2305 5.12695V9.52148C13.2305 9.92578 13.5586 10.2539 13.9629 10.2539Z" fill="#BDBDBD"/>
</svg>
