<svg width="28" height="28" viewBox="0 0 28 28" fill="none" xmlns="http://www.w3.org/2000/svg">
<path d="M6.4986 9.20069C6.16523 7.00269 7.71748 5.02344 10.0887 4.29719C10.5098 4.16833 10.9641 4.20495 11.359 4.39958C11.754 4.59421 12.0598 4.93218 12.2141 5.34456L12.9745 7.37457C13.0967 7.70111 13.1186 8.05672 13.0374 8.39581C12.9562 8.73489 12.7755 9.04198 12.5186 9.27769L10.2567 11.3523C10.1452 11.4548 10.0621 11.5844 10.0154 11.7285C9.96883 11.8727 9.96031 12.0264 9.99073 12.1748L10.0109 12.2658L10.0669 12.4942C10.1167 12.6867 10.192 12.9579 10.2979 13.2817C10.5079 13.9248 10.843 14.7893 11.3417 15.6529C11.8405 16.5166 12.4215 17.2393 12.873 17.7424C13.1081 18.0044 13.3539 18.2566 13.6097 18.4984L13.6797 18.5632C13.7929 18.6634 13.93 18.7326 14.0778 18.764C14.2257 18.7954 14.3791 18.7881 14.5232 18.7426L17.451 17.8212C17.7836 17.7166 18.1399 17.7138 18.4742 17.8131C18.8084 17.9124 19.1054 18.1093 19.327 18.3786L20.7121 20.0603C21.2896 20.7603 21.2214 21.7893 20.5572 22.4079C18.7425 24.0993 16.247 24.4467 14.511 23.0502C12.3831 21.334 10.5892 19.2408 9.21898 16.8753C7.8374 14.5114 6.91445 11.9079 6.4986 9.20156V9.20069ZM11.8239 12.2894L13.7016 10.5674C14.2155 10.096 14.5768 9.48184 14.7392 8.80367C14.9017 8.12551 14.8579 7.41427 14.6134 6.76119L13.8521 4.73119C13.5415 3.9018 12.9264 3.22207 12.132 2.83057C11.3376 2.43906 10.4238 2.36526 9.57685 2.62419C6.63248 3.52544 4.26823 6.16531 4.76873 9.46319C5.2176 12.3875 6.21416 15.2008 7.7061 17.7556C9.18404 20.3065 11.1188 22.5637 13.4137 24.4143C16.0169 26.5056 19.4941 25.7924 21.7507 23.6881C22.3964 23.0862 22.7882 22.2608 22.8463 21.38C22.9043 20.4993 22.6242 19.6295 22.0631 18.9482L20.678 17.2664C20.2347 16.7278 19.6407 16.3339 18.972 16.1353C18.3033 15.9367 17.5905 15.9424 16.9251 16.1517L14.4952 16.9164C14.3865 16.8046 14.28 16.6905 14.1759 16.5743C13.6765 16.0218 13.2347 15.4199 12.8572 14.7779C12.4898 14.13 12.1893 13.4463 11.9604 12.7374C11.9118 12.5891 11.8663 12.4397 11.8239 12.2894Z" fill="white"/>
</svg>
