<svg width="40" height="41" viewBox="0 0 40 41" fill="none" xmlns="http://www.w3.org/2000/svg">
<g clip-path="url(#clip0_477_437)">
<path d="M39.5807 26.6971C38.8311 25.5886 37.3216 25.295 36.2168 26.0424L28.5643 31.196L26.9284 31.1037L26.8865 30.6809C26.7237 29.0337 25.4726 27.7214 23.8439 27.4895C23.8389 27.4887 23.8339 27.4881 23.8289 27.4874L17.5966 26.7654C16.2283 26.5697 14.9295 26.1142 13.7364 25.4118C11.9356 24.3518 9.8811 23.7915 7.79485 23.7915H6.86984V22.6851C6.86984 21.9833 6.3025 21.4124 5.60507 21.4124H1.26476C0.567344 21.4122 0 21.9833 0 22.6851V34.7329C0 35.0569 0.261016 35.3196 0.583125 35.3196C0.905235 35.3196 1.16625 35.0569 1.16625 34.7329V22.6851C1.16625 22.6305 1.21047 22.5859 1.26476 22.5859H5.605C5.6593 22.5859 5.70351 22.6305 5.70351 22.6851V36.5194C5.70351 36.5741 5.6593 36.6185 5.605 36.6185H1.26476C1.21047 36.6185 1.16625 36.5741 1.16625 36.5194V34.8135C1.16625 34.4895 0.905235 34.2267 0.583125 34.2267C0.261016 34.2267 0 34.4893 0 34.8135V36.5194C0 37.2212 0.567344 37.7921 1.26476 37.7921H5.605C6.30243 37.7921 6.86976 37.221 6.86976 36.5194V35.6846L14.9797 38.775C14.9955 38.781 15.0115 38.7863 15.0278 38.791C15.3851 38.8925 15.7424 38.9433 16.0936 38.9433C16.2826 38.9433 16.4699 38.9286 16.6545 38.8993L28.6313 37.1619C28.6341 37.1615 28.637 37.161 28.64 37.1605C29.6596 36.9968 30.6217 36.5638 31.4229 35.9083L39.1532 29.9282C39.1641 29.9198 39.1748 29.9108 39.185 29.9018C40.0957 29.0879 40.2658 27.7103 39.5807 26.6971ZM38.4245 29.0115L30.7055 34.9828C30.7011 34.9862 30.6966 34.9897 30.6924 34.9934C30.0501 35.5204 29.2784 35.8688 28.4601 36.0009L16.494 37.7366C16.4914 37.737 16.4804 37.7388 16.4779 37.7391C16.1194 37.7961 15.7461 37.7722 15.368 37.6679L6.86976 34.4296V24.9652H7.79476C9.67422 24.9652 11.5251 25.47 13.1474 26.4251C14.4743 27.2059 15.9186 27.7118 17.4404 27.9285C17.4454 27.9292 17.4504 27.9298 17.4554 27.9305L23.6875 28.6525C24.7789 28.8112 25.6168 29.6921 25.7259 30.797L25.7428 30.9678L13.0048 29.022C12.6864 28.9732 12.3889 29.1936 12.3406 29.5141C12.2923 29.8346 12.5112 30.1337 12.8296 30.1824L26.3097 32.2415C26.3276 32.2442 26.3462 32.2462 26.3646 32.2472L28.6936 32.3788C28.8196 32.3858 28.9455 32.3515 29.0506 32.2805L36.8662 27.0171C37.4414 26.6282 38.2265 26.7808 38.6164 27.3573C38.9692 27.8791 38.886 28.5868 38.4245 29.0115Z" fill="black"/>
<path d="M34.6212 8.45176L31.0543 4.86253C30.7812 4.58769 30.4181 4.43628 30.0318 4.43628C29.6456 4.43628 29.2824 4.58761 29.0093 4.86246C28.7362 5.1373 28.5858 5.50271 28.5858 5.89139C28.5858 6.28006 28.7362 6.64547 29.0093 6.92032L32.5762 10.5096C32.8493 10.7845 33.2124 10.9357 33.5987 10.9357C33.9849 10.9357 34.3481 10.7844 34.6212 10.5095C35.1849 9.94225 35.1849 9.01913 34.6212 8.45176ZM33.7964 9.67975C33.7252 9.75145 33.6419 9.76214 33.5987 9.76214C33.5553 9.76214 33.4722 9.75145 33.4009 9.67975L29.8341 6.09044C29.7627 6.01867 29.7521 5.93493 29.7521 5.89139C29.7521 5.84783 29.7627 5.7641 29.8341 5.6924C29.9053 5.62063 29.9886 5.60994 30.0318 5.60994C30.0751 5.60994 30.1583 5.62063 30.2296 5.6924L33.7964 9.28171C33.8677 9.35349 33.8784 9.43722 33.8784 9.48077C33.8783 9.52424 33.8677 9.60798 33.7964 9.67975Z" fill="black"/>
<path d="M36.5109 7.14085L32.3571 2.96098C31.7038 2.30351 30.7998 1.96018 29.8781 2.01923C28.9559 2.0782 28.1028 2.53377 27.5374 3.26923L22.8115 9.41632C21.9013 10.6002 21.9265 12.2497 22.8248 13.4029L21.6164 14.6189C21.4068 14.83 21.3425 15.1327 21.4238 15.4002L20.1294 16.7025C20.0741 16.7583 20.0278 16.8218 19.9911 16.8917L19.2916 18.2325L18.0258 18.891C17.8525 18.981 17.7204 19.1324 17.6535 19.3169L17.2644 20.3915L15.829 21.1161C15.609 21.2272 15.453 21.4394 15.4118 21.6838L15.0865 23.6204C15.0446 23.8691 15.1256 24.1241 15.3028 24.3024C15.4491 24.4497 15.6476 24.5309 15.8518 24.5309C15.8946 24.5309 15.9378 24.5273 15.9805 24.52L17.9048 24.1926C18.1478 24.1514 18.3588 23.9945 18.469 23.7731L19.1894 22.3285L20.2571 21.9369C20.4403 21.8697 20.5906 21.7368 20.6806 21.5619L21.3348 20.2885L22.6678 19.5842C22.7369 19.5476 22.7999 19.5008 22.8551 19.4453L24.149 18.1433C24.222 18.1659 24.2988 18.1775 24.3774 18.1775C24.5846 18.1775 24.7794 18.0963 24.9259 17.949L26.1341 16.7331C26.7132 17.1897 27.4174 17.4227 28.1249 17.4227C28.8179 17.4227 29.5136 17.1998 30.0959 16.7464L32.0396 15.2332C32.2944 15.0349 32.341 14.6663 32.144 14.41C31.9469 14.1536 31.5804 14.1067 31.326 14.3049L29.3823 15.8183C28.565 16.4544 27.3981 16.3798 26.6675 15.6447L23.9064 12.8662C23.1759 12.1312 23.1018 10.9567 23.7339 10.1345L28.4598 3.98739C28.8203 3.51852 29.3641 3.22811 29.952 3.19054C30.539 3.15304 31.1159 3.37167 31.5324 3.79085L35.6861 7.97073C36.1028 8.38983 36.3203 8.96954 36.2828 9.56113C36.2454 10.1527 35.9568 10.7 35.4909 11.0627L34.3645 11.9397C34.1098 12.138 34.063 12.5066 34.2601 12.7629C34.4573 13.0193 34.8236 13.0662 35.0781 12.8679L36.2045 11.9909C36.9354 11.422 37.3881 10.5635 37.4468 9.63551C37.5054 8.70759 37.1641 7.79832 36.5109 7.14085ZM23.6321 14.2498L25.2923 15.9204L24.3135 16.9053C24.0475 16.8236 23.7468 16.8882 23.537 17.0993L22.0725 18.5731L20.6839 19.3067C20.5425 19.3813 20.429 19.4961 20.3554 19.6394L19.7146 20.8866L18.6443 21.2792C18.4575 21.3477 18.3056 21.4838 18.2165 21.6625L17.5154 23.0686L16.3279 23.2706L16.5286 22.0756L17.9263 21.37C18.1035 21.2803 18.2386 21.1277 18.3069 20.9398L18.6969 19.8627L19.9366 19.2178C20.0784 19.1439 20.1925 19.03 20.2671 18.8873L20.996 17.4898L22.4606 16.0161C22.6703 15.8052 22.7346 15.5023 22.6534 15.2349L23.6321 14.2498Z" fill="black"/>
</g>
<defs>
<clipPath id="clip0_477_437">
<rect width="40" height="40.2516" fill="white"/>
</clipPath>
</defs>
</svg>
