<svg width="8" height="12" viewBox="0 0 8 12" fill="none" xmlns="http://www.w3.org/2000/svg">
<path d="M1.71425 9.4285C2.02984 9.4285 2.28568 9.17266 2.28568 8.85707C2.28568 8.54148 2.02984 8.28564 1.71425 8.28564C1.39866 8.28564 1.14282 8.54148 1.14282 8.85707C1.14282 9.17266 1.39866 9.4285 1.71425 9.4285Z" fill="black"/>
<path d="M4.00002 9.4285C4.31561 9.4285 4.57145 9.17266 4.57145 8.85707C4.57145 8.54148 4.31561 8.28564 4.00002 8.28564C3.68443 8.28564 3.42859 8.54148 3.42859 8.85707C3.42859 9.17266 3.68443 9.4285 4.00002 9.4285Z" fill="black"/>
<path d="M6.28566 9.4285C6.60125 9.4285 6.85709 9.17266 6.85709 8.85707C6.85709 8.54148 6.60125 8.28564 6.28566 8.28564C5.97007 8.28564 5.71423 8.54148 5.71423 8.85707C5.71423 9.17266 5.97007 9.4285 6.28566 9.4285Z" fill="black"/>
<path d="M4.57143 2.0455V1.42836C4.57143 1.11408 4.31429 0.856934 4 0.856934C3.68571 0.856934 3.42857 1.11408 3.42857 1.42836V2.0455C1.49143 2.3255 0 3.98265 0 5.99979V6.57122C0 6.8855 0.257143 7.14265 0.571429 7.14265H7.42857C7.74286 7.14265 8 6.8855 8 6.57122V5.99979C8 3.98265 6.50857 2.3255 4.57143 2.0455Z" fill="black"/>
<path d="M1.71425 11.1429C2.02984 11.1429 2.28568 10.887 2.28568 10.5714C2.28568 10.2558 2.02984 10 1.71425 10C1.39866 10 1.14282 10.2558 1.14282 10.5714C1.14282 10.887 1.39866 11.1429 1.71425 11.1429Z" fill="black"/>
<path d="M4.00002 11.1429C4.31561 11.1429 4.57145 10.887 4.57145 10.5714C4.57145 10.2558 4.31561 10 4.00002 10C3.68443 10 3.42859 10.2558 3.42859 10.5714C3.42859 10.887 3.68443 11.1429 4.00002 11.1429Z" fill="black"/>
<path d="M6.28566 11.1429C6.60125 11.1429 6.85709 10.887 6.85709 10.5714C6.85709 10.2558 6.60125 10 6.28566 10C5.97007 10 5.71423 10.2558 5.71423 10.5714C5.71423 10.887 5.97007 11.1429 6.28566 11.1429Z" fill="black"/>
</svg>
