<svg width="25" height="25" viewBox="0 0 25 25" fill="none" xmlns="http://www.w3.org/2000/svg">
<g clip-path="url(#clip0_72_520)">
<path d="M24.8139 1.00156C24.5976 0.759371 24.2563 0.69443 23.9736 0.817964L0.438656 11.1206C0.177915 11.2349 0.00653012 11.4902 0.000182517 11.7754C-0.00616509 12.0601 0.153502 12.3228 0.409359 12.4487L6.02894 15.2124L7.42932 23.6137C7.47473 23.9325 7.72522 24.1889 8.05139 24.2353C8.28576 24.269 8.51867 24.1864 8.6798 24.0204L13.1163 19.5839L19.4473 24.1064C19.6504 24.2509 19.9121 24.2826 20.1426 24.1913C20.3736 24.1 20.5425 23.8974 20.5913 23.6537L24.9858 1.63241C25.0293 1.41415 24.9731 1.18027 24.8139 1.00156ZM6.60902 13.8652L2.47087 11.8301L18.8194 4.6734L6.60902 13.8652ZM8.90099 16.0425L8.21984 19.4482L7.48499 15.039L16.4678 8.27689L9.1007 15.6689C8.99718 15.7724 8.92834 15.9072 8.90099 16.0425ZM9.34679 21.2817L10.1153 17.4404L11.9078 18.7207L9.34679 21.2817ZM19.3765 22.2553L10.7472 16.0918L23.0747 3.72322L19.3765 22.2553Z" fill="#BDBDBD"/>
</g>
<defs>
<clipPath id="clip0_72_520">
<rect width="25" height="25" fill="white"/>
</clipPath>
</defs>
</svg>
