<svg width="8" height="10" viewBox="0 0 8 10" fill="none" xmlns="http://www.w3.org/2000/svg">
<path d="M2 0.75C2 1.16421 1.66421 1.5 1.25 1.5H0.75C0.335786 1.5 0 1.16421 0 0.75C0 0.335786 0.335786 0 0.75 0H1.25C1.66421 0 2 0.335786 2 0.75ZM0 9.25C0 9.66421 0.335786 10 0.75 10H1.25C1.66421 10 2 9.66421 2 9.25C2 8.83579 1.66421 8.5 1.25 8.5H0.75C0.335786 8.5 0 8.83579 0 9.25ZM5 0.75C5 0.335786 4.66421 0 4.25 0H3.75C3.33579 0 3 0.335786 3 0.75C3 1.16421 3.33579 1.5 3.75 1.5H4.25C4.66421 1.5 5 1.16421 5 0.75ZM3 9.25C3 9.66421 3.33579 10 3.75 10H4.25C4.66421 10 5 9.66421 5 9.25C5 8.83579 4.66421 8.5 4.25 8.5H3.75C3.33579 8.5 3 8.83579 3 9.25ZM6.75 0C6.33579 0 6 0.335786 6 0.75C6 1.16421 6.33579 1.5 6.75 1.5H7.25C7.66421 1.5 8 1.16421 8 0.75C8 0.335786 7.66421 0 7.25 0H6.75ZM6.5 3.5C6.5 4.05228 6.05228 4.5 5.5 4.5C4.94772 4.5 4.5 4.05228 4.5 3.5V3C4.5 2.72386 4.27614 2.5 4 2.5C3.72386 2.5 3.5 2.72386 3.5 3V3.5C3.5 4.05228 3.05228 4.5 2.5 4.5C1.94772 4.5 1.5 4.05228 1.5 3.5V3C1.5 2.72386 1.27614 2.5 1 2.5C0.723858 2.5 0.5 2.72386 0.5 3V7C0.5 7.27614 0.723858 7.5 1 7.5C1.27614 7.5 1.5 7.27614 1.5 7V6.5C1.5 5.94772 1.94772 5.5 2.5 5.5C3.05228 5.5 3.5 5.94772 3.5 6.5V7C3.5 7.27614 3.72386 7.5 4 7.5C4.27614 7.5 4.5 7.27614 4.5 7V6.5C4.5 5.94772 4.94772 5.5 5.5 5.5H6.5C7.05228 5.5 7.5 5.05228 7.5 4.5V3C7.5 2.72386 7.27614 2.5 7 2.5C6.72386 2.5 6.5 2.72386 6.5 3V3.5Z" fill="black"/>
</svg>
