<svg width="25" height="25" viewBox="0 0 25 25" fill="none" xmlns="http://www.w3.org/2000/svg">
<g clip-path="url(#clip0_72_517)">
<path d="M12.5 0C5.61769 0 2.49347e-05 5.61718 2.49347e-05 12.5C2.49347e-05 14.6723 0.642114 16.875 1.86037 18.8916L0.0420171 24.0229C-0.0517328 24.288 0.0141851 24.583 0.211939 24.7827C0.351587 24.9243 0.540063 25 0.732445 25C0.812035 25 0.892113 24.9873 0.96975 24.9604L6.15333 23.186C8.14552 24.3901 10.2788 25 12.5 25C15.8257 25 18.9614 23.6962 21.3286 21.3286C23.6963 18.9614 25 15.8257 25 12.5C25 5.61766 19.3828 0 12.5 0ZM12.5 23.5351C10.4497 23.5351 8.47803 22.9389 6.63917 21.7631C6.52003 21.687 6.38282 21.6479 6.24464 21.6479C6.16505 21.6479 6.08449 21.6611 6.00734 21.6875L1.92922 23.0839L3.35891 19.0488C3.4341 18.8359 3.40724 18.6001 3.28566 18.4096C2.09426 16.5468 1.46487 14.5029 1.46487 12.5C1.46487 6.41503 6.41505 1.46484 12.5 1.46484C18.5849 1.46484 23.5351 6.41503 23.5351 12.5C23.5351 18.5849 18.5849 23.5351 12.5 23.5351Z" fill="#BDBDBD"/>
<path d="M20.1491 15.4989L17.8224 13.1727C17.529 12.8788 17.1383 12.7172 16.7233 12.7172C16.3078 12.7172 15.9171 12.8788 15.6237 13.1727L15.0421 13.7543C14.8693 13.9266 14.6403 14.0214 14.3966 14.0214C14.153 14.0214 13.9235 13.9266 13.7511 13.7543L11.4245 11.4276C11.069 11.0717 11.069 10.493 11.4245 10.1371L12.0065 9.55554C12.3 9.2616 12.4616 8.87097 12.4616 8.45593C12.4616 8.04041 12.3 7.64978 12.0065 7.35632L9.67984 5.02966C9.0734 4.42371 8.08707 4.42371 7.48063 5.02966L6.89908 5.61121C6.06656 6.44373 5.78922 8.20154 6.17496 10.1986C6.59195 12.3593 7.67545 14.4032 9.22574 15.9535C10.7755 17.5033 12.8195 18.5868 14.9806 19.0043C16.4318 19.2845 18.5299 19.3173 19.5675 18.2797L20.1491 17.6981C20.443 17.4047 20.6046 17.014 20.6046 16.5985C20.6047 16.1835 20.443 15.7928 20.1491 15.4989ZM19.1134 16.6625L18.5319 17.244C18.1344 17.6415 16.882 17.8798 15.258 17.5658C14.1711 17.3558 12.0768 16.7328 10.2614 14.9174C8.44596 13.1019 7.82291 11.0077 7.61295 9.92078C7.51236 9.39978 7.46842 8.91736 7.46842 8.48914C7.46842 7.58142 7.6652 6.91736 7.93473 6.64734L8.51676 6.0658C8.53434 6.04822 8.55729 6.03943 8.58023 6.03943C8.60318 6.03943 8.62662 6.04822 8.6442 6.0658L10.9704 8.39197C10.9879 8.40955 10.9967 8.43103 10.9967 8.45593C10.9967 8.48083 10.9879 8.50183 10.9704 8.51941L10.3888 9.10144C9.46207 10.0282 9.46207 11.5365 10.3888 12.4633L12.7155 14.7899C13.1642 15.2391 13.7614 15.4862 14.3966 15.4862C15.0314 15.4862 15.6286 15.2391 16.0778 14.7899L16.6593 14.2084C16.6945 14.1732 16.7516 14.1732 16.7868 14.2084L19.1134 16.535C19.131 16.5526 19.1398 16.5741 19.1398 16.5985C19.1399 16.6234 19.1311 16.6449 19.1134 16.6625Z" fill="#BDBDBD"/>
</g>
<defs>
<clipPath id="clip0_72_517">
<rect width="25" height="25" fill="white"/>
</clipPath>
</defs>
</svg>
