<svg width="150" height="30" viewBox="0 0 150 30" fill="none" xmlns="http://www.w3.org/2000/svg">
<path d="M0 15.0824C0 16.7308 0.879614 17.6374 2.7268 17.6374H5.58555V27.0742H3.47448V20.2747H0V27.1978C0 28.8462 1.1435 30 2.99069 30H6.06934C7.91653 30 9.06003 28.8462 9.06003 27.1978V2.8022C9.06003 1.07143 7.91653 0 6.06934 0H2.99069C1.1435 0 0 1.07143 0 2.8022V15.0824ZM3.47448 14.7115V2.92583H5.58555V14.7115H3.47448Z" fill="white"/>
<path d="M16.9161 27.0742V2.92583H18.9392V27.0742H16.9161ZM22.3697 2.8022C22.3697 1.15385 21.1822 0 19.379 0H16.4323C14.6291 0 13.4416 1.15385 13.4416 2.8022V27.1978C13.4416 28.9286 14.6291 30 16.4323 30H19.379C21.1822 30 22.3697 28.9286 22.3697 27.1978V2.8022Z" fill="white"/>
<path d="M30.0089 20.2747C30.0089 19.7802 30.0969 19.533 30.4048 19.0797L34.9788 11.9093C35.4625 11.1676 35.4625 10.6731 35.4625 10.0137V2.51374C35.4625 0.782967 34.319 0 32.4719 0H29.5251C27.678 0 26.5345 0.782967 26.5345 2.51374V9.72528H30.0089V2.92583H31.9881V9.72528C31.9881 10.2198 31.8121 10.5495 31.5922 10.9203L27.2821 17.6786C26.6224 18.7088 26.5345 19.0385 26.5345 20.4808V30H35.4625V20.2747H31.9881V27.0742H30.0089V20.2747Z" fill="white"/>
<path d="M44.1656 30V0H39.0638V2.92583H40.6911V30H44.1656Z" fill="white"/>
<path d="M52.044 27.0742V2.92583H54.0671V27.0742H52.044ZM57.4976 2.8022C57.4976 1.15385 56.3101 0 54.5069 0H51.5602C49.757 0 48.5695 1.15385 48.5695 2.8022V27.1978C48.5695 28.9286 49.757 30 51.5602 30H54.5069C56.3101 30 57.4976 28.9286 57.4976 27.1978V2.8022Z" fill="white"/>
<path d="M71.4968 13.4753V0H68.0224V30H71.4968V16.4423H73.6079V30H77.0824V0H73.6079V13.4753H71.4968Z" fill="white"/>
<path d="M96.7081 13.4753H92.398V16.4423H93.2336V27.0742H91.0786V2.92583H93.2336V9.72528H96.7081V2.8022C96.7081 1.15385 95.5646 0 93.7174 0H90.6388C88.8355 0 87.6041 1.15385 87.6041 2.8022V27.1978C87.6041 28.9286 88.8355 30 90.6388 30H93.7174C95.5646 30 96.7081 28.9286 96.7081 27.1978V13.4753Z" fill="white"/>
<path d="M100.96 0V30H104.434V16.4423H106.501V30H109.976V17.2253C109.976 16.3599 109.844 15.2473 108.041 15C109.844 14.794 109.976 13.5165 109.976 12.6099V2.63736C109.976 1.19505 108.7 0 107.117 0H100.96ZM104.434 13.4753V2.92583H106.501V13.4753H104.434Z" fill="white"/>
<path d="M117.833 27.0742V2.92583H119.856V27.0742H117.833ZM123.287 2.8022C123.287 1.15385 122.099 0 120.296 0H117.349C115.546 0 114.358 1.15385 114.358 2.8022V27.1978C114.358 28.9286 115.546 30 117.349 30H120.296C122.099 30 123.287 28.9286 123.287 27.1978V2.8022Z" fill="white"/>
<path d="M133.125 0V27.0742H131.146V0H127.671V27.1978C127.671 28.9286 128.815 30 130.662 30H133.609C135.412 30 136.599 28.9286 136.599 27.1978V0H133.125Z" fill="white"/>
<path d="M147.229 16.4423C148.813 16.4423 150 15.3709 150 13.9286V2.67857C150 1.19505 148.681 0 147.097 0H140.984V30H144.458V16.4423H147.229ZM144.458 13.4753V2.92583H146.526V13.4753H144.458Z" fill="white"/>
</svg>
