<svg width="22" height="22" viewBox="0 0 22 22" fill="none" xmlns="http://www.w3.org/2000/svg">
<path d="M7.32321 4.12774L14.0222 11L7.32321 17.8722C7.20328 17.995 7.13614 18.1598 7.13614 18.3315C7.13614 18.5031 7.20328 18.668 7.32321 18.7907C7.38146 18.8502 7.45099 18.8974 7.52773 18.9297C7.60446 18.9619 7.68686 18.9785 7.77009 18.9785C7.85332 18.9785 7.93572 18.9619 8.01245 18.9297C8.08918 18.8974 8.15871 18.8502 8.21696 18.7907L15.345 11.4799C15.4701 11.3515 15.5401 11.1793 15.5401 11C15.5401 10.8207 15.4701 10.6485 15.345 10.5201L8.21834 3.20924C8.16004 3.14936 8.09034 3.10178 8.01336 3.06928C7.93637 3.03679 7.85365 3.02005 7.77009 3.02005C7.68652 3.02005 7.60381 3.03679 7.52682 3.06928C7.44983 3.10178 7.38013 3.14936 7.32184 3.20924C7.20191 3.33202 7.13477 3.49685 7.13477 3.66849C7.13477 3.84012 7.20191 4.00495 7.32184 4.12774H7.32321Z" fill="black"/>
</svg>
