<svg width="40" height="41" viewBox="0 0 40 41" fill="none" xmlns="http://www.w3.org/2000/svg">
<g clip-path="url(#clip0_477_247)">
<path d="M34.3748 6.28931C34.0296 6.28931 33.7498 6.57092 33.7498 6.91824V10.0629H31.2498V6.91824C31.2498 6.57092 30.9699 6.28931 30.6248 6.28931C30.2796 6.28931 29.9998 6.57092 29.9998 6.91824V10.6918C29.9998 11.0392 30.2796 11.3208 30.6248 11.3208H33.7498V14.4654C33.7498 14.8127 34.0296 15.0943 34.3748 15.0943C34.7199 15.0943 34.9998 14.8127 34.9998 14.4654V6.91824C34.9998 6.57092 34.7199 6.28931 34.3748 6.28931Z" fill="#252525"/>
<path d="M26.4473 11.9175L26.5836 11.8718C27.8793 11.4372 28.7498 10.2218 28.7498 8.84749C28.7498 7.46998 27.6409 6.26991 26.2016 6.28979C24.8496 6.31558 23.7498 7.44396 23.7498 8.80504C23.7498 9.15237 24.0296 9.43397 24.3748 9.43397C24.7199 9.43397 24.9998 9.15237 24.9998 8.80504C24.9998 8.12454 25.5496 7.56031 26.2254 7.54749C26.9236 7.5302 27.4998 8.14317 27.4998 8.84749C27.4998 9.67949 26.9728 10.4153 26.1885 10.6784L26.0521 10.7241C24.675 11.186 23.7498 12.4778 23.7498 13.9385V14.4655C23.7498 14.8128 24.0296 15.0944 24.3748 15.0944H28.1248C28.4699 15.0944 28.7498 14.8128 28.7498 14.4655C28.7498 14.1182 28.4699 13.8365 28.1248 13.8365H25.0021C25.0434 12.9604 25.6136 12.1971 26.4473 11.9175Z" fill="#252525"/>
<path d="M39.9968 10.5254C39.909 4.73829 35.2603 0.0707268 29.504 0.000757649C21.6556 -0.0909097 16.4356 8.15294 19.7535 15.2364L18.7968 19.2189C18.501 20.4489 19.5668 21.5987 20.8456 21.3522L25.1808 20.5186C32.2252 23.5713 40.1142 18.2541 39.9968 10.5254ZM25.513 19.2912C25.3947 19.2372 25.263 19.222 25.1377 19.2463C20.2041 20.195 20.6201 20.1199 20.5158 20.1257C20.1886 20.1257 19.998 19.8816 19.998 19.6308C19.998 19.544 19.9235 19.8824 21.0211 15.313C21.0557 15.1691 21.0387 15.0175 20.9731 14.885C17.874 8.61907 22.4856 1.17695 29.4888 1.25855C34.6021 1.32082 38.6688 5.39977 38.747 10.5447C38.8508 17.3823 31.7946 22.1546 25.513 19.2912Z" fill="#252525"/>
<path d="M28.223 26.9717C27.2462 25.9887 25.6647 25.9882 24.6874 26.9717L21.9388 29.7376L21.1535 29.2634C16.9549 26.7283 13.4394 23.1911 10.9195 18.965L10.4483 18.1747L13.1969 15.4088C14.1738 14.4256 14.174 12.8343 13.1969 11.851L8.33551 6.95898C7.36066 5.97807 5.77471 5.97831 4.79993 6.95898L1.18929 10.5923C0.263653 11.5238 -0.160412 12.8557 0.0547458 14.1551C0.448812 16.5336 1.24851 18.6742 2.73508 20.7142C6.01143 25.2098 8.557 27.6394 11.955 31.0586C14.2678 33.3859 16.7777 35.5528 19.4153 37.4992C21.2555 38.8572 23.418 39.7744 25.669 40.1521C25.997 40.2069 26.2222 40.2518 26.5984 40.2518C27.6668 40.2518 28.707 39.8264 29.4739 39.0547L33.0844 35.4214C34.0613 34.4382 34.0615 32.8469 33.0844 31.8636L28.223 26.9717ZM5.68377 7.84854C6.1712 7.35812 6.96417 7.35805 7.4516 7.84854L12.313 12.7406C12.8014 13.2319 12.8015 14.0278 12.313 14.5195L11.4291 15.4088L4.79986 8.73792L5.68377 7.84854ZM28.5899 38.1651C27.9492 38.8102 27.0329 39.1055 26.1387 38.9556C23.9637 38.5912 22.0202 37.8616 20.1545 36.4849C17.568 34.5762 15.1068 32.4513 12.8388 30.1692C9.52318 26.8327 6.99207 24.4284 3.74306 19.9703C2.40805 18.1383 1.6607 16.1994 1.28772 13.9482C1.13874 13.0487 1.43241 12.1265 2.0732 11.4817L3.91595 9.62741L10.5451 16.2982L9.21927 17.6324C9.01646 17.8365 8.97771 18.1532 9.12528 18.4007L9.84763 19.6122C12.4722 24.0139 16.1348 27.7 20.5104 30.3419L21.7142 31.0687C21.96 31.2171 22.2749 31.1782 22.4777 30.9741L23.8034 29.6399L30.4327 36.3108L28.5899 38.1651ZM32.2004 34.5319L31.3165 35.4214L24.6874 28.7506L25.5714 27.8611C26.0597 27.3697 26.8504 27.3694 27.3392 27.8612L32.2005 32.7532C32.689 33.2445 32.689 34.0404 32.2004 34.5319Z" fill="#252525"/>
</g>
<defs>
<clipPath id="clip0_477_247">
<rect width="40" height="40.2516" fill="white"/>
</clipPath>
</defs>
</svg>
