<svg width="151" height="93" viewBox="0 0 151 93" fill="none" xmlns="http://www.w3.org/2000/svg">
<path d="M101.457 72.5644L103.425 72.8215L102.115 71.3299L97.1257 65.6447H104.164L112.288 76.7298C112.998 77.751 113.583 79.586 113.667 81.4782L113.667 81.4815C113.801 84.2459 112.308 86.8379 109.724 88.7725C107.14 90.706 103.522 91.9298 99.597 91.9298C95.6736 91.9298 92.1312 90.7127 89.5857 88.7839C87.0399 86.8548 85.528 84.2498 85.528 81.4453V81.4452C85.5277 78.6136 86.8838 76.0893 89.5198 74.414C92.1741 72.7268 96.1766 71.8746 101.457 72.5644ZM23.0448 91.4302L38.1755 67.9205L38.4879 67.4353L38.0973 67.0102L36.8431 65.6447H44.0024L60.1161 91.4302H53.3707L50.5897 86.9868L50.3701 86.6359H49.956H33.4693H33.0632L32.8422 86.9765L29.9517 91.4302H23.0448ZM46.9235 83.225H48.2751L47.5569 82.0802L42.4677 73.9666L41.8431 72.9708L41.206 73.9587L35.9735 82.0723L35.23 83.225H36.6019H46.9235ZM122.692 72.5707V91.4311H116.767V72.5707H122.692ZM107.666 81.8332C107.666 80.0203 106.684 78.4325 105.217 77.3234C103.749 76.2142 101.757 75.5474 99.597 75.5474C97.4367 75.5474 95.4451 76.2142 93.9776 77.3234C92.5101 78.4327 91.5293 80.0203 91.5293 81.8332C91.5293 83.6512 92.5092 85.2421 93.9772 86.3533C95.445 87.4644 97.4367 88.1312 99.597 88.1312C101.757 88.1312 103.749 87.4644 105.217 86.3534C106.685 85.2421 107.666 83.6512 107.666 81.8332ZM65.9401 83.222C65.9401 84.8612 66.7038 86.1101 67.7598 86.9296C68.7972 87.7346 70.1187 88.1312 71.3146 88.1312C72.5239 88.1312 73.8976 87.6883 74.9804 86.8796C76.0736 86.0632 76.9327 84.8201 76.9327 83.222V72.5707H82.4602V83.222C82.4602 86.9035 80.873 89.0326 78.7453 90.2849C76.5602 91.5709 73.743 91.9627 71.3146 91.9627C68.8923 91.9627 66.0397 91.571 63.8183 90.2825C61.6538 89.0269 60.0373 86.8965 60.0373 83.222V72.5707H65.9401V83.222Z" fill="#BB3632" stroke="#BB3531"/>
<path fill-rule="evenodd" clip-rule="evenodd" d="M43.7954 41.4876C39.7988 37.4812 37.5267 32.3536 37.5267 26.2784C37.5267 20.49 39.6891 15.3395 43.345 11.3788C46.9359 15.307 49.1537 20.5455 49.1537 26.2784C49.1537 30.2619 48.3854 33.6189 46.5181 36.8423C49.2968 27.9952 48.4943 21.7659 45.0912 16.8249C45.7058 17.6943 47.3749 22.5694 47.0676 26.2775C47.0676 30.3825 45.8156 34.2015 43.6847 37.3703L43.7954 41.4876ZM150.442 26.2793C150.442 40.751 138.66 52.5355 124.232 52.5355C118.194 52.5355 112.616 50.4774 108.059 46.9795C103.493 50.4351 97.881 52.5355 91.788 52.5355C85.7703 52.5355 80.2145 50.4774 75.6368 47.078C71.0582 50.5116 65.5367 52.5355 59.5628 52.5355C53.5243 52.5355 47.9473 50.4774 43.3899 46.9795C38.8332 50.4351 33.2115 52.5355 27.129 52.5355C12.6898 52.5355 0.90918 40.7503 0.90918 26.2793C0.90918 11.8083 12.6898 2.10131e-05 27.129 2.10131e-05C33.2115 2.10131e-05 38.8332 2.10313 43.3336 5.62386C47.8473 2.10313 53.4794 2.10131e-05 59.5628 2.10131e-05C65.6455 2.10131e-05 71.1908 2.09081 75.7026 5.52443C80.3 1.93709 85.9616 -0.00737362 91.788 2.10131e-05C97.881 2.10131e-05 103.493 2.10313 107.994 5.62386C112.517 2.10313 118.15 2.10131e-05 124.232 2.10131e-05C139.209 2.10131e-05 150.442 11.7757 150.442 26.2793ZM124.232 2.75167C119.796 2.75167 115.713 4.01706 112.188 6.22928C117.951 1.61739 127.207 0.616876 137.837 4.33649C134.005 2.0037 129.064 0.496319 124.232 0.496319C118.095 0.496319 112.407 2.72967 107.972 6.36127L108.037 9.32146C103.81 5.26131 98.0785 2.75255 91.7871 2.75255C87.5314 2.74525 83.3615 3.9514 79.7641 6.23017C85.5078 1.61827 94.7747 0.617756 105.391 4.33735C101.559 2.00457 96.6291 0.497198 91.7871 0.497198C85.6702 0.497198 80.1382 2.56599 75.7017 6.20815V9.32235C71.4866 5.2622 65.8535 2.75343 59.5619 2.75343C55.3031 2.74586 51.1297 3.95195 47.5286 6.23103C53.281 1.61915 62.5375 0.618635 73.1654 4.33824C69.333 2.00545 64.4039 0.498082 59.5619 0.498082C53.4347 0.498082 47.748 2.73142 43.3012 6.36302L43.3679 9.32323C39.1518 5.26308 33.4196 2.75431 27.129 2.75431C22.8668 2.74814 18.6904 3.95403 15.0849 6.23191C20.8487 1.62003 30.1043 0.619514 40.7322 4.33912C36.9007 2.00634 31.9594 0.498961 27.129 0.498961C12.9646 0.498961 1.40348 12.0978 1.40348 26.2818C1.40348 31.2124 3.11552 36.6039 6.02512 40.9508C0.15149 29.3416 3.11552 20.5154 6.86095 15.0246C5.42195 18.2486 3.54485 22.5622 3.64405 26.2818C4.00665 39.0809 14.206 49.8103 27.1298 49.8103C33.6839 49.8103 39.2178 47.4776 43.5663 43.0751C47.8701 47.5761 52.9104 49.8103 59.5637 49.8103C62.5841 49.8111 65.5745 49.209 68.3604 48.0395C71.1464 46.87 73.6721 45.1564 75.7904 42.9985C79.9757 47.2022 85.4314 49.8103 91.7887 49.8103C98.3551 49.8103 103.878 47.4776 108.225 43.0751C112.541 47.5761 117.569 49.8103 124.233 49.8103C137.157 49.8103 147.697 39.2349 147.697 26.2818C147.696 13.4151 137.068 2.75167 124.232 2.75167ZM72.606 41.3891C68.9885 44.5411 64.3563 46.2764 59.5628 46.2755C54.8526 46.1972 52.7437 45.3726 50.7349 44.3827C56.4883 48.8723 69.2688 47.1335 72.5288 44.3159C68.9722 46.8801 64.5023 48.3558 59.5619 48.3558C53.5005 48.3558 48.3952 46.133 44.3775 42.1599C48.5057 37.9449 50.5918 32.6519 50.5918 26.2802C50.5918 20.0843 48.1659 14.4182 44.2238 10.2032C47.2432 7.16557 53.2161 4.1948 59.5628 4.1948C65.3382 4.1948 70.7728 6.82501 74.7263 10.4997H71.8158C68.0941 14.9673 66.0835 20.0412 66.0835 26.2802C66.0835 31.2106 67.7965 36.6021 70.6955 40.9492C64.8219 29.3398 67.7965 20.5138 71.5305 15.0228C70.0916 18.247 68.2363 22.5719 68.3241 26.2802C68.4567 32.036 71.0582 37.3729 74.5823 41.5105L72.606 41.3891ZM75.6913 41.0151C71.98 37.0535 69.7737 32.0677 69.7737 26.2793C69.7737 20.4909 72.024 15.1979 75.7017 11.2468C79.4463 15.1864 81.5876 20.4134 81.5876 26.2793C81.5876 30.2628 80.8186 33.6198 78.952 36.8432C81.7298 27.9961 80.9274 21.7668 77.5244 16.8258C78.1399 17.6952 79.8089 22.5701 79.5121 26.2784C79.5121 30.5048 78.1838 34.455 75.9326 37.6906L75.6913 41.0151ZM76.8334 42.1801C80.7211 38.0206 83.0363 32.4636 83.0363 26.2784C83.0363 20.0825 80.7755 14.735 76.8334 10.498C80.7861 6.60326 85.837 4.19304 91.788 4.19304C97.5308 4.19304 102.91 6.36039 106.83 10.0034L104.305 10.0149C100.552 14.5999 98.5024 20.3484 98.5071 26.2793C98.5071 31.2097 100.22 36.6012 103.13 40.9483C97.2559 29.3389 100.221 20.5129 103.965 15.0219C102.525 18.2461 100.658 22.549 100.747 26.2793C100.879 32.4417 102.943 37.5154 106.917 41.7737L104.645 41.5325C101.175 44.4715 96.6738 46.2764 91.7871 46.2764C87.0767 46.198 85.1549 45.2636 82.9705 44.3836C88.7124 48.8732 101.493 47.1344 104.754 44.3168C101.196 46.881 96.7273 48.3566 91.7871 48.3566C85.4524 48.3549 80.9072 45.8347 76.8334 42.1801ZM80.6104 41.983C83.7502 44.2498 87.6588 45.5706 91.7871 45.5706C95.9267 45.5706 99.9776 44.1723 103.151 41.9391C100.022 37.592 98.0118 32.0351 98.0118 26.2793C98.0118 20.5022 99.8898 15.1433 103.084 10.7409C99.8259 8.28953 95.8599 6.96865 91.7862 6.97813C87.6579 6.97813 83.8361 8.24352 80.6966 10.4989C83.715 14.7693 85.7581 20.5903 85.7581 26.2793C85.7597 32.0351 83.7395 37.636 80.6104 41.983ZM75.7693 36.668C77.7609 33.5714 78.8171 29.9636 78.8107 26.2793C78.8107 22.3837 77.7334 18.7415 75.7026 15.8033C73.7482 18.8955 72.5411 22.4611 72.5411 26.2793C72.5411 30.0209 73.902 33.685 75.7693 36.668ZM70.7175 41.9056C67.512 37.438 65.5787 32.0677 65.5787 26.2793C65.5773 20.6241 67.4073 15.1215 70.7939 10.5983C67.6534 8.40806 63.6463 6.97813 59.5735 6.97813C54.6866 6.7027 49.3513 9.5089 48.5716 10.8288C51.4706 15.0219 53.3363 20.7215 53.3363 26.2793C53.3363 32.0236 51.4706 37.351 48.2634 41.7622C51.3934 44.1838 55.324 45.5706 59.5619 45.5706C63.7016 45.5706 67.5673 44.2498 70.7175 41.9056ZM42.2476 41.7737L39.9745 41.5325C36.5048 44.4715 32.0148 46.2764 27.129 46.2764C22.4185 46.198 21.0226 45.0761 18.2895 44.3836C24.0445 48.8732 36.8234 47.1344 40.0957 44.3168C36.5275 46.881 32.0587 48.3566 27.129 48.3566C15.0076 48.3566 5.09271 38.4412 5.09271 26.2809C5.09271 14.1208 14.9962 4.19569 27.129 4.19569C32.8708 4.19569 38.251 6.36302 42.1712 10.0061L39.6346 10.0175C36.0227 14.4517 33.8374 20.1301 33.8374 26.2818C33.8374 31.2124 35.5609 36.6039 38.4599 40.9508C32.5864 29.3416 35.5618 20.5154 39.2949 15.0246C37.8569 18.2486 36.0009 22.5517 36.0895 26.2818C36.2195 32.4417 38.273 37.5145 42.2476 41.7737ZM43.4223 36.5027C45.3537 33.444 46.3777 29.8981 46.3748 26.2784C46.3748 22.5157 45.2888 18.9834 43.389 15.9669C41.5119 18.9166 40.3046 22.5157 40.3046 26.2784C40.3046 29.9654 41.6101 33.597 43.4223 36.5027ZM38.4925 41.9391C35.3634 37.592 33.3423 32.0351 33.3423 26.2793C33.3423 20.5022 35.2212 15.1433 38.4152 10.7409C35.1617 8.28953 31.1992 6.9685 27.129 6.97813C16.5222 6.97813 7.8706 15.6493 7.8706 26.2793C7.8706 36.9109 16.5222 45.5706 27.129 45.5706C31.258 45.5706 35.3203 44.1723 38.4925 41.9391ZM108.466 41.4876C104.469 37.4812 102.196 32.3536 102.196 26.2784C102.196 20.49 104.36 15.3395 108.004 11.3788C111.606 15.307 113.812 20.5455 113.812 26.2784C113.812 30.2619 113.044 33.6189 111.177 36.8423C113.966 27.9952 113.153 21.7659 109.761 16.8249C110.365 17.6943 112.045 22.5694 111.737 26.2775C111.737 30.3825 110.486 34.2015 108.355 37.3703L108.466 41.4876ZM109.047 42.159C113.165 37.944 115.262 32.651 115.262 26.2793C115.262 20.0834 112.835 14.4173 108.882 10.2023C111.913 7.16468 117.875 4.19392 124.232 4.19392C136.354 4.19392 146.245 14.119 146.245 26.2793C146.245 30.2628 145.488 33.6198 143.622 36.8432C146.399 27.9961 145.586 21.7668 142.195 16.8258C142.799 17.6952 144.478 22.5701 144.17 26.2784C144.17 37.2937 135.211 46.2746 124.232 46.2746C119.521 46.1963 117.413 45.3717 115.393 44.3818C121.147 48.8714 133.926 47.1326 137.188 44.315C133.63 46.8792 129.161 48.3549 124.232 48.3549C118.172 48.3549 113.066 46.1321 109.047 42.159ZM112.923 41.7622C116.063 44.1838 119.994 45.5706 124.232 45.5706C134.827 45.5706 143.48 36.91 143.48 26.2793C143.48 15.6493 134.828 6.97813 124.232 6.97813C119.347 6.7027 114.01 9.5089 113.232 10.8288C116.13 15.0219 117.997 20.7215 117.997 26.2793C117.996 32.0228 116.13 37.3501 112.923 41.7622ZM108.093 36.5027C109.958 33.5204 111.045 30.0209 111.045 26.2784C111.045 22.5157 109.948 18.9834 108.059 15.9669C106.171 18.9166 104.973 22.5157 104.973 26.2784C104.973 29.9654 106.27 33.597 108.093 36.5027Z" fill="#D0D1D3"/>
</svg>
