<svg width="151" height="50" viewBox="0 0 151 50" fill="none" xmlns="http://www.w3.org/2000/svg">
<path d="M95.1796 42.0617C90.132 46.5093 83.1607 49.2626 75.4485 49.2626C67.7363 49.2626 60.7649 46.5093 55.7174 42.0617C50.6416 37.5897 47.5068 31.4017 47.5068 24.5703C47.5068 17.7706 50.6416 11.6151 55.7174 7.1648C60.7649 2.73978 67.7371 0 75.4485 0C83.1607 0 90.132 2.73887 95.1796 7.1648C100.255 11.6151 103.389 17.7706 103.389 24.5703C103.389 31.4017 100.255 37.5897 95.1796 42.0617Z" fill="black"/>
<path d="M75.449 48.4132C82.9666 48.4132 89.7562 45.734 94.6672 41.4084C99.5645 37.0918 102.588 31.1351 102.588 24.5694C102.588 18.0345 99.5662 12.1085 94.6706 7.81632C89.7596 3.51148 82.97 0.848511 75.449 0.848511C67.9289 0.848511 61.1385 3.51238 56.2283 7.81632C51.3327 12.1085 48.3096 18.0345 48.3096 24.5694C48.3096 31.1351 51.3335 37.0909 56.2317 41.4084C61.1419 45.734 67.9314 48.4132 75.449 48.4132Z" fill="#DAD5D3"/>
<path d="M75.4498 46.8229C82.5483 46.8229 88.9879 44.3198 93.647 40.2716C98.2764 36.2478 101.145 30.6969 101.145 24.5694C101.145 18.4962 98.2714 12.9715 93.6318 8.96211C88.9743 4.93648 82.5415 2.43798 75.4489 2.43798C68.3359 2.43798 61.9081 4.93196 57.2591 8.95036C52.6195 12.9597 49.7535 18.4899 49.7535 24.5694C49.7535 30.7041 52.6144 36.2605 57.2455 40.2843C61.8953 44.3262 68.3291 46.8229 75.4498 46.8229ZM94.1541 40.9249C89.3566 45.0952 82.7369 47.6723 75.4498 47.6723C68.1404 47.6723 61.5275 45.0988 56.7385 40.9376C51.9256 36.7565 48.9521 30.9698 48.9521 24.5703C48.9521 18.2251 51.9325 12.4627 56.7556 8.29433C61.5428 4.15666 68.149 1.58948 75.4498 1.58948C82.7284 1.58948 89.3412 4.16208 94.1378 8.30699C98.9583 12.4745 101.947 18.2305 101.947 24.5703C101.947 30.9625 98.9653 36.7439 94.1541 40.9249Z" fill="black"/>
<path d="M64.0017 47.9262C63.4333 47.6054 63.0057 47.1039 62.8836 46.4045C62.7855 45.8343 62.899 45.1494 63.3206 44.3506L63.3257 44.3434L66.6108 38.4843C66.7781 38.1472 67.1135 37.962 67.4771 37.8879C67.8936 37.8029 68.381 37.8671 68.6405 38.0063C68.888 38.1373 69.22 38.4707 69.418 38.8548C69.5305 38.7744 69.6521 38.7091 69.7799 38.6605C70.1878 38.5051 70.6888 38.4996 70.9543 38.5936H70.956C71.2026 38.6822 71.5731 38.9659 71.8197 39.3138C71.859 39.2827 71.8997 39.2538 71.9418 39.2271C72.2895 39.0161 72.6799 38.8962 73.0803 38.8774L73.1461 38.8828C73.4123 38.9307 73.8707 39.181 74.1813 39.5271L74.201 39.5496C74.2445 39.5036 74.2906 39.4593 74.3392 39.4177V39.4159C74.6883 39.1177 75.1774 38.9379 75.4479 38.9379C75.7185 38.9379 76.2075 39.1177 76.5575 39.4159V39.4177C76.6061 39.4602 76.6505 39.5045 76.694 39.5496L76.7137 39.5271C77.0252 39.181 77.4835 38.9307 77.7507 38.8828V38.8846V38.8828V38.8846C77.7575 38.8828 77.8172 38.8774 77.8155 38.8774C78.069 38.8774 78.5487 38.9813 78.9225 39.2234C78.9729 39.2551 79.0189 39.2903 79.0659 39.3274C79.3125 38.9722 79.6906 38.6813 79.939 38.5936H79.9407C80.207 38.4996 80.7072 38.5051 81.116 38.6605C81.244 38.7102 81.3678 38.7752 81.4779 38.8548C81.6742 38.4716 82.0079 38.1364 82.2545 38.0063H82.2563C82.4995 37.8689 82.9894 37.8048 83.4085 37.8897C83.7755 37.9638 84.1186 38.149 84.285 38.4843L87.571 44.3434L87.5812 44.3623C87.9764 45.1674 88.0848 45.8533 87.9866 46.4235C87.8663 47.1102 87.46 47.6081 86.895 47.9253L86.8685 47.9416C86.2148 48.2488 85.567 48.3066 84.9849 48.0048C84.8275 47.9228 84.6811 47.8188 84.5496 47.6958C84.5283 47.7735 84.5027 47.8494 84.4745 47.9217C84.2662 48.4313 83.8796 48.7864 83.3777 48.9916V48.9898C83.3183 49.015 83.2576 49.0367 83.196 49.0548V49.0566C83.0988 49.0897 83.0003 49.1181 82.9006 49.1416C82.3792 49.2654 81.8739 49.2193 81.4335 48.9563C81.2441 48.8431 81.0748 48.6957 80.9333 48.5208C80.9043 48.6086 80.8692 48.6941 80.8284 48.7765C80.5185 49.4027 79.9715 49.7452 79.3279 49.8654L79.2997 49.869C78.605 49.9467 77.9777 49.7895 77.5074 49.3078C77.4178 49.2151 77.3369 49.1134 77.2659 49.0042C77.117 49.2896 76.9021 49.5302 76.6412 49.7034C76.3804 49.8767 76.0823 49.9769 75.7748 49.9946C75.6782 50.0018 75.5812 50.0018 75.4846 49.9946C75.4112 49.9946 75.3455 49.9928 75.2892 49.9874H75.2875C74.7225 49.9449 74.2266 49.7334 73.8647 49.3114C73.7796 49.2122 73.7041 49.1041 73.6394 48.9889C73.5652 49.1037 73.4809 49.2108 73.3876 49.3087C72.919 49.7904 72.2917 49.9476 71.5961 49.8699L71.5679 49.8663C70.9236 49.7461 70.3765 49.4036 70.0683 48.7774C70.0241 48.6867 69.9859 48.5928 69.954 48.4964C69.8092 48.6819 69.6343 48.8385 69.4376 48.959C68.9776 49.2364 68.4527 49.2699 67.903 49.1199C67.8392 49.102 67.7758 49.0827 67.7127 49.0621C67.7127 49.0602 67.7119 49.0602 67.711 49.0602H67.7101C67.6452 49.0405 67.5811 49.0176 67.5181 48.9916C67.018 48.7883 66.6305 48.434 66.4222 47.9235C66.3921 47.8505 66.3662 47.7757 66.3445 47.6994C66.2071 47.8268 66.0629 47.9289 65.9118 48.0066C65.3297 48.3084 64.6819 48.2506 64.0273 47.9434C64.0194 47.9367 64.0108 47.931 64.0017 47.9262Z" fill="black"/>
<path d="M66.4054 46.0837L66.4071 46.0746C66.4426 45.9451 66.4837 45.8172 66.53 45.6915L66.5351 45.6789L66.9123 44.7219L68.7832 39.6969L68.7909 39.6779C68.8336 39.5776 68.7986 39.433 68.7311 39.2912C68.6151 39.0445 68.4205 38.8357 68.2848 38.7635C68.1542 38.6948 67.8819 38.6686 67.6293 38.7192C67.4825 38.749 67.357 38.8005 67.3212 38.8782L67.3066 38.9044L64.0207 44.7635C63.6981 45.3743 63.605 45.8668 63.6716 46.2499C63.7416 46.6557 64.0028 46.9611 64.3544 47.1662C64.7965 47.3731 65.2147 47.4219 65.563 47.2421C65.8847 47.0777 66.1741 46.7081 66.4054 46.0837ZM67.6583 45.0301L67.1633 46.3593C67.1618 46.3642 67.1601 46.369 67.1581 46.3737C67.025 46.8852 67.0369 47.2882 67.1599 47.5882C67.2759 47.8737 67.5047 48.0771 67.8042 48.1991L67.8059 48.2009C67.8469 48.2189 67.893 48.2343 67.9408 48.2488L67.9553 48.2542C68.0065 48.2722 68.0569 48.2876 68.1055 48.3021C68.4563 48.3969 68.7798 48.3834 69.0452 48.2244C69.3226 48.0563 69.5607 47.7192 69.7323 47.1725C69.7613 47.0786 69.7869 46.9909 69.8074 46.9078H69.8065L71.3078 40.2454L71.3172 40.2101C71.3454 40.1216 71.2942 39.9933 71.2122 39.8659C71.0629 39.6345 70.841 39.4475 70.7061 39.3996C70.5755 39.3535 70.299 39.368 70.0515 39.4611C69.9124 39.5144 69.7971 39.5885 69.7681 39.6797L69.757 39.7095L67.6583 45.0301ZM83.9874 44.7228L84.3637 45.6798L84.3672 45.6906C84.4153 45.8205 84.458 45.9525 84.4952 46.0864C84.7256 46.709 85.015 47.0786 85.335 47.2439C85.6832 47.4237 86.1015 47.375 86.5419 47.168C86.8867 46.9665 87.1316 46.6701 87.1999 46.2734C87.2665 45.8831 87.1786 45.3825 86.873 44.759L83.5905 38.9062L83.5768 38.88C83.5418 38.8059 83.4104 38.7526 83.2585 38.7228C82.9999 38.6695 82.7353 38.6876 82.6397 38.7472C82.6397 38.749 82.6132 38.7653 82.6132 38.7653C82.4767 38.8376 82.2829 39.0463 82.1669 39.2912C82.0986 39.4339 82.0653 39.5785 82.1071 39.6797L82.1156 39.6987L83.9874 44.7228ZM77.5059 46.1433L77.5827 47.1545V47.1563C77.5896 47.243 77.5913 47.3244 77.593 47.4066C77.651 48.0283 77.8234 48.4476 78.0684 48.7006C78.3432 48.9825 78.7384 49.0747 79.1933 49.0304C79.6004 48.9545 79.9384 48.7494 80.1185 48.3843C80.29 48.0382 80.337 47.5358 80.197 46.8454L78.7554 40.2517L78.752 40.2391C78.7324 40.1243 78.6317 40.024 78.5088 39.9445C78.308 39.8199 78.0828 39.7457 77.8507 39.7276C77.709 39.7665 77.4769 39.9092 77.2977 40.1107C77.1876 40.2327 77.109 40.3683 77.1193 40.4812L77.1227 40.4939L77.5059 46.1433ZM73.3067 47.4021C73.3084 47.3171 73.3118 47.2376 73.317 47.1581V47.1545L73.3938 46.1487L73.7787 40.4939L73.7821 40.4812C73.7924 40.3683 73.7138 40.2327 73.6037 40.1107C73.4245 39.9092 73.1915 39.7665 73.0498 39.7276C72.8067 39.7453 72.5706 39.8213 72.3593 39.9499V39.9517C72.2475 40.024 72.1605 40.1089 72.1519 40.1984L72.1443 40.2517L70.7027 46.8454C70.5627 47.5358 70.6097 48.0382 70.7812 48.3843C70.9605 48.7494 71.3002 48.9545 71.7064 49.0304C72.1613 49.0747 72.5573 48.9825 72.8313 48.7006C73.078 48.4466 73.2487 48.0265 73.3067 47.4021ZM67.7146 49.0611C67.7146 49.0593 67.7138 49.0593 67.7129 49.0593L67.7146 49.0611ZM67.7129 49.0593C67.7129 49.0593 67.7121 49.0593 67.7129 49.0593V49.0593ZM81.3714 40.0086L81.3697 40.0068L81.3714 40.0086ZM81.3697 40.0068V40.005V40.0068ZM83.6238 45.9987L81.1435 39.7086L81.1316 39.6788C81.1034 39.5867 80.9882 39.5126 80.8482 39.4601C80.6015 39.3662 80.325 39.3526 80.1944 39.3987H80.1927C80.0579 39.4466 79.8377 39.6336 79.6874 39.865C79.6055 39.9924 79.5543 40.1207 79.5825 40.2092L79.5927 40.2445L81.0932 46.9069V46.9141C81.1179 47.0325 81.1495 47.1527 81.1862 47.2692C81.3398 47.7563 81.5626 48.0617 81.8263 48.2189C82.0849 48.3744 82.3964 48.3969 82.7284 48.3174C82.7916 48.303 82.865 48.2804 82.9469 48.2524L82.9606 48.2488L83.6238 45.9987ZM82.9606 48.2469C83.0041 48.2343 83.0494 48.2189 83.092 48.1991L83.0937 48.1972C83.3942 48.0753 83.6221 47.8728 83.739 47.5864C83.8653 47.2756 83.8755 46.8536 83.7236 46.3123C83.695 46.2079 83.6623 46.1048 83.6255 46.0033L83.6238 45.9978C83.6238 45.9996 83.6238 46.0015 83.6255 46.0033L82.9606 48.2469ZM76.7856 47.7039C76.7941 47.5575 76.7924 47.3948 76.7804 47.2204L76.2607 40.4342V40.4026C76.2607 40.2933 76.1719 40.1767 76.055 40.0764H76.0541C75.8433 39.8966 75.5804 39.7873 75.4498 39.7873C75.3193 39.7873 75.0564 39.8966 74.8456 40.0764H74.8447C74.7278 40.1767 74.639 40.2933 74.639 40.4026V40.4342L74.1192 47.2204C74.1127 47.3143 74.109 47.4083 74.1082 47.5024C74.1082 48.0816 74.2396 48.4855 74.4598 48.7412C74.6698 48.9861 74.9804 49.1117 75.3466 49.1379C75.408 49.1433 75.4626 49.1451 75.5087 49.1451H75.5301L76.7856 47.7039ZM75.5292 49.146C75.5924 49.1497 75.6555 49.1497 75.7196 49.146C75.9978 49.1253 76.247 49.0105 76.4288 48.7945C76.626 48.5614 76.7574 48.2018 76.7856 47.7057V47.7039V47.7057L75.5292 49.146ZM69.5292 40.005V40.0068L69.5283 40.0086L69.5292 40.005Z" fill="#DAD5D3"/>
<path fill-rule="evenodd" clip-rule="evenodd" d="M58.1855 31.1723C57.0308 31.8446 53.7405 32.8223 52.8153 30.5596C51.4873 31.2934 48.774 31.8446 47.446 30.0093C45.2525 30.5596 42.7697 31.7217 41.8454 29.0316C39.8823 29.5819 35.0328 30.865 34.513 27.5036C31.6265 27.9328 27.4691 28.2373 26.8913 24.9987C24.4085 24.9987 20.1359 24.5704 20.1359 21.5749C17.6531 21.5749 13.3233 19.802 13.8422 17.6632C11.5898 17.4183 8.58807 14.9125 8.58807 13.2616C6.39374 12.5279 3.91178 10.7559 4.4307 8.37119C3.10266 7.51546 0.90918 6.53684 0.90918 5.13172C0.90918 3.78713 1.94874 2.62598 3.10352 2.62598C4.31548 2.62598 8.76133 3.35972 10.3207 3.35972C11.8792 3.35972 30.8174 2.9314 35.2632 3.17628C39.7091 3.4817 45.3669 3.35972 48.081 3.05339C50.8523 2.80942 62.5725 2.13712 64.1899 5.56003C65.3446 8.06577 64.4784 8.9224 63.4396 9.90012C62.3429 10.8788 58.8205 12.6517 58.8205 18.5198C58.8205 24.3255 59.5144 27.3816 58.1855 31.1723Z" fill="black"/>
<path fill-rule="evenodd" clip-rule="evenodd" d="M5.06892 4.03101C9.11021 4.03101 18.5217 4.33644 20.3695 4.33644C22.2174 4.33644 35.1504 5.86446 37.1714 6.53675C38.0949 6.84308 38.3262 7.82079 37.1714 7.88134C36.0738 7.94278 22.7371 8.12622 20.7741 8.12622C18.8111 8.12622 5.35825 8.3711 3.56847 5.86446C2.23958 4.03102 3.91414 4.09155 5.06892 4.03101ZM56.4544 19.435C55.8194 18.9452 54.6066 20.3513 54.1449 21.1464C53.7412 22.0022 54.0297 22.491 54.4914 22.7359C54.9531 22.9193 55.7614 22.4305 55.9347 22.0022C56.1079 21.5133 57.0894 20.1073 56.4544 19.435ZM56.1079 26.0359C55.2416 27.1971 54.3762 28.0528 53.8556 28.7874C53.3366 29.4597 53.9708 30.1926 54.4906 30.376C55.0684 30.5594 56.0499 31.1721 57.2047 28.6655L56.1079 26.0359ZM52.4703 19.191C51.8934 19.8633 50.5073 20.9025 51.546 21.6967C52.4703 22.369 52.9893 21.6967 53.451 21.2079C53.8556 20.719 55.414 19.0681 54.8371 18.3344C54.2601 17.6621 52.9901 18.8847 52.4703 19.191ZM49.4686 18.6407C47.5636 19.9238 49.6999 21.0244 50.9119 19.9238C51.5468 19.3735 52.8749 18.2729 52.2979 17.4786C51.7781 16.8064 50.0456 18.3344 49.4686 18.6407ZM49.699 16.1946C48.7747 16.6229 45.889 17.6621 46.8125 19.0067C47.3323 19.6184 48.2558 19.0681 48.6023 18.8232C49.0068 18.5783 51.0271 17.1118 50.5073 16.2561C50.3349 15.9506 49.8723 16.0726 49.699 16.1946ZM44.6762 15.7057C43.868 16.256 44.2717 18.3958 46.1195 17.4181C48.0245 16.4395 49.3525 15.4618 49.064 14.728C48.7747 14.0557 46.6393 14.6051 44.6762 15.7057ZM45.4845 12.6497C44.6762 12.9551 43.8099 13.3825 43.1749 13.8109C42.5399 14.2383 42.0201 15.8277 44.503 15.1554C47.0438 14.4217 47.159 13.5045 46.8125 12.8937C46.466 12.2828 45.6577 12.5883 45.4845 12.6497ZM42.3667 11.55C41.7317 11.6105 41.1547 12.1608 41.328 12.7726C41.5584 13.5063 43.0597 13.7512 44.6762 12.8946C46.3508 11.9774 46.2356 11.7949 46.0623 11.3051C45.889 10.8163 44.1564 11.1822 42.3667 11.55ZM40.7501 9.34882C39.7686 9.53225 39.7686 9.95966 39.8838 10.3274C39.9991 10.6934 40.5188 11.3657 42.1934 11.0611C43.9251 10.8163 44.8495 10.0825 44.8495 9.47171C44.8495 8.86086 41.7888 9.22592 40.7501 9.34882ZM40.5188 7.20905C38.7863 7.20905 38.7291 9.16538 40.6921 9.04339C42.2506 8.98285 44.0984 8.55363 44.0984 7.94369C44.0412 7.27049 41.7888 7.20905 40.5188 7.20905ZM46.1195 7.63736C47.5056 7.63736 52.5284 7.51537 53.9716 7.82079C55.4149 8.06567 57.2055 8.49309 57.9557 9.89912C58.6488 11.0611 57.5512 12.956 57.0314 13.7503C56.4544 14.484 54.9523 16.0121 54.3762 16.5624C53.8564 16.9907 52.8749 16.3175 53.7412 15.2783C52.6436 15.9515 51.2584 15.8286 51.8934 14.1777C50.9119 15.0335 49.2953 15.0949 50.2769 12.9551C49.6419 13.5054 47.794 13.444 48.9488 11.794C47.9673 12.0994 46.8706 11.4885 47.5636 10.4494C46.3508 10.6328 45.6006 9.65514 46.9277 8.9214C45.7158 9.28737 45.3684 7.75935 46.1195 7.63736ZM30.7037 3.78613C32.4354 3.78613 38.1521 4.153 40.2875 4.153C42.3658 4.153 47.2162 4.03102 48.948 3.90812C50.7377 3.78523 55.3569 3.66324 57.2047 3.90812C59.0525 4.09156 63.0938 4.39698 63.7868 6.41386C64.537 8.43074 62.9786 9.53135 61.997 10.3265C61.0155 11.0602 57.9558 12.9551 57.8397 17.8455C57.0895 17.4786 55.9347 17.2952 56.7429 15.5223C57.2047 14.5446 59.3982 11.3657 58.8792 9.89822C58.3594 8.43074 56.6849 7.27049 52.816 7.08615C48.948 6.96417 43.5206 7.08616 41.6156 6.78164C39.7106 6.41477 32.4354 4.45843 30.9341 4.27499C30.2419 4.153 30.2419 3.84758 30.7037 3.78613ZM53.4519 24.3254C52.4132 25.426 50.8538 27.2594 49.7571 28.2371C49.0069 28.9709 49.5258 30.376 50.7966 29.7652C52.0086 29.1543 54.261 26.954 54.896 24.8142C54.4067 24.6786 53.9247 24.5154 53.4519 24.3254ZM50.5073 23.2862C48.8336 24.5088 45.0227 27.198 44.3877 27.6868C43.5214 28.2995 43.0597 29.3368 44.7923 29.2149C46.466 29.0314 49.6419 27.7483 52.1247 23.8971C51.7782 23.7751 50.9119 23.4696 50.5073 23.2862ZM47.5056 21.4528C46.524 22.1251 40.1151 25.67 37.1706 26.5871C36.1891 26.954 36.6508 27.9317 37.6323 28.0537C38.6138 28.2371 41.0967 28.2371 44.0412 26.3413C45.831 25.2416 48.429 23.2248 49.2373 22.491C48.8327 22.3076 47.9673 21.7582 47.5056 21.4528ZM44.7923 19.0681C43.291 19.8624 34.1108 23.8971 30.5884 24.7537C29.6069 24.9986 29.0871 25.7928 30.2419 26.2203C31.4539 26.5871 34.168 26.4037 35.8425 25.9148C37.4591 25.426 44.0984 23.1642 46.6384 20.5356C46.1195 20.2907 44.9067 19.3735 44.7923 19.0681ZM23.14 22.0022C24.7565 21.6353 38.036 18.4573 41.8469 16.9283C42.9436 16.5615 43.3482 16.9283 43.5206 17.3567C43.7519 17.785 43.8091 18.3958 43.0588 18.7627C42.3658 19.0681 32.1461 23.5302 27.2965 23.8356C25.5648 23.8356 24.1207 23.1633 23.3124 22.7974C22.7943 22.491 23.0248 22.491 23.14 22.0022ZM16.9624 18.3958C19.2719 18.0904 34.5145 15.5223 38.6138 14.3621C40.2884 13.9337 41.0386 14.1172 41.2699 14.606C41.4432 15.0958 41.4432 15.9515 40.2884 16.3789C39.0764 16.8073 25.6228 20.1082 23.1408 20.2916C20.658 20.4136 17.7135 19.8019 16.9052 19.1305C16.1541 18.5187 16.9624 18.3958 16.9624 18.3958ZM12.0548 14.0557C13.7293 14.0557 33.0132 12.5277 37.0545 11.6105C38.4406 11.4885 39.3641 11.4271 39.4793 12.0379C39.5945 12.6497 39.5373 12.9551 38.3826 13.322C37.1706 13.6274 22.8515 16.5009 15.6343 16.6229C13.2096 16.5624 10.3802 14.1163 12.0548 14.0557ZM7.4937 9.47081C9.86044 9.53225 21.6395 9.5928 23.0248 9.53225C24.3528 9.47081 35.0343 8.85996 36.2462 8.79851C37.5162 8.67652 38.671 9.04339 38.671 9.47081C38.671 9.89822 38.4397 10.2651 36.9965 10.5705C35.5532 10.9373 22.2737 12.5268 12.2272 12.3434C10.3222 12.4039 7.78132 11.3648 7.08829 10.387C6.45414 9.40936 7.14718 9.47081 7.4937 9.47081ZM60.6861 5.77048C60.0878 5.45331 60.5162 4.54246 61.1145 4.85873C61.6002 5.11626 62.1191 5.42349 62.5339 5.75693C63.011 6.14006 63.3678 6.57651 63.4505 7.05905L63.4599 7.10694C63.4958 7.56236 63.4395 8.00513 63.1996 8.47411C62.9786 8.90604 62.6022 9.3443 61.9919 9.82051C61.4534 10.2407 60.8867 9.4202 61.4244 9.00092C61.9108 8.6214 62.1993 8.2952 62.353 7.99339C62.4861 7.73314 62.5177 7.47381 62.4981 7.20091C62.4451 7.01838 62.2335 6.797 61.9501 6.56928C61.5874 6.27561 61.1231 6.00181 60.6861 5.77048Z" fill="#DAD5D3"/>
<path fill-rule="evenodd" clip-rule="evenodd" d="M93.636 31.1723C94.7916 31.8446 98.0818 32.8223 99.0053 30.5596C100.275 31.2934 103.046 31.8446 104.374 30.0093C106.568 30.5596 109.051 31.7217 109.975 29.0316C111.937 29.5819 116.788 30.865 117.307 27.5036C120.194 27.9328 124.351 28.2373 124.871 24.9987C127.353 24.9987 131.684 24.5704 131.684 21.5749C134.166 21.5749 138.495 19.802 137.977 17.6632C140.17 17.4183 143.173 14.9125 143.173 13.2616C145.425 12.5279 147.907 10.7559 147.388 8.37119C148.715 7.51546 150.909 6.53684 150.909 5.13172C150.909 3.78713 149.87 2.62598 148.715 2.62598C147.503 2.62598 143.057 3.35972 141.499 3.35972C139.939 3.35972 120.943 2.9314 116.499 3.17628C112.052 3.4817 106.453 3.35972 103.68 3.05339C100.967 2.80942 89.2456 2.13712 87.6299 5.56003C86.4163 8.06577 87.3397 8.9224 88.3802 9.90012C89.4189 10.8788 92.9412 12.6517 92.9412 18.5198C92.9429 24.3255 92.3079 27.3816 93.636 31.1723Z" fill="black"/>
<path fill-rule="evenodd" clip-rule="evenodd" d="M146.755 4.03101C142.654 4.03101 133.244 4.33644 131.453 4.33644C129.606 4.33644 116.673 5.86446 114.595 6.53675C113.728 6.84308 113.497 7.82079 114.595 7.88134C115.749 7.94278 129.087 8.12622 131.05 8.12622C133.012 8.12622 146.407 8.3711 148.254 5.86446C149.525 4.03102 147.908 4.09155 146.755 4.03101ZM95.3687 19.435C95.9457 18.9452 97.2157 20.3513 97.6194 21.1464C98.0828 22.0022 97.7363 22.491 97.2745 22.7359C96.8708 22.9193 96.0609 22.4305 95.8893 22.0022C95.7152 21.5133 94.7337 20.1073 95.3687 19.435ZM95.7152 26.0359C96.5807 27.1971 97.447 28.0528 97.9659 28.7874C98.4857 29.4597 97.7926 30.1926 97.2737 30.376C96.7539 30.5594 95.7715 31.1721 94.6185 28.6655L95.7152 26.0359ZM99.3528 19.191C99.9298 19.8633 101.315 20.9025 100.218 21.6967C99.3528 22.369 98.775 21.6967 98.3713 21.2079C97.9659 20.719 96.4074 19.0681 96.9844 18.3344C97.5622 17.6621 98.8322 18.8847 99.3528 19.191ZM102.354 18.6407C104.201 19.9238 102.066 21.0244 100.911 19.9238C100.218 19.3735 98.8911 18.2729 99.5261 17.4786C100.044 16.8064 101.777 18.3344 102.354 18.6407ZM102.123 16.1946C103.047 16.6229 105.934 17.6621 105.01 19.0067C104.491 19.6184 103.567 19.0681 103.22 18.8232C102.816 18.5783 100.738 17.1118 101.258 16.2561C101.488 15.9506 101.95 16.0726 102.123 16.1946ZM107.089 15.7057C107.954 16.256 107.55 18.3958 105.645 17.4181C103.798 16.4395 102.47 15.4618 102.758 14.728C103.047 14.0557 105.184 14.6051 107.089 15.7057ZM106.337 12.6497C107.147 12.9551 107.954 13.3825 108.647 13.8109C109.282 14.2383 109.803 15.8277 107.262 15.1554C104.778 14.4217 104.663 13.5045 105.01 12.8937C105.357 12.2828 106.107 12.5883 106.337 12.6497ZM109.397 11.55C110.09 11.6105 110.667 12.1608 110.494 12.7726C110.264 13.5063 108.762 13.7512 107.147 12.8946C105.471 11.9774 105.587 11.7949 105.76 11.3051C105.934 10.8163 107.608 11.1822 109.397 11.55ZM111.073 9.34882C112.053 9.53225 112.053 9.95966 111.938 10.3274C111.765 10.6934 111.246 11.3657 109.571 11.0611C107.898 10.8163 106.973 10.0825 106.973 9.47171C106.973 8.86086 110.032 9.22592 111.073 9.34882ZM111.303 7.20905C113.035 7.20905 113.035 9.16538 111.073 9.04339C109.571 8.98285 107.724 8.55363 107.724 7.94369C107.783 7.27049 110.032 7.20905 111.303 7.20905ZM105.645 7.63736C104.26 7.63736 99.2359 7.51537 97.7926 7.82079C96.3494 8.06567 94.5604 8.49309 93.8102 9.89912C93.1752 11.0611 94.2719 12.956 94.7917 13.7503C95.3098 14.484 96.8119 16.0121 97.4469 16.5624C97.965 16.9907 98.9474 16.3175 98.082 15.2783C99.1787 15.9515 100.564 15.8286 99.9289 14.1777C100.91 15.0335 102.528 15.0949 101.546 12.9551C102.181 13.5054 104.028 13.444 102.873 11.794C103.855 12.0994 104.952 11.4885 104.202 10.4494C105.472 10.6328 106.166 9.65514 104.895 8.9214C106.107 9.28737 106.454 7.75935 105.645 7.63736ZM121.118 3.78613C119.387 3.78613 113.614 4.153 111.535 4.153C109.455 4.153 104.607 4.03102 102.873 3.90812C101.084 3.78523 96.4654 3.66324 94.6185 3.90812C92.7698 4.09156 88.7294 4.39698 87.9774 6.41386C87.2852 8.43074 88.8446 9.53135 89.8261 10.3265C90.8076 11.0602 93.8102 12.9551 93.9254 17.8455C94.7337 17.4786 95.8304 17.2952 95.0811 15.5223C94.6193 14.5446 92.3669 11.3657 92.8859 9.89822C93.4056 8.43074 95.1382 7.27049 99.0071 7.08615C102.874 6.96417 108.302 7.08616 110.149 6.78164C112.054 6.41477 119.388 4.45843 120.89 4.27499C121.523 4.153 121.523 3.84758 121.118 3.78613ZM98.3124 24.3254C99.3528 25.426 100.969 27.2594 102.066 28.2371C102.758 28.9709 102.237 30.376 101.025 29.7652C99.7557 29.1543 97.5033 26.954 96.9263 24.8142C97.3991 24.6877 97.8624 24.5243 98.3124 24.3254ZM101.258 23.2862C102.931 24.5088 106.8 27.198 107.435 27.6868C108.301 28.2995 108.705 29.3368 107.03 29.2149C105.356 29.0314 102.18 27.7483 99.6968 23.8971C100.044 23.7751 100.911 23.4696 101.258 23.2862ZM104.26 21.4528C105.24 22.1251 111.65 25.67 114.595 26.5871C115.575 26.954 115.113 27.9317 114.132 28.0537C113.208 28.2371 110.667 28.2371 107.724 26.3413C105.992 25.2416 103.393 23.2248 102.585 22.491C102.989 22.3076 103.855 21.7582 104.26 21.4528ZM107.031 19.0681C108.533 19.8624 117.713 23.8971 121.235 24.7537C122.215 24.9986 122.736 25.7928 121.524 26.2203C120.368 26.5871 117.655 26.4037 115.981 25.9148C114.364 25.426 107.725 23.1642 105.185 20.5356C105.703 20.2907 106.915 19.3735 107.031 19.0681ZM128.681 22.0022C127.066 21.6353 113.787 18.4573 109.976 16.9283C108.878 16.5615 108.474 16.9283 108.301 17.3567C108.07 17.785 108.012 18.3958 108.706 18.7627C109.456 19.0681 119.675 23.5302 124.468 23.8356C126.258 23.8356 127.701 23.1633 128.51 22.7974C129.028 22.491 128.798 22.491 128.681 22.0022ZM134.803 18.3958C132.55 18.0904 117.308 15.5223 113.208 14.3621C111.535 13.9337 110.783 14.1172 110.553 14.606C110.38 15.0958 110.38 15.9515 111.535 16.3789C112.746 16.8073 126.199 20.1082 128.681 20.2916C131.165 20.4136 134.109 19.8019 134.918 19.1305C135.67 18.5187 134.803 18.3958 134.803 18.3958ZM139.71 14.0557C138.093 14.0557 118.81 12.5277 114.767 11.6105C113.382 11.4885 112.458 11.4271 112.343 12.0379C112.226 12.6497 112.285 12.9551 113.44 13.322C114.595 13.6274 128.913 16.5009 136.187 16.6229C138.613 16.5624 141.442 14.1163 139.71 14.0557ZM144.329 9.47081C141.962 9.53225 130.183 9.5928 128.798 9.53225C127.413 9.47081 116.79 8.85996 115.519 8.79851C114.305 8.67652 113.093 9.04339 113.093 9.47081C113.093 9.89822 113.381 10.2651 114.825 10.5705C116.268 10.9373 129.548 12.5268 139.594 12.3434C141.499 12.4039 144.04 11.3648 144.675 10.387C145.368 9.40936 144.618 9.47081 144.329 9.47081ZM90.6506 4.85873C91.2489 4.54246 91.6773 5.45331 91.079 5.77048C90.6369 6.00362 90.1726 6.27831 89.8218 6.56476C89.5402 6.79609 89.3388 7.01748 89.3217 7.19007H89.3251C89.302 7.472 89.3217 7.73676 89.4497 7.99881C89.5965 8.2952 89.8799 8.61508 90.3903 8.99279C90.9391 9.39852 90.3851 10.2343 89.8372 9.82773C89.1919 9.34882 88.8121 8.90514 88.5971 8.46869C88.3658 7.997 88.3274 7.55785 88.3624 7.10694L88.3675 7.10332C88.4093 6.60452 88.7558 6.15452 89.238 5.76144C89.6511 5.42078 90.1675 5.11445 90.6506 4.85873Z" fill="#DAD5D3"/>
<path fill-rule="evenodd" clip-rule="evenodd" d="M75.4486 40.3403C86.4766 40.3403 95.4264 33.311 95.4264 24.5694C95.4264 15.9507 86.4766 8.92053 75.4486 8.92053C64.4214 8.92053 55.4717 15.9507 55.4717 24.5694C55.4717 33.311 64.4214 40.3403 75.4486 40.3403Z" fill="black"/>
<path d="M75.4497 38.6045C80.4085 38.6045 84.8953 37.0178 88.1378 34.4515C91.3418 31.915 93.3253 28.4207 93.3253 24.5695C93.3253 20.7716 91.3349 17.3026 88.1224 14.7806C84.8817 12.2378 80.4008 10.6574 75.4488 10.6574C70.4969 10.6574 66.0169 12.2378 62.7761 14.7806C59.5627 17.3026 57.5741 20.7707 57.5741 24.5695C57.5741 28.4207 59.5568 31.915 62.7616 34.4515C66.0041 37.0178 70.49 38.6045 75.4497 38.6045ZM88.6481 35.1771C85.2657 37.8545 80.598 39.51 75.4497 39.51C70.3014 39.51 65.6345 37.8545 62.2504 35.1771C58.8339 32.4717 56.7197 28.7225 56.7197 24.5704C56.7197 20.4716 58.8415 16.7478 62.2692 14.0577C65.6516 11.4029 70.3117 9.75281 75.4488 9.75281C80.586 9.75281 85.2461 11.4029 88.6285 14.0577C92.0579 16.7487 94.1779 20.4725 94.1779 24.5704C94.1788 28.7225 92.0655 32.4708 88.6481 35.1771Z" fill="#DAD5D3"/>
<path fill-rule="evenodd" clip-rule="evenodd" d="M84.2249 18.8847C84.2249 16.5624 81.9162 13.0781 75.276 13.0781C71.35 13.0781 68.0589 14.1172 66.0967 16.0727C66.5584 16.501 67.0774 17.1118 67.0774 17.8456V30.4989C67.0202 31.2932 66.6728 31.9041 66.1539 32.5764C68.0017 34.1667 71.1187 35.571 75.9691 35.4499C80.8195 35.3279 85.3217 33.6779 85.3217 28.9095C85.3217 26.8926 83.5328 24.8748 81.5697 24.2034C81.0499 24.02 81.166 23.4697 81.5697 23.2863C81.9734 23.1028 84.2249 21.2694 84.2249 18.8847ZM75.911 32.7146C77.8852 32.7146 79.4428 31.0023 79.4428 28.8498C79.4428 26.6947 77.886 24.9842 75.911 24.9842C73.9361 24.9842 72.3801 26.6956 72.3801 28.8498C72.3801 31.0023 73.9361 32.7146 75.911 32.7146ZM75.5073 22.8579C77.1819 22.8579 78.5671 21.2685 78.5671 19.313C78.5671 17.3567 77.1819 15.7672 75.5073 15.7672C73.8328 15.7672 72.4476 17.3567 72.4476 19.313C72.4467 21.2694 73.8328 22.8579 75.5073 22.8579Z" fill="white"/>
</svg>
