<svg width="20" height="20" viewBox="0 0 20 20" fill="none" xmlns="http://www.w3.org/2000/svg">
<path d="M17.3915 1.28688L10.0003 8.67813L2.60901 1.28688C2.43124 1.1242 2.19756 1.03639 1.95665 1.04173C1.71574 1.04706 1.48618 1.14514 1.31579 1.31553C1.1454 1.48593 1.04732 1.71549 1.04198 1.9564C1.03665 2.1973 1.12446 2.43099 1.28714 2.60876L8.67464 10L1.28526 17.3894C1.19499 17.4754 1.12282 17.5786 1.07301 17.693C1.02319 17.8073 0.996733 17.9304 0.995189 18.0551C0.993645 18.1798 1.01704 18.3035 1.06401 18.4191C1.11098 18.5346 1.18057 18.6396 1.26869 18.7278C1.35681 18.8161 1.46168 18.8858 1.57713 18.9329C1.69259 18.9801 1.8163 19.0036 1.941 19.0023C2.0657 19.0009 2.18887 18.9746 2.30327 18.925C2.41766 18.8753 2.52098 18.8033 2.60714 18.7131L10.0003 11.3238L17.3915 18.715C17.5693 18.8777 17.803 18.9655 18.0439 18.9602C18.2848 18.9548 18.5143 18.8567 18.6847 18.6863C18.8551 18.516 18.9532 18.2864 18.9585 18.0455C18.9639 17.8046 18.8761 17.5709 18.7134 17.3931L11.3221 10.0019L18.7134 2.60876C18.8037 2.52272 18.8758 2.41951 18.9256 2.30518C18.9755 2.19086 19.0019 2.06773 19.0035 1.94303C19.005 1.81833 18.9816 1.69459 18.9346 1.57906C18.8877 1.46354 18.8181 1.35857 18.73 1.27033C18.6418 1.18208 18.537 1.11235 18.4215 1.06521C18.3061 1.01808 18.1823 0.994508 18.0576 0.995875C17.933 0.997243 17.8098 1.02353 17.6954 1.07318C17.581 1.12283 17.4777 1.19485 17.3915 1.28501V1.28688Z" fill="black"/>
</svg>
