<svg width="178" height="72" viewBox="0 0 178 72" fill="none" xmlns="http://www.w3.org/2000/svg">
<path fill-rule="evenodd" clip-rule="evenodd" d="M92.0848 4.71355C82.9229 5.25757 74.1181 6.16606 69.5403 6.75119C69.348 6.77578 69.1721 6.63978 69.1476 6.44744C69.123 6.25509 69.259 6.07923 69.4513 6.05464C74.0444 5.46755 82.8649 4.55755 92.0432 4.01257C101.212 3.46812 110.773 3.28562 116.827 4.16422C116.933 4.1796 117.026 4.24255 117.08 4.33515C117.134 4.42775 117.143 4.53988 117.104 4.63964C116.164 7.03971 113.784 10.7306 111.663 13.7942C110.598 15.3323 109.59 16.7225 108.85 17.7281C108.479 18.2309 108.175 18.6378 107.964 18.919C107.858 19.0597 107.776 19.1689 107.719 19.2431C107.697 19.272 107.68 19.2955 107.666 19.3136L107.633 19.3562L107.633 19.3565C107.633 19.3566 107.633 19.3567 107.354 19.1435L107.633 19.3565C107.566 19.444 107.462 19.4952 107.352 19.4946L50.411 19.1981C50.2171 19.1971 50.0608 19.0391 50.0618 18.8452C50.0628 18.6512 50.2208 18.4949 50.4147 18.4959L107.18 18.7915C107.235 18.7195 107.31 18.6205 107.403 18.4971C107.613 18.2174 107.915 17.8124 108.284 17.3116C109.022 16.3098 110.025 14.9254 111.085 13.3945C113.091 10.4976 115.277 7.11192 116.279 4.79706C110.284 4.00094 101.03 4.1824 92.0848 4.71355Z" fill="#4A4A49"/>
<path fill-rule="evenodd" clip-rule="evenodd" d="M8.73157 25.5339C8.39603 26.3433 8.16475 27.6362 8.03896 29.3023C7.90557 31.0691 7.89321 33.2143 7.9807 35.5624C8.15566 40.2581 8.72894 45.7409 9.51859 50.5834C9.5498 50.7748 9.41995 50.9553 9.22856 50.9865C9.03718 51.0177 8.85673 50.8878 8.82553 50.6965C8.03168 45.8282 7.45512 40.3162 7.27897 35.5886C7.19091 33.2251 7.20268 31.0515 7.33874 29.2495C7.47384 27.46 7.73393 25.9948 8.16614 25.0764C8.21308 24.9766 8.30415 24.9047 8.41207 24.8822C11.7023 24.1952 18.2858 23.9347 24.9016 23.9036C31.53 23.8725 38.2373 24.0719 41.8001 24.316C41.9875 24.3289 42.1316 24.4869 42.1271 24.6747C42.0045 29.7855 42.4644 36.334 42.9566 41.6139C43.2025 44.2519 43.4561 46.5696 43.6482 48.2278C43.7442 49.0568 43.8249 49.7208 43.8815 50.1775C43.9099 50.4058 43.9322 50.5822 43.9474 50.7015C43.955 50.7612 43.9608 50.8065 43.9648 50.8369L43.9706 50.8819L43.9707 50.8824C43.9707 50.8825 43.9707 50.8826 43.6225 50.9281C43.2744 50.9737 43.2744 50.9736 43.2744 50.9734L43.2743 50.9729L43.2683 50.9269C43.2644 50.8961 43.2585 50.8504 43.2508 50.7904C43.2355 50.6703 43.2131 50.4931 43.1847 50.2639C43.1278 49.8056 43.0469 49.1397 42.9506 48.3086C42.7581 46.6465 42.5039 44.3234 42.2574 41.6791C41.7754 36.5086 41.3215 30.0961 41.4179 24.9944C37.8017 24.762 31.3194 24.5757 24.9049 24.6058C18.3942 24.6364 11.9981 24.8903 8.73157 25.5339ZM43.6681 51.2763C43.4758 51.3014 43.2995 51.1657 43.2744 50.9734L43.6225 50.9281L43.9707 50.8824C43.9958 51.0747 43.8604 51.2511 43.6681 51.2763Z" fill="#4A4A49"/>
<path fill-rule="evenodd" clip-rule="evenodd" d="M71.6504 20.5348C71.667 20.728 71.5238 20.898 71.3306 20.9146L71.3006 20.5648L71.2706 20.2149C71.4638 20.1984 71.6339 20.3415 71.6504 20.5348ZM45.8705 24.2398C44.8168 24.4933 44.0085 24.7453 43.5076 24.9878C43.333 25.0723 43.1231 24.9993 43.0386 24.8247C42.9541 24.6502 43.0271 24.4402 43.2016 24.3557C43.7743 24.0785 44.6445 23.8125 45.7063 23.5571C46.7744 23.3002 48.059 23.0489 49.4737 22.807C52.3035 22.3231 55.6693 21.8738 58.8966 21.4901C62.1246 21.1062 65.2179 20.7875 67.5039 20.5647C68.647 20.4533 69.5884 20.3659 70.2442 20.3063C70.5721 20.2765 70.8285 20.2537 71.0031 20.2383C71.0904 20.2306 71.1572 20.2248 71.2022 20.2208L71.2703 20.215C71.2705 20.2149 71.2706 20.2149 71.3006 20.5648C71.3306 20.9146 71.3308 20.9146 71.3306 20.9146L71.263 20.9204C71.2183 20.9243 71.1518 20.9301 71.0648 20.9378C70.8908 20.9531 70.6349 20.9759 70.3077 21.0056C69.6533 21.0651 68.7134 21.1524 67.572 21.2636C65.2891 21.4861 62.2011 21.8043 58.9795 22.1874C55.7571 22.5706 52.4048 23.0182 49.5921 23.4992C48.1855 23.7397 46.9178 23.988 45.8705 24.2398Z" fill="#4A4A49"/>
<path fill-rule="evenodd" clip-rule="evenodd" d="M71.4902 26.9174L71.1409 26.8819L71.1286 26.531C71.23 26.5274 71.328 26.5679 71.3973 26.642C71.4666 26.716 71.5005 26.8165 71.4902 26.9174ZM46.9913 34.0691C46.6407 34.0874 46.6407 34.0873 46.6407 34.0871L46.6406 34.0854L46.6404 34.081L46.6397 34.0652C46.6391 34.0515 46.6383 34.0318 46.6375 34.0065C46.6358 33.9557 46.634 33.8822 46.633 33.7892C46.631 33.6033 46.6327 33.3389 46.647 33.0221C46.6755 32.3903 46.7545 31.5415 46.959 30.6875C47.1625 29.8379 47.4968 28.9546 48.0539 28.2775C48.6214 27.5878 49.4171 27.1183 50.4968 27.1183C52.4147 27.1183 57.5689 26.9717 62.2515 26.8247C64.591 26.7513 66.8103 26.6778 68.4448 26.6228C69.262 26.5952 69.933 26.5723 70.3997 26.5562C70.633 26.5482 70.8153 26.5419 70.9392 26.5376L71.1286 26.531C71.1287 26.531 71.1286 26.531 71.1409 26.8819C71.4902 26.9174 71.4902 26.9172 71.4902 26.9174L71.4901 26.9181L71.49 26.9195L71.4895 26.9242L71.4876 26.9415C71.486 26.9564 71.4835 26.978 71.4801 27.006C71.4734 27.0618 71.4631 27.1428 71.4486 27.2454C71.4196 27.4506 71.3737 27.7424 71.3058 28.092C71.1702 28.7899 70.9456 29.7249 70.5893 30.6631C70.2342 31.5979 69.7403 32.558 69.0553 33.2879C68.3639 34.0245 67.4675 34.5356 66.3326 34.5293L46.9894 34.4202C46.8033 34.4192 46.6504 34.2729 46.6407 34.0871L46.9913 34.0691ZM47.3347 33.7199L66.3364 33.8271C66.3364 33.8271 66.3364 33.8271 66.3364 33.8271C67.2326 33.832 67.9526 33.4367 68.5432 32.8073C69.1402 32.1713 69.594 31.3059 69.9328 30.4138C70.2703 29.5251 70.4856 28.6318 70.6165 27.9581C70.6713 27.6757 70.7112 27.4331 70.7388 27.2472C70.6476 27.2503 70.5423 27.2539 70.4238 27.258C69.957 27.2741 69.2858 27.297 68.4684 27.3246C66.8336 27.3797 64.6137 27.4531 62.2735 27.5266C57.5964 27.6734 52.4286 27.8205 50.4968 27.8205C49.6518 27.8205 49.0469 28.1759 48.5962 28.7237C48.1351 29.284 47.8336 30.0507 47.6419 30.851C47.4513 31.647 47.3758 32.4481 47.3485 33.0537C47.3364 33.3217 47.3338 33.5497 47.3347 33.7199Z" fill="#4A4A49"/>
<path fill-rule="evenodd" clip-rule="evenodd" d="M57.1659 28.1956C61.0444 28.1564 65.467 28.12 67.6314 28.1312C67.8253 28.1322 67.9817 28.2902 67.9807 28.4841C67.9797 28.678 67.8217 28.8344 67.6278 28.8334C65.4698 28.8222 61.0531 28.8586 57.173 28.8978C55.2336 28.9173 53.4292 28.9376 52.1096 28.953C51.4498 28.9607 50.9113 28.9672 50.5377 28.9717L50.0689 28.9775C50.0409 29.0006 50.0053 29.0317 49.9639 29.0718C49.845 29.187 49.6779 29.3766 49.5058 29.6618C49.1903 30.1846 48.8506 31.0412 48.7721 32.3717L63.726 32.4536C63.9199 32.4547 64.0762 32.6127 64.0752 32.8067C64.0741 33.0006 63.916 33.1569 63.7221 33.1558L48.4048 33.0719C48.3107 33.0714 48.2208 33.0331 48.1551 32.9656C48.0895 32.8982 48.0537 32.8072 48.0557 32.7131C48.0919 31.0656 48.4927 29.9814 48.9045 29.299C49.1098 28.9589 49.3156 28.7222 49.4753 28.5675C49.5551 28.4902 49.6231 28.4335 49.6737 28.3947C49.6989 28.3753 49.7198 28.3603 49.7356 28.3495C49.7435 28.3441 49.7501 28.3397 49.7553 28.3363L49.7621 28.3319L49.7647 28.3302L49.7658 28.3295L49.7663 28.3292C49.7666 28.3291 49.7668 28.3289 49.9511 28.6278C49.9467 28.2767 49.9467 28.2767 49.9468 28.2767L50.5292 28.2695C50.9029 28.265 51.4415 28.2585 52.1014 28.2508C53.4212 28.2354 55.226 28.2152 57.1659 28.1956ZM49.9511 28.6278L49.9468 28.2767C49.8832 28.2775 49.8209 28.2956 49.7668 28.3289L49.9511 28.6278Z" fill="#4A4A49"/>
<path fill-rule="evenodd" clip-rule="evenodd" d="M55.4681 28.4859C55.514 28.6743 55.3985 28.8642 55.2101 28.9101C54.292 29.1337 53.8504 29.855 53.8425 30.608C53.8344 31.3696 54.2714 32.1388 55.1242 32.4336C55.3075 32.497 55.4047 32.697 55.3413 32.8802C55.2779 33.0635 55.078 33.1607 54.8947 33.0973C53.7248 32.6928 53.1294 31.6295 53.1403 30.6006C53.1512 29.5631 53.7797 28.5358 55.0439 28.2278C55.2323 28.1819 55.4222 28.2975 55.4681 28.4859Z" fill="#4A4A49"/>
<path fill-rule="evenodd" clip-rule="evenodd" d="M1.47869 42.3195L1.4789 42.3194L1.47985 42.3194L1.48658 42.3188C1.49295 42.3182 1.50308 42.3174 1.51675 42.3164C1.5441 42.3144 1.58561 42.3117 1.6397 42.3092C1.74794 42.3042 1.90621 42.2999 2.10188 42.3033C2.49409 42.3101 3.03206 42.3476 3.61652 42.4697C4.61833 42.6788 5.71669 43.1265 6.47687 44.0534L1.60981 44.0165C1.4159 44.015 1.25752 44.171 1.25605 44.3649C1.25458 44.5588 1.41058 44.7172 1.60449 44.7187L7.14389 44.7607C7.2695 44.7616 7.38605 44.6954 7.44953 44.587C7.51301 44.4786 7.51374 44.3445 7.45145 44.2355C6.57027 42.6922 5.02926 42.0472 3.76002 41.7823C3.12155 41.649 2.53782 41.6085 2.11407 41.6012C1.90177 41.5975 1.72849 41.6021 1.60717 41.6077C1.54649 41.6105 1.49872 41.6136 1.46549 41.616C1.44887 41.6173 1.43588 41.6183 1.42671 41.6191L1.41585 41.6201L1.41262 41.6204L1.41156 41.6205L1.41117 41.6205C1.41101 41.6205 1.41087 41.6205 1.44488 41.97L1.41087 41.6205C1.21787 41.6393 1.07664 41.811 1.09543 42.004C1.1142 42.1969 1.28578 42.3381 1.47869 42.3195Z" fill="#4A4A49"/>
<path fill-rule="evenodd" clip-rule="evenodd" d="M1.54419 28.296C1.54512 28.1021 1.70307 27.9456 1.89698 27.9465L7.74133 27.9745C7.93524 27.9754 8.09168 28.1334 8.09075 28.3273C8.08982 28.5212 7.93187 28.6777 7.73797 28.6767L1.89362 28.6487C1.69971 28.6478 1.54327 28.4899 1.54419 28.296Z" fill="#4A4A49"/>
<path fill-rule="evenodd" clip-rule="evenodd" d="M0.979254 34.4616C0.980398 34.2677 1.13852 34.1114 1.33243 34.1126L7.50131 34.1489C7.69521 34.1501 7.85148 34.3082 7.85034 34.5021C7.84919 34.696 7.69107 34.8523 7.49717 34.8511L1.32829 34.8148C1.13438 34.8136 0.978111 34.6555 0.979254 34.4616Z" fill="#4A4A49"/>
<path fill-rule="evenodd" clip-rule="evenodd" d="M2.50367 29.7645C2.50471 29.5706 2.66275 29.4142 2.85666 29.4153L7.52599 29.4405C7.7199 29.4415 7.87624 29.5996 7.8752 29.7935C7.87415 29.9874 7.71611 30.1437 7.5222 30.1427L2.85288 30.1175C2.65897 30.1164 2.50262 29.9584 2.50367 29.7645Z" fill="#4A4A49"/>
<path fill-rule="evenodd" clip-rule="evenodd" d="M2.74501 33.3627C2.75046 33.1689 2.912 33.0162 3.10584 33.0216L7.59051 33.1475C7.78435 33.153 7.93707 33.3145 7.93163 33.5083C7.92619 33.7022 7.76464 33.8549 7.57081 33.8495L3.08613 33.7236C2.8923 33.7181 2.73957 33.5566 2.74501 33.3627Z" fill="#4A4A49"/>
<path fill-rule="evenodd" clip-rule="evenodd" d="M6.07535 29.662C6.14074 29.8446 6.04577 30.0456 5.86321 30.1109C5.47013 30.2518 5.23484 30.4768 5.10575 30.7253C4.97422 30.9785 4.9388 31.2841 4.99785 31.6015C5.11811 32.2479 5.61321 32.8637 6.28418 33.0513C6.47093 33.1035 6.58 33.2972 6.52778 33.4839C6.47557 33.6707 6.28185 33.7798 6.0951 33.7275C5.13503 33.4591 4.47049 32.6061 4.30748 31.7299C4.2249 31.286 4.26695 30.8168 4.48259 30.4016C4.70067 29.9817 5.08227 29.6448 5.62641 29.4499C5.80896 29.3845 6.00996 29.4794 6.07535 29.662Z" fill="#4A4A49"/>
<path fill-rule="evenodd" clip-rule="evenodd" d="M153.123 62.1202C153.123 62.3141 152.967 62.4718 152.773 62.4725L106.913 62.6319C106.719 62.6326 106.562 62.476 106.561 62.2821C106.56 62.0882 106.717 61.9304 106.911 61.9297L152.77 61.7703C152.964 61.7696 153.122 61.9262 153.123 62.1202Z" fill="#4A4A49"/>
<path fill-rule="evenodd" clip-rule="evenodd" d="M135.967 29.788C135.947 30.0261 136.126 30.4423 136.948 30.5483C137.364 30.602 137.951 30.6792 138.638 30.7696C141.038 31.0855 144.655 31.5616 146.452 31.7504C146.987 31.8066 147.391 31.7385 147.658 31.6221C147.929 31.5038 148.026 31.3543 148.047 31.2553C148.066 31.1682 148.045 31.0208 147.84 30.842C147.631 30.6601 147.252 30.4735 146.652 30.3607C143.438 29.7916 140.196 29.3901 136.941 29.1578C136.264 29.1583 135.989 29.5263 135.967 29.788ZM135.267 29.7285C135.329 29.0048 136.009 28.4507 136.955 28.4556C136.963 28.4556 136.971 28.4559 136.979 28.4565C140.263 28.6904 143.534 29.0953 146.776 29.6696L146.779 29.6702L146.779 29.6702C147.454 29.7967 147.965 30.0204 148.3 30.312C148.64 30.607 148.82 30.9963 148.734 31.4009C148.651 31.7936 148.34 32.0907 147.939 32.2657C147.534 32.4424 147.002 32.5142 146.379 32.4488C144.571 32.2588 140.935 31.7803 138.536 31.4645C137.853 31.3746 137.27 31.2979 136.858 31.2448C135.815 31.1103 135.204 30.4773 135.267 29.7285Z" fill="#4A4A49"/>
<path fill-rule="evenodd" clip-rule="evenodd" d="M141.221 35.1533C141.415 35.154 141.571 35.3117 141.571 35.5056L141.22 35.5044L140.869 35.5033C140.869 35.3094 141.027 35.1527 141.221 35.1533ZM141.22 35.5044C140.869 35.5033 140.869 35.5032 140.869 35.5033L140.868 35.6274C140.868 35.7088 140.867 35.8285 140.866 35.982C140.865 36.2889 140.862 36.7309 140.858 37.2709C140.85 38.3508 140.836 39.8223 140.812 41.3889C140.764 44.5303 140.678 48.0295 140.526 49.5359C140.217 52.5986 139.94 55.3197 138.581 57.7952C138.488 57.9652 138.55 58.1787 138.72 58.272C138.89 58.3653 139.104 58.3031 139.197 58.1331C140.628 55.5268 140.915 52.6765 141.22 49.6601L141.225 49.6064C141.381 48.0633 141.467 44.5292 141.514 41.3996C141.538 39.8307 141.552 38.3573 141.56 37.2762C141.564 36.7356 141.567 36.2931 141.569 35.9856C141.569 35.8319 141.57 35.7119 141.57 35.6304L141.571 35.5056C141.571 35.5055 141.571 35.5056 141.22 35.5044Z" fill="#4A4A49"/>
<path fill-rule="evenodd" clip-rule="evenodd" d="M113.621 35.0052C113.815 34.9976 113.978 35.1486 113.986 35.3424L113.635 35.356L113.284 35.3696C113.276 35.1758 113.427 35.0127 113.621 35.0052ZM113.635 35.356C113.284 35.3696 113.284 35.3695 113.284 35.3696L113.289 35.4932C113.292 35.5742 113.296 35.6933 113.302 35.8461C113.313 36.1517 113.329 36.5917 113.348 37.1292C113.385 38.2043 113.433 39.6692 113.476 41.2289C113.562 44.356 113.626 47.8406 113.544 49.3421C113.379 52.3924 113.21 55.0931 111.972 57.5575C111.885 57.7307 111.955 57.9418 112.129 58.0288C112.302 58.1158 112.513 58.0459 112.6 57.8726C113.914 55.2564 114.081 52.4065 114.245 49.3802C114.329 47.8434 114.263 44.3255 114.178 41.2096C114.135 39.6477 114.087 38.1811 114.049 37.1049C114.031 36.5668 114.015 36.1262 114.004 35.8202C113.998 35.6672 113.993 35.5478 113.99 35.4666L113.986 35.3424C113.986 35.3423 113.986 35.3424 113.635 35.356Z" fill="#4A4A49"/>
<path fill-rule="evenodd" clip-rule="evenodd" d="M161.035 37.5626C161.229 37.5733 161.377 37.739 161.366 37.9326C161.278 39.5265 161.02 42.107 160.785 44.2819C160.668 45.3709 160.556 46.3607 160.474 47.0783C160.432 47.4371 160.398 47.7279 160.375 47.929C160.363 48.0296 160.354 48.1077 160.347 48.1608L160.338 48.2415C160.338 48.2416 160.338 48.2418 159.989 48.2002C159.64 48.1586 159.64 48.1585 159.64 48.1585L159.65 48.0781C159.656 48.0253 159.665 47.9474 159.677 47.8471C159.701 47.6465 159.735 47.3563 159.776 46.9981C159.858 46.2817 159.97 45.2935 160.087 44.2066C160.322 42.0298 160.578 39.4667 160.665 37.8936C160.676 37.7 160.842 37.5518 161.035 37.5626ZM159.947 48.5488C159.755 48.5258 159.617 48.351 159.64 48.1585L159.989 48.2002L160.338 48.2418C160.315 48.4344 160.14 48.5718 159.947 48.5488Z" fill="#4A4A49"/>
<path fill-rule="evenodd" clip-rule="evenodd" d="M123.641 12.6448L129.179 13.0707L129.212 13.0787C130.029 13.2768 131.238 13.7625 132.237 14.5901C133.244 15.423 134.071 16.6337 134.008 18.2587C133.975 19.1285 133.558 19.7976 132.94 20.29C132.334 20.7728 131.534 21.0902 130.692 21.2974C129.194 21.6663 127.461 21.711 126.175 21.6326V24.0402L120.3 23.2242V22.8588C120.3 21.9198 120.328 20.4148 120.413 18.9459C120.496 17.4924 120.637 16.0246 120.876 15.1898C121.381 13.4219 122.875 12.7626 123.593 12.6521L123.641 12.6448ZM123.677 13.4893C123.161 13.587 122.062 14.0941 121.683 15.4203C121.474 16.1522 121.335 17.5287 121.251 18.9941C121.177 20.2661 121.147 21.5679 121.141 22.4936L124.217 22.9208V19.603L124.673 19.643C125.983 19.7579 127.993 19.8054 129.762 19.5784C130.648 19.4647 131.451 19.2849 132.07 19.0229C132.662 18.7722 133.019 18.4746 133.172 18.1512C133.194 16.9035 132.56 15.9468 131.702 15.2366C130.834 14.5177 129.767 14.0823 129.046 13.9023L123.677 13.4893ZM131.84 20C131.241 20.19 130.565 20.3216 129.869 20.4109C128.22 20.6225 126.389 20.6049 125.056 20.5145V23.0374L125.336 23.0762V20.7206L125.794 20.7622C127.049 20.8764 128.929 20.8673 130.492 20.4824C130.995 20.3584 131.452 20.1987 131.84 20Z" fill="#4A4A49"/>
<path fill-rule="evenodd" clip-rule="evenodd" d="M124.201 5.19407C122.742 5.60402 121.725 6.52876 120.315 8.11855C118.921 9.69024 116.794 12.8149 115.004 15.5678C114.112 16.9399 113.308 18.2127 112.727 19.1426C112.454 19.5792 112.23 19.9402 112.07 20.2001L120.841 21.3974C121.033 21.4236 121.168 21.6006 121.142 21.7928C121.116 21.9849 120.939 22.1194 120.746 22.0932L111.441 20.823C111.324 20.807 111.223 20.7329 111.172 20.6258C111.121 20.5188 111.127 20.3934 111.189 20.2923L111.489 20.4751C111.189 20.2923 111.189 20.2924 111.189 20.2923L111.255 20.1852C111.297 20.1154 111.361 20.0126 111.442 19.8807C111.605 19.6169 111.84 19.2367 112.131 18.7705C112.714 17.8381 113.52 16.5616 114.416 15.185C116.2 12.4404 118.355 9.27029 119.79 7.65263C121.208 6.05306 122.341 4.98726 124.011 4.51804C125.661 4.05435 127.787 4.18715 131.159 4.81548C134.554 5.44804 138.406 6.57784 141.85 7.92113C145.286 9.26116 148.35 10.8272 150.147 12.3455C151.056 13.1134 152.17 14.4437 153.319 15.9822C154.473 17.5273 155.68 19.3057 156.775 20.9879C157.871 22.6707 158.856 24.2603 159.567 25.429C159.923 26.0135 160.21 26.4929 160.409 26.8263C160.508 26.9931 160.585 27.1233 160.638 27.212C160.664 27.2563 160.684 27.2902 160.697 27.3131L160.712 27.3391L160.717 27.3474L160.718 27.3478C160.718 27.3479 160.718 27.348 160.415 27.5253L160.718 27.3478C160.786 27.4641 160.781 27.6091 160.706 27.721C160.631 27.8328 160.499 27.8918 160.365 27.8729L125.856 22.9826C125.664 22.9554 125.53 22.7777 125.558 22.5857C125.585 22.3937 125.762 22.2601 125.954 22.2873L159.74 27.075C159.547 26.7513 159.284 26.3146 158.968 25.7941C158.259 24.6294 157.277 23.0461 156.187 21.371C155.096 19.6953 153.898 17.9307 152.757 16.4025C151.61 14.8676 150.537 13.5939 149.694 12.8818C147.988 11.4402 145.011 9.9078 141.595 8.57534C138.187 7.24615 134.378 6.12943 131.031 5.50582C127.661 4.878 125.679 4.7786 124.201 5.19407Z" fill="#4A4A49"/>
<path fill-rule="evenodd" clip-rule="evenodd" d="M132.727 5.18226C132.909 5.11361 133.111 5.20497 133.18 5.38633C135.221 10.7788 136.253 17.6574 136.065 24.0109C136.059 24.2047 135.897 24.3572 135.703 24.3514C135.509 24.3457 135.357 24.1839 135.363 23.9901C135.549 17.7149 134.528 10.9296 132.523 5.63493C132.455 5.45357 132.546 5.25091 132.727 5.18226Z" fill="#4A4A49"/>
<path fill-rule="evenodd" clip-rule="evenodd" d="M135.871 5.98061C136.053 5.91449 136.255 6.00865 136.321 6.19094C138.46 12.0865 139.686 18.2735 139.959 24.5391C139.967 24.7328 139.817 24.8967 139.624 24.9051C139.43 24.9135 139.266 24.7633 139.257 24.5696C138.988 18.3754 137.775 12.2588 135.661 6.43041C135.595 6.24812 135.689 6.04674 135.871 5.98061Z" fill="#4A4A49"/>
<path fill-rule="evenodd" clip-rule="evenodd" d="M145.961 9.92476C146.12 9.81439 146.339 9.85417 146.449 10.0136C149.649 14.6355 151.55 18.7481 152.652 21.7094C153.203 23.19 153.555 24.3829 153.768 25.208C153.875 25.6205 153.948 25.9411 153.994 26.1597C154.017 26.269 154.034 26.3529 154.044 26.41C154.05 26.4385 154.054 26.4604 154.056 26.4754L154.059 26.4928L154.06 26.4976L154.06 26.499L154.06 26.4995C154.061 26.4996 154.061 26.4998 153.714 26.5575L154.061 26.4998C154.092 26.691 153.963 26.8719 153.772 26.9038C153.581 26.9357 153.4 26.8065 153.368 26.6153M153.368 26.6152L153.368 26.6148L153.367 26.6117L153.365 26.598C153.363 26.5853 153.359 26.5659 153.354 26.5398C153.344 26.4876 153.329 26.4088 153.307 26.3046C153.263 26.0961 153.193 25.786 153.089 25.3842C152.88 24.5808 152.536 23.4109 151.994 21.9543C150.91 19.0412 149.034 14.9818 145.872 10.4133C145.761 10.2538 145.801 10.0351 145.961 9.92476" fill="#4A4A49"/>
<path d="M26.5484 20.0444C26.232 19.9901 25.9402 19.8385 25.7136 19.611C25.487 19.3833 25.3368 19.0909 25.2839 18.7743C25.0181 17.0257 26.0449 16.7096 26.403 17.0285C26.7611 17.3474 26.2631 18.1476 26.361 18.777C26.3218 17.5069 28.2271 16.8746 28.1907 17.672C28.1543 18.4693 27.4465 17.8286 27.4577 18.9393C27.4689 20.05 26.7023 20.0444 26.7023 20.0444L27.0576 22.4056H26.5568L26.7807 20.8501" fill="#A4A4A4"/>
<path fill-rule="evenodd" clip-rule="evenodd" d="M25.9625 19.3634C25.7878 19.1878 25.6719 18.9627 25.6307 18.7189L25.9625 19.3634ZM25.6307 18.7189C25.5077 17.9063 25.6992 17.5269 25.8528 17.3793C26.0202 17.2185 26.1576 17.2802 26.1695 17.2908C26.1695 17.2908 26.1696 17.2908 26.1696 17.2908C26.17 17.2911 26.1708 17.2916 26.1728 17.2967C26.1759 17.3048 26.1814 17.3244 26.1829 17.3619C26.1862 17.4435 26.1698 17.5549 26.1361 17.7136C26.1278 17.7529 26.1182 17.7958 26.1081 17.8411C26.0815 17.9607 26.0512 18.0969 26.0301 18.227C26.0002 18.4111 25.9814 18.621 26.0141 18.8311C26.0426 19.0144 26.2088 19.1439 26.3935 19.1267C26.5782 19.1096 26.7177 18.9517 26.712 18.7663C26.6984 18.3238 27.0283 17.9512 27.4229 17.7676C27.6114 17.6799 27.762 17.662 27.8391 17.673C27.8338 17.7548 27.8199 17.7886 27.8139 17.7991C27.8119 17.8007 27.8048 17.8058 27.7864 17.8148C27.7662 17.8246 27.7525 17.8302 27.7325 17.8384C27.7166 17.8449 27.6967 17.8531 27.6664 17.8662C27.5518 17.9161 27.383 18.0023 27.2616 18.2039C27.1482 18.3922 27.1036 18.6357 27.1067 18.9429C27.1113 19.4081 26.9587 19.566 26.8786 19.6238C26.8294 19.6594 26.7794 19.6773 26.7417 19.6862C26.7232 19.6905 26.7091 19.6923 26.7016 19.693C26.6997 19.6932 26.6983 19.6933 26.6975 19.6934C26.673 19.6937 26.6489 19.6966 26.6254 19.7019C26.6196 19.7006 26.6138 19.6994 26.6079 19.6984C26.3635 19.6565 26.1379 19.5393 25.9626 19.3635M26.3966 20.3723C26.0441 20.2936 25.7206 20.1156 25.4649 19.8589L25.4648 19.8588C25.1869 19.5795 25.0025 19.2209 24.9376 18.8321L24.9368 18.8271C24.7948 17.893 24.9835 17.2407 25.3663 16.873C25.7353 16.5183 26.2903 16.458 26.6365 16.7664C26.8001 16.9121 26.8624 17.0977 26.8799 17.2671C26.962 17.2144 27.0451 17.1689 27.1268 17.1309C27.3968 17.0053 27.7084 16.9329 27.9805 16.9848C28.1218 17.0118 28.2735 17.0771 28.3874 17.2098C28.5047 17.3465 28.5493 17.5167 28.5415 17.688C28.5299 17.9417 28.4607 18.1495 28.3042 18.3018C28.1902 18.4128 28.0381 18.4735 27.9705 18.5004C27.9605 18.5044 27.9523 18.5076 27.9464 18.5102C27.8809 18.5387 27.8726 18.5504 27.8633 18.566C27.8459 18.5948 27.8063 18.6877 27.8088 18.9359C27.8153 19.5813 27.5903 19.976 27.2899 20.193C27.2242 20.2405 27.1586 20.2767 27.0965 20.3043L27.4049 22.3535C27.4201 22.4546 27.3905 22.5573 27.3238 22.6348C27.2571 22.7122 27.1599 22.7568 27.0577 22.7568H26.5569C26.455 22.7568 26.3582 22.7126 26.2915 22.6356C26.2248 22.5586 26.1949 22.4565 26.2094 22.3557L26.4332 20.8002C26.4367 20.776 26.4425 20.7527 26.4505 20.7305L26.3966 20.3723ZM27.811 17.8029C27.8109 17.8028 27.8117 17.8014 27.8138 17.7993C27.8121 17.8021 27.8111 17.8031 27.811 17.8029ZM27.8699 17.6805C27.8699 17.6805 27.8696 17.6804 27.8692 17.6802C27.8697 17.6804 27.8699 17.6805 27.8699 17.6805Z" fill="#4A4A49"/>
<path fill-rule="evenodd" clip-rule="evenodd" d="M16.6784 61.4704C16.8403 61.3636 17.0581 61.4084 17.1648 61.5703C17.8598 62.6246 19.1492 63.632 20.8013 64.4305C22.4473 65.2261 24.4239 65.7998 26.4581 66.0066C30.5381 66.4214 34.7572 65.3583 37.0699 61.7853C37.1753 61.6226 37.3926 61.576 37.5554 61.6814C37.7182 61.7867 37.7648 62.0041 37.6594 62.1669C35.1461 66.0498 30.6043 67.1339 26.3871 66.7052C24.2726 66.4902 22.2165 65.8945 20.4957 65.0627C18.7809 64.2339 17.369 63.1559 16.5785 61.9567C16.4718 61.7948 16.5165 61.5771 16.6784 61.4704Z" fill="#4A4A49"/>
<path fill-rule="evenodd" clip-rule="evenodd" d="M10.4103 61.2912C10.5738 61.1869 10.7909 61.2349 10.8952 61.3984C15.0302 67.879 22.15 70.0789 28.2682 69.6002C31.3268 69.3608 34.1095 68.4529 36.12 67.099C38.1321 65.744 39.3329 63.9728 39.3439 61.9993C39.345 61.8054 39.5031 61.6491 39.697 61.6502C39.8909 61.6513 40.0472 61.8093 40.0461 62.0032C40.0334 64.2878 38.6408 66.248 36.5122 67.6815C34.382 69.116 31.4769 70.0535 28.3229 70.3002C22.0159 70.7937 14.6116 68.5285 10.3032 61.7761C10.1989 61.6126 10.2469 61.3955 10.4103 61.2912Z" fill="#4A4A49"/>
<path fill-rule="evenodd" clip-rule="evenodd" d="M101.411 46.1732C96.2086 37.6662 87.7711 38.4559 84.1057 41.145C83.9494 41.2598 83.7297 41.226 83.615 41.0697C83.5003 40.9133 83.534 40.6936 83.6904 40.5789C87.6514 37.6727 96.5707 36.9124 102.01 45.8069C107.308 54.4729 103.292 62.2019 100.505 65.1465C97.6763 68.1358 90.9522 70.305 84.5069 65.8486C84.5009 65.8445 84.4951 65.8402 84.4894 65.8357C82.8595 64.5524 81.7903 63.2699 81.1267 62.3035C80.795 61.8203 80.5646 61.4162 80.4163 61.1304C80.3421 60.9875 80.2884 60.8741 80.2527 60.7952C80.2348 60.7557 80.2215 60.7248 80.2124 60.7032C80.2078 60.6924 80.2043 60.6839 80.2018 60.6777L80.1988 60.6703L80.1979 60.668L80.1974 60.6668C80.1974 60.6667 80.1973 60.6665 80.5241 60.538L80.1973 60.6665C80.1263 60.4861 80.2151 60.2823 80.3955 60.2113C80.5759 60.1404 80.7795 60.2289 80.8506 60.4091L80.8507 60.4094L80.8521 60.4128C80.8536 60.4163 80.856 60.4222 80.8594 60.4303C80.8663 60.4466 80.8772 60.472 80.8926 60.5059C80.9232 60.5737 80.9714 60.6757 81.0395 60.8068C81.1757 61.0692 81.3914 61.4484 81.7056 61.906C82.3327 62.8193 83.3522 64.045 84.9152 65.2772C91.0511 69.5134 97.3872 67.4197 99.9955 64.6638C102.647 61.8621 106.488 54.478 101.411 46.1732Z" fill="#4A4A49"/>
<path fill-rule="evenodd" clip-rule="evenodd" d="M98.9133 38.579C95.3365 36.4061 91.0946 36.178 87.0489 36.7694C86.857 36.7974 86.6788 36.6646 86.6507 36.4727C86.6227 36.2809 86.7555 36.1026 86.9473 36.0745C91.0737 35.4713 95.5046 35.6866 99.2779 37.9788C103.061 40.2771 106.116 44.6218 107.57 52.1341C107.607 52.3245 107.482 52.5087 107.292 52.5456C107.102 52.5824 106.917 52.4579 106.881 52.2676C105.453 44.8878 102.48 40.7458 98.9133 38.579Z" fill="#4A4A49"/>
<path fill-rule="evenodd" clip-rule="evenodd" d="M78.4536 62.1127C78.6145 62.0046 78.8327 62.0473 78.9409 62.2082C81.6838 66.288 85.6738 69.4561 90.089 70.2629C94.478 71.065 99.3661 69.5478 103.969 64.0995C104.094 63.9514 104.316 63.9328 104.464 64.0579C104.612 64.1831 104.63 64.4046 104.505 64.5527C99.7722 70.1552 94.6446 71.8093 89.9628 70.9537C85.3072 70.1029 81.1714 66.7845 78.3581 62.6C78.2499 62.4391 78.2927 62.2209 78.4536 62.1127Z" fill="#4A4A49"/>
<path fill-rule="evenodd" clip-rule="evenodd" d="M72.0718 62.0277C72.241 61.933 72.4549 61.9934 72.5496 62.1626C74.1942 65.101 76.6357 67.5149 79.5924 69.126C80.9549 69.8638 82.4723 70.2691 84.0214 70.309C85.635 70.3453 88.2157 70.3984 91.0115 70.432C91.2054 70.4343 91.3607 70.5934 91.3584 70.7873C91.356 70.9812 91.197 71.1365 91.0031 71.1342C88.2037 71.1006 85.6201 71.0474 84.0052 71.011L84.0041 71.011C82.344 70.9684 80.7178 70.534 79.2577 69.7433L79.2569 69.7429C76.1837 68.0684 73.6461 65.5596 71.9369 62.5056C71.8422 62.3363 71.9026 62.1224 72.0718 62.0277Z" fill="#4A4A49"/>
<path fill-rule="evenodd" clip-rule="evenodd" d="M164.876 46.9518C163.984 47.9031 163.102 49.5351 162.376 52.2412C161.67 54.886 161.425 58.2416 161.857 61.1618C162.293 64.1088 163.397 66.4812 165.263 67.354C165.718 67.5666 166.13 67.6241 166.507 67.5735C166.886 67.5226 167.251 67.359 167.604 67.0959C168.319 66.5634 168.949 65.648 169.478 64.5726C170.533 62.4248 171.106 59.8021 171.177 58.8855C171.185 58.7798 171.197 58.6464 171.21 58.4886C171.322 57.1901 171.577 54.2394 171.276 51.4765C171.107 49.9247 170.767 48.4714 170.154 47.4133C169.55 46.3724 168.701 45.7354 167.477 45.7257C166.658 45.726 165.757 46.013 164.876 46.9518ZM164.364 46.4712C165.379 45.3898 166.466 45.0234 167.479 45.0234H167.481V45.0234C169.013 45.0351 170.065 45.8605 170.761 47.0613C171.447 48.2451 171.802 49.8134 171.974 51.4005C172.283 54.2389 172.021 57.2636 171.91 58.5532C171.896 58.7081 171.885 58.838 171.877 58.9395C171.8 59.945 171.203 62.6546 170.108 64.8824C169.561 65.9948 168.871 67.0279 168.024 67.6589C167.596 67.9775 167.121 68.1995 166.6 68.2695C166.077 68.3398 165.53 68.2538 164.966 67.9901C162.758 66.9577 161.606 64.2579 161.163 61.2647C160.716 58.2448 160.968 54.7924 161.698 52.06L161.698 52.0596C162.439 49.2964 163.361 47.5404 164.364 46.4712Z" fill="#4A4A49"/>
<path fill-rule="evenodd" clip-rule="evenodd" d="M160.099 52.6102C160.099 52.6102 160.099 52.6102 160.099 52.6102L160.099 52.6117L160.098 52.6172L160.095 52.6402C160.093 52.6607 160.089 52.6917 160.083 52.7324C160.073 52.8139 160.059 52.9346 160.042 53.0901C160.008 53.4011 159.964 53.851 159.924 54.4039C159.845 55.5105 159.784 57.0265 159.854 58.6667C159.924 60.3086 160.126 62.0643 160.569 63.6543C161.013 65.2478 161.69 66.6455 162.691 67.603L162.692 67.6033C163.797 68.6631 164.789 69.1297 165.659 69.1945C166.522 69.2588 167.324 68.9326 168.065 68.2804C169.568 66.9572 170.741 64.3557 171.446 61.3885C171.49 61.1999 171.68 61.0832 171.868 61.128C172.057 61.1728 172.174 61.3621 172.129 61.5508C171.415 64.5566 170.2 67.3364 168.529 68.8075C167.683 69.5523 166.702 69.9764 165.607 69.8948C164.52 69.8137 163.382 69.2382 162.206 68.1102C161.078 67.031 160.354 65.4986 159.893 63.8426C159.43 62.1829 159.224 60.3695 159.153 58.6968C159.081 57.0225 159.144 55.4785 159.224 54.3538C159.264 53.7911 159.309 53.3324 159.344 53.0139C159.361 52.8546 159.376 52.7302 159.387 52.6453C159.392 52.6029 159.396 52.5703 159.399 52.5481L159.403 52.5228L159.403 52.5161L159.404 52.5137C159.404 52.5136 159.404 52.5135 159.749 52.5615L159.404 52.5137C159.431 52.3217 159.608 52.1874 159.8 52.2141C159.992 52.2408 160.126 52.4182 160.099 52.6102Z" fill="#4A4A49"/>
<path fill-rule="evenodd" clip-rule="evenodd" d="M164.604 44.0813C165.933 43.1406 167.378 42.7683 168.861 43.2713C170.346 43.7748 171.365 44.9455 172.03 46.9357C172.691 48.9109 173.019 51.7373 173.109 55.6397C173.113 55.8336 172.96 55.9944 172.766 55.9988C172.572 56.0033 172.411 55.8497 172.407 55.6559C172.317 51.7668 171.99 49.0286 171.364 47.1584C170.744 45.3032 169.849 44.3477 168.636 43.9363C167.422 43.5245 166.209 43.8054 165.009 44.6545C163.801 45.5098 162.631 46.927 161.552 48.7226C161.452 48.8888 161.236 48.9425 161.07 48.8427C160.904 48.7428 160.85 48.5271 160.95 48.3609C162.053 46.525 163.283 45.0159 164.604 44.0813Z" fill="#4A4A49"/>
<path fill-rule="evenodd" clip-rule="evenodd" d="M163.583 42.7864C165.058 42.6745 166.542 42.7706 167.99 43.0725C168.18 43.1121 168.302 43.2981 168.262 43.4879C168.222 43.6777 168.037 43.7995 167.847 43.76C166.463 43.4716 165.046 43.3797 163.636 43.4866C163.443 43.5013 163.274 43.3564 163.26 43.163C163.245 42.9697 163.39 42.8011 163.583 42.7864Z" fill="#4A4A49"/>
<path fill-rule="evenodd" clip-rule="evenodd" d="M152.045 63.2571C152.237 63.2283 152.415 63.3605 152.444 63.5522C152.606 64.6319 152.94 65.6784 153.434 66.652C153.848 67.4034 154.45 68.034 155.181 68.482M152.045 63.2571C151.853 63.2859 151.721 63.4647 151.75 63.6564L152.045 63.2571ZM151.75 63.6564C151.923 64.8124 152.281 65.9329 152.811 66.9751L151.75 63.6564ZM154.814 69.0808C153.977 68.568 153.289 67.8457 152.816 66.985C152.814 66.9817 152.812 66.9784 152.811 66.9751M155.181 68.482C155.914 68.9308 156.752 69.1807 157.611 69.2068L157.617 69.2071C159.823 69.3162 163.32 69.4323 165.845 69.2081C166.038 69.1909 166.208 69.3336 166.225 69.5267C166.242 69.7199 166.1 69.8904 165.907 69.9075C163.329 70.1364 159.79 70.0177 157.586 69.9086C156.606 69.8782 155.651 69.5928 154.815 69.0809L154.814 69.0808" fill="#4A4A49"/>
<path fill-rule="evenodd" clip-rule="evenodd" d="M9.42903 28.8222C9.29181 33.0544 9.73475 37.9791 10.2318 43.5051C10.2939 44.1962 10.357 44.8968 10.4198 45.6066L11.0819 45.614C11.7338 45.6212 12.6743 45.6316 13.8283 45.6443C16.1363 45.6697 19.2983 45.7043 22.7146 45.7408C29.3014 45.8113 36.8327 45.8892 41.0099 45.9235C40.5129 42.3757 40.141 38.1749 39.8909 34.8155C39.7605 33.063 39.6631 31.5375 39.5982 30.4499C39.5658 29.9061 39.5416 29.4718 39.5254 29.1732C39.5235 29.1389 39.5218 29.1063 39.5201 29.0755C39.3309 29.0721 39.0712 29.0673 38.7492 29.0615C38.0239 29.0485 36.9826 29.0301 35.7185 29.0089C33.1903 28.9664 29.7711 28.9124 26.207 28.8662C19.401 28.7781 12.0913 28.7191 9.42903 28.8222ZM39.8909 28.6921C40.2807 28.6728 40.2807 28.6728 40.2807 28.6729L40.2807 28.6732L40.2867 28.7902C40.2907 28.8677 40.2968 28.9824 40.3048 29.131C40.3209 29.4283 40.3451 29.8612 40.3774 30.4035C40.4421 31.4881 40.5393 33.0097 40.6693 34.7575C40.9297 38.2553 41.3213 42.6507 41.8466 46.2613C41.863 46.3739 41.8294 46.4881 41.7546 46.574C41.6797 46.6598 41.5712 46.7086 41.4573 46.7077C37.3889 46.6755 29.5387 46.5944 22.7062 46.5213C19.2898 46.4848 16.1277 46.4502 13.8197 46.4248C12.6657 46.4121 11.7252 46.4017 11.0732 46.3945L10.058 46.3832C10.0578 46.3832 10.0577 46.3832 10.0621 45.9929L10.058 46.3832C9.85739 46.3809 9.6909 46.227 9.67331 46.0272C9.60043 45.1991 9.5269 44.382 9.45441 43.5764C8.94391 37.9033 8.48464 32.7995 8.66217 28.4328C8.67035 28.2318 8.83005 28.0699 9.03098 28.059C11.3684 27.9322 19.0959 27.9935 26.2171 28.0857C29.7825 28.1319 33.2028 28.1859 35.7316 28.2284C36.996 28.2497 38.0377 28.268 38.7632 28.2811C39.126 28.2876 39.4097 28.2928 39.6028 28.2964L39.898 28.3019C39.8982 28.3019 39.8983 28.3019 39.8909 28.6921ZM39.8909 28.6921L39.8983 28.3019C40.1034 28.3058 40.2706 28.4679 40.2807 28.6729L39.8909 28.6921Z" fill="#4A4A49"/>
<path fill-rule="evenodd" clip-rule="evenodd" d="M10.4475 28.3579C10.6631 28.3606 10.8356 28.5375 10.833 28.753C10.7997 31.4601 11.0606 35.7596 11.3313 39.3948C11.4665 41.2097 11.6038 42.8546 11.7073 44.0457C11.7591 44.6413 11.8024 45.1233 11.8327 45.4564C11.8479 45.6229 11.8598 45.7522 11.868 45.8398L11.8804 45.973C11.8804 45.9731 11.8804 45.9731 11.4919 46.0098C11.1033 46.0466 11.1033 46.0465 11.1033 46.0464L11.0908 45.912C11.0826 45.824 11.0706 45.6942 11.0554 45.5272C11.0249 45.1932 10.9815 44.71 10.9297 44.1133C10.826 42.9199 10.6884 41.2717 10.5529 39.4528C10.2824 35.8203 10.0187 31.4889 10.0525 28.7434C10.0552 28.5279 10.232 28.3553 10.4475 28.3579ZM11.5286 46.3984C11.314 46.4187 11.1236 46.261 11.1033 46.0464L11.4919 46.0098L11.8804 45.973C11.9007 46.1876 11.7432 46.3781 11.5286 46.3984Z" fill="#4A4A49"/>
<path fill-rule="evenodd" clip-rule="evenodd" d="M12.0028 28.1343C12.2183 28.1368 12.391 28.3136 12.3884 28.5292C12.3565 31.2365 12.6181 35.5922 12.8892 39.2835C13.0246 41.1264 13.162 42.7993 13.2656 44.0115C13.3173 44.6175 13.3606 45.1084 13.391 45.4476C13.4062 45.6172 13.4181 45.7489 13.4262 45.8381L13.4387 45.9739C13.4387 45.9739 13.4387 45.974 13.0501 46.01C12.6615 46.0461 12.6615 46.046 12.6615 46.0459L12.6489 45.909C12.6407 45.8193 12.6288 45.6872 12.6135 45.5171C12.5831 45.177 12.5397 44.6851 12.4878 44.0779C12.3841 42.8636 12.2464 41.1875 12.1108 39.3406C11.8399 35.6524 11.5755 31.2652 11.6079 28.5199C11.6105 28.3044 11.7873 28.1318 12.0028 28.1343ZM13.0862 46.3986C12.8715 46.4186 12.6814 46.2606 12.6615 46.0459L13.0501 46.01L13.4387 45.9739C13.4586 46.1885 13.3008 46.3787 13.0862 46.3986Z" fill="#4A4A49"/>
<path fill-rule="evenodd" clip-rule="evenodd" d="M13.4855 27.9856C13.7011 27.9882 13.8737 28.1649 13.8712 28.3805C13.8392 31.087 14.1175 35.4768 14.4055 39.2032C14.5492 41.0636 14.695 42.7539 14.8048 43.9792C14.8597 44.5918 14.9057 45.0881 14.9379 45.4311C14.9539 45.6026 14.9666 45.7358 14.9752 45.8261L14.9884 45.9634C14.9885 45.9634 14.9885 45.9635 14.6 46.0012C14.2116 46.039 14.2116 46.0389 14.2115 46.0388L14.1982 45.9003C14.1896 45.8096 14.1769 45.676 14.1607 45.504C14.1284 45.16 14.0824 44.6627 14.0274 44.0489C13.9173 42.8214 13.7713 41.1278 13.6272 39.2634C13.3395 35.5403 13.0583 31.1174 13.0907 28.3713C13.0932 28.1557 13.27 27.9831 13.4855 27.9856ZM14.6378 46.3897C14.4232 46.4105 14.2324 46.2534 14.2115 46.0388L14.6 46.0012L14.9884 45.9634C15.0093 46.1779 14.8523 46.3688 14.6378 46.3897Z" fill="#4A4A49"/>
<path fill-rule="evenodd" clip-rule="evenodd" d="M15.0412 27.9856C15.2567 27.9882 15.4294 28.1649 15.4269 28.3805C15.3949 31.087 15.6732 35.4768 15.9611 39.2032C16.1049 41.0636 16.2506 42.7539 16.3605 43.9792C16.4154 44.5918 16.4613 45.0881 16.4935 45.4311C16.5096 45.6026 16.5223 45.7358 16.5309 45.8261L16.5441 45.9634C16.5441 45.9634 16.5441 45.9635 16.1557 46.0012C15.7672 46.039 15.7672 46.0389 15.7672 46.0388L15.7539 45.9003C15.7452 45.8096 15.7325 45.676 15.7164 45.504C15.6841 45.16 15.6381 44.6627 15.5831 44.0489C15.473 42.8214 15.327 41.1278 15.1829 39.2634C14.8952 35.5403 14.6139 31.1174 14.6464 28.3713C14.6489 28.1557 14.8257 27.9831 15.0412 27.9856ZM16.1934 46.3897C15.9789 46.4105 15.7881 46.2534 15.7672 46.0388L16.1557 46.0012L16.5441 45.9634C16.565 46.1779 16.408 46.3688 16.1934 46.3897Z" fill="#4A4A49"/>
<path fill-rule="evenodd" clip-rule="evenodd" d="M16.6688 28.1343C16.8843 28.1368 17.057 28.3136 17.0544 28.5292C17.0225 31.2365 17.2841 35.5922 17.5553 39.2835C17.6906 41.1264 17.828 42.7993 17.9316 44.0115C17.9833 44.6175 18.0266 45.1084 18.057 45.4476C18.0722 45.6172 18.0841 45.7489 18.0923 45.8381L18.1047 45.9739C18.1047 45.9739 18.1047 45.974 17.7161 46.01C17.3275 46.0461 17.3275 46.046 17.3275 46.0459L17.3149 45.909C17.3068 45.8193 17.2948 45.6872 17.2796 45.5171C17.2491 45.177 17.2057 44.6851 17.1538 44.0779C17.0501 42.8636 16.9125 41.1875 16.7768 39.3406C16.5059 35.6524 16.2415 31.2652 16.2739 28.5199C16.2765 28.3044 16.4533 28.1318 16.6688 28.1343ZM17.7522 46.3986C17.5375 46.4186 17.3474 46.2606 17.3275 46.0459L17.7161 46.01L18.1047 45.9739C18.1246 46.1885 17.9668 46.3787 17.7522 46.3986Z" fill="#4A4A49"/>
<path fill-rule="evenodd" clip-rule="evenodd" d="M18.2247 28.3579C18.4402 28.3605 18.6129 28.5373 18.6103 28.7528C18.5784 31.46 18.84 35.7596 19.1111 39.3947C19.2465 41.2097 19.3839 42.8545 19.4874 44.0457C19.5392 44.6412 19.5825 45.1233 19.6129 45.4564C19.628 45.6229 19.64 45.7522 19.6481 45.8398L19.6606 45.973C19.6606 45.9731 19.6606 45.9731 19.272 46.0098L19.6606 45.973C19.6808 46.1876 19.5233 46.3781 19.3088 46.3984C19.0942 46.4187 18.9038 46.2612 18.8835 46.0466L19.272 46.0098C18.8835 46.0466 18.8835 46.0467 18.8835 46.0466L18.8709 45.912C18.8627 45.824 18.8507 45.6942 18.8355 45.5272C18.8051 45.1932 18.7617 44.71 18.7098 44.1133C18.6061 42.9199 18.4684 41.2717 18.3327 39.4528C18.0618 35.8203 17.7975 31.489 17.8299 28.7436C17.8324 28.5281 18.0092 28.3554 18.2247 28.3579Z" fill="#4A4A49"/>
<path fill-rule="evenodd" clip-rule="evenodd" d="M19.6827 28.3018C19.8982 28.3044 20.0708 28.4813 20.0681 28.6968C20.0348 31.4025 20.3206 35.7147 20.6166 39.364C20.7644 41.1858 20.9142 42.8376 21.0272 44.0339C21.0836 44.632 21.1308 45.1162 21.1639 45.4508C21.1805 45.618 21.1935 45.7479 21.2024 45.8359L21.2159 45.9697C21.2159 45.9698 21.2159 45.9698 20.8277 46.0097C20.4395 46.0495 20.4395 46.0494 20.4395 46.0493L20.4258 45.9142C20.4168 45.8258 20.4038 45.6954 20.3872 45.5276C20.354 45.192 20.3066 44.7066 20.2501 44.1072C20.1369 42.9085 19.9867 41.2532 19.8386 39.4271C19.5429 35.7808 19.2538 31.4343 19.2876 28.6872C19.2903 28.4717 19.4671 28.2991 19.6827 28.3018ZM20.8675 46.3979C20.6531 46.4199 20.4614 46.2637 20.4395 46.0493L20.8277 46.0097L21.2159 45.9697C21.2379 46.1841 21.0819 46.3759 20.8675 46.3979Z" fill="#4A4A49"/>
<path fill-rule="evenodd" clip-rule="evenodd" d="M21.2382 28.3018C21.4537 28.3043 21.6264 28.4811 21.6238 28.6966C21.5919 31.4024 21.8777 35.7148 22.1734 39.3641C22.3209 41.1859 22.4705 42.8376 22.5833 44.0339C22.6396 44.6321 22.6867 45.1163 22.7197 45.4508C22.7363 45.6181 22.7492 45.748 22.7581 45.836L22.7716 45.9698C22.7717 45.9699 22.7717 45.9699 22.3834 46.0097L22.7716 45.9698C22.7936 46.1842 22.6376 46.376 22.4231 46.3979C22.2087 46.4198 22.0171 46.2638 21.9952 46.0494L22.3834 46.0097C21.9952 46.0494 21.9952 46.0495 21.9952 46.0494L21.9815 45.9141C21.9726 45.8257 21.9595 45.6953 21.943 45.5275C21.9098 45.1919 21.8626 44.7066 21.8061 44.1072C21.6932 42.9084 21.5433 41.2531 21.3954 39.4271C21.1 35.7808 20.8109 31.4343 20.8433 28.6874C20.8459 28.4719 21.0226 28.2992 21.2382 28.3018Z" fill="#4A4A49"/>
<path fill-rule="evenodd" clip-rule="evenodd" d="M22.8295 28.2571C23.045 28.2597 23.2177 28.4364 23.2151 28.652C23.1832 31.3596 23.4393 35.6804 23.7048 39.3366C23.8374 41.1621 23.9719 42.8175 24.0734 44.0166C24.1241 44.6161 24.1666 45.1014 24.1963 45.4368C24.2112 45.6045 24.2229 45.7347 24.2309 45.8229L24.2431 45.9571C24.2431 45.9572 24.2431 45.9572 23.8544 45.993C23.4658 46.0287 23.4658 46.0286 23.4658 46.0285L23.4535 45.8932C23.4455 45.8046 23.4337 45.6739 23.4188 45.5058C23.389 45.1694 23.3465 44.6831 23.2956 44.0824C23.194 42.8811 23.0591 41.2225 22.9263 39.3932C22.661 35.7397 22.4022 31.3878 22.4346 28.6428C22.4372 28.4272 22.614 28.2546 22.8295 28.2571ZM23.8902 46.3816C23.6755 46.4013 23.4855 46.2432 23.4658 46.0285L23.8544 45.993L24.2431 45.9571C24.2628 46.1717 24.1048 46.3618 23.8902 46.3816Z" fill="#4A4A49"/>
<path fill-rule="evenodd" clip-rule="evenodd" d="M24.3854 28.2571C24.6009 28.2597 24.7736 28.4364 24.771 28.652C24.7391 31.3596 24.9952 35.6804 25.2607 39.3366C25.3933 41.1621 25.5279 42.8175 25.6293 44.0166C25.68 44.6161 25.7225 45.1014 25.7522 45.4368C25.7671 45.6045 25.7788 45.7347 25.7868 45.8229L25.799 45.9571C25.799 45.9572 25.799 45.9572 25.4103 45.993C25.0217 46.0287 25.0217 46.0286 25.0217 46.0285L25.0094 45.8932C25.0014 45.8046 24.9896 45.6739 24.9747 45.5058C24.9449 45.1694 24.9024 44.6831 24.8515 44.0824C24.7499 42.8811 24.615 41.2225 24.4822 39.3932C24.2169 35.7397 23.9582 31.3878 23.9905 28.6428C23.9931 28.4272 24.1699 28.2546 24.3854 28.2571ZM25.4461 46.3816C25.2315 46.4013 25.0414 46.2432 25.0217 46.0285L25.4103 45.993L25.799 45.9571C25.8187 46.1717 25.6607 46.3618 25.4461 46.3816Z" fill="#4A4A49"/>
<path fill-rule="evenodd" clip-rule="evenodd" d="M25.9406 28.2571C26.1561 28.2597 26.3288 28.4364 26.3262 28.652C26.2943 31.3596 26.5503 35.6804 26.8159 39.3366C26.9484 41.1621 27.083 42.8175 27.1845 44.0166C27.2352 44.6161 27.2776 45.1014 27.3074 45.4368C27.3223 45.6045 27.334 45.7347 27.3419 45.8229L27.3541 45.9571C27.3541 45.9572 27.3542 45.9572 26.9655 45.993C26.5769 46.0287 26.5769 46.0286 26.5769 46.0285L26.5646 45.8932C26.5565 45.8046 26.5448 45.6739 26.5299 45.5058C26.5001 45.1694 26.4575 44.6831 26.4067 44.0824C26.3051 42.8811 26.1702 41.2225 26.0374 39.3932C25.772 35.7397 25.5133 31.3878 25.5457 28.6428C25.5483 28.4272 25.725 28.2546 25.9406 28.2571ZM27.0013 46.3816C26.7866 46.4013 26.5966 46.2432 26.5769 46.0285L26.9655 45.993L27.3541 45.9571C27.3739 46.1717 27.2159 46.3618 27.0013 46.3816Z" fill="#4A4A49"/>
<path fill-rule="evenodd" clip-rule="evenodd" d="M27.4965 28.2571C27.712 28.2597 27.8847 28.4364 27.8821 28.652C27.8502 31.3596 28.1062 35.6804 28.3718 39.3366C28.5043 41.1621 28.6389 42.8175 28.7404 44.0166C28.7911 44.6161 28.8336 45.1014 28.8633 45.4368C28.8782 45.6045 28.8899 45.7347 28.8978 45.8229L28.9101 45.9571C28.9101 45.9572 28.9101 45.9572 28.5214 45.993C28.1328 46.0287 28.1328 46.0286 28.1328 46.0285L28.1205 45.8932C28.1125 45.8046 28.1007 45.6739 28.0858 45.5058C28.056 45.1694 28.0134 44.6831 27.9626 44.0824C27.861 42.8811 27.7261 41.2225 27.5933 39.3932C27.3279 35.7397 27.0692 31.3878 27.1016 28.6428C27.1042 28.4272 27.281 28.2546 27.4965 28.2571ZM28.5572 46.3816C28.3425 46.4013 28.1525 46.2432 28.1328 46.0285L28.5214 45.993L28.9101 45.9571C28.9298 46.1717 28.7718 46.3618 28.5572 46.3816Z" fill="#4A4A49"/>
<path fill-rule="evenodd" clip-rule="evenodd" d="M29.0548 28.2571C29.2703 28.2598 29.4429 28.4366 29.4402 28.6522C29.4069 31.3597 29.6622 35.6805 29.9274 39.3367C30.0598 41.1621 30.1943 42.8175 30.2957 44.0166C30.3464 44.6161 30.3889 45.1014 30.4186 45.4368C30.4335 45.6045 30.4452 45.7347 30.4531 45.8229L30.4654 45.9571C30.4654 45.9572 30.4654 45.9572 30.0828 45.9924L30.4654 45.9571C30.4851 46.1717 30.3271 46.3618 30.1125 46.3816C29.8978 46.4013 29.7078 46.2433 29.6881 46.0287L30.0767 45.993C29.6881 46.0287 29.6881 46.0288 29.6881 46.0287L29.6758 45.8932C29.6678 45.8046 29.656 45.6739 29.6411 45.5058C29.6113 45.1694 29.5688 44.683 29.518 44.0824C29.4164 42.8811 29.2816 41.2225 29.1489 39.3931C28.8839 35.7397 28.6259 31.3877 28.6597 28.6426C28.6624 28.427 28.8393 28.2545 29.0548 28.2571Z" fill="#4A4A49"/>
<path fill-rule="evenodd" clip-rule="evenodd" d="M30.6107 28.2571C30.8262 28.2598 30.9988 28.4366 30.9961 28.6522C30.9628 31.3597 31.2182 35.6805 31.4833 39.3367C31.6157 41.1621 31.7502 42.8175 31.8517 44.0166C31.9024 44.6161 31.9448 45.1014 31.9745 45.4368C31.9894 45.6045 32.0011 45.7347 32.0091 45.8229L32.0213 45.9571C32.0213 45.9572 32.0213 45.9572 31.6387 45.9924L32.0213 45.9571C32.041 46.1717 31.883 46.3618 31.6684 46.3816C31.4537 46.4013 31.2637 46.2433 31.244 46.0287L31.6326 45.993C31.244 46.0287 31.244 46.0288 31.244 46.0287L31.2317 45.8932C31.2237 45.8046 31.2119 45.6739 31.197 45.5058C31.1672 45.1694 31.1247 44.683 31.0739 44.0824C30.9723 42.8811 30.8375 41.2225 30.7048 39.3931C30.4398 35.7397 30.1818 31.3877 30.2156 28.6426C30.2183 28.427 30.3952 28.2545 30.6107 28.2571Z" fill="#4A4A49"/>
<path fill-rule="evenodd" clip-rule="evenodd" d="M32.169 28.2571C32.3846 28.2598 32.5571 28.4366 32.5545 28.6522C32.5211 31.3597 32.7765 35.6805 33.0417 39.3367C33.1741 41.1621 33.3086 42.8175 33.41 44.0166C33.4607 44.6161 33.5031 45.1014 33.5329 45.4368C33.5477 45.6045 33.5594 45.7347 33.5674 45.8229L33.5796 45.9571C33.5796 45.9572 33.5796 45.9572 33.1971 45.9924L33.5796 45.9571C33.5994 46.1717 33.4414 46.3618 33.2267 46.3816C33.0121 46.4013 32.8221 46.2433 32.8023 46.0287L33.191 45.993C32.8023 46.0287 32.8024 46.0288 32.8023 46.0287L32.79 45.8932C32.782 45.8046 32.7703 45.6739 32.7554 45.5058C32.7255 45.1694 32.683 44.683 32.6322 44.0824C32.5306 42.8811 32.3959 41.2225 32.2632 39.3931C31.9982 35.7397 31.7402 31.3877 31.774 28.6426C31.7766 28.427 31.9535 28.2545 32.169 28.2571Z" fill="#4A4A49"/>
<path fill-rule="evenodd" clip-rule="evenodd" d="M33.7213 28.2571C33.9369 28.2597 34.1095 28.4364 34.107 28.652C34.075 31.3596 34.3304 35.6805 34.5952 39.3367C34.7275 41.1622 34.8617 42.8176 34.9629 44.0167C35.0135 44.6162 35.0558 45.1015 35.0855 45.4369C35.1003 45.6046 35.112 45.7348 35.1199 45.823L35.1321 45.9572C35.1321 45.9573 35.1321 45.9573 34.7435 45.993C34.3548 46.0286 34.3548 46.0286 34.3548 46.0285L34.3426 45.8931C34.3346 45.8045 34.3228 45.6738 34.308 45.5057C34.2782 45.1694 34.2358 44.683 34.1851 44.0823C34.0837 42.8811 33.9492 41.2224 33.8167 39.3931C33.5521 35.7397 33.2941 31.3878 33.3265 28.6428C33.329 28.4272 33.5058 28.2546 33.7213 28.2571ZM34.7791 46.3816C34.5645 46.4013 34.3745 46.2431 34.3548 46.0285L34.7435 45.993L35.1321 45.9572C35.1518 46.1718 34.9938 46.3619 34.7791 46.3816Z" fill="#4A4A49"/>
<path fill-rule="evenodd" clip-rule="evenodd" d="M35.277 28.2571C35.4926 28.2597 35.6652 28.4364 35.6627 28.652C35.6308 31.3585 35.909 35.7483 36.197 39.4747C36.3407 41.3351 36.4865 43.0254 36.5963 44.2507C36.6512 44.8633 36.6972 45.3595 36.7294 45.7026C36.7455 45.8741 36.7581 46.0073 36.7667 46.0975L36.7799 46.2348C36.78 46.2349 36.78 46.235 36.3915 46.2727C36.0031 46.3105 36.0031 46.3104 36.0031 46.3103L35.9897 46.1718C35.9811 46.0811 35.9684 45.9475 35.9522 45.7755C35.9199 45.4315 35.8739 44.9342 35.8189 44.3204C35.7089 43.0929 35.5628 41.3992 35.4187 39.5349C35.1311 35.8118 34.8498 31.3889 34.8822 28.6428C34.8847 28.4272 35.0615 28.2546 35.277 28.2571ZM36.4293 46.6612C36.2147 46.682 36.0239 46.5249 36.0031 46.3103L36.3915 46.2727L36.7799 46.2348C36.8008 46.4494 36.6438 46.6403 36.4293 46.6612Z" fill="#4A4A49"/>
<path fill-rule="evenodd" clip-rule="evenodd" d="M36.832 28.2571C37.0475 28.2597 37.2202 28.4364 37.2176 28.652C37.1857 31.3585 37.464 35.7483 37.7519 39.4747C37.8956 41.3351 38.0414 43.0254 38.1513 44.2507C38.2062 44.8633 38.2521 45.3595 38.2843 45.7026C38.3004 45.8741 38.313 46.0073 38.3217 46.0975L38.3349 46.2348C38.3349 46.2349 38.3349 46.235 37.9464 46.2727C37.558 46.3105 37.558 46.3104 37.558 46.3103L37.5447 46.1718C37.536 46.0811 37.5233 45.9475 37.5072 45.7755C37.4749 45.4315 37.4288 44.9342 37.3738 44.3204C37.2638 43.0929 37.1177 41.3992 36.9737 39.5349C36.686 35.8118 36.4047 31.3889 36.4371 28.6428C36.4397 28.4272 36.6165 28.2546 36.832 28.2571ZM37.9842 46.6612C37.7697 46.682 37.5788 46.5249 37.558 46.3103L37.9464 46.2727L38.3349 46.2348C38.3557 46.4494 38.1987 46.6403 37.9842 46.6612Z" fill="#4A4A49"/>
<path fill-rule="evenodd" clip-rule="evenodd" d="M38.4522 28.3579C38.6677 28.3606 38.8403 28.5375 38.8376 28.753C38.8043 31.4602 39.068 35.8268 39.3415 39.5293C39.4781 41.3778 39.6168 43.0563 39.7214 44.2727C39.7737 44.8808 39.8174 45.3734 39.8481 45.7138C39.8634 45.884 39.8754 46.0162 39.8837 46.1058L39.8962 46.242C39.8963 46.2421 39.8963 46.2422 39.5137 46.2779L39.8962 46.242C39.9163 46.4566 39.7586 46.647 39.5439 46.667C39.3293 46.6871 39.1391 46.5293 39.1191 46.3147L39.5077 46.2784C39.1191 46.3147 39.1191 46.3148 39.1191 46.3147L39.1064 46.1771C39.0981 46.0871 39.086 45.9545 39.0707 45.7838C39.0399 45.4425 38.9961 44.9489 38.9437 44.3395C38.839 43.121 38.7 41.4393 38.5631 39.5868C38.2898 35.8874 38.0233 31.4889 38.0571 28.7434C38.0598 28.5279 38.2366 28.3553 38.4522 28.3579Z" fill="#4A4A49"/>
<path fill-rule="evenodd" clip-rule="evenodd" d="M132.049 2.69341C125.193 1.25277 117.297 1.07617 106.525 1.21608C89.3941 1.43855 73.3313 5.1925 67.3948 7.05398L50.1418 18.556L50.0252 18.5613C35.3798 19.227 11.9589 23.3514 1.87623 25.3702C1.62418 25.8468 1.41409 26.5405 1.25174 27.4323C1.07242 28.4173 0.95733 29.6085 0.895525 30.9455C0.771938 33.6189 0.862808 36.8412 1.06348 40.0955C1.4648 46.6039 2.30255 53.199 2.71968 55.7018C2.92871 56.956 3.11765 57.8532 3.31323 58.5072C3.50932 59.163 3.70338 59.5433 3.90532 59.787C4.09825 60.0198 4.32092 60.1554 4.63893 60.2769C4.80304 60.3395 4.98655 60.3962 5.2051 60.4617C5.23212 60.4698 5.25961 60.4781 5.28758 60.4864C5.4822 60.5446 5.69962 60.6096 5.93554 60.6883C5.93394 60.6877 5.93957 60.6896 5.95565 60.6932C5.97091 60.6967 5.99161 60.7007 6.01857 60.7053C6.07273 60.7144 6.14438 60.7243 6.23481 60.7346C6.41548 60.7551 6.65794 60.7761 6.96046 60.7971C7.56479 60.8392 8.39405 60.8809 9.41811 60.922C11.4654 61.0041 14.2793 61.0832 17.6041 61.1586C24.2531 61.3094 32.9374 61.4449 41.6011 61.5585C58.9295 61.7858 76.1676 61.9257 76.8638 61.9257C77.8481 61.9257 78.3793 61.613 78.5076 61.5052C78.8076 61.0885 79.2802 60.0856 79.6397 58.4371C80.0051 56.7614 80.2478 54.4449 80.0818 51.4577C79.8677 47.6037 80.7595 43.9356 82.0579 41.0006C83.3497 38.0809 85.0707 35.8286 86.5669 34.856C88.0343 33.9022 91.5905 32.5414 95.3703 32.9193C97.2702 33.1093 99.2353 33.7398 101.016 35.0899C102.797 36.4404 104.37 38.4936 105.513 41.4931C108.955 50.5284 105.982 59.5749 103.76 63.5915L151.282 62.7722V61.3661H154.02C154.357 59.913 155.105 58.1569 155.907 56.5391C156.77 54.7974 157.714 53.1802 158.328 52.2106L159.552 49.6257C159.914 47.6798 160.787 44.8111 162.253 42.4493C163.726 40.0761 165.875 38.1037 168.794 38.2861C170.372 38.3847 171.395 39.5311 172.029 41.1122C172.662 42.6931 172.956 44.812 173.037 47.104C173.177 51.0208 172.7 55.5529 172.136 59.0393C178.919 49.5017 177.432 38.3696 175.705 33.6867L169.913 30.6532L151.285 11.7448C144.693 6.82246 138.88 4.12868 132.049 2.69341ZM132.222 1.87204C139.196 3.33752 145.126 6.09412 151.813 11.0915L151.838 11.1105L170.419 29.9707L176.377 33.0914L176.434 33.24C178.331 38.2208 180.047 50.7038 171.751 60.9311L171.013 60.5891C171.686 57.0151 172.359 51.6421 172.198 47.1339C172.118 44.875 171.829 42.8708 171.25 41.4244C170.67 39.9782 169.849 39.193 168.741 39.1238C166.289 38.9705 164.381 40.6117 162.966 42.892C161.557 45.1615 160.711 47.9543 160.368 49.8313L160.358 49.8856L159.064 52.6165L159.05 52.6383C158.451 53.5831 157.514 55.1859 156.659 56.9119C155.799 58.6464 155.04 60.469 154.772 61.865L154.706 62.2054H152.121V63.5971L102.261 64.4568L102.665 63.8032C104.816 60.3255 108.247 51.0277 104.728 41.7919C103.633 38.9163 102.146 37.0003 100.509 35.7586C98.8705 34.5165 97.0588 33.9317 95.2867 33.7545C91.7226 33.3981 88.3545 34.6951 87.0243 35.5597C85.7228 36.4057 84.0866 38.4897 82.8255 41.3402C81.5711 44.1755 80.7143 47.7114 80.9198 51.4111C81.0896 54.4669 80.8427 56.8597 80.4597 58.6159C80.0794 60.36 79.5588 61.5031 79.1579 62.0376L79.14 62.0614L79.1189 62.0825C78.8337 62.3677 78.0623 62.765 76.8638 62.765C76.1613 62.765 58.9179 62.6251 41.5901 62.3978C32.9257 62.2841 24.2382 62.1486 17.5851 61.9977C14.2589 61.9223 11.4392 61.843 9.38448 61.7606C8.35754 61.7194 7.51871 61.6774 6.90214 61.6344C6.5942 61.613 6.338 61.591 6.13984 61.5685C5.95618 61.5476 5.78371 61.5223 5.67013 61.4845C5.44749 61.4103 5.24311 61.3492 5.04792 61.2908C5.01977 61.2824 4.99182 61.274 4.96403 61.2657C4.74708 61.2006 4.53608 61.136 4.33955 61.061C3.93628 60.907 3.57319 60.7016 3.25904 60.3225C2.9539 59.9542 2.71957 59.4515 2.50911 58.7477C2.29816 58.0423 2.10242 57.1035 1.8918 55.8398C1.46963 53.3068 0.628768 46.6828 0.225763 40.1471C0.0242636 36.8793 -0.0684632 33.6232 0.0571174 30.9067C0.119897 29.5487 0.237578 28.3171 0.426005 27.282C0.612876 26.2555 0.875466 25.3857 1.24853 24.777L1.34418 24.621L1.52365 24.5849C11.477 22.585 35.0563 18.4178 49.8704 17.7282L67.0288 6.28927L67.0858 6.27132C73.039 4.39628 89.2319 0.601286 106.514 0.376846C117.283 0.236985 125.264 0.410091 132.222 1.87204Z" fill="#4A4A49"/>
<path fill-rule="evenodd" clip-rule="evenodd" d="M46.3669 43.9959L67.8964 44.4099L67.8405 44.8711C67.5434 47.3224 66.2262 49.0419 64.4092 50.2235C62.6064 51.3957 60.3099 52.042 58.0091 52.3871C53.9876 52.9904 49.8308 52.6879 48.024 52.5565C47.7639 52.5375 47.5526 52.5222 47.3973 52.5135C45.4995 52.4081 44.2738 53.177 43.9404 53.5103L43.8175 53.6333H8.87676L8.94586 53.2187C8.94328 53.2155 8.94041 53.2121 8.93723 53.2084C8.88341 53.1463 8.76441 53.0439 8.53228 52.9181C8.06935 52.6673 7.23052 52.3629 5.7958 52.087C2.72158 51.4958 1.40543 49.4604 1.13282 48.4245C1.07383 48.2003 1.20772 47.9708 1.43185 47.9118C1.65599 47.8529 1.8855 47.9867 1.94449 48.2109C2.13815 48.9468 3.20935 50.7349 5.9543 51.2628C7.42916 51.5464 8.3622 51.8714 8.93208 52.1802C9.21635 52.3342 9.429 52.4941 9.57188 52.6592C9.60711 52.6999 9.64143 52.7451 9.67216 52.794H43.4812C44.0826 52.2848 45.4776 51.5663 47.4438 51.6755C47.6082 51.6847 47.8281 51.7006 48.0959 51.7199C49.9195 51.8518 53.9676 52.1447 57.8846 51.5571C60.13 51.2203 62.2922 50.5989 63.9516 49.5199C65.4774 48.5278 66.5758 47.1524 66.9364 45.2309L44.9586 44.8083L45.2194 44.2287C45.7162 43.1246 47.6714 41.1836 51.6171 41.1836H69.6456L70.3789 59.516L45.6332 59.0893L43.9582 59.3685H11.2035L11.0977 59.298C10.2075 58.7045 7.2858 57.529 3.1213 57.9673C2.89081 57.9916 2.68429 57.8244 2.66003 57.5939C2.63577 57.3634 2.80295 57.1569 3.03344 57.1327C7.23371 56.6905 10.2923 57.811 11.4534 58.5292H43.8887L45.5709 58.2488L69.5048 58.6615L68.8392 42.0229H51.6171C48.7086 42.0229 47.0844 43.1503 46.3669 43.9959ZM8.96647 53.2485C8.96633 53.2485 8.96544 53.247 8.9642 53.244C8.96599 53.2471 8.96661 53.2486 8.96647 53.2485Z" fill="#4A4A49"/>
<path fill-rule="evenodd" clip-rule="evenodd" d="M93.2186 24.7072C88.1154 24.6196 84.543 24.7264 82.9084 24.9988C79.5447 25.5594 77.2984 26.1435 75.7462 27.2994C74.2236 28.4333 73.3114 30.1658 72.761 33.1928C72.324 35.5964 72.4121 40.5328 72.7112 45.7813C73.0091 51.0091 73.512 56.4852 73.8845 59.9304C73.9094 60.1608 73.7428 60.3678 73.5123 60.3927C73.2819 60.4176 73.0749 60.251 73.05 60.0206C72.6764 56.5647 72.1721 51.074 71.8732 45.8291C71.5755 40.605 71.477 35.5631 71.9353 33.0427C72.504 29.9149 73.4803 27.9404 75.2449 26.6263C76.9799 25.3342 79.4197 24.7294 82.7705 24.1709C84.4931 23.8838 88.1422 23.7807 93.233 23.868C98.3383 23.9556 104.928 24.2357 112.557 24.7256C127.813 25.7054 147.233 27.5249 167.248 30.3241C167.477 30.3562 167.637 30.5683 167.605 30.7979C167.573 31.0274 167.361 31.1874 167.131 31.1553C147.139 28.3592 127.741 26.5417 112.503 25.5632C104.884 25.0739 98.3074 24.7945 93.2186 24.7072Z" fill="#4A4A49"/>
</svg>
