<svg width="114" height="60" viewBox="0 0 114 60" fill="none" xmlns="http://www.w3.org/2000/svg">
<g clip-path="url(#clip0_114_1829)">
<path fill-rule="evenodd" clip-rule="evenodd" d="M64.3489 27.5522C64.5059 27.5522 64.6332 27.6795 64.6332 27.8364V32.1988C64.6332 32.3557 64.5059 32.483 64.3489 32.483C64.1919 32.483 64.0646 32.3557 64.0646 32.1988V27.8364C64.0646 27.6795 64.1919 27.5522 64.3489 27.5522Z" fill="#4A4A49"/>
<path fill-rule="evenodd" clip-rule="evenodd" d="M96.5517 25.8755C96.7088 25.8755 96.836 26.0027 96.836 26.1597V38.9057C96.836 39.0626 96.7088 39.1899 96.5517 39.1899C96.3947 39.1899 96.2675 39.0626 96.2675 38.9057V26.1597C96.2675 26.0027 96.3947 25.8755 96.5517 25.8755Z" fill="#4A4A49"/>
<path fill-rule="evenodd" clip-rule="evenodd" d="M70.3829 27.2183C70.5399 27.2183 70.6672 27.3455 70.6672 27.5025V39.5735C70.6672 39.7305 70.5399 39.8577 70.3829 39.8577C70.2259 39.8577 70.0986 39.7305 70.0986 39.5735V27.5025C70.0986 27.3455 70.2259 27.2183 70.3829 27.2183Z" fill="#4A4A49"/>
<path fill-rule="evenodd" clip-rule="evenodd" d="M58.9758 27.3394C59.1328 27.3394 59.2601 27.4666 59.2601 27.6235V41.2505C59.2601 41.4075 59.1328 41.5347 58.9758 41.5347C58.8188 41.5347 58.6915 41.4075 58.6915 41.2505V27.6235C58.6915 27.4666 58.8188 27.3394 58.9758 27.3394Z" fill="#4A4A49"/>
<path fill-rule="evenodd" clip-rule="evenodd" d="M59.253 41.3281C59.2533 41.485 59.1263 41.6125 58.9693 41.6128L51.8905 41.627C51.7334 41.6273 51.6059 41.5004 51.6056 41.3434C51.6053 41.1865 51.7323 41.059 51.8893 41.0586L58.9681 41.0444C59.1251 41.0441 59.2527 41.1711 59.253 41.3281Z" fill="#4A4A49"/>
<path fill-rule="evenodd" clip-rule="evenodd" d="M96.6297 39.1926C96.636 39.3494 96.514 39.4817 96.3571 39.4881L87.2456 39.8575C87.0888 39.8639 86.9564 39.7419 86.9501 39.5851C86.9437 39.4283 87.0657 39.296 87.2226 39.2896L96.3341 38.9202C96.491 38.9138 96.6233 39.0358 96.6297 39.1926Z" fill="#4A4A49"/>
<path fill-rule="evenodd" clip-rule="evenodd" d="M80.0623 15.4115C80.0734 15.5681 79.9555 15.704 79.7989 15.7151L70.4031 16.383C70.2465 16.3941 70.1105 16.2762 70.0994 16.1197C70.0882 15.9631 70.2062 15.8272 70.3628 15.816L79.7585 15.1482C79.9151 15.1371 80.0511 15.2549 80.0623 15.4115Z" fill="#4A4A49"/>
<path fill-rule="evenodd" clip-rule="evenodd" d="M101.25 4.69775L114 6.71302V37.7165L101.25 39.583V4.69775ZM101.818 5.36307V38.9254L113.431 37.2253V7.1986L101.818 5.36307Z" fill="#4A4A49"/>
<path fill-rule="evenodd" clip-rule="evenodd" d="M101.261 5.31406L92.54 5.64799L92.5182 5.08002L101.239 4.74609L101.261 5.31406Z" fill="#4A4A49"/>
<path fill-rule="evenodd" clip-rule="evenodd" d="M109.302 12.0767L112.657 12.3333V29.5131H109.302V12.0767ZM109.871 12.6902V28.9447H112.088V12.8598L109.871 12.6902Z" fill="#4A4A49"/>
<path fill-rule="evenodd" clip-rule="evenodd" d="M97.895 8.43359C98.052 8.43359 98.1793 8.56083 98.1793 8.71779V17.1512H99.2383C99.3953 17.1512 99.5226 17.2784 99.5226 17.4354C99.5226 17.5923 99.3953 17.7196 99.2383 17.7196H97.6107V8.71779C97.6107 8.56083 97.738 8.43359 97.895 8.43359Z" fill="#4A4A49"/>
<path fill-rule="evenodd" clip-rule="evenodd" d="M97.895 21.8545C98.052 21.8545 98.1793 21.9817 98.1793 22.1387V30.5721H99.2383C99.3953 30.5721 99.5226 30.6993 99.5226 30.8563C99.5226 31.0132 99.3953 31.1405 99.2383 31.1405H97.6107V22.1387C97.6107 21.9817 97.738 21.8545 97.895 21.8545Z" fill="#4A4A49"/>
<path fill-rule="evenodd" clip-rule="evenodd" d="M97.6107 8.71779C97.6107 8.56083 97.738 8.43359 97.895 8.43359H99.2383C99.3953 8.43359 99.5226 8.56083 99.5226 8.71779C99.5226 8.87474 99.3953 9.00198 99.2383 9.00198H97.895C97.738 9.00198 97.6107 8.87474 97.6107 8.71779Z" fill="#4A4A49"/>
<path fill-rule="evenodd" clip-rule="evenodd" d="M97.6107 22.1387C97.6107 21.9817 97.738 21.8545 97.895 21.8545H99.2383C99.3953 21.8545 99.5226 21.9817 99.5226 22.1387C99.5226 22.2956 99.3953 22.4229 99.2383 22.4229H97.895C97.738 22.4229 97.6107 22.2956 97.6107 22.1387Z" fill="#4A4A49"/>
<path fill-rule="evenodd" clip-rule="evenodd" d="M99.2383 8.43359C99.3953 8.43359 99.5226 8.56083 99.5226 8.71779V17.4354C99.5226 17.5923 99.3953 17.7196 99.2383 17.7196C99.0813 17.7196 98.954 17.5923 98.954 17.4354V8.71779C98.954 8.56083 99.0813 8.43359 99.2383 8.43359Z" fill="#4A4A49"/>
<path fill-rule="evenodd" clip-rule="evenodd" d="M99.2383 21.8545C99.3953 21.8545 99.5226 21.9817 99.5226 22.1387V30.8563C99.5226 31.0132 99.3953 31.1405 99.2383 31.1405C99.0813 31.1405 98.954 31.0132 98.954 30.8563V22.1387C98.954 21.9817 99.0813 21.8545 99.2383 21.8545Z" fill="#4A4A49"/>
<path fill-rule="evenodd" clip-rule="evenodd" d="M109.359 14.7502C109.363 14.5933 109.493 14.4691 109.65 14.4727L112.088 14.5296C112.245 14.5332 112.369 14.6634 112.365 14.8203C112.362 14.9772 112.231 15.1015 112.074 15.0978L109.637 15.041C109.48 15.0373 109.355 14.9071 109.359 14.7502Z" fill="#4A4A49"/>
<path fill-rule="evenodd" clip-rule="evenodd" d="M109.693 26.9957C109.699 26.8388 109.83 26.716 109.987 26.7214L112.283 26.7995C112.44 26.8049 112.562 26.9363 112.557 27.0932C112.552 27.2501 112.42 27.3729 112.263 27.3676L109.968 27.2894C109.811 27.2841 109.688 27.1526 109.693 26.9957Z" fill="#4A4A49"/>
<path fill-rule="evenodd" clip-rule="evenodd" d="M11.9543 -0.00146484L28.9193 3.18159V43.8124L11.9543 46.2824V-0.00146484ZM12.5229 0.683523V45.6252L28.3507 43.3208V3.65322L12.5229 0.683523Z" fill="#4A4A49"/>
<path fill-rule="evenodd" clip-rule="evenodd" d="M39.8716 3.17627V25.7904H28.2086V5.29744L39.8716 3.17627ZM28.7772 5.77175V25.222H39.303V3.85739L28.7772 5.77175Z" fill="#4A4A49"/>
<path fill-rule="evenodd" clip-rule="evenodd" d="M39.8716 3.17627V10.2488L28.2086 11.3094V5.29744L39.8716 3.17627ZM28.7772 5.77175V10.687L39.303 9.72979V3.85739L28.7772 5.77175Z" fill="#4A4A49"/>
<path fill-rule="evenodd" clip-rule="evenodd" d="M80.1695 10.9531V26.4938H69.9209V12.0137L80.1695 10.9531ZM70.4895 12.5263V25.9255H79.601V11.5834L70.4895 12.5263Z" fill="#4A4A49"/>
<path fill-rule="evenodd" clip-rule="evenodd" d="M28.2086 27.2041H48.0023V42.0431L28.2086 42.7527V27.2041ZM28.7772 27.7725V42.1635L47.4337 41.4948V27.7725H28.7772Z" fill="#4A4A49"/>
<path fill-rule="evenodd" clip-rule="evenodd" d="M84.1212 39.7017V27.5596H84.6898V39.7017H84.1212Z" fill="#4A4A49"/>
<path fill-rule="evenodd" clip-rule="evenodd" d="M30.6819 31.8013H34.9249V42.4016H30.6819V31.8013ZM31.2505 32.3697V41.8332H34.3563V32.3697H31.2505Z" fill="#4A4A49"/>
<path fill-rule="evenodd" clip-rule="evenodd" d="M70.0999 39.5476C70.1143 39.3914 70.2527 39.2763 70.4091 39.2908L74.183 39.6389C74.3393 39.6533 74.4544 39.7917 74.44 39.948C74.4255 40.1043 74.2871 40.2193 74.1308 40.2049L70.3568 39.8568C70.2005 39.8423 70.0854 39.7039 70.0999 39.5476Z" fill="#4A4A49"/>
<path fill-rule="evenodd" clip-rule="evenodd" d="M12.2777 0.0722656L12.3276 0.638456L0.570673 1.67404L0.921691 45.6484H12.3026V46.2168H0.357631L-0.0020752 1.15391L12.2777 0.0722656Z" fill="#4A4A49"/>
<path fill-rule="evenodd" clip-rule="evenodd" d="M96.0614 39.2183C96.0614 39.0613 96.1887 38.9341 96.3457 38.9341H101.371C101.528 38.9341 101.655 39.0613 101.655 39.2183C101.655 39.3752 101.528 39.5025 101.371 39.5025H96.3457C96.1887 39.5025 96.0614 39.3752 96.0614 39.2183Z" fill="#4A4A49"/>
<path fill-rule="evenodd" clip-rule="evenodd" d="M13.7169 10.5986L18.053 10.935L18.031 11.2183H18.3153V34.2734H13.7169V10.5986ZM17.7467 11.4813L14.2855 11.2128V33.705H17.7467V11.4813Z" fill="#4A4A49"/>
<path fill-rule="evenodd" clip-rule="evenodd" d="M39.168 3.17725L65.3226 6.71417V13.0766L39.168 10.2514V3.17725ZM39.7365 3.8277V9.74112L64.754 12.4435V7.21084L39.7365 3.8277Z" fill="#4A4A49"/>
<path fill-rule="evenodd" clip-rule="evenodd" d="M37.0428 30.3872H45.8771V39.2214L37.0428 39.5783V30.3872ZM37.6114 30.9556V38.9865L45.3086 38.6755V30.9556H37.6114Z" fill="#4A4A49"/>
<path fill-rule="evenodd" clip-rule="evenodd" d="M75.2158 29.6768H82.9911V37.1545L75.2158 37.4534V29.6768ZM75.7844 30.2451V36.8628L82.4226 36.6076V30.2451H75.7844Z" fill="#4A4A49"/>
<path fill-rule="evenodd" clip-rule="evenodd" d="M57.6183 38.2593V30.3872H58.1869V38.8277H51.5985V38.2593H57.6183Z" fill="#4A4A49"/>
<path fill-rule="evenodd" clip-rule="evenodd" d="M92.2519 36.1989V29.6768H92.8205V36.739L87.2487 37.0227L87.2197 36.4551L92.2519 36.1989Z" fill="#4A4A49"/>
<path fill-rule="evenodd" clip-rule="evenodd" d="M70.6245 27.8438H47.2986V27.2754H70.6245V27.8438Z" fill="#4A4A49"/>
<path fill-rule="evenodd" clip-rule="evenodd" d="M96.4238 27.8438H79.7787V27.2754H96.4238V27.8438Z" fill="#4A4A49"/>
<path fill-rule="evenodd" clip-rule="evenodd" d="M70.5534 26.501V27.5596H69.9849V26.501H70.5534Z" fill="#4A4A49"/>
<path fill-rule="evenodd" clip-rule="evenodd" d="M69.9209 25.7266H39.5233V25.1582H69.9209V25.7266Z" fill="#4A4A49"/>
<path fill-rule="evenodd" clip-rule="evenodd" d="M51.5345 27.2754C51.6915 27.2754 51.8188 27.4026 51.8188 27.5596V41.3429C51.8188 41.4998 51.6915 41.6271 51.5345 41.6271C51.3775 41.6271 51.2502 41.4998 51.2502 41.3429V27.5596C51.2502 27.4026 51.3775 27.2754 51.5345 27.2754Z" fill="#4A4A49"/>
<path fill-rule="evenodd" clip-rule="evenodd" d="M87.2341 27.2754C87.3911 27.2754 87.5184 27.4026 87.5184 27.5596V39.5738C87.5184 39.7307 87.3911 39.858 87.2341 39.858C87.0771 39.858 86.9498 39.7307 86.9498 39.5738V27.5596C86.9498 27.4026 87.0771 27.2754 87.2341 27.2754Z" fill="#4A4A49"/>
<path fill-rule="evenodd" clip-rule="evenodd" d="M47.718 41.6909C47.718 41.534 47.8453 41.4067 48.0023 41.4067H51.5346C51.6916 41.4067 51.8189 41.534 51.8189 41.6909C51.8189 41.8479 51.6916 41.9751 51.5346 41.9751H48.0023C47.8453 41.9751 47.718 41.8479 47.718 41.6909Z" fill="#4A4A49"/>
<path fill-rule="evenodd" clip-rule="evenodd" d="M84.1212 39.5737C84.1212 39.4168 84.2485 39.2896 84.4055 39.2896H87.2342C87.3912 39.2896 87.5185 39.4168 87.5185 39.5737C87.5185 39.7307 87.3912 39.8579 87.2342 39.8579H84.4055C84.2485 39.8579 84.1212 39.7307 84.1212 39.5737Z" fill="#4A4A49"/>
<path fill-rule="evenodd" clip-rule="evenodd" d="M7.98143 3.7373C8.13844 3.7373 8.26572 3.86454 8.26572 4.0215V15.4034H9.75113C9.90814 15.4034 10.0354 15.5306 10.0354 15.6876C10.0354 15.8445 9.90814 15.9718 9.75113 15.9718H7.69714V4.0215C7.69714 3.86454 7.82442 3.7373 7.98143 3.7373Z" fill="#4A4A49"/>
<path fill-rule="evenodd" clip-rule="evenodd" d="M7.98143 24.5327C8.13844 24.5327 8.26572 24.66 8.26572 24.8169V36.1917H9.75113C9.90814 36.1917 10.0354 36.3189 10.0354 36.4759C10.0354 36.6328 9.90814 36.7601 9.75113 36.7601H7.69714V24.8169C7.69714 24.66 7.82442 24.5327 7.98143 24.5327Z" fill="#4A4A49"/>
<path fill-rule="evenodd" clip-rule="evenodd" d="M7.69714 4.0215C7.69714 3.86454 7.82442 3.7373 7.98143 3.7373H9.75113C9.90814 3.7373 10.0354 3.86454 10.0354 4.0215C10.0354 4.17845 9.90814 4.30569 9.75113 4.30569H7.98143C7.82442 4.30569 7.69714 4.17845 7.69714 4.0215Z" fill="#4A4A49"/>
<path fill-rule="evenodd" clip-rule="evenodd" d="M7.69714 24.8169C7.69714 24.66 7.82442 24.5327 7.98143 24.5327H9.75113C9.90814 24.5327 10.0354 24.66 10.0354 24.8169C10.0354 24.9739 9.90814 25.1011 9.75113 25.1011H7.98143C7.82442 25.1011 7.69714 24.9739 7.69714 24.8169Z" fill="#4A4A49"/>
<path fill-rule="evenodd" clip-rule="evenodd" d="M79.8142 26.2095C79.9712 26.2095 80.0985 26.3367 80.0985 26.4937V27.8436H70.2692C70.1121 27.8436 69.9849 27.7163 69.9849 27.5594C69.9849 27.4024 70.1121 27.2752 70.2692 27.2752H79.5299V26.4937C79.5299 26.3367 79.6572 26.2095 79.8142 26.2095Z" fill="#4A4A49"/>
<path fill-rule="evenodd" clip-rule="evenodd" d="M41.2504 15.1279L63.2899 16.6011V25.1582C63.2899 25.3152 63.1626 25.4424 63.0056 25.4424C62.8486 25.4424 62.7213 25.3152 62.7213 25.1582V17.1328L41.8189 15.7356V25.4922C41.8189 25.6491 41.6917 25.7763 41.5347 25.7763C41.3776 25.7763 41.2504 25.6491 41.2504 25.4922V15.1279Z" fill="#4A4A49"/>
<path fill-rule="evenodd" clip-rule="evenodd" d="M80.8376 19.8198L91.8041 20.4568V26.1601C91.8041 26.317 91.6768 26.4443 91.5198 26.4443C91.3628 26.4443 91.2355 26.317 91.2355 26.1601V20.9931L81.4062 20.4222V26.1601C81.4062 26.317 81.2789 26.4443 81.1219 26.4443C80.9649 26.4443 80.8376 26.317 80.8376 26.1601V19.8198Z" fill="#4A4A49"/>
<path fill-rule="evenodd" clip-rule="evenodd" d="M52.2666 16.1494C52.4236 16.1494 52.5509 16.2767 52.5509 16.4336V25.1512C52.5509 25.3081 52.4236 25.4354 52.2666 25.4354C52.1096 25.4354 51.9823 25.3081 51.9823 25.1512V16.4336C51.9823 16.2767 52.1096 16.1494 52.2666 16.1494Z" fill="#4A4A49"/>
<path fill-rule="evenodd" clip-rule="evenodd" d="M86.4879 20.5117C86.6449 20.5117 86.7722 20.639 86.7722 20.7959V26.16C86.7722 26.317 86.6449 26.4442 86.4879 26.4442C86.3309 26.4442 86.2036 26.317 86.2036 26.16V20.7959C86.2036 20.639 86.3309 20.5117 86.4879 20.5117Z" fill="#4A4A49"/>
<path fill-rule="evenodd" clip-rule="evenodd" d="M38.8481 30.5718C39.0051 30.5718 39.1324 30.699 39.1324 30.856V38.9057C39.1324 39.0627 39.0051 39.1899 38.8481 39.1899C38.6911 39.1899 38.5638 39.0627 38.5638 38.9057V30.856C38.5638 30.699 38.6911 30.5718 38.8481 30.5718Z" fill="#4A4A49"/>
<path fill-rule="evenodd" clip-rule="evenodd" d="M77.7673 29.9043C77.9243 29.9043 78.0516 30.0315 78.0516 30.1885V36.8954C78.0516 37.0524 77.9243 37.1796 77.7673 37.1796C77.6103 37.1796 77.483 37.0524 77.483 36.8954V30.1885C77.483 30.0315 77.6103 29.9043 77.7673 29.9043Z" fill="#4A4A49"/>
<path fill-rule="evenodd" clip-rule="evenodd" d="M43.546 15.8154C43.703 15.8154 43.8303 15.9427 43.8303 16.0996V25.4922C43.8303 25.6491 43.703 25.7764 43.546 25.7764C43.389 25.7764 43.2617 25.6491 43.2617 25.4922V16.0996C43.2617 15.9427 43.389 15.8154 43.546 15.8154Z" fill="#4A4A49"/>
<path fill-rule="evenodd" clip-rule="evenodd" d="M82.4652 20.1777C82.6222 20.1777 82.7495 20.305 82.7495 20.4619V26.1671C82.7495 26.324 82.6222 26.4513 82.4652 26.4513C82.3082 26.4513 82.1809 26.324 82.1809 26.1671V20.4619C82.1809 20.305 82.3082 20.1777 82.4652 20.1777Z" fill="#4A4A49"/>
<path fill-rule="evenodd" clip-rule="evenodd" d="M54.2779 16.1494C54.435 16.1494 54.5622 16.2767 54.5622 16.4336V25.1512C54.5622 25.3081 54.435 25.4354 54.2779 25.4354C54.1209 25.4354 53.9937 25.3081 53.9937 25.1512V16.4336C53.9937 16.2767 54.1209 16.1494 54.2779 16.1494Z" fill="#4A4A49"/>
<path fill-rule="evenodd" clip-rule="evenodd" d="M87.8312 20.5117C87.9882 20.5117 88.1155 20.639 88.1155 20.7959V26.16C88.1155 26.317 87.9882 26.4442 87.8312 26.4442C87.6742 26.4442 87.5469 26.317 87.5469 26.16V20.7959C87.5469 20.639 87.6742 20.5117 87.8312 20.5117Z" fill="#4A4A49"/>
<path fill-rule="evenodd" clip-rule="evenodd" d="M43.546 30.5718C43.703 30.5718 43.8303 30.699 43.8303 30.856V38.9057C43.8303 39.0627 43.703 39.1899 43.546 39.1899C43.389 39.1899 43.2617 39.0627 43.2617 38.9057V30.856C43.2617 30.699 43.389 30.5718 43.546 30.5718Z" fill="#4A4A49"/>
<path fill-rule="evenodd" clip-rule="evenodd" d="M81.1219 29.9043C81.2789 29.9043 81.4062 30.0315 81.4062 30.1885V36.8954C81.4062 37.0524 81.2789 37.1796 81.1219 37.1796C80.9649 37.1796 80.8376 37.0524 80.8376 36.8954V30.1885C80.8376 30.0315 80.9649 29.9043 81.1219 29.9043Z" fill="#4A4A49"/>
<path fill-rule="evenodd" clip-rule="evenodd" d="M50.2552 15.8154C50.4122 15.8154 50.5395 15.9427 50.5395 16.0996V25.1582C50.5395 25.3152 50.4122 25.4424 50.2552 25.4424C50.0982 25.4424 49.9709 25.3152 49.9709 25.1582V16.0996C49.9709 15.9427 50.0982 15.8154 50.2552 15.8154Z" fill="#4A4A49"/>
<path fill-rule="evenodd" clip-rule="evenodd" d="M85.1446 20.5117C85.3016 20.5117 85.4289 20.639 85.4289 20.7959V26.16C85.4289 26.317 85.3016 26.4442 85.1446 26.4442C84.9876 26.4442 84.8604 26.317 84.8604 26.16V20.7959C84.8604 20.639 84.9876 20.5117 85.1446 20.5117Z" fill="#4A4A49"/>
<path fill-rule="evenodd" clip-rule="evenodd" d="M60.9943 16.4829C61.1513 16.4829 61.2785 16.6101 61.2785 16.7671V25.1508C61.2785 25.3077 61.1513 25.435 60.9943 25.435C60.8372 25.435 60.71 25.3077 60.71 25.1508V16.7671C60.71 16.6101 60.8372 16.4829 60.9943 16.4829Z" fill="#4A4A49"/>
<path fill-rule="evenodd" clip-rule="evenodd" d="M90.1766 20.5117C90.3336 20.5117 90.4609 20.639 90.4609 20.7959V26.16C90.4609 26.317 90.3336 26.4442 90.1766 26.4442C90.0196 26.4442 89.8923 26.317 89.8923 26.16V20.7959C89.8923 20.639 90.0196 20.5117 90.1766 20.5117Z" fill="#4A4A49"/>
<path fill-rule="evenodd" clip-rule="evenodd" d="M56.2964 29.9043C56.4534 29.9043 56.5807 30.0315 56.5807 30.1885V38.2382C56.5807 38.3952 56.4534 38.5224 56.2964 38.5224C56.1394 38.5224 56.0121 38.3952 56.0121 38.2382V30.1885C56.0121 30.0315 56.1394 29.9043 56.2964 29.9043Z" fill="#4A4A49"/>
<path fill-rule="evenodd" clip-rule="evenodd" d="M91.1858 29.229C91.3428 29.229 91.4701 29.3562 91.4701 29.5132V36.2201C91.4701 36.3771 91.3428 36.5043 91.1858 36.5043C91.0288 36.5043 90.9015 36.3771 90.9015 36.2201V29.5132C90.9015 29.3562 91.0288 29.229 91.1858 29.229Z" fill="#4A4A49"/>
<path fill-rule="evenodd" clip-rule="evenodd" d="M51.3142 29.9043H58.258V30.4727H51.3142V29.9043Z" fill="#4A4A49"/>
<path fill-rule="evenodd" clip-rule="evenodd" d="M87.2129 29.5132C87.2129 29.3562 87.3402 29.229 87.4972 29.229H92.5291C92.6861 29.229 92.8134 29.3562 92.8134 29.5132C92.8134 29.6702 92.6861 29.7974 92.5291 29.7974H87.4972C87.3402 29.7974 87.2129 29.6702 87.2129 29.5132Z" fill="#4A4A49"/>
<path fill-rule="evenodd" clip-rule="evenodd" d="M9.92882 3.75146C10.0858 3.75146 10.2131 3.8787 10.2131 4.03566V15.6804C10.2131 15.8374 10.0858 15.9646 9.92882 15.9646C9.77181 15.9646 9.64453 15.8374 9.64453 15.6804V4.03566C9.64453 3.8787 9.77181 3.75146 9.92882 3.75146Z" fill="#4A4A49"/>
<path fill-rule="evenodd" clip-rule="evenodd" d="M9.92882 24.5469C10.0858 24.5469 10.2131 24.6741 10.2131 24.8311V36.4758C10.2131 36.6328 10.0858 36.76 9.92882 36.76C9.77181 36.76 9.64453 36.6328 9.64453 36.4758V24.8311C9.64453 24.6741 9.77181 24.5469 9.92882 24.5469Z" fill="#4A4A49"/>
<path fill-rule="evenodd" clip-rule="evenodd" d="M64.3489 12.4619C64.5059 12.4619 64.6332 12.5892 64.6332 12.7461V25.1582C64.6332 25.3151 64.5059 25.4424 64.3489 25.4424C64.1919 25.4424 64.0646 25.3151 64.0646 25.1582V12.7461C64.0646 12.5892 64.1919 12.4619 64.3489 12.4619Z" fill="#4A4A49"/>
<path fill-rule="evenodd" clip-rule="evenodd" d="M39.5162 25.208C39.6732 25.208 39.8005 25.3352 39.8005 25.4922V27.5029C39.8005 27.6598 39.6732 27.787 39.5162 27.787C39.3592 27.787 39.2319 27.6598 39.2319 27.5029V25.4922C39.2319 25.3352 39.3592 25.208 39.5162 25.208Z" fill="#4A4A49"/>
<path fill-rule="evenodd" clip-rule="evenodd" d="M14.1367 14.193C14.1458 14.0363 14.2803 13.9167 14.437 13.9258L17.9835 14.1318C18.1403 14.1409 18.26 14.2753 18.2508 14.432C18.2417 14.5887 18.1073 14.7084 17.9505 14.6992L14.404 14.4932C14.2473 14.4841 14.1276 14.3497 14.1367 14.193Z" fill="#4A4A49"/>
<path fill-rule="evenodd" clip-rule="evenodd" d="M14.1435 30.6423C14.1477 30.4854 14.2784 30.3616 14.4353 30.3658L17.6194 30.4511C17.7763 30.4553 17.9002 30.5859 17.896 30.7428C17.8917 30.8997 17.7611 31.0235 17.6042 31.0193L14.4201 30.934C14.2632 30.9298 14.1393 30.7992 14.1435 30.6423Z" fill="#4A4A49"/>
<path fill-rule="evenodd" clip-rule="evenodd" d="M65.0776 10.9916C65.1206 10.8406 65.2779 10.7531 65.4289 10.7961L70.1197 12.1318C70.2707 12.1748 70.3582 12.332 70.3152 12.483C70.2722 12.6339 70.1149 12.7214 69.9639 12.6784L65.2731 11.3427C65.1221 11.2997 65.0346 11.1425 65.0776 10.9916Z" fill="#4A4A49"/>
<path fill-rule="evenodd" clip-rule="evenodd" d="M64.0663 38.8746C64.0836 38.7186 64.2241 38.6061 64.3801 38.6233L70.4213 39.2912C70.5773 39.3084 70.6899 39.4489 70.6726 39.6049C70.6553 39.7609 70.5148 39.8734 70.3588 39.8561L64.3176 39.1883C64.1616 39.171 64.0491 39.0306 64.0663 38.8746Z" fill="#4A4A49"/>
<path fill-rule="evenodd" clip-rule="evenodd" d="M79.8317 11.3602C79.8556 11.2051 80.0007 11.0986 80.1559 11.1225L93.2403 13.1331C93.3955 13.157 93.502 13.3021 93.4781 13.4572C93.4542 13.6123 93.3091 13.7188 93.1539 13.6949L80.0695 11.6843C79.9143 11.6604 79.8079 11.5153 79.8317 11.3602ZM79.9421 26.16C79.9421 26.0031 80.0694 25.8758 80.2264 25.8758H96.5517C96.7087 25.8758 96.836 26.0031 96.836 26.16C96.836 26.317 96.7087 26.4442 96.5517 26.4442H80.2264C80.0694 26.4442 79.9421 26.317 79.9421 26.16Z" fill="#4A4A49"/>
<path fill-rule="evenodd" clip-rule="evenodd" d="M79.83 15.4011C79.8469 15.2451 79.9872 15.1323 80.1433 15.1491L92.5596 16.4919C92.7157 16.5088 92.8285 16.649 92.8117 16.8051C92.7948 16.9611 92.6545 17.0739 92.4984 17.057L80.0821 15.7142C79.926 15.6973 79.8132 15.5572 79.83 15.4011Z" fill="#4A4A49"/>
<path fill-rule="evenodd" clip-rule="evenodd" d="M92.529 16.4829C92.686 16.4829 92.8133 16.6101 92.8133 16.7671V26.1596C92.8133 26.3166 92.686 26.4438 92.529 26.4438C92.372 26.4438 92.2448 26.3166 92.2448 26.1596V16.7671C92.2448 16.6101 92.372 16.4829 92.529 16.4829Z" fill="#4A4A49"/>
<path fill-rule="evenodd" clip-rule="evenodd" d="M93.1971 13.1299C93.3541 13.1299 93.4814 13.2571 93.4814 13.4141V17.0517H92.529C92.372 17.0517 92.2448 16.9245 92.2448 16.7675C92.2448 16.6106 92.372 16.4833 92.529 16.4833H92.9128V13.4141C92.9128 13.2571 93.0401 13.1299 93.1971 13.1299Z" fill="#4A4A49"/>
<path fill-rule="evenodd" clip-rule="evenodd" d="M64.3489 31.9146C64.5059 31.9146 64.6331 32.0418 64.6331 32.1987V40.5327H58.9829C58.8259 40.5327 58.6986 40.4054 58.6986 40.2485C58.6986 40.0915 58.8259 39.9643 58.9829 39.9643H64.0646V32.1987C64.0646 32.0418 64.1919 31.9146 64.3489 31.9146Z" fill="#4A4A49"/>
<path fill-rule="evenodd" clip-rule="evenodd" d="M84.7602 39.5618C84.7706 39.7184 84.6521 39.8538 84.4954 39.8642L74.4315 40.532C74.2749 40.5424 74.1395 40.4239 74.1291 40.2673C74.1187 40.1107 74.2372 39.9753 74.3939 39.9649L84.4577 39.297C84.6144 39.2866 84.7498 39.4052 84.7602 39.5618Z" fill="#4A4A49"/>
<path fill-rule="evenodd" clip-rule="evenodd" d="M74.4127 27.5522C74.5697 27.5522 74.697 27.6795 74.697 27.8364V40.2485C74.697 40.4055 74.5697 40.5327 74.4127 40.5327C74.2557 40.5327 74.1284 40.4055 74.1284 40.2485V27.8364C74.1284 27.6795 74.2557 27.5522 74.4127 27.5522Z" fill="#4A4A49"/>
<path fill-rule="evenodd" clip-rule="evenodd" d="M92.529 5.08008C92.686 5.08008 92.8133 5.20732 92.8133 5.36427V13.0801C92.8133 13.237 92.686 13.3643 92.529 13.3643C92.372 13.3643 92.2448 13.237 92.2448 13.0801V5.36427C92.2448 5.20732 92.372 5.08008 92.529 5.08008Z" fill="#4A4A49"/>
<path fill-rule="evenodd" clip-rule="evenodd" d="M113.23 41.7399C113.25 41.8956 113.14 42.0381 112.985 42.0583L3.55456 56.211C3.39885 56.2311 3.25629 56.1213 3.23615 55.9656C3.216 55.81 3.3259 55.6675 3.48161 55.6473L112.912 41.4946C113.067 41.4744 113.21 41.5843 113.23 41.7399Z" fill="#4A4A49"/>
<path fill-rule="evenodd" clip-rule="evenodd" d="M109.157 52.2731C109.179 52.4285 109.071 52.5722 108.915 52.594L56.1725 59.9901C56.017 60.0119 55.8732 59.9036 55.8514 59.7481C55.8296 59.5927 55.938 59.449 56.0935 59.4272L108.836 52.0311C108.992 52.0093 109.135 52.1176 109.157 52.2731Z" fill="#4A4A49"/>
<path fill-rule="evenodd" clip-rule="evenodd" d="M111.638 46.6118C111.659 46.7673 111.55 46.9105 111.394 46.9316L17.8204 59.6065C17.6648 59.6276 17.5216 59.5186 17.5005 59.3631C17.4795 59.2075 17.5885 59.0644 17.7441 59.0433L111.318 46.3683C111.473 46.3473 111.617 46.4563 111.638 46.6118Z" fill="#4A4A49"/>
<path fill-rule="evenodd" clip-rule="evenodd" d="M21.8619 41.8758C21.6202 41.9398 21.3572 41.9682 21.0943 41.9682C19.3601 41.9682 17.96 40.5614 17.96 38.835C17.96 38.4371 18.0311 38.0534 18.1661 37.7053C17.7468 37.0801 17.5051 36.327 17.5051 35.5241C17.5051 33.7479 18.6849 32.2559 20.2983 31.7657C20.2556 31.5668 20.2414 31.3607 20.2414 31.1476C20.2414 29.3856 21.67 27.9575 23.4255 27.9575C24.0082 27.9575 24.5484 28.1138 25.0175 28.3838C25.4866 28.1138 26.0267 27.9575 26.6095 27.9575C28.3721 27.9575 29.7935 29.3856 29.7935 31.1476C29.7935 31.3891 29.7651 31.6236 29.7154 31.8438C30.5967 32.5614 31.1581 33.6556 31.1581 34.8847C31.1581 35.176 31.1297 35.4602 31.0657 35.7302C31.6201 36.2986 31.9683 37.073 31.9683 37.9327C31.9683 39.6662 30.5611 41.0659 28.8341 41.0659C28.7914 41.0659 28.7559 41.0659 28.7132 41.0659C28.1375 42.5152 26.7232 43.5454 25.0672 43.5454C23.7453 43.5454 22.5726 42.8918 21.8619 41.8829V41.8758Z" fill="white"/>
<path fill-rule="evenodd" clip-rule="evenodd" d="M25.2229 34.7495C25.3799 34.7491 25.5075 34.876 25.5079 35.033L25.5434 49.2568C25.5438 49.4137 25.4169 49.5413 25.2599 49.5417C25.1029 49.5421 24.9753 49.4152 24.9749 49.2582L24.9393 35.0344C24.9389 34.8775 25.0659 34.7499 25.2229 34.7495Z" fill="#4A4A49"/>
<path fill-rule="evenodd" clip-rule="evenodd" d="M22.756 37.1485C22.8437 37.0183 23.0204 36.9838 23.1506 37.0714C23.7168 37.4525 24.2867 37.9662 24.7243 38.5255C25.1571 39.0788 25.4857 39.7091 25.5146 40.3204C25.522 40.4772 25.4009 40.6103 25.244 40.6177C25.0872 40.6251 24.9541 40.504 24.9466 40.3472C24.9258 39.907 24.6787 39.3899 24.2764 38.8757C23.8789 38.3675 23.3543 37.8937 22.8331 37.5429C22.7028 37.4553 22.6683 37.2787 22.756 37.1485Z" fill="#4A4A49"/>
<path fill-rule="evenodd" clip-rule="evenodd" d="M28.3063 49.0133C28.3235 49.1693 28.211 49.3097 28.0549 49.3269L22.2554 49.9664C22.0994 49.9836 21.9589 49.8711 21.9417 49.7151C21.9245 49.5591 22.037 49.4186 22.1931 49.4014L27.9926 48.762C28.1487 48.7448 28.2891 48.8573 28.3063 49.0133Z" fill="#4A4A49"/>
<path fill-rule="evenodd" clip-rule="evenodd" d="M106.544 40.4474C106.556 40.6039 106.438 40.7404 106.282 40.7522L102.415 41.0435C102.259 41.0553 102.122 40.9379 102.11 40.7814C102.099 40.6249 102.216 40.4885 102.373 40.4767L106.239 40.1854C106.395 40.1736 106.532 40.2909 106.544 40.4474Z" fill="#4A4A49"/>
<path fill-rule="evenodd" clip-rule="evenodd" d="M26.9728 36.674C27.0715 36.796 27.0525 36.975 26.9303 37.0736C26.0857 37.7558 25.634 38.4892 25.3133 39.2191C25.2502 39.3628 25.0825 39.4281 24.9387 39.365C24.795 39.3019 24.7296 39.1342 24.7928 38.9905C25.1401 38.1999 25.6408 37.3845 26.573 36.6315C26.6951 36.5329 26.8741 36.5519 26.9728 36.674Z" fill="#4A4A49"/>
<path fill-rule="evenodd" clip-rule="evenodd" d="M101.328 35.403C101.136 35.4527 100.937 35.4741 100.731 35.4741C99.3804 35.4741 98.2859 34.3799 98.2859 33.03C98.2859 32.7174 98.3428 32.4261 98.4494 32.149C98.1224 31.6588 97.9305 31.0762 97.9305 30.4439C97.9305 29.0584 98.8474 27.8932 100.105 27.5167C100.077 27.3604 100.056 27.197 100.056 27.0336C100.056 25.6623 101.171 24.5469 102.543 24.5469C102.998 24.5469 103.417 24.6677 103.787 24.8808C104.149 24.6677 104.576 24.5469 105.031 24.5469C106.402 24.5469 107.518 25.6623 107.518 27.0336C107.518 27.2183 107.497 27.403 107.461 27.5806C108.144 28.1419 108.584 28.9945 108.584 29.9465C108.584 30.1739 108.556 30.3941 108.513 30.6073C108.947 31.0478 109.217 31.6517 109.217 32.3195C109.217 33.6694 108.122 34.7636 106.772 34.7636C106.744 34.7636 106.708 34.7636 106.68 34.7636C106.232 35.9003 105.13 36.6961 103.837 36.6961C102.806 36.6961 101.889 36.1845 101.335 35.403H101.328Z" fill="white"/>
<path fill-rule="evenodd" clip-rule="evenodd" d="M106.078 25.0105C105.392 24.7389 104.524 24.9125 103.913 25.1902L103.781 25.2502L103.644 25.2007C102.903 24.9313 102.352 24.8946 101.947 24.9792C101.549 25.0623 101.264 25.2678 101.055 25.5434C100.619 26.117 100.51 27.0065 100.566 27.6792L100.595 28.0306L100.244 28.0625C99.5174 28.1285 99.0513 28.343 98.7542 28.6131C98.4586 28.882 98.2974 29.236 98.2357 29.6445C98.1092 30.4824 98.4127 31.4877 98.753 32.1681L98.8075 32.2771L98.7836 32.3966C98.6515 33.057 98.7015 33.5484 98.8432 33.9137C98.9839 34.2769 99.2257 34.543 99.5258 34.7376C100.142 35.1368 100.993 35.2256 101.601 35.1703L101.767 35.1552L101.885 35.2729C102.415 35.8035 102.926 36.0792 103.394 36.1937C103.861 36.3081 104.31 36.2672 104.729 36.1283C105.578 35.8463 106.286 35.1627 106.673 34.6099L106.758 34.4877L106.905 34.4632C107.718 34.3278 108.22 34.0838 108.519 33.8114C108.811 33.5465 108.935 33.2331 108.954 32.8932C108.994 32.1774 108.562 31.3405 108.108 30.7726L107.936 30.5577L108.101 30.3376C108.435 29.893 108.418 29.4399 108.243 29.0166C108.062 28.5774 107.716 28.1966 107.453 27.9861L107.319 27.8795V27.7087C107.319 26.824 107.163 26.211 106.935 25.7926C106.711 25.3808 106.409 25.1416 106.078 25.0105ZM108.028 27.5431C108.01 26.6607 107.843 25.9741 107.559 25.4529C107.254 24.893 106.823 24.5415 106.34 24.35C105.455 23.9995 104.445 24.2 103.752 24.4856C102.989 24.2268 102.343 24.1707 101.802 24.2837C101.221 24.4049 100.792 24.7145 100.489 25.1139C99.9837 25.779 99.8352 26.6816 99.8422 27.3971C99.172 27.5052 98.655 27.7429 98.276 28.0876C97.8343 28.4892 97.6134 29.0056 97.533 29.5385C97.3827 30.5335 97.7126 31.6343 98.0642 32.3767C97.9397 33.0844 97.9899 33.6788 98.1804 34.1704C98.3825 34.6916 98.7315 35.0694 99.1391 35.3337C99.8774 35.8123 100.814 35.9248 101.5 35.8896C102.069 36.4261 102.649 36.7431 103.225 36.8838C103.84 37.0343 104.426 36.9775 104.953 36.8026C105.927 36.4788 106.709 35.7484 107.167 35.1383C107.986 34.9838 108.587 34.7106 108.997 34.3371C109.44 33.9345 109.636 33.4397 109.664 32.9329C109.713 32.0583 109.268 31.1574 108.82 30.536C109.177 29.9137 109.119 29.2756 108.9 28.7455C108.692 28.2408 108.334 27.8177 108.028 27.5431Z" fill="#4A4A49"/>
<path fill-rule="evenodd" clip-rule="evenodd" d="M103.871 28.7817C104.028 28.7813 104.156 28.9083 104.156 29.0652L104.185 40.5253C104.185 40.6822 104.058 40.8098 103.901 40.8102C103.744 40.8105 103.617 40.6836 103.616 40.5267L103.588 29.0666C103.588 28.9097 103.714 28.7821 103.871 28.7817Z" fill="#4A4A49"/>
<path fill-rule="evenodd" clip-rule="evenodd" d="M101.069 31.785C101.113 31.6343 101.271 31.548 101.422 31.5921C101.946 31.7456 102.505 32.0014 102.976 32.3263C103.442 32.6472 103.853 33.0579 104.032 33.5341C104.087 33.6811 104.012 33.8449 103.865 33.9C103.718 33.9551 103.554 33.8807 103.499 33.7337C103.38 33.4142 103.077 33.086 102.654 32.7941C102.236 32.5063 101.733 32.2754 101.262 32.1376C101.111 32.0935 101.025 31.9356 101.069 31.785Z" fill="#4A4A49"/>
<path fill-rule="evenodd" clip-rule="evenodd" d="M106.464 30.2733C106.504 30.4252 106.413 30.5803 106.261 30.6198C105.441 30.8331 104.875 31.2111 104.402 31.6304C104.284 31.7344 104.105 31.7236 104.001 31.6061C103.896 31.4886 103.907 31.309 104.025 31.2049C104.546 30.7431 105.189 30.3112 106.118 30.0698C106.27 30.0303 106.425 30.1214 106.464 30.2733Z" fill="#4A4A49"/>
<path fill-rule="evenodd" clip-rule="evenodd" d="M27.8694 28.4885C26.9524 28.1742 25.8072 28.4061 25.0153 28.7455L24.9267 28.7834L24.8312 28.7714C22.6082 28.4937 21.5097 28.9713 20.9917 29.5523C20.4679 30.1398 20.44 30.942 20.5984 31.5226L20.6829 31.8324L20.3831 31.9477C18.6434 32.6165 17.9979 33.6718 17.844 34.6888C17.685 35.7396 18.0428 36.812 18.4303 37.4762L18.4938 37.5849L18.4746 37.7092C18.2077 39.4433 18.7621 40.4676 19.5108 41.0736C20.2853 41.7005 21.317 41.9181 22.0324 41.9181L22.1592 41.9182L22.2574 41.9984C23.7287 43.2018 25.0511 43.2636 26.1092 42.8969C27.1951 42.5205 28.0448 41.6761 28.4886 41.0106L28.5845 40.8667L28.757 40.8535C29.6266 40.7866 30.2127 40.5405 30.605 40.215C30.996 39.8905 31.2236 39.463 31.334 38.9794C31.5592 37.993 31.2857 36.8134 30.9451 36.019L30.8954 35.9029L30.9301 35.7815C31.186 34.8861 31.0287 34.0561 30.7172 33.3705C30.4034 32.6797 29.9403 32.1533 29.6228 31.8888L29.495 31.7823V31.6159C29.495 30.5939 29.2959 29.8861 29.0024 29.4024C28.7122 28.9243 28.3157 28.6414 27.8694 28.4885ZM30.2041 31.4538C30.184 30.4236 29.9714 29.6293 29.61 29.0338C29.2264 28.4018 28.6901 28.0186 28.0999 27.8164C26.9831 27.4337 25.6923 27.7016 24.8249 28.055C22.5559 27.7887 21.1946 28.2569 20.4611 29.0796C19.8228 29.7956 19.7311 30.7012 19.8456 31.3999C18.0908 32.1609 17.3271 33.3544 17.1413 34.5825C16.9598 35.7815 17.3363 36.961 17.7543 37.7243C17.4972 39.6155 18.1209 40.8627 19.0636 41.6258C19.9535 42.3461 21.0868 42.6027 21.9049 42.6267C23.5252 43.907 25.0684 44.0096 26.3421 43.5682C27.5351 43.1546 28.4564 42.2773 28.9817 41.5464C29.8759 41.4527 30.5586 41.1769 31.059 40.7616C31.5919 40.3194 31.8886 39.7433 32.0269 39.1375C32.2873 37.997 31.9961 36.7189 31.6464 35.8544C31.9111 34.8078 31.7145 33.8473 31.3643 33.0767C31.0404 32.3636 30.5794 31.7991 30.2041 31.4538Z" fill="#4A4A49"/>
</g>
<defs>
<clipPath id="clip0_114_1829">
<rect width="114" height="60" fill="white"/>
</clipPath>
</defs>
</svg>
