<svg width="40" height="41" viewBox="0 0 40 41" fill="none" xmlns="http://www.w3.org/2000/svg">
<g clip-path="url(#clip0_477_106)">
<path d="M20 1.00635C12.0738 1.00635 5.625 7.49566 5.625 15.4718C5.625 25.7145 19.0338 36.8718 19.6044 37.3422C19.7194 37.4372 19.86 37.4843 20 37.4843C20.1456 37.4843 20.2912 37.4334 20.4087 37.3315C20.9787 36.8359 34.375 25.0831 34.375 15.4718C34.375 7.49566 27.9263 1.00635 20 1.00635ZM19.99 36.0221C17.7344 34.0604 6.875 24.1604 6.875 15.4718C6.875 8.18874 12.7625 2.26421 20 2.26421C27.2375 2.26421 33.125 8.18874 33.125 15.4718C33.125 23.6208 22.2288 33.9793 19.99 36.0221Z" fill="#252525"/>
<path d="M39.8175 34.5243L36.6925 31.3797C36.5131 31.1992 36.245 31.1445 36.0112 31.2432C35.7781 31.3407 35.6256 31.5702 35.6256 31.8243V33.0822H26.7531C26.5781 33.0822 26.4112 33.1558 26.2925 33.2853C25.5143 34.1388 24.71 34.9778 23.9012 35.7784C23.7206 35.9577 23.6656 36.2294 23.7612 36.4652C23.8575 36.7017 24.0862 36.8558 24.34 36.8558H35.6256V38.1136C35.6256 38.3677 35.7781 38.5973 36.0112 38.6948C36.0887 38.7275 36.17 38.7426 36.2506 38.7426C36.4131 38.7426 36.5731 38.6784 36.6925 38.5583L39.8175 35.4136C40.0618 35.1677 40.0618 34.7702 39.8175 34.5243ZM36.8756 36.5954V36.2268C36.8756 35.879 36.5956 35.5979 36.2506 35.5979H25.8412C26.2406 35.1847 26.6368 34.7646 27.0268 34.3401H36.2506C36.5956 34.3401 36.8756 34.0589 36.8756 33.7111V33.3426L38.4918 34.969L36.8756 36.5954Z" fill="#252525"/>
<path d="M13.5745 33.2817C13.4564 33.154 13.2907 33.0817 13.117 33.0817H4.37515V31.8238C4.37515 31.5698 4.22265 31.3396 3.98953 31.2427C3.75515 31.144 3.48704 31.1987 3.30829 31.3792L0.183281 34.5238C-0.0610938 34.7698 -0.0610938 35.1672 0.183281 35.4131L3.30829 38.5578C3.42766 38.6779 3.58765 38.7421 3.75015 38.7421C3.83079 38.7421 3.91203 38.727 3.98953 38.6943C4.22265 38.5974 4.37515 38.3672 4.37515 38.1131V36.8553H15.5758C15.8307 36.8553 16.0601 36.6993 16.1558 36.4616C16.2507 36.2232 16.1933 35.9515 16.0095 35.7729C15.1789 34.9698 14.3601 34.1314 13.5745 33.2817ZM3.75015 35.5974C3.40515 35.5974 3.12515 35.8786 3.12515 36.2264V36.5949L1.50891 34.9685L3.12515 33.3421V33.7106C3.12515 34.0584 3.40515 34.3396 3.75015 34.3396H12.8457C13.2408 34.7628 13.6433 35.1836 14.0514 35.5974H3.75015Z" fill="#252525"/>
<path d="M25.6594 11.8038C25.2338 11.5182 24.6337 10.812 24.375 10.2912L24.2431 10.0264C23.8319 9.20064 22.7919 8.55347 21.875 8.55347H18.125C17.2075 8.55347 16.1675 9.20064 15.7569 10.0264L15.625 10.2918C15.3669 10.812 14.7669 11.5182 14.3412 11.8038C13.6475 12.2686 13.125 13.3044 13.125 14.2138V19.2453C13.125 19.5925 13.405 19.8742 13.75 19.8742H16.875C17.22 19.8742 17.5 19.5925 17.5 19.2453V17.9874H22.5V19.2453C22.5 19.5925 22.78 19.8742 23.125 19.8742H26.25C26.595 19.8742 26.875 19.5925 26.875 19.2453V14.2138C26.875 13.3044 26.3525 12.2686 25.6594 11.8038ZM16.875 10.5887C17.0769 10.1818 17.6725 9.81133 18.125 9.81133H21.875C22.3269 9.81133 22.9225 10.1818 23.1256 10.5893L23.2575 10.8541C23.3913 11.1239 23.5819 11.4164 23.7994 11.6981H16.2013C16.4188 11.4164 16.6087 11.1239 16.7431 10.8541L16.875 10.5887ZM14.375 14.2138C14.375 13.783 14.6256 13.2214 14.9244 12.9409C14.9506 12.944 14.9731 12.956 15 12.956H25C25.0269 12.956 25.0494 12.944 25.0756 12.9409C25.3744 13.2214 25.625 13.783 25.625 14.2138V16.1006C25.625 16.4472 25.3444 16.7296 25 16.7296H15C14.6556 16.7296 14.375 16.4472 14.375 16.1006V14.2138ZM16.25 18.6164H14.375V17.8711C14.5719 17.9421 14.78 17.9874 15 17.9874H16.25V18.6164ZM23.75 18.6164V17.9874H25C25.22 17.9874 25.4281 17.9421 25.625 17.8717V18.6164H23.75Z" fill="#252525"/>
<path d="M15.3456 15.4054L16.5956 16.0343C16.685 16.079 16.7806 16.1003 16.8744 16.1003C17.1038 16.1003 17.3244 15.9733 17.4344 15.7525C17.4788 15.662 17.5006 15.5664 17.5 15.4714C17.5 15.2412 17.3731 15.0192 17.1544 14.9085L15.9044 14.2796C15.595 14.1242 15.22 14.2507 15.0656 14.5607C15.0212 14.6519 15 14.7475 15 14.8425C15 15.0727 15.1269 15.2947 15.3456 15.4054Z" fill="#252525"/>
<path d="M23.1256 16.1006C23.2194 16.1006 23.315 16.0792 23.4044 16.0345L24.6544 15.4056C24.8731 15.2949 25 15.0729 25 14.8427C25 14.7477 24.9788 14.6521 24.9338 14.5616C24.7794 14.2509 24.4044 14.1251 24.095 14.2804L22.845 14.9094C22.6269 15.0194 22.5 15.2414 22.5 15.4716C22.4994 15.5666 22.5213 15.6622 22.5656 15.7528C22.6756 15.9735 22.8963 16.1006 23.1256 16.1006Z" fill="#252525"/>
<path d="M19.375 16.1006H20.625C20.97 16.1006 21.25 15.8189 21.25 15.4717C21.25 15.1245 20.97 14.8428 20.625 14.8428H19.375C19.03 14.8428 18.75 15.1245 18.75 15.4717C18.75 15.8189 19.03 16.1006 19.375 16.1006Z" fill="#252525"/>
</g>
<defs>
<clipPath id="clip0_477_106">
<rect width="40" height="40.2516" fill="white"/>
</clipPath>
</defs>
</svg>
