<svg width="151" height="56" viewBox="0 0 151 56" fill="none" xmlns="http://www.w3.org/2000/svg">
<path d="M75.579 0C34.139 0 0.90918 12.4195 0.90918 27.9984C0.90918 43.4808 34.407 56 75.579 56C116.751 56 150.249 43.4372 150.249 27.9984C150.249 12.5597 116.754 0 75.579 0Z" fill="#00467F"/>
<path d="M119.449 19.966C119.546 19.7946 119.449 19.6544 119.228 19.6544H115.461C115.181 19.6544 115.037 19.6887 114.903 19.9473C114.47 20.7761 109.198 28.6715 108.217 30.2294C108.052 30.4631 107.849 30.4288 107.827 30.164C107.728 29.2542 106.939 28.2041 105.699 27.7056C104.801 27.3513 103.824 27.2438 102.87 27.394C101.135 27.6277 99.5894 28.5438 98.2309 29.5751C96.1838 31.133 94.4172 33.1489 92.1364 34.6382C90.8901 35.4514 89.1858 36.1587 88.0454 35.1025C87.0141 34.1459 87.1325 32.0179 88.709 30.3758C88.8773 30.2045 89.0767 30.3478 89.0455 30.5005C88.9609 30.8571 88.9716 31.2297 89.0766 31.5808C89.1816 31.9319 89.3772 32.2492 89.6438 32.5008C89.9877 32.7943 90.412 32.9777 90.8615 33.0272C91.3109 33.0766 91.7649 32.9899 92.1644 32.7781C92.6396 32.53 93.0472 32.17 93.3523 31.7292C93.6573 31.2885 93.8506 30.7802 93.9155 30.2481C93.9712 29.8569 93.9459 29.4585 93.841 29.0775C93.7361 28.6966 93.5539 28.3414 93.3057 28.0339C93.0576 27.7264 92.7488 27.4733 92.3986 27.2903C92.0484 27.1073 91.6643 26.9984 91.2702 26.9703C89.9553 26.8799 88.6997 27.3348 87.4721 28.3475C86.8921 28.8158 86.3876 29.3707 85.9765 29.9926C85.8456 30.1764 85.6493 30.1951 85.6649 29.9209C85.7241 27.771 84.8361 26.5652 83.0601 26.5247C81.6829 26.4904 80.2092 27.2414 79.0594 28.1543C77.8131 29.1638 76.7008 30.5036 75.5199 31.7624C75.3735 31.9182 75.2457 31.9119 75.2083 31.6097C75.2112 30.2761 74.8469 28.9674 74.1552 27.8271C74.0338 27.6489 73.8508 27.522 73.6414 27.4708C73.4319 27.4196 73.211 27.4477 73.0211 27.5498C72.5509 27.7722 72.1033 28.0393 71.6844 28.3475C71.5624 28.447 71.4748 28.5824 71.434 28.7345C71.3932 28.8866 71.4012 29.0477 71.4569 29.195C72.0826 31.3725 71.9463 33.6984 71.0706 35.788C70.2792 37.6574 68.74 39.3462 66.9297 39.9164C65.7364 40.2934 64.4963 40.1095 63.7329 39.0533C62.6798 37.5951 63.1098 35.0589 64.6676 32.9526C66.0511 31.0831 68.0576 29.9178 70.0548 29.1607C70.1015 29.1512 70.1454 29.1312 70.1832 29.1022C70.2209 29.0731 70.2515 29.0358 70.2726 28.993C70.2936 28.9503 70.3046 28.9033 70.3047 28.8557C70.3047 28.808 70.2939 28.761 70.2729 28.7182C70.1639 28.3911 69.9925 27.9424 69.9209 27.7368C69.737 27.2507 69.2229 27.1697 68.5966 27.2382C67.172 27.4296 65.7971 27.8917 64.5461 28.5998C61.1561 30.3976 59.458 33.9185 58.7134 35.788C58.4615 36.4937 58.1032 37.1567 57.6509 37.754C57.1181 38.427 56.4451 39.0377 55.2175 40.1127C55.1504 40.1746 55.1047 40.2562 55.0868 40.3458C55.0689 40.4353 55.0797 40.5282 55.1178 40.6112C55.2424 40.8698 55.8811 41.7703 56.0525 41.8575C56.1415 41.8859 56.2364 41.8911 56.328 41.8726C56.4196 41.854 56.505 41.8124 56.5759 41.7516C57.4585 41.1463 58.2605 40.4312 58.9626 39.6235C59.1402 39.4085 59.321 39.4989 59.4144 39.826C59.6423 40.6576 60.0704 41.4207 60.6614 42.0486C61.2523 42.6765 61.9881 43.1501 62.8044 43.4279C65.9202 44.4748 69.1357 42.9605 71.5691 40.3121C73.127 38.6327 73.6723 37.5546 74.2643 36.8193C75.2675 35.573 77.2492 32.7906 79.6109 31.0021C80.474 30.3447 81.4991 29.8399 82.0163 30.1733C82.4307 30.4413 82.5616 31.0644 81.8979 32.2702C79.4926 36.6635 75.953 41.8263 75.3049 43.0758C75.1865 43.2939 75.3049 43.4653 75.5168 43.4653C76.7631 43.4653 78.0094 43.4653 79.1685 43.4653C79.2451 43.4628 79.3197 43.4402 79.3848 43.3997C79.4499 43.3592 79.5032 43.3023 79.5393 43.2347C81.3838 40.3432 83.1224 37.592 84.9857 34.7504C85.0885 34.5821 85.1851 34.713 85.1882 34.7847C85.21 35.5404 85.413 36.2799 85.7802 36.9408C86.0691 37.4255 86.4801 37.8259 86.9722 38.102C87.4643 38.3781 88.0202 38.5202 88.5844 38.5143C89.4662 38.5143 89.9117 38.3896 90.862 38.0344C91.5272 37.7849 92.1559 37.4475 92.7315 37.0311C93.0088 36.838 93.0431 37.162 93.0431 37.2119C92.6162 39.5051 93.1428 42.2252 95.4236 43.35C98.1499 44.696 101.15 42.8047 102.873 41.0972C103.042 40.9321 103.225 40.9508 103.241 41.306C103.293 42.0432 103.602 42.7389 104.113 43.2721C105.559 44.7209 108.476 44.1476 111.404 41.8793C113.475 40.1993 115.356 38.2977 117.013 36.2086C117.06 36.1613 117.086 36.0975 117.086 36.031C117.086 35.9645 117.06 35.9007 117.013 35.8534C116.742 35.573 116.349 35.2458 116.078 34.9966C116.02 34.9516 115.949 34.9272 115.876 34.9272C115.802 34.9272 115.731 34.9516 115.673 34.9966C113.85 36.7289 112.211 38.7043 109.843 40.337C109.046 40.8947 107.771 41.3434 107.198 40.5707C106.974 40.2591 107.002 39.854 107.22 39.3244C107.912 37.6013 118.848 20.9412 119.415 19.9691M104.992 33.9185C105.014 34.0462 105.179 34.1677 105.344 34.2301C105.4 34.2519 105.435 34.2924 105.369 34.4264C104.951 35.2803 104.457 36.0957 103.895 36.8629C103.378 37.6284 102.748 38.3113 102.026 38.8882C100.923 39.8011 99.3931 40.795 98.1249 40.1345C97.5641 39.8416 97.318 39.0533 97.3304 38.4177C97.3585 36.6261 98.1561 34.7878 99.6267 32.9775C101.421 30.7684 103.406 29.6218 104.705 30.2481C106.005 30.8744 105.625 32.4509 105.017 33.6754C104.996 33.7138 104.984 33.7558 104.979 33.7991C104.975 33.8425 104.979 33.8862 104.992 33.9278" fill="white"/>
<path d="M40.1214 43.4091C36.0428 43.4372 32.4503 40.9165 32.039 36.5544C31.8002 34.2824 32.4538 32.0066 33.8617 30.2075C35.0738 28.6247 37.1271 27.313 38.8657 26.992C39.4297 26.8892 40.1899 26.9546 40.5046 27.3285C40.9969 27.9018 40.8567 28.5312 40.3644 28.7836C39.0402 29.4597 37.4418 30.6188 36.6504 32.211C36.287 32.8839 36.1144 33.6432 36.1512 34.4071C36.188 35.1709 36.4328 35.9102 36.8591 36.545C38.4949 39.0158 43.0595 39.0844 47.3064 35.1429C48.345 34.2028 49.3291 33.2041 50.2539 32.1518C52.1234 30.0144 52.7465 29.2354 55.2391 25.7862C55.2523 25.7698 55.2614 25.7506 55.2657 25.73C55.2701 25.7094 55.2695 25.6881 55.2641 25.6678C55.2423 25.6242 55.208 25.6117 55.1363 25.6086C53.5004 25.6377 51.9178 26.1952 50.6247 27.1977C50.5345 27.2717 50.4304 27.327 50.3186 27.3604C50.2068 27.3937 50.0894 27.4045 49.9734 27.392C49.8574 27.3796 49.745 27.3441 49.6429 27.2877C49.5407 27.2314 49.4508 27.1552 49.3784 27.0637C49.0948 26.6244 49.2973 26.0542 49.7647 25.7301C52.0268 24.1722 54.4945 23.8607 57.0183 23.4463C57.0808 23.4414 57.1413 23.4223 57.1953 23.3904C57.2493 23.3586 57.2953 23.3148 57.3298 23.2624C58.3643 21.932 59.1463 20.7324 60.2493 19.3895C61.36 18.1009 62.5796 16.9104 63.8948 15.8313C64.962 14.9152 66.1433 14.1412 67.4094 13.5287C67.6711 13.3916 67.3751 13.2171 67.2941 13.2171C61.7169 12.1702 55.9215 10.8149 50.3848 12.8651C46.5523 14.2952 44.8698 17.3362 45.6768 19.3677C46.2532 20.8103 48.1476 21.044 49.9205 20.1747C51.4769 19.4094 52.7969 18.2368 53.7405 16.7816C54.2826 15.9497 55.423 16.551 54.806 17.9937C53.1858 21.8011 50.0919 24.8234 46.3186 24.9512C43.1094 25.054 41.0374 22.6954 41.0467 19.7821C41.0467 14.0366 47.4559 10.254 54.1767 9.68697C62.2777 9.01707 69.9363 11.1732 77.975 12.1484C84.1318 12.8931 90.0362 12.9118 96.2242 11.4879C96.3764 11.4411 96.5381 11.4341 96.6938 11.4673C96.8496 11.5006 96.9942 11.5731 97.1141 11.678C97.2339 11.7829 97.325 11.9166 97.3787 12.0666C97.4323 12.2165 97.4468 12.3777 97.4206 12.5348C97.3614 13.6035 96.5326 14.6317 94.4949 15.7441C92.1768 17.0153 89.7527 17.4016 87.2196 17.4235C81.0939 17.4733 75.3796 15.0866 69.4845 13.8029C69.4845 14.0615 69.5593 14.37 69.3443 14.532C66.0727 16.9436 63.1127 19.3926 61.1404 22.8325C61.0719 22.9135 61.1093 22.9883 61.2246 22.9789C62.9414 22.8885 64.4868 22.8449 66.0945 22.7172C66.375 22.6922 66.3843 22.6237 66.3594 22.4056C66.2729 21.7699 66.341 21.1228 66.558 20.5191C66.775 19.9154 67.1344 19.3729 67.6057 18.9377C68.6713 17.9812 70.0111 17.8721 70.896 18.5607C71.9024 19.3459 71.8151 20.7573 71.2636 21.8167C71.0167 22.281 70.6791 22.691 70.2707 23.0223C69.8623 23.3536 69.3915 23.5995 68.8863 23.7454C68.8863 23.7454 68.6993 23.7859 68.7274 23.9541C68.7648 24.2252 69.9737 24.8889 70.0765 25.0758C70.1192 25.1812 70.1292 25.2969 70.1054 25.408C70.0815 25.5191 70.0247 25.6205 69.9425 25.699C69.8709 25.786 69.781 25.8562 69.6793 25.9047C69.5775 25.9531 69.4664 25.9786 69.3536 25.9794C69.1385 25.9607 68.9321 25.8855 68.7554 25.7613C68.116 25.4222 67.547 24.9643 67.0791 24.4122C66.9233 24.219 66.8454 24.2159 66.456 24.2346C64.7174 24.3343 62.0097 24.5991 60.1777 24.8266C59.7321 24.8795 59.6667 24.9637 59.5763 25.1194C56.6506 29.9427 53.5286 35.1429 50.0981 38.6264C46.4215 42.3653 43.3618 43.3437 40.1276 43.3686M68.0014 21.9351C68.0481 22.1813 68.1447 22.2311 68.2569 22.2093C68.882 22.0393 69.4244 21.6486 69.7836 21.1094C70.1139 20.6265 70.2666 19.9317 69.9394 19.6544C69.7685 19.5395 69.5621 19.4895 69.3575 19.5135C69.1529 19.5375 68.9637 19.6339 68.824 19.7852C68.5242 20.0511 68.2928 20.3853 68.1497 20.7595C68.0065 21.1338 67.9556 21.537 68.0014 21.9351Z" fill="white"/>
<path d="M75.579 53.548C36.0615 53.548 4.02503 42.1068 4.02503 27.9985C4.02503 13.8903 36.0584 2.4491 75.579 2.4491C115.1 2.4491 147.127 13.8903 147.127 27.9985C147.127 42.1068 115.093 53.548 75.579 53.548ZM75.579 4.5616C37.4481 4.5616 6.54258 15.0992 6.54258 27.9892C6.54258 40.8792 37.4481 51.4199 75.579 51.4199C113.71 51.4199 144.612 40.901 144.612 27.9985C144.612 15.0961 113.707 4.57717 75.579 4.57717" fill="white"/>
</svg>
