<svg width="40" height="41" viewBox="0 0 40 41" fill="none" xmlns="http://www.w3.org/2000/svg">
<path d="M39.394 14.4703C39.394 14.303 39.3278 14.1433 39.2115 14.0251L28.4928 3.23767C28.2578 3.00119 27.8428 3.00119 27.609 3.23767L20.2178 10.6767L12.784 3.19616C12.5491 2.95968 12.1341 2.95968 11.9003 3.19616L1.18281 13.9836C0.939063 14.2288 0.939063 14.6276 1.18281 14.8729L4.56406 18.2741C4.56531 18.2754 4.56531 18.2754 4.56531 18.2766C4.56531 18.2779 4.56656 18.2779 4.56781 18.2779L8.59531 22.3307L6.91406 24.0225C6.43781 24.5018 6.17656 25.1383 6.17656 25.8163C6.17656 26.4942 6.43781 27.1295 6.91406 27.6087C7.40531 28.1031 8.04906 28.3496 8.69531 28.3496C8.75531 28.3496 8.81281 28.337 8.87281 28.332C8.86906 28.3924 8.85531 28.4502 8.85531 28.5119C8.85531 29.1898 9.11656 29.8251 9.59281 30.3043C10.0828 30.7999 10.7278 31.0464 11.3728 31.0464C11.4328 31.0464 11.4916 31.0339 11.5516 31.0288C11.5478 31.0892 11.5341 31.1471 11.5341 31.2075C11.5341 31.8854 11.7953 32.5207 12.2716 32.9999C12.7628 33.4942 13.4078 33.7408 14.0528 33.7408C14.1115 33.7408 14.1703 33.7282 14.2303 33.7232C14.1803 34.4314 14.414 35.1546 14.9503 35.6955C15.4415 36.1898 16.0865 36.4376 16.7328 36.4376C17.379 36.4376 18.024 36.1898 18.5153 35.6955L20.1965 34.0037L21.8753 35.6942C22.3515 36.1735 22.9827 36.4376 23.6565 36.4376H23.6578C24.3303 36.4376 24.9628 36.1735 25.439 35.6955C25.9153 35.2175 26.1777 34.5823 26.1777 33.9043C26.1777 33.849 26.1753 33.7924 26.1728 33.7358C26.8753 33.7898 27.604 33.5181 28.119 32.9999C28.5965 32.5207 28.859 31.8829 28.859 31.2049C28.859 31.1496 28.8578 31.0942 28.854 31.0389C29.5578 31.0792 30.2677 30.8389 30.8003 30.3031C31.334 29.7659 31.5779 29.0464 31.5315 28.342C32.2341 28.3861 32.9465 28.1446 33.4803 27.6075C34.4628 26.6175 34.4628 25.01 33.4803 24.0213L31.8027 22.3332L35.7778 18.3546C35.7952 18.3408 35.8165 18.3345 35.8315 18.3181C35.8465 18.303 35.8528 18.2817 35.8665 18.2653L39.2128 14.9156C39.329 14.7974 39.394 14.6376 39.394 14.4703ZM12.3416 4.52949L14.8415 7.04521L5.00656 16.942L2.50781 14.4276L12.3416 4.52949ZM7.79656 26.7194C7.55781 26.4779 7.42531 26.1571 7.42531 25.8163C7.42531 25.4754 7.55656 25.1534 7.79656 24.9119L9.91656 22.7785C9.91781 22.7773 9.91906 22.7773 9.92031 22.776C9.92156 22.7747 9.92156 22.7735 9.92281 22.7722L10.5466 22.1446C11.0416 21.6464 11.8478 21.6464 12.3441 22.1446C12.839 22.6427 12.839 23.454 12.3441 23.9521L9.59406 26.7194C9.09781 27.2163 8.29031 27.2175 7.79656 26.7194ZM10.4753 29.4163C10.2366 29.1747 10.1041 28.8553 10.1041 28.5144C10.1041 28.1735 10.2353 27.8527 10.4766 27.6112C10.4766 27.6112 10.4766 27.6112 10.4778 27.61L10.4791 27.6087L13.2278 24.8427C13.7228 24.3446 14.5253 24.3446 15.0228 24.8414C15.5178 25.3408 15.5178 26.1521 15.0228 26.6502L12.2728 29.4188C11.7766 29.9131 10.9703 29.9131 10.4753 29.4163ZM13.1553 32.1119C12.9165 31.8703 12.784 31.5496 12.784 31.2087C12.784 30.8678 12.9153 30.5471 13.1553 30.3056L15.9053 27.537C16.384 27.0553 17.2215 27.054 17.7003 27.537C17.9403 27.7773 18.0728 28.098 18.0728 28.4402C18.0728 28.7823 17.9415 29.1018 17.7003 29.3446L14.9503 32.1119C14.454 32.6087 13.6515 32.6087 13.1553 32.1119ZM17.6303 34.8075C17.1353 35.3056 16.329 35.3056 15.8328 34.8075C15.3378 34.3093 15.3378 33.498 15.8328 32.9999L18.5828 30.2326C18.8303 29.9836 19.1565 29.859 19.4828 29.859C19.8078 29.859 20.1328 29.9836 20.3803 30.2326C20.8753 30.7307 20.8753 31.542 20.3803 32.0402L19.7628 32.6615C19.759 32.6653 19.7553 32.6653 19.7515 32.6691C19.7478 32.6729 19.7478 32.6766 19.744 32.6804L17.6303 34.8075ZM32.594 26.7169C32.099 27.215 31.2928 27.2137 30.7978 26.7169C30.5541 26.4716 30.1578 26.4716 29.914 26.7169C29.7915 26.8402 29.7315 27.0012 29.7315 27.1622C29.7315 27.3232 29.7928 27.4842 29.914 27.6075C30.409 28.1056 30.409 28.9169 29.914 29.4163C29.4178 29.9144 28.6128 29.9144 28.1165 29.4163C27.8753 29.1722 27.4765 29.171 27.2327 29.4175C27.1115 29.5408 27.0503 29.7005 27.0503 29.8615C27.0503 30.0225 27.1115 30.1848 27.234 30.3068C27.4728 30.5483 27.6065 30.8678 27.6065 31.2087C27.6065 31.5496 27.4753 31.8703 27.2327 32.1131C26.7378 32.61 25.9328 32.6112 25.4365 32.1131C25.1928 31.8678 24.7965 31.8678 24.5528 32.1131C24.4304 32.2364 24.3703 32.3974 24.3703 32.5584C24.3703 32.7194 24.4315 32.8804 24.5528 33.0037C24.7928 33.2452 24.9253 33.5672 24.9253 33.9081C24.9253 34.249 24.7941 34.5685 24.5528 34.81C24.3115 35.0515 23.994 35.1836 23.6553 35.1836H23.654C23.3153 35.1836 22.9978 35.0515 22.7578 34.8087L21.0778 33.1181L21.2628 32.932C22.2453 31.942 22.2453 30.3345 21.2628 29.3458C20.7265 28.8049 20.0065 28.5722 19.3028 28.6213C19.3065 28.5609 19.3203 28.5031 19.3203 28.4414C19.3203 27.7634 19.0578 27.1282 18.5815 26.6502C18.0628 26.1269 17.3328 25.8993 16.6215 25.9483C16.6778 25.2339 16.4453 24.4993 15.904 23.9534C15.3678 23.4137 14.649 23.181 13.9453 23.2301C13.9953 22.5219 13.7615 21.7986 13.2253 21.2578C12.2441 20.2691 10.6428 20.2691 9.66031 21.2578L9.47531 21.4439L5.88781 17.8339L15.7228 7.93704L19.3303 11.5672L17.1903 13.6804C16.714 14.1597 16.4528 14.7961 16.4528 15.4741C16.4528 16.1521 16.714 16.7873 17.1903 17.2653C17.6653 17.7446 18.299 18.01 18.9715 18.01C19.644 18.01 20.2778 17.7458 20.754 17.2666L22.8752 15.1332L32.5928 24.9131C33.0877 25.4087 33.0878 26.2188 32.594 26.7169ZM23.7603 14.2414L24.3828 13.6163C24.6265 13.371 24.6265 12.9722 24.3828 12.7269C24.1391 12.4817 23.7428 12.4817 23.499 12.7269L19.8728 16.3747C19.3915 16.8578 18.5578 16.859 18.0765 16.3747C17.8378 16.1345 17.7053 15.8137 17.7053 15.4729C17.7053 15.132 17.8365 14.81 18.0728 14.5735L20.659 12.0201C20.6604 12.0188 20.6602 12.0175 20.6615 12.0163C20.6615 12.0163 20.6628 12.0163 20.6628 12.015C20.669 12.0087 20.6715 11.9999 20.6778 11.9936L24.6678 7.97729L34.4928 17.8641L30.9165 21.4439L23.7603 14.2414ZM35.379 16.976L25.5515 7.08672L28.0515 4.571L37.8853 14.4678L35.379 16.976Z" fill="#252525"/>
</svg>
