<svg width="118" height="60" viewBox="0 0 118 60" fill="none" xmlns="http://www.w3.org/2000/svg">
<g clip-path="url(#clip0_114_1930)">
<path fill-rule="evenodd" clip-rule="evenodd" d="M88.4658 30.5747H91.3483C91.4933 30.5747 91.6108 30.6923 91.6108 30.8374C91.6108 30.9824 91.4933 31.1 91.3483 31.1H88.5604L85.9316 32.0794C85.9136 32.1046 85.8909 32.136 85.8636 32.1728C85.7888 32.2737 85.6798 32.4154 85.5413 32.5804C85.2651 32.9094 84.868 33.3356 84.3883 33.7166C83.4421 34.4681 82.0845 35.107 80.707 34.2874L80.7063 34.287C80.5298 34.1812 80.2985 34.2169 79.9043 34.5211C79.6167 34.743 79.3104 35.0548 78.9655 35.4059C78.8493 35.5241 78.7288 35.6468 78.6031 35.7721C78.1172 36.2561 77.5672 36.7633 76.9548 37.1C76.3361 37.4402 75.6386 37.6144 74.8729 37.4082C74.7329 37.3705 74.65 37.2263 74.6877 37.0863C74.7254 36.9462 74.8694 36.8632 75.0094 36.9009C75.6088 37.0624 76.1657 36.9345 76.702 36.6396C77.2447 36.3412 77.7504 35.8802 78.2326 35.3998C78.3452 35.2876 78.4575 35.1733 78.5688 35.0599C78.9213 34.7009 79.2648 34.3511 79.5836 34.1051C79.9932 33.7891 80.4894 33.5449 80.9756 33.836C82.0591 34.4805 83.1625 34.0195 84.0619 33.3051C84.5052 32.9531 84.8771 32.5548 85.1393 32.2425C85.27 32.0868 85.3724 31.9537 85.4418 31.86C85.4765 31.8131 85.5029 31.7762 85.5204 31.7514C85.5291 31.739 85.5356 31.7296 85.5398 31.7235L85.5444 31.7168L85.5453 31.7154L85.5925 31.6451L88.4658 30.5747Z" fill="#4A4A49"/>
<path fill-rule="evenodd" clip-rule="evenodd" d="M95.4172 29.1421L97.4659 29.6298L98.1178 30.4097L100.743 33.0168L101.759 34.6592L104.288 35.7186L109.341 42.5763L112.592 44.2429L113.307 48.3321L115.627 51.6009L118 55.5002V59.7306C118 59.8756 117.882 59.9932 117.737 59.9932C117.592 59.9932 117.475 59.8756 117.475 59.7306V55.6475L115.188 51.89L112.81 48.5396L112.12 44.5911L108.992 42.9875L103.951 36.1471L101.401 35.0788L100.329 33.346L97.7306 30.7654L97.1749 30.1006L95.4172 29.6821L91.8328 30.5354L91.4698 32.2368L88.906 33.806C88.7823 33.8817 88.6207 33.8428 88.5451 33.719C88.4694 33.5953 88.5084 33.4336 88.632 33.3579L91.0035 31.9064L91.3886 30.1012L95.4172 29.1421Z" fill="#4A4A49"/>
<path fill-rule="evenodd" clip-rule="evenodd" d="M12.6157 46.0801L14.9781 47.5861L17.4604 48.4033C17.5981 48.4486 17.673 48.597 17.6277 48.7349C17.5824 48.8727 17.4341 48.9476 17.2963 48.9023L14.7515 48.0646L12.5199 46.6419L10.1567 47.1936L6.99348 51.1632L4.46026 51.393L2.42711 53.9457L0.362693 54.799C0.228695 54.8544 0.0751921 54.7906 0.0198353 54.6565C-0.0355214 54.5225 0.0282301 54.3689 0.162228 54.3135L2.10115 53.512L4.18947 50.8901L6.72276 50.6603L9.85987 46.7235L12.6157 46.0801Z" fill="#4A4A49"/>
<path fill-rule="evenodd" clip-rule="evenodd" d="M88.0568 40.1629C88.1976 40.1283 88.3398 40.2145 88.3743 40.3554C88.4418 40.6305 88.5489 40.8246 88.6816 40.966C88.8144 41.1076 88.9855 41.2098 89.2012 41.2817C89.6459 41.4299 90.2398 41.4386 90.9789 41.4195C91.0938 41.4166 91.2114 41.4129 91.3317 41.4092C92.7255 41.3664 94.4706 41.3128 96.1624 42.1388C97.1973 42.6432 97.8805 43.1398 98.3781 43.6076C98.8003 44.0045 99.0856 44.3785 99.3278 44.6959C99.3697 44.7508 99.4103 44.804 99.4501 44.8554C99.7213 45.2055 99.9535 45.4671 100.315 45.6594C100.68 45.8533 101.202 45.9893 102.07 46.0262C103.961 46.1058 105.21 46.713 106.131 47.6265C107.038 48.5268 107.609 49.7111 108.176 50.8941L108.198 50.9399C108.764 52.1214 109.332 53.3097 110.228 54.3252C111.127 55.3454 112.363 56.198 114.275 56.6582C114.416 56.6921 114.502 56.834 114.468 56.975C114.435 57.1161 114.293 57.2029 114.152 57.1689C112.135 56.6835 110.805 55.7738 109.834 54.6727C108.89 53.6019 108.294 52.3565 107.736 51.1919C107.725 51.1683 107.714 51.1447 107.702 51.1211C107.129 49.9229 106.593 48.8249 105.761 47.9995C104.943 47.1874 103.822 46.6258 102.048 46.5511L102.048 46.5511C101.14 46.5125 100.53 46.3685 100.069 46.1233C99.6043 45.8764 99.316 45.5397 99.0351 45.1773C98.9925 45.1222 98.95 45.0666 98.9069 45.0102C98.6651 44.6935 98.407 44.3555 98.0186 43.9905C97.5636 43.5627 96.9253 43.0949 95.9324 42.611L95.9322 42.6109C94.3624 41.8445 92.7426 41.8929 91.3365 41.9349C91.2203 41.9383 91.1056 41.9418 90.9925 41.9447C90.2681 41.9634 89.5814 41.9622 89.0352 41.7801C88.7553 41.6868 88.5033 41.5436 88.2988 41.3256C88.0941 41.1074 87.9496 40.8277 87.8644 40.4806C87.8299 40.3397 87.916 40.1975 88.0568 40.1629Z" fill="#4A4A49"/>
<path fill-rule="evenodd" clip-rule="evenodd" d="M74.4127 50.3685C74.4516 50.2287 74.5964 50.147 74.736 50.186C76.3254 50.6294 77.0909 50.7222 77.6313 50.7876C77.6652 50.7917 77.6982 50.7957 77.7304 50.7997C78.0096 50.834 78.2508 50.8679 78.5306 50.9533C78.8093 51.0383 79.1169 51.1713 79.5399 51.3954C80.8451 52.0868 81.3913 53.1083 81.8955 54.0826C81.9059 54.1028 81.9163 54.1229 81.9267 54.143C82.4205 55.098 82.8861 55.9983 83.971 56.6635C84.0946 56.7393 84.1334 56.9011 84.0577 57.0248C83.9819 57.1484 83.8203 57.1873 83.6967 57.1115C82.4856 56.3688 81.9608 55.3531 81.4739 54.4107C81.459 54.3817 81.4441 54.3529 81.4292 54.3241C80.9276 53.3547 80.4435 52.4685 79.2942 51.8597L79.2942 51.8597C78.887 51.6439 78.6121 51.5274 78.3775 51.4558C78.144 51.3846 77.941 51.3549 77.6664 51.3211C77.6346 51.3172 77.6022 51.3132 77.5689 51.3092C77.0136 51.2419 76.2212 51.1457 74.595 50.692C74.4554 50.6531 74.3737 50.5082 74.4127 50.3685Z" fill="#4A4A49"/>
<path fill-rule="evenodd" clip-rule="evenodd" d="M44.108 52.6466C44.1081 52.6466 44.1081 52.6466 44.0826 52.9081L44.108 52.6466C44.2523 52.6607 44.358 52.7892 44.3439 52.9336C44.3298 53.0779 44.2015 53.1835 44.0572 53.1695L44.0538 53.1692L44.0414 53.1681C44.0302 53.1671 44.0133 53.1657 43.9911 53.164C43.9468 53.1606 43.8817 53.1561 43.7999 53.1519C43.6362 53.1435 43.4066 53.1363 43.144 53.1411C42.6126 53.1508 41.9714 53.2094 41.468 53.3915L41.4673 53.3917C40.9506 53.577 40.5677 53.8982 40.1469 54.2538L40.1378 54.2615C39.7273 54.6084 39.2786 54.9876 38.664 55.2045C37.9193 55.4695 37.3682 55.3135 36.8893 55.178C36.8744 55.1737 36.8596 55.1695 36.8448 55.1654C36.3679 55.0309 35.9539 54.9268 35.3579 55.1791C34.9289 55.36 34.8013 55.4649 34.5784 55.6613C34.5642 55.6738 34.5497 55.6866 34.5349 55.6997C34.293 55.9134 33.9469 56.2193 33.1651 56.7502C33.0451 56.8317 32.8819 56.8004 32.8005 56.6804C32.719 56.5604 32.7503 56.397 32.8702 56.3155C33.6253 55.8027 33.9541 55.5121 34.187 55.3062C34.2022 55.2928 34.2169 55.2797 34.2314 55.267C34.4892 55.0399 34.6638 54.9017 35.1537 54.6951C35.9226 54.3697 36.4863 54.5185 36.9872 54.6597C36.9961 54.6622 37.0049 54.6647 37.0137 54.6672C37.4909 54.8019 37.9023 54.9181 38.4884 54.7094L38.4891 54.7092C39.0051 54.5271 39.3878 54.2077 39.8082 53.8524L39.8239 53.8391C40.2323 53.494 40.6792 53.1164 41.2898 52.8973C41.8757 52.6855 42.5863 52.6259 43.1344 52.6159C43.4117 52.6108 43.6537 52.6184 43.8268 52.6273C43.9134 52.6317 43.9829 52.6365 44.0311 52.6402C44.0553 52.642 44.0741 52.6436 44.0871 52.6447L44.1022 52.6461L44.1063 52.6465L44.108 52.6466Z" fill="#4A4A49"/>
<path fill-rule="evenodd" clip-rule="evenodd" d="M80.4967 33.851C80.3951 33.7476 80.229 33.7461 80.1256 33.8477C80.0221 33.9494 80.0206 34.1157 80.1222 34.2192L80.3095 34.0351C80.1222 34.2192 80.1222 34.2191 80.1222 34.2192L80.123 34.2199L80.1243 34.2213L80.1291 34.2261L80.1463 34.2431C80.1611 34.2577 80.1825 34.2785 80.2101 34.3045C80.2651 34.3566 80.3447 34.4296 80.4443 34.515C80.643 34.6855 80.9243 34.908 81.2525 35.1132C81.8872 35.51 82.7902 35.9002 83.6111 35.5655C83.7928 35.4917 83.9519 35.4053 84.0928 35.3254C84.1237 35.308 84.1532 35.291 84.1818 35.2747C84.2881 35.2139 84.3806 35.1609 84.4747 35.1158C84.6965 35.0094 84.8899 34.9647 85.149 35.0417C85.2032 35.0584 85.2348 35.0826 85.2581 35.1114C85.2842 35.1436 85.31 35.1948 85.3298 35.2781C85.3714 35.4535 85.3715 35.7011 85.3582 36.0399C85.3557 36.1019 85.3529 36.1661 85.3499 36.2325C85.3218 36.8654 85.2852 37.6899 85.5162 38.5551C85.65 39.0564 85.8754 39.3823 86.1611 39.5932C86.4397 39.7989 86.7507 39.8756 87.01 39.927C87.0643 39.9378 87.1151 39.9474 87.1629 39.9564C87.3631 39.9941 87.5092 40.0217 87.6299 40.0828C87.6947 40.1157 87.7418 40.1545 87.7775 40.205C87.8137 40.2562 87.848 40.3334 87.8662 40.4564C87.8874 40.5999 88.0209 40.699 88.1643 40.6778C88.3077 40.6565 88.4068 40.523 88.3855 40.3795C88.3578 40.1923 88.2992 40.0332 88.2061 39.9016C88.1125 39.7691 87.9938 39.6784 87.8671 39.6142C87.6726 39.5156 87.4335 39.4715 87.23 39.434C87.189 39.4264 87.1495 39.4191 87.112 39.4117C86.866 39.3629 86.6528 39.3034 86.4728 39.1705C86.2999 39.0428 86.1324 38.8278 86.0234 38.4195C85.8144 37.6367 85.8469 36.8912 85.8747 36.2531C85.8775 36.1878 85.8803 36.1236 85.8828 36.0606C85.8957 35.7337 85.9016 35.4137 85.8406 35.1568C85.8091 35.0239 85.7566 34.8927 85.6663 34.781C85.5733 34.666 85.4508 34.5848 85.302 34.5391L85.3001 34.5386C84.8772 34.4124 84.5458 34.4991 84.2477 34.6421C84.1347 34.6963 84.0209 34.7615 83.9126 34.8235C83.8861 34.8387 83.8599 34.8537 83.8341 34.8683C83.6984 34.9452 83.563 35.0181 83.4134 35.0788C82.8496 35.3087 82.151 35.0555 81.5307 34.6677C81.2312 34.4805 80.9715 34.2753 80.7861 34.1162C80.6936 34.0369 80.6203 33.9697 80.5706 33.9226C80.5457 33.8991 80.5268 33.8807 80.5143 33.8684L80.5005 33.8547L80.4973 33.8516L80.4967 33.851C80.4967 33.851 80.4967 33.851 80.4967 33.851Z" fill="#4A4A49"/>
<path fill-rule="evenodd" clip-rule="evenodd" d="M103.691 36.6665C103.707 36.8107 103.603 36.9403 103.459 36.956L99.5598 37.3788L97.4514 39.6642L95.2811 38.6998C94.7386 39.2872 94.2119 39.6816 93.5623 39.9341C92.8686 40.2036 92.0559 40.3029 90.9748 40.3327C90.8299 40.3367 90.7092 40.2223 90.7052 40.0773C90.7012 39.9323 90.8154 39.8115 90.9604 39.8075C92.0254 39.7782 92.7647 39.6805 93.3722 39.4444C93.9721 39.2112 94.4642 38.8348 95.017 38.2086L95.1444 38.0642L97.3207 39.0313L99.3075 36.8777L103.402 36.4337C103.546 36.4181 103.676 36.5223 103.691 36.6665Z" fill="#4A4A49"/>
<path fill-rule="evenodd" clip-rule="evenodd" d="M106.763 44.7716C106.825 44.6403 106.981 44.5839 107.112 44.6456L109.526 45.7812L110.135 48.0729C110.173 48.2131 110.089 48.357 109.949 48.3943C109.809 48.4315 109.665 48.3481 109.628 48.2079L109.082 46.1525L106.889 45.121C106.758 45.0593 106.701 44.9029 106.763 44.7716Z" fill="#4A4A49"/>
<path fill-rule="evenodd" clip-rule="evenodd" d="M96.8984 32.1688C96.9971 32.0626 97.1632 32.0565 97.2695 32.1552L99.678 34.3945C99.7842 34.4932 99.7903 34.6594 99.6916 34.7657C99.593 34.8719 99.4268 34.878 99.3206 34.7793L96.9121 32.5401C96.8059 32.4413 96.7998 32.2751 96.8984 32.1688Z" fill="#4A4A49"/>
<path fill-rule="evenodd" clip-rule="evenodd" d="M84.5089 39.0827C83.9657 38.9194 83.3072 39.1055 82.8513 39.3589L82.7149 39.4347L82.57 39.3767C81.3166 38.8751 80.5691 39.0738 80.2086 39.4104C79.8434 39.7514 79.7554 40.3412 80.0321 40.8951L80.2278 41.2866L79.7973 41.3649C79.1205 41.4881 78.7051 41.7158 78.4558 41.9669C78.2099 42.2146 78.101 42.5095 78.0808 42.8198C78.0602 43.1359 78.1324 43.4673 78.2522 43.7624C78.3729 44.0597 78.5316 44.2947 78.6581 44.4213L78.7716 44.5348L78.7517 44.6941C78.6336 45.639 78.95 46.1794 79.3516 46.4973C79.7755 46.8329 80.3364 46.9518 80.7231 46.9518H80.8324L80.9199 47.0174C81.8847 47.7414 82.8447 47.8077 83.5956 47.5961C83.975 47.4892 84.3016 47.3111 84.5483 47.1091C84.7991 46.9038 84.9492 46.6893 85.0057 46.5196L85.0805 46.2951H85.317C85.9921 46.2951 86.4186 46.1415 86.6795 45.9419C86.9353 45.7462 87.0637 45.4823 87.0996 45.1882C87.1363 44.8876 87.075 44.5572 86.9455 44.2622C86.8147 43.9645 86.6284 43.7339 86.4476 43.6133L86.1146 43.3911L86.3976 43.1079C86.7774 42.7279 86.7762 42.3057 86.618 41.9574C86.5362 41.7774 86.4134 41.623 86.2834 41.5165C86.1479 41.4056 86.0347 41.3702 85.9734 41.3702L85.6737 41.3703L85.6465 41.0716C85.5842 40.3856 85.4193 39.9249 85.2157 39.621C85.0158 39.3225 84.7697 39.161 84.5089 39.0827ZM86.2726 40.765C86.1881 40.1269 86.0119 39.6302 85.7609 39.2554C85.4747 38.8282 85.1015 38.5751 84.6977 38.4537C83.9776 38.2373 83.2026 38.449 82.6713 38.712C81.3688 38.2276 80.363 38.3679 79.7608 38.9303C79.2431 39.4138 79.1051 40.1366 79.2956 40.8045C78.7245 40.9574 78.2953 41.1969 77.9902 41.5041C77.6168 41.8803 77.4549 42.3323 77.4259 42.7771C77.3973 43.2162 77.4974 43.648 77.6442 44.0096C77.7636 44.3036 77.9207 44.5679 78.0843 44.7648C77.9915 45.8374 78.3769 46.563 78.9444 47.0123C79.4741 47.4316 80.1305 47.5858 80.6125 47.6061C81.7208 48.3995 82.8582 48.486 83.7735 48.2282C84.239 48.097 84.6467 47.877 84.9639 47.6173C85.2053 47.4197 85.4054 47.1898 85.5337 46.947C86.1963 46.9169 86.7078 46.7469 87.0781 46.4636C87.4929 46.1462 87.6968 45.7124 87.7511 45.2678C87.8046 44.8296 87.7142 44.3803 87.5463 43.9981C87.4322 43.7382 87.2759 43.495 87.0887 43.3008C87.4612 42.759 87.4307 42.1594 87.2155 41.6857C87.0922 41.4143 86.9073 41.1788 86.6989 41.0083C86.5738 40.9058 86.4284 40.8176 86.2726 40.765Z" fill="#4A4A49"/>
<path fill-rule="evenodd" clip-rule="evenodd" d="M82.8428 41.6133C82.9878 41.6133 83.1054 41.7309 83.1054 41.8759V50.9314C83.1054 51.0765 82.9878 51.1941 82.8428 51.1941C82.6979 51.1941 82.5803 51.0765 82.5803 50.9314V41.8759C82.5803 41.7309 82.6979 41.6133 82.8428 41.6133Z" fill="#4A4A49"/>
<path fill-rule="evenodd" clip-rule="evenodd" d="M80.3082 43.9247C80.377 43.797 80.5362 43.7493 80.6638 43.8181C81.2531 44.1358 81.7982 44.4416 82.2223 44.7614C82.6429 45.0785 82.9828 45.437 83.1083 45.8746C83.1483 46.0141 83.0678 46.1596 82.9284 46.1996C82.7891 46.2396 82.6437 46.159 82.6037 46.0196C82.5258 45.748 82.2979 45.4762 81.9064 45.1809C81.5184 44.8884 81.0068 44.5998 80.4148 44.2806C80.2871 44.2118 80.2394 44.0524 80.3082 43.9247Z" fill="#4A4A49"/>
<path fill-rule="evenodd" clip-rule="evenodd" d="M85.2962 42.977C85.3736 43.0997 85.3369 43.2619 85.2143 43.3393C85.002 43.4733 84.7838 43.5984 84.5761 43.7174C84.5387 43.7388 84.5018 43.76 84.4652 43.781C84.2221 43.9208 83.9975 44.0531 83.8005 44.191C83.401 44.4707 83.1668 44.7385 83.1152 45.0628C83.0924 45.2061 82.9579 45.3037 82.8147 45.2809C82.6715 45.2581 82.5739 45.1235 82.5967 44.9803C82.6829 44.4378 83.0689 44.062 83.4996 43.7606C83.7177 43.6079 83.9607 43.4652 84.2036 43.3255C84.2415 43.3038 84.2793 43.2821 84.3171 43.2604C84.5251 43.1412 84.7322 43.0225 84.9341 42.895C85.0567 42.8176 85.2188 42.8544 85.2962 42.977Z" fill="#4A4A49"/>
<path fill-rule="evenodd" clip-rule="evenodd" d="M101.529 49.8593C101.313 49.9344 101.101 50.0522 100.93 50.1743L100.77 50.2892L100.593 50.2008C100.094 49.9513 99.7352 49.87 99.485 49.8743C99.2465 49.8783 99.1014 49.9592 99.003 50.0651C98.8965 50.1797 98.8219 50.3497 98.7827 50.5587C98.7439 50.7657 98.7444 50.9881 98.7683 51.1798L98.8083 51.4999L98.4891 51.5455C98.0685 51.6057 97.8135 51.7248 97.6617 51.8508C97.5157 51.972 97.446 52.115 97.4216 52.2721C97.3689 52.6135 97.5317 53.0371 97.7314 53.3367L97.837 53.4953L97.7518 53.6657C97.5755 54.0186 97.5507 54.2645 97.5819 54.4309C97.6121 54.5918 97.7027 54.7216 97.8504 54.8309C98.1663 55.0647 98.6888 55.1605 99.099 55.1605H99.235L99.3311 55.2567C100.047 55.9728 100.754 56.0928 101.296 55.9654C101.863 55.8325 102.273 55.4292 102.397 55.0567L102.472 54.8322H102.709C103.163 54.8322 103.441 54.7432 103.605 54.635C103.759 54.5331 103.835 54.3998 103.862 54.2432C103.921 53.8965 103.737 53.4177 103.444 53.0759L103.29 52.8962L103.412 52.6933C103.78 52.0793 103.674 51.8365 103.608 51.7522C103.507 51.6247 103.275 51.5488 103.037 51.5488L102.709 51.5488V51.2205C102.709 50.6591 102.617 50.3105 102.5 50.102C102.39 49.9063 102.253 49.8241 102.107 49.7933C101.948 49.7595 101.748 49.7832 101.529 49.8593ZM103.357 50.9217C103.329 50.4449 103.233 50.0673 103.072 49.7801C102.87 49.4223 102.576 49.2213 102.243 49.1509C101.925 49.0835 101.597 49.1406 101.314 49.2389C101.098 49.314 100.892 49.4184 100.713 49.5303C100.237 49.3122 99.8263 49.2117 99.4739 49.2177C99.0678 49.2246 98.7494 49.3736 98.5224 49.6179C98.3035 49.8535 98.1908 50.1542 98.1377 50.4377C98.1053 50.6104 98.0933 50.7855 98.0957 50.9514C97.7414 51.0342 97.4582 51.1664 97.2427 51.3454C96.9634 51.5772 96.8199 51.8692 96.7731 52.1717C96.696 52.6702 96.8815 53.1808 97.0867 53.5409C96.9298 53.9097 96.8797 54.2474 96.9369 54.5522C97.0038 54.9085 97.2085 55.1726 97.4601 55.3588C97.8976 55.6827 98.507 55.7961 98.9633 55.8144C99.7957 56.5959 100.689 56.7824 101.446 56.6047C102.117 56.4473 102.667 56.0039 102.929 55.4826C103.356 55.4575 103.702 55.3573 103.966 55.1833C104.283 54.974 104.453 54.6763 104.509 54.3541C104.599 53.8255 104.381 53.2524 104.085 52.8327C104.4 52.2221 104.414 51.7144 104.123 51.3455C103.922 51.091 103.624 50.971 103.357 50.9217Z" fill="#4A4A49"/>
<path fill-rule="evenodd" clip-rule="evenodd" d="M100.707 51.4043C100.852 51.4043 100.969 51.5219 100.969 51.667V58.562C100.969 58.7071 100.852 58.8247 100.707 58.8247C100.562 58.8247 100.444 58.7071 100.444 58.562V51.667C100.444 51.5219 100.562 51.4043 100.707 51.4043Z" fill="#4A4A49"/>
<path fill-rule="evenodd" clip-rule="evenodd" d="M98.8281 53.0993C98.8965 52.9714 99.0555 52.9231 99.1834 52.9916C99.6052 53.2173 100.001 53.4378 100.31 53.671C100.616 53.9014 100.875 54.1726 100.967 54.5142C101.005 54.6543 100.922 54.7984 100.782 54.8361C100.642 54.8738 100.498 54.7908 100.46 54.6508C100.414 54.4802 100.27 54.2982 99.9942 54.0904C99.7223 53.8852 99.3605 53.6821 98.9357 53.4548C98.8079 53.3864 98.7597 53.2272 98.8281 53.0993Z" fill="#4A4A49"/>
<path fill-rule="evenodd" clip-rule="evenodd" d="M102.531 52.4138C102.608 52.5368 102.57 52.6989 102.448 52.7759C102.298 52.8698 102.144 52.958 101.998 53.0412C101.968 53.0584 101.939 53.0754 101.909 53.0922C101.736 53.1919 101.578 53.2851 101.441 53.3815C101.161 53.5781 101.013 53.7549 100.979 53.9566C100.955 54.0996 100.819 54.1958 100.676 54.1715C100.533 54.1471 100.437 54.0115 100.461 53.8685C100.532 53.4529 100.828 53.17 101.14 52.9513C101.298 52.84 101.474 52.7366 101.648 52.6367C101.679 52.6189 101.71 52.6012 101.74 52.5836C101.885 52.5005 102.029 52.4185 102.169 52.3306C102.292 52.2536 102.454 52.2909 102.531 52.4138Z" fill="#4A4A49"/>
<path fill-rule="evenodd" clip-rule="evenodd" d="M77.6607 38.6302C77.7016 38.7694 77.6219 38.9154 77.4827 38.9562L76.9905 39.1007C76.8514 39.1415 76.7055 39.0617 76.6647 38.9225C76.6239 38.7833 76.7036 38.6374 76.8427 38.5966L77.335 38.4521C77.4741 38.4113 77.6199 38.491 77.6607 38.6302Z" fill="#4A4A49"/>
<path fill-rule="evenodd" clip-rule="evenodd" d="M92.9652 45.9652C93.006 46.1044 92.9263 46.2503 92.7872 46.2912L92.295 46.4356C92.1558 46.4765 92.01 46.3967 91.9692 46.2575C91.9284 46.1183 92.0081 45.9724 92.1472 45.9315L92.6394 45.7871C92.7785 45.7462 92.9244 45.826 92.9652 45.9652Z" fill="#4A4A49"/>
<path fill-rule="evenodd" clip-rule="evenodd" d="M107.371 53.8914C107.412 54.0306 107.332 54.1766 107.193 54.2174L106.7 54.3619C106.561 54.4027 106.416 54.323 106.375 54.1838C106.334 54.0446 106.414 53.8986 106.553 53.8578L107.045 53.7133C107.184 53.6725 107.33 53.7522 107.371 53.8914Z" fill="#4A4A49"/>
<path fill-rule="evenodd" clip-rule="evenodd" d="M4.41929 55.2572C4.4601 55.3964 4.38041 55.5423 4.24128 55.5831L3.74907 55.7276C3.60995 55.7684 3.46409 55.6887 3.42328 55.5495C3.38247 55.4103 3.46217 55.2643 3.60129 55.2235L4.0935 55.079C4.23262 55.0382 4.37848 55.118 4.41929 55.2572Z" fill="#4A4A49"/>
<path fill-rule="evenodd" clip-rule="evenodd" d="M17.5384 53.3001C17.5792 53.4393 17.4995 53.5853 17.3604 53.6261L16.8682 53.7706C16.7291 53.8114 16.5832 53.7317 16.5424 53.5925C16.5016 53.4533 16.5813 53.3073 16.7204 53.2665L17.2126 53.122C17.3518 53.0812 17.4976 53.1609 17.5384 53.3001Z" fill="#4A4A49"/>
<path fill-rule="evenodd" clip-rule="evenodd" d="M92.4205 57.2142C92.4613 57.3534 92.3816 57.4993 92.2425 57.5402L91.7503 57.6846C91.6112 57.7255 91.4653 57.6457 91.4245 57.5065C91.3837 57.3673 91.4634 57.2214 91.6025 57.1805L92.0947 57.0361C92.2338 56.9952 92.3797 57.075 92.4205 57.2142Z" fill="#4A4A49"/>
<path fill-rule="evenodd" clip-rule="evenodd" d="M88.0497 50.8573C88.0905 50.9965 88.0108 51.1424 87.8717 51.1832L87.3794 51.3277C87.2403 51.3685 87.0945 51.2888 87.0537 51.1496C87.0128 51.0104 87.0925 50.8644 87.2317 50.8236L87.7239 50.6791C87.863 50.6383 88.0089 50.7181 88.0497 50.8573Z" fill="#4A4A49"/>
<path fill-rule="evenodd" clip-rule="evenodd" d="M34.8578 59.1707C34.8986 59.3099 34.8189 59.4559 34.6798 59.4967L34.1875 59.6412C34.0484 59.682 33.9026 59.6023 33.8618 59.4631C33.8209 59.3239 33.9006 59.1779 34.0398 59.1371L34.532 58.9926C34.6711 58.9518 34.817 59.0315 34.8578 59.1707Z" fill="#4A4A49"/>
<path fill-rule="evenodd" clip-rule="evenodd" d="M76.394 56.7279C76.4348 56.8671 76.3551 57.013 76.216 57.0538L75.7238 57.1983C75.5847 57.2391 75.4388 57.1594 75.398 57.0202C75.3572 56.881 75.4369 56.7351 75.576 56.6942L76.0682 56.5498C76.2074 56.5089 76.3532 56.5887 76.394 56.7279Z" fill="#4A4A49"/>
<path fill-rule="evenodd" clip-rule="evenodd" d="M99.2697 58.7065C99.2697 58.5614 99.3872 58.4438 99.5322 58.4438H101.626C101.771 58.4438 101.888 58.5614 101.888 58.7065C101.888 58.8516 101.771 58.9692 101.626 58.9692H99.5322C99.3872 58.9692 99.2697 58.8516 99.2697 58.7065Z" fill="#4A4A49"/>
<path fill-rule="evenodd" clip-rule="evenodd" d="M80.4802 51.1479C80.4802 51.0029 80.5978 50.8853 80.7427 50.8853H84.0242C84.1691 50.8853 84.2867 51.0029 84.2867 51.1479C84.2867 51.293 84.1691 51.4106 84.0242 51.4106H80.7427C80.5978 51.4106 80.4802 51.293 80.4802 51.1479Z" fill="#4A4A49"/>
<path fill-rule="evenodd" clip-rule="evenodd" d="M76.1094 48.9746C76.1094 48.8295 76.2269 48.7119 76.3719 48.7119H77.1594C77.3044 48.7119 77.4219 48.8295 77.4219 48.9746C77.4219 49.1197 77.3044 49.2373 77.1594 49.2373H76.3719C76.2269 49.2373 76.1094 49.1197 76.1094 48.9746Z" fill="#4A4A49"/>
<path fill-rule="evenodd" clip-rule="evenodd" d="M22.9175 57.2881C22.9175 57.143 23.035 57.0254 23.18 57.0254H23.9675C24.1125 57.0254 24.2301 57.143 24.2301 57.2881C24.2301 57.4331 24.1125 57.5507 23.9675 57.5507H23.18C23.035 57.5507 22.9175 57.4331 22.9175 57.2881Z" fill="#4A4A49"/>
<path fill-rule="evenodd" clip-rule="evenodd" d="M64.4537 54.8452C64.4537 54.7001 64.5713 54.5825 64.7162 54.5825H65.5038C65.6488 54.5825 65.7663 54.7001 65.7663 54.8452C65.7663 54.9903 65.6488 55.1079 65.5038 55.1079H64.7162C64.5713 55.1079 64.4537 54.9903 64.4537 54.8452Z" fill="#4A4A49"/>
<path fill-rule="evenodd" clip-rule="evenodd" d="M80.5786 6.0937C79.0056 6.0937 77.7304 7.36966 77.7304 8.94365C77.7304 10.5176 79.0056 11.7936 80.5786 11.7936C82.1517 11.7936 83.4269 10.5176 83.4269 8.94365C83.4269 7.36966 82.1517 6.0937 80.5786 6.0937ZM77.2053 8.94365C77.2053 7.07953 78.7156 5.56836 80.5786 5.56836C82.4416 5.56836 83.9519 7.07953 83.9519 8.94365C83.9519 10.8078 82.4416 12.3189 80.5786 12.3189C78.7156 12.3189 77.2053 10.8078 77.2053 8.94365Z" fill="#4A4A49"/>
<path fill-rule="evenodd" clip-rule="evenodd" d="M80.4933 2.71875C80.6383 2.71875 80.7559 2.83635 80.7559 2.98142V4.59026C80.7559 4.73533 80.6383 4.85293 80.4933 4.85293C80.3484 4.85293 80.2308 4.73533 80.2308 4.59026V2.98142C80.2308 2.83635 80.3484 2.71875 80.4933 2.71875Z" fill="#4A4A49"/>
<path fill-rule="evenodd" clip-rule="evenodd" d="M80.4933 13.7378C80.6383 13.7378 80.7559 13.8554 80.7559 14.0005V15.6093C80.7559 15.7544 80.6383 15.872 80.4933 15.872C80.3484 15.872 80.2308 15.7544 80.2308 15.6093V14.0005C80.2308 13.8554 80.3484 13.7378 80.4933 13.7378Z" fill="#4A4A49"/>
<path fill-rule="evenodd" clip-rule="evenodd" d="M85.0217 8.66794C85.0217 8.52287 85.1393 8.40527 85.2842 8.40527H86.8856C87.0306 8.40527 87.1481 8.52287 87.1481 8.66794C87.1481 8.81301 87.0306 8.93061 86.8856 8.93061H85.2842C85.1393 8.93061 85.0217 8.81301 85.0217 8.66794Z" fill="#4A4A49"/>
<path fill-rule="evenodd" clip-rule="evenodd" d="M73.6483 8.66794C73.6483 8.52287 73.7658 8.40527 73.9108 8.40527H75.5187C75.6637 8.40527 75.7812 8.52287 75.7812 8.66794C75.7812 8.81301 75.6637 8.93061 75.5187 8.93061H73.9108C73.7658 8.93061 73.6483 8.81301 73.6483 8.66794Z" fill="#4A4A49"/>
<path fill-rule="evenodd" clip-rule="evenodd" d="M76.6688 11.4249C76.7782 11.5201 76.7897 11.686 76.6945 11.7955L75.6379 13.0103C75.5427 13.1197 75.3769 13.1312 75.2676 13.036C75.1582 12.9408 75.1467 12.7749 75.2419 12.6654L76.2985 11.4506C76.3937 11.3412 76.5595 11.3296 76.6688 11.4249Z" fill="#4A4A49"/>
<path fill-rule="evenodd" clip-rule="evenodd" d="M84.8396 3.95857C84.949 4.05381 84.9605 4.21972 84.8653 4.32915L83.8087 5.54399C83.7135 5.65342 83.5477 5.66493 83.4383 5.5697C83.329 5.47446 83.3175 5.30855 83.4126 5.19912L84.4693 3.98428C84.5644 3.87485 84.7302 3.86334 84.8396 3.95857Z" fill="#4A4A49"/>
<path fill-rule="evenodd" clip-rule="evenodd" d="M75.5917 3.96832C75.6957 3.86723 75.8618 3.86963 75.9629 3.97367L77.0851 5.12941C77.1862 5.23346 77.1838 5.39975 77.0798 5.50084C76.9758 5.60193 76.8096 5.59954 76.7086 5.49549L75.5863 4.33975C75.4853 4.2357 75.4877 4.06941 75.5917 3.96832Z" fill="#4A4A49"/>
<path fill-rule="evenodd" clip-rule="evenodd" d="M83.7624 11.7891C83.8664 11.688 84.0326 11.6904 84.1337 11.7945L85.2559 12.9502C85.3569 13.0543 85.3545 13.2206 85.2505 13.3216C85.1466 13.4227 84.9804 13.4203 84.8793 13.3163L83.7571 12.1606C83.6561 12.0565 83.6585 11.8902 83.7624 11.7891Z" fill="#4A4A49"/>
<path fill-rule="evenodd" clip-rule="evenodd" d="M30.4516 14.9263V48.9418H12.7319V25.3749L30.4516 14.9263ZM13.257 25.675V48.4165H29.9266V15.8456L13.257 25.675Z" fill="#4A4A49"/>
<path fill-rule="evenodd" clip-rule="evenodd" d="M46.2801 21.438L46.3608 48.9416H30.3466V48.6789L30.0907 48.6782L30.1437 27.3969L46.2801 21.438ZM30.6164 48.4162H45.8342L45.7573 22.191L30.6678 27.7633L30.6164 48.4162Z" fill="#4A4A49"/>
<path fill-rule="evenodd" clip-rule="evenodd" d="M46.0361 11.2793L46.2244 11.7697L44.9752 12.25V22.0312H44.4502V11.8891L46.0361 11.2793Z" fill="#4A4A49"/>
<path fill-rule="evenodd" clip-rule="evenodd" d="M33.8906 16.353V26.2067L33.3262 26.395V16.6354L33.8906 16.353Z" fill="#4A4A49"/>
<path fill-rule="evenodd" clip-rule="evenodd" d="M31.377 26.9497V17.9468H31.902V26.9497H31.377Z" fill="#4A4A49"/>
<path fill-rule="evenodd" clip-rule="evenodd" d="M21.0687 8.4248L21.1829 8.93757L20.1808 9.161V17.428H19.6558V8.73984L21.0687 8.4248Z" fill="#4A4A49"/>
<path fill-rule="evenodd" clip-rule="evenodd" d="M73.5958 18.7979V27.4027H73.0576V26.8774H73.0707V19.5777L71.896 20.0542V26.9562H71.371V19.7003L73.5958 18.7979Z" fill="#4A4A49"/>
<path fill-rule="evenodd" clip-rule="evenodd" d="M73.0105 32.7911L49.7649 29.1597L49.8459 28.6406L73.0915 32.272L73.0105 32.7911Z" fill="#4A4A49"/>
<path fill-rule="evenodd" clip-rule="evenodd" d="M72.998 28.8161L49.9296 24.0487L50.0358 23.5342L73.1042 28.3016L72.998 28.8161Z" fill="#4A4A49"/>
<path fill-rule="evenodd" clip-rule="evenodd" d="M73.3089 27.6789L49.7483 22.419L49.8626 21.9062L73.4232 27.1662L73.3089 27.6789Z" fill="#4A4A49"/>
<path fill-rule="evenodd" clip-rule="evenodd" d="M41.1425 36.4111C39.1389 35.3312 37.5523 34.8601 35.9921 35.0254C34.3982 35.1923 32.7333 36.025 30.6157 37.7768V48.4229H41.1425V36.4111ZM35.937 34.503C37.6885 34.3174 39.4255 34.8716 41.5311 36.0244L41.6676 36.0991V48.9483H30.251L30.0907 48.7878V37.5306L30.185 37.4518C32.3801 35.6193 34.168 34.6882 35.937 34.503Z" fill="#4A4A49"/>
<path fill-rule="evenodd" clip-rule="evenodd" d="M36.5017 35.9983C38.1028 35.8272 39.6662 36.3605 41.4399 37.4074L41.569 37.4836V48.7182H41.044V37.7843C39.37 36.8151 37.9606 36.3707 36.5575 36.5207C35.1396 36.6723 33.6789 37.4361 31.9216 38.9926V48.7248H31.3966V38.7573L31.484 38.679C33.3169 37.0374 34.9028 36.1693 36.5017 35.9983Z" fill="#4A4A49"/>
<path fill-rule="evenodd" clip-rule="evenodd" d="M69.4704 36.9459C71.1521 37.5332 72.5017 38.2575 73.2731 39.0607L73.3464 39.1369V48.7185H72.8214V39.3507C72.1217 38.6633 70.8959 38.0001 69.2973 37.4419C67.6494 36.8664 65.6335 36.4121 63.4565 36.1545C59.1569 35.6459 54.2651 35.909 50.3633 37.4882V48.7185H49.8383V37.137L49.9998 37.0696C54.0393 35.385 59.1061 35.1109 63.5182 35.6328C65.7268 35.8941 67.7807 36.3558 69.4704 36.9459Z" fill="#4A4A49"/>
<path fill-rule="evenodd" clip-rule="evenodd" d="M49.642 22.4523L45.6743 21.6982L45.7723 21.1821L50.1657 22.0172L50.2451 48.9408L49.7201 48.9423L49.642 22.4523Z" fill="#4A4A49"/>
<path fill-rule="evenodd" clip-rule="evenodd" d="M26.1135 20.354V48.9417H16.6105V48.679H16.348V25.3576L26.1135 20.354ZM16.8731 48.4163H25.5885V21.2132L16.8731 25.6788V48.4163Z" fill="#4A4A49"/>
<path fill-rule="evenodd" clip-rule="evenodd" d="M26.1201 21.7983V48.9417H17.4375V26.5511L26.1201 21.7983ZM17.9625 26.8625V48.4163H25.5951V22.6845L17.9625 26.8625Z" fill="#4A4A49"/>
<path fill-rule="evenodd" clip-rule="evenodd" d="M23.2194 25.7808V30.4414L19.2423 31.9318V27.5813L23.2194 25.7808ZM19.7673 27.9202V31.1741L22.6944 30.0772V26.5951L19.7673 27.9202Z" fill="#4A4A49"/>
<path fill-rule="evenodd" clip-rule="evenodd" d="M23.2194 31.5728V36.2334L19.2423 37.7238V33.3733L23.2194 31.5728ZM19.7673 33.7122V36.966L22.6944 35.8692V32.3871L19.7673 33.7122Z" fill="#4A4A49"/>
<path fill-rule="evenodd" clip-rule="evenodd" d="M23.2194 37.3677V42.2522L19.2423 43.5156V38.9942L23.2194 37.3677ZM19.7673 39.347V42.7977L22.6944 41.8678V38.1499L19.7673 39.347Z" fill="#4A4A49"/>
<path fill-rule="evenodd" clip-rule="evenodd" d="M45.8284 11.124L48.3551 11.8452V22.0764L46.0443 21.6595L46.0909 21.401H45.8284V11.124ZM46.3534 21.1814L47.83 21.4479V12.2416L46.3534 11.8202V21.1814Z" fill="#4A4A49"/>
<path d="M21.3162 8.6748H23.6854V14.9985L21.3162 16.4498V8.6748Z" fill="white"/>
<path fill-rule="evenodd" clip-rule="evenodd" d="M21.0536 8.41211H23.9478V15.1457L21.0536 16.9185V8.41211ZM21.5786 8.93745V15.981L23.4228 14.8513V8.93745H21.5786Z" fill="#4A4A49"/>
<path fill-rule="evenodd" clip-rule="evenodd" d="M74.0617 19.3793L73.2935 19.1582L73.4386 18.6533L74.5867 18.9838V27.7708H74.0617V19.3793Z" fill="#4A4A49"/>
<path fill-rule="evenodd" clip-rule="evenodd" d="M72.7623 27.1392L74.7509 27.4247V49.2896H72.7623V27.1392ZM73.2874 27.7453V48.7643H74.2258V27.88L73.2874 27.7453Z" fill="#4A4A49"/>
<path fill-rule="evenodd" clip-rule="evenodd" d="M62.3011 35.6592L63.7733 35.8567L63.7384 36.117H64.0009V48.7185H62.3011V35.6592ZM63.4759 36.3468L62.8262 36.2597V48.1932H63.4759V36.3468Z" fill="#4A4A49"/>
<path fill-rule="evenodd" clip-rule="evenodd" d="M30.1381 12.8892L30.4107 13.3381L12.2251 24.3944L13.0044 25.3156L12.6037 25.655L11.4274 24.2647L30.1381 12.8892Z" fill="#4A4A49"/>
<path fill-rule="evenodd" clip-rule="evenodd" d="M45.9386 9.89648L74.3323 18.2002L74.185 18.7044L45.9938 10.46L30.3432 18.613L30.1007 18.1471L45.9386 9.89648Z" fill="#4A4A49"/>
<path fill-rule="evenodd" clip-rule="evenodd" d="M71.6224 20.771L62.5788 25.1116L62.3517 24.638L71.3953 20.2974L71.6224 20.771Z" fill="#4A4A49"/>
<path fill-rule="evenodd" clip-rule="evenodd" d="M51.433 24.0737C51.578 24.0737 51.6956 24.1913 51.6956 24.3364V29.0382C51.6956 29.1832 51.578 29.3008 51.433 29.3008C51.2881 29.3008 51.1705 29.1832 51.1705 29.0382V24.3364C51.1705 24.1913 51.2881 24.0737 51.433 24.0737Z" fill="#4A4A49"/>
<path fill-rule="evenodd" clip-rule="evenodd" d="M57.2222 25.1572C57.3672 25.1577 57.4844 25.2756 57.484 25.4207L57.4708 29.9189C57.4704 30.0639 57.3525 30.1812 57.2075 30.1808C57.0626 30.1803 56.9454 30.0624 56.9458 29.9173L56.9589 25.4191C56.9594 25.2741 57.0772 25.1568 57.2222 25.1572Z" fill="#4A4A49"/>
<path fill-rule="evenodd" clip-rule="evenodd" d="M63.0034 26.6016C63.1483 26.6016 63.2659 26.7192 63.2659 26.8642V30.929C63.2659 31.0741 63.1483 31.1917 63.0034 31.1917C62.8584 31.1917 62.7408 31.0741 62.7408 30.929V26.8642C62.7408 26.7192 62.8584 26.6016 63.0034 26.6016Z" fill="#4A4A49"/>
<path fill-rule="evenodd" clip-rule="evenodd" d="M68.8115 27.626C68.9564 27.626 69.074 27.7436 69.074 27.8886V31.809C69.074 31.954 68.9564 32.0716 68.8115 32.0716C68.6665 32.0716 68.549 31.954 68.549 31.809V27.8886C68.549 27.7436 68.6665 27.626 68.8115 27.626Z" fill="#4A4A49"/>
<path fill-rule="evenodd" clip-rule="evenodd" d="M52.8769 24.4346C53.0219 24.4346 53.1394 24.5522 53.1394 24.6972V29.399C53.1394 29.5441 53.0219 29.6617 52.8769 29.6617C52.7319 29.6617 52.6144 29.5441 52.6144 29.399V24.6972C52.6144 24.5522 52.7319 24.4346 52.8769 24.4346Z" fill="#4A4A49"/>
<path fill-rule="evenodd" clip-rule="evenodd" d="M58.6661 25.5181C58.811 25.5185 58.9282 25.6364 58.9278 25.7815L58.9147 30.2075C58.9142 30.3525 58.7964 30.4698 58.6514 30.4694C58.5064 30.4689 58.3892 30.351 58.3896 30.2059L58.4028 25.78C58.4032 25.6349 58.5211 25.5176 58.6661 25.5181Z" fill="#4A4A49"/>
<path fill-rule="evenodd" clip-rule="evenodd" d="M64.4603 26.8975C64.6053 26.8975 64.7228 27.0151 64.7228 27.1601V31.0805C64.7228 31.2255 64.6053 31.3431 64.4603 31.3431C64.3153 31.3431 64.1978 31.2255 64.1978 31.0805V27.1601C64.1978 27.0151 64.3153 26.8975 64.4603 26.8975Z" fill="#4A4A49"/>
<path fill-rule="evenodd" clip-rule="evenodd" d="M70.2618 27.915C70.4068 27.915 70.5243 28.0326 70.5243 28.1777V31.9536C70.5243 32.0986 70.4068 32.2162 70.2618 32.2162C70.1168 32.2162 69.9993 32.0986 69.9993 31.9536V28.1777C69.9993 28.0326 70.1168 27.915 70.2618 27.915Z" fill="#4A4A49"/>
<path fill-rule="evenodd" clip-rule="evenodd" d="M46.0318 6.94092C46.1768 6.94092 46.2943 7.05852 46.2943 7.20359V10.1783C46.2943 10.3234 46.1768 10.441 46.0318 10.441C45.8868 10.441 45.7693 10.3234 45.7693 10.1783V7.20359C45.7693 7.05852 45.8868 6.94092 46.0318 6.94092Z" fill="#4A4A49"/>
<path fill-rule="evenodd" clip-rule="evenodd" d="M74.252 16.1543C74.397 16.1543 74.5145 16.2719 74.5145 16.417V19.2472C74.5145 19.3923 74.397 19.5099 74.252 19.5099C74.107 19.5099 73.9895 19.3923 73.9895 19.2472V16.417C73.9895 16.2719 74.107 16.1543 74.252 16.1543Z" fill="#4A4A49"/>
<path fill-rule="evenodd" clip-rule="evenodd" d="M46.3363 7.07476C46.4039 7.20308 46.3548 7.36196 46.2265 7.42963L30.4101 15.7759C30.2818 15.8436 30.123 15.7944 30.0554 15.6661C29.9878 15.5378 30.0369 15.3789 30.1651 15.3112L45.9816 6.96495C46.1098 6.89728 46.2686 6.94644 46.3363 7.07476Z" fill="#4A4A49"/>
<path fill-rule="evenodd" clip-rule="evenodd" d="M45.9264 7.19499C45.9711 7.05698 46.1191 6.98134 46.257 7.02603L74.2607 16.1012C74.3986 16.1459 74.4742 16.294 74.4296 16.432C74.3849 16.5701 74.2369 16.6457 74.0989 16.601L46.0953 7.52581C45.9573 7.48111 45.8817 7.333 45.9264 7.19499Z" fill="#4A4A49"/>
<path fill-rule="evenodd" clip-rule="evenodd" d="M46.2939 0.271753C46.394 0.376699 46.3902 0.542966 46.2853 0.643121L30.4754 15.74C30.3705 15.8401 30.2043 15.8362 30.1042 15.7313C30.0041 15.6264 30.008 15.4601 30.1129 15.3599L45.9228 0.263076C46.0277 0.162922 46.1938 0.166807 46.2939 0.271753Z" fill="#4A4A49"/>
<path fill-rule="evenodd" clip-rule="evenodd" d="M45.8414 0.00341797L74.381 16.1159C74.5073 16.1872 74.5519 16.3474 74.4806 16.4737C74.4094 16.6001 74.2493 16.6447 74.123 16.5734L46.3665 0.903021V7.19723C46.3665 7.34229 46.2489 7.4599 46.1039 7.4599C45.959 7.4599 45.8414 7.34229 45.8414 7.19723V0.00341797Z" fill="#4A4A49"/>
<path fill-rule="evenodd" clip-rule="evenodd" d="M30.4844 10.5054V15.4712C30.4844 15.6163 30.3669 15.7339 30.2219 15.7339C30.0769 15.7339 29.9594 15.6163 29.9594 15.4712V11.4538L12.0559 22.6628V24.4019C12.0559 24.547 11.9384 24.6646 11.7934 24.6646C11.6484 24.6646 11.5309 24.547 11.5309 24.4019V22.3718L30.4844 10.5054Z" fill="#4A4A49"/>
<path fill-rule="evenodd" clip-rule="evenodd" d="M36.2097 9.90918C36.2351 10.052 36.1399 10.1884 35.9972 10.2137L30.2678 11.2316C30.1251 11.2569 29.9888 11.1617 29.9634 11.0189C29.9381 10.876 30.0333 10.7397 30.176 10.7143L35.9054 9.69647C36.0481 9.67111 36.1844 9.76634 36.2097 9.90918Z" fill="#4A4A49"/>
<path fill-rule="evenodd" clip-rule="evenodd" d="M34.1777 11.998C34.2136 12.1386 34.1288 12.2816 33.9883 12.3175L30.2869 13.2631C30.1464 13.299 30.0034 13.2142 29.9676 13.0736C29.9317 12.9331 30.0165 12.79 30.157 12.7541L33.8584 11.8085C33.9989 11.7726 34.1419 11.8575 34.1777 11.998Z" fill="#4A4A49"/>
<path fill-rule="evenodd" clip-rule="evenodd" d="M12.7516 48.7183H13.2766V49.8807L45.8283 50.7208V48.7183H46.3534V51.2599L12.7516 50.3926V48.7183Z" fill="#4A4A49"/>
<path fill-rule="evenodd" clip-rule="evenodd" d="M45.8414 48.354L74.7836 48.7152V50.7031L45.8414 51.2716V48.354ZM46.3665 48.8859V50.7358L74.2586 50.1879V49.234L46.3665 48.8859Z" fill="#4A4A49"/>
<path fill-rule="evenodd" clip-rule="evenodd" d="M8.18391 51.1219C7.99359 51.1678 7.79671 51.1941 7.5867 51.1941C6.24131 51.1941 5.15188 50.15 5.15188 48.8629C5.15188 48.5674 5.21095 48.285 5.31595 48.0224C4.98781 47.5561 4.79749 46.998 4.79749 46.4004C4.79749 45.0805 5.70972 43.9642 6.96322 43.6096C6.93041 43.4585 6.91729 43.3075 6.91729 43.1499C6.91729 41.8431 8.02641 40.7793 9.39148 40.7793C9.84432 40.7793 10.2643 40.8975 10.6253 41.0945C10.9863 40.8909 11.4128 40.7793 11.8591 40.7793C13.2242 40.7793 14.3333 41.8431 14.3333 43.1499C14.3333 43.3272 14.3136 43.5045 14.2742 43.6686C14.9568 44.2006 15.3965 45.0148 15.3965 45.9276C15.3965 46.1443 15.3702 46.3544 15.3243 46.558C15.7574 46.9783 16.0265 47.5561 16.0265 48.1931C16.0265 49.4802 14.9371 50.5243 13.5917 50.5243C13.5589 50.5243 13.5261 50.5243 13.4998 50.5243C13.0535 51.6078 11.9576 52.3695 10.6712 52.3695C9.64087 52.3695 8.73519 51.8836 8.18391 51.135V51.1219Z" fill="white"/>
<path fill-rule="evenodd" clip-rule="evenodd" d="M10.8021 45.4087C10.9471 45.4085 11.0648 45.526 11.0649 45.6711L11.0781 57.4846C11.0782 57.6296 10.9608 57.7474 10.8158 57.7475C10.6709 57.7477 10.5532 57.6302 10.553 57.4852L10.5399 45.6717C10.5398 45.5266 10.6572 45.4089 10.8021 45.4087Z" fill="#4A4A49"/>
<path fill-rule="evenodd" clip-rule="evenodd" d="M8.05073 48.2021C8.12542 48.0778 8.2867 48.0375 8.41097 48.1123C9.05962 48.5024 9.65599 48.8766 10.1181 49.2681C10.579 49.6585 10.9361 50.0903 11.0638 50.6053C11.0987 50.7461 11.0129 50.8886 10.8722 50.9235C10.7315 50.9585 10.5891 50.8727 10.5542 50.7319C10.4654 50.3735 10.2055 50.0304 9.77882 49.669C9.35327 49.3085 8.7913 48.9539 8.14051 48.5626C8.01624 48.4878 7.97605 48.3264 8.05073 48.2021Z" fill="#4A4A49"/>
<path fill-rule="evenodd" clip-rule="evenodd" d="M13.4582 47.0431C13.5419 47.1616 13.5138 47.3255 13.3955 47.4093C13.1606 47.5755 12.9197 47.7302 12.6902 47.8776C12.651 47.9028 12.6121 47.9278 12.5736 47.9526C12.3071 48.1243 12.0603 48.287 11.8436 48.4565C11.4084 48.7969 11.1326 49.1355 11.0687 49.5647C11.0473 49.7082 10.9138 49.8072 10.7704 49.7858C10.627 49.7644 10.528 49.6308 10.5494 49.4873C10.643 48.8593 11.0465 48.4131 11.5203 48.0426C11.758 47.8567 12.0231 47.6825 12.2894 47.5109C12.329 47.4854 12.3687 47.4599 12.4083 47.4344C12.6381 47.2868 12.8679 47.1392 13.0923 46.9804C13.2106 46.8966 13.3745 46.9247 13.4582 47.0431Z" fill="#4A4A49"/>
<path fill-rule="evenodd" clip-rule="evenodd" d="M8.12476 57.8003C8.12476 57.6552 8.24229 57.5376 8.38727 57.5376H12.3578C12.5028 57.5376 12.6203 57.6552 12.6203 57.8003C12.6203 57.9453 12.5028 58.0629 12.3578 58.0629H8.38727C8.24229 58.0629 8.12476 57.9453 8.12476 57.8003Z" fill="#4A4A49"/>
<path fill-rule="evenodd" clip-rule="evenodd" d="M53.4946 58.6001C49.4923 56.601 46.6968 57.7863 45.8402 58.5601C45.7325 58.6573 45.5665 58.6488 45.4694 58.5411C45.3722 58.4335 45.3807 58.2674 45.4883 58.1702C46.5218 57.2366 49.5541 56.0448 53.7291 58.1301C53.8588 58.1949 53.9115 58.3526 53.8467 58.4824C53.782 58.6122 53.6243 58.6649 53.4946 58.6001Z" fill="#4A4A49"/>
<path fill-rule="evenodd" clip-rule="evenodd" d="M7.44095 42.593C7.41805 42.9321 7.4621 43.2873 7.53752 43.5891L7.63228 43.9684L7.24255 43.9962C6.37289 44.0584 5.80137 44.3002 5.43427 44.6102C5.06967 44.9181 4.87916 45.3163 4.81156 45.7471C4.74321 46.1826 4.80171 46.6489 4.93782 47.0669C5.07488 47.4877 5.28164 47.8324 5.48235 48.0333L5.59103 48.142L5.57712 48.2952C5.45401 49.6502 5.88882 50.3087 6.39482 50.6317C6.93302 50.9753 7.6413 50.9981 8.13925 50.8985L8.31146 50.864L8.43564 50.9883C8.99155 51.5445 9.53041 51.8397 10.0295 51.9662C10.5283 52.0926 11.0076 52.0557 11.4529 51.9167C12.3548 51.6349 13.1058 50.9359 13.5166 50.3707L13.5868 50.2742L13.7024 50.2452C15.2011 49.8704 15.6602 49.2053 15.7462 48.6199C15.8397 47.983 15.5206 47.2845 15.1637 46.8253L15.0185 46.6385L15.1497 46.4416C15.3795 46.0967 15.4599 45.7862 15.4556 45.5126C15.4512 45.2363 15.3601 44.9731 15.2089 44.7273C14.9011 44.2269 14.3668 43.8359 13.9634 43.6341L13.7433 43.5239L13.7873 43.2817C13.9108 42.6022 13.8334 42.1694 13.6812 41.8969C13.5332 41.6319 13.2865 41.4688 12.9551 41.385C12.2644 41.2104 11.3093 41.411 10.6184 41.6768L10.5006 41.7222L10.3828 41.6768C9.55572 41.3585 8.95838 41.2734 8.53593 41.3173C8.1254 41.36 7.87674 41.5239 7.71869 41.7328C7.5529 41.9519 7.464 42.2516 7.44095 42.593ZM10.5013 41.0198C9.67608 40.7152 9.00685 40.6081 8.46808 40.6642C7.89213 40.7241 7.47221 40.9706 7.19546 41.3364C6.92647 41.6918 6.81438 42.1308 6.78616 42.5487C6.76709 42.831 6.78539 43.1153 6.82634 43.3792C6.04288 43.4855 5.44551 43.7414 5.01099 44.1084C4.50807 44.5331 4.25148 45.0829 4.16321 45.6453C4.07569 46.203 4.15255 46.7751 4.31382 47.2703C4.45431 47.7017 4.66569 48.0955 4.91199 48.3826C4.8164 49.8296 5.3037 50.7142 6.04186 51.1853C6.70462 51.6084 7.50643 51.6559 8.09443 51.572C8.6806 52.1251 9.27799 52.4531 9.86833 52.6027C10.5002 52.7629 11.1038 52.7136 11.6484 52.5435C12.673 52.2235 13.498 51.4745 13.9757 50.8527C15.5476 50.4312 16.2604 49.6348 16.3955 48.7154C16.5118 47.9234 16.1795 47.1411 15.8168 46.6079C16.026 46.2322 16.1174 45.8607 16.1118 45.5022C16.1052 45.0836 15.9667 44.7064 15.7678 44.3832C15.432 43.8371 14.9096 43.4195 14.4702 43.1626C14.5563 42.5083 14.4806 41.982 14.2541 41.5765C13.9967 41.1157 13.5747 40.8643 13.1159 40.7483C12.2729 40.5353 11.2303 40.7567 10.5013 41.0198Z" fill="#4A4A49"/>
</g>
<defs>
<clipPath id="clip0_114_1930">
<rect width="118" height="60" fill="white"/>
</clipPath>
</defs>
</svg>
