<svg width="25" height="25" viewBox="0 0 25 25" fill="none" xmlns="http://www.w3.org/2000/svg">
<g clip-path="url(#clip0_72_525)">
<path d="M21.3379 0H3.66211C1.64307 0 0 1.64307 0 3.66211V21.3379C0 23.3574 1.64307 25 3.66211 25H21.3379C23.3574 25 25 23.3574 25 21.3379V3.66211C25 1.64307 23.3574 0 21.3379 0ZM23.5352 21.3379C23.5352 22.5493 22.5493 23.5352 21.3379 23.5352H3.66211C2.45068 23.5352 1.46484 22.5493 1.46484 21.3379V3.66211C1.46484 2.45068 2.45068 1.46484 3.66211 1.46484H21.3379C22.5493 1.46484 23.5352 2.45068 23.5352 3.66211V21.3379Z" fill="#BDBDBD"/>
<path d="M20.5585 2.97852C19.7509 2.97852 19.0938 3.63574 19.0938 4.44336C19.0938 5.25098 19.7509 5.9082 20.5585 5.9082C21.3661 5.9082 22.0233 5.25098 22.0233 4.44336C22.0233 3.63574 21.3661 2.97852 20.5585 2.97852Z" fill="#BDBDBD"/>
<path d="M12.498 5.9082C8.86328 5.9082 5.90625 8.86523 5.90625 12.5C5.90625 16.1348 8.86328 19.0918 12.498 19.0918C16.1328 19.0918 19.0898 16.1348 19.0898 12.5C19.0898 8.86523 16.1328 5.9082 12.498 5.9082ZM12.498 17.627C9.6709 17.627 7.37109 15.3271 7.37109 12.5C7.37109 9.67285 9.6709 7.37305 12.498 7.37305C15.3252 7.37305 17.625 9.67285 17.625 12.5C17.625 15.3271 15.3252 17.627 12.498 17.627Z" fill="#BDBDBD"/>
</g>
<defs>
<clipPath id="clip0_72_525">
<rect width="25" height="25" fill="white"/>
</clipPath>
</defs>
</svg>
