<svg width="151" height="74" viewBox="0 0 151 74" fill="none" xmlns="http://www.w3.org/2000/svg">
<path d="M75.9092 0.833496C34.4778 0.833496 0.90918 17.1978 0.90918 37.4072C0.90918 57.5868 34.4778 73.9808 75.9092 73.9808C117.308 73.9808 150.909 57.6166 150.909 37.4072C150.909 17.1978 117.308 0.833496 75.9092 0.833496Z" fill="#58595B"/>
<path d="M75.9092 0.833496C34.4778 0.833496 0.90918 17.1978 0.90918 37.4072C0.90918 57.5868 34.4778 73.9511 75.8771 73.9511C117.276 73.9511 150.877 57.5868 150.877 37.4072C150.877 17.1978 117.308 0.833496 75.9092 0.833496Z" fill="#595A5C"/>
<path d="M75.9092 0.863281C34.51 0.863281 0.941345 17.2276 0.941345 37.4071C0.941345 57.5867 34.51 73.951 75.9092 73.951C117.308 73.951 150.877 57.5867 150.877 37.4071C150.877 17.2276 117.308 0.863281 75.9092 0.863281Z" fill="#5A5B5D"/>
<path d="M75.9092 0.863281C34.51 0.863281 0.941345 17.2276 0.941345 37.4071C0.941345 57.5867 34.51 73.951 75.9092 73.951C117.308 73.951 150.877 57.5867 150.877 37.4071C150.877 17.2276 117.308 0.863281 75.9092 0.863281Z" fill="#5B5C5E"/>
<path d="M75.9092 0.863281C34.51 0.863281 0.941345 17.2276 0.941345 37.4071C0.941345 57.5867 34.51 73.951 75.9092 73.951C117.308 73.951 150.877 57.5867 150.877 37.4071C150.877 17.2276 117.308 0.863281 75.9092 0.863281Z" fill="#5C5C5F"/>
<path d="M75.9092 0.863281C34.51 0.863281 0.941345 17.2276 0.941345 37.4071C0.941345 57.5867 34.51 73.951 75.8771 73.951C117.276 73.951 150.845 57.5867 150.845 37.4071C150.845 17.2276 117.308 0.863281 75.9092 0.863281Z" fill="#5C5D60"/>
<path d="M75.9097 0.863281C34.5104 0.863281 0.973816 17.2276 0.973816 37.4071C0.973816 57.5867 34.5425 73.9213 75.9097 73.9213C117.309 73.9213 150.846 57.557 150.846 37.4071C150.846 17.2276 117.309 0.863281 75.9097 0.863281Z" fill="#5D5E60"/>
<path d="M75.9097 0.893066C34.5104 0.893066 0.973816 17.2275 0.973816 37.4071C0.973816 57.5868 34.5104 73.9212 75.9097 73.9212C117.309 73.9212 150.846 57.5569 150.846 37.4071C150.846 17.2275 117.277 0.893066 75.9097 0.893066Z" fill="#5E5F61"/>
<path d="M75.9097 0.893066C34.5425 0.893066 0.973816 17.2275 0.973816 37.4071C0.973816 57.5569 34.5104 73.9212 75.9097 73.9212C117.277 73.9212 150.846 57.5868 150.846 37.4071C150.846 17.2275 117.277 0.893066 75.9097 0.893066Z" fill="#5F6062"/>
<path d="M75.9088 0.893066C34.5416 0.893066 1.00507 17.2574 1.00507 37.4071C1.00507 57.5569 34.5416 73.9212 75.9088 73.9212C117.276 73.9212 150.845 57.5868 150.845 37.4071C150.845 17.2574 117.276 0.893066 75.9088 0.893066Z" fill="#606163"/>
<path d="M75.9088 0.922974C34.5416 0.922974 1.00507 17.2574 1.00507 37.4072C1.00507 57.5571 34.5416 73.8914 75.9088 73.8914C117.276 73.8914 150.813 57.5571 150.813 37.4072C150.813 17.2574 117.276 0.922974 75.9088 0.922974Z" fill="#616264"/>
<path d="M75.9088 0.922974C34.5416 0.922974 1.00507 17.2574 1.00507 37.4072C1.00507 57.5571 34.5416 73.8914 75.9088 73.8914C117.276 73.8914 150.813 57.5571 150.813 37.4072C150.813 17.2574 117.276 0.922974 75.9088 0.922974Z" fill="#616265"/>
<path d="M75.9088 0.922974C34.5416 0.922974 1.00507 17.2574 1.00507 37.4072C1.00507 57.5571 34.5416 73.8914 75.9088 73.8914C117.276 73.8914 150.813 57.5571 150.813 37.4072C150.813 17.2574 117.276 0.922974 75.9088 0.922974Z" fill="#626366"/>
<path d="M75.9092 0.922974C34.542 0.922974 1.03748 17.2574 1.03748 37.4072C1.03748 57.5571 34.574 73.8914 75.9092 73.8914C117.276 73.8914 150.813 57.5571 150.813 37.4072C150.813 17.2574 117.276 0.922974 75.9092 0.922974Z" fill="#636467"/>
<path d="M75.9092 0.922974C34.574 0.922974 1.03748 17.2574 1.03748 37.4072C1.03748 57.5571 34.574 73.8617 75.9092 73.8617C117.276 73.8617 150.781 57.5571 150.781 37.4072C150.781 17.2574 117.276 0.922974 75.9092 0.922974Z" fill="#646567"/>
<path d="M75.9092 0.952759C34.574 0.952759 1.03748 17.2574 1.03748 37.4072C1.03748 57.557 34.574 73.8616 75.9092 73.8616C117.244 73.8616 150.781 57.557 150.781 37.4072C150.781 17.2574 117.244 0.952759 75.9092 0.952759Z" fill="#656668"/>
<path d="M75.9092 0.952759C34.574 0.952759 1.03748 17.2872 1.03748 37.4072C1.03748 57.5272 34.574 73.8616 75.9092 73.8616C117.244 73.8616 150.781 57.5272 150.781 37.4072C150.781 17.2872 117.244 0.952759 75.9092 0.952759Z" fill="#656769"/>
<path d="M75.9092 0.952759C34.5742 0.952759 1.06964 17.2872 1.06964 37.4072C1.06964 57.5272 34.5742 73.8616 75.9092 73.8616C117.244 73.8616 150.781 57.5272 150.781 37.4072C150.781 17.2872 117.244 0.952759 75.9092 0.952759Z" fill="#66686A"/>
<path d="M75.9092 0.952759C34.5742 0.952759 1.06964 17.2872 1.06964 37.4072C1.06964 57.5272 34.5742 73.8616 75.9092 73.8616C117.244 73.8616 150.781 57.5272 150.781 37.4072C150.781 17.2872 117.244 0.952759 75.9092 0.952759Z" fill="#67686B"/>
<path d="M75.9092 0.982544C34.5742 0.982544 1.06964 17.2872 1.06964 37.4072C1.06964 57.5272 34.5742 73.8318 75.9092 73.8318C117.244 73.8318 150.748 57.5272 150.748 37.4072C150.748 17.2872 117.244 0.982544 75.9092 0.982544Z" fill="#68696C"/>
<path d="M75.9096 0.982544C34.6066 0.982544 1.10211 17.2872 1.10211 37.4072C1.10211 57.5272 34.6066 73.8318 75.9416 73.8318C117.277 73.8318 150.781 57.5272 150.781 37.4072C150.749 17.2872 117.245 0.982544 75.9096 0.982544Z" fill="#696A6C"/>
<path d="M75.9096 0.982544C34.6066 0.982544 1.10211 17.2872 1.10211 37.4072C1.10211 57.5272 34.6066 73.8318 75.9096 73.8318C117.245 73.8318 150.749 57.5272 150.749 37.4072C150.749 17.2872 117.245 0.982544 75.9096 0.982544Z" fill="#696B6D"/>
<path d="M75.9095 0.982544C34.6066 0.982544 1.10211 17.2872 1.10211 37.4072C1.10211 57.5272 34.6066 73.802 75.9095 73.802C117.212 73.802 150.716 57.4973 150.716 37.4072C150.749 17.2872 117.245 0.982544 75.9095 0.982544Z" fill="#6A6C6E"/>
<path d="M75.9096 1.01233C34.6066 1.01233 1.10211 17.317 1.10211 37.4071C1.10211 57.4973 34.6066 73.802 75.9096 73.802C117.212 73.802 150.717 57.4973 150.717 37.4071C150.717 17.317 117.245 1.01233 75.9096 1.01233Z" fill="#6B6C6F"/>
<path d="M75.9097 1.01233C34.6066 1.01233 1.13428 17.317 1.13428 37.4071C1.13428 57.4973 34.6388 73.802 75.9417 73.802C117.245 73.802 150.749 57.4973 150.749 37.4071C150.717 17.317 117.213 1.01233 75.9097 1.01233Z" fill="#6C6D70"/>
<path d="M75.9097 1.01233C34.6066 1.01233 1.13428 17.317 1.13428 37.4071C1.13428 57.4973 34.6066 73.802 75.9097 73.802C117.213 73.802 150.717 57.4973 150.717 37.4071C150.717 17.317 117.213 1.01233 75.9097 1.01233Z" fill="#6D6E70"/>
<path d="M75.9097 1.01233C34.6066 1.01233 1.13428 17.2871 1.13428 37.4071C1.13428 57.4973 34.6066 73.802 75.9097 73.802C117.213 73.802 150.685 57.4973 150.685 37.4071C150.717 17.317 117.213 1.01233 75.9097 1.01233Z" fill="#6D6F71"/>
<path d="M75.9097 1.04211C34.6066 1.04211 1.13428 17.317 1.13428 37.4071C1.13428 57.4973 34.6066 73.7722 75.9097 73.7722C117.213 73.7722 150.685 57.4973 150.685 37.4071C150.685 17.317 117.213 1.04211 75.9097 1.04211Z" fill="#6E7072"/>
<path d="M75.9097 1.04211C34.6066 1.04211 1.13428 17.317 1.13428 37.4071C1.13428 57.4973 34.6066 73.7722 75.9097 73.7722C117.213 73.7722 150.685 57.4973 150.685 37.4071C150.685 17.317 117.213 1.04211 75.9097 1.04211Z" fill="#6F7073"/>
<path d="M75.9088 1.04211C34.638 1.04211 1.16553 17.317 1.16553 37.4071C1.16553 57.4973 34.638 73.7722 75.9088 73.7722C117.18 73.7722 150.684 57.4973 150.684 37.4071C150.684 17.317 117.212 1.04211 75.9088 1.04211Z" fill="#707174"/>
<path d="M75.9088 1.04211C34.638 1.04211 1.16553 17.3467 1.16553 37.4071C1.16553 57.4676 34.638 73.7722 75.9088 73.7722C117.18 73.7722 150.652 57.4973 150.652 37.4071C150.684 17.3467 117.212 1.04211 75.9088 1.04211Z" fill="#707274"/>
<path d="M75.9413 1.07178C34.6383 1.07178 1.198 17.3466 1.198 37.407C1.198 57.4673 34.6704 73.7422 75.9413 73.7422C117.212 73.7422 150.685 57.4673 150.685 37.407C150.685 17.3466 117.212 1.07178 75.9413 1.07178Z" fill="#717375"/>
<path d="M75.9413 1.07178C34.6704 1.07178 1.198 17.3466 1.198 37.407C1.198 57.4673 34.6704 73.7422 75.9413 73.7422C117.212 73.7422 150.685 57.4673 150.685 37.407C150.652 17.3466 117.212 1.07178 75.9413 1.07178Z" fill="#727476"/>
<path d="M75.9413 1.07178C34.6704 1.07178 1.198 17.3466 1.198 37.407C1.198 57.4673 34.6383 73.7422 75.9092 73.7422C117.18 73.7422 150.652 57.4673 150.652 37.407C150.652 17.3466 117.18 1.07178 75.9413 1.07178Z" fill="#737477"/>
<path d="M75.9413 1.07178C34.6704 1.07178 1.198 17.3466 1.198 37.407C1.198 57.4673 34.6383 73.7422 75.9092 73.7422C117.18 73.7422 150.62 57.4673 150.62 37.407C150.652 17.3466 117.18 1.07178 75.9413 1.07178Z" fill="#747578"/>
<path d="M75.9413 1.10156C34.6704 1.10156 1.23016 17.3466 1.23016 37.407C1.23016 57.4673 34.6704 73.7422 75.9413 73.7422C117.212 73.7422 150.653 57.4674 150.653 37.4367C150.653 17.3466 117.18 1.10156 75.9413 1.10156Z" fill="#747678"/>
<path d="M75.9413 1.10156C34.6704 1.10156 1.23016 17.3466 1.23016 37.407C1.23016 57.4673 34.6704 73.7123 75.9413 73.7123C117.18 73.7123 150.653 57.4673 150.653 37.407C150.62 17.3466 117.18 1.10156 75.9413 1.10156Z" fill="#757779"/>
<path d="M75.9413 1.10156C34.6704 1.10156 1.23016 17.3764 1.23016 37.407C1.23016 57.4673 34.6704 73.7123 75.9413 73.7123C117.18 73.7123 150.653 57.4673 150.653 37.407C150.62 17.3764 117.18 1.10156 75.9413 1.10156Z" fill="#76777A"/>
<path d="M75.9416 1.10156C34.7028 1.10156 1.26257 17.3764 1.26257 37.407C1.26257 57.4375 34.7028 73.7123 75.9416 73.7123C117.18 73.7123 150.62 57.4673 150.62 37.407C150.62 17.3764 117.18 1.10156 75.9416 1.10156Z" fill="#77787B"/>
<path d="M75.9416 1.13135C34.7028 1.13135 1.26257 17.3764 1.26257 37.407C1.26257 57.4375 34.7028 73.6825 75.9416 73.6825C117.18 73.6825 150.62 57.4375 150.62 37.407C150.62 17.3764 117.18 1.13135 75.9416 1.13135Z" fill="#77797B"/>
<path d="M75.9416 1.13135C34.7028 1.13135 1.26257 17.3764 1.26257 37.407C1.26257 57.4375 34.7028 73.6825 75.9416 73.6825C117.18 73.6825 150.62 57.4375 150.62 37.407C150.62 17.3764 117.18 1.13135 75.9416 1.13135Z" fill="#787A7C"/>
<path d="M75.9416 1.13135C34.7028 1.13135 1.26257 17.3764 1.26257 37.407C1.26257 57.4375 34.7028 73.6825 75.9095 73.6825C117.148 73.6825 150.588 57.4375 150.588 37.407C150.588 17.3764 117.18 1.13135 75.9416 1.13135Z" fill="#797A7D"/>
<path d="M75.9409 1.13135C34.7021 1.13135 1.29382 17.3764 1.29382 37.407C1.29382 57.4375 34.7021 73.6825 75.9409 73.6825C117.18 73.6825 150.587 57.4375 150.587 37.407C150.587 17.3764 117.147 1.13135 75.9409 1.13135Z" fill="#7A7B7E"/>
<path d="M75.9409 1.16125C34.7021 1.16125 1.29382 17.3764 1.29382 37.4071C1.29382 57.4377 34.7021 73.6528 75.9409 73.6528C117.147 73.6528 150.587 57.4078 150.587 37.4071C150.587 17.3764 117.147 1.16125 75.9409 1.16125Z" fill="#7A7C7F"/>
<path d="M75.9409 1.16125C34.7342 1.16125 1.29382 17.3764 1.29382 37.4071C1.29382 57.4377 34.7021 73.6528 75.9409 73.6528C117.147 73.6528 150.587 57.4078 150.587 37.4071C150.587 17.3764 117.147 1.16125 75.9409 1.16125Z" fill="#7B7D7F"/>
<path d="M75.9409 1.16125C34.7342 1.16125 1.32599 17.4063 1.32599 37.4071C1.32599 57.4377 34.7342 73.6528 75.9409 73.6528C117.148 73.6528 150.555 57.4377 150.555 37.4071C150.555 17.4063 117.148 1.16125 75.9409 1.16125Z" fill="#7C7D80"/>
<path d="M75.9409 1.16125C34.7342 1.16125 1.32599 17.4063 1.32599 37.4071C1.32599 57.4078 34.7342 73.6528 75.9409 73.6528C117.148 73.6528 150.555 57.4377 150.555 37.4071C150.555 17.4063 117.148 1.16125 75.9409 1.16125Z" fill="#7C7E81"/>
<path d="M75.9409 1.19104C34.7342 1.19104 1.32599 17.4063 1.32599 37.407C1.32599 57.4078 34.7342 73.6528 75.9409 73.6528C117.148 73.6528 150.555 57.4376 150.555 37.407C150.555 17.4063 117.148 1.19104 75.9409 1.19104Z" fill="#7D7F82"/>
<path d="M75.9409 1.19104C34.7342 1.19104 1.32599 17.4063 1.32599 37.407C1.32599 57.4078 34.7342 73.623 75.9409 73.623C117.148 73.623 150.555 57.4078 150.555 37.407C150.555 17.4063 117.148 1.19104 75.9409 1.19104Z" fill="#7E8082"/>
<path d="M75.9413 1.19104C34.7345 1.19104 1.35846 17.4063 1.35846 37.407C1.35846 57.4078 34.7667 73.623 75.9413 73.623C117.148 73.623 150.557 57.4078 150.557 37.407C150.524 17.4063 117.148 1.19104 75.9413 1.19104Z" fill="#7F8083"/>
<path d="M75.9413 1.19104C34.7667 1.19104 1.35846 17.4063 1.35846 37.407C1.35846 57.4078 34.7667 73.623 75.9413 73.623C117.148 73.623 150.524 57.4078 150.524 37.407C150.524 17.4063 117.116 1.19104 75.9413 1.19104Z" fill="#7F8184"/>
<path d="M75.9413 1.22095C34.7667 1.22095 1.35846 17.4064 1.35846 37.4071C1.35846 57.4079 34.7345 73.6231 75.9413 73.6231C117.116 73.6231 150.524 57.4079 150.524 37.4071C150.524 17.4064 117.116 1.22095 75.9413 1.22095Z" fill="#808285"/>
<path d="M75.9414 1.22095C34.7668 1.22095 1.39062 17.4362 1.39062 37.4071C1.39062 57.4079 34.7668 73.5933 75.9735 73.5933C117.148 73.5933 150.557 57.3781 150.557 37.4071C150.524 17.4362 117.116 1.22095 75.9414 1.22095Z" fill="#818385"/>
<path d="M75.9414 1.22095C34.7668 1.22095 1.39062 17.4362 1.39062 37.4071C1.39062 57.3781 34.7668 73.5933 75.9414 73.5933C117.116 73.5933 150.492 57.3781 150.492 37.4071C150.524 17.4362 117.116 1.22095 75.9414 1.22095Z" fill="#828386"/>
<path d="M75.9414 1.22095C34.7668 1.22095 1.39062 17.4362 1.39062 37.4071C1.39062 57.3781 34.7668 73.5933 75.9414 73.5933C117.116 73.5933 150.492 57.3781 150.492 37.4071C150.492 17.4362 117.116 1.22095 75.9414 1.22095Z" fill="#828487"/>
<path d="M75.9414 1.25073C34.7668 1.25073 1.39062 17.4361 1.39062 37.4071C1.39062 57.378 34.7668 73.5933 75.9414 73.5933C117.116 73.5933 150.492 57.4078 150.492 37.4071C150.492 17.4361 117.116 1.25073 75.9414 1.25073Z" fill="#838588"/>
<path d="M75.9418 1.25073C34.7992 1.25073 1.4231 17.4361 1.4231 37.4071C1.4231 57.378 34.7992 73.5634 75.9418 73.5634C117.116 73.5634 150.492 57.378 150.492 37.4071C150.492 17.4361 117.116 1.25073 75.9418 1.25073Z" fill="#848688"/>
<path d="M75.9417 1.25073C34.7992 1.25073 1.4231 17.4361 1.4231 37.4071C1.4231 57.378 34.7992 73.5634 75.9417 73.5634C117.116 73.5634 150.46 57.378 150.46 37.4071C150.492 17.4361 117.116 1.25073 75.9417 1.25073Z" fill="#858689"/>
<path d="M75.9417 1.25073C34.7992 1.25073 1.4231 17.4361 1.4231 37.4071C1.4231 57.378 34.7992 73.5634 75.9417 73.5634C117.116 73.5634 150.46 57.378 150.46 37.4071C150.46 17.4361 117.116 1.25073 75.9417 1.25073Z" fill="#85878A"/>
<path d="M75.9417 1.28052C34.7992 1.28052 1.4231 17.466 1.4231 37.4071C1.4231 57.3781 34.7992 73.5634 75.9417 73.5634C117.084 73.5634 150.46 57.3781 150.46 37.4071C150.46 17.466 117.084 1.28052 75.9417 1.28052Z" fill="#86888B"/>
<path d="M75.9409 1.28052C34.7983 1.28052 1.45435 17.466 1.45435 37.4071C1.45435 57.3781 34.7983 73.5337 75.9409 73.5337C117.083 73.5634 150.459 57.3781 150.459 37.4071C150.459 17.466 117.083 1.28052 75.9409 1.28052Z" fill="#87898B"/>
<path d="M75.9409 1.28052C34.7983 1.28052 1.45435 17.466 1.45435 37.4071C1.45435 57.3781 34.7983 73.5634 75.9409 73.5634C117.083 73.5634 150.459 57.3781 150.459 37.4071C150.459 17.466 117.083 1.28052 75.9409 1.28052Z" fill="#88898C"/>
<path d="M75.9409 1.28052C34.7983 1.28052 1.45435 17.466 1.45435 37.4368C1.45435 57.3781 34.7983 73.5634 75.9409 73.5634C117.083 73.5634 150.427 57.3781 150.427 37.4368C150.427 17.466 117.083 1.28052 75.9409 1.28052Z" fill="#888A8D"/>
<path d="M75.9412 1.3103C34.8307 1.3103 1.48676 17.4659 1.48676 37.4368C1.48676 57.3781 34.8307 73.5634 75.9733 73.5634C117.116 73.5634 150.46 57.3781 150.46 37.4368C150.427 17.4659 117.084 1.3103 75.9412 1.3103Z" fill="#898B8E"/>
<path d="M75.9412 1.3103C34.8307 1.3103 1.48676 17.4659 1.48676 37.4368C1.48676 57.3779 34.8307 73.5336 75.9412 73.5336C117.084 73.5336 150.427 57.3779 150.427 37.4368C150.427 17.4659 117.084 1.3103 75.9412 1.3103Z" fill="#8A8C8E"/>
<path d="M75.9412 1.3103C34.8307 1.3103 1.48676 17.4659 1.48676 37.4071C1.48676 57.3482 34.8307 73.5038 75.9412 73.5038C117.052 73.5038 150.396 57.3482 150.396 37.4071C150.427 17.4659 117.084 1.3103 75.9412 1.3103Z" fill="#8A8C8F"/>
<path d="M75.9412 1.3103C34.8307 1.3103 1.48676 17.4659 1.48676 37.4071C1.48676 57.3482 34.8307 73.5038 75.9412 73.5038C117.052 73.5038 150.396 57.3482 150.396 37.4071C150.427 17.4958 117.084 1.3103 75.9412 1.3103Z" fill="#8B8D90"/>
<path d="M75.9412 1.34021C34.8307 1.34021 1.48676 17.4958 1.48676 37.4369C1.48676 57.3781 34.8307 73.5337 75.9412 73.5337C117.052 73.5337 150.396 57.3781 150.396 37.4369C150.396 17.4958 117.084 1.34021 75.9412 1.34021Z" fill="#8C8E91"/>
<path d="M75.9412 1.34021C34.8309 1.34021 1.51892 17.4958 1.51892 37.437C1.51892 57.3482 34.8629 73.5039 75.9412 73.5039C117.052 73.5039 150.396 57.3482 150.396 37.437C150.396 17.4958 117.052 1.34021 75.9412 1.34021Z" fill="#8D8F91"/>
<path d="M75.9412 1.34021C34.8629 1.34021 1.51892 17.4958 1.51892 37.437C1.51892 57.3482 34.8309 73.5039 75.9412 73.5039C117.052 73.5039 150.364 57.3482 150.364 37.437C150.396 17.4958 117.052 1.34021 75.9412 1.34021Z" fill="#8D8F92"/>
<path d="M75.9416 1.34021C34.8633 1.34021 1.55139 17.4958 1.55139 37.437C1.55139 57.3482 34.8633 73.5039 75.9737 73.5039C117.084 73.5039 150.396 57.3482 150.396 37.437C150.396 17.4958 117.052 1.34021 75.9416 1.34021Z" fill="#8E9093"/>
<path d="M75.9416 1.37C34.8633 1.37 1.55139 17.4958 1.55139 37.4369C1.55139 57.3483 34.8633 73.5039 75.9737 73.5039C117.084 73.5039 150.396 57.3483 150.396 37.4369C150.364 17.4958 117.052 1.37 75.9416 1.37Z" fill="#8F9194"/>
<path d="M75.9737 1.37C34.8633 1.37 1.55139 17.4958 1.55139 37.4369C1.55139 57.3483 34.8633 73.5039 75.9416 73.5039C117.02 73.5039 150.364 57.3483 150.364 37.4369C150.364 17.4958 117.052 1.37 75.9737 1.37Z" fill="#909294"/>
<path d="M75.9737 1.37C34.8633 1.37 1.55139 17.5256 1.55139 37.4369C1.55139 57.3483 34.8633 73.4741 75.9416 73.4741C117.02 73.4741 150.332 57.3483 150.332 37.4369C150.364 17.5256 117.052 1.37 75.9737 1.37Z" fill="#909395"/>
<path d="M75.9738 1.37C34.8633 1.37 1.58356 17.5256 1.58356 37.4369C1.58356 57.3483 34.8955 73.4741 75.9738 73.4741C117.052 73.4741 150.364 57.3483 150.364 37.4369C150.364 17.5256 117.052 1.37 75.9738 1.37Z" fill="#919396"/>
<path d="M75.9738 1.39978C34.8955 1.39978 1.58356 17.5256 1.58356 37.437C1.58356 57.3482 34.8955 73.4741 75.9738 73.4741C117.052 73.4741 150.364 57.3482 150.364 37.437C150.364 17.5256 117.052 1.39978 75.9738 1.39978Z" fill="#929497"/>
<path d="M75.9738 1.39978C34.8955 1.39978 1.58356 17.5256 1.58356 37.437C1.58356 57.3184 34.8955 73.4741 75.9418 73.4741C117.02 73.4741 150.332 57.3482 150.332 37.437C150.332 17.5256 117.02 1.39978 75.9738 1.39978Z" fill="#939597"/>
<path d="M75.9738 1.39978C34.8955 1.39978 1.58356 17.5256 1.58356 37.437C1.58356 57.3184 34.8635 73.4443 75.9418 73.4443C117.02 73.4443 150.299 57.3184 150.299 37.437C150.332 17.5256 117.02 1.39978 75.9738 1.39978Z" fill="#939698"/>
<path d="M75.973 1.39978C34.8947 1.39978 1.61481 17.5256 1.61481 37.437C1.61481 57.3184 34.8947 73.4443 75.973 73.4443C117.051 73.4443 150.331 57.3184 150.331 37.437C150.331 17.5256 117.019 1.39978 75.973 1.39978Z" fill="#949699"/>
<path d="M75.973 1.42957C34.8947 1.42957 1.61481 17.5256 1.61481 37.4369C1.61481 57.3184 34.8947 73.4442 75.973 73.4442C117.019 73.4442 150.331 57.3184 150.331 37.4369C150.331 17.5256 117.019 1.42957 75.973 1.42957Z" fill="#95979A"/>
<path d="M75.973 1.42957C34.8947 1.42957 1.61481 17.5553 1.61481 37.4369C1.61481 57.3184 34.8947 73.4442 75.9409 73.4442C116.987 73.4442 150.299 57.3184 150.299 37.4369C150.299 17.5553 117.019 1.42957 75.973 1.42957Z" fill="#96989A"/>
<path d="M75.9733 1.42957C34.9271 1.42957 1.64728 17.5553 1.64728 37.4369C1.64728 57.3184 34.9271 73.4144 75.9733 73.4144C117.02 73.4144 150.299 57.2886 150.299 37.4369C150.299 17.5553 117.02 1.42957 75.9733 1.42957Z" fill="#97999B"/>
<path d="M75.9733 1.42957C34.9271 1.42957 1.64728 17.5553 1.64728 37.4369C1.64728 57.3184 34.9271 73.4144 75.9733 73.4144C117.02 73.4144 150.299 57.2886 150.299 37.4369C150.299 17.5553 117.02 1.42957 75.9733 1.42957Z" fill="#97999C"/>
<path d="M75.9733 1.45935C34.9271 1.45935 1.64728 17.5553 1.64728 37.4369C1.64728 57.2886 34.9271 73.4144 75.9733 73.4144C117.02 73.4144 150.299 57.3184 150.299 37.4369C150.299 17.5553 117.02 1.45935 75.9733 1.45935Z" fill="#989A9D"/>
<path d="M75.9733 1.45935C34.9271 1.45935 1.64728 17.5553 1.64728 37.4369C1.64728 57.2886 34.9271 73.4144 75.9413 73.4144C116.987 73.4144 150.268 57.3184 150.268 37.4369C150.268 17.5553 117.02 1.45935 75.9733 1.45935Z" fill="#999B9E"/>
<path d="M75.9734 1.45935C34.9273 1.45935 1.67944 17.5553 1.67944 37.4369C1.67944 57.2886 34.9593 73.3846 75.9734 73.3846C117.02 73.3846 150.268 57.2886 150.268 37.4369C150.268 17.5553 116.988 1.45935 75.9734 1.45935Z" fill="#9A9C9E"/>
<path d="M75.9734 1.45935C34.9273 1.45935 1.67944 17.5553 1.67944 37.4369C1.67944 57.2886 34.9273 73.3846 75.9734 73.3846C116.988 73.3846 150.268 57.2886 150.268 37.4369C150.268 17.5553 116.988 1.45935 75.9734 1.45935Z" fill="#9A9C9F"/>
<path d="M75.9734 1.48914C34.9593 1.48914 1.67944 17.5851 1.67944 37.4368C1.67944 57.2885 34.9273 73.3845 75.9734 73.3845C116.988 73.3845 150.268 57.2885 150.268 37.4368C150.268 17.5851 116.988 1.48914 75.9734 1.48914Z" fill="#9B9DA0"/>
<path d="M75.9737 1.48914C34.9597 1.48914 1.71185 17.5851 1.71185 37.4368C1.71185 57.2885 34.9597 73.3845 75.9737 73.3845C116.988 73.3845 150.268 57.2885 150.268 37.4368C150.268 17.5851 116.988 1.48914 75.9737 1.48914Z" fill="#9C9EA1"/>
<path d="M75.9737 1.48914C34.9597 1.48914 1.71185 17.5851 1.71185 37.4368C1.71185 57.2885 34.9597 73.3547 75.9737 73.3547C116.988 73.3547 150.236 57.2588 150.236 37.4368C150.236 17.5851 116.988 1.48914 75.9737 1.48914Z" fill="#9D9FA1"/>
<path d="M75.9737 1.48914C34.9597 1.48914 1.71185 17.5851 1.71185 37.4368C1.71185 57.2885 34.9597 73.3547 75.9737 73.3547C116.988 73.3547 150.236 57.2588 150.236 37.4368C150.236 17.5851 116.988 1.48914 75.9737 1.48914Z" fill="#9DA0A2"/>
<path d="M75.9737 1.51892C34.9597 1.51892 1.71185 17.5851 1.71185 37.4368C1.71185 57.2588 34.9597 73.3548 75.9737 73.3548C116.988 73.3548 150.236 57.2588 150.236 37.4368C150.236 17.5851 116.988 1.51892 75.9737 1.51892Z" fill="#9EA0A3"/>
<path d="M75.9729 1.51892C34.9588 1.51892 1.7431 17.5851 1.7431 37.4368C1.7431 57.2588 34.9909 73.3548 75.9729 73.3548C116.987 73.3548 150.235 57.2885 150.235 37.4368C150.235 17.5851 116.987 1.51892 75.9729 1.51892Z" fill="#9FA1A4"/>
<path d="M75.9729 1.51892C34.9909 1.51892 1.7431 17.5851 1.7431 37.4368C1.7431 57.2588 34.9909 73.3548 75.9729 73.3548C116.987 73.3548 150.203 57.2885 150.203 37.4368C150.203 17.5851 116.987 1.51892 75.9729 1.51892Z" fill="#A0A2A4"/>
<path d="M75.9729 1.51892C34.9909 1.51892 1.7431 17.6149 1.7431 37.4368C1.7431 57.2588 34.9909 73.3249 75.9729 73.3249C116.955 73.3249 150.203 57.2588 150.203 37.4368C150.203 17.6149 116.955 1.51892 75.9729 1.51892Z" fill="#A1A3A5"/>
<path d="M75.9729 1.54883C34.9909 1.54883 1.7431 17.6151 1.7431 37.4369C1.7431 57.2588 34.9588 73.3251 75.9729 73.3251C116.955 73.3251 150.203 57.2588 150.203 37.4369C150.203 17.6151 116.955 1.54883 75.9729 1.54883Z" fill="#A1A3A6"/>
<path d="M75.9729 1.54883C34.9909 1.54883 1.77527 17.6151 1.77527 37.4369C1.77527 57.2588 34.9909 73.3251 75.9729 73.3251C116.955 73.3251 150.203 57.2588 150.203 37.4369C150.203 17.6151 116.955 1.54883 75.9729 1.54883Z" fill="#A2A4A7"/>
<path d="M75.9729 1.54883C34.9909 1.54883 1.77527 17.6151 1.77527 37.4369C1.77527 57.2588 34.9909 73.3251 75.9729 73.3251C116.955 73.3251 150.17 57.2588 150.17 37.4369C150.17 17.6151 116.955 1.54883 75.9729 1.54883Z" fill="#A3A5A8"/>
<path d="M75.9729 1.54883C34.9909 1.54883 1.77527 17.6151 1.77527 37.4369C1.77527 57.2588 34.9909 73.2952 75.9729 73.2952C116.955 73.2952 150.17 57.2291 150.17 37.4369C150.17 17.6151 116.955 1.54883 75.9729 1.54883Z" fill="#A4A6A8"/>
<path d="M75.9733 1.57874C35.0235 1.57874 1.80774 17.6151 1.80774 37.4371C1.80774 57.2291 35.0234 73.2954 76.0054 73.2954C116.987 73.2954 150.203 57.2291 150.203 37.4371C150.171 17.6151 116.955 1.57874 75.9733 1.57874Z" fill="#A4A7A9"/>
<path d="M75.9733 1.57874C35.0235 1.57874 1.80774 17.6151 1.80774 37.4371C1.80774 57.2291 35.0235 73.2954 75.9733 73.2954C116.955 73.2954 150.171 57.2291 150.171 37.4371C150.171 17.6151 116.955 1.57874 75.9733 1.57874Z" fill="#A5A7AA"/>
<path d="M75.9733 1.57874C35.0235 1.57874 1.80774 17.6449 1.80774 37.4371C1.80774 57.2291 35.0235 73.2655 75.9733 73.2655C116.923 73.2655 150.138 57.2291 150.138 37.4072C150.171 17.6449 116.955 1.57874 75.9733 1.57874Z" fill="#A6A8AB"/>
<path d="M75.9733 1.57874C35.0235 1.57874 1.80774 17.6449 1.80774 37.4371C1.80774 57.2291 35.0235 73.2655 75.9733 73.2655C116.955 73.2655 150.138 57.2291 150.138 37.4371C150.138 17.6449 116.955 1.57874 75.9733 1.57874Z" fill="#A7A9AC"/>
<path d="M75.9735 1.60852C35.0235 1.60852 1.8399 17.6449 1.8399 37.437C1.8399 57.2292 35.0235 73.2655 75.9735 73.2655C116.923 73.2655 150.138 57.2292 150.138 37.437C150.138 17.6449 116.923 1.60852 75.9735 1.60852Z" fill="#A8AAAC"/>
<path d="M75.9735 1.60852C35.0235 1.60852 1.8399 17.6449 1.8399 37.437C1.8399 57.2292 35.0235 73.2655 75.9735 73.2655C116.923 73.2655 150.138 57.2292 150.138 37.437C150.138 17.6449 116.923 1.60852 75.9735 1.60852Z" fill="#A8ABAD"/>
<path d="M75.9735 1.60852C35.0235 1.60852 1.8399 17.6449 1.8399 37.437C1.8399 57.2292 35.0235 73.2655 75.9735 73.2655C116.923 73.2655 150.107 57.2292 150.107 37.437C150.138 17.6449 116.923 1.60852 75.9735 1.60852Z" fill="#A9ABAE"/>
<path d="M75.9738 1.60852C35.0559 1.60852 1.87231 17.6449 1.87231 37.437C1.87231 57.1993 35.0559 73.2357 76.0059 73.2357C116.956 73.2357 150.14 57.1993 150.14 37.437C150.107 17.6449 116.924 1.60852 75.9738 1.60852Z" fill="#AAACAF"/>
<path d="M75.9738 1.63831C35.0559 1.63831 1.87231 17.6448 1.87231 37.437C1.87231 57.1993 35.0559 73.2357 76.0059 73.2357C116.956 73.2357 150.14 57.1993 150.14 37.437C150.107 17.6448 116.924 1.63831 75.9738 1.63831Z" fill="#ABADAF"/>
<path d="M75.9738 1.63831C35.0559 1.63831 1.87231 17.6747 1.87231 37.437C1.87231 57.1993 35.0559 73.2357 75.9738 73.2357C116.892 73.2357 150.107 57.1993 150.107 37.437C150.107 17.6747 116.924 1.63831 75.9738 1.63831Z" fill="#ACAEB0"/>
<path d="M75.9738 1.63831C35.0559 1.63831 1.87231 17.6747 1.87231 37.437C1.87231 57.1993 35.0559 73.2357 75.9738 73.2357C116.892 73.2357 150.075 57.1993 150.075 37.437C150.107 17.6747 116.924 1.63831 75.9738 1.63831Z" fill="#ACAFB1"/>
<path d="M75.9738 1.63831C35.056 1.63831 1.90448 17.6747 1.90448 37.437C1.90448 57.1993 35.0881 73.2058 76.0059 73.2058C116.924 73.2058 150.107 57.1695 150.107 37.437C150.075 17.6747 116.924 1.63831 75.9738 1.63831Z" fill="#ADAFB2"/>
<path d="M76.0059 1.66809C35.0881 1.66809 1.90448 17.6747 1.90448 37.4369C1.90448 57.1992 35.0881 73.2058 76.0059 73.2058C116.924 73.2058 150.107 57.1992 150.107 37.4369C150.075 17.6747 116.892 1.66809 76.0059 1.66809Z" fill="#AEB0B3"/>
<path d="M76.0059 1.66809C35.0881 1.66809 1.90448 17.6747 1.90448 37.4369C1.90448 57.1992 35.0881 73.2058 75.9738 73.2058C116.892 73.2058 150.075 57.1992 150.075 37.4369C150.075 17.6747 116.892 1.66809 76.0059 1.66809Z" fill="#AFB1B3"/>
<path d="M76.0054 1.66809C35.0876 1.66809 1.93604 17.6747 1.93604 37.4369C1.93604 57.1992 35.0876 73.2058 76.0054 73.2058C116.923 73.2058 150.075 57.1992 150.075 37.4369C150.075 17.6747 116.891 1.66809 76.0054 1.66809Z" fill="#B0B2B4"/>
<path d="M76.0054 1.66809C35.0876 1.66809 1.93604 17.6747 1.93604 37.4369C1.93604 57.1695 35.0876 73.2058 76.0054 73.2058C116.923 73.2058 150.075 57.1992 150.075 37.4369C150.075 17.6747 116.891 1.66809 76.0054 1.66809Z" fill="#B1B3B5"/>
<path d="M76.0054 1.69775C35.0876 1.69775 1.93604 17.7044 1.93604 37.4368C1.93604 57.1694 35.0876 73.1758 76.0054 73.1758C116.891 73.1758 150.075 57.1694 150.075 37.4368C150.042 17.7044 116.891 1.69775 76.0054 1.69775Z" fill="#B1B3B6"/>
<path d="M76.0054 1.69775C35.0876 1.69775 1.93604 17.7044 1.93604 37.4368C1.93604 57.1694 35.0876 73.1758 76.0054 73.1758C116.891 73.1758 150.042 57.1694 150.042 37.4368C150.042 17.7044 116.891 1.69775 76.0054 1.69775Z" fill="#B2B4B7"/>
<path d="M76.0054 1.69775C35.1197 1.69775 1.9682 17.7044 1.9682 37.4368C1.9682 57.1694 35.1197 73.1758 76.0054 73.1758C116.891 73.1758 150.042 57.1694 150.042 37.4368C150.042 17.7044 116.891 1.69775 76.0054 1.69775Z" fill="#B3B5B7"/>
<path d="M76.0054 1.69775C35.1197 1.69775 1.9682 17.7044 1.9682 37.4368C1.9682 57.1694 35.1197 73.1758 76.0054 73.1758C116.891 73.1758 150.042 57.1694 150.042 37.4368C150.042 17.7044 116.891 1.69775 76.0054 1.69775Z" fill="#B4B6B8"/>
<path d="M76.0054 1.72778C35.1197 1.72778 1.9682 17.7045 1.9682 37.437C1.9682 57.1695 35.1197 73.1462 76.0054 73.1462C116.891 73.1462 150.042 57.1397 150.042 37.437C150.01 17.7045 116.891 1.72778 76.0054 1.72778Z" fill="#B5B7B9"/>
<path d="M76.0054 1.72778C35.1197 1.72778 1.9682 17.7045 1.9682 37.437C1.9682 57.1695 35.1197 73.1462 76.0054 73.1462C116.891 73.1462 150.01 57.1695 150.01 37.437C150.01 17.7045 116.859 1.72778 76.0054 1.72778Z" fill="#B5B7BA"/>
<path d="M76.0055 1.72778C35.1198 1.72778 2.00037 17.7045 2.00037 37.437C2.00037 57.1695 35.1198 73.1462 76.0055 73.1462C116.891 73.1462 150.01 57.1695 150.01 37.437C150.01 17.7045 116.859 1.72778 76.0055 1.72778Z" fill="#B6B8BB"/>
<path d="M76.0055 1.72778C35.1198 1.72778 2.00037 17.7343 2.00037 37.437C2.00037 57.1397 35.1198 73.1462 76.0055 73.1462C116.859 73.1462 150.01 57.1695 150.01 37.437C150.01 17.7343 116.859 1.72778 76.0055 1.72778Z" fill="#B7B9BB"/>
<path d="M76.0055 1.75757C35.1519 1.75757 2.00037 17.7343 2.00037 37.437C2.00037 57.1397 35.1198 73.1165 76.0055 73.1165C116.859 73.1165 150.01 57.1397 150.01 37.437C150.01 17.7343 116.859 1.75757 76.0055 1.75757Z" fill="#B8BABC"/>
<path d="M76.0059 1.75757C35.1522 1.75757 2.03284 17.7343 2.03284 37.437C2.03284 57.1397 35.1522 73.1165 76.0059 73.1165C116.86 73.1165 149.979 57.1397 149.979 37.437C149.979 17.7343 116.86 1.75757 76.0059 1.75757Z" fill="#B9BBBD"/>
<path d="M76.0059 1.75757C35.1522 1.75757 2.03284 17.7343 2.03284 37.437C2.03284 57.1397 35.1522 73.1165 76.0059 73.1165C116.86 73.1165 149.979 57.1397 149.979 37.437C149.979 17.7343 116.86 1.75757 76.0059 1.75757Z" fill="#BABBBE"/>
<path d="M76.0059 1.75757C35.1522 1.75757 2.03284 17.7343 2.03284 37.437C2.03284 57.1397 35.1522 73.1165 76.0059 73.1165C116.86 73.1165 149.979 57.1397 149.979 37.437C149.979 17.7343 116.86 1.75757 76.0059 1.75757Z" fill="#BABCBF"/>
<path d="M76.0059 1.78723C35.1522 1.78723 2.03284 17.7342 2.03284 37.4369C2.03284 57.1396 35.1522 73.0866 75.9738 73.0866C116.827 73.0866 149.947 57.1097 149.947 37.4369C149.979 17.7342 116.86 1.78723 76.0059 1.78723Z" fill="#BBBDBF"/>
<path d="M76.005 1.78723C35.1514 1.78723 2.06409 17.7342 2.06409 37.4369C2.06409 57.1396 35.1835 73.0866 76.005 73.0866C116.859 73.0866 149.946 57.1097 149.946 37.4369C149.946 17.7342 116.859 1.78723 76.005 1.78723Z" fill="#BCBEC0"/>
<path d="M76.005 1.78723C35.1835 1.78723 2.06409 17.764 2.06409 37.4369C2.06409 57.1097 35.1835 73.0866 76.005 73.0866C116.827 73.0866 149.946 57.1097 149.946 37.4369C149.946 17.764 116.827 1.78723 76.005 1.78723Z" fill="#BDBFC1"/>
<path d="M76.005 1.78723C35.1835 1.78723 2.06409 17.764 2.06409 37.4369C2.06409 57.1097 35.1514 73.0866 76.005 73.0866C116.827 73.0866 149.946 57.1396 149.946 37.4369C149.946 17.764 116.827 1.78723 76.005 1.78723Z" fill="#BEC0C2"/>
<path d="M76.0054 1.81702C35.1838 1.81702 2.09656 17.764 2.09656 37.4368C2.09656 57.1097 35.1838 73.0567 76.0054 73.0567C116.827 73.0567 149.946 57.1097 149.946 37.4368C149.946 17.764 116.827 1.81702 76.0054 1.81702Z" fill="#BFC0C3"/>
<path d="M76.0054 1.81702C35.1838 1.81702 2.09656 17.764 2.09656 37.4368C2.09656 57.1097 35.1838 73.0567 76.0054 73.0567C116.827 73.0567 149.914 57.1097 149.914 37.4368C149.914 17.764 116.827 1.81702 76.0054 1.81702Z" fill="#BFC1C3"/>
<path d="M76.0054 1.81702C35.1838 1.81702 2.09656 17.764 2.09656 37.4368C2.09656 57.1097 35.1838 73.0567 76.0054 73.0567C116.827 73.0567 149.914 57.1097 149.914 37.4368C149.914 17.764 116.827 1.81702 76.0054 1.81702Z" fill="#C0C2C4"/>
<path d="M76.0054 1.81702C35.1838 1.81702 2.09656 17.764 2.09656 37.4368C2.09656 57.1097 35.1838 73.0567 76.0054 73.0567C116.827 73.0567 149.914 57.1097 149.914 37.4368C149.914 17.764 116.827 1.81702 76.0054 1.81702Z" fill="#C1C3C5"/>
<path d="M76.0054 1.8468C35.216 1.8468 2.12866 17.764 2.12866 37.4369C2.12866 57.1097 35.216 73.0566 76.0054 73.0566C116.827 73.0566 149.914 57.1097 149.914 37.4369C149.914 17.764 116.827 1.8468 76.0054 1.8468Z" fill="#C2C4C6"/>
<path d="M76.0055 1.8468C35.216 1.8468 2.12866 17.7937 2.12866 37.4369C2.12866 57.0799 35.216 73.0269 76.0055 73.0269C116.795 73.0269 149.882 57.0799 149.882 37.4369C149.914 17.7937 116.827 1.8468 76.0055 1.8468Z" fill="#C3C4C7"/>
<path d="M76.0054 1.8468C35.216 1.8468 2.12866 17.7937 2.12866 37.4369C2.12866 57.0799 35.216 73.0269 76.0054 73.0269C116.795 73.0269 149.882 57.0799 149.882 37.4369C149.882 17.7937 116.795 1.8468 76.0054 1.8468Z" fill="#C4C5C7"/>
<path d="M76.0054 1.8468C35.216 1.8468 2.12866 17.7937 2.12866 37.4369C2.12866 57.0799 35.216 73.0269 76.0054 73.0269C116.795 73.0269 149.882 57.0799 149.882 37.4369C149.882 17.7937 116.795 1.8468 76.0054 1.8468Z" fill="#C4C6C8"/>
<path d="M76.0058 1.87659C35.2164 1.87659 2.16113 17.7937 2.16113 37.4368C2.16113 57.0799 35.2164 73.0269 76.0058 73.0269C116.795 73.0269 149.882 57.1097 149.882 37.4368C149.882 17.7937 116.795 1.87659 76.0058 1.87659Z" fill="#C5C7C9"/>
<path d="M76.0058 1.87659C35.2164 1.87659 2.16113 17.7937 2.16113 37.4368C2.16113 57.0799 35.2164 72.997 76.0058 72.997C116.795 72.997 149.851 57.0799 149.851 37.4368C149.882 17.7937 116.795 1.87659 76.0058 1.87659Z" fill="#C6C8CA"/>
<path d="M76.0057 1.87659C35.2484 1.87659 2.16113 17.7937 2.16113 37.4368C2.16113 57.0799 35.2164 72.997 76.0057 72.997C116.795 72.997 149.851 57.0799 149.851 37.4368C149.851 17.7937 116.795 1.87659 76.0057 1.87659Z" fill="#C7C9CB"/>
<path d="M76.0059 1.87659C35.2484 1.87659 2.1933 17.7937 2.1933 37.4368C2.1933 57.0799 35.2484 72.997 76.0059 72.997C116.795 72.997 149.851 57.0799 149.851 37.4368C149.851 17.7937 116.795 1.87659 76.0059 1.87659Z" fill="#C8C9CB"/>
<path d="M76.0059 1.90637C35.2484 1.90637 2.1933 17.7937 2.1933 37.4368C2.1933 57.0798 35.2484 72.997 76.0059 72.997C116.763 72.997 149.851 57.0798 149.851 37.4368C149.851 17.7937 116.795 1.90637 76.0059 1.90637Z" fill="#C9CACC"/>
<path d="M76.0059 1.90637C35.2484 1.90637 2.1933 17.8235 2.1933 37.4368C2.1933 57.0501 35.2484 72.9671 76.0059 72.9671C116.763 72.9671 149.819 57.0501 149.819 37.4368C149.851 17.8235 116.795 1.90637 76.0059 1.90637Z" fill="#C9CBCD"/>
<path d="M76.0059 1.90637C35.2484 1.90637 2.1933 17.8235 2.1933 37.4368C2.1933 57.0798 35.2484 72.9671 76.0059 72.9671C116.763 72.9671 149.819 57.0501 149.819 37.4368C149.851 17.8235 116.795 1.90637 76.0059 1.90637Z" fill="#CACCCE"/>
<path d="M76.005 1.90637C35.2477 1.90637 2.22455 17.8235 2.22455 37.4368C2.22455 57.0501 35.2477 72.9671 76.005 72.9671C116.762 72.9671 149.818 57.0501 149.818 37.4368C149.818 17.8235 116.762 1.90637 76.005 1.90637Z" fill="#CBCDCE"/>
<path d="M76.005 1.93628C35.2798 1.93628 2.22455 17.8237 2.22455 37.4368C2.22455 57.0501 35.2798 72.9673 76.005 72.9673C116.762 72.9673 149.818 57.0501 149.818 37.4368C149.818 17.8237 116.762 1.93628 76.005 1.93628Z" fill="#CCCDCF"/>
<path d="M76.005 1.93628C35.2798 1.93628 2.22455 17.8237 2.22455 37.4368C2.22455 57.0501 35.2798 72.9673 76.005 72.9673C116.762 72.9673 149.818 57.0501 149.818 37.4368C149.818 17.8237 116.762 1.93628 76.005 1.93628Z" fill="#CDCED0"/>
<path d="M76.0054 1.93628C35.2802 1.93628 2.25702 17.8237 2.25702 37.4368C2.25702 57.0501 35.2802 72.9374 76.0375 72.9374C116.795 72.9374 149.818 57.0501 149.818 37.4368C149.818 17.8237 116.763 1.93628 76.0054 1.93628Z" fill="#CECFD1"/>
<path d="M76.0054 1.93628C35.2802 1.93628 2.25702 17.8237 2.25702 37.4368C2.25702 57.0501 35.2802 72.9374 76.0375 72.9374C116.795 72.9374 149.818 57.0501 149.818 37.4368C149.786 17.8237 116.763 1.93628 76.0054 1.93628Z" fill="#CED0D2"/>
<path d="M76.0375 1.96619C35.2802 1.96619 2.25702 17.8535 2.25702 37.437C2.25702 57.0502 35.2802 72.9376 76.0054 72.9376C116.731 72.9376 149.786 57.0502 149.786 37.437C149.786 17.8535 116.763 1.96619 76.0375 1.96619Z" fill="#CFD1D2"/>
<path d="M76.0375 1.96619C35.2802 1.96619 2.25702 17.8535 2.25702 37.437C2.25702 57.0204 35.2802 72.9078 76.0054 72.9078C116.731 72.9078 149.754 57.0204 149.754 37.437C149.786 17.8535 116.763 1.96619 76.0375 1.96619Z" fill="#D0D1D3"/>
<path d="M76.0376 1.96619C35.3122 1.96619 2.28918 17.8535 2.28918 37.437C2.28918 57.0204 35.3122 72.9078 76.0376 72.9078C116.763 72.9078 149.786 57.0204 149.786 37.437C149.786 17.8535 116.763 1.96619 76.0376 1.96619Z" fill="#D1D2D4"/>
<path d="M76.0376 1.96619C35.3122 1.96619 2.28918 17.8535 2.28918 37.437C2.28918 57.0204 35.3122 72.9078 76.0376 72.9078C116.763 72.9078 149.786 57.0204 149.786 37.437C149.754 17.8535 116.763 1.96619 76.0376 1.96619Z" fill="#D2D3D5"/>
<path d="M76.0376 1.99597C35.3122 1.99597 2.28918 17.8535 2.28918 37.4369C2.28918 57.0205 35.3122 72.9078 76.0055 72.9078C116.731 72.9078 149.754 57.0205 149.754 37.4369C149.754 17.8535 116.731 1.99597 76.0376 1.99597Z" fill="#D2D4D6"/>
<path d="M76.0379 1.99597C35.3126 1.99597 2.32159 17.8535 2.32159 37.4369C2.32159 57.0205 35.3448 72.8779 76.0379 72.8779C116.763 72.8779 149.754 56.9906 149.754 37.4369C149.754 17.8535 116.731 1.99597 76.0379 1.99597Z" fill="#D3D5D6"/>
<path d="M76.0379 1.99597C35.3126 1.99597 2.32159 17.8535 2.32159 37.4369C2.32159 57.0205 35.3126 72.8779 76.0379 72.8779C116.763 72.8779 149.754 56.9906 149.754 37.4369C149.754 17.8535 116.731 1.99597 76.0379 1.99597Z" fill="#D4D6D7"/>
<path d="M76.0379 1.99597C35.3126 1.99597 2.32159 17.8833 2.32159 37.4369C2.32159 57.0205 35.3126 72.8779 76.0379 72.8779C116.731 72.8779 149.754 57.0205 149.754 37.4369C149.754 17.8833 116.731 1.99597 76.0379 1.99597Z" fill="#D5D6D8"/>
<path d="M76.0379 2.02576C35.3448 2.02576 2.32159 17.8833 2.32159 37.437C2.32159 56.9906 35.3126 72.8779 76.0059 72.8779C116.699 72.8779 149.723 57.0204 149.723 37.437C149.723 17.8833 116.731 2.02576 76.0379 2.02576Z" fill="#D6D7D9"/>
<path d="M76.0371 2.02576C35.3439 2.02576 2.35291 17.8833 2.35291 37.437C2.35291 56.9906 35.3439 72.8779 76.0371 72.8779C116.73 72.8779 149.721 57.0204 149.721 37.437C149.721 17.8833 116.73 2.02576 76.0371 2.02576Z" fill="#D7D8D9"/>
<path d="M76.0371 2.02576C35.3439 2.02576 2.35291 17.8833 2.35291 37.437C2.35291 56.9906 35.3439 72.8481 76.0371 72.8481C116.73 72.8481 149.721 56.9906 149.721 37.437C149.721 17.8833 116.73 2.02576 76.0371 2.02576Z" fill="#D7D9DA"/>
<path d="M76.0371 2.02576C35.3439 2.02576 2.35291 17.8833 2.35291 37.437C2.35291 56.9906 35.3439 72.8481 76.0371 72.8481C116.73 72.8481 149.721 56.9906 149.721 37.437C149.721 17.8833 116.73 2.02576 76.0371 2.02576Z" fill="#D8DADB"/>
<path d="M76.0371 2.05554C35.3439 2.05554 2.35291 17.8833 2.35291 37.4369C2.35291 56.9905 35.344 72.8481 76.005 72.8481C116.698 72.8481 149.69 56.9905 149.69 37.4369C149.69 17.8833 116.73 2.05554 76.0371 2.05554Z" fill="#D9DADC"/>
<path d="M76.0371 2.05554C35.3439 2.05554 2.38501 17.8833 2.38501 37.4369C2.38501 56.9905 35.376 72.8481 76.0371 72.8481C116.73 72.8481 149.69 56.9905 149.69 37.4369C149.69 17.8833 116.698 2.05554 76.0371 2.05554Z" fill="#DADBDD"/>
<path d="M76.0371 2.05554C35.376 2.05554 2.38501 17.9131 2.38501 37.4369C2.38501 56.9905 35.376 72.8183 76.0371 72.8183C116.698 72.8183 149.69 56.9608 149.69 37.4369C149.69 17.9131 116.698 2.05554 76.0371 2.05554Z" fill="#DBDCDD"/>
<path d="M76.0371 2.05554C35.376 2.05554 2.38501 17.9131 2.38501 37.4369C2.38501 56.9905 35.3439 72.8183 76.0371 72.8183C116.698 72.8183 149.69 56.9608 149.69 37.4369C149.69 17.9131 116.698 2.05554 76.0371 2.05554Z" fill="#DCDDDE"/>
<path d="M76.0375 2.08533C35.3764 2.08533 2.41748 17.9131 2.41748 37.4369C2.41748 56.9608 35.3764 72.8182 76.0375 72.8182C116.699 72.8182 149.69 56.9905 149.69 37.4369C149.658 17.9131 116.699 2.08533 76.0375 2.08533Z" fill="#DCDEDF"/>
<path d="M76.0375 2.08533C35.3764 2.08533 2.41748 17.9131 2.41748 37.4369C2.41748 56.9608 35.3764 72.8182 76.0375 72.8182C116.699 72.8182 149.658 56.9905 149.658 37.4369C149.658 17.9131 116.699 2.08533 76.0375 2.08533Z" fill="#DDDEE0"/>
<path d="M76.0375 2.08533C35.3764 2.08533 2.41748 17.9131 2.41748 37.4369C2.41748 56.9608 35.3764 72.7885 76.0375 72.7885C116.699 72.7885 149.658 56.9608 149.658 37.4369C149.658 17.9131 116.699 2.08533 76.0375 2.08533Z" fill="#DEDFE0"/>
<path d="M76.0375 2.08533C35.3764 2.08533 2.41748 17.9131 2.41748 37.4369C2.41748 56.9608 35.3764 72.7885 76.0375 72.7885C116.699 72.7885 149.658 56.9608 149.658 37.4369C149.658 17.9131 116.699 2.08533 76.0375 2.08533Z" fill="#DFE0E1"/>
<path d="M76.0376 2.11523C35.4086 2.11523 2.44965 17.9131 2.44965 37.4371C2.44965 56.9608 35.4086 72.7885 76.0376 72.7885C116.699 72.7885 149.658 56.9608 149.658 37.4371C149.658 17.9131 116.699 2.11523 76.0376 2.11523Z" fill="#E0E1E2"/>
<path d="M76.0376 2.11523C35.4086 2.11523 2.44965 17.9429 2.44965 37.4371C2.44965 56.9608 35.4086 72.7885 76.0376 72.7885C116.667 72.7885 149.625 56.9608 149.625 37.4371C149.625 17.9429 116.667 2.11523 76.0376 2.11523Z" fill="#E0E2E3"/>
<path d="M76.0376 2.11523C35.4086 2.11523 2.44965 17.9429 2.44965 37.4371C2.44965 56.9608 35.4086 72.7588 76.0376 72.7588C116.667 72.7588 149.625 56.9311 149.625 37.4371C149.625 17.9429 116.667 2.11523 76.0376 2.11523Z" fill="#E1E2E3"/>
<path d="M76.038 2.11523C35.409 2.11523 2.48212 17.9429 2.48212 37.4668C2.48212 56.9608 35.409 72.7885 76.0701 72.7885C116.699 72.7885 149.658 56.9608 149.658 37.4668C149.626 17.9429 116.667 2.11523 76.038 2.11523Z" fill="#E2E3E4"/>
<path d="M76.038 2.1449C35.409 2.1449 2.48212 17.9428 2.48212 37.4667C2.48212 56.9607 35.409 72.7884 76.038 72.7884C116.667 72.7884 149.626 56.9607 149.626 37.4667C149.626 17.9428 116.667 2.1449 76.038 2.1449Z" fill="#E3E4E5"/>
<path d="M76.038 2.1449C35.409 2.1449 2.48212 17.9428 2.48212 37.4667C2.48212 56.9607 35.409 72.7884 76.038 72.7884C116.667 72.7884 149.593 56.9607 149.593 37.4667C149.593 17.9428 116.667 2.1449 76.038 2.1449Z" fill="#E4E5E6"/>
<path d="M76.038 2.1449C35.441 2.1449 2.48212 17.9428 2.48212 37.4667C2.48212 56.9607 35.409 72.7587 76.038 72.7587C116.667 72.7587 149.593 56.9607 149.593 37.4667C149.593 17.9428 116.667 2.1449 76.038 2.1449Z" fill="#E5E6E7"/>
<path d="M76.0371 2.1449C35.4402 2.1449 2.51337 17.9428 2.51337 37.4667C2.51337 56.9607 35.4402 72.7587 76.0692 72.7587C116.698 72.7587 149.625 56.9607 149.625 37.4667C149.593 17.9428 116.666 2.1449 76.0371 2.1449Z" fill="#E5E6E7"/>
<path d="M76.0371 2.1748C35.4402 2.1748 2.51337 17.9727 2.51337 37.4668C2.51337 56.9608 35.4402 72.7587 76.0371 72.7587C116.634 72.7587 149.593 56.9608 149.593 37.4668C149.593 17.9727 116.666 2.1748 76.0371 2.1748Z" fill="#E6E7E8"/>
<path d="M75.9095 3.72461C36.115 3.72461 3.86206 18.8071 3.86206 37.407C3.86206 56.0068 36.115 71.0893 75.9095 71.0893C115.704 71.0893 147.957 56.0068 147.957 37.407C147.957 18.8071 115.704 3.72461 75.9095 3.72461Z" fill="url(#paint0_linear_40_2403)"/>
<path d="M75.9095 7.74878C38.6181 7.74878 8.38702 21.1621 8.38702 37.7051C8.38702 54.2483 38.6181 67.6616 75.9095 67.6616C113.201 67.6616 143.432 54.2483 143.432 37.7051C143.432 21.1621 113.201 7.74878 75.9095 7.74878Z" stroke="#004E24" stroke-width="0.766352"/>
<path d="M75.9095 5.99011C37.6233 5.99011 6.5899 20.089 6.5899 37.4369C6.5899 54.8146 37.6233 68.8837 75.9095 68.8837C114.196 68.8837 145.262 54.7848 145.262 37.4369C145.229 20.089 114.196 5.99011 75.9095 5.99011Z" stroke="#F5F0CC" stroke-width="1.45298"/>
<path d="M117.501 23.1295H106.173L104.793 26.9747H112.11L103.766 29.7765L103.22 31.3265L116.089 27.243L117.501 23.1295ZM46.4488 29.5678L44.9083 33.6515H33.8686C33.8686 33.6515 34.1253 33.5621 34.4783 32.8765C34.8313 32.1909 39.9339 18.3902 39.9339 18.3902C39.9339 18.3902 40.64 16.9295 39.8377 16.5719H46.2241C46.2241 16.5719 45.8711 16.4825 45.2614 17.943C44.9083 18.7776 40.64 29.866 40.64 29.866H45.2614C45.2614 29.866 46.3204 29.9554 46.4488 29.5678ZM64.6131 33.6515H69.8121C69.8121 33.6515 69.4591 33.1448 69.6837 32.5784C69.9725 31.8034 72.7325 24.5006 72.7325 24.5006L73.952 33.6515H78.6696L84.8313 17.3766C84.8313 17.3766 85.0881 16.6016 85.441 16.6016H80.4347C80.4347 16.6016 80.563 17.168 80.4026 17.5853C80.21 18.0325 77.3859 25.3948 77.3859 25.3948L76.2626 16.6016H70.8711C70.8711 16.6016 71.1599 17.0488 70.9674 17.4959C70.8069 17.8833 65.2549 32.6977 65.2549 32.6977C65.2549 32.6977 64.9339 33.6515 64.6131 33.6515ZM94.2986 16.6016H88.3936C88.3936 16.6016 88.8428 17.2872 88.2652 18.8969C87.6875 20.5064 83.1625 32.3698 83.1625 32.3698C83.1625 32.3698 82.8094 33.5025 82.3281 33.7111H89.4526C89.4526 33.7111 98.0855 34.0389 100.749 25.216C100.717 25.1863 104.087 16.5122 94.2986 16.6016ZM94.9404 25.9314C93.4321 29.5083 91.1856 29.7467 89.9982 29.7467H89.1638L92.6298 20.268H93.9776C93.9455 20.268 97.4115 20.0892 94.9404 25.9314ZM25.9738 47.4225H37.3025L38.6824 43.5774H31.3332L39.7093 40.7754L40.2549 39.2255L27.3859 43.3389L25.9738 47.4225ZM58.2266 43.8456C60.3448 37.2283 53.1882 37.4072 53.1882 37.4072H45.8391C46.3845 37.9736 45.9674 39.1956 45.9674 39.1956C45.9674 39.1956 41.4103 51.8638 41.0572 52.8475C40.7042 53.8311 40.0624 54.4869 40.0624 54.4869H45.8711C45.6786 54.4869 45.6786 53.9205 45.6786 53.9205L47.7645 48.5552C47.7645 48.5552 50.3641 53.5032 50.5566 53.8311C50.7171 54.1888 50.6528 54.4571 50.6528 54.4571H56.8467C56.237 54.4571 55.6272 53.3542 55.6272 53.3542L52.5464 47.9591C56.8147 48.0187 58.2266 43.8456 58.2266 43.8456ZM53.1561 43.2494C52.3538 44.9485 50.1394 44.7398 50.1394 44.7398H49.0161L50.2036 41.312H51.4231C54.0867 41.312 53.1561 43.2494 53.1561 43.2494ZM122.315 44.0543C124.593 37.1092 117.341 37.4669 117.341 37.4669H110.056C110.601 38.0332 110.184 39.2553 110.184 39.2553C110.184 39.2553 105.435 51.9831 105.082 52.9369C104.729 53.9205 104.055 54.5465 104.055 54.5465H110.12C109.671 54.5465 109.992 53.5032 109.992 53.5032L111.853 48.6148C111.853 48.6148 114.356 53.5628 114.549 53.8908C114.742 54.2485 114.645 54.5166 114.645 54.5166H121.064C120.454 54.5166 119.812 53.4138 119.812 53.4138L116.731 48.0187C121.032 48.0783 122.315 44.0543 122.315 44.0543ZM117.181 43.3389C116.507 44.9783 114.324 44.8293 114.324 44.8293H113.201L114.388 41.4313H115.993C115.993 41.4313 117.951 41.3716 117.181 43.3389ZM69.7478 36.9602C64.0675 36.9602 60.3769 41.1332 59.4141 46.3197C58.5476 51.0888 61.3076 54.9042 65.8967 54.9042C72.3153 54.9042 76.1343 48.7937 76.1343 44.412C76.1343 39.8216 74.1766 36.9602 69.7478 36.9602ZM70.5822 46.4687C69.6516 50.0455 67.8865 51.1484 66.3139 50.8802C64.1317 50.4927 64.5167 47.2138 64.8698 45.6937C65.64 42.385 67.5335 40.8053 68.9455 40.9543C69.3948 41.0139 71.9622 41.0736 70.5822 46.4687ZM77.6426 37.4669C77.6426 37.4669 78.0919 37.7053 78.0919 38.7783V53.5628C78.0919 53.5628 78.0277 54.3676 77.7067 54.5465H82.4565C82.4565 54.5465 82.4565 54.1888 82.9378 53.6225C83.4192 53.0561 93.3037 40.1495 93.3037 40.1495C93.3037 40.1495 95.5502 37.437 96.1599 37.437H89.3242C89.3242 37.437 89.8698 37.7947 89.4526 38.4206C89.0354 39.0466 82.9699 47.8697 82.9699 47.8697L83.0662 38.987C83.0662 38.987 83.0663 37.5563 83.6438 37.437L77.6426 37.4669ZM106.462 41.4909L108.002 37.4669H96.4488C96.4488 37.4669 96.866 37.8245 96.3204 39.2553C95.7748 40.686 91.0893 52.9369 91.0893 52.9369C91.0893 52.9369 90.2549 54.5465 90.0303 54.5465H101.937L103.349 50.4628C103.349 50.4628 103.156 50.7014 102.033 50.7014H96.9943L98.0533 47.9292H102.001C102.001 47.9292 102.835 47.8697 102.996 48.1081L104.6 43.7264C104.6 43.7264 104.472 44.1139 103.413 44.1139H99.6259L100.749 41.0736H105.563C105.563 41.1033 106.205 41.0139 106.462 41.4909ZM64.0033 33.6813C64.0033 33.6813 63.5861 33.4428 63.4898 32.7572L62.7838 17.7343C62.7838 17.7343 62.7517 16.7805 63.2331 16.5719H57.5848C57.5848 16.5719 57.9699 17.0488 57.2319 18.1219C56.4616 19.1949 46.8338 33.0852 46.8338 33.0852C46.8338 33.0852 46.6413 33.4428 46.1599 33.6515H51.8724C51.8724 33.6515 51.8403 33.2342 52.0008 32.9361C52.2575 32.4294 52.9636 31.2371 52.9636 31.2371H58.7081V32.7275C58.7081 32.7275 58.7402 33.2641 58.323 33.6515H64.0033V33.6813ZM55.4347 27.392L58.6117 22.3843L58.6439 27.392H55.4347Z" fill="#F5F0CC"/>
<defs>
<linearGradient id="paint0_linear_40_2403" x1="56.9638" y1="-0.318759" x2="90.4587" y2="77.0177" gradientUnits="userSpaceOnUse">
<stop stop-color="#008948"/>
<stop offset="0.042" stop-color="#008847"/>
<stop offset="0.096" stop-color="#008244"/>
<stop offset="0.157" stop-color="#00793F"/>
<stop offset="0.222" stop-color="#006A37"/>
<stop offset="0.291" stop-color="#00572B"/>
<stop offset="0.319" stop-color="#004E24"/>
<stop offset="1"/>
</linearGradient>
</defs>
</svg>
