<svg width="141" height="28" viewBox="0 0 141 28" fill="none" xmlns="http://www.w3.org/2000/svg">
<path d="M0 14.0769C0 15.6154 0.826837 16.4615 2.5632 16.4615H5.25042V25.2692H3.26601V18.9231H0V25.3846C0 26.9231 1.07489 28 2.81125 28H5.70518C7.44154 28 8.51643 26.9231 8.51643 25.3846V2.61539C8.51643 1 7.44154 0 5.70518 0H2.81125C1.07489 0 0 1 0 2.61539V14.0769ZM3.26601 13.7308V2.73077H5.25042V13.7308H3.26601Z" fill="black"/>
<path d="M15.9011 25.2692V2.73077H17.8028V25.2692H15.9011ZM21.0275 2.61539C21.0275 1.07692 19.9113 0 18.2163 0H15.4464C13.7513 0 12.6351 1.07692 12.6351 2.61539V25.3846C12.6351 27 13.7513 28 15.4464 28H18.2163C19.9113 28 21.0275 27 21.0275 25.3846V2.61539Z" fill="black"/>
<path d="M28.2084 18.9231C28.2084 18.4615 28.2911 18.2308 28.5805 17.8077L32.88 11.1154C33.3348 10.4231 33.3348 9.96154 33.3348 9.34615V2.34615C33.3348 0.730769 32.2599 0 30.5235 0H27.7536C26.0173 0 24.9424 0.730769 24.9424 2.34615V9.07692H28.2084V2.73077H30.0688V9.07692C30.0688 9.53846 29.9034 9.84615 29.6967 10.1923L25.6452 16.5C25.0251 17.4615 24.9424 17.7692 24.9424 19.1154V28H33.3348V18.9231H30.0688V25.2692H28.2084V18.9231Z" fill="black"/>
<path d="M41.5156 28V0H36.72V2.73077H38.2496V28H41.5156Z" fill="black"/>
<path d="M48.9213 25.2692V2.73077H50.823V25.2692H48.9213ZM54.0477 2.61539C54.0477 1.07692 52.9315 0 51.2365 0H48.4666C46.7715 0 45.6553 1.07692 45.6553 2.61539V25.3846C45.6553 27 46.7715 28 48.4666 28H51.2365C52.9315 28 54.0477 27 54.0477 25.3846V2.61539Z" fill="black"/>
<path d="M67.207 12.5769V0H63.941V28H67.207V15.3462H69.1914V28H72.4574V0H69.1914V12.5769H67.207Z" fill="black"/>
<path d="M90.9056 12.5769H86.8541V15.3462H87.6396V25.2692H85.6138V2.73077H87.6396V9.07692H90.9056V2.61539C90.9056 1.07692 89.8307 0 88.0944 0H85.2004C83.5054 0 82.3478 1.07692 82.3478 2.61539V25.3846C82.3478 27 83.5054 28 85.2004 28H88.0944C89.8307 28 90.9056 27 90.9056 25.3846V12.5769Z" fill="black"/>
<path d="M94.9022 0V28H98.1682V15.3462H100.111V28H103.377V16.0769C103.377 15.2692 103.253 14.2308 101.558 14C103.253 13.8077 103.377 12.6154 103.377 11.7692V2.46154C103.377 1.11538 102.178 0 100.69 0H94.9022ZM98.1682 12.5769V2.73077H100.111V12.5769H98.1682Z" fill="black"/>
<path d="M110.763 25.2692V2.73077H112.665V25.2692H110.763ZM115.889 2.61539C115.889 1.07692 114.773 0 113.078 0H110.308C108.613 0 107.497 1.07692 107.497 2.61539V25.3846C107.497 27 108.613 28 110.308 28H113.078C114.773 28 115.889 27 115.889 25.3846V2.61539Z" fill="black"/>
<path d="M125.137 0V25.2692H123.277V0H120.011V25.3846C120.011 27 121.086 28 122.822 28H125.592C127.287 28 128.403 27 128.403 25.3846V0H125.137Z" fill="black"/>
<path d="M138.395 15.3462C139.884 15.3462 141 14.3462 141 13V2.5C141 1.11538 139.76 0 138.271 0H132.525V28H135.791V15.3462H138.395ZM135.791 12.5769V2.73077H137.734V12.5769H135.791Z" fill="black"/>
</svg>
