<svg width="157" height="88" viewBox="0 0 157 88" fill="none" xmlns="http://www.w3.org/2000/svg">
<path fill-rule="evenodd" clip-rule="evenodd" d="M76.1575 59.9608C78.057 57.4163 81.0265 55.9121 85.2623 55.9987L85.2623 55.9987C90.2365 56.1011 94.5332 61.3262 94.7281 69.3225C94.8262 73.347 93.5713 77.2983 91.5508 80.225C89.5346 83.1454 86.7186 85.0925 83.6829 84.9914C80.6643 84.8908 78.1031 83.1012 76.3078 80.3622C74.513 77.624 73.4668 73.9169 73.4668 69.9088C73.4668 66.0085 74.2694 62.4899 76.1575 59.9608ZM76.6255 60.31C74.8422 62.6987 74.0509 66.0741 74.0509 69.9088C74.0509 73.8219 75.0733 77.4136 76.7963 80.0422C78.5188 82.67 80.9244 84.3152 83.7023 84.4078C86.4631 84.4997 89.1154 82.7247 91.0701 79.8933C93.0206 77.0681 94.2393 73.2379 94.1442 69.3367C93.9528 61.4814 89.7655 56.6754 85.2503 56.5824C81.1766 56.4992 78.3974 57.9366 76.6255 60.31Z" fill="#4A4A49"/>
<path fill-rule="evenodd" clip-rule="evenodd" d="M44.8393 54.1842C45.5899 53.5275 46.7278 53.0952 48.3993 53.0952C48.7977 53.0952 49.2616 53.1937 49.6846 53.334C50.1074 53.4742 50.5153 53.6648 50.7983 53.8662C50.936 53.9642 51.0693 54.0821 51.1505 54.2188C51.1926 54.2897 51.2297 54.3804 51.2331 54.4859C51.2367 54.598 51.2014 54.7025 51.1359 54.7884C51.0195 54.9411 50.8254 55.0147 50.6345 55.0568C50.4292 55.1022 50.1594 55.1251 49.8198 55.1251C49.175 55.1251 48.7143 55.1995 48.3746 55.3581C48.0474 55.5109 47.8143 55.7504 47.6373 56.1292C47.4548 56.5198 47.3322 57.0585 47.2446 57.8022C47.1572 58.5432 47.107 59.4624 47.0566 60.6031C46.9593 62.8054 47.6951 64.6664 48.4636 65.9842C48.8473 66.6422 49.2372 67.1612 49.5304 67.5149C49.6769 67.6916 49.7989 67.8267 49.8836 67.9169C49.926 67.962 49.959 67.9958 49.981 68.018C49.9919 68.0291 50.0002 68.0372 50.0055 68.0424L50.0112 68.048L50.0123 68.0491L50.0123 68.0491L50.0124 68.0492C50.0982 68.1317 50.1268 68.2606 50.0843 68.3739C50.0417 68.4873 49.9368 68.5619 49.8198 68.5619H47.5873C47.5841 68.5619 47.5808 68.5618 47.5776 68.5617C47.576 68.5617 47.5744 68.5616 47.5728 68.5615C46.3324 68.4955 45.4578 67.7398 44.8572 66.6823C44.2614 65.6333 43.9179 64.2624 43.7252 62.8824C43.3394 60.12 43.5439 57.2113 43.6489 56.4679C43.7582 55.694 44.0884 54.8412 44.8393 54.1842ZM49.1589 67.9708C49.1399 67.9483 49.1204 67.925 49.1006 67.901C48.791 67.5277 48.3814 66.9822 47.9783 66.2909C47.173 64.9101 46.3854 62.9326 46.4894 60.576C46.5397 59.4372 46.5907 58.4966 46.681 57.7302C46.7711 56.9666 46.9027 56.3502 47.1268 55.8706C47.3563 55.3794 47.6822 55.0336 48.1423 54.8188C48.5899 54.6098 49.1449 54.534 49.8198 54.534C50.1402 54.534 50.3659 54.512 50.5167 54.4786C50.5517 54.4709 50.5803 54.4631 50.6036 54.4557C50.5733 54.427 50.5322 54.3928 50.4779 54.3542C50.2554 54.1958 49.903 54.0267 49.5123 53.8972C49.1219 53.7677 48.7191 53.6863 48.3993 53.6863C46.8204 53.6863 45.8253 54.0936 45.2046 54.6366C44.5843 55.1794 44.3048 55.8867 44.2106 56.5539C44.112 57.2517 43.9105 60.1018 44.287 62.7974C44.4754 64.1463 44.8051 65.4292 45.3459 66.3815C45.8807 67.323 46.6039 67.9155 47.5947 67.9708H49.1589ZM50.671 54.5359C50.671 54.5359 50.6709 54.5357 50.6707 54.5353C50.6709 54.5357 50.671 54.5359 50.671 54.5359Z" fill="#4A4A49"/>
<path fill-rule="evenodd" clip-rule="evenodd" d="M33.9458 31.5194C29.0329 31.9033 22.5251 32.9553 17.237 33.9135C14.7955 34.3559 12.6165 34.7778 10.978 35.1039L61.3697 34.204L89.4083 32.1482C88.9336 32.1375 88.4356 32.1263 87.9159 32.1147C83.3307 32.0127 77.0602 31.8806 70.3185 31.7605C56.8368 31.5203 41.4803 31.3282 33.9458 31.5194ZM95.4078 31.999L95.4151 31.7092C95.5708 31.7131 95.696 31.8375 95.6998 31.9919C95.7036 32.1464 95.5846 32.2767 95.4293 32.2881L61.4046 34.7828C61.4007 34.7831 61.3968 34.7833 61.3928 34.7834C61.3913 34.7835 61.3898 34.7835 61.3884 34.7835L7.96781 35.7375L5.4176 38.6355V53.7719C5.4176 53.932 5.28679 54.0618 5.12542 54.0618C4.96406 54.0618 4.83325 53.932 4.83325 53.7719V38.5267C4.83325 38.4566 4.85886 38.3889 4.90534 38.3361L7.61209 35.2602C7.61246 35.2598 7.61282 35.2594 7.61319 35.2589C7.61309 35.2591 7.61298 35.2592 7.61288 35.2593M7.63629 35.2356C7.67435 35.2012 7.72106 35.1773 7.77177 35.1665L7.83296 35.45C7.77177 35.1665 7.77163 35.1665 7.77177 35.1665L7.77708 35.1654C7.7234 35.1757 7.67506 35.2005 7.63629 35.2356ZM7.77708 35.1654L7.81901 35.1565C7.85016 35.1499 7.89648 35.1402 7.95727 35.1274C8.07887 35.1019 8.25839 35.0644 8.49031 35.0164C8.95414 34.9204 9.62759 34.7825 10.4665 34.6146C12.1442 34.2788 14.4839 33.823 17.132 33.3432C22.4252 32.3841 28.9621 31.3267 33.9077 30.9408C33.9128 30.9404 33.918 30.9402 33.9231 30.94C41.4702 30.7481 56.8464 30.9406 70.329 31.1808C77.0718 31.3009 83.3432 31.433 87.929 31.5351C90.2218 31.5861 92.0933 31.6297 93.3916 31.6604C94.0407 31.6758 94.5466 31.688 94.8902 31.6964L95.4145 31.7092C95.4149 31.7092 95.4151 31.7092 95.4078 31.999" fill="#4A4A49"/>
<path fill-rule="evenodd" clip-rule="evenodd" d="M84.5784 51.7492C77.9208 51.7492 71.1426 58.3697 71.1426 69.3321C71.1426 74.8053 72.933 79.3448 75.3484 82.4935C77.7734 85.6547 80.7933 87.3748 83.2373 87.3058C87.2357 87.1931 90.6766 85.716 93.1234 82.6873C95.5753 79.6522 97.0574 75.0235 97.0574 68.5551C97.0574 62.101 95.2644 57.9062 92.8273 55.3264C90.3882 52.7443 87.2753 51.7492 84.5784 51.7492ZM70.5667 69.3321C70.5667 58.1378 77.5191 51.1619 84.5784 51.1619C87.4092 51.1619 90.6797 52.2063 93.2421 54.9188C95.8067 57.6336 97.6333 61.9886 97.6333 68.5551C97.6333 75.1074 96.1325 79.8862 93.5679 83.0608C90.9982 86.2417 87.3891 87.7764 83.2532 87.893C80.5551 87.9691 77.3796 86.0946 74.8948 82.8555C72.4005 79.6039 70.5667 74.9371 70.5667 69.3321Z" fill="#4A4A49"/>
<path fill-rule="evenodd" clip-rule="evenodd" d="M61.1676 71.4639C61.3339 71.4453 61.4848 71.5575 61.5045 71.7144C62.403 78.8656 64.7594 82.7299 68.3174 84.8317C71.9026 86.9495 76.7727 87.323 82.8299 87.323C82.9974 87.323 83.1332 87.4511 83.1332 87.6091C83.1332 87.7671 82.9974 87.8952 82.8299 87.8952C76.7856 87.8952 71.7463 87.5324 67.9955 85.3167C64.2176 83.085 61.8114 79.0188 60.902 71.7817C60.8823 71.6248 61.0012 71.4825 61.1676 71.4639Z" fill="#4A4A49"/>
<path fill-rule="evenodd" clip-rule="evenodd" d="M79.5297 45.5309C79.5778 45.4277 79.6787 45.3621 79.7894 45.3621H94.1005C94.2379 45.3621 94.3563 45.4626 94.3832 45.6022L97.6278 62.4047C97.659 62.5665 97.5578 62.7238 97.4016 62.7562C97.2454 62.7886 97.0935 62.6836 97.0622 62.5219L93.864 45.9595H79.9704L74.0149 58.7371C73.9457 58.8857 73.7733 58.948 73.6299 58.8762C73.4864 58.8045 73.4263 58.6259 73.4955 58.4773L79.5297 45.5309Z" fill="#4A4A49"/>
<path fill-rule="evenodd" clip-rule="evenodd" d="M73.2007 43.5938C73.2515 43.4923 73.3531 43.4285 73.464 43.4285H90.3226C90.3628 43.4285 90.4025 43.4369 90.4393 43.4531L94.5537 45.2694C94.704 45.3358 94.7737 45.5152 94.7093 45.6701C94.6448 45.825 94.4707 45.8967 94.3203 45.8303L90.2618 44.0388H73.6446L67.2596 56.7964C67.1846 56.9462 67.0059 57.005 66.8605 56.9278C66.7151 56.8506 66.658 56.6666 66.7329 56.5168L73.2007 43.5938Z" fill="#4A4A49"/>
<path fill-rule="evenodd" clip-rule="evenodd" d="M53.1667 46.3286C53.1667 44.2136 54.8768 42.4619 57.0334 42.4619C59.19 42.4619 60.9001 44.2136 60.9001 46.3286C60.9001 48.4438 59.19 50.1952 57.0334 50.1952C54.8768 50.1952 53.1667 48.4438 53.1667 46.3286ZM57.0334 43.0052C55.2416 43.0052 53.7509 44.4728 53.7509 46.3286C53.7509 48.1846 55.2416 49.652 57.0334 49.652C58.8252 49.652 60.316 48.1846 60.316 46.3286C60.316 44.4728 58.8252 43.0052 57.0334 43.0052Z" fill="#4A4A49"/>
<path fill-rule="evenodd" clip-rule="evenodd" d="M52.2 46.3286C52.2 43.1467 54.5602 40.5286 57.5166 40.5286C60.4733 40.5286 62.8333 43.1467 62.8333 46.3286C62.8333 49.5104 60.4733 52.1286 57.5166 52.1286C54.5602 52.1286 52.2 49.5104 52.2 46.3286ZM57.5166 41.1032C54.914 41.1032 52.767 43.4213 52.767 46.3286C52.767 49.2359 54.914 51.5539 57.5166 51.5539C60.1195 51.5539 62.2663 49.2359 62.2663 46.3286C62.2663 43.4212 60.1195 41.1032 57.5166 41.1032Z" fill="#4A4A49"/>
<path fill-rule="evenodd" clip-rule="evenodd" d="M7.44983 42.5167C7.8766 41.9024 8.48661 41.4954 9.18332 41.4954C9.88002 41.4954 10.49 41.9024 10.9168 42.5167C11.3436 43.131 11.5999 43.967 11.5999 44.8787C11.5999 45.7904 11.3436 46.6263 10.9168 47.2407C10.49 47.855 9.88002 48.262 9.18332 48.262C8.48661 48.262 7.8766 47.855 7.44983 47.2407C7.02299 46.6263 6.7666 45.7904 6.7666 44.8787C6.7666 43.967 7.02299 43.131 7.44983 42.5167ZM7.85486 42.8335C7.49808 43.347 7.26979 44.0692 7.26979 44.8787C7.26979 45.6881 7.49808 46.4104 7.85486 46.9239C8.21171 47.4375 8.68426 47.7281 9.18332 47.7281C9.68236 47.7281 10.1549 47.4375 10.5117 46.9239C10.8685 46.4104 11.0967 45.6881 11.0967 44.8787C11.0967 44.0692 10.8685 43.347 10.5117 42.8335C10.1549 42.3199 9.68236 42.0293 9.18332 42.0293C8.68426 42.0293 8.21171 42.3199 7.85486 42.8335Z" fill="#4A4A49"/>
<path fill-rule="evenodd" clip-rule="evenodd" d="M7.44036 43.2001C7.86305 42.7608 8.47527 42.4619 9.18327 42.4619C9.89128 42.4619 10.5035 42.7608 10.9262 43.2001C11.349 43.6395 11.5999 44.2338 11.5999 44.8786C11.5999 45.5233 11.349 46.1176 10.9262 46.5571C10.5035 46.9964 9.89128 47.2952 9.18327 47.2952C8.47527 47.2952 7.86305 46.9964 7.44036 46.5571C7.01758 46.1176 6.7666 45.5233 6.7666 44.8786C6.7666 44.2338 7.01758 43.6395 7.44036 43.2001ZM8.0001 43.5158C7.67403 43.8547 7.46183 44.3357 7.46183 44.8786C7.46183 45.4215 7.67403 45.9024 8.0001 46.2413C8.32627 46.5804 8.74858 46.7629 9.18327 46.7629C9.61797 46.7629 10.0403 46.5804 10.3664 46.2413C10.6925 45.9024 10.9047 45.4215 10.9047 44.8786C10.9047 44.3357 10.6925 43.8547 10.3664 43.5158C10.0403 43.1768 9.61797 42.9942 9.18327 42.9942C8.74858 42.9942 8.32628 43.1768 8.0001 43.5158Z" fill="#4A4A49"/>
<path fill-rule="evenodd" clip-rule="evenodd" d="M66.7 41.0119C66.7 40.745 66.8305 40.5286 66.9914 40.5286H149.542C149.703 40.5286 149.833 40.745 149.833 41.0119C149.833 41.2788 149.703 41.4952 149.542 41.4952H66.9914C66.8305 41.4952 66.7 41.2788 66.7 41.0119Z" fill="#4A4A49"/>
<path fill-rule="evenodd" clip-rule="evenodd" d="M136.3 50.4342C136.302 50.5682 136.173 50.6785 136.011 50.6806L97.9314 51.162C97.7693 51.164 97.6358 51.057 97.6333 50.9231C97.6309 50.7891 97.7603 50.6788 97.9224 50.6767L136.002 50.1953C136.164 50.1933 136.297 50.3002 136.3 50.4342Z" fill="#4A4A49"/>
<path fill-rule="evenodd" clip-rule="evenodd" d="M137.402 44.5968C137.445 44.4759 137.556 44.3953 137.682 44.3953H149.683C149.776 44.3953 149.863 44.4395 149.919 44.515C151.525 46.6691 152.501 49.2482 152.732 51.9506C152.745 52.0979 152.653 52.2334 152.514 52.2721C152.375 52.3109 152.229 52.2417 152.167 52.108C152.115 51.9944 152.063 51.8826 152.013 51.7726C151.199 50.0022 150.603 48.7064 149.743 47.8231C148.858 46.9135 147.666 46.4225 145.552 46.4225C144.522 46.4225 143.69 46.6728 142.944 47.2428C142.19 47.8193 141.502 48.7398 140.799 50.1226C139.388 52.8966 137.97 57.411 135.802 64.3966C135.765 64.5157 135.661 64.5997 135.54 64.6085C133.954 64.7242 132.362 64.7242 130.776 64.6085C130.685 64.6018 130.601 64.552 130.55 64.4736C130.499 64.3951 130.486 64.2968 130.515 64.2073C130.615 63.8995 132.339 58.9921 134.034 54.1713C134.882 51.7587 135.724 49.3651 136.354 47.5746C136.669 46.6794 136.931 45.9349 137.114 45.4143L137.402 44.5968C137.402 44.5967 137.402 44.5968 137.682 44.7007L137.402 44.5968ZM137.89 45.0061L137.674 45.622C137.49 46.1426 137.228 46.8871 136.913 47.7823C136.283 49.5727 135.441 51.9663 134.593 54.3788C133.13 58.5401 131.651 62.7496 131.208 64.0253C132.57 64.108 133.936 64.1039 135.297 64.0132C137.423 57.1649 138.844 52.6459 140.272 49.8397C140.994 48.4189 141.733 47.4074 142.589 46.7527C143.454 46.0916 144.417 45.8117 145.552 45.8117C147.765 45.8117 149.131 46.3306 150.164 47.3911C150.799 48.0442 151.298 48.8955 151.8 49.9134C151.374 48.145 150.606 46.4753 149.535 45.0061H137.89Z" fill="#4A4A49"/>
<path fill-rule="evenodd" clip-rule="evenodd" d="M144.946 53.1126C145.523 52.504 146.194 52.1287 146.933 52.1287C147.673 52.1287 148.344 52.5039 148.921 53.1126C149.497 53.721 150.002 54.5851 150.42 55.628C151.256 57.7157 151.767 60.5798 151.767 63.7287C151.767 66.8775 151.256 69.7416 150.42 71.8293C150.002 72.8722 149.497 73.7363 148.921 74.3447C148.344 74.9534 147.673 75.3287 146.933 75.3287C146.194 75.3287 145.523 74.9534 144.946 74.3447C144.37 73.7363 143.865 72.8722 143.447 71.8293C142.611 69.7416 142.1 66.8775 142.1 63.7287C142.1 60.5798 142.611 57.7157 143.447 55.628C143.865 54.5851 144.37 53.721 144.946 53.1126ZM144.015 55.8411C143.212 57.8451 142.709 60.6337 142.709 63.7287C142.709 66.8236 143.212 69.6122 144.015 71.6162C144.416 72.6192 144.887 73.4108 145.395 73.9465C145.902 74.482 146.422 74.7395 146.933 74.7395C147.445 74.7395 147.965 74.482 148.472 73.9465C148.98 73.4108 149.45 72.6192 149.852 71.6162C150.655 69.6122 151.158 66.8236 151.158 63.7287C151.158 60.6337 150.655 57.8451 149.852 55.8411C149.45 54.8381 148.98 54.0466 148.472 53.5108C147.965 52.9753 147.445 52.7179 146.933 52.7179C146.422 52.7179 145.902 52.9753 145.395 53.5108C144.887 54.0466 144.416 54.8381 144.015 55.8411Z" fill="#4A4A49"/>
<path fill-rule="evenodd" clip-rule="evenodd" d="M143.246 49.5367C144.058 48.7324 144.978 48.262 145.967 48.262C146.956 48.262 147.875 48.7324 148.688 49.5367C149.498 50.3396 150.215 51.4871 150.811 52.8822C152.003 55.6733 152.733 59.5083 152.733 63.7286C152.733 67.9489 152.003 71.7838 150.811 74.5749C150.215 75.9701 149.498 77.1176 148.688 77.9205C147.875 78.7248 146.956 79.1953 145.967 79.1953C144.978 79.1953 144.058 78.7248 143.246 77.9205C142.435 77.1176 141.718 75.9701 141.122 74.5749C139.93 71.7838 139.2 67.9489 139.2 63.7286C139.2 59.5083 139.93 55.6733 141.122 52.8822C141.718 51.4871 142.435 50.3396 143.246 49.5367ZM141.649 53.1227C140.496 55.8217 139.776 59.5712 139.776 63.7286C139.776 67.886 140.496 71.6354 141.649 74.3344C142.226 75.6843 142.905 76.7582 143.644 77.4905C144.382 78.2214 145.166 78.5998 145.967 78.5998C146.767 78.5998 147.551 78.2214 148.289 77.4905C149.029 76.7582 149.708 75.6843 150.284 74.3344C151.437 71.6354 152.157 67.886 152.157 63.7286C152.157 59.5712 151.437 55.8217 150.284 53.1227C149.708 51.7729 149.029 50.699 148.289 49.9667C147.551 49.2358 146.767 48.8574 145.967 48.8574C145.166 48.8574 144.382 49.2358 143.644 49.9667C142.905 50.699 142.226 51.7729 141.649 53.1227Z" fill="#4A4A49"/>
<path fill-rule="evenodd" clip-rule="evenodd" d="M129.784 69.533C129.948 69.5047 130.103 69.6156 130.132 69.7807C131.09 75.4181 134.321 77.8736 135.205 78.4497L135.206 78.4504C135.31 78.5182 135.43 78.554 135.554 78.5533L135.556 78.5533C135.819 78.5533 136.293 78.5576 136.912 78.5631C138.983 78.5816 142.687 78.6147 145.659 78.5534C145.825 78.55 145.963 78.6829 145.966 78.8504C145.97 79.0178 145.838 79.1563 145.671 79.1597C142.688 79.2213 138.96 79.188 136.894 79.1695C136.281 79.164 135.814 79.1598 135.556 79.1598C135.315 79.1609 135.079 79.091 134.878 78.9587C133.899 78.3214 130.533 75.7364 129.538 69.883C129.509 69.7179 129.62 69.5612 129.784 69.533Z" fill="#4A4A49"/>
<path fill-rule="evenodd" clip-rule="evenodd" d="M133.043 63.7335C133.203 63.7047 133.356 63.8099 133.384 63.9683L133.096 64.0204C133.384 63.9683 133.384 63.9683 133.384 63.9683L133.385 63.9688L133.385 63.97L133.386 63.9748L133.389 63.9932C133.392 64.0092 133.396 64.0328 133.401 64.0631C133.412 64.1236 133.427 64.211 133.446 64.3188C133.482 64.5344 133.531 64.832 133.58 65.1602C133.66 65.6954 133.742 66.3276 133.769 66.817H135.04C135.202 66.817 135.333 66.9476 135.333 67.1086V69.4323C135.333 69.5878 135.211 69.7159 135.054 69.7236L99.6959 71.4617C99.6156 71.4657 99.5372 71.4368 99.4789 71.3817C99.4207 71.3267 99.3877 71.2503 99.3877 71.1705V68.1613L96.7161 64.1822C96.6261 64.0482 96.6626 63.8672 96.7975 63.7778C96.9324 63.6885 97.1147 63.7246 97.2047 63.8586L99.9256 67.9112C99.9578 67.9591 99.975 68.0154 99.975 68.073V70.8641L134.746 69.1548V67.4003H133.484C133.322 67.4003 133.19 67.2697 133.19 67.1086C133.19 66.651 133.097 65.8992 132.999 65.2456C132.951 64.9223 132.903 64.6287 132.867 64.4159C132.849 64.3095 132.834 64.2235 132.823 64.1641C132.818 64.1344 132.814 64.1114 132.811 64.0959L132.807 64.0739L132.807 64.0728L132.807 64.0726C132.778 63.9141 132.884 63.7623 133.043 63.7335Z" fill="#4A4A49"/>
<path fill-rule="evenodd" clip-rule="evenodd" d="M131.466 62.1593C131.474 62.3702 131.35 62.5493 131.189 62.5593L96.9722 64.6947C96.8113 64.7048 96.6747 64.5419 96.6671 64.331C96.6594 64.1201 96.7836 63.941 96.9445 63.931L131.161 61.7956C131.322 61.7856 131.459 61.9484 131.466 62.1593Z" fill="#4A4A49"/>
<path fill-rule="evenodd" clip-rule="evenodd" d="M132.433 67.0349C132.437 67.2647 132.31 67.4554 132.148 67.4609L99.8661 68.5619C99.7047 68.5674 99.5708 68.3856 99.567 68.1558C99.5631 67.926 99.6908 67.7353 99.8521 67.7298L132.134 66.6288C132.296 66.6233 132.43 66.8051 132.433 67.0349Z" fill="#4A4A49"/>
<path fill-rule="evenodd" clip-rule="evenodd" d="M103.046 0.895383C103.054 0.895146 103.063 0.895262 103.071 0.895729L103.054 1.19006L103.046 0.895383ZM149.231 9.66674C149.903 13.0863 150.872 18.2696 151.674 22.597C152.075 24.761 152.434 26.7112 152.692 28.1205C152.822 28.8252 152.926 29.3946 152.998 29.7878L153.109 30.3976L153.109 30.3981C153.109 30.3982 153.109 30.3983 152.821 30.4515L153.109 30.3981C153.111 30.4081 153.112 30.4184 153.113 30.4286C153.113 30.4321 153.114 30.4357 153.114 30.4393L154.083 53.8341L154.642 58.1523L156.438 59.0571C156.537 59.107 156.6 59.2091 156.6 59.3208V64.5872C156.6 64.7288 156.5 64.8503 156.362 64.8768L152.296 65.6567C152.137 65.6871 151.984 65.5822 151.953 65.4222C151.923 65.2623 152.027 65.1079 152.186 65.0775L156.015 64.3432V59.503L154.241 58.6096C154.154 58.5658 154.094 58.4812 154.082 58.384L153.501 53.8974C153.5 53.8889 153.499 53.8803 153.499 53.8716L152.53 30.4845L152.422 29.8947C152.35 29.5015 152.246 28.9322 152.117 28.2277C151.858 26.8186 151.499 24.8687 151.099 22.7052C150.297 18.3777 149.328 13.1972 148.657 9.78122L148.657 9.78092C148.553 9.25053 148.307 8.75915 147.944 8.36018C147.582 7.96128 147.118 7.67046 146.603 7.51949C139.057 5.31118 128.172 3.8016 119.159 2.84419C114.655 2.36581 110.625 2.02583 107.72 1.80544C106.267 1.69525 105.097 1.61497 104.289 1.56224C103.885 1.53588 103.572 1.51641 103.36 1.50353C103.254 1.49709 103.174 1.49231 103.12 1.48913L103.05 1.4851L102.955 1.48794C102.883 1.4901 102.777 1.49335 102.637 1.49777C102.357 1.5066 101.945 1.52005 101.413 1.53854C100.349 1.57553 98.8088 1.63268 96.9026 1.7133C93.0899 1.87455 87.8138 2.12968 81.9599 2.5052C70.2463 3.25661 56.2391 4.48896 47.0095 6.41161C46.3169 6.55636 45.6675 6.8624 45.1134 7.30522C44.5593 7.74831 44.1157 8.31585 43.8183 8.96237L43.8181 8.9627C41.869 13.1855 39.5141 18.7312 37.6455 23.2237C36.7115 25.4694 35.8993 27.451 35.3207 28.8711C35.0314 29.5812 34.8004 30.1508 34.6419 30.5429C34.5626 30.739 34.5014 30.8907 34.46 30.9933L34.3972 31.1493C34.3971 31.1494 34.3971 31.1494 34.1259 31.0388C33.8547 30.9282 33.8547 30.9281 33.8547 30.928L33.9178 30.7715C33.9592 30.6686 34.0205 30.5168 34.0999 30.3205C34.2586 29.9279 34.4897 29.3578 34.7793 28.6472C35.3583 27.2261 36.171 25.2431 37.1058 22.9958C38.9748 18.5022 41.3334 12.9477 43.2875 8.7141C43.6233 7.98425 44.124 7.34359 44.7496 6.8434C45.3753 6.34335 46.1086 5.99775 46.8906 5.83431C56.1651 3.90228 70.2101 2.66815 81.9227 1.91679C87.7819 1.54093 93.0623 1.28559 96.878 1.12422C98.7859 1.04353 100.328 0.986329 101.393 0.949296C101.925 0.93078 102.338 0.917305 102.619 0.908458C102.759 0.904034 102.865 0.900768 102.937 0.898606L103.046 0.895396C103.046 0.895388 103.046 0.895383 103.054 1.19006C103.071 0.895729 103.071 0.895736 103.071 0.895749L103.154 0.900527C103.208 0.903727 103.289 0.908541 103.396 0.915004C103.608 0.927931 103.922 0.947458 104.327 0.97388C105.136 1.02672 106.309 1.10715 107.764 1.21751C110.673 1.43822 114.71 1.77871 119.22 2.25784C128.235 3.21545 139.166 4.72904 146.766 6.95329C147.385 7.13448 147.941 7.48354 148.376 7.9622C148.811 8.44074 149.107 9.03026 149.231 9.66674ZM34.1259 31.0388L33.8547 30.928C33.7941 31.0789 33.8663 31.2509 34.0161 31.312C34.1659 31.3731 34.3365 31.3002 34.3972 31.1493L34.1259 31.0388Z" fill="#4A4A49"/>
<path fill-rule="evenodd" clip-rule="evenodd" d="M10.6297 53.2096C11.1287 53.0389 11.7073 53.0652 12.3576 53.249C12.4431 53.2731 12.5126 53.3353 12.5458 53.4174C12.579 53.4995 12.5722 53.5923 12.5274 53.6687C11.7554 54.9839 11.7443 55.8351 11.7443 58.8696C11.7443 61.9123 11.7508 63.6926 12.536 65.2471C12.5886 65.3513 12.5724 65.4769 12.4951 65.5646C12.4177 65.6522 12.2947 65.6843 12.1841 65.6458C10.8355 65.1756 9.92272 64.6803 9.37967 63.6806C8.85137 62.7081 8.69995 61.3019 8.69995 59.0999C8.69995 56.8944 8.90178 55.2573 9.45548 54.2567C9.73919 53.7441 10.1238 53.3825 10.6297 53.2096ZM9.95907 54.5329C9.48425 55.3909 9.27491 56.8905 9.27491 59.0999C9.27491 61.3129 9.43502 62.5793 9.88541 63.4083C10.2462 64.0725 10.8111 64.4851 11.7445 64.8687C11.1692 63.3268 11.1693 61.5308 11.1693 58.9372L11.1693 58.8488C11.1693 56.0935 11.1693 55.0177 11.8449 53.7157C11.4289 53.6387 11.0915 53.6569 10.8164 53.7509C10.4735 53.8681 10.1896 54.1163 9.95907 54.5329Z" fill="#4A4A49"/>
<path fill-rule="evenodd" clip-rule="evenodd" d="M99.4282 32.7985C99.4435 32.7962 99.4589 32.7952 99.4743 32.7954L113.778 32.9885C113.94 32.9907 114.069 33.1232 114.067 33.2844C114.064 33.4457 113.932 33.5746 113.77 33.5724L99.4896 33.3797L63.7456 38.5924C63.7316 38.5944 63.7175 38.5954 63.7034 38.5954H5.12543C4.96407 38.5954 4.83325 38.4647 4.83325 38.3034C4.83325 38.1422 4.96407 38.0115 5.12543 38.0115H63.6822L99.4282 32.7985Z" fill="#4A4A49"/>
<path fill-rule="evenodd" clip-rule="evenodd" d="M120.497 31.8287C120.639 31.8241 120.757 31.9515 120.761 32.1132C120.846 35.5087 120.932 41.869 120.542 48.1241C120.347 51.2514 120.033 54.359 119.54 57.0598C119.047 59.7528 118.371 62.0735 117.435 63.6031C117.354 63.7358 117.194 63.7685 117.077 63.676C116.96 63.5835 116.932 63.4009 117.013 63.2681C117.887 61.8386 118.547 59.6135 119.036 56.9404C119.523 54.275 119.835 51.196 120.029 48.0827C120.417 41.8565 120.332 35.5189 120.247 32.13C120.243 31.9682 120.355 31.8334 120.497 31.8287Z" fill="#4A4A49"/>
<path fill-rule="evenodd" clip-rule="evenodd" d="M136.688 28.9293C136.918 28.919 137.116 29.0366 137.131 29.1921L136.716 29.2109L136.301 29.2297C136.285 29.0742 136.459 28.9397 136.688 28.9293ZM136.716 29.2109C136.301 29.2297 136.301 29.2296 136.301 29.2297L136.313 29.3563C136.321 29.4394 136.333 29.5619 136.348 29.7195C136.378 30.0347 136.421 30.4903 136.473 31.0516C136.576 32.1742 136.713 33.7195 136.851 35.4106C137.126 38.7955 137.401 42.7551 137.401 45.0799C137.401 45.2357 137.587 45.362 137.817 45.362C138.047 45.362 138.233 45.2357 138.233 45.0799C138.233 42.7371 137.957 38.7622 137.682 35.3795C137.544 33.6867 137.407 32.14 137.303 31.0165C137.252 30.4547 137.209 29.9987 137.179 29.6831C137.164 29.5253 137.152 29.4026 137.144 29.3193L137.131 29.1921C137.131 29.192 137.131 29.1921 136.716 29.2109Z" fill="#4A4A49"/>
<path fill-rule="evenodd" clip-rule="evenodd" d="M50.6475 55.7349C50.6102 55.7363 50.5733 55.7377 50.5366 55.739C50.3685 55.7454 50.2267 55.6232 50.22 55.4662C50.2132 55.3092 50.3439 55.1768 50.512 55.1705C50.5523 55.169 50.5929 55.1674 50.6339 55.1659C53.2535 55.067 57.3943 54.9107 61.036 55.1725C62.8837 55.3053 64.622 55.5469 65.9748 55.9661C67.307 56.3789 68.366 56.9953 68.686 57.9446C69.7905 61.2209 70.2386 65.6924 68.0138 69.9434C68.0073 69.9558 67.9998 69.9678 67.9914 69.9792C67.542 70.5921 66.6801 70.9441 65.6899 71.1532C64.6853 71.3654 63.4756 71.445 62.2419 71.4594C61.0057 71.4739 59.7308 71.4228 58.5926 71.3685C58.3765 71.3582 58.1657 71.3478 57.9613 71.3377C57.0828 71.2944 56.321 71.2568 55.7548 71.2568C54.3132 71.2568 53.5949 70.5225 52.9396 69.8526C52.8811 69.7928 52.8231 69.7335 52.7651 69.6753C52.4064 69.315 52.0475 68.9894 51.5712 68.7633C51.1003 68.5397 50.4927 68.4035 49.6268 68.4631C49.459 68.4747 49.313 68.357 49.3006 68.2003C49.2883 68.0436 49.4143 67.9072 49.582 67.8957C50.5438 67.8294 51.2647 67.9795 51.8472 68.256C52.4241 68.5299 52.8433 68.9183 53.2112 69.2877C53.2686 69.3454 53.3248 69.4024 53.3801 69.4586C54.0439 70.1331 54.5897 70.6878 55.7548 70.6878C56.3387 70.6878 57.1221 70.7265 58.0017 70.7699C58.2044 70.7799 58.4121 70.7901 58.6237 70.8002C59.7601 70.8544 61.0187 70.9046 62.2343 70.8905C63.4523 70.8762 64.6125 70.7974 65.5555 70.5982C66.5007 70.3986 67.1591 70.0921 67.4767 69.6739C69.5994 65.6017 69.1783 61.2996 68.1049 58.1155C67.88 57.4484 67.0864 56.9101 65.783 56.5062C64.5 56.1086 62.8193 55.8714 60.9893 55.7398C57.3837 55.4806 53.2722 55.6358 50.6475 55.7349Z" fill="#4A4A49"/>
<path fill-rule="evenodd" clip-rule="evenodd" d="M12.567 54.2545C12.5712 54.1454 12.7047 54.0592 12.8653 54.0621L45.1503 54.6336C45.3109 54.6364 45.4376 54.7272 45.4335 54.8362C45.4293 54.9453 45.2957 55.0315 45.1352 55.0286L12.8501 54.4571C12.6896 54.4543 12.5628 54.3635 12.567 54.2545Z" fill="#4A4A49"/>
<path fill-rule="evenodd" clip-rule="evenodd" d="M10.0868 53.4553C10.0746 53.4558 10.0549 53.4558 10.0259 53.4548C9.9605 53.4525 9.86777 53.4456 9.74766 53.4345C9.57671 53.4186 9.36163 53.3954 9.10937 53.3681C9.00756 53.3571 8.89969 53.3455 8.78623 53.3334C8.00145 53.2498 6.96647 53.1476 5.90694 53.11C4.85052 53.0725 3.75404 53.0987 2.85014 53.2781C2.39806 53.3679 1.9815 53.4983 1.63825 53.687C1.2947 53.8758 1.00751 54.1326 0.84512 54.4824C0.569302 55.0766 0.325063 56.1489 0.171243 57.403C0.0162263 58.6668 -0.0509516 60.1489 0.043345 61.5801C0.137346 63.0068 0.393237 64.4064 0.899303 65.49C1.40787 66.579 2.1899 67.386 3.33594 67.5235C5.42966 67.7746 7.01502 67.3255 8.2952 66.81C8.61373 66.6817 8.91342 66.5493 9.19505 66.4237C9.22937 66.4084 9.26339 66.3932 9.29712 66.3781C9.54167 66.2688 9.7711 66.1663 9.99194 66.075C10.497 65.8661 10.9273 65.7288 11.3266 65.7124C11.4836 65.7059 11.6059 65.5663 11.5998 65.4007C11.5936 65.2351 11.4613 65.106 11.3043 65.1125C10.8057 65.1331 10.302 65.302 9.78417 65.5161C9.55568 65.6107 9.31862 65.7166 9.07501 65.8254C9.04124 65.8405 9.00734 65.8556 8.97333 65.8708C8.69238 65.9962 8.40062 66.125 8.09221 66.2492C6.86463 66.7435 5.37425 67.1638 3.40024 66.927C2.51243 66.8206 1.86684 66.2033 1.40985 65.2248C0.950352 64.2408 0.702737 62.9294 0.611094 61.5385C0.519747 60.1521 0.584787 58.71 0.735658 57.48C0.887724 56.2402 1.12304 55.2488 1.35626 54.7464C1.44838 54.548 1.62566 54.3708 1.90123 54.2193C2.1771 54.0677 2.53433 53.9516 2.95542 53.868C3.79784 53.7008 4.8452 53.673 5.88782 53.7099C6.92735 53.7468 7.94663 53.8473 8.72906 53.9307C8.83955 53.9424 8.94568 53.9539 9.04662 53.9648C9.30106 53.9923 9.52255 54.0162 9.69785 54.0324C9.82012 54.0438 9.92552 54.0519 10.0071 54.0548C10.0475 54.0562 10.0872 54.0565 10.1227 54.0544L10.1231 54.0544C10.1465 54.0531 10.2096 54.0494 10.2704 54.0214C10.4145 53.9551 10.4804 53.7782 10.4175 53.6263C10.361 53.4896 10.2195 53.4196 10.0868 53.4553ZM10.0999 53.4542C10.1 53.4543 10.0983 53.4546 10.0946 53.4548C10.0979 53.4543 10.0998 53.4542 10.0999 53.4542Z" fill="#4A4A49"/>
<path fill-rule="evenodd" clip-rule="evenodd" d="M12.5675 65.9479C12.5778 65.7794 12.7149 65.6516 12.8737 65.6625L46.1307 67.9508C46.2895 67.9617 46.4099 68.1072 46.3996 68.2758C46.3893 68.4444 46.2523 68.5721 46.0935 68.5612L12.8364 66.2729C12.6776 66.262 12.5572 66.1165 12.5675 65.9479Z" fill="#4A4A49"/>
<path fill-rule="evenodd" clip-rule="evenodd" d="M11.6007 64.0302C11.6109 63.853 11.7514 63.7183 11.9145 63.7294L45.156 65.9864C45.3191 65.9974 45.443 66.1501 45.4328 66.3273C45.4226 66.5045 45.2822 66.6392 45.119 66.6281L11.8776 64.3712C11.7145 64.3601 11.5905 64.2074 11.6007 64.0302Z" fill="#4A4A49"/>
<path fill-rule="evenodd" clip-rule="evenodd" d="M11.6003 55.3162C11.607 55.1507 11.7451 55.0221 11.9087 55.0288L44.1823 56.3623C44.346 56.3691 44.4732 56.5087 44.4665 56.6742C44.4598 56.8397 44.3218 56.9684 44.1581 56.9616L11.8845 55.6282C11.7209 55.6214 11.5937 55.4817 11.6003 55.3162Z" fill="#4A4A49"/>
<path fill-rule="evenodd" clip-rule="evenodd" d="M9.32839 55.5028C9.3285 55.5028 9.32859 55.5028 9.25869 55.7783L9.32839 55.5028C9.48881 55.5394 9.58776 55.6924 9.54916 55.8445C9.51056 55.9966 9.34924 56.0903 9.18883 56.0537M9.18883 56.0537L9.18798 56.0535L9.18463 56.0528L9.17047 56.0496C9.15777 56.0468 9.13861 56.0426 9.11341 56.0372C9.06301 56.0264 8.98845 56.0107 8.89302 55.9918C8.7021 55.9538 8.42794 55.9024 8.0967 55.8492C7.43307 55.7427 6.54567 55.6298 5.64207 55.6018C4.73338 55.5735 3.83314 55.6321 3.13151 55.8537C2.43399 56.0741 1.98526 56.4354 1.85653 56.9903C1.54444 58.3358 1.44611 60.4121 1.74154 62.1441C1.88946 63.0113 2.13208 63.7671 2.47642 64.2983C2.81746 64.8245 3.23138 65.0953 3.73343 65.0953C4.97144 65.0953 6.32138 64.778 7.51948 64.4636C7.6809 64.4213 7.84011 64.3789 7.99592 64.3373C8.41102 64.2267 8.80207 64.1225 9.14693 64.0433C9.61168 63.9367 10.0439 63.8624 10.3674 63.8961C10.5314 63.9132 10.6497 64.0532 10.6316 64.2087C10.6136 64.3642 10.466 64.4764 10.302 64.4593C10.0957 64.4378 9.75879 64.4859 9.28747 64.594C8.95399 64.6706 8.57905 64.7705 8.16835 64.8799C8.01035 64.9221 7.84706 64.9656 7.6788 65.0097C6.48267 65.3235 5.06166 65.6619 3.73343 65.6619C2.95237 65.6619 2.3736 65.2217 1.96737 64.595C1.56443 63.9734 1.3052 63.1345 1.15169 62.2345C0.844247 60.4322 0.944685 58.2839 1.27296 56.8686C1.46442 56.0433 2.13753 55.5705 2.94266 55.3162C3.74368 55.0631 4.7269 55.0064 5.66164 55.0355C6.60149 55.0647 7.51751 55.1816 8.19643 55.2906C8.53647 55.3452 8.81837 55.398 9.0157 55.4372C9.11439 55.4569 9.192 55.4731 9.24523 55.4845C9.27185 55.4903 9.29238 55.4948 9.30641 55.4979L9.32253 55.5015L9.32683 55.5024L9.32839 55.5028" fill="#4A4A49"/>
<path fill-rule="evenodd" clip-rule="evenodd" d="M50.6232 57.5887C49.3419 57.6169 48.2849 57.6401 47.6409 57.6169C47.4839 57.6112 47.3612 57.4796 47.3669 57.3228C47.3726 57.1661 47.5044 57.0436 47.6615 57.0493C48.2874 57.0718 49.3187 57.0492 50.5939 57.0212C50.9922 57.0125 51.4143 57.0032 51.8553 56.9946C53.6996 56.9588 55.8586 56.9357 57.9344 57.0173C60.0066 57.0988 62.013 57.2853 63.5465 57.6742C64.3124 57.8685 64.9783 58.1176 65.4788 58.4416C65.9803 58.7663 66.3435 59.1856 66.4386 59.7231C66.75 61.4824 66.7726 63.5475 66.5627 65.2618C66.4577 66.1188 66.2934 66.899 66.0724 67.5147C65.858 68.112 65.5669 68.6224 65.1631 68.8463C64.974 68.9511 64.6871 69.0422 64.3504 69.1212C64.0068 69.2019 63.588 69.2753 63.12 69.3369C62.1839 69.46 61.0379 69.5374 59.8792 69.5278C58.7221 69.5182 57.5416 69.4218 56.5406 69.1927C55.554 68.9669 54.6809 68.5989 54.21 67.9993C53.4056 66.9752 52.8118 66.4524 52.0329 66.191C51.2352 65.9233 50.2089 65.9165 48.4979 66.0323C48.3411 66.0429 48.2054 65.9247 48.1948 65.7682C48.1842 65.6117 48.3026 65.4762 48.4594 65.4656C50.1578 65.3506 51.2942 65.3438 52.2142 65.6526C53.1531 65.9677 53.8323 66.5979 54.6578 67.6488C55.0018 68.0868 55.7071 68.4192 56.6678 68.6391C57.6142 68.8557 58.75 68.9504 59.8839 68.9598C61.0163 68.9692 62.1359 68.8934 63.0457 68.7737C63.5007 68.7139 63.8999 68.6435 64.2201 68.5683C64.5472 68.4915 64.7699 68.4146 64.8868 68.3497C65.0952 68.2342 65.3283 67.9039 65.5368 67.3231C65.7387 66.7606 65.896 66.0252 65.9979 65.1929C66.2017 63.5286 66.1789 61.5204 65.8783 59.8219C65.8204 59.495 65.5944 59.1935 65.1692 58.9181C64.7428 58.6421 64.1443 58.4119 63.4064 58.2247C61.9323 57.8509 59.9742 57.666 57.912 57.5849C55.8536 57.5039 53.7085 57.5267 51.8664 57.5625C51.4343 57.5709 51.0181 57.5801 50.6232 57.5887Z" fill="#4A4A49"/>
<path fill-rule="evenodd" clip-rule="evenodd" d="M16.8402 39.5693C17.0522 39.5733 17.274 39.5775 17.5026 39.5775H44.0943C44.9579 39.5775 45.6605 39.6693 46.2378 39.9003C46.824 40.1349 47.2673 40.5076 47.6167 41.0406C47.9606 41.5653 48.2086 42.2379 48.4237 43.0669C48.639 43.897 48.8267 44.9067 49.0395 46.1151C49.4686 48.5527 49.3785 50.3365 48.6911 51.581C47.9923 52.8463 46.7218 53.4782 44.9884 53.7243C44.986 53.7246 44.9835 53.7249 44.981 53.7252C40.7322 54.2139 35.1175 54.0926 29.9458 53.8512C27.9587 53.7585 26.0391 53.6482 24.2848 53.5474C21.4587 53.385 19.0617 53.2473 17.5026 53.2473C16.19 53.2473 15.1749 52.9333 14.4136 52.3653C13.6516 51.7967 13.1715 50.9943 12.8932 50.0696C12.3419 48.2374 12.5677 45.8739 12.9914 43.6916C13.2039 42.5971 13.4199 41.7866 13.6698 41.1903C13.9209 40.5914 14.2156 40.1857 14.5975 39.9302C14.9777 39.6758 15.408 39.595 15.8774 39.5709C16.1624 39.5563 16.4878 39.5625 16.8402 39.5693ZM14.2062 41.4291C13.9808 41.9669 13.7743 42.7283 13.5643 43.8097C13.1431 45.9793 12.9464 48.2135 13.4513 49.8912C13.7011 50.7214 14.1188 51.4019 14.7562 51.8775C15.3943 52.3536 16.2804 52.6451 17.5026 52.6451C19.0763 52.6451 21.5033 52.7845 24.3466 52.9478C26.098 53.0483 28.0072 53.158 29.9723 53.2497C35.1428 53.491 40.7144 53.6096 44.9124 53.1272C46.5568 52.8931 47.6128 52.316 48.1833 51.2831C48.7657 50.2289 48.8874 48.6239 48.4646 46.2227C48.2514 45.0117 48.0675 44.0253 47.8592 43.2224C47.6506 42.4183 47.4229 41.8208 47.1326 41.3777C46.8476 40.9431 46.4981 40.6505 46.0263 40.4617C45.5456 40.2693 44.9253 40.1797 44.0943 40.1797H17.5026C17.2446 40.1797 17.0116 40.1751 16.7969 40.1709C16.4637 40.1643 16.175 40.1586 15.9065 40.1724C15.4781 40.1943 15.1691 40.2656 14.9156 40.4352C14.6638 40.6037 14.4304 40.8941 14.2062 41.4291Z" fill="#4A4A49"/>
<path fill-rule="evenodd" clip-rule="evenodd" d="M13.7968 65.6634C13.9579 65.6465 14.1018 65.7674 14.1182 65.9334C14.4657 69.452 15.4094 72.822 17.0396 75.3282C18.6638 77.8251 20.962 79.4578 24.0501 79.5542C27.1201 79.65 29.7985 77.7326 31.7774 75.1589C33.7558 72.5859 34.9861 69.4172 35.1812 67.1363C35.1954 66.9701 35.3377 66.8472 35.499 66.8619C35.6604 66.8765 35.7796 67.0231 35.7654 67.1893C35.5586 69.6074 34.2738 72.8852 32.2371 75.5341C30.2008 78.1824 27.3642 80.2621 24.0324 80.1581C20.7187 80.0547 18.26 78.2896 16.5524 75.6645C14.8509 73.0487 13.8881 69.5726 13.5347 65.9946C13.5183 65.8286 13.6357 65.6803 13.7968 65.6634Z" fill="#4A4A49"/>
<path fill-rule="evenodd" clip-rule="evenodd" d="M10.9528 65.662C11.1186 65.6675 11.2484 65.8015 11.2427 65.9612C11.1451 68.688 11.8785 72.2219 13.7346 75.2328C15.5863 78.2365 18.547 80.7091 22.9146 81.3631C27.2767 82.0162 30.5586 80.5291 33.0073 77.9365C35.4687 75.3304 37.0905 71.6018 38.0746 67.7948C38.1147 67.6398 38.2777 67.5454 38.4387 67.584C38.5997 67.6226 38.6978 67.7796 38.6577 67.9346C37.662 71.7863 36.0079 75.6196 33.4518 78.3258C30.8831 81.0455 27.406 82.6212 22.8223 81.9349C18.2442 81.2494 15.1425 78.65 13.218 75.5282C11.2978 72.4135 10.541 68.7683 10.6422 65.9412C10.6479 65.7815 10.787 65.6565 10.9528 65.662Z" fill="#4A4A49"/>
<path fill-rule="evenodd" clip-rule="evenodd" d="M5.10452 67.596C5.26592 67.5842 5.40654 67.7028 5.41859 67.8608C5.6803 71.2935 7.13862 74.9941 10.0937 77.6734C13.0417 80.3464 17.508 82.0288 23.8432 81.3833C24.0041 81.3669 24.1482 81.4814 24.165 81.639C24.1817 81.7967 24.0648 81.9378 23.9038 81.9542C17.4256 82.6143 12.7845 80.8953 9.69544 78.0945C6.61336 75.3 5.1048 71.4545 4.83408 67.9036C4.82203 67.7455 4.94311 67.6078 5.10452 67.596Z" fill="#4A4A49"/>
<path fill-rule="evenodd" clip-rule="evenodd" d="M46.4009 59.3642C46.4128 59.0858 46.5552 58.8765 46.7191 58.8966L46.6977 59.4006L46.6762 59.9047C46.5123 59.8845 46.3891 59.6426 46.4009 59.3642ZM46.6977 59.4006C46.6762 59.9047 46.6761 59.9047 46.6762 59.9047L46.7145 59.9093C46.7397 59.9124 46.7772 59.9169 46.8263 59.9227C46.9245 59.9343 47.0692 59.9511 47.2557 59.9722C47.6286 60.0144 48.1685 60.0735 48.8368 60.1411C50.1733 60.2763 52.0237 60.4458 54.0795 60.5826C58.1856 60.8559 63.1298 61.0005 66.4303 60.4756C66.5939 60.4496 66.7141 60.2032 66.6988 59.9253C66.6835 59.6474 66.5385 59.4433 66.3749 59.4693C63.1182 59.9873 58.21 59.846 54.1028 59.5727C52.052 59.4362 50.2058 59.2671 48.8722 59.1322C48.2054 59.0647 47.6669 59.0058 47.2952 58.9637C47.1093 58.9427 46.9652 58.9259 46.8676 58.9144C46.8188 58.9086 46.7816 58.9042 46.7567 58.9012L46.7191 58.8966C46.719 58.8966 46.7191 58.8966 46.6977 59.4006Z" fill="#4A4A49"/>
<path fill-rule="evenodd" clip-rule="evenodd" d="M11.6003 58.215C11.607 58.0503 11.7442 57.9222 11.9068 57.929L44.1841 59.2654C44.3467 59.2721 44.4732 59.4111 44.4665 59.5758C44.4599 59.7405 44.3227 59.8685 44.1601 59.8618L11.8827 58.5253C11.7201 58.5186 11.5937 58.3797 11.6003 58.215Z" fill="#4A4A49"/>
<path fill-rule="evenodd" clip-rule="evenodd" d="M0.967119 58.2175C0.974812 58.0506 1.11841 57.9215 1.28786 57.929L9.37359 58.2906C9.54304 58.2982 9.67417 58.4396 9.66648 58.6066C9.65878 58.7735 9.51518 58.9026 9.34573 58.8951L1.26 58.5335C1.09056 58.5259 0.959426 58.3844 0.967119 58.2175Z" fill="#4A4A49"/>
<path fill-rule="evenodd" clip-rule="evenodd" d="M46.4026 61.2202C46.4231 60.9745 46.5702 60.8008 46.7311 60.8323C49.0369 61.2832 53.0614 61.65 56.96 61.7964C60.8661 61.943 64.6075 61.8667 66.3608 61.4452C66.521 61.4067 66.6713 61.5739 66.6965 61.8185C66.7217 62.0632 66.6123 62.2928 66.4521 62.3313C64.6378 62.7675 60.8436 62.8395 56.9456 62.6931C53.0402 62.5464 48.9922 62.1788 46.6565 61.722C46.4957 61.6906 46.382 61.4659 46.4026 61.2202Z" fill="#4A4A49"/>
<path fill-rule="evenodd" clip-rule="evenodd" d="M11.6004 59.3084C11.6074 59.0702 11.7447 58.8854 11.9071 58.8957L44.1851 60.9322C44.3475 60.9424 44.4735 61.1439 44.4665 61.3821C44.4595 61.6203 44.3222 61.8051 44.1598 61.7949L11.8818 59.7583C11.7194 59.7481 11.5934 59.5467 11.6004 59.3084Z" fill="#4A4A49"/>
<path fill-rule="evenodd" clip-rule="evenodd" d="M0.966935 59.2336C0.971998 59.0411 1.11468 58.8897 1.28562 58.8954L9.3663 59.1649C9.53725 59.1706 9.67172 59.3312 9.66666 59.5236C9.66159 59.7161 9.51891 59.8675 9.34797 59.8618L1.26729 59.5923C1.09634 59.5866 0.961872 59.426 0.966935 59.2336Z" fill="#4A4A49"/>
<path fill-rule="evenodd" clip-rule="evenodd" d="M28.8408 39.5794C28.9664 39.6335 29.0312 39.7981 28.9855 39.9469C28.8601 40.3547 28.7474 41.1745 28.6644 42.2516C28.5822 43.3175 28.5311 44.6051 28.5199 45.9281C28.4972 48.5884 28.6363 51.3403 28.9897 52.7256C29.0284 52.8772 28.956 53.0372 28.828 53.083C28.7001 53.1288 28.565 53.0431 28.5264 52.8915C28.1489 51.4121 28.0132 48.5785 28.0358 45.9223C28.0472 44.587 28.0988 43.2836 28.1824 42.1995C28.2651 41.1265 28.3811 40.2372 28.5306 39.7507C28.5763 39.6019 28.7152 39.5252 28.8408 39.5794Z" fill="#4A4A49"/>
<path fill-rule="evenodd" clip-rule="evenodd" d="M26.9222 39.5799C27.0364 39.6353 27.0951 39.803 27.0533 39.9545C26.938 40.3726 26.8266 41.1946 26.7374 42.2666C26.6491 43.3285 26.5846 44.6084 26.5563 45.9242C26.4995 48.5712 26.5908 51.3092 26.9117 52.7188C26.9468 52.8732 26.881 53.0362 26.7646 53.0828C26.6482 53.1294 26.5253 53.0421 26.4901 52.8876C26.1461 51.3764 26.0594 48.5499 26.1161 45.9076C26.1447 44.5786 26.2099 43.2827 26.2998 42.2025C26.3888 41.1322 26.5041 40.2457 26.6398 39.7538C26.6815 39.6024 26.808 39.5245 26.9222 39.5799Z" fill="#4A4A49"/>
<path fill-rule="evenodd" clip-rule="evenodd" d="M24.974 39.58C25.0995 39.636 25.1642 39.8061 25.1185 39.9599C24.9929 40.3818 24.8803 41.2016 24.7974 42.2706C24.7153 43.3291 24.6642 44.6027 24.6529 45.913C24.6302 48.5474 24.7692 51.2798 25.1228 52.7133C25.1614 52.87 25.089 53.0353 24.9611 53.0826C24.8331 53.1299 24.698 53.0413 24.6594 52.8846C24.2821 51.3551 24.1462 48.5403 24.1689 45.9068C24.1803 44.5831 24.2319 43.2926 24.3155 42.2146C24.3983 41.1471 24.5145 40.2581 24.6637 39.7569C24.7095 39.6032 24.8484 39.524 24.974 39.58Z" fill="#4A4A49"/>
<path fill-rule="evenodd" clip-rule="evenodd" d="M23.0406 39.58C23.1662 39.636 23.2309 39.8061 23.1851 39.9599C23.0595 40.3818 22.947 41.2016 22.864 42.2706C22.7819 43.3291 22.7308 44.6027 22.7196 45.913C22.6969 48.5474 22.8358 51.2798 23.1894 52.7133C23.2281 52.87 23.1557 53.0353 23.0277 53.0826C22.8997 53.1299 22.7647 53.0413 22.7261 52.8846C22.3488 51.3551 22.2129 48.5403 22.2356 45.9068C22.2469 44.5831 22.2985 43.2926 22.3822 42.2146C22.465 41.1471 22.5812 40.2581 22.7303 39.7569C22.7761 39.6032 22.915 39.524 23.0406 39.58Z" fill="#4A4A49"/>
<path fill-rule="evenodd" clip-rule="evenodd" d="M21.1079 39.5804C21.2333 39.6374 21.2978 39.81 21.2519 39.9659C21.1259 40.3942 21.0132 41.2138 20.9303 42.279C20.8482 43.3339 20.7972 44.6009 20.7861 45.9053C20.7637 48.5275 20.9029 51.2511 21.2564 52.708C21.2949 52.8669 21.2225 53.0346 21.0946 53.0825C20.9667 53.1304 20.8318 53.0404 20.7932 52.8815C20.4163 51.3281 20.28 48.522 20.3024 45.8989C20.3137 44.5807 20.3652 43.2962 20.4488 42.2211C20.5317 41.1563 20.6482 40.2674 20.7977 39.7594C20.8435 39.6035 20.9824 39.5234 21.1079 39.5804Z" fill="#4A4A49"/>
<path fill-rule="evenodd" clip-rule="evenodd" d="M19.1742 39.5803C19.2997 39.6371 19.3644 39.8096 19.3187 39.9656C19.1929 40.3941 19.0804 41.2137 18.9975 42.2789C18.9155 43.3339 18.8644 44.6009 18.8531 45.9053C18.8305 48.5276 18.9693 51.2511 19.323 52.708C19.3616 52.8669 19.2891 53.0346 19.1611 53.0825C19.0332 53.1304 18.8982 53.0404 18.8596 52.8815C18.4824 51.328 18.3464 48.5219 18.3691 45.8989C18.3805 44.5806 18.4321 43.2961 18.5157 42.2211C18.5986 41.1563 18.7148 40.2676 18.8639 39.7597C18.9097 39.6038 19.0486 39.5234 19.1742 39.5803Z" fill="#4A4A49"/>
<path fill-rule="evenodd" clip-rule="evenodd" d="M17.2412 39.5804C17.3666 39.6374 17.4311 39.81 17.3852 39.9659C17.2592 40.3942 17.1465 41.2138 17.0636 42.279C16.9815 43.3339 16.9305 44.6009 16.9194 45.9053C16.897 48.5275 17.0362 51.2511 17.3897 52.708C17.4282 52.8669 17.3558 53.0346 17.2279 53.0825C17.1 53.1304 16.9651 53.0404 16.9265 52.8815C16.5496 51.3281 16.4133 48.522 16.4357 45.8989C16.447 44.5807 16.4985 43.2962 16.5821 42.2211C16.665 41.1563 16.7815 40.2674 16.931 39.7594C16.9768 39.6035 17.1157 39.5234 17.2412 39.5804Z" fill="#4A4A49"/>
<path fill-rule="evenodd" clip-rule="evenodd" d="M15.0601 39.5805C15.1666 39.6382 15.2215 39.8134 15.1827 39.9717C15.0774 40.4013 14.9981 41.2158 14.9533 42.2786C14.9089 43.3296 14.8993 44.59 14.9235 45.889C14.9721 48.4973 15.1563 51.2178 15.4578 52.7019C15.4906 52.8632 15.4292 53.0335 15.3207 53.0822C15.2122 53.131 15.0976 53.0397 15.0648 52.8783C14.7464 51.3111 14.5618 48.5208 14.5131 45.9059C14.4886 44.5932 14.4982 43.3139 14.5435 42.2404C14.5883 41.1786 14.6692 40.2839 14.797 39.7627C14.8358 39.6044 14.9536 39.5228 15.0601 39.5805Z" fill="#4A4A49"/>
<path fill-rule="evenodd" clip-rule="evenodd" d="M45.9629 39.5635C46.1805 39.5803 46.3392 39.7298 46.3175 39.8975C46.1897 40.8834 46.1882 43.3372 46.3517 45.9355C46.5154 48.5367 46.8419 51.2321 47.3532 52.7116C47.4095 52.8744 47.2839 53.0416 47.0727 53.085C46.8614 53.1284 46.6445 53.0315 46.5883 52.8687C46.0525 51.3187 45.7245 48.5628 45.561 45.9651C45.3973 43.3644 45.3957 40.8714 45.5297 39.8369C45.5515 39.6692 45.7454 39.5468 45.9629 39.5635Z" fill="#4A4A49"/>
<path fill-rule="evenodd" clip-rule="evenodd" d="M44.3075 39.5798C44.433 39.635 44.4977 39.8027 44.452 39.9542C44.3265 40.3698 44.2139 41.1894 44.1309 42.2618C44.0488 43.3233 43.9977 44.603 43.9864 45.9188C43.9637 48.5645 44.1027 51.3056 44.4563 52.7187C44.4949 52.8731 44.4225 53.0362 44.2945 53.0828C44.1666 53.1294 44.0315 53.042 43.9929 52.8876C43.6156 51.3794 43.4797 48.5562 43.5024 45.9128C43.5138 44.5841 43.5654 43.288 43.649 42.2074C43.7317 41.1377 43.8479 40.2488 43.9972 39.7542C44.043 39.6026 44.1819 39.5245 44.3075 39.5798Z" fill="#4A4A49"/>
<path fill-rule="evenodd" clip-rule="evenodd" d="M41.4072 39.5806C41.5328 39.6386 41.5976 39.8149 41.5519 39.9743C41.4265 40.4114 41.3138 41.2896 41.2308 42.4434C41.1486 43.5852 41.0975 44.9646 41.0863 46.3819C41.0636 49.2319 41.2027 52.1804 41.5561 53.6659C41.5948 53.8284 41.5224 53.9998 41.3944 54.0488C41.2664 54.0979 41.1314 54.006 41.0928 53.8436C40.7153 52.2573 40.5796 49.2213 40.6023 46.3757C40.6136 44.9452 40.6652 43.5489 40.7488 42.3875C40.8315 41.2381 40.9475 40.2854 41.097 39.7642C41.1427 39.6048 41.2816 39.5226 41.4072 39.5806Z" fill="#4A4A49"/>
<path fill-rule="evenodd" clip-rule="evenodd" d="M38.5076 39.5807C38.6332 39.6388 38.6979 39.8151 38.6522 39.9745C38.5269 40.411 38.4142 41.2889 38.3312 42.4428C38.249 43.5847 38.1979 44.9643 38.1866 46.3818C38.1639 49.2323 38.303 52.1813 38.6564 53.6658C38.6951 53.8282 38.6227 53.9997 38.4948 54.0488C38.3668 54.0979 38.2318 54.006 38.1931 53.8436C37.8157 52.2583 37.68 49.2217 37.7026 46.3756C37.714 44.9448 37.7656 43.5483 37.8491 42.3869C37.9318 41.2375 38.0479 40.2849 38.1974 39.7641C38.2432 39.6047 38.3821 39.5226 38.5076 39.5807Z" fill="#4A4A49"/>
<path fill-rule="evenodd" clip-rule="evenodd" d="M36.5741 39.5807C36.6996 39.6388 36.7643 39.8151 36.7186 39.9745C36.5933 40.411 36.4806 41.2889 36.3976 42.4428C36.3154 43.5847 36.2643 44.9643 36.253 46.3818C36.2303 49.2323 36.3694 52.1813 36.7229 53.6658C36.7615 53.8282 36.6891 53.9997 36.5612 54.0488C36.4333 54.0979 36.2982 54.006 36.2595 53.8436C35.8821 52.2583 35.7464 49.2217 35.769 46.3756C35.7804 44.9448 35.832 43.5483 35.9155 42.3869C35.9982 41.2375 36.1143 40.2849 36.2638 39.7641C36.3096 39.6047 36.4485 39.5226 36.5741 39.5807Z" fill="#4A4A49"/>
<path fill-rule="evenodd" clip-rule="evenodd" d="M33.6745 39.5795C33.8 39.6339 33.8645 39.7986 33.8186 39.9473C33.693 40.3544 33.5801 41.1735 33.4971 42.2503C33.4149 43.3159 33.3639 44.6034 33.3527 45.9263C33.3303 48.5866 33.4697 51.3391 33.823 52.7257C33.8616 52.8773 33.7892 53.0373 33.6614 53.083C33.5335 53.1288 33.3985 53.043 33.3599 52.8915C32.9828 51.411 32.8467 48.5769 32.869 45.9206C32.8803 44.5853 32.9318 43.282 33.0154 42.1981C33.0981 41.1255 33.2143 40.2364 33.3643 39.7503C33.4102 39.6016 33.5491 39.5251 33.6745 39.5795Z" fill="#4A4A49"/>
<path fill-rule="evenodd" clip-rule="evenodd" d="M30.774 39.5794C30.8997 39.6335 30.9645 39.7981 30.9188 39.9469C30.7934 40.3547 30.6807 41.1745 30.5978 42.2516C30.5157 43.3174 30.4647 44.6051 30.4535 45.9281C30.4311 48.5884 30.5703 51.3404 30.9231 52.7258C30.9617 52.8774 30.8892 53.0374 30.7611 53.0831C30.633 53.1288 30.4979 53.0429 30.4593 52.8913C30.0826 51.4121 29.9467 48.5785 29.9692 45.9223C29.9804 44.587 30.0319 43.2837 30.1153 42.1995C30.198 41.1265 30.314 40.2372 30.4636 39.7507C30.5093 39.6019 30.6483 39.5252 30.774 39.5794Z" fill="#4A4A49"/>
<path fill-rule="evenodd" clip-rule="evenodd" d="M10.6333 44.8786C10.6333 44.6117 10.7265 44.3953 10.8414 44.3953H11.3919C11.5068 44.3953 11.6 44.6117 11.6 44.8786C11.6 45.1455 11.5068 45.3619 11.3919 45.3619H10.8414C10.7265 45.3619 10.6333 45.1455 10.6333 44.8786Z" fill="#4A4A49"/>
<path fill-rule="evenodd" clip-rule="evenodd" d="M6.7666 44.8786C6.7666 44.6117 6.85977 44.3953 6.97469 44.3953H7.52518C7.6401 44.3953 7.73327 44.6117 7.73327 44.8786C7.73327 45.1455 7.6401 45.3619 7.52518 45.3619H6.97469C6.85977 45.3619 6.7666 45.1455 6.7666 44.8786Z" fill="#4A4A49"/>
<path fill-rule="evenodd" clip-rule="evenodd" d="M96.6667 70.9787C96.6667 70.7118 96.836 70.4954 97.0447 70.4954H100.155C100.364 70.4954 100.533 70.7118 100.533 70.9787C100.533 71.2456 100.364 71.462 100.155 71.462H97.0447C96.836 71.462 96.6667 71.2456 96.6667 70.9787Z" fill="#4A4A49"/>
<path fill-rule="evenodd" clip-rule="evenodd" d="M98.7203 5.51036C98.6224 5.43451 98.4231 5.42546 98.2089 5.50658L98.16 5.52509L98.1077 5.52867C89.7451 6.1017 77.1605 6.96697 66.585 7.70044C61.2973 8.06718 56.512 8.40096 53.008 8.64877C51.2559 8.77269 49.8244 8.87509 48.8107 8.94937C48.3037 8.98652 47.9017 9.0166 47.6164 9.03881C47.4737 9.04992 47.3608 9.05901 47.2789 9.06601C47.2379 9.06951 47.2053 9.07242 47.181 9.07476C47.1688 9.07593 47.1593 9.0769 47.1521 9.07768C47.1443 9.07852 47.1415 9.0789 47.1419 9.07884C46.6222 9.15194 46.4036 9.46889 46.3691 9.55381L46.3663 9.56062L46.3632 9.56731C44.0734 14.5725 39.3086 24.9928 38.564 26.6421C38.3903 27.0268 38.3814 27.2453 38.4133 27.362C38.4388 27.4557 38.5066 27.5398 38.6874 27.6139C38.8783 27.6921 39.151 27.7386 39.5013 27.7639C39.8008 27.7855 40.1301 27.7903 40.4809 27.7954C40.5362 27.7962 40.5921 27.797 40.6484 27.7979C49.1843 27.9315 62.0532 28.0604 72.9516 28.1443C78.4007 28.1863 83.3567 28.2171 87.0317 28.2316C90.7201 28.2462 93.0933 28.2441 93.4019 28.2224C94.0246 28.1786 94.3753 28.062 94.5583 27.9598C94.6595 27.9032 94.6961 27.8606 94.7078 27.8441L94.7132 27.815C95.9152 21.4409 98.416 8.25909 98.7903 6.60098C98.9702 5.8039 98.7973 5.56994 98.7203 5.51036ZM99.1522 4.96988C99.5661 5.29041 99.6648 5.89689 99.4722 6.75015C99.1019 8.39068 96.6102 21.5227 95.4045 27.9169C95.3856 28.1769 95.1808 28.4027 94.903 28.5578C94.597 28.7288 94.1328 28.8604 93.4517 28.9083C93.1084 28.9324 90.6919 28.9337 87.0289 28.9193C83.3527 28.9047 78.3957 28.8739 72.9461 28.832C62.0471 28.748 49.176 28.6191 40.6373 28.4854C40.5828 28.4846 40.5281 28.4838 40.4733 28.483C40.1244 28.478 39.7719 28.4729 39.4502 28.4497C39.0817 28.4231 38.717 28.3709 38.419 28.2488C38.111 28.1226 37.8382 27.9049 37.7387 27.5405C37.6455 27.1991 37.7268 26.8033 37.9257 26.3628C38.6709 24.7121 43.4335 14.2967 45.7237 9.29066C45.8485 8.9928 46.2658 8.50743 47.0432 8.39811C47.2223 8.37292 49.4676 8.20975 52.9579 7.9629C56.4624 7.71505 61.2481 7.38125 66.536 7.0145C77.0911 6.28244 89.6477 5.41908 98.0105 4.84603C98.3069 4.7459 98.7819 4.68317 99.1522 4.96988Z" fill="#4A4A49"/>
<path fill-rule="evenodd" clip-rule="evenodd" d="M105.367 5.09693C105.377 4.90258 105.542 4.7528 105.736 4.7624L115.269 5.23319L115.289 5.23655C115.632 5.29384 116.048 5.36927 116.363 5.70415C116.673 6.03469 116.826 6.551 116.874 7.32379C116.968 8.83054 117.618 22.3646 117.931 28.939L117.933 28.9823L117.925 29.0248C117.902 29.1416 117.853 29.3195 117.776 29.4773C117.738 29.5553 117.684 29.6473 117.608 29.7248C117.533 29.8017 117.405 29.8953 117.227 29.8953C117.033 29.8953 116.875 29.7376 116.875 29.543C116.875 29.3851 116.979 29.2514 117.122 29.2066C117.128 29.1962 117.135 29.1835 117.142 29.1682C117.178 29.0949 117.208 29.001 117.225 28.9261C116.911 22.3296 116.264 8.86408 116.171 7.36775C116.125 6.63724 115.985 6.33143 115.849 6.18632C115.719 6.04816 115.541 5.99381 115.193 5.93498L105.702 5.46621C105.507 5.45662 105.358 5.29128 105.367 5.09693Z" fill="#4A4A49"/>
<path fill-rule="evenodd" clip-rule="evenodd" d="M106.465 4.76618C106.633 4.79402 106.746 4.95199 106.718 5.11901L104.044 21.1329C104.016 21.2999 103.857 21.4127 103.69 21.3849C103.523 21.3571 103.41 21.1991 103.438 21.0321L106.112 5.0182C106.14 4.85118 106.298 4.73834 106.465 4.76618ZM109.946 28.622C109.946 28.4527 110.084 28.3154 110.254 28.3154H117.626C117.796 28.3154 117.933 28.4527 117.933 28.622C117.933 28.7914 117.796 28.9286 117.626 28.9286H110.254C110.084 28.9286 109.946 28.7914 109.946 28.622Z" fill="#4A4A49"/>
<path fill-rule="evenodd" clip-rule="evenodd" d="M120.684 6.85797C120.554 7.15631 120.571 7.55954 120.642 7.84984L120.648 7.87216L120.65 7.89498C120.95 10.8043 121.401 15.2666 121.777 19.1984C122.151 23.1169 122.454 26.5401 122.454 27.3468C122.454 28.0882 122.638 28.3627 122.77 28.4718C122.912 28.5897 123.087 28.6035 123.32 28.619C125.644 28.7732 130.79 29.1042 132.803 29.1964C133.753 29.2399 134.199 29.01 134.403 28.7947C134.611 28.5756 134.638 28.2991 134.596 28.1129L134.593 28.0961L134.591 28.0791C133.95 22.6094 132.62 11.2266 132.428 9.46811C132.241 7.76153 131.533 7.58253 131.465 7.58253H131.441L131.417 7.57944C128.726 7.23169 123.015 6.51742 121.589 6.42594C121.284 6.40641 121.089 6.46145 120.961 6.53506C120.835 6.60812 120.745 6.71702 120.684 6.85797ZM120.59 5.94056C120.871 5.77843 121.221 5.7073 121.637 5.734C123.09 5.82721 128.808 6.54269 131.492 6.88945C132.14 6.90866 132.95 7.61351 133.145 9.39551C133.336 11.149 134.663 22.5077 135.305 27.9857C135.378 28.3384 135.328 28.8489 134.936 29.2622C134.533 29.6864 133.838 29.9381 132.769 29.8891C130.746 29.7964 125.592 29.4648 123.27 29.3108C123.259 29.3101 123.247 29.3093 123.234 29.3085C123.028 29.296 122.631 29.2718 122.3 28.9976C121.937 28.6977 121.733 28.1772 121.733 27.3468C121.733 26.5815 121.435 23.2047 121.059 19.2619C120.684 15.3421 120.235 10.8941 119.935 7.98545C119.85 7.62023 119.812 7.06618 120.019 6.59069C120.128 6.33963 120.309 6.10323 120.59 5.94056Z" fill="#4A4A49"/>
<path fill-rule="evenodd" clip-rule="evenodd" d="M136.143 8.75599C136.006 8.96663 135.997 9.23663 136.039 9.4233L136.043 9.44095L136.045 9.45893C136.729 15.0926 138.142 26.698 138.324 28.0748C138.413 28.7456 138.554 29.04 138.645 29.1508C138.651 29.1586 138.657 29.1652 138.662 29.1705L138.69 29.1537L138.787 29.1548C140.401 29.174 142.878 29.1969 145.066 29.2036C147.268 29.2104 149.141 29.2002 149.575 29.1565C149.748 29.139 149.854 29.0877 149.922 29.034C149.99 28.9798 150.038 28.9075 150.07 28.8172C150.139 28.6246 150.122 28.3795 150.076 28.2111L150.072 28.1947L150.069 28.1779C149.194 22.9602 147.381 12.2299 147.109 10.9523C146.856 9.76169 146.277 9.61577 146.19 9.61577H146.16L146.131 9.61063C144.937 9.40029 143.054 9.08474 141.288 8.82189C139.511 8.5572 137.886 8.35148 137.188 8.35148C136.54 8.35148 136.266 8.56702 136.143 8.75599ZM138.69 29.1936C138.69 29.1936 138.69 29.1934 138.689 29.1931C138.69 29.1934 138.69 29.1935 138.69 29.1936ZM135.571 8.37798C135.853 7.94438 136.376 7.66187 137.188 7.66187C137.947 7.66187 139.628 7.87758 141.388 8.13967C143.149 8.40176 145.024 8.71575 146.223 8.92683C146.743 8.94764 147.49 9.45319 147.778 10.8078C148.053 12.1035 149.867 22.838 150.741 28.0471C150.806 28.3007 150.842 28.6896 150.714 29.0499C150.646 29.2402 150.531 29.4279 150.346 29.5752C150.16 29.7228 149.925 29.8142 149.643 29.8427C149.164 29.891 147.239 29.8999 145.064 29.8933C142.907 29.8867 140.469 29.8642 138.853 29.8453C138.755 29.8799 138.643 29.8896 138.527 29.8625C138.367 29.8254 138.23 29.7266 138.118 29.5898C137.903 29.3271 137.74 28.8744 137.646 28.1659C137.464 26.7857 136.053 15.1957 135.369 9.55947C135.302 9.2479 135.309 8.78166 135.571 8.37798Z" fill="#4A4A49"/>
<path fill-rule="evenodd" clip-rule="evenodd" d="M109.902 22.7516C108.712 22.2068 105.48 21.3476 102.17 22.3179C100.562 22.7894 99.7855 23.7097 99.4412 24.646C99.0895 25.6022 99.177 26.6099 99.3662 27.2369L99.475 27.5974L99.11 27.6713C98.7306 27.7482 97.9524 27.9154 97.6986 27.999C97.6965 28.0011 97.6934 28.0048 97.6893 28.0104C97.6732 28.0326 97.6535 28.0714 97.6351 28.1293C97.5978 28.2466 97.5838 28.3862 97.5838 28.4742V28.4822L97.3778 32.9696L99.7859 32.6212L99.3329 29.4092L106.546 28.9301C106.546 28.9301 106.546 28.9301 106.546 28.9301C107.323 28.8746 108.484 28.7351 109.486 28.3415C110.494 27.9453 111.252 27.3307 111.403 26.3727C111.733 24.2826 110.518 23.0849 109.902 22.7516ZM101.983 21.6623C105.494 20.6329 108.902 21.5414 110.19 22.1344L110.199 22.1385L110.208 22.1431C111.017 22.5746 112.456 24.0298 112.069 26.4806C111.86 27.7977 110.821 28.549 109.729 28.9779C108.631 29.4094 107.388 29.5542 106.593 29.611L106.591 29.6111L100.103 30.042L100.548 33.2004L96.6667 33.762L96.91 28.4658C96.9107 28.3263 96.9309 28.1177 96.9935 27.9205C97.0509 27.7397 97.1806 27.4543 97.4773 27.3542C97.698 27.2797 98.226 27.1605 98.6304 27.0744C98.4796 26.3473 98.4582 25.3633 98.8096 24.4077C99.2309 23.2623 100.177 22.1918 101.983 21.6623Z" fill="#4A4A49"/>
</svg>
