<svg width="28" height="28" viewBox="0 0 28 28" fill="none" xmlns="http://www.w3.org/2000/svg">
<path d="M20.8985 5.86785L14 12.7663L7.10149 5.86785C6.93557 5.71602 6.71747 5.63406 6.49262 5.63904C6.26777 5.64402 6.05351 5.73556 5.89448 5.89459C5.73545 6.05362 5.64391 6.26788 5.63893 6.49273C5.63394 6.71758 5.71591 6.93568 5.86774 7.1016L12.7627 14.0001L5.86599 20.8968C5.78173 20.9771 5.71437 21.0735 5.66788 21.1802C5.62139 21.2869 5.59669 21.4018 5.59525 21.5182C5.59381 21.6346 5.61565 21.7501 5.65949 21.8579C5.70332 21.9657 5.76827 22.0637 5.85052 22.146C5.93276 22.2284 6.03064 22.2935 6.1384 22.3375C6.24616 22.3815 6.36163 22.4035 6.47801 22.4022C6.5944 22.4009 6.70935 22.3764 6.81612 22.3301C6.92289 22.2837 7.01932 22.2165 7.09974 22.1323L14 15.2356L20.8985 22.1341C21.0644 22.2859 21.2825 22.3679 21.5074 22.3629C21.7322 22.3579 21.9465 22.2664 22.1055 22.1074C22.2645 21.9483 22.3561 21.7341 22.361 21.5092C22.366 21.2844 22.2841 21.0663 22.1322 20.9003L15.2337 14.0018L22.1322 7.1016C22.2165 7.0213 22.2839 6.92497 22.3303 6.81826C22.3768 6.71156 22.4015 6.59664 22.403 6.48026C22.4044 6.36387 22.3826 6.24837 22.3387 6.14055C22.2949 6.03273 22.23 5.93476 22.1477 5.8524C22.0655 5.77004 21.9676 5.70495 21.8598 5.66096C21.7521 5.61697 21.6366 5.59497 21.5202 5.59624C21.4038 5.59752 21.2889 5.62205 21.1821 5.66839C21.0753 5.71474 20.9789 5.78195 20.8985 5.8661V5.86785Z" fill="white"/>
</svg>
