<svg width="101" height="100" viewBox="0 0 101 100" fill="none" xmlns="http://www.w3.org/2000/svg">
<path d="M99.8151 50C99.8151 77.0313 77.9406 98.9059 50.9093 98.9059C23.878 98.9059 2.00302 77.0313 2.00302 50C2.00302 22.9688 23.878 1.09375 50.9093 1.09375C77.9406 1.09375 99.8151 22.9688 99.8151 50ZM50.9093 4.06251C25.4406 4.06251 4.97178 24.5313 4.97178 50C4.97178 75.4688 25.5967 95.9375 50.9093 95.9375C76.378 95.9375 96.8468 75.3125 96.8468 50C96.8468 24.5313 76.378 4.06251 50.9093 4.06251Z" fill="url(#paint0_linear_40_2401)"/>
<path d="M50.9092 4.0625C25.4405 4.0625 4.97174 24.5313 4.97174 50C4.97174 75.4687 25.5967 95.9375 50.9092 95.9375C76.378 95.9375 96.8467 75.3125 96.8467 50C96.8467 24.5313 76.378 4.0625 50.9092 4.0625ZM50.9092 92.9687C27.1592 92.9687 7.94049 73.75 7.94049 50C7.94049 26.25 27.1592 7.03125 50.9092 7.03125C74.6592 7.03125 93.878 26.25 93.878 50C93.878 73.75 74.6592 92.9687 50.9092 92.9687Z" fill="url(#paint1_linear_40_2401)"/>
<path opacity="0.4" d="M50.9092 98.9059C77.9405 98.9059 99.8151 77.0313 99.8151 50C99.8151 22.9687 77.9405 1.09375 50.9092 1.09375C23.8779 1.09375 2.00293 22.9687 2.00293 50C2.00293 77.0313 23.8779 98.9059 50.9092 98.9059ZM50.9092 0C78.4092 0 100.909 22.5 100.909 50C100.909 77.5 78.4092 100 50.9092 100C23.4092 100 0.90918 77.5 0.90918 50C0.90918 22.5 23.4092 0 50.9092 0Z" fill="url(#paint2_linear_40_2401)"/>
<path d="M4.34677 50.1563C4.34677 24.5312 25.128 3.4375 50.9093 3.4375C76.6905 3.4375 97.4718 24.375 97.4718 50.1563C97.4718 75.7813 76.6905 96.5625 50.9093 96.5625C25.128 96.5625 4.34677 75.7813 4.34677 50.1563ZM18.878 17.9687C10.5968 26.25 5.44052 37.6563 5.44052 50.1563C5.44052 62.6563 10.5968 74.0625 18.7217 82.1875C27.003 90.3125 38.4093 95.4687 50.9093 95.4687C63.4093 95.4687 74.8155 90.4687 82.9405 82.1875C91.2218 74.0625 96.2218 62.6563 96.2218 50.1563C96.2218 37.6563 91.0655 26.25 82.9405 17.9687C74.8155 9.6875 63.4093 4.53124 50.9093 4.53124C38.4093 4.53124 27.003 9.6875 18.878 17.9687Z" fill="white"/>
<path opacity="0.4" d="M50.9092 93.125C39.3466 93.125 28.5653 88.5937 20.4403 80.4687C12.3153 72.3437 7.78412 61.5625 7.78412 50C7.78412 38.4375 12.3153 27.6563 20.4403 19.5313C28.5653 11.4063 39.3466 6.875 50.9092 6.875C62.4716 6.875 73.2529 11.4063 81.3779 19.5313C89.5029 27.6563 94.0341 38.4375 94.0341 50C94.0341 61.5625 89.5029 72.3437 81.3779 80.4687C73.2529 88.5937 62.4716 93.125 50.9092 93.125ZM50.9092 91.875C62.0029 91.875 72.6279 87.5 80.4403 79.6875C88.4092 71.7187 92.6279 61.25 92.6279 50.1563C92.6279 39.0625 88.2529 28.4375 80.4403 20.625C72.4716 12.6563 62.0029 8.4375 50.9092 8.4375C39.8153 8.4375 29.1903 12.8125 21.3779 20.625C13.4092 28.2813 9.03412 38.9063 9.03412 50C9.03412 61.0937 13.4092 71.7187 21.2216 79.5313C29.1903 87.5 39.8153 91.875 50.9092 91.875Z" fill="url(#paint3_linear_40_2401)"/>
<path d="M88.878 70.3125C88.0967 69.6875 57.9404 45.7813 57.9404 45.7813L50.9092 5.625C50.4403 5.78125 49.8153 6.25 49.5029 6.875L44.5029 45.9375L13.4091 69.8437C13.4091 69.8437 12.7841 70.625 12.4716 71.0937C12.3153 71.4063 12.3153 71.875 12.3153 72.3437L50.7529 56.5625L89.1904 72.3437C89.503 71.5625 89.1904 70.7813 88.878 70.3125Z" fill="white"/>
<path d="M51.2217 51.2499L50.9092 58.4373L86.2216 72.6561C87.4716 73.2811 88.4091 72.9686 89.3466 72.3436L51.6905 51.0936C51.5342 50.9374 51.2217 51.0936 51.2217 51.2499Z" fill="#565F64"/>
<path d="M51.2218 51.2499C51.2218 51.2499 53.253 54.8436 55.5968 57.3436C58.878 60.9373 63.253 63.4373 63.253 63.4373L86.2218 72.6561C87.4718 73.2811 88.4092 72.9686 89.3468 72.3436L51.6906 51.0936C51.5343 50.9374 51.2218 51.0936 51.2218 51.2499Z" fill="url(#paint4_linear_40_2401)"/>
<path d="M89.1904 70.9375C89.1904 70.7812 89.0341 70.6249 88.8778 70.3125L56.6904 46.7188L52.3154 49.5313C52.3154 49.5313 52.6279 49.6876 52.7841 49.5313C53.2529 49.375 54.1904 49.2188 55.1279 49.5313C55.9091 49.8438 89.1904 71.0938 89.1904 70.9375C89.1904 71.0938 89.1904 71.0938 89.1904 70.9375Z" fill="#A4AAAE" fill-opacity="0.6"/>
<path d="M88.0967 69.5312L58.0967 45.7812L56.6905 46.7187L88.878 70.4687C88.7217 70.1562 88.4091 69.8437 88.0967 69.5312Z" fill="#333E46"/>
<path d="M51.6903 48.9062L51.534 49.0625C51.534 49.0625 51.534 49.375 51.8466 49.2187C52.0029 49.0625 56.534 46.7188 58.0966 45.7812L52.6279 8.28125C52.4716 6.875 51.8466 6.25 50.7529 5.78125L51.3779 49.2187L51.6903 48.9062Z" fill="#565F64"/>
<path d="M49.0341 8.28124V10.3125L45.5966 44.8437C45.5966 45.3125 45.7529 45.7813 46.2216 46.0937L48.2529 47.6563L49.6591 9.53125L49.8153 6.5625C49.3466 6.875 49.1903 7.5 49.0341 8.28124ZM47.1591 48.2813L45.2841 46.7187L13.5653 69.6875C13.5653 69.6875 12.6279 70.3125 12.4716 70.9375L13.5653 70.3125L46.8466 49.375C47.4716 49.0625 47.6279 48.75 47.1591 48.2813Z" fill="#A4AAAE" fill-opacity="0.6"/>
<path d="M50.4403 51.2499C50.4403 51.0936 50.2842 50.9374 50.1279 51.0936L12.3153 72.4999C13.2528 73.1249 14.1903 73.2812 15.4403 72.8124L50.7529 58.5936L50.4403 51.2499Z" fill="#565F64"/>
<path d="M51.5341 49.0625L51.6903 48.9063L51.5341 49.0625C51.5341 49.0625 51.534 49.2187 51.6903 49.2187H51.8466C52.0028 49.0625 56.5339 46.7187 58.0965 45.7813L57.4715 41.25L52.6278 8.28126C52.6278 7.65625 52.4716 7.1875 52.159 6.875C52.159 6.875 54.5027 38.4375 54.5027 41.875C54.5027 46.4063 51.5341 49.0625 51.5341 49.0625Z" fill="url(#paint5_linear_40_2401)"/>
<path d="M50.4403 51.2499C50.4403 51.0936 50.2842 50.9374 50.1279 51.0936L12.3153 72.4999C13.2528 73.1249 14.1903 73.2812 15.4403 72.8124L50.7529 58.5936L50.4403 51.2499Z" fill="url(#paint6_linear_40_2401)" fill-opacity="0.8"/>
<path opacity="0.8" d="M15.4406 72.6562L50.753 58.4375L50.4406 51.5625C49.8156 53.4374 48.7218 55.4687 45.753 57.0312C43.5656 58.2812 22.628 68.5937 15.128 72.1874C14.6593 72.5 14.0343 72.6562 13.7218 72.8124C14.3468 73.125 14.8156 72.9687 15.4406 72.6562Z" fill="url(#paint7_linear_40_2401)"/>
<path d="M51.6903 48.9062L51.534 49.0625C51.534 49.0625 51.534 49.375 51.8466 49.2187C52.0029 49.0625 56.534 46.7188 58.0966 45.7812L52.6279 8.28125C52.4716 6.875 51.8466 6.25 50.7529 5.78125L51.3779 49.2187L51.6903 48.9062Z" fill="url(#paint8_linear_40_2401)"/>
<path d="M51.6903 48.9062L51.534 49.0625C51.534 49.0625 51.534 49.375 51.8466 49.2187C52.0029 49.0625 56.534 46.7188 58.0966 45.7812L52.6279 8.28125C52.4716 6.875 51.8466 6.25 50.7529 5.78125L51.3779 49.2187L51.6903 48.9062Z" fill="url(#paint9_linear_40_2401)"/>
<path d="M8.87802 69.375C7.78428 66.875 1.53427 54.6875 8.40928 31.25H5.75302C4.34678 35.9375 3.25302 38.75 2.62802 42.9687C2.62802 42.9687 2.31552 44.5313 2.15928 46.25C2.00302 47.9687 2.00302 48.9063 2.00302 50C2.00302 59.375 4.34678 64.8437 4.34678 64.8437C6.84678 72.6563 11.2217 79.6875 17.1593 85C22.3156 89.5313 30.2843 92.9687 36.8467 94.2187C35.753 94.0626 17.003 86.0937 8.87802 69.375Z" fill="url(#paint10_linear_40_2401)"/>
<path d="M51.5343 50.9375H50.1279C50.2842 50.9375 50.4405 50.9375 50.4405 51.0938L50.753 58.2813H50.9092L51.2218 51.0938C51.2218 50.9375 51.378 50.7813 51.5343 50.9375Z" fill="url(#paint11_linear_40_2401)"/>
<path d="M66.5342 3.59375C82.9405 9.8437 98.4092 27.0312 98.4092 48.75C98.4092 75 77.4717 96.4062 50.9092 96.4062V98.9059C77.4717 98.9059 99.8151 77.0312 99.8151 50C99.8151 28.4375 86.0655 10.3125 66.5342 3.59375Z" fill="url(#paint12_linear_40_2401)"/>
<path d="M92.7842 31.5623C81.8467 6.40613 57.1592 4.99988 55.753 4.84363H55.5967C74.503 8.28113 86.5342 20.6249 90.753 33.5936V33.7499C92.628 38.7499 93.5655 44.0623 93.7218 49.8436C93.878 55.3123 92.628 61.4062 90.2842 67.0312C90.128 67.8123 89.9718 68.7499 89.8155 68.7499H92.3155C99.8151 54.6873 96.5342 40.4686 92.7842 31.5623Z" fill="url(#paint13_linear_40_2401)"/>
<path d="M4.34677 50.1563C4.34677 24.5312 25.128 3.4375 50.9093 3.4375C76.6905 3.4375 97.4718 24.375 97.4718 50.1563C97.4718 75.7813 76.6905 96.5625 50.9093 96.5625C25.128 96.5625 4.34677 75.7813 4.34677 50.1563ZM18.878 17.9687C10.5968 26.25 5.44052 37.6563 5.44052 50.1563C5.44052 62.6563 10.5968 74.0625 18.7217 82.1875C27.003 90.3125 38.4093 95.4687 50.9093 95.4687C63.4093 95.4687 74.8155 90.4687 82.9405 82.1875C91.2218 74.0625 96.2218 62.6563 96.2218 50.1563C96.2218 37.6563 91.0655 26.25 82.9405 17.9687C74.8155 9.6875 63.4093 4.53124 50.9093 4.53124C38.4093 4.53124 27.003 9.6875 18.878 17.9687Z" fill="#FBFBFB"/>
<path d="M13.2529 70L45.1279 47.0313C46.8466 47.9687 49.659 49.2187 49.9716 49.2187C50.284 49.375 50.284 49.0625 50.284 49.0625L46.3779 45.7813C45.909 45.4687 45.7529 45 45.7529 44.5313L49.5029 6.875C49.3466 7.03125 49.3466 7.34376 49.1903 7.5C49.034 7.8125 49.034 7.96876 49.034 8.28126L43.5653 45.9375L13.5653 69.5313C13.4091 69.6875 13.2529 69.8437 13.2529 70Z" fill="#333F47"/>
<defs>
<linearGradient id="paint0_linear_40_2401" x1="13.4061" y1="18.5906" x2="88.4124" y2="81.4093" gradientUnits="userSpaceOnUse">
<stop stop-color="white"/>
<stop offset="0.1" stop-color="#CDD0D0"/>
<stop offset="0.2" stop-color="#A5ACAF"/>
<stop offset="0.3" stop-color="#98A0A4"/>
<stop offset="0.4" stop-color="#828A8F"/>
<stop offset="0.5" stop-color="#667075"/>
<stop offset="0.6" stop-color="#535C63"/>
<stop offset="0.7" stop-color="#475158"/>
<stop offset="0.8" stop-color="#434D54"/>
<stop offset="1" stop-color="#475157"/>
</linearGradient>
<linearGradient id="paint1_linear_40_2401" x1="15.7077" y1="20.4047" x2="86.0202" y2="79.4672" gradientUnits="userSpaceOnUse">
<stop stop-color="#0B1F2A"/>
<stop offset="0.2" stop-color="#333F47"/>
<stop offset="0.5" stop-color="#81898D"/>
<stop offset="0.7" stop-color="#B3B8B8"/>
<stop offset="0.8" stop-color="#DEE0DD"/>
<stop offset="1" stop-color="#FBFBFB"/>
</linearGradient>
<linearGradient id="paint2_linear_40_2401" x1="67.9982" y1="96.9734" x2="33.7795" y2="2.9125" gradientUnits="userSpaceOnUse">
<stop stop-color="#E1E3E1"/>
<stop offset="0.1" stop-color="#C1C5C4"/>
<stop offset="0.3" stop-color="#9BA1A2"/>
<stop offset="0.5" stop-color="#7D8487"/>
<stop offset="0.7" stop-color="#687074" stop-opacity="0"/>
<stop offset="0.8" stop-color="#5B6469" stop-opacity="0"/>
<stop offset="1" stop-color="#576065" stop-opacity="0"/>
</linearGradient>
<linearGradient id="paint3_linear_40_2401" x1="29.3482" y1="12.6578" x2="72.47" y2="87.3421" gradientUnits="userSpaceOnUse">
<stop stop-color="#E1E3E1"/>
<stop offset="0.1" stop-color="#C1C5C4"/>
<stop offset="0.3" stop-color="#9BA1A2"/>
<stop offset="0.5" stop-color="#7D8487"/>
<stop offset="0.7" stop-color="#687074" stop-opacity="0"/>
<stop offset="0.8" stop-color="#5B6469" stop-opacity="0"/>
<stop offset="1" stop-color="#576065" stop-opacity="0"/>
</linearGradient>
<linearGradient id="paint4_linear_40_2401" x1="70.4218" y1="61.5515" x2="67.7655" y2="65.9265" gradientUnits="userSpaceOnUse">
<stop stop-color="#27343C"/>
<stop offset="1" stop-color="#00111E" stop-opacity="0"/>
</linearGradient>
<linearGradient id="paint5_linear_40_2401" x1="62.7526" y1="45.4875" x2="58.3775" y2="38.4564" gradientUnits="userSpaceOnUse">
<stop offset="0.1" stop-color="#02131F"/>
<stop offset="0.9" stop-color="#02131F" stop-opacity="0"/>
</linearGradient>
<linearGradient id="paint6_linear_40_2401" x1="50.881" y1="56.7749" x2="44.3185" y2="58.6499" gradientUnits="userSpaceOnUse">
<stop offset="0.2" stop-color="#02131F"/>
<stop offset="0.9" stop-color="#02131F" stop-opacity="0"/>
</linearGradient>
<linearGradient id="paint7_linear_40_2401" x1="33.3953" y1="65.475" x2="32.4577" y2="63.1312" gradientUnits="userSpaceOnUse">
<stop stop-color="#02131F"/>
<stop offset="0.1" stop-color="#02131F"/>
<stop offset="1" stop-color="#02131F" stop-opacity="0"/>
</linearGradient>
<linearGradient id="paint8_linear_40_2401" x1="56.5372" y1="26.8969" x2="51.2247" y2="27.5219" gradientUnits="userSpaceOnUse">
<stop offset="0.3" stop-color="#02131F"/>
<stop offset="0.8" stop-color="#02131F" stop-opacity="0"/>
</linearGradient>
<linearGradient id="paint9_linear_40_2401" x1="56.7028" y1="26.8078" x2="53.1075" y2="27.2766" gradientUnits="userSpaceOnUse">
<stop offset="0.4" stop-color="#27343C"/>
<stop offset="1" stop-color="#3B474E" stop-opacity="0"/>
</linearGradient>
<linearGradient id="paint10_linear_40_2401" x1="0.346773" y1="51.2984" x2="43.9406" y2="76.4547" gradientUnits="userSpaceOnUse">
<stop stop-color="#25323B" stop-opacity="0"/>
<stop offset="0.1" stop-color="#27343C"/>
</linearGradient>
<linearGradient id="paint11_linear_40_2401" x1="50.8311" y1="58.4375" x2="50.8311" y2="50.9375" gradientUnits="userSpaceOnUse">
<stop offset="0.3" stop-color="#A5ABAF"/>
<stop offset="1" stop-color="#A5ABAF" stop-opacity="0"/>
</linearGradient>
<linearGradient id="paint12_linear_40_2401" x1="75.3623" y1="3.59375" x2="75.3623" y2="98.9059" gradientUnits="userSpaceOnUse">
<stop stop-color="#6B7378"/>
<stop offset="0.2" stop-color="#333F47"/>
<stop offset="0.5" stop-color="#27343C"/>
<stop offset="0.8" stop-color="#333F47"/>
<stop offset="1" stop-color="#434D54"/>
</linearGradient>
<linearGradient id="paint13_linear_40_2401" x1="90.4232" y1="12.6452" x2="69.3295" y2="43.5827" gradientUnits="userSpaceOnUse">
<stop offset="0.7" stop-color="#49545B"/>
<stop offset="0.8" stop-color="white" stop-opacity="0"/>
</linearGradient>
</defs>
</svg>
