<svg width="57" height="102" viewBox="0 0 57 102" fill="none" xmlns="http://www.w3.org/2000/svg">
<path d="M54.4869 99.6232C54.8629 99.2508 55.0197 98.7581 55.0197 98.2353V3.76161C55.0197 2.69059 54.1848 1.80575 53.0907 1.80575L3.62386 1.80481C3.09991 1.80605 2.59779 2.01274 2.22739 2.37965C1.85699 2.74655 1.64847 3.24379 1.64747 3.76255V98.2372C1.64672 98.4943 1.69729 98.7491 1.79627 98.9868C1.89526 99.2246 2.04071 99.4406 2.22427 99.6225C2.40784 99.8044 2.62589 99.9486 2.86591 100.047C3.10594 100.145 3.36319 100.196 3.62291 100.195H53.1335C53.6663 100.195 54.1136 99.9918 54.4869 99.6232Z" fill="url(#paint0_linear_40_2405)"/>
<path d="M5.31738 97.2717L6.90724 97.2698C6.79698 96.9833 6.73723 96.6802 6.73059 96.3737V91.2602C6.73059 90.8672 6.97277 90.8888 7.15037 91.1079L12.4243 97.2707H14.036L8.56262 90.8907C8.43061 90.7383 8.45055 90.4976 8.64905 90.4976H9.22554C9.94528 90.4975 10.6355 90.2143 11.1444 89.7103C11.6533 89.2063 11.9391 88.5228 11.9389 87.8102C11.9388 87.0976 11.6528 86.4142 11.1437 85.9104C10.6347 85.4065 9.94438 85.1236 9.22459 85.1237H5.31833C5.40571 85.3644 5.47124 85.5826 5.49498 86.0217V96.3784C5.48727 96.6839 5.42722 96.986 5.31738 97.2717ZM6.72679 86.3217H9.21984C9.41459 86.3216 9.60745 86.3595 9.7874 86.4333C9.96738 86.507 10.1309 86.6151 10.2686 86.7514C10.4064 86.8877 10.5157 87.0495 10.5903 87.2276C10.6649 87.4058 10.7033 87.5967 10.7033 87.7895C10.7034 87.9823 10.6651 88.1733 10.5906 88.3514C10.5162 88.5296 10.407 88.6915 10.2693 88.8279C10.1316 88.9643 9.96818 89.0725 9.78827 89.1463C9.60837 89.2202 9.41554 89.2582 9.22079 89.2583L6.72679 89.2545V86.3217ZM40.7643 45.0182C38.5828 50.4467 33.5359 52.174 33.5359 52.174L35.3423 55.8761C35.3423 55.8761 35.5987 55.814 36.0346 55.6607C37.1515 56.9095 41.5459 62.3718 41.7625 70.9334C41.7625 70.9315 42.0721 74.4501 38.8943 76.9166H48.555C48.555 76.9166 47.307 76.1145 46.8094 73.8935C46.3107 71.6734 46.4333 67.7852 44.3163 63.0949C42.6087 59.3204 40.2581 55.4256 39.4062 54.0518C41.9828 52.4909 45.1435 49.7442 46.8711 45.1395C50.1097 36.5027 43.8804 30.085 38.0224 28.9745C38.0224 28.9745 39.6408 31.8763 39.8924 33.9732C39.8924 33.9723 43.5841 37.9987 40.7643 45.0182ZM49.5455 10.3957C49.1286 10.0892 47.7448 8.89496 47.2291 8.4925C46.8321 8.18784 46.1901 6.02417 48.1589 5.97998C49.1514 5.95647 50.0356 6.7012 50.3642 6.89773L50.9169 5.5211C50.583 5.45331 50.2573 5.35055 49.9454 5.21456C49.5541 5.05094 48.8418 4.75474 48.1589 4.75474C47.4742 4.75474 45.5937 5.15062 45.4873 7.15819C45.399 8.82162 46.5244 9.62747 46.9452 9.95846C47.5406 10.3948 49.0621 11.5523 49.7469 12.4926C50.4326 13.432 50.7849 15.3991 48.3346 15.6831C47.4951 15.6822 46.5719 15.2694 46.061 14.9403L46.2595 16.6451C46.7676 16.5557 47.0553 16.6639 47.2738 16.6893C47.6499 16.7306 48.1589 16.8425 48.6404 16.82C49.1286 16.7983 51.6236 16.3837 51.6236 13.9999C51.6226 11.903 50.141 10.8762 49.5455 10.3957ZM40.2505 97.6882C41.5678 97.6882 42.7882 97.6704 43.7883 96.967L43.7379 95.4775C42.8471 96.3605 41.6143 96.5147 40.2505 96.5147C37.5276 96.5147 35.3185 94.0661 35.3185 91.3702C35.3185 88.6743 37.5276 86.3094 40.2505 86.3094C41.488 86.3094 42.6362 86.6489 43.5746 87.3776L43.4093 85.9107C42.4577 85.3118 41.4605 85.1369 40.2505 85.1369C36.8723 85.1369 34.1333 88.0246 34.1333 91.3702C34.1323 94.7168 36.8723 97.6882 40.2505 97.6882ZM19.7163 97.4278C21.3386 97.4278 22.8944 96.7897 24.0415 95.654C25.1886 94.5182 25.8331 92.9778 25.8331 91.3716C25.8331 89.7655 25.1886 88.2251 24.0415 87.0893C22.8944 85.9536 21.3386 85.3155 19.7163 85.3155C18.094 85.3155 16.5382 85.9536 15.3911 87.0893C14.244 88.2251 13.5996 89.7655 13.5996 91.3716C13.5996 92.9778 14.244 94.5182 15.3911 95.654C16.5382 96.7897 18.094 97.4278 19.7163 97.4278ZM19.7163 86.489C21.0032 86.5197 22.227 87.0473 23.1262 87.9593C24.0254 88.8713 24.5288 90.0953 24.5288 91.3698C24.5288 92.6443 24.0254 93.8682 23.1262 94.7802C22.227 95.6922 21.0032 96.2198 19.7163 96.2505C18.4086 96.2507 17.1543 95.7368 16.2293 94.8216C15.3042 93.9064 14.7842 92.665 14.7834 91.3702C14.7839 90.0753 15.3039 88.8336 16.2289 87.9183C17.154 87.0029 18.4084 86.4888 19.7163 86.489ZM50.7384 97.4466L51.6435 96.0051C51.03 96.3323 49.7241 96.3323 48.9054 96.3323C48.0934 96.3323 47.7144 95.9195 47.7144 95.5687V91.5912C47.7144 91.1079 48.0231 90.9574 48.3992 90.9574H50.5608V89.7294H48.4011C48.025 89.7294 47.7163 89.5808 47.7163 89.0975V87.1717C47.7163 86.8238 48.0924 86.4091 48.9073 86.4091C49.726 86.4091 50.4544 86.4091 51.0708 86.7363L50.7375 85.2958H46.3022C46.3924 85.5365 46.4561 85.7537 46.4779 86.191L46.4798 96.5504C46.4734 96.8577 46.4133 97.1615 46.3022 97.4484L50.7384 97.4466ZM29.4349 96.5495C29.4287 96.8554 29.3693 97.1579 29.2592 97.4437L30.8472 97.4456C30.7383 97.1581 30.6782 96.8546 30.6696 96.5476H30.6715V91.0421L34.025 85.2958H32.5909L30.0988 89.6447L27.6048 85.2958H26.1697L29.4359 91.0421L29.4349 96.5495ZM29.6695 57.4238C29.4036 56.5352 28.4301 54.6123 27.9439 53.8186C26.1403 54.1195 24.4602 54.2192 23.1335 54.2192L23.1344 53.2592C22.5171 53.4754 19.7771 53.8685 18.6308 54.0029V73.1892C18.6308 75.2005 17.7466 76.1587 17.1283 77.0351H24.6331C24.0148 76.1587 23.1325 75.2005 23.1325 73.1911L23.1344 57.9786C25.4593 57.9429 27.695 57.7501 29.6695 57.4238ZM30.5917 14.7409V5.36407C30.6126 4.92682 30.681 4.70961 30.7703 4.46983L29.1804 4.47077C29.2678 4.71149 29.3324 4.92776 29.359 5.36407V15.7245C29.3495 16.0309 29.2892 16.3336 29.1804 16.6206H33.6157L34.5208 15.1772C33.9034 15.5045 32.6013 15.5035 31.7846 15.5045C30.9659 15.5045 30.5917 15.0907 30.5917 14.7409ZM20.5141 4.48863C19.7017 4.47458 18.8946 4.62089 18.1399 4.91901C17.3853 5.21714 16.6981 5.66111 16.1186 6.22501C15.5391 6.78891 15.0789 7.46144 14.7648 8.20336C14.4507 8.94527 14.2889 9.74171 14.2891 10.5462C14.2892 11.3506 14.4512 12.147 14.7655 12.8888C15.0799 13.6307 15.5403 14.3031 16.12 14.8668C16.6997 15.4305 17.3869 15.8743 18.1417 16.1722C18.8965 16.47 19.7036 16.6161 20.516 16.6018C22.1197 16.5736 23.6481 15.9229 24.7721 14.79C25.896 13.657 26.5257 12.1324 26.5254 10.5443C26.5252 8.95622 25.8951 7.43176 24.7707 6.29915C23.6464 5.16653 22.1178 4.51637 20.5141 4.48863ZM20.515 15.4273C19.8576 15.443 19.2036 15.3283 18.5916 15.09C17.9795 14.8517 17.4218 14.4946 16.9512 14.0398C16.4807 13.5849 16.1067 13.0415 15.8514 12.4414C15.5961 11.8414 15.4645 11.1968 15.4645 10.5457C15.4645 9.89456 15.5961 9.25 15.8514 8.64994C16.1067 8.04989 16.4807 7.50644 16.9512 7.05159C17.4218 6.59674 17.9795 6.23966 18.5916 6.00137C19.2036 5.76308 19.8576 5.64838 20.515 5.66403C21.8022 5.69467 23.0262 6.22243 23.9256 7.13458C24.825 8.04673 25.3285 9.27094 25.3285 10.5457C25.3285 11.8204 24.825 13.0446 23.9256 13.9568C23.0262 14.8689 21.8022 15.3967 20.515 15.4273ZM39.0225 14.7409L39.0206 5.36407C39.0415 4.92776 39.1118 4.71055 39.1991 4.46983L37.6093 4.47077C37.6967 4.71149 37.765 4.92776 37.7878 5.36407V15.7245C37.7798 16.031 37.7194 16.334 37.6093 16.6206H42.0464L42.9496 15.1772C42.3323 15.5045 41.0302 15.5035 40.2135 15.5045C39.3967 15.5045 39.0225 15.0907 39.0225 14.7409ZM9.44967 9.84374L10.0224 9.84656C10.7306 9.82802 11.4035 9.53645 11.8978 9.03395C12.3921 8.53146 12.6687 7.85774 12.6687 7.15631C12.6687 6.45488 12.3921 5.78117 11.8978 5.27867C11.4035 4.77618 10.7306 4.48461 10.0224 4.46606L6.11801 4.47077C6.20633 4.71055 6.27187 4.92776 6.29276 5.36501V15.7254C6.28623 16.0322 6.22681 16.3356 6.11706 16.6225H7.70691V16.6206C7.59677 16.334 7.53641 16.031 7.52836 15.7245V10.6101C7.52836 10.217 7.77149 10.2377 7.94909 10.4568L13.2249 16.6197H14.8337L9.3604 10.2368C9.22838 10.0835 9.25118 9.84374 9.44967 9.84374ZM7.52646 8.6044V5.67155H10.0195C10.4038 5.68517 10.7677 5.84587 11.0347 6.11983C11.3017 6.3938 11.4509 6.75964 11.4509 7.14033C11.4509 7.52102 11.3017 7.88686 11.0347 8.16082C10.7677 8.43478 10.4038 8.59549 10.0195 8.6091L7.52646 8.6044Z" fill="black" stroke="black" stroke-width="0.205142" stroke-miterlimit="22.926"/>
<path d="M8.30762 72.2282L15.8115 72.2263C15.1942 71.3499 14.3109 70.3917 14.3109 68.3804L14.3119 53.1698C19.3701 53.0861 23.5955 52.2596 26.9832 50.9272C32.1459 56.4017 32.7633 64.3596 32.8525 66.5411C32.9399 68.7302 31.7936 70.6531 30.0261 72.2272H39.8274C38.3249 71.4394 37.7959 69.3423 37.7095 67.331C36.7379 58.24 31.6179 51.1604 30.3785 49.323C36.1956 45.8692 38.7665 40.5761 38.7665 35.6884C38.7665 27.5584 31.5267 23.7115 25.2585 23.7115H8.74924C9.36657 24.5851 9.80725 24.9349 9.80725 26.9453V68.3795C9.80725 70.3917 8.92589 71.3527 8.30762 72.2282ZM14.3119 26.5964H24.0229C30.7318 26.5964 32.9399 30.794 32.8525 35.2502C32.4109 47.5768 20.0492 49.4142 14.3119 49.4142V26.5964Z" fill="black" stroke="black" stroke-width="0.205142" stroke-miterlimit="22.926"/>
<path d="M53.1654 1H3.6995C2.95984 1.00124 2.25085 1.29271 1.72783 1.81054C1.20482 2.32836 0.91044 3.03033 0.90918 3.76265V98.2373C0.90918 98.9774 1.1998 99.6685 1.72785 100.193C1.98617 100.45 2.29348 100.654 2.63194 100.792C2.9704 100.931 3.33327 101.001 3.6995 101H53.211C53.9565 101 54.6109 100.713 55.138 100.193C55.6651 99.6685 55.9092 98.9774 55.9092 98.2373V3.76171C55.9092 2.24028 54.7049 1 53.1654 1ZM54.2367 98.4414C54.2367 98.9999 53.778 99.4569 53.211 99.4569H3.6995C3.56488 99.457 3.43158 99.4306 3.30734 99.3793C3.18311 99.328 3.07041 99.2527 2.9758 99.1579C2.88008 99.0642 2.80415 98.9526 2.75246 98.8296C2.70077 98.7066 2.67435 98.5746 2.67473 98.4414L2.67568 82.9976H54.2377L54.2367 98.4414ZM54.2367 81.0474H2.67568V20.0837L54.2377 20.0367L54.2367 81.0474ZM54.2367 18.0856H2.67568V3.55955C2.67568 3.28873 2.78205 3.03297 2.9758 2.84208C3.16955 2.6512 3.42597 2.544 3.6995 2.544H53.211C53.4831 2.5445 53.7438 2.65178 53.9361 2.84233C54.1284 3.03288 54.2365 3.29114 54.2367 3.56049V18.0856Z" fill="black" stroke="black" stroke-width="0.205142" stroke-miterlimit="22.926"/>
<path d="M28.5712 28.384L17.5771 28.3849C18.1972 29.2575 18.6379 29.6073 18.6379 31.6177V48.0507C20.0929 47.921 22.1225 47.2646 23.1368 46.9148V31.2689H31.088C30.6444 30.1781 29.4535 28.9096 28.5712 28.384Z" fill="black" stroke="black" stroke-width="0.205142" stroke-miterlimit="22.926"/>
<defs>
<linearGradient id="paint0_linear_40_2405" x1="3.57543" y1="-0.311846" x2="57.1496" y2="112.944" gradientUnits="userSpaceOnUse">
<stop offset="0.083" stop-color="white"/>
<stop offset="0.611" stop-color="#A8A8A8"/>
<stop offset="1" stop-color="white"/>
</linearGradient>
</defs>
</svg>
