<svg width="124" height="60" viewBox="0 0 124 60" fill="none" xmlns="http://www.w3.org/2000/svg">
<g clip-path="url(#clip0_114_1678)">
<path fill-rule="evenodd" clip-rule="evenodd" d="M36.146 33.0815V43.0005H35.6578V33.0815H36.146Z" fill="#4A4A49"/>
<path fill-rule="evenodd" clip-rule="evenodd" d="M37.5009 33.0815V53.114H37.0127V33.0815H37.5009Z" fill="#4A4A49"/>
<path fill-rule="evenodd" clip-rule="evenodd" d="M22.3663 34.4248C22.5011 34.4248 22.6104 34.5336 22.6104 34.6679V43.1696L35.5416 42.1808C35.676 42.1705 35.7933 42.2707 35.8036 42.4046C35.814 42.5384 35.7134 42.6553 35.5789 42.6656L22.1222 43.6946V34.6679C22.1222 34.5336 22.2315 34.4248 22.3663 34.4248Z" fill="#4A4A49"/>
<path fill-rule="evenodd" clip-rule="evenodd" d="M36.1454 41.0546C36.156 41.1884 36.0556 41.3055 35.9212 41.316L22.3855 42.3797C22.2511 42.3902 22.1336 42.2903 22.123 42.1564C22.1124 42.0226 22.2127 41.9055 22.3471 41.8949L35.8828 40.8313C36.0172 40.8208 36.1348 40.9207 36.1454 41.0546Z" fill="#4A4A49"/>
<path fill-rule="evenodd" clip-rule="evenodd" d="M19.9069 34.4248V50.9382H22.6165V51.4244H19.4187V34.4248H19.9069Z" fill="#4A4A49"/>
<path fill-rule="evenodd" clip-rule="evenodd" d="M53.9292 49.2544H64.5661V49.7406H53.9292V49.2544Z" fill="#4A4A49"/>
<path fill-rule="evenodd" clip-rule="evenodd" d="M64.7554 49.2544H87.5732V49.7406H64.7554V49.2544Z" fill="#4A4A49"/>
<path fill-rule="evenodd" clip-rule="evenodd" d="M36.146 42.5142V50.8894H64.3953V51.3756H22.4639V50.8894H35.6578V42.5142H36.146Z" fill="#4A4A49"/>
<path fill-rule="evenodd" clip-rule="evenodd" d="M83.7286 22.9014V30.8025H83.2404V22.9014H83.7286Z" fill="#4A4A49"/>
<path fill-rule="evenodd" clip-rule="evenodd" d="M80.1341 22.9678V30.8689H79.6459V22.9678H80.1341Z" fill="#4A4A49"/>
<path fill-rule="evenodd" clip-rule="evenodd" d="M35.658 32.642C35.6623 32.5078 35.7751 32.4025 35.9098 32.4069L56.8908 33.0815C57.0255 33.0858 57.1312 33.1981 57.1269 33.3323C57.1225 33.4665 57.0098 33.5718 56.875 33.5675L35.8941 32.8928C35.7593 32.8885 35.6536 32.7762 35.658 32.642Z" fill="#4A4A49"/>
<path fill-rule="evenodd" clip-rule="evenodd" d="M34.9806 31.2931C34.9848 31.1589 35.0975 31.0535 35.2322 31.0577L56.8906 31.7324C57.0253 31.7366 57.1311 31.8488 57.1269 31.983C57.1227 32.1172 57.01 32.2226 56.8753 32.2184L35.2169 31.5437C35.0822 31.5395 34.9764 31.4273 34.9806 31.2931Z" fill="#4A4A49"/>
<path fill-rule="evenodd" clip-rule="evenodd" d="M71.4855 1.69678L90.6553 19.8684H87.7624V51.4303H87.2742V33.5677H71.1875V5.35311L64.6943 7.54073V53.4968H64.2061V7.46655L62.219 5.47418L71.4855 1.69678ZM64.5161 7.08747L71.1875 4.83982V4.77111H71.3239L71.4157 4.67078L71.4897 4.738L71.5847 4.70602L71.6068 4.77111H71.6758V4.90688L87.6128 19.3761H87.7624V19.3821H89.4342L71.3778 2.26602L63.0808 5.64827L64.5161 7.08747ZM87.2742 19.7265L71.6758 5.56481V33.0815H87.2742V19.7265ZM57.127 3.16049V49.7407H56.6388V3.16049H57.127ZM74.3445 8.99382L85.2742 19.1673L73.9337 18.7783V9.17143H74.1778L74.3445 8.99382ZM74.422 9.73141V18.3085L83.9892 18.6367L74.422 9.73141ZM85.2359 22.443V31.2095H73.9337V22.551L85.2359 22.443ZM74.422 23.0326V30.7233H84.7477V22.9339L74.422 23.0326Z" fill="#4A4A49"/>
<path fill-rule="evenodd" clip-rule="evenodd" d="M54.4174 10.0815V13.8335L55.7722 13.6755V15.2195L36.146 18.3617V18.3977H35.9408L18.0638 24.2212V22.646L35.6272 16.9246L35.6216 16.8903L35.6578 16.8844V16.8478H35.863L36.0581 16.7843L36.0689 16.8174L39.2279 16.3025V14.4773L54.4174 10.0815ZM39.7161 16.2229L53.9044 13.9103L53.9025 13.8935L53.9292 13.8904V10.7292L39.7161 14.8423V16.2229ZM54.1931 14.3559L36.146 17.2975V17.8692L55.284 14.8052V14.222L54.4174 14.323V14.3559H54.1931ZM35.6578 17.9474V17.4262L18.5521 22.9986V23.5506L35.6278 17.9881L35.6222 17.9531L35.6578 17.9474Z" fill="#4A4A49"/>
<path fill-rule="evenodd" clip-rule="evenodd" d="M37.2568 16.9023C37.3916 16.9023 37.5009 17.0112 37.5009 17.1455V17.8201C37.5009 17.9544 37.3916 18.0632 37.2568 18.0632C37.122 18.0632 37.0127 17.9544 37.0127 17.8201V17.1455C37.0127 17.0112 37.122 16.9023 37.2568 16.9023Z" fill="#4A4A49"/>
<path fill-rule="evenodd" clip-rule="evenodd" d="M57.1315 2.74756L65.2435 3.84152V4.58878H64.7553V4.26634L57.1835 3.24523L54.4174 4.22547V10.6483H53.9292V3.88239L57.1315 2.74756Z" fill="#4A4A49"/>
<path fill-rule="evenodd" clip-rule="evenodd" d="M54.486 8.5454L38.9901 13.4517L39.6875 14.5251L39.2776 14.7892L38.2329 13.1812L54.3381 8.08203L54.486 8.5454Z" fill="#4A4A49"/>
<path fill-rule="evenodd" clip-rule="evenodd" d="M58.6649 0.0288086L63.8888 0.558454V3.57386H63.4006V0.997691L59.1531 0.567045V2.93569H58.6649V0.0288086Z" fill="#4A4A49"/>
<path fill-rule="evenodd" clip-rule="evenodd" d="M59.2139 0.469736L57.127 1.02523V3.23929H56.6388V0.651895L59.0879 0L59.2139 0.469736Z" fill="#4A4A49"/>
<path fill-rule="evenodd" clip-rule="evenodd" d="M36.146 18.2515V31.5436H35.6578V18.2515H36.146ZM37.5008 18.2515V31.5436H37.0126V18.2515H37.5008Z" fill="#4A4A49"/>
<path fill-rule="evenodd" clip-rule="evenodd" d="M19.9069 23.6426V34.3905L25.2906 33.6848L36.115 32.3793L36.1737 32.862L25.3518 34.1672L25.3493 34.1676L19.4187 34.9449V23.6426H19.9069Z" fill="#4A4A49"/>
<path fill-rule="evenodd" clip-rule="evenodd" d="M22.6104 42.5142V51.0899H22.1222V42.5142H22.6104Z" fill="#4A4A49"/>
<path fill-rule="evenodd" clip-rule="evenodd" d="M35.4983 31.5105L19.4524 33.5973L19.3892 33.1152L35.4351 31.0283L35.4983 31.5105Z" fill="#4A4A49"/>
<path fill-rule="evenodd" clip-rule="evenodd" d="M22.6104 22.6338V32.8931H22.1222V22.6338H22.6104Z" fill="#4A4A49"/>
<path fill-rule="evenodd" clip-rule="evenodd" d="M54.4174 15.5532V31.8782H53.9292V15.5532H54.4174Z" fill="#4A4A49"/>
<path fill-rule="evenodd" clip-rule="evenodd" d="M54.4174 33.0815V49.6861H53.9292V33.0815H54.4174Z" fill="#4A4A49"/>
<path fill-rule="evenodd" clip-rule="evenodd" d="M71.6757 33.0815V53.4178H71.1875V33.0815H71.6757Z" fill="#4A4A49"/>
<path fill-rule="evenodd" clip-rule="evenodd" d="M19.9069 50.938V52.9619H87.2864V51.2783H87.7746V53.4481H19.4187V50.938H19.9069Z" fill="#4A4A49"/>
<path fill-rule="evenodd" clip-rule="evenodd" d="M25.9974 43.189V51.0901H25.5092V43.189H25.9974Z" fill="#4A4A49"/>
<path fill-rule="evenodd" clip-rule="evenodd" d="M24.6425 43.189V51.0901H24.1543V43.189H24.6425Z" fill="#4A4A49"/>
<path fill-rule="evenodd" clip-rule="evenodd" d="M28.7009 43.189V51.0901H28.2126V43.189H28.7009Z" fill="#4A4A49"/>
<path fill-rule="evenodd" clip-rule="evenodd" d="M32.7591 42.5142V51.0899H32.2709V42.5142H32.7591Z" fill="#4A4A49"/>
<path fill-rule="evenodd" clip-rule="evenodd" d="M30.0556 43.189V51.0901H29.5674V43.189H30.0556Z" fill="#4A4A49"/>
<path fill-rule="evenodd" clip-rule="evenodd" d="M34.1139 42.5142V51.0899H33.6257V42.5142H34.1139Z" fill="#4A4A49"/>
<path fill-rule="evenodd" clip-rule="evenodd" d="M73.7994 36.6914H85.303V45.4556H73.7994V36.6914ZM74.2877 37.1776V44.9694H84.8147V37.1776H74.2877Z" fill="#4A4A49"/>
<path fill-rule="evenodd" clip-rule="evenodd" d="M33.6562 23.1137C33.0369 22.6277 32.2766 22.4155 31.5541 22.516C30.8123 22.6185 30.0747 23.0589 29.5735 23.9426V29.8073L33.6562 29.0853V23.1137ZM31.4868 22.0345C32.3902 21.9088 33.3254 22.1941 34.0582 22.8131L34.1444 22.8859V29.4928L29.0853 30.3875V23.818L29.1149 23.7638C29.6876 22.7138 30.5711 22.1609 31.4868 22.0345Z" fill="#4A4A49"/>
<path fill-rule="evenodd" clip-rule="evenodd" d="M33.0653 22.3593C33.4602 22.4822 33.828 22.6909 34.0719 22.9917L33.692 23.2971C33.527 23.0935 33.2547 22.9277 32.9197 22.8234C32.5868 22.7198 32.2108 22.6832 31.8599 22.7221C31.5073 22.7611 31.1981 22.874 30.9822 23.0516C30.7736 23.2231 30.6414 23.4625 30.6414 23.7948V29.672H30.1532V23.7948C30.1532 23.3126 30.3543 22.9374 30.6713 22.6766C30.9811 22.4219 31.3897 22.2849 31.806 22.2388C32.2241 22.1926 32.668 22.2357 33.0653 22.3593Z" fill="#4A4A49"/>
<path fill-rule="evenodd" clip-rule="evenodd" d="M27.4548 23.3316C27.8264 23.4896 28.1727 23.7393 28.2916 24.0945L27.8284 24.2482C27.7764 24.0929 27.5919 23.9186 27.2631 23.7788C26.9458 23.6438 26.5434 23.5634 26.1481 23.5605C25.7501 23.5577 25.3857 23.6336 25.1298 23.7854C24.886 23.9299 24.7402 24.1406 24.7402 24.4509V30.6503H24.252V24.4509C24.252 23.9468 24.5089 23.5877 24.88 23.3676C25.2389 23.1547 25.7014 23.0711 26.1516 23.0743C26.6047 23.0776 27.0719 23.1688 27.4548 23.3316Z" fill="#4A4A49"/>
<path fill-rule="evenodd" clip-rule="evenodd" d="M46.8502 22.1047V28.4277L51.5797 28.4607V22.0911C50.4198 20.7752 48.1806 20.7451 46.8502 22.1047ZM46.4265 21.8431C47.9522 20.1943 50.6466 20.198 52.0121 21.8471L52.0679 21.9144V28.9504L46.3619 28.9105V21.9129L46.4265 21.8431Z" fill="#4A4A49"/>
<path fill-rule="evenodd" clip-rule="evenodd" d="M39.356 22.0681V28.391L44.0856 28.4241V22.0545C42.9256 20.7386 40.6865 20.7085 39.356 22.0681ZM38.9324 21.8064C40.458 20.1577 43.1525 20.1614 44.518 21.8104L44.5738 21.8778V28.9137L38.8678 28.8739V21.8763L38.9324 21.8064Z" fill="#4A4A49"/>
<path fill-rule="evenodd" clip-rule="evenodd" d="M48.8172 21.4041C48.1198 21.3316 47.3797 21.5729 46.8323 22.3755L46.4285 22.1023C47.0833 21.1423 48.0031 20.8306 48.868 20.9206C49.7171 21.0089 50.5118 21.4832 50.9586 22.0888L51.0061 22.1533L50.9938 28.5967L50.5056 28.5958L50.5176 22.315C50.144 21.8489 49.5005 21.4752 48.8172 21.4041Z" fill="#4A4A49"/>
<path fill-rule="evenodd" clip-rule="evenodd" d="M41.3144 21.1698C40.6204 21.0987 39.8833 21.341 39.3386 22.1437L38.9341 21.8714C39.5855 20.9115 40.5022 20.5977 41.3644 20.6861C42.2107 20.7729 43.0029 21.2459 43.4468 21.8521L43.4938 21.9164L43.4814 28.3593L42.9932 28.3584L43.0053 22.0771C42.6347 21.6116 41.9945 21.2395 41.3144 21.1698Z" fill="#4A4A49"/>
<path fill-rule="evenodd" clip-rule="evenodd" d="M27.8952 23.9643C27.2759 23.4783 26.5156 23.2661 25.7931 23.3666C25.0514 23.4691 24.3137 23.9095 23.8126 24.7932V30.6579L27.8952 29.9359V23.9643ZM23.5684 30.948L23.6111 31.1873L28.3834 30.3434V23.7365L28.2972 23.6637C27.5644 23.0447 26.6292 22.7594 25.7258 22.885C24.8101 23.0115 23.9266 23.5644 23.3539 24.6143L23.3243 24.6686V30.948H23.5684Z" fill="#4A4A49"/>
<path fill-rule="evenodd" clip-rule="evenodd" d="M79.89 37.123C80.0248 37.123 80.1341 37.2319 80.1341 37.3662V44.7811C80.1341 44.9153 80.0248 45.0242 79.89 45.0242C79.7552 45.0242 79.6459 44.9153 79.6459 44.7811V37.3662C79.6459 37.2319 79.7552 37.123 79.89 37.123Z" fill="#4A4A49"/>
<path fill-rule="evenodd" clip-rule="evenodd" d="M83.2098 36.9106C83.3446 36.9106 83.4539 37.0195 83.4539 37.1538V45.0914C83.4539 45.2256 83.3446 45.3345 83.2098 45.3345C83.075 45.3345 82.9657 45.2256 82.9657 45.0914V37.1538C82.9657 37.0195 83.075 36.9106 83.2098 36.9106Z" fill="#4A4A49"/>
<path fill-rule="evenodd" clip-rule="evenodd" d="M37.0127 49.4975C37.0127 49.3632 37.122 49.2544 37.2568 49.2544H54.8508C54.9856 49.2544 55.0949 49.3632 55.0949 49.4975C55.0949 49.6318 54.9856 49.7406 54.8508 49.7406H37.2568C37.122 49.7406 37.0127 49.6318 37.0127 49.4975Z" fill="#4A4A49"/>
<path fill-rule="evenodd" clip-rule="evenodd" d="M35.9019 50.6035C36.0368 50.6035 36.146 50.7124 36.146 50.8466V53.2048C36.146 53.3391 36.0368 53.4479 35.9019 53.4479C35.7671 53.4479 35.6578 53.3391 35.6578 53.2048V50.8466C35.6578 50.7124 35.7671 50.6035 35.9019 50.6035Z" fill="#4A4A49"/>
<path fill-rule="evenodd" clip-rule="evenodd" d="M43.8471 34.835C44.5236 34.5778 45.3695 34.3271 46.0568 34.3271C46.7448 34.3271 47.592 34.5847 48.2655 34.8347C48.5826 34.9516 48.8608 35.074 49.0644 35.1636C49.0776 35.1693 49.0904 35.175 49.1029 35.1805L49.1083 35.1829L49.1135 35.1855C49.1479 35.2026 49.1812 35.2184 49.2131 35.2336L49.2228 35.2382C49.2506 35.2513 49.2785 35.2646 49.3027 35.2766L49.4377 35.3438V49.4973H42.6698V35.251H42.8638C42.8727 35.2467 42.8817 35.2425 42.8907 35.2382C42.894 35.2366 42.8972 35.2351 42.9005 35.2336C42.9324 35.2184 42.9657 35.2026 43 35.1855L43.0053 35.1829L43.0107 35.1805C43.0232 35.175 43.036 35.1693 43.0492 35.1635C43.2526 35.0741 43.5304 34.9519 43.8471 34.835ZM46.0568 34.8134C45.4628 34.8134 44.686 35.0365 44.0201 35.2897L44.0178 35.2905C43.7151 35.4022 43.4491 35.5192 43.2449 35.609C43.2341 35.6137 43.2235 35.6184 43.213 35.623C43.1941 35.6324 43.1756 35.6414 43.158 35.6499V49.0111H48.9494V35.6469C48.9337 35.6393 48.9173 35.6313 48.9005 35.623C48.8901 35.6184 48.8795 35.6138 48.8687 35.609C48.6645 35.5192 48.3984 35.4022 48.0957 35.2905C47.4266 35.0422 46.6502 34.8134 46.0568 34.8134Z" fill="#4A4A49"/>
<path fill-rule="evenodd" clip-rule="evenodd" d="M48.2493 35.2678C48.2494 35.2679 48.2495 35.268 48.0829 35.4457L48.2493 35.2678L48.327 35.34V49.7406H42.6698V49.2544H47.8388V35.5626C47.8237 35.5516 47.8064 35.5395 47.7868 35.5263C47.6911 35.4616 47.5416 35.3725 47.335 35.2824C46.9226 35.1025 46.2784 34.9169 45.3733 34.9169V34.4307C46.3477 34.4307 47.0584 34.631 47.5309 34.837C47.7667 34.9399 47.9422 35.0437 48.0608 35.1238C48.1201 35.1639 48.1652 35.198 48.1965 35.223C48.2121 35.2355 48.2243 35.2458 48.2331 35.2534L48.2438 35.2628L48.2473 35.2659L48.2485 35.2671L48.2493 35.2678ZM47.917 35.6241C47.9172 35.6242 47.9173 35.6243 47.917 35.6241V35.6241Z" fill="#4A4A49"/>
<path fill-rule="evenodd" clip-rule="evenodd" d="M74.2926 10.6084L83.152 18.7729L82.8204 19.1298L73.9611 10.9653L74.2926 10.6084Z" fill="#4A4A49"/>
<path fill-rule="evenodd" clip-rule="evenodd" d="M17.7221 48.2879C17.4353 48.3608 17.1362 48.4034 16.825 48.4034C15.0552 48.4034 13.6211 47.0966 13.6211 45.486C13.6211 44.8235 13.8652 44.2157 14.268 43.7295C13.7859 43.0914 13.5601 42.2891 13.7126 41.4686C13.9262 40.2834 14.8599 39.3839 16.0439 39.0496C15.9828 38.8187 15.9462 38.5816 15.9462 38.3385C15.9462 36.7036 17.4047 35.3726 19.205 35.3726C19.797 35.3726 20.3523 35.5184 20.8344 35.7676C21.3166 35.5184 21.8719 35.3726 22.4639 35.3726C24.2641 35.3726 25.7227 36.6975 25.7227 38.3385C25.7227 38.5634 25.6983 38.7761 25.6433 38.9888C26.5404 39.6574 27.1202 40.6724 27.1202 41.815C27.1202 42.0824 27.0897 42.3499 27.0286 42.5991C27.5962 43.1278 27.9501 43.845 27.9501 44.6473C27.9501 46.2579 26.516 47.5646 24.7462 47.5646C24.734 47.5646 24.7157 47.5646 24.7035 47.5646C24.3435 49.1266 22.8605 50.2935 21.0908 50.2935C19.6078 50.2935 18.3262 49.473 17.7343 48.294L17.7221 48.2879Z" fill="white"/>
<path fill-rule="evenodd" clip-rule="evenodd" d="M18.1142 35.9492C17.3616 36.2664 16.7449 36.8364 16.413 37.2614C16.3095 37.3939 16.1178 37.4177 15.9848 37.3147C15.8517 37.2117 15.8278 37.0207 15.9312 36.8882C16.3113 36.4016 17.0066 35.756 17.8763 35.3895C18.724 35.0322 19.7503 34.9373 20.7871 35.5279C21.7249 35.2381 23.0651 35.0415 24.1563 35.4038C24.7395 35.5974 25.2615 35.9546 25.5975 36.5474C25.9102 37.099 26.0443 37.8235 25.9549 38.7479C26.371 39.041 26.8701 39.5209 27.1846 40.1351C27.5258 40.8015 27.6486 41.6293 27.2124 42.5159C27.7526 43.2546 28.2835 44.3595 28.154 45.4227C28.0826 46.0086 27.8112 46.5702 27.2554 47.0293C26.7298 47.4634 25.965 47.7939 24.9081 47.9859C24.4079 48.8144 23.4877 49.8161 22.2454 50.2466C20.9382 50.6997 19.3417 50.4977 17.6125 48.9563C16.7636 49.1354 15.0963 49.0827 14.0874 47.5755C13.9939 47.4359 14.0318 47.2472 14.172 47.1541C14.3123 47.061 14.5017 47.0988 14.5952 47.2384C15.4669 48.5407 16.9659 48.5147 17.6139 48.3303L17.7793 48.2833L17.9054 48.3998C19.5467 49.9177 20.957 50.0497 22.0448 49.6726C23.1646 49.2845 24.0147 48.3323 24.4499 47.5619L24.5215 47.435L24.6657 47.4111C25.7318 47.2341 26.4274 46.9236 26.8658 46.5615C27.2972 46.2051 27.4949 45.7867 27.5482 45.3495C27.6582 44.4457 27.1526 43.4179 26.6118 42.7325L26.4849 42.5716L26.5868 42.394C27.0158 41.6463 26.9277 40.9713 26.641 40.4112C26.3466 39.8363 25.842 39.3876 25.4695 39.1557L25.3043 39.0529L25.3284 38.8604C25.4452 37.9302 25.3161 37.2871 25.0661 36.8462C24.8185 36.4095 24.4328 36.1362 23.9633 35.9804C23.0024 35.6614 21.7357 35.8521 20.8456 36.1476L20.7092 36.1928L20.5874 36.117C19.7132 35.5728 18.8551 35.6369 18.1142 35.9492Z" fill="#4A4A49"/>
<path fill-rule="evenodd" clip-rule="evenodd" d="M5.58388 47.8443C5.22993 47.9354 4.85767 47.9901 4.46709 47.9901C2.27014 47.9901 0.488159 46.3674 0.488159 44.3678C0.488159 43.5473 0.78719 42.7936 1.29371 42.1858C0.69565 41.3896 0.414927 40.3929 0.60411 39.3779C0.872627 37.9071 2.03213 36.7887 3.49677 36.3755C3.41744 36.0898 3.38082 35.7981 3.38082 35.4881C3.38082 33.4581 5.19331 31.811 7.42689 31.811C8.16531 31.811 8.85491 31.9873 9.44687 32.3033C10.0449 31.9873 10.7345 31.811 11.4668 31.811C13.7004 31.811 15.5129 33.4581 15.5129 35.4881C15.5129 35.7616 15.4763 36.0351 15.4153 36.2904C16.5321 37.123 17.2461 38.3811 17.2461 39.7973C17.2461 40.1315 17.2034 40.4597 17.1301 40.7697C17.838 41.4261 18.2713 42.3195 18.2713 43.3102C18.2713 45.3098 16.4893 46.9326 14.2924 46.9326C14.2741 46.9326 14.2558 46.9326 14.2375 46.9326C13.792 48.8714 11.9551 50.324 9.7459 50.324C7.90289 50.324 6.3101 49.309 5.58388 47.8382V47.8443Z" fill="white"/>
<path fill-rule="evenodd" clip-rule="evenodd" d="M21.3827 38.6973C21.5175 38.7001 21.6245 38.8112 21.6217 38.9455L21.286 54.9301C21.2832 55.0643 21.1716 55.1708 21.0369 55.168C20.9021 55.1652 20.7951 55.0541 20.7979 54.9199L21.1336 38.9353C21.1364 38.8011 21.2479 38.6945 21.3827 38.6973Z" fill="#4A4A49"/>
<path fill-rule="evenodd" clip-rule="evenodd" d="M9.72089 36.5518C9.85571 36.5514 9.96528 36.66 9.96563 36.7942L10.0145 55.5199C10.0148 55.6542 9.90579 55.7633 9.77098 55.7637C9.63616 55.764 9.52659 55.6555 9.52624 55.5212L9.47742 36.7955C9.47707 36.6612 9.58607 36.5521 9.72089 36.5518Z" fill="#4A4A49"/>
<path fill-rule="evenodd" clip-rule="evenodd" d="M18.4776 43.1421C18.5474 43.0273 18.6975 42.9905 18.8128 43.0601C19.4833 43.4644 20.0547 43.8604 20.4847 44.2814C20.9163 44.704 21.2168 45.1631 21.3241 45.6937C21.3507 45.8254 21.2651 45.9535 21.1329 45.98C21.0008 46.0065 20.872 45.9213 20.8454 45.7897C20.7635 45.3843 20.5301 45.0077 20.1424 44.6281C19.7531 44.2469 19.2199 43.874 18.56 43.476C18.4446 43.4065 18.4078 43.257 18.4776 43.1421Z" fill="#4A4A49"/>
<path fill-rule="evenodd" clip-rule="evenodd" d="M5.94834 42.4192C6.01776 42.3041 6.16772 42.2669 6.28329 42.336C7.20686 42.8885 8.04821 43.4142 8.69832 43.9618C9.34737 44.5085 9.83341 45.0995 10.0072 45.7918C10.0399 45.922 9.96037 46.054 9.82958 46.0866C9.69878 46.1192 9.56625 46.04 9.53355 45.9097C9.3961 45.3621 9.00031 44.853 8.38305 44.3331C7.76685 43.814 6.95744 43.3065 6.0319 42.7528C5.91633 42.6837 5.87892 42.5343 5.94834 42.4192Z" fill="#4A4A49"/>
<path fill-rule="evenodd" clip-rule="evenodd" d="M24.032 41.6595C24.0746 41.7868 24.0055 41.9245 23.8776 41.967C23.4708 42.102 22.9034 42.4522 22.4366 42.882C22.205 43.0953 22.0062 43.3208 21.8671 43.5392C21.726 43.7607 21.6584 43.9555 21.6584 44.1128C21.6584 44.247 21.5491 44.3559 21.4143 44.3559C21.2795 44.3559 21.1702 44.247 21.1702 44.1128C21.1702 43.8263 21.2887 43.5395 21.4548 43.2787C21.6229 43.0149 21.8525 42.7577 22.1052 42.525C22.6072 42.0628 23.233 41.6685 23.7232 41.5057C23.8511 41.4632 23.9894 41.5321 24.032 41.6595Z" fill="#4A4A49"/>
<path fill-rule="evenodd" clip-rule="evenodd" d="M13.4423 40.7876C13.52 40.8973 13.4937 41.049 13.3835 41.1264C13.0546 41.3574 12.717 41.5728 12.3925 41.7799C12.3339 41.8174 12.2756 41.8546 12.2179 41.8915C11.8383 42.1347 11.482 42.3682 11.168 42.6128C10.5384 43.1032 10.1144 43.6109 10.018 44.2691C9.9986 44.402 9.87469 44.494 9.74128 44.4746C9.60787 44.4552 9.51549 44.3318 9.53493 44.199C9.6583 43.356 10.2016 42.7483 10.8672 42.2298C11.2009 41.97 11.5743 41.7257 11.9538 41.4826C12.0128 41.4448 12.0718 41.4071 12.131 41.3694C12.4557 41.1621 12.7828 40.9533 13.1021 40.729C13.2123 40.6516 13.3646 40.6779 13.4423 40.7876Z" fill="#4A4A49"/>
<path fill-rule="evenodd" clip-rule="evenodd" d="M18.4545 55.2045C18.4545 55.0703 18.5638 54.9614 18.6986 54.9614H22.2442C22.379 54.9614 22.4883 55.0703 22.4883 55.2045C22.4883 55.3388 22.379 55.4476 22.2442 55.4476H18.6986C18.5638 55.4476 18.4545 55.3388 18.4545 55.2045Z" fill="#4A4A49"/>
<path fill-rule="evenodd" clip-rule="evenodd" d="M6.21252 55.5874C6.21252 55.4531 6.32181 55.3442 6.45663 55.3442H11.827C11.9618 55.3442 12.0711 55.4531 12.0711 55.5874C12.0711 55.7216 11.9618 55.8305 11.827 55.8305H6.45663C6.32181 55.8305 6.21252 55.7216 6.21252 55.5874Z" fill="#4A4A49"/>
<path fill-rule="evenodd" clip-rule="evenodd" d="M87.3962 42.2465C87.3962 42.1123 87.5055 42.0034 87.6403 42.0034H123.396C123.531 42.0034 123.64 42.1123 123.64 42.2465C123.64 42.3808 123.531 42.4896 123.396 42.4896H87.6403C87.5055 42.4896 87.3962 42.3808 87.3962 42.2465Z" fill="#4A4A49"/>
<path fill-rule="evenodd" clip-rule="evenodd" d="M101.035 38.6754C100.253 39.4702 99.8212 40.5955 99.8212 41.9127C99.8212 42.0469 99.7119 42.1558 99.5771 42.1558C99.4423 42.1558 99.333 42.0469 99.333 41.9127C99.333 40.4888 99.8014 39.2346 100.686 38.3352C101.571 37.4348 102.854 36.9106 104.441 36.9106C107.284 36.9106 109.372 39.0419 109.372 41.9127C109.372 42.0469 109.263 42.1558 109.128 42.1558C108.993 42.1558 108.884 42.0469 108.884 41.9127C108.884 39.3013 107.005 37.3969 104.441 37.3969C102.965 37.3969 101.815 37.8817 101.035 38.6754Z" fill="#4A4A49"/>
<path fill-rule="evenodd" clip-rule="evenodd" d="M70.1193 59.0381C70.1842 58.9205 70.3327 58.8775 70.4508 58.9422L71.5493 59.5439C71.6674 59.6087 71.7105 59.7565 71.6455 59.8741C71.5805 59.9918 71.4321 60.0347 71.314 59.97L70.2155 59.3683C70.0974 59.3036 70.0543 59.1558 70.1193 59.0381Z" fill="#4A4A49"/>
<path fill-rule="evenodd" clip-rule="evenodd" d="M37.8789 55.4702C37.9439 55.3526 38.0923 55.3097 38.2104 55.3744L39.3089 55.9761C39.427 56.0408 39.4701 56.1886 39.4052 56.3063C39.3402 56.4239 39.1918 56.4668 39.0736 56.4021L37.9751 55.8004C37.857 55.7357 37.8139 55.5879 37.8789 55.4702Z" fill="#4A4A49"/>
<path fill-rule="evenodd" clip-rule="evenodd" d="M46.8376 58.4424C46.9026 58.3248 47.051 58.2818 47.1692 58.3465L48.2676 58.9482C48.3858 59.013 48.4289 59.1608 48.3639 59.2784C48.2989 59.3961 48.1505 59.439 48.0324 59.3743L46.9339 58.7726C46.8158 58.7079 46.7727 58.5601 46.8376 58.4424Z" fill="#4A4A49"/>
<path fill-rule="evenodd" clip-rule="evenodd" d="M27.7363 58.4424C27.8013 58.3248 27.9497 58.2818 28.0678 58.3465L29.1663 58.9482C29.2845 59.013 29.3275 59.1608 29.2626 59.2784C29.1976 59.3961 29.0492 59.439 28.931 59.3743L27.8326 58.7726C27.7144 58.7079 27.6713 58.5601 27.7363 58.4424Z" fill="#4A4A49"/>
<path fill-rule="evenodd" clip-rule="evenodd" d="M84.3385 55.7866C84.4035 55.669 84.5519 55.6261 84.67 55.6908L85.7685 56.2925C85.8866 56.3572 85.9297 56.505 85.8648 56.6227C85.7998 56.7403 85.6513 56.7832 85.5332 56.7185L84.4347 56.1168C84.3166 56.0521 84.2735 55.9043 84.3385 55.7866Z" fill="#4A4A49"/>
<path fill-rule="evenodd" clip-rule="evenodd" d="M59.3725 55.4702C59.4375 55.3526 59.5859 55.3097 59.7041 55.3744L60.8026 55.9761C60.9207 56.0408 60.9638 56.1886 60.8988 56.3063C60.8338 56.4239 60.6854 56.4668 60.5673 56.4021L59.4688 55.8004C59.3507 55.7357 59.3076 55.5879 59.3725 55.4702Z" fill="#4A4A49"/>
<path fill-rule="evenodd" clip-rule="evenodd" d="M98.574 52.7235C98.5273 53.0534 98.3056 53.3763 97.9517 53.6903C97.6919 53.9214 97.6211 54.0608 97.6123 54.1185C97.6101 54.1332 97.6127 54.1324 97.6129 54.1327C97.6181 54.1397 97.6394 54.1623 97.701 54.1888C97.8276 54.243 98.0447 54.2799 98.3521 54.2871C98.6531 54.2941 99.0179 54.2722 99.4245 54.2248C101.059 54.0341 103.273 53.443 104.542 52.7829L104.655 52.9984L104.541 52.7832C105.894 52.0765 108.029 51.7544 109.56 51.8303C109.946 51.8494 110.301 51.894 110.601 51.9671C110.896 52.0389 111.161 52.1434 111.346 52.2973C111.544 52.4615 111.658 52.6929 111.597 52.9701C111.543 53.2184 111.356 53.4584 111.081 53.6931C110.925 53.8273 110.851 53.9334 110.822 54.0088C110.798 54.0732 110.804 54.1175 110.828 54.1619C110.858 54.2173 110.927 54.2894 111.061 54.3691C111.193 54.4475 111.371 54.5231 111.595 54.5936C112.498 54.878 113.994 55.037 115.657 55.0817C117.313 55.1262 119.108 55.0571 120.597 54.8963C121.341 54.8159 122.004 54.7131 122.532 54.5915C123.072 54.4673 123.435 54.3309 123.61 54.2012C123.719 54.1211 123.871 54.1436 123.952 54.2513C124.032 54.3591 124.01 54.5114 123.902 54.5915C123.637 54.7869 123.184 54.9404 122.642 55.0652C122.089 55.1927 121.405 55.2981 120.649 55.3797C119.137 55.543 117.32 55.6128 115.643 55.5677C113.974 55.5228 112.42 55.3634 111.448 55.0572C111.203 54.98 110.987 54.891 110.811 54.7869C110.638 54.6842 110.487 54.5562 110.398 54.3931C110.304 54.219 110.293 54.0265 110.366 53.8349C110.436 53.6544 110.576 53.4854 110.763 53.3249L110.763 53.3246C111.01 53.1127 111.1 52.9592 111.12 52.8663C111.134 52.8021 111.122 52.7443 111.033 52.6705C110.932 52.5864 110.752 52.5042 110.485 52.4394C110.224 52.3758 109.901 52.334 109.536 52.3159C108.063 52.2429 106.021 52.5589 104.768 53.2137L104.768 53.2139C103.431 53.9092 101.156 54.5124 99.4813 54.7077C99.0606 54.7568 98.6717 54.7808 98.3407 54.7732C98.0161 54.7656 97.7227 54.7273 97.5082 54.6354C97.3993 54.5888 97.2924 54.5207 97.2177 54.4181C97.138 54.3087 97.1092 54.1793 97.1297 54.0452C97.1664 53.8051 97.3584 53.5661 97.6265 53.3277L97.6267 53.3275C97.944 53.0459 98.0673 52.8198 98.0905 52.6556C98.1112 52.5098 98.0588 52.3665 97.889 52.2178C97.7125 52.0632 97.4245 51.9199 97.0283 51.8046C96.6358 51.6904 96.1542 51.6085 95.6066 51.5656C93.4084 51.3932 90.2486 51.855 87.7575 53.2117C87.6392 53.2762 87.4909 53.2329 87.4262 53.1151C87.3615 52.9973 87.405 52.8496 87.5233 52.7851C90.1096 51.3765 93.3668 50.9023 95.6449 51.0809C96.2164 51.1257 96.7325 51.212 97.1652 51.3379C97.5943 51.4628 97.959 51.6316 98.2114 51.8526C98.4705 52.0795 98.6232 52.3753 98.574 52.7235Z" fill="#4A4A49"/>
<path fill-rule="evenodd" clip-rule="evenodd" d="M113.054 52.8686C113.17 52.9371 113.209 53.0863 113.14 53.2017C113.112 53.2477 113.099 53.2812 113.094 53.3033C113.091 53.3141 113.09 53.3215 113.09 53.326C113.09 53.3291 113.09 53.331 113.09 53.3318C113.091 53.3323 113.091 53.3329 113.092 53.3338C113.095 53.3381 113.106 53.3482 113.129 53.3611C113.237 53.4224 113.465 53.4598 113.782 53.459C114.397 53.4575 115.142 53.3179 115.356 53.2478C115.484 53.2059 115.622 53.2752 115.664 53.4028C115.706 53.5303 115.636 53.6677 115.508 53.7097C115.24 53.7976 114.444 53.9437 113.783 53.9452C113.463 53.946 113.119 53.9142 112.888 53.7844C112.764 53.7143 112.647 53.6006 112.612 53.4287C112.578 53.2644 112.632 53.1013 112.72 52.9535C112.789 52.8381 112.939 52.8 113.054 52.8686Z" fill="#4A4A49"/>
<path fill-rule="evenodd" clip-rule="evenodd" d="M91.1639 46.5211C90.7712 46.6763 90.4652 46.9336 90.2235 47.2359C90.1395 47.3409 89.986 47.3583 89.8805 47.2746C89.775 47.191 89.7576 47.038 89.8416 46.933C90.1247 46.5789 90.4962 46.2619 90.9838 46.0691C91.4724 45.876 92.0615 45.8141 92.7688 45.946C92.9013 45.9707 92.9886 46.0977 92.9638 46.2297C92.939 46.3616 92.8114 46.4486 92.6789 46.4239C92.0497 46.3066 91.5556 46.3662 91.1639 46.5211Z" fill="#4A4A49"/>
<path fill-rule="evenodd" clip-rule="evenodd" d="M117.297 48.3058C117.371 48.1938 117.523 48.1631 117.635 48.2371C117.98 48.4643 118.285 48.5488 118.55 48.5539C118.815 48.559 119.058 48.4842 119.276 48.3661C119.395 48.302 119.543 48.3457 119.607 48.4637C119.671 48.5816 119.628 48.7292 119.509 48.7933C119.233 48.9426 118.908 49.0471 118.54 49.0401C118.172 49.033 117.778 48.914 117.366 48.6427C117.254 48.5686 117.223 48.4178 117.297 48.3058Z" fill="#4A4A49"/>
<path fill-rule="evenodd" clip-rule="evenodd" d="M95.0713 45.3126C95.7853 45.5447 96.5664 45.7612 97.5088 45.8335C97.6432 45.8438 97.7438 45.9607 97.7334 46.0945C97.723 46.2284 97.6057 46.3286 97.4713 46.3183C96.473 46.2417 95.6498 46.0121 94.9198 45.7748C94.7443 45.7177 94.5759 45.6609 94.4126 45.6057C93.8879 45.4287 93.4164 45.2695 92.9366 45.1798C92.3215 45.0647 91.708 45.0685 91.001 45.3171C90.2879 45.5678 89.465 46.0729 88.4442 46.9861C88.3439 47.0758 88.1896 47.0675 88.0995 46.9677C88.0094 46.8678 88.0177 46.7141 88.118 46.6243C89.166 45.6868 90.0435 45.1381 90.8385 44.8586C91.6396 44.5769 92.3419 44.5738 93.0267 44.7019C93.5438 44.7986 94.0598 44.9729 94.5921 45.1527C94.7502 45.2062 94.9098 45.2601 95.0713 45.3126Z" fill="#4A4A49"/>
<path fill-rule="evenodd" clip-rule="evenodd" d="M104.573 46.2527C106.05 45.9002 107.649 45.5408 109.509 46.1993C109.636 46.2443 109.702 46.3833 109.657 46.5098C109.612 46.6363 109.472 46.7024 109.345 46.6574C107.634 46.0517 106.164 46.373 104.687 46.7255C104.642 46.7363 104.597 46.747 104.552 46.7578C103.131 47.0979 101.679 47.4455 100.095 46.8503C99.969 46.8029 99.9053 46.6627 99.9529 46.537C100 46.4114 100.141 46.348 100.267 46.3954C101.709 46.937 103.029 46.6218 104.483 46.2744C104.513 46.2672 104.543 46.2599 104.573 46.2527Z" fill="#4A4A49"/>
<path fill-rule="evenodd" clip-rule="evenodd" d="M86.7995 53.1853C86.8137 53.0518 86.9338 52.955 87.0679 52.9691C87.195 52.9825 87.3149 52.9948 87.4281 53.0065C88.0928 53.0747 88.5278 53.1193 88.8536 53.2232C89.271 53.3564 89.5154 53.5854 89.8482 53.9857C90.5532 54.8308 91.1907 54.9993 91.8912 55.1845C92.085 55.2357 92.2836 55.2882 92.4898 55.3567C92.6176 55.3991 92.6868 55.5368 92.6441 55.6642C92.6015 55.7916 92.4633 55.8604 92.3354 55.818C92.1667 55.762 91.9916 55.7162 91.8112 55.6691C91.0904 55.4809 90.2853 55.2706 89.4725 54.2962L89.4723 54.2959C89.1582 53.9182 88.9876 53.7765 88.7047 53.6863C88.4312 53.5991 88.0579 53.5605 87.3805 53.4905C87.2679 53.4789 87.1469 53.4664 87.0165 53.4527C86.8825 53.4385 86.7853 53.3188 86.7995 53.1853Z" fill="#4A4A49"/>
<path fill-rule="evenodd" clip-rule="evenodd" d="M19.1301 52.9669C19.188 52.9675 19.2418 52.9681 19.2905 52.9681C19.4253 52.9681 19.5346 53.0769 19.5346 53.2112C19.5346 53.3454 19.4253 53.4543 19.2905 53.4543C19.2347 53.4543 19.1759 53.4537 19.1144 53.4531C18.7854 53.4499 18.3812 53.446 17.979 53.5249C17.5072 53.6175 17.0789 53.8173 16.8111 54.2354L16.8104 54.2364C16.2168 55.1524 15.2047 55.8368 13.9201 55.8368C13.7853 55.8368 13.676 55.7279 13.676 55.5937C13.676 55.4594 13.7853 55.3506 13.9201 55.3506C15.0154 55.3506 15.8827 54.771 16.3999 53.9733C16.7667 53.401 17.3421 53.1543 17.8847 53.0479C18.341 52.9583 18.803 52.9633 19.1301 52.9669Z" fill="#4A4A49"/>
<path fill-rule="evenodd" clip-rule="evenodd" d="M93.6088 38.6972C93.6088 38.5629 93.7181 38.4541 93.8529 38.4541H95.1588C95.2937 38.4541 95.4029 38.5629 95.4029 38.6972C95.4029 38.8315 95.2937 38.9403 95.1588 38.9403H93.8529C93.7181 38.9403 93.6088 38.8315 93.6088 38.6972Z" fill="#4A4A49"/>
<path fill-rule="evenodd" clip-rule="evenodd" d="M113.308 38.6972C113.308 38.5629 113.417 38.4541 113.552 38.4541H114.858C114.993 38.4541 115.102 38.5629 115.102 38.6972C115.102 38.8315 114.993 38.9403 114.858 38.9403H113.552C113.417 38.9403 113.308 38.8315 113.308 38.6972Z" fill="#4A4A49"/>
<path fill-rule="evenodd" clip-rule="evenodd" d="M104.111 30.6201C104.246 30.6201 104.356 30.729 104.356 30.8632V32.1578C104.356 32.2921 104.246 32.4009 104.111 32.4009C103.977 32.4009 103.867 32.2921 103.867 32.1578V30.8632C103.867 30.729 103.977 30.6201 104.111 30.6201Z" fill="#4A4A49"/>
<path fill-rule="evenodd" clip-rule="evenodd" d="M96.7618 32.8567C96.8661 32.7717 97.0199 32.787 97.1053 32.8909L97.9291 33.8938C98.0145 33.9977 97.9991 34.1508 97.8948 34.2359C97.7905 34.3209 97.6367 34.3056 97.5513 34.2017L96.7274 33.1988C96.6421 33.0949 96.6574 32.9417 96.7618 32.8567Z" fill="#4A4A49"/>
<path fill-rule="evenodd" clip-rule="evenodd" d="M112.364 32.5751C112.459 32.6701 112.459 32.824 112.364 32.9189L111.442 33.8367C111.347 33.9316 111.193 33.9316 111.097 33.8367C111.002 33.7417 111.002 33.5878 111.097 33.4929L112.019 32.5751C112.114 32.4802 112.269 32.4802 112.364 32.5751Z" fill="#4A4A49"/>
<path fill-rule="evenodd" clip-rule="evenodd" d="M118.779 47.826C118.324 47.9096 117.856 47.7913 117.32 47.3737C117.004 47.1284 116.656 47.0525 116.251 47.0695C115.87 47.0855 115.459 47.1814 114.987 47.2913C114.941 47.302 114.894 47.3129 114.847 47.3239C113.803 47.5657 112.544 47.8223 111.122 47.1914C110.998 47.1368 110.943 46.9931 110.998 46.8704C111.053 46.7478 111.197 46.6926 111.32 46.7473C112.583 47.3076 113.701 47.0901 114.736 46.8503C114.785 46.839 114.834 46.8276 114.883 46.8163C115.343 46.7087 115.801 46.6017 116.23 46.5837C116.717 46.5633 117.189 46.6553 117.62 46.9903L117.62 46.9905C118.075 47.3447 118.405 47.4003 118.69 47.3478C118.986 47.2934 119.266 47.1214 119.63 46.8979C119.654 46.8835 119.678 46.869 119.702 46.8542C120.086 46.6186 120.54 46.3529 121.117 46.2306C121.7 46.1072 122.388 46.133 123.247 46.443C123.374 46.4887 123.439 46.6281 123.393 46.7544C123.347 46.8806 123.207 46.9458 123.081 46.9001C122.298 46.6175 121.702 46.6038 121.219 46.7062C120.73 46.8097 120.338 47.0352 119.957 47.2683C119.927 47.2869 119.897 47.3057 119.866 47.3246C119.527 47.5336 119.17 47.7542 118.779 47.826Z" fill="#4A4A49"/>
<path fill-rule="evenodd" clip-rule="evenodd" d="M11.3199 32.2203C10.5855 32.33 9.86219 32.5515 9.27131 32.7967L9.1719 32.838L9.06851 32.8079C6.17478 31.9674 4.82369 32.4865 4.22558 33.2766C3.59796 34.1055 3.65747 35.3957 3.95381 36.3795L4.0332 36.643L3.77773 36.7478C1.76685 37.5725 1.02247 38.644 0.841315 39.5928C0.656013 40.5634 1.0413 41.4962 1.46457 42.0582L1.57263 42.2017L1.49873 42.3653C0.964587 43.5474 0.830416 44.4623 0.934025 45.164C1.03652 45.8582 1.37557 46.3716 1.84751 46.7528C2.81244 47.5324 4.33898 47.7603 5.47908 47.7109L5.62341 47.7046L5.71973 47.8119C6.73186 48.9384 7.6845 49.5613 8.54963 49.8455C9.41081 50.1285 10.2043 50.0824 10.9162 49.8391C12.3568 49.3466 13.4822 48.0366 14.0733 46.9573L14.1374 46.8403L14.2672 46.808C17.1516 46.0898 18.0579 44.9327 18.1803 43.8991C18.3088 42.8151 17.6112 41.6725 16.8716 40.936L16.6948 40.7599L16.8335 40.5526C17.1709 40.0485 17.2922 39.6003 17.2858 39.2095C17.2793 38.8175 17.1437 38.4575 16.9253 38.1323C16.482 37.4724 15.7169 36.987 15.1392 36.7473L14.9142 36.6539L14.956 36.4147C15.1941 35.0508 15.0812 34.1115 14.7821 33.4773C14.4881 32.8541 13.9984 32.4912 13.3963 32.305C12.7847 32.1158 12.0571 32.1102 11.3199 32.2203ZM15.5954 36.2851C15.7953 34.9688 15.686 33.9643 15.3344 33.2189C14.9571 32.4189 14.3179 31.9536 13.5773 31.7245C12.8464 31.4984 12.0178 31.5015 11.2294 31.6193C10.4794 31.7313 9.74694 31.95 9.13643 32.195C6.23512 31.3737 4.56459 31.8193 3.7383 32.9106C2.99717 33.8896 3.04144 35.266 3.29709 36.2914C1.33362 37.1585 0.463435 38.3184 0.241791 39.4793C0.0313556 40.5815 0.420755 41.6114 0.871463 42.2761C0.363489 43.4537 0.209796 44.4366 0.330251 45.2525C0.457239 46.1125 0.884836 46.7578 1.46307 47.2249C2.5536 48.1058 4.17225 48.3509 5.36111 48.3229C6.39036 49.4418 7.39603 50.1065 8.35844 50.4227C9.35476 50.7501 10.2853 50.6974 11.1143 50.4139C12.7005 49.8717 13.897 48.4942 14.5437 47.365C17.4248 46.6201 18.6214 45.3626 18.7864 43.9704C18.9363 42.7052 18.2064 41.4773 17.4719 40.6815C17.7735 40.1662 17.9037 39.6695 17.896 39.1995C17.8872 38.6679 17.7023 38.196 17.4325 37.7944C16.9584 37.0886 16.2079 36.5773 15.5954 36.2851Z" fill="#4A4A49"/>
</g>
<defs>
<clipPath id="clip0_114_1678">
<rect width="124" height="60" fill="white"/>
</clipPath>
</defs>
</svg>
