<svg width="16" height="16" viewBox="0 0 16 16" fill="none" xmlns="http://www.w3.org/2000/svg">
<path d="M1 9.12198L12.86 9.12198L9.23 13.5794C9.06026 13.7882 8.9786 14.0573 9.00298 14.3277C9.02736 14.598 9.15578 14.8474 9.36 15.0209C9.56422 15.1944 9.8275 15.2779 10.0919 15.253C10.3563 15.2281 10.6003 15.0968 10.77 14.888L15.77 8.75393C15.8036 8.70514 15.8337 8.65389 15.86 8.60058C15.86 8.54946 15.86 8.51879 15.93 8.46768C15.9753 8.35046 15.9991 8.22568 16 8.09963C15.9991 7.97359 15.9753 7.84881 15.93 7.73159C15.93 7.68047 15.93 7.6498 15.86 7.59868C15.8337 7.54538 15.8036 7.49412 15.77 7.44533L10.77 1.31127C10.676 1.19586 10.5582 1.10305 10.4252 1.03944C10.2921 0.975829 10.1469 0.942978 10 0.943221C9.76635 0.942755 9.53991 1.02595 9.36 1.17836C9.25874 1.26418 9.17504 1.36959 9.11369 1.48854C9.05234 1.60748 9.01454 1.73764 9.00246 1.87154C8.99039 2.00544 9.00427 2.14047 9.04331 2.26888C9.08236 2.39729 9.1458 2.51656 9.23 2.61987L12.86 7.07729L1 7.07729C0.734783 7.07729 0.480429 7.185 0.292892 7.37673C0.105356 7.56845 0 7.82849 0 8.09963C0 8.37078 0.105356 8.63081 0.292892 8.82254C0.480429 9.01427 0.734783 9.12198 1 9.12198Z" fill="white"/>
</svg>
