<svg width="170" height="90" viewBox="0 0 170 90" fill="none" xmlns="http://www.w3.org/2000/svg">
<path fill-rule="evenodd" clip-rule="evenodd" d="M70.2229 38.5084C77.3268 38.2161 86.1806 38.1457 94.9451 38.584C95.1138 38.5924 95.2437 38.7353 95.2352 38.9032C95.2267 39.0711 95.0831 39.2004 94.9144 39.1919C86.1719 38.7547 77.3371 38.8249 70.2482 39.1166C66.7038 39.2624 63.5977 39.4634 61.1594 39.6838C58.7132 39.905 56.9586 40.1439 56.1046 40.3614L56.1045 40.3614C54.1817 40.8503 48.7929 42.5098 43.0676 44.5624C37.3351 46.6175 31.3057 49.0528 28.0799 51.0888C28.0316 51.1193 27.9756 51.1357 27.9184 51.1361C12.6458 51.2514 4.87322 61.1124 2.63442 66.1247C2.63159 66.1311 2.62853 66.1373 2.62527 66.1435C2.62526 66.1435 2.62525 66.1435 2.62524 66.1435C2.6252 66.1436 2.62515 66.1437 2.6251 66.1438C2.62507 66.1438 2.62504 66.1439 2.62501 66.144C2.62497 66.144 2.62493 66.1441 2.62489 66.1442L2.62461 66.1447C2.62379 66.1463 2.62227 66.1493 2.62014 66.1536C2.61586 66.1622 2.60914 66.176 2.60064 66.1946C2.58362 66.2318 2.55965 66.2878 2.53397 66.3586C2.48225 66.501 2.4255 66.6984 2.40237 66.9209C2.35665 67.361 2.44116 67.88 2.94576 68.2993C3.54645 68.7985 4.75775 69.7628 6.11825 70.7066C7.47301 71.6464 8.94996 72.5474 10.113 72.9612C10.928 73.0539 11.747 73.1074 12.5672 73.1218L12.67 72.6815C12.6912 72.5902 12.7536 72.5137 12.839 72.4743C12.9244 72.4348 13.0233 72.4366 13.1072 72.4793L13.1083 72.4799L13.1149 72.4832C13.1211 72.4862 13.1308 72.491 13.1442 72.4975C13.171 72.5103 13.2121 72.5298 13.2677 72.5549C13.379 72.6053 13.548 72.6788 13.7753 72.7691C14.2297 72.9495 14.9169 73.1972 15.8394 73.4615C17.6828 73.9897 20.4667 74.5849 24.213 74.8444L40.1398 74.8684L40.7521 74.1115C40.8389 74.0042 40.9873 73.9683 41.1139 74.024L43.4382 75.0457H45.5529L64.5983 73.3009C64.7665 73.2855 64.9154 73.4087 64.9309 73.576C64.9463 73.7434 64.8225 73.8916 64.6543 73.907L45.595 75.6531C45.5856 75.654 45.5763 75.6544 45.5669 75.6544H43.3737C43.3311 75.6544 43.289 75.6456 43.2501 75.6284L41.0814 74.6751L40.5243 75.3639C40.4661 75.4358 40.3783 75.4775 40.2856 75.4774L24.2017 75.4531C24.1948 75.4531 24.1879 75.4529 24.181 75.4524C20.3853 75.1902 17.5555 74.5867 15.6702 74.0465C14.7276 73.7764 14.0213 73.5222 13.5485 73.3344C13.4043 73.2771 13.2818 73.226 13.181 73.1825L13.1074 73.4981C13.075 73.637 12.9502 73.7348 12.807 73.7337C11.8717 73.7261 10.9375 73.6689 10.0084 73.5619C9.98579 73.5593 9.96357 73.5542 9.94212 73.5467C8.69006 73.1088 7.1404 72.1577 5.76847 71.206C4.38984 70.2496 3.16419 69.2739 2.55371 68.7666C1.84715 68.1794 1.73427 67.4326 1.79394 66.8583C1.82352 66.5737 1.89516 66.3268 1.95867 66.1518C1.9906 66.0638 2.02094 65.9927 2.04383 65.9426C2.05529 65.9175 2.06493 65.8976 2.07202 65.8834C2.07481 65.8778 2.0772 65.8731 2.07916 65.8692C4.38815 60.708 12.3181 50.6826 27.8264 50.5282C31.1338 48.4612 37.1764 46.0274 42.8603 43.9897C48.5941 41.9341 54.0033 40.2675 55.9529 39.7717C56.8608 39.5405 58.6614 39.2984 61.104 39.0776C63.5545 38.8561 66.6709 38.6545 70.2229 38.5084Z" fill="#4A4A49"/>
<path fill-rule="evenodd" clip-rule="evenodd" d="M97.1356 41.9209C97.2597 42.039 97.26 42.2307 97.1362 42.3491C95.0777 44.3187 93.1904 46.5511 91.816 48.2941C91.1293 49.1649 90.5717 49.9122 90.1861 50.4415C90.0672 50.6046 89.9647 50.747 89.8798 50.8658C89.9564 50.8738 90.0404 50.8826 90.131 50.8923C90.6116 50.9433 91.2783 51.0166 92.023 51.1058C93.5091 51.2837 95.3177 51.5264 96.5755 51.7827C97.5925 51.9899 98.8511 52.4889 100.138 52.9991C100.47 53.1306 100.804 53.263 101.136 53.3913C102.79 54.0304 104.405 54.5715 105.684 54.5533C105.859 54.5508 106.003 54.6831 106.006 54.8495L106.13 60.3108C106.878 65.8978 107.006 71.5445 106.511 77.1571C106.497 77.3238 106.343 77.4475 106.168 77.4335C105.994 77.4195 105.864 77.273 105.879 77.1064C106.37 71.531 106.243 65.9216 105.498 60.3717C105.497 60.3611 105.496 60.3505 105.496 60.3398L105.378 55.1538C104.015 55.0927 102.416 54.5392 100.897 53.9526C100.546 53.8169 100.199 53.6795 99.8593 53.5448C98.5799 53.038 97.3967 52.5693 96.4429 52.375C95.2142 52.1246 93.4295 51.8846 91.9439 51.7067C91.2029 51.6179 90.5392 51.545 90.0608 51.4942C89.8216 51.4688 89.6288 51.449 89.4959 51.4355C89.4295 51.4287 89.378 51.4236 89.3432 51.4201L89.2912 51.415L89.2906 51.4149C89.2905 51.4149 89.2904 51.4149 89.3227 51.1137C89.0572 50.9477 89.0572 50.9477 89.0572 50.9476L89.0574 50.9474L89.0599 50.9437L89.0677 50.9324C89.0745 50.9226 89.0846 50.908 89.0979 50.8889C89.1245 50.8507 89.1639 50.7944 89.2154 50.7214C89.3184 50.5755 89.47 50.363 89.6647 50.0958C90.0541 49.5614 90.6164 48.8079 91.3086 47.93C92.6921 46.1756 94.5991 43.9188 96.6866 41.9215C96.8104 41.8031 97.0114 41.8028 97.1356 41.9209ZM89.3227 51.1137L89.0572 50.9476C88.9965 51.036 88.9884 51.1484 89.0361 51.2439C89.0837 51.3393 89.1803 51.4042 89.2906 51.4149L89.3227 51.1137Z" fill="#4A4A49"/>
<path fill-rule="evenodd" clip-rule="evenodd" d="M27.5928 51.0092C27.6077 50.8423 27.7549 50.7192 27.9214 50.7341C31.1242 51.0218 33.4514 51.4573 34.9816 51.8224C35.7467 52.005 36.3124 52.1699 36.6887 52.2899C36.8768 52.3499 37.0175 52.3987 37.1121 52.4328C37.1506 52.4467 37.1814 52.4581 37.2047 52.4669L37.368 52.4701C37.5095 52.4728 37.7175 52.4768 37.9833 52.4819C38.5149 52.4921 39.2776 52.5065 40.2021 52.5237C42.051 52.558 44.547 52.6034 47.1352 52.6472C52.2857 52.7343 57.7905 52.8153 59.2989 52.7926C67.5021 51.2342 83.7442 50.6722 89.6127 51.0671C89.7795 51.0784 89.9057 51.223 89.8945 51.3901C89.8833 51.5573 89.7389 51.6837 89.5721 51.6724C83.7393 51.2799 67.5219 51.8426 59.3863 53.3934C59.3693 53.3967 59.352 53.3984 59.3347 53.3987C57.8515 53.423 52.2983 53.3413 47.125 53.2537C44.5363 53.2099 42.04 53.1646 40.1908 53.1302C39.2662 53.113 38.5034 53.0986 37.9718 53.0884C37.706 53.0834 37.4979 53.0794 37.3563 53.0766L37.1398 53.0724C37.1397 53.0724 37.1396 53.0724 37.1455 52.7692L37.1398 53.0724C37.103 53.0717 37.0665 53.0643 37.0324 53.0506M37.0324 53.0506L37.0315 53.0502L37.0265 53.0482C37.0217 53.0463 37.0141 53.0434 37.0037 53.0394C36.9829 53.0314 36.9507 53.0194 36.9069 53.0036C36.8194 52.972 36.6859 52.9257 36.5049 52.868C36.1431 52.7526 35.5918 52.5917 34.8412 52.4126C33.3402 52.0544 31.0419 51.6235 27.8673 51.3384C27.7008 51.3234 27.5778 51.176 27.5928 51.0092" fill="#4A4A49"/>
<path fill-rule="evenodd" clip-rule="evenodd" d="M11.8977 57.0255C12.1051 57.8616 12.3057 58.8286 12.4271 59.4641L12.4607 59.6397L11.2061 61.2442L11.1174 61.2803C10.0544 61.7128 8.80622 62.3963 7.74664 62.9823C7.70023 63.008 7.65415 63.0335 7.60846 63.0588C7.13718 63.3196 6.7065 63.5579 6.36042 63.7353C6.17074 63.8325 5.99949 63.9151 5.85655 63.9741C5.73157 64.0257 5.57368 64.0836 5.43571 64.0836C5.2781 64.0836 5.10354 64.0353 4.94953 63.9808C4.7874 63.9235 4.61293 63.8463 4.44424 63.7641C4.10665 63.5996 3.76958 63.4036 3.56018 63.2721L3.93266 62.6225C4.12548 62.7436 4.43999 62.9264 4.74996 63.0774C4.90505 63.153 5.05335 63.2179 5.18132 63.2632C5.31443 63.3102 5.39661 63.3254 5.43332 63.3261C5.43023 63.326 5.43176 63.3256 5.43885 63.3236C5.45538 63.319 5.50215 63.306 5.59084 63.2694C5.70714 63.2214 5.85829 63.1491 6.04191 63.055C6.37731 62.8831 6.79775 62.6504 7.27275 62.3876C7.31746 62.3629 7.36266 62.3379 7.40832 62.3126C8.43227 61.7463 9.67763 61.063 10.7659 60.6109L11.6834 59.4375C11.5621 58.817 11.3817 57.9607 11.1969 57.2158C11.0952 56.8059 10.9941 56.4371 10.9023 56.1619C10.8562 56.0235 10.8154 55.9177 10.7813 55.8453C10.7643 55.809 10.7522 55.7882 10.7459 55.7787C10.7454 55.7779 10.745 55.7773 10.7446 55.7768C10.7492 55.7826 10.7625 55.7974 10.7854 55.8134L11.187 55.1831C11.2606 55.2345 11.3106 55.3014 11.3411 55.3474C11.3748 55.3984 11.4046 55.4549 11.4309 55.5109C11.4836 55.6229 11.5355 55.7613 11.5859 55.9125C11.6873 56.2165 11.7942 56.6084 11.8977 57.0255Z" fill="#4A4A49"/>
<path fill-rule="evenodd" clip-rule="evenodd" d="M75.6425 57.187C75.6832 57.3293 75.6167 57.4804 75.484 57.5468C72.3648 59.108 69.5014 61.1085 67.4151 62.7218C66.3727 63.5279 65.526 64.2359 64.9403 64.7421C64.6475 64.9951 64.4201 65.1976 64.2661 65.3365C64.1892 65.406 64.1306 65.4596 64.0914 65.4957C64.0718 65.5137 64.0571 65.5273 64.0473 65.5364L64.0364 65.5465L64.0338 65.549L64.0332 65.5495L64.0331 65.5496C63.9781 65.6012 63.9061 65.6308 63.8306 65.633L55.8946 65.8638C55.8073 65.8663 55.723 65.8318 55.6625 65.7689L52.5988 62.5779C52.5393 62.5158 52.5084 62.4318 52.5136 62.346C52.5189 62.2602 52.5598 62.1806 52.6265 62.1262L54.8413 60.3221C54.8845 60.2869 54.9364 60.264 54.9917 60.2559L61.5138 59.2986C61.5364 59.2876 61.5659 59.2737 61.6033 59.2572C61.6956 59.2163 61.8361 59.1591 62.0381 59.0885C62.4418 58.9471 63.0937 58.7511 64.1017 58.5235C66.1172 58.0686 69.5656 57.4858 75.3176 56.9647C75.4654 56.9513 75.6018 57.0446 75.6425 57.187ZM61.7608 59.8645C61.7279 59.883 61.6918 59.8953 61.6543 59.9008L55.1659 60.8531L53.2761 62.3925L56.0137 65.2439L63.6968 65.0205C63.7358 64.9848 63.7876 64.9376 63.8517 64.8797C64.0087 64.738 64.2395 64.5326 64.5359 64.2764C65.1286 63.7642 65.984 63.0489 67.0366 62.2349C68.8293 60.8487 71.199 59.1724 73.8209 57.7258C69.01 58.2053 66.0331 58.7193 64.238 59.1245C63.2479 59.348 62.6195 59.5379 62.2426 59.6698C62.0542 59.7357 61.9292 59.787 61.8537 59.8204C61.8159 59.8371 61.7906 59.8493 61.776 59.8566C61.7688 59.8603 61.7641 59.8627 61.762 59.8638C61.7614 59.8641 61.761 59.8643 61.7608 59.8645Z" fill="#4A4A49"/>
<path fill-rule="evenodd" clip-rule="evenodd" d="M87.2205 50.9842C87.2493 51.1492 87.1386 51.3063 86.9732 51.3351C73.9621 53.5987 62.8347 58.3651 59.2007 60.4821C59.0558 60.5665 58.8696 60.5177 58.7849 60.3731C58.7003 60.2284 58.7492 60.0427 58.8942 59.9582C62.595 57.8023 73.7916 53.0126 86.8688 50.7375C87.0342 50.7087 87.1917 50.8191 87.2205 50.9842Z" fill="#4A4A49"/>
<path fill-rule="evenodd" clip-rule="evenodd" d="M10.6805 60.8629C10.6805 60.6756 10.8183 60.5237 10.9882 60.5237C11.1132 60.5237 11.2681 60.5551 11.4252 60.5966C11.5883 60.6396 11.7769 60.7001 11.9781 60.7707C12.3808 60.9121 12.8482 61.0995 13.2901 61.2853C13.7326 61.4714 14.1529 61.6572 14.4624 61.7965C14.6172 61.8661 14.7444 61.9242 14.833 61.9649C14.8747 61.9841 14.9079 61.9994 14.9313 62.0102L23.144 63.0648L27.1832 62.4703C27.228 62.4637 27.2735 62.4681 27.3165 62.483L29.9671 63.4049L45.875 63.2623L53.0544 62.2C53.2228 62.1751 53.3777 62.3054 53.4003 62.4911C53.4229 62.6768 53.3047 62.8476 53.1362 62.8725L45.9378 63.9376C45.925 63.9395 45.9122 63.9405 45.8993 63.9406L29.9234 64.0839C29.8912 64.0842 29.8591 64.0789 29.8284 64.0682L27.1967 63.1529L23.1873 63.743C23.162 63.7467 23.1364 63.747 23.111 63.7437L14.8167 62.6786C14.7877 62.6749 14.7593 62.6666 14.7324 62.6541L14.7236 62.65L14.6974 62.6378C14.6742 62.6271 14.6401 62.6114 14.5964 62.5913C14.5089 62.5511 14.3831 62.4937 14.2298 62.4247C13.9232 62.2867 13.5075 62.1029 13.0708 61.9193C12.6334 61.7354 12.1782 61.5531 11.7913 61.4172C11.5978 61.3493 11.4248 61.2942 11.2818 61.2564C11.1327 61.217 11.0368 61.2022 10.9882 61.2022C10.8183 61.2022 10.6805 61.0503 10.6805 60.8629Z" fill="#4A4A49"/>
<path fill-rule="evenodd" clip-rule="evenodd" d="M89.8813 59.4455C88.4969 60.9684 87.4284 62.7488 86.9479 64.3584C85.9638 67.6547 85.3877 72.2903 85.0583 76.1194C84.8939 78.0304 84.7915 79.734 84.7302 80.9597C84.6996 81.5726 84.6792 82.0658 84.6665 82.4056C84.6601 82.5755 84.6557 82.707 84.6529 82.796C84.6523 82.8146 84.6518 82.8313 84.6513 82.8462L85.414 84.2591C85.4662 84.3559 85.4644 84.4739 85.4092 84.5689C85.3539 84.664 85.2536 84.7219 85.1457 84.7209L81.8708 84.6911C81.7715 84.6902 81.6789 84.6396 81.6228 84.5555L81.6225 84.555L81.6205 84.552L81.6115 84.5387C81.6071 84.5323 81.6014 84.524 81.5945 84.514C81.5884 84.5052 81.5813 84.495 81.5732 84.4835C81.5387 84.4342 81.4859 84.3602 81.4146 84.2636C81.272 84.0703 81.055 83.7864 80.7602 83.4277C80.1705 82.7104 79.2694 81.6943 78.0289 80.5065C75.548 78.131 71.7097 75.0688 66.2892 72.3368C66.2748 72.3295 66.261 72.3211 66.2479 72.3116C66.1931 72.2719 66.0918 72.2235 65.9312 72.1762C65.7747 72.13 65.5792 72.0897 65.3496 72.0568C64.8907 71.991 64.3154 71.9574 63.6829 71.9578C62.9589 71.9581 62.1694 72.0028 61.4061 72.0909C62.3331 72.2889 63.2451 72.5425 64.2711 73.1258C65.8855 74.0438 67.7799 75.7685 70.5872 79.3349C70.6665 79.4356 70.6767 79.576 70.6129 79.6876C69.8596 81.0059 68.4477 82.4346 67.2482 83.5193C66.6443 84.0654 66.0865 84.531 65.6797 84.8602C65.4762 85.0248 65.3103 85.1555 65.195 85.2452C65.1373 85.29 65.0923 85.3246 65.0615 85.3481C65.0462 85.3599 65.0343 85.3689 65.0263 85.375L65.0171 85.3819L65.0147 85.3838L65.014 85.3843L65.0138 85.3844C65.0138 85.3845 65.0137 85.3845 64.834 85.1337C64.8312 85.4449 64.8311 85.4449 64.8309 85.4449L64.5932 85.4425C64.4378 85.441 64.2098 85.4387 63.9189 85.4357C63.337 85.4298 62.5039 85.4211 61.4985 85.4101C59.4877 85.388 56.7877 85.3565 54.0313 85.319C48.5322 85.2442 42.7721 85.1451 41.8518 85.0465C41.5725 85.0165 41.2733 84.9008 40.9744 84.7419C40.6722 84.5812 40.3523 84.3666 40.0282 84.1207C39.38 83.6288 38.6946 82.9962 38.0722 82.376C37.4487 81.7547 36.8829 81.1403 36.4733 80.6816C36.2683 80.4521 36.1022 80.2613 35.9871 80.1276C35.9518 80.0867 35.9214 80.0511 35.8961 80.0215C35.8741 80.0209 35.8496 80.0202 35.8225 80.0195C35.6866 80.0158 35.4865 80.0103 35.2296 80.0027C34.7157 79.9874 33.9742 79.9638 33.0634 79.9304C31.2419 79.8638 28.7426 79.7583 26.032 79.6027C20.6757 79.2953 14.4613 78.7909 11.0346 77.9982C9.12076 78.9298 7.14204 79.8954 5.63338 80.6322C4.86655 81.0068 4.22118 81.3222 3.76752 81.5439L3.05212 81.8937C3.05209 81.8938 3.05193 81.8938 2.9212 81.613C2.81157 81.9032 2.81155 81.9032 2.81152 81.9032L2.80485 81.9005L2.7859 81.8929C2.76936 81.8863 2.74516 81.8766 2.7143 81.8641C2.65258 81.8392 2.56419 81.8033 2.4571 81.7591C2.24307 81.6708 1.95364 81.5493 1.65292 81.4166C1.35292 81.2842 1.03833 81.1393 0.77522 81.0043C0.643817 80.9369 0.521922 80.8703 0.419629 80.8075C0.322602 80.748 0.224165 80.6807 0.153984 80.6098C-0.0717932 80.3816 -0.00474287 80.0918 0.0759226 79.9196C0.158458 79.7434 0.299838 79.5746 0.429645 79.4396C0.564045 79.2998 0.707743 79.1742 0.815935 79.0847C0.837057 79.0672 0.856975 79.051 0.875381 79.0362C0.874598 78.9843 0.873892 78.9211 0.873541 78.8485C0.872505 78.6341 0.874572 78.3371 0.887029 78.0068C0.911517 77.3576 0.977126 76.5403 1.15461 75.9783C1.17934 75.9 1.19658 75.7401 1.19738 75.4801C1.19814 75.2304 1.18433 74.9226 1.16468 74.5693C1.15772 74.4441 1.15004 74.3134 1.1421 74.1784C1.10562 73.5581 1.06366 72.8446 1.06065 72.1314C1.05698 71.2647 1.1102 70.3724 1.30967 69.6204C1.50801 68.8726 1.86739 68.2045 2.52031 67.88C2.67116 67.805 2.85273 67.8696 2.92586 68.0242C2.999 68.1789 2.93599 68.365 2.78515 68.44C2.36297 68.6498 2.07445 69.1089 1.89548 69.7836C1.71764 70.4541 1.66413 71.2798 1.66772 72.1287C1.67066 72.8228 1.71133 73.5151 1.74775 74.1349C1.75579 74.2717 1.76361 74.405 1.77078 74.5339C1.79044 74.8875 1.80528 75.2118 1.80446 75.482C1.80366 75.7418 1.78909 75.9898 1.73218 76.17C1.58315 76.6419 1.51815 77.3816 1.49366 78.0309C1.48163 78.3499 1.47961 78.6376 1.48062 78.8455C1.48112 78.9493 1.48237 79.0331 1.48349 79.0906C1.48405 79.1193 1.48458 79.1415 1.48496 79.1564L1.48541 79.1731L1.48553 79.1771L1.48556 79.178C1.48556 79.178 1.48556 79.178 1.48556 79.178C1.48881 79.2817 1.44144 79.3804 1.35924 79.4409L1.35726 79.4424L1.34905 79.4486C1.34161 79.4542 1.33038 79.4627 1.31598 79.4738C1.28714 79.4962 1.24583 79.5288 1.19712 79.5691C1.09882 79.6504 0.974345 79.7596 0.862041 79.8764C0.745145 79.998 0.661288 80.1076 0.623192 80.189C0.621581 80.1924 0.620118 80.1956 0.61879 80.1986C0.643914 80.2174 0.680577 80.2424 0.731265 80.2735C0.815606 80.3252 0.922766 80.3841 1.04691 80.4478C1.2949 80.575 1.59736 80.7145 1.89295 80.845C2.18783 80.9751 2.47253 81.0947 2.68374 81.1818C2.77426 81.2191 2.85114 81.2505 2.90938 81.274L3.5062 80.9822C3.95991 80.7604 4.60535 80.445 5.37226 80.0704C6.90605 79.3213 8.92577 78.3357 10.8693 77.3897C10.9312 77.3596 11.0012 77.3518 11.0679 77.3677C14.412 78.1602 20.6447 78.6702 26.066 78.9813C28.7714 79.1366 31.2663 79.242 33.0851 79.3085C33.9944 79.3418 34.7345 79.3654 35.2472 79.3806C35.5035 79.3882 35.703 79.3938 35.8384 79.3974C35.906 79.3992 35.9577 79.4005 35.9924 79.4014L36.0439 79.4027L36.0445 79.4027C36.0446 79.4027 36.0447 79.4027 36.0375 79.7138L36.2679 79.5112L36.2684 79.5119L36.2705 79.5144L36.2789 79.5243C36.2864 79.5332 36.2976 79.5465 36.3124 79.5639C36.3419 79.5988 36.3857 79.6502 36.4422 79.7158C36.5552 79.847 36.7189 80.035 36.921 80.2614C37.3256 80.7143 37.8829 81.3195 38.4954 81.9298C39.1089 82.5412 39.7723 83.1523 40.3893 83.6204C40.6978 83.8545 40.9897 84.0489 41.2539 84.1894C41.5214 84.3316 41.7431 84.4091 41.9149 84.4275C42.799 84.5223 48.5142 84.6216 54.0394 84.6968C56.7951 84.7342 59.4945 84.7657 61.505 84.7878C62.5102 84.7988 63.3432 84.8075 63.9249 84.8135C64.2157 84.8164 64.4437 84.8187 64.599 84.8202L64.7347 84.8216C64.749 84.8106 64.7652 84.7981 64.783 84.7843C64.797 84.7735 64.812 84.7619 64.828 84.7494C64.9406 84.6618 65.1034 84.5336 65.3036 84.3717C65.7041 84.0477 66.253 83.5894 66.8466 83.0526C67.9831 82.025 69.256 80.7336 69.9806 79.5558C67.2639 76.126 65.4633 74.5154 63.9766 73.6701C62.8006 73.0014 61.8195 72.8057 60.674 72.5771C60.3466 72.5118 60.0058 72.4438 59.6431 72.3613C59.5042 72.3297 59.4053 72.2034 59.4054 72.0575C59.4054 71.9116 59.5043 71.7853 59.6433 71.7537C60.8712 71.4752 62.3824 71.3361 63.6826 71.3354C64.3332 71.3351 64.9382 71.3694 65.4337 71.4405C65.6814 71.476 65.9067 71.5214 66.0991 71.5781C66.2775 71.6308 66.4447 71.698 66.5766 71.7882C72.0467 74.5479 75.9273 77.6425 78.4433 80.0517C79.7028 81.2577 80.6204 82.292 81.2244 83.0267C81.5264 83.3941 81.75 83.6865 81.8988 83.8881C81.9525 83.9609 81.9965 84.0219 82.0309 84.0702L84.631 84.0939L84.0798 83.0728C84.0535 83.0241 84.0404 82.9691 84.0419 82.9135L84.3454 82.9221C84.0419 82.9135 84.0419 82.9136 84.0419 82.9135L84.042 82.9129L84.042 82.9111L84.0422 82.9044L84.043 82.8781C84.0436 82.855 84.0447 82.8206 84.0461 82.7756C84.049 82.6856 84.0535 82.5529 84.0599 82.3818C84.0727 82.0396 84.0931 81.5437 84.1239 80.9279C84.1855 79.6965 84.2884 77.985 84.4536 76.0648C84.7833 72.2314 85.3633 67.5397 86.3674 64.1763C86.8809 62.4562 88.0058 60.5959 89.4372 59.0212C90.8682 57.4469 92.6291 56.1323 94.4343 55.5323C96.2489 54.9291 98.127 55.0455 99.7238 56.3718C101.304 57.6847 102.557 60.1416 103.241 64.0965C103.271 64.2657 103.161 64.4272 102.995 64.4572C102.83 64.4872 102.673 64.3744 102.644 64.2052C101.971 60.3154 100.758 58.0321 99.3416 56.8554C97.9412 55.6921 96.2904 55.5695 94.6216 56.1242C92.9433 56.6821 91.266 57.9221 89.8813 59.4455ZM36.0375 79.7138L36.2679 79.5112C36.2118 79.4443 36.1305 79.4048 36.0445 79.4027L36.0375 79.7138ZM0.606301 80.2338C0.606179 80.2339 0.606296 80.2327 0.60702 80.2299C0.606785 80.2323 0.606423 80.2337 0.606301 80.2338ZM2.9212 81.613L2.81152 81.9032C2.88948 81.9341 2.97667 81.9307 3.05212 81.8937L2.9212 81.613ZM64.834 85.1337L64.8312 85.4449C64.8968 85.4455 64.9609 85.4242 65.0138 85.3844L64.834 85.1337Z" fill="#4A4A49"/>
<path fill-rule="evenodd" clip-rule="evenodd" d="M3.55681 68.8104C3.58098 68.9891 3.47668 69.1568 3.32384 69.1851C2.90357 69.2628 2.54765 69.4236 2.24399 69.7902C1.93411 70.1643 1.65267 70.7841 1.44332 71.8404C1.4084 72.0167 1.25788 72.1265 1.10714 72.0856C0.956392 72.0448 0.862503 71.8688 0.897429 71.6926C1.11896 70.5748 1.43359 69.8269 1.84145 69.3345C2.25553 68.8345 2.73902 68.63 3.23631 68.538C3.38915 68.5097 3.53264 68.6317 3.55681 68.8104Z" fill="#4A4A49"/>
<path fill-rule="evenodd" clip-rule="evenodd" d="M2.6907 69.4271C2.85615 69.404 3.00974 69.5142 3.03377 69.6731C3.19051 70.7101 3.54036 72.1526 3.8538 73.3441C4.01005 73.938 4.15641 74.4665 4.26371 74.8464C4.31735 75.0364 4.36121 75.1891 4.39163 75.2943C4.40684 75.3469 4.41868 75.3876 4.42671 75.4151L4.43886 75.4565C4.43886 75.4565 4.4389 75.4567 4.14764 75.5359L4.43886 75.4565C4.44933 75.4921 4.4527 75.5293 4.44872 75.566L4.16893 78.1475C4.15642 78.2629 4.07371 78.3601 3.95848 78.3948L1.28356 79.2012C1.12404 79.2493 0.954158 79.1641 0.904104 79.0108C0.85405 78.8576 0.942783 78.6944 1.10229 78.6463L3.58738 77.8971L3.84057 75.5611C3.83259 75.5338 3.82174 75.4965 3.80831 75.45C3.7776 75.3438 3.73342 75.1899 3.67942 74.9987C3.57145 74.6164 3.42415 74.0846 3.26684 73.4866C2.95315 72.2941 2.59628 70.8261 2.43464 69.7567C2.41061 69.5978 2.52526 69.4502 2.6907 69.4271Z" fill="#4A4A49"/>
<path fill-rule="evenodd" clip-rule="evenodd" d="M12.2925 73.8906C12.419 73.9492 12.4893 74.1474 12.4495 74.3333L12.2204 74.2274C12.4495 74.3333 12.4495 74.3333 12.4495 74.3333L12.4489 74.3361L12.4474 74.3431L12.4417 74.3693C12.4367 74.392 12.4294 74.4251 12.4198 74.4673C12.4008 74.5517 12.3729 74.6726 12.3374 74.8199C12.2665 75.1141 12.1647 75.5156 12.0415 75.9429C11.9186 76.3692 11.7725 76.8273 11.6126 77.2325C11.4556 77.6302 11.2731 78.0088 11.071 78.2469C10.9675 78.3689 10.8163 78.3444 10.7333 78.1923C10.6504 78.0402 10.667 77.818 10.7705 77.696C10.9014 77.5418 11.0479 77.2562 11.197 76.8782C11.3432 76.5079 11.4805 76.079 11.5992 75.6674C11.7176 75.2568 11.8158 74.8693 11.8845 74.5842C11.9189 74.4418 11.9457 74.3254 11.9639 74.2449C11.973 74.2046 11.9799 74.1734 11.9845 74.1524L11.9897 74.1287L11.9909 74.123L11.9912 74.1217C11.9912 74.1217 11.9912 74.1214 11.9912 74.1214C12.0311 73.9354 12.1659 73.8321 12.2925 73.8906Z" fill="#4A4A49"/>
<path fill-rule="evenodd" clip-rule="evenodd" d="M40.313 74.8091C40.4587 74.898 40.506 75.0904 40.4186 75.2388C39.8868 76.1421 39.2662 77.0845 38.7799 77.7993C38.6537 77.9848 38.5364 78.1553 38.4318 78.306C38.8371 78.2025 39.3689 78.0686 39.9725 77.9218C41.3336 77.5906 43.0644 77.1921 44.5313 76.9259C44.6347 76.9071 44.7404 76.9434 44.8116 77.0222C45.9921 78.3293 47.9996 79.5365 50.2203 80.4446C52.4365 81.3508 54.8257 81.9432 56.7433 82.0458L56.7454 82.046C60.8629 82.296 64.9947 82.0879 69.068 81.4253C69.2357 81.398 69.3934 81.5144 69.4202 81.6852C69.447 81.8561 69.3327 82.0167 69.165 82.044C65.0479 82.7137 60.8716 82.924 56.7099 82.6714C54.7094 82.5642 52.2534 81.9511 49.9912 81.026C47.801 80.1304 45.7554 78.9273 44.4756 77.5727C43.0623 77.8351 41.4224 78.2132 40.1154 78.5311C39.4372 78.6961 38.8499 78.8447 38.4323 78.9519C38.2234 79.0055 38.0571 79.0488 37.943 79.0787C37.8859 79.0936 37.8419 79.1052 37.8123 79.113L37.7676 79.1248C37.7675 79.1248 37.7674 79.1249 37.6897 78.8218L37.442 78.6361L37.4459 78.6308L37.4576 78.6144C37.4681 78.5999 37.4836 78.5783 37.5037 78.55C37.544 78.4936 37.6029 78.4108 37.6769 78.3058C37.8249 78.0957 38.0332 77.7969 38.2744 77.4424C38.7573 76.7326 39.3693 75.803 39.8911 74.9166C39.9785 74.7682 40.1674 74.7201 40.313 74.8091ZM37.6897 78.8218L37.442 78.6361C37.3648 78.743 37.3621 78.8878 37.4352 78.9976C37.5083 79.1074 37.6415 79.1583 37.7676 79.1248L37.6897 78.8218Z" fill="#4A4A49"/>
<path fill-rule="evenodd" clip-rule="evenodd" d="M2.67155 81.3315C2.68751 81.127 2.83676 80.9769 3.00493 80.9963C5.26326 81.2568 7.53605 81.2754 9.79713 81.0522C9.81885 81.05 9.84069 81.0507 9.8623 81.0542L9.82187 81.4229C9.8623 81.0542 9.86216 81.0542 9.8623 81.0542L9.91781 81.0632C9.9547 81.0691 10.0097 81.0779 10.0819 81.0893C10.2264 81.1122 10.44 81.1457 10.7159 81.1882C11.2677 81.2732 12.069 81.3943 13.0664 81.5383C15.0612 81.8262 17.8398 82.2057 20.9749 82.5719C27.2494 83.3049 34.9366 83.983 40.6272 83.7718C40.7961 83.7656 40.9371 83.9269 40.9423 84.1323C40.9474 84.3376 40.8147 84.5091 40.6459 84.5154C34.9138 84.7281 27.1936 84.0457 20.9164 83.3124C17.7757 82.9455 14.9925 82.5654 12.9943 82.277C11.9952 82.1328 11.1923 82.0115 10.639 81.9262C10.3623 81.8836 10.1481 81.8499 10.003 81.827C9.93038 81.8155 9.87508 81.8066 9.83788 81.8007L9.81401 81.7968C7.52802 82.0202 5.23034 82.0003 2.94716 81.7369C2.77899 81.7175 2.6556 81.536 2.67155 81.3315Z" fill="#4A4A49"/>
<path fill-rule="evenodd" clip-rule="evenodd" d="M85.4352 64.3193C85.4774 64.4874 85.3799 64.659 85.2174 64.7026C82.7157 65.3742 76.3816 66.7478 70.6835 67.9516C67.8322 68.554 65.1367 69.1145 63.1541 69.5244C62.1628 69.7294 61.3496 69.8967 60.7843 70.0128C60.5016 70.0709 60.2809 70.1161 60.1309 70.1468L59.9016 70.1937C59.9015 70.1938 59.9014 70.1938 59.8425 69.8853C59.8707 70.1984 59.8706 70.1984 59.8705 70.1984L59.1221 70.2706C58.645 70.3168 57.9621 70.3829 57.1393 70.4627C55.4937 70.6225 53.2884 70.8374 51.0495 71.058C46.5606 71.5003 41.9651 71.963 41.4397 72.0522C40.8475 72.1527 39.9466 72.0554 39.2294 71.9448C38.8632 71.8884 38.5317 71.8262 38.2918 71.7782C38.1718 71.7542 38.0745 71.7337 38.0069 71.7191C37.9731 71.7118 37.9468 71.706 37.9288 71.702L37.9081 71.6974L37.9011 71.6958L37.9007 71.6957C37.9007 71.6957 37.9005 71.6956 37.966 71.3886L37.9007 71.6957C37.7754 71.6671 37.6808 71.5601 37.6646 71.4285C37.6483 71.2969 37.7137 71.1688 37.8279 71.1085C37.9653 71.036 38.0992 70.9571 38.2292 70.8721C33.114 71.1976 21.9662 71.3663 18.8765 71.2066C16.0983 71.063 13.0867 70.3051 10.4665 69.5559C10.5038 69.5834 10.5387 69.609 10.5705 69.6323C10.6296 69.6756 10.6779 69.7107 10.7114 69.735L10.75 69.763L10.7631 69.7724C10.8754 69.8533 10.9218 70.0021 10.8761 70.1356C10.8304 70.2691 10.704 70.3545 10.5675 70.3442L6.12099 70.0085C6.08234 70.0056 6.04459 69.995 6.00977 69.9774L6.14312 69.6949C6.00977 69.9774 6.00982 69.9775 6.00977 69.9774L6.00702 69.976L5.99985 69.9724L5.97273 69.9585C5.94913 69.9463 5.91469 69.9285 5.87069 69.9053C5.7827 69.8591 5.65638 69.7916 5.50196 69.7063C5.19335 69.5358 4.77131 69.2934 4.31802 69.0058C3.42684 68.4405 2.36078 67.668 1.8362 66.9028C1.73909 66.7611 1.77137 66.5648 1.90829 66.4644C2.04521 66.3639 2.23493 66.3973 2.33204 66.5389C2.77619 67.1868 3.73963 67.9013 4.63577 68.4697C5.07613 68.7491 5.48721 68.9852 5.7883 69.1515C5.93873 69.2346 6.0614 69.3002 6.14619 69.3448C6.17784 69.3614 6.20421 69.3751 6.22475 69.3858L9.53858 69.636C9.25545 69.4184 8.96743 69.1877 8.81307 69.0356C8.71178 68.9358 8.6894 68.7774 8.75886 68.6518C8.82833 68.5262 8.97168 68.4658 9.10618 68.5056C12.0443 69.374 15.6511 70.4102 18.9068 70.5785C22.1886 70.7481 34.7229 70.543 39.1793 70.1732C39.3079 70.1625 39.429 70.237 39.4814 70.359C39.5338 70.481 39.506 70.6239 39.412 70.7155C39.219 70.9036 39.0137 71.0773 38.7977 71.2352C38.9572 71.2641 39.1336 71.2943 39.3189 71.3228C40.0445 71.4346 40.8558 71.514 41.3413 71.4316C41.8936 71.3379 46.5242 70.8722 50.9918 70.432C53.2312 70.2113 55.4368 69.9964 57.0825 69.8366C57.9054 69.7567 58.5884 69.6906 59.0656 69.6445L59.7644 69.577L59.7984 69.5738L60.0129 69.5299C60.1628 69.4992 60.3834 69.454 60.666 69.396C61.231 69.2799 62.0439 69.1127 63.0349 68.9078C65.017 68.4979 67.7116 67.9376 70.5619 67.3354C76.2671 66.1302 82.5822 64.7603 85.0647 64.0939C85.2272 64.0503 85.3931 64.1512 85.4352 64.3193ZM59.8425 69.8853L59.8705 70.1984C59.8808 70.1974 59.8915 70.1958 59.9016 70.1937L59.8425 69.8853Z" fill="#4A4A49"/>
<path fill-rule="evenodd" clip-rule="evenodd" d="M80.5664 66.7709C80.7315 66.7184 80.9145 66.7918 80.9751 66.9349C81.0357 67.078 80.9509 67.2366 80.7858 67.2891L80.6761 67.03L80.5664 66.7709ZM74.5268 69.3023C71.2274 70.3741 67.6152 71.5676 66.3118 72.0703C66.1511 72.1323 65.9629 72.0696 65.8914 71.9303C65.8199 71.7911 65.8921 71.6279 66.0528 71.5659C67.3782 71.0547 71.0129 69.8542 74.3032 68.7854C75.9512 68.25 77.517 67.7464 78.6707 67.3767C79.2476 67.1918 79.7214 67.0404 80.0511 66.9351C80.216 66.8825 80.3448 66.8415 80.4324 66.8136L80.5664 66.7709C80.5665 66.7708 80.5664 66.7709 80.6761 67.03C80.7858 67.2891 80.7859 67.2891 80.7858 67.2891L80.6521 67.3317C80.5646 67.3596 80.4359 67.4006 80.2712 67.4532C79.9417 67.5583 79.4681 67.7097 78.8916 67.8945C77.7384 68.264 76.1736 68.7674 74.5268 69.3023Z" fill="#4A4A49"/>
<path fill-rule="evenodd" clip-rule="evenodd" d="M37.5388 71.2471C37.6912 71.1611 37.8884 71.2082 37.9793 71.3522C38.8191 72.683 39.8792 73.6981 40.7834 74.1984C40.9365 74.2831 40.988 74.4691 40.8984 74.6139C40.8088 74.7587 40.6121 74.8074 40.4589 74.7227C39.4384 74.158 38.3077 73.0579 37.4276 71.6635C37.3367 71.5195 37.3865 71.333 37.5388 71.2471Z" fill="#4A4A49"/>
<path fill-rule="evenodd" clip-rule="evenodd" d="M67.2539 62.3157C67.4145 62.2706 67.5835 62.3569 67.6313 62.5084C67.679 62.6599 67.5876 62.8193 67.4269 62.8643L67.3404 62.59L67.2539 62.3157ZM64.1198 63.8745C62.3172 64.4631 60.2756 65.2008 59.2059 65.8214C59.0631 65.9043 58.8762 65.8623 58.7884 65.7276C58.7006 65.593 58.7452 65.4167 58.8879 65.3339C60.0234 64.6751 62.1285 63.9189 63.9213 63.3336C64.8235 63.039 65.6562 62.7846 66.2633 62.604C66.5669 62.5136 66.8143 62.4416 66.9858 62.3922C67.0716 62.3675 67.1385 62.3484 67.184 62.3354L67.2359 62.3207L67.2539 62.3157C67.2539 62.3156 67.2539 62.3157 67.3404 62.59C67.4269 62.8643 67.4269 62.8643 67.4269 62.8643L67.4099 62.8691L67.359 62.8836C67.3142 62.8963 67.2481 62.9152 67.1631 62.9396C66.9931 62.9886 66.7476 63.0601 66.446 63.1499C65.8426 63.3294 65.0154 63.5821 64.1198 63.8745Z" fill="#4A4A49"/>
<path fill-rule="evenodd" clip-rule="evenodd" d="M63.0003 60.531C63.1337 60.5671 63.2176 60.7267 63.1877 60.8876C63.008 61.8528 62.8778 62.8302 62.7979 63.8145C62.7845 63.9785 62.6634 64.0985 62.5273 64.0824C62.3911 64.0664 62.2916 63.9204 62.3049 63.7563C62.3868 62.7477 62.5202 61.746 62.7044 60.7569C62.7344 60.596 62.8668 60.4949 63.0003 60.531Z" fill="#4A4A49"/>
<path fill-rule="evenodd" clip-rule="evenodd" d="M68.7497 59.643C68.9039 59.6026 69.0616 59.6952 69.1019 59.85L69.4146 61.0505C69.455 61.2053 69.3627 61.3637 69.2085 61.4041C69.0543 61.4446 68.8966 61.352 68.8563 61.1972L68.5435 59.9967C68.5032 59.8419 68.5955 59.6835 68.7497 59.643Z" fill="#4A4A49"/>
<path fill-rule="evenodd" clip-rule="evenodd" d="M7.82197 58.7649C7.97478 58.8272 8.04987 59.0061 7.98968 59.1644L7.98895 59.1663L7.9865 59.1728L7.97668 59.1989C7.96801 59.2221 7.95522 59.2565 7.93889 59.301C7.90623 59.39 7.85947 59.5192 7.80338 59.6791C7.69114 59.9992 7.54189 60.4414 7.39368 60.9306C7.09248 61.9247 6.81238 63.0601 6.82554 63.7698C6.82869 63.9399 6.69813 64.0804 6.53392 64.0837C6.36971 64.0869 6.23404 63.9517 6.23089 63.7816C6.21561 62.9575 6.5279 61.7308 6.8262 60.7462C6.97773 60.2461 7.13001 59.7949 7.24436 59.4688C7.30156 59.3057 7.34936 59.1736 7.38294 59.0821C7.39973 59.0364 7.41298 59.0008 7.42207 58.9764L7.43252 58.9486L7.43527 58.9413L7.43621 58.9389C7.43622 58.9388 7.4363 58.9386 7.71299 59.0515L7.4363 58.9386C7.49648 58.7804 7.66915 58.7026 7.82197 58.7649Z" fill="#4A4A49"/>
<path fill-rule="evenodd" clip-rule="evenodd" d="M77.4397 79.4747C77.4717 79.3038 77.6465 79.1895 77.83 79.2193C79.5429 79.4978 81.3493 79.5072 82.7341 79.4455C83.425 79.4148 84.0077 79.3664 84.4171 79.3259C84.6218 79.3056 84.783 79.2873 84.8925 79.2741C84.9473 79.2675 84.9891 79.2622 85.017 79.2585C85.031 79.2567 85.0415 79.2553 85.0483 79.2544L85.0559 79.2534L85.0579 79.2531C85.2422 79.2276 85.4138 79.3459 85.4413 79.5174C85.4688 79.689 85.3417 79.8488 85.1574 79.8744L85.1076 79.5637C85.1574 79.8744 85.1575 79.8744 85.1574 79.8744L85.1538 79.8749L85.1447 79.8761C85.1368 79.8772 85.1253 79.8787 85.1103 79.8806C85.0802 79.8845 85.0361 79.8901 84.979 79.897C84.8649 79.9107 84.6986 79.9296 84.4886 79.9504C84.0685 79.9921 83.4726 80.0415 82.7664 80.0729C81.3569 80.1357 79.4955 80.1277 77.7139 79.8381C77.5304 79.8082 77.4076 79.6455 77.4397 79.4747Z" fill="#4A4A49"/>
<path fill-rule="evenodd" clip-rule="evenodd" d="M98.4136 62.0521C95.4202 60.2174 91.866 59.9199 89.1444 60.5286C88.9804 60.5653 88.8177 60.4619 88.7811 60.2978C88.7444 60.1337 88.8477 59.9709 89.0117 59.9342C91.8665 59.2958 95.5859 59.6049 98.7314 61.5327C101.891 63.469 104.439 67.019 104.966 72.7936C105.497 78.6116 102.461 83.3108 98.2766 85.6367C94.0921 87.9627 88.7373 87.924 84.6558 84.2472C84.5309 84.1347 84.5208 83.9422 84.6332 83.8172C84.7456 83.6922 84.938 83.6821 85.0629 83.7946C88.9241 87.2729 93.9901 87.3228 97.9811 85.1044C101.972 82.8859 104.867 78.4078 104.36 72.849C103.849 67.2469 101.393 63.8784 98.4136 62.0521Z" fill="#4A4A49"/>
<path fill-rule="evenodd" clip-rule="evenodd" d="M91.0637 58.1395C91.0769 57.969 91.2268 57.8413 91.3985 57.8544C94.6795 58.1051 98.1742 59.2179 101.022 61.6649C103.875 64.1159 106.054 67.8842 106.733 73.3976C106.733 73.4004 106.734 73.4032 106.734 73.406C107.652 83.0173 99.6695 89.7565 92.6652 89.893C87.0914 90.0023 83.525 86.3223 82.2066 84.9618C82.1194 84.8719 82.0421 84.7921 81.9746 84.7242C81.8537 84.6024 81.855 84.4063 81.9776 84.2862C82.1002 84.166 82.2976 84.1674 82.4185 84.2891C82.4872 84.3583 82.5648 84.4381 82.6512 84.5271C83.9726 85.8873 87.3632 89.3774 92.6529 89.2737L92.653 89.2737C99.3277 89.1436 106.991 82.686 106.113 73.4686C105.45 68.0906 103.335 64.4711 100.614 62.1335C97.8883 59.7913 94.5295 58.715 91.3507 58.4721C91.179 58.459 91.0505 58.3101 91.0637 58.1395Z" fill="#4A4A49"/>
<path fill-rule="evenodd" clip-rule="evenodd" d="M109.925 37.3854C109.976 37.3778 110.027 37.3833 110.075 37.4013L109.97 37.6847L109.925 37.3854ZM112.625 40.7321L112.913 40.816C112.9 40.8612 112.877 40.9028 112.845 40.9373L112.625 40.7321ZM112.354 40.5794C112.361 40.5491 112.37 40.5097 112.379 40.4633C112.402 40.3437 112.427 40.1809 112.434 40.0051C112.45 39.629 112.383 39.3005 112.189 39.1304C111.923 38.8971 111.361 38.6091 110.827 38.3691C110.568 38.2523 110.326 38.1518 110.15 38.0805C110.062 38.0449 109.99 38.0166 109.941 37.9973C109.94 37.997 109.939 37.9967 109.938 37.9963C109.923 37.999 109.905 38.002 109.885 38.0055C109.797 38.0208 109.666 38.0448 109.495 38.0791C109.151 38.1478 108.646 38.2578 108 38.4228C106.722 38.749 104.897 39.2899 102.696 40.1499C101.553 41.6441 101.218 43.5021 101.18 45.0203C101.16 45.787 101.216 46.458 101.277 46.9369C101.297 47.0876 101.316 47.219 101.334 47.3281C105.425 45.4772 108.18 43.7899 109.919 42.5591C110.813 41.9265 111.438 41.4144 111.838 41.0625C112.037 40.8866 112.181 40.7506 112.274 40.6597C112.307 40.6271 112.334 40.6002 112.354 40.5794ZM101.11 47.7601L100.818 47.8284C100.838 47.9163 100.896 47.9905 100.976 48.0308C101.056 48.0711 101.149 48.0733 101.231 48.0368C105.546 46.1102 108.442 44.3437 110.264 43.0545C111.174 42.4098 111.816 41.8846 112.232 41.5185C112.44 41.3354 112.591 41.1922 112.692 41.0936C112.742 41.0444 112.78 41.0063 112.805 40.9801C112.818 40.9669 112.827 40.9568 112.834 40.9496L112.842 40.9412L112.844 40.9387L112.845 40.9376C112.845 40.9375 112.845 40.9373 112.625 40.7321C112.913 40.816 112.913 40.8161 112.913 40.816L112.913 40.8152L112.914 40.8138L112.915 40.8098C112.916 40.8064 112.917 40.8018 112.919 40.7961C112.922 40.7846 112.926 40.7685 112.931 40.7481C112.941 40.7075 112.954 40.65 112.968 40.5797C112.995 40.4398 113.025 40.2455 113.034 40.0307C113.051 39.6256 112.999 39.0391 112.583 38.674C112.239 38.3721 111.594 38.0513 111.072 37.8164C110.803 37.6956 110.555 37.5921 110.373 37.5188C110.282 37.4821 110.208 37.4529 110.157 37.4327C110.131 37.4227 110.111 37.4149 110.097 37.4096L110.081 37.4035L110.075 37.4013C110.075 37.4013 110.075 37.4013 109.97 37.6847C109.925 37.3854 109.925 37.3854 109.925 37.3854L109.925 37.3855L109.922 37.3859L109.915 37.387C109.909 37.388 109.899 37.3895 109.888 37.3914C109.864 37.3953 109.828 37.4012 109.782 37.4092C109.69 37.4254 109.555 37.4502 109.378 37.4855C109.025 37.5561 108.509 37.6684 107.852 37.8362C106.539 38.1716 104.662 38.7286 102.402 39.616C102.352 39.6354 102.308 39.6679 102.275 39.7099C100.978 41.361 100.621 43.4025 100.58 45.0047C100.559 45.8091 100.618 46.5119 100.682 47.014C100.714 47.2653 100.748 47.467 100.773 47.6067C100.786 47.6766 100.797 47.731 100.805 47.7684C100.809 47.7872 100.812 47.8017 100.814 47.8117L100.817 47.8234L100.817 47.8268L100.818 47.8281C100.818 47.8283 100.818 47.8284 101.11 47.7601Z" fill="#4A4A49"/>
<path fill-rule="evenodd" clip-rule="evenodd" d="M109.422 45.8143L109.175 45.661C109.422 45.8143 109.422 45.8143 109.422 45.8143L109.421 45.8158L109.418 45.8195L109.408 45.8329C109.398 45.8445 109.385 45.8613 109.368 45.8828C109.333 45.9257 109.282 45.9872 109.219 46.0624C109.092 46.2126 108.912 46.4183 108.701 46.6404C108.286 47.0762 107.72 47.6059 107.18 47.8825C106.904 48.0243 106.646 48.0878 106.41 48.0537C106.164 48.0179 106.002 47.8844 105.905 47.7482C105.827 47.6391 105.784 47.5213 105.759 47.4276C105.756 47.4273 105.752 47.427 105.749 47.4267C105.59 47.4133 105.357 47.3949 105.062 47.3751C104.472 47.3356 103.635 47.2904 102.65 47.2681C102.484 47.2643 102.352 47.1411 102.356 46.9929C102.36 46.8447 102.499 46.7277 102.666 46.7315C103.662 46.754 104.509 46.7998 105.107 46.8399C105.406 46.8599 105.643 46.8786 105.806 46.8923C105.887 46.8991 105.95 46.9047 105.992 46.9086C106.013 46.9106 106.03 46.9121 106.041 46.9131L106.053 46.9143L106.058 46.9148C106.058 46.9148 106.058 46.9148 106.025 47.1816L106.058 46.9148C106.208 46.9296 106.322 47.0405 106.326 47.1744C106.326 47.1744 106.326 47.1744 106.326 47.1744C106.326 47.1747 106.326 47.1751 106.326 47.1754C106.326 47.1754 106.326 47.1754 106.326 47.1754L106.326 47.1744L106.327 47.1782C106.327 47.1822 106.327 47.1891 106.328 47.1984C106.33 47.2171 106.334 47.2443 106.34 47.2758C106.354 47.3429 106.379 47.4109 106.414 47.4602C106.445 47.5039 106.474 47.519 106.507 47.5239C106.552 47.5304 106.666 47.5268 106.879 47.4173C107.32 47.1914 107.828 46.7266 108.24 46.2935C108.359 46.1682 108.468 46.0482 108.562 45.9412L105.495 45.9999C105.328 46.0031 105.19 45.8855 105.187 45.7373C105.183 45.5891 105.315 45.4664 105.482 45.4632L109.168 45.3926C109.282 45.3905 109.387 45.4452 109.441 45.5342C109.494 45.6232 109.487 45.7315 109.422 45.8143Z" fill="#4A4A49"/>
<path fill-rule="evenodd" clip-rule="evenodd" d="M108.849 42.7259C109.016 42.701 109.171 42.8223 109.195 42.997L109.473 45.0282C109.497 45.2028 109.381 45.3646 109.214 45.3896C109.046 45.4145 108.891 45.2932 108.868 45.1185L108.59 43.0873C108.566 42.9127 108.682 42.7509 108.849 42.7259Z" fill="#4A4A49"/>
<path fill-rule="evenodd" clip-rule="evenodd" d="M130.644 2.17939C132.83 1.89625 135.475 1.65512 137.202 1.85143C137.354 1.86865 137.47 1.99554 137.473 2.14859C137.488 2.77012 137.281 3.62812 137.086 4.30113C136.986 4.64401 136.886 4.95032 136.81 5.17087C136.772 5.28124 136.741 5.37037 136.719 5.43215C136.713 5.44755 136.708 5.46126 136.704 5.47317L136.742 7.24389L143.333 21.8132L146.714 23.9195C146.784 23.9631 146.834 24.0333 146.852 24.1141C146.869 24.1949 146.854 24.2795 146.808 24.3485L146.553 24.1798C146.808 24.3485 146.808 24.3487 146.808 24.349L146.738 24.4551C146.692 24.5254 146.623 24.6298 146.533 24.7661C146.354 25.0387 146.09 25.439 145.753 25.9501C145.078 26.9721 144.109 28.437 142.934 30.2084C140.584 33.751 137.406 38.5195 134.096 43.4231C130.786 48.3263 127.344 53.3657 124.466 57.4496C121.595 61.5221 119.266 64.6719 118.192 65.7719C118.132 65.8342 118.047 65.8675 117.96 65.8634C117.874 65.8594 117.793 65.8184 117.738 65.7506C116.203 63.8549 113.315 61.8647 110.776 60.3364C109.513 59.5759 108.348 58.9359 107.498 58.486C107.073 58.2611 106.727 58.0839 106.488 57.963C106.368 57.9026 106.275 57.8563 106.212 57.8251C106.181 57.8095 106.157 57.7977 106.141 57.7899L106.123 57.7811L106.118 57.7784L106.117 57.7783C106.117 57.7783 106.117 57.7783 106.25 57.5026C105.948 57.5476 105.948 57.5476 105.948 57.5475L105.935 57.4587C105.926 57.4004 105.914 57.3147 105.897 57.205C105.864 56.9856 105.815 56.6705 105.755 56.2877C105.636 55.5221 105.469 54.4864 105.283 53.4053C105.097 52.3236 104.891 51.1989 104.693 50.2546C104.492 49.2979 104.305 48.5597 104.161 48.2274C104.125 48.143 104.128 48.0465 104.17 47.9647C104.273 47.7652 104.413 47.5354 104.525 47.3598C104.581 47.2711 104.631 47.1943 104.668 47.1397C104.686 47.1123 104.7 47.0905 104.71 47.0753L104.722 47.0578L104.726 47.0515C104.726 47.0515 104.727 47.0513 104.979 47.2241L104.726 47.0515C104.821 46.9118 105.011 46.8757 105.151 46.9711C105.29 47.0665 105.326 47.2571 105.231 47.3968L105.23 47.3979L105.227 47.4019L105.216 47.4179C105.207 47.432 105.193 47.4527 105.176 47.4788C105.141 47.531 105.093 47.6045 105.039 47.6894C104.954 47.8227 104.858 47.9797 104.777 48.1247C104.937 48.5561 105.113 49.2863 105.29 50.1282C105.491 51.0832 105.698 52.2163 105.884 53.3009C106.071 54.3861 106.238 55.4251 106.358 56.1926C106.418 56.5765 106.467 56.8925 106.5 57.1127C106.511 57.1854 106.521 57.2477 106.528 57.2984C106.589 57.3285 106.667 57.3678 106.762 57.4158C107.005 57.5382 107.354 57.7172 107.782 57.9441C108.639 58.3977 109.815 59.0433 111.09 59.811C113.515 61.2708 116.336 63.1949 117.987 65.0967C119.106 63.8559 121.283 60.9049 123.968 57.0957C126.842 53.0169 130.282 47.9814 133.591 43.0794C136.899 38.1777 140.076 33.4105 142.426 29.8687C143.601 28.0979 144.569 26.6334 145.244 25.6116C145.581 25.1008 145.845 24.7006 146.024 24.4281C146.062 24.3711 146.096 24.3196 146.126 24.2739L142.933 22.2848C142.881 22.2529 142.841 22.2064 142.816 22.1512L136.161 7.44004C136.144 7.40232 136.135 7.36152 136.134 7.3201L136.092 5.42842C136.091 5.38934 136.098 5.35045 136.112 5.31386L136.114 5.30858L136.12 5.29144C136.126 5.27619 136.134 5.25342 136.145 5.2239C136.166 5.16484 136.196 5.0788 136.233 4.97186C136.306 4.75778 136.404 4.46089 136.5 4.12948C136.664 3.56353 136.817 2.92784 136.855 2.43313C135.207 2.29872 132.793 2.51884 130.722 2.78701C129.632 2.92817 128.647 3.08129 127.934 3.19915C127.578 3.25807 127.29 3.30813 127.091 3.34344C127.03 3.35422 126.978 3.36361 126.935 3.37147L110.325 37.7383C110.252 37.8905 110.069 37.954 109.917 37.8802C109.766 37.8064 109.702 37.6231 109.776 37.4709L126.453 2.96428C126.495 2.87684 126.576 2.81472 126.672 2.79688L126.728 3.098C126.672 2.79688 126.672 2.79689 126.672 2.79688L126.693 2.79296C126.706 2.79042 126.727 2.78668 126.753 2.78183C126.806 2.77213 126.884 2.75799 126.985 2.74015C127.186 2.70447 127.476 2.65399 127.835 2.59463C128.553 2.47596 129.546 2.32169 130.644 2.17939ZM106.25 57.5026L105.948 57.5475C105.963 57.6477 106.026 57.7341 106.117 57.7783L106.25 57.5026Z" fill="#4A4A49"/>
<path fill-rule="evenodd" clip-rule="evenodd" d="M122.784 9.15174C122.871 9.11539 122.947 9.06369 123.01 9.01426C123.125 8.92347 123.239 8.80407 123.349 8.67713C123.505 8.49573 123.675 8.27125 123.844 8.04883C123.908 7.96328 123.973 7.87803 124.036 7.79566C124.274 7.48724 124.501 7.21253 124.712 7.03219C124.939 6.83767 125.051 6.83432 125.094 6.84903C125.254 6.9032 125.427 6.81725 125.481 6.65704C125.535 6.49684 125.449 6.32305 125.29 6.26888C124.912 6.14085 124.563 6.35435 124.315 6.56631C124.051 6.79244 123.79 7.11385 123.553 7.42121C123.481 7.51465 123.412 7.60659 123.344 7.69577C123.181 7.91126 123.03 8.11063 122.888 8.27614C122.788 8.39178 122.703 8.47739 122.633 8.5328C122.574 8.57934 122.546 8.58758 122.545 8.58847C122.433 8.5961 122.334 8.66492 122.287 8.76788C118.088 18.0921 114.45 25.3546 111.862 30.285C110.568 32.7502 109.537 34.6323 108.829 35.8977C108.475 36.5304 108.202 37.0088 108.018 37.3289C107.926 37.4889 107.856 37.6093 107.809 37.6896C107.786 37.7298 107.768 37.7599 107.756 37.7799L107.743 37.8023L107.739 37.8095C107.739 37.8095 107.739 37.8095 108.001 37.9658L107.739 37.8095C107.653 37.9549 107.701 38.1428 107.846 38.2292C107.991 38.3155 108.178 38.2676 108.264 38.1221L108.001 37.9658C108.264 38.1221 108.264 38.1223 108.264 38.1221L108.269 38.1141L108.282 38.0909C108.294 38.0704 108.312 38.0398 108.336 37.9991C108.383 37.9178 108.454 37.7963 108.547 37.6352C108.732 37.313 109.006 36.8323 109.361 36.1973C110.071 34.9275 111.105 33.0405 112.402 30.5703C114.983 25.6532 118.604 18.4249 122.784 9.15174Z" fill="#4A4A49"/>
<path fill-rule="evenodd" clip-rule="evenodd" d="M94.6772 38.3C94.7757 38.2546 94.8909 38.2654 94.9792 38.3282L101.339 42.8572C101.475 42.9539 101.507 43.1423 101.41 43.278C101.313 43.4137 101.124 43.4453 100.989 43.3486L95.0593 39.1263L94.9628 40.2428L101.133 44.8493C101.266 44.949 101.294 45.1381 101.194 45.2715C101.094 45.405 100.905 45.4323 100.771 45.3326L94.4667 40.6257C94.383 40.5633 94.3376 40.4621 94.3466 40.3581L94.503 38.548C94.5123 38.4401 94.5788 38.3454 94.6772 38.3Z" fill="#4A4A49"/>
<path fill-rule="evenodd" clip-rule="evenodd" d="M115.254 0.112433C115.356 -0.0124764 115.537 -0.036769 115.668 0.056999C118.682 2.21655 120.888 3.85483 122.34 4.95366C123.066 5.50308 123.604 5.91763 123.96 6.19505C124.138 6.33376 124.271 6.43818 124.36 6.50804C124.404 6.54297 124.437 6.56926 124.46 6.58687L124.485 6.60677L124.493 6.61313L124.493 6.61348C124.493 6.61351 124.493 6.61363 124.303 6.85117L124.113 7.08871L124.112 7.08839L124.111 7.08724L124.105 7.08251L124.081 7.06326C124.059 7.04608 124.026 7.02023 123.983 6.98573C123.895 6.91673 123.763 6.81316 123.586 6.67529C123.232 6.39956 122.696 5.98667 121.972 5.43888C120.562 4.37179 118.437 2.79282 115.546 0.718773C99.6879 20.295 97.0445 32.6836 96.7342 38.8732C96.7258 39.041 96.5828 39.1703 96.4149 39.1619C96.2469 39.1535 96.1176 39.0106 96.126 38.8428C96.4454 32.4713 99.1743 19.8923 115.254 0.112433ZM124.541 7.04137C124.435 7.17256 124.244 7.19375 124.113 7.08871L124.303 6.85117L124.493 6.61348C124.624 6.71853 124.646 6.91018 124.541 7.04137Z" fill="#4A4A49"/>
<path fill-rule="evenodd" clip-rule="evenodd" d="M137.893 2.27038C137.987 2.15243 137.98 1.9816 137.87 1.87155C137.751 1.75155 137.556 1.74926 137.434 1.86644C137.415 1.88476 137.401 1.90265 137.398 1.9065L137.398 1.90694C137.393 1.91394 137.388 1.92064 137.385 1.92583C137.377 1.93645 137.369 1.94884 137.361 1.96171C137.344 1.98789 137.322 2.0236 137.295 2.06758C137.24 2.15595 137.164 2.28299 137.066 2.44553C136.871 2.77088 136.592 3.24162 136.24 3.83657C135.537 5.02664 134.543 6.71549 133.357 8.73612C130.986 12.7775 127.843 18.147 124.706 23.5101C121.57 28.8733 118.441 34.2301 116.095 38.2462C114.922 40.2542 113.945 41.9271 113.262 43.0979L112.188 44.9371C112.188 44.9374 112.188 44.9376 112.455 45.0888L112.188 44.9376C112.103 45.083 112.154 45.2686 112.302 45.3522C112.449 45.4357 112.638 45.3855 112.723 45.2401L112.455 45.0888C112.723 45.2401 112.723 45.2399 112.723 45.2396L113.797 43.4005C114.48 42.2297 115.457 40.5569 116.63 38.5489C118.976 34.5328 122.105 29.1761 125.242 23.8131C128.378 18.45 131.52 13.0808 133.892 9.03988C135.078 7.01937 136.071 5.33118 136.774 4.14194C137.125 3.54725 137.404 3.07777 137.598 2.75404C137.695 2.59203 137.77 2.46732 137.823 2.38193C137.849 2.33903 137.869 2.30736 137.883 2.28631C137.887 2.27904 137.891 2.27386 137.893 2.27038ZM137.895 2.26712C137.895 2.26691 137.895 2.26672 137.896 2.26654C137.9 2.25988 137.9 2.2613 137.895 2.26712Z" fill="#4A4A49"/>
<path fill-rule="evenodd" clip-rule="evenodd" d="M135.163 8.05224C135.285 8.13535 135.325 8.31498 135.251 8.45344L131.317 15.879C131.244 16.0175 131.085 16.0623 130.963 15.9792C130.841 15.8961 130.801 15.7165 130.875 15.578L134.809 8.15246C134.882 8.014 135.041 7.96913 135.163 8.05224Z" fill="#4A4A49"/>
<path fill-rule="evenodd" clip-rule="evenodd" d="M142.25 24.0723C142.401 24.157 142.453 24.3452 142.366 24.4927L118.076 65.7092C117.989 65.8566 117.796 65.9074 117.645 65.8227C117.494 65.7379 117.442 65.5497 117.529 65.4023L141.819 24.1858C141.906 24.0383 142.099 23.9875 142.25 24.0723Z" fill="#4A4A49"/>
<path fill-rule="evenodd" clip-rule="evenodd" d="M126.079 54.2932C126.249 54.2933 126.388 54.4312 126.387 54.6012C126.383 61.9736 125.714 65.8909 124.731 68.0432C124.235 69.1299 123.653 69.7796 123.027 70.1921C122.409 70.5992 121.769 70.7591 121.206 70.8997L121.203 70.9004C120.046 71.1892 118.274 71.4286 115.825 71.7349C115.421 71.7855 114.997 71.838 114.555 71.8929C112.308 72.1713 109.564 72.5114 106.269 72.9812C106.1 73.0052 105.944 72.8883 105.919 72.7201C105.895 72.5518 106.013 72.3959 106.181 72.3719C109.483 71.9013 112.233 71.5604 114.479 71.2819C114.922 71.2271 115.345 71.1747 115.748 71.1242C118.21 70.8162 119.94 70.5811 121.053 70.3034C121.623 70.1609 122.167 70.0211 122.687 69.6786C123.2 69.3405 123.712 68.7889 124.169 67.7883C125.092 65.7663 125.765 61.9663 125.77 54.6008C125.77 54.4308 125.908 54.2931 126.079 54.2932Z" fill="#4A4A49"/>
<path fill-rule="evenodd" clip-rule="evenodd" d="M126.871 53.4038C127.041 53.3948 127.186 53.5242 127.195 53.6928C127.515 59.673 126.852 64.8269 126.11 68.4866C125.738 70.3167 125.347 71.774 125.048 72.7751C124.898 73.2757 124.772 73.6623 124.682 73.9245C124.638 74.0556 124.602 74.1556 124.578 74.2232C124.566 74.257 124.556 74.2827 124.55 74.3002L124.542 74.3202L124.54 74.3274C124.54 74.3275 124.539 74.3276 124.251 74.2198L124.539 74.3276C124.499 74.435 124.401 74.5107 124.286 74.5236L106.259 76.5427C106.09 76.5617 105.937 76.441 105.918 76.2733C105.899 76.1055 106.021 75.9542 106.19 75.9352L124.026 73.9374C124.046 73.881 124.071 73.8113 124.099 73.7285C124.186 73.4733 124.31 73.094 124.457 72.6013C124.752 71.6157 125.139 70.1762 125.506 68.3659C126.24 64.7448 126.896 59.6433 126.58 53.7252C126.571 53.5566 126.701 53.4127 126.871 53.4038Z" fill="#4A4A49"/>
<path fill-rule="evenodd" clip-rule="evenodd" d="M134.457 51.8395C134.502 51.6819 134.669 51.5899 134.83 51.6341L136.045 51.9679C136.045 51.9679 136.046 51.9679 136.046 51.968C136.076 51.9682 136.119 51.969 136.178 51.971C136.296 51.975 136.475 51.9838 136.727 52.003C137.229 52.0414 138.019 52.1213 139.181 52.2874C140.379 52.4587 142.267 53.1363 143.827 53.756C144.614 54.0683 145.327 54.37 145.844 54.5937C146.103 54.7055 146.312 54.7979 146.457 54.8624C146.53 54.8947 146.586 54.9199 146.625 54.9372L146.668 54.9569L146.683 54.9637C146.683 54.9637 146.683 54.9638 146.556 55.2327L146.683 54.9638C146.804 55.0186 146.874 55.1442 146.856 55.2733C146.578 57.2455 145.434 60.8264 144.372 63.888C143.839 65.4247 143.323 66.8397 142.941 67.8704C142.749 68.3858 142.591 68.8053 142.481 69.096C142.426 69.2413 142.383 69.3545 142.353 69.4314C142.345 69.4541 142.337 69.4736 142.331 69.4899L142.309 69.5471L142.308 69.5486L142.308 69.549C142.308 69.5491 142.308 69.5491 142.025 69.4443C142.18 69.6989 142.18 69.6989 142.18 69.699L142.18 69.6991L142.175 69.7019L142.16 69.7104C142.148 69.7178 142.129 69.7288 142.104 69.7431C142.054 69.7718 141.981 69.8138 141.888 69.8674C141.7 69.9746 141.428 70.1281 141.093 70.314C140.423 70.6858 139.497 71.1872 138.475 71.706C136.444 72.7359 133.982 73.8595 132.391 74.1402C130.841 74.4136 124.3 75.2374 118.161 75.9911C115.088 76.3684 112.112 76.7287 109.904 76.9947C108.799 77.1277 107.887 77.2371 107.251 77.3133C106.933 77.3513 106.684 77.3811 106.515 77.4014L106.256 77.4322L106.255 77.4323C106.255 77.4323 106.255 77.4324 106.219 77.1382C106.182 76.844 106.182 76.8439 106.182 76.8439L106.442 76.813C106.611 76.7927 106.86 76.763 107.178 76.7249C107.814 76.6487 108.726 76.5394 109.83 76.4064C112.038 76.1404 115.014 75.7802 118.086 75.403C124.237 74.6477 130.755 73.8266 132.284 73.5569C133.771 73.2945 136.153 72.216 138.197 71.1795C139.211 70.6651 140.13 70.1674 140.796 69.7982C141.128 69.6136 141.397 69.4613 141.583 69.3552C141.666 69.308 141.732 69.27 141.78 69.2423C141.782 69.2362 141.785 69.2299 141.787 69.2233C141.816 69.1469 141.859 69.0342 141.914 68.8894C142.024 68.5999 142.182 68.1817 142.372 67.6677C142.754 66.6396 143.268 65.2288 143.8 63.6972C144.827 60.7358 145.906 57.3569 146.224 55.4094C146.218 55.4071 146.213 55.4046 146.207 55.4022C146.064 55.3384 145.857 55.2469 145.6 55.136C145.087 54.914 144.38 54.6148 143.6 54.3054C142.03 53.6818 140.208 53.0333 139.094 52.874C137.943 52.7095 137.166 52.6312 136.68 52.594C136.436 52.5754 136.266 52.5671 136.157 52.5634C136.103 52.5616 136.065 52.5609 136.04 52.5607C136.028 52.5605 136.019 52.5605 136.014 52.5606L136.009 52.5606L136.009 52.5606C136.009 52.5606 136.009 52.5606 136.009 52.5606C136.009 52.5606 136.009 52.5606 136.003 52.2643M136.009 52.5606C135.979 52.5611 135.95 52.5574 135.922 52.5497L134.667 52.2049C134.506 52.1607 134.412 51.9971 134.457 51.8395M142.025 69.4443L142.18 69.699C142.239 69.6647 142.284 69.6117 142.308 69.549L142.025 69.4443ZM106.219 77.1382L106.182 76.844C106.016 76.8637 105.898 77.0114 105.919 77.1739C105.939 77.3364 106.089 77.4521 106.255 77.4324L106.219 77.1382Z" fill="#4A4A49"/>
<path fill-rule="evenodd" clip-rule="evenodd" d="M134.621 41.1732C134.664 41.008 134.832 40.9092 134.996 40.9526L152.134 45.4911C152.163 45.4891 152.204 45.4864 152.256 45.4831C152.366 45.4762 152.525 45.4666 152.72 45.4564C153.108 45.4358 153.641 45.4121 154.216 45.3999C154.79 45.3876 155.408 45.3867 155.969 45.4119C156.523 45.4369 157.043 45.4883 157.408 45.5886C158.07 45.7709 159.953 46.3193 161.782 46.8934C162.697 47.1805 163.601 47.4748 164.333 47.7336C164.7 47.8629 165.025 47.9842 165.29 48.0919C165.548 48.1973 165.765 48.2969 165.903 48.3843C166.029 48.4644 166.139 48.5511 166.222 48.6458C166.303 48.7379 166.381 48.8635 166.388 49.0175C166.397 49.1865 166.319 49.3234 166.215 49.4172C166.119 49.5043 165.996 49.5608 165.872 49.5998C165.622 49.6786 165.276 49.7152 164.853 49.7136C164.824 49.7135 164.794 49.7132 164.763 49.7127C165.162 49.9468 165.5 50.1643 165.783 50.3686C166.33 50.7632 166.696 51.1244 166.9 51.4833C167.114 51.8589 167.143 52.2195 167.043 52.5718C166.962 52.8603 166.796 53.1333 166.612 53.3954C167.325 56.6076 167.397 60.0941 167.29 62.7817C167.236 64.1465 167.136 65.3095 167.05 66.1318C167.006 66.543 166.966 66.8692 166.937 67.0931C166.923 67.205 166.911 67.2914 166.902 67.35C166.898 67.3794 166.895 67.4017 166.893 67.4169L166.89 67.4343L166.889 67.44L166.889 67.4404C166.889 67.4405 166.889 67.4406 166.586 67.3937L166.889 67.4404C166.865 67.5977 166.727 67.7113 166.569 67.7027C166.411 67.6941 166.286 67.5662 166.279 67.4071L166.279 67.4069L166.279 67.4056L166.279 67.4005L166.278 67.38C166.277 67.3617 166.275 67.3345 166.274 67.2987C166.27 67.2273 166.265 67.122 166.257 66.9871C166.242 66.7174 166.219 66.3296 166.185 65.858C166.117 64.9145 166.008 63.6375 165.843 62.3015C165.678 60.964 165.457 59.5746 165.168 58.4038C165.023 57.8183 164.862 57.2935 164.685 56.8601C164.507 56.4248 164.321 56.1021 164.134 55.9007C162.311 54.0724 160.252 53.8438 158.424 54.7112C156.57 55.5906 154.916 57.6184 154.019 60.3746C153.115 63.1552 152.31 68.3462 151.73 72.8692C151.442 75.1249 151.21 77.2054 151.05 78.722C150.97 79.4803 150.908 80.0974 150.867 80.5249C150.846 80.7387 150.83 80.905 150.819 81.0178C150.814 81.0742 150.81 81.1172 150.807 81.1461L150.803 81.189L150.803 81.1895C150.803 81.1896 150.803 81.1896 150.497 81.1611L150.803 81.1895C150.789 81.3411 150.668 81.4602 150.517 81.4699L102.683 84.5543C102.514 84.5652 102.368 84.4358 102.357 84.2653C102.346 84.0947 102.474 83.9476 102.644 83.9367L150.216 80.8692C150.226 80.7636 150.239 80.6277 150.255 80.4643C150.297 80.0354 150.359 79.4167 150.439 78.6567C150.599 77.1369 150.832 75.0516 151.121 72.7899C151.699 68.278 152.51 63.0276 153.435 60.1819C154.369 57.3118 156.116 55.1223 158.162 54.1513C160.232 53.169 162.57 53.456 164.571 55.4658C164.572 55.4672 164.573 55.4685 164.575 55.4699C164.576 55.4708 164.577 55.4717 164.577 55.4726C164.841 55.754 165.063 56.1581 165.253 56.6246C165.445 57.0954 165.614 57.6514 165.764 58.2541C166.062 59.4595 166.286 60.8767 166.453 62.2251C166.519 62.7617 166.576 63.2886 166.626 63.7885C166.645 63.4605 166.662 63.1158 166.677 62.757C166.784 60.0556 166.707 56.5702 165.983 53.3973C165.963 53.3099 165.982 53.218 166.034 53.1456C166.248 52.8497 166.392 52.6172 166.453 52.4022C166.507 52.2085 166.498 52.0203 166.367 51.7911C166.227 51.5454 165.944 51.2462 165.425 50.8717C164.91 50.4999 164.183 50.0689 163.184 49.5525C163.05 49.4835 162.986 49.3277 163.031 49.1837C163.076 49.0397 163.218 48.9497 163.367 48.9707C163.965 49.0556 164.462 49.0934 164.855 49.0948C165.254 49.0962 165.527 49.0602 165.689 49.0093C165.695 49.0072 165.701 49.0051 165.707 49.0031C165.675 48.9756 165.632 48.9436 165.575 48.9076C165.489 48.8526 165.317 48.7706 165.059 48.6656C164.808 48.563 164.492 48.4453 164.13 48.3176C163.407 48.0623 162.511 47.7704 161.599 47.4843C159.775 46.9119 157.9 46.3656 157.246 46.1855C156.952 46.1046 156.49 46.0549 155.942 46.0302C155.4 46.0057 154.796 46.0065 154.229 46.0186C153.662 46.0307 153.136 46.054 152.752 46.0743C152.56 46.0845 152.403 46.0939 152.295 46.1008C152.24 46.1042 152.198 46.107 152.17 46.1089L152.137 46.1111L152.127 46.1119C152.093 46.1143 152.059 46.1111 152.027 46.1025L134.84 41.5511C134.676 41.5077 134.578 41.3385 134.621 41.1732Z" fill="#4A4A49"/>
<path fill-rule="evenodd" clip-rule="evenodd" d="M133.524 42.9547C133.579 42.776 133.755 42.6803 133.916 42.7408L143.978 46.5077C144.14 46.5683 144.227 46.7622 144.172 46.9409C144.117 47.1195 143.942 47.2153 143.78 47.1548L133.718 43.3878C133.556 43.3273 133.469 43.1334 133.524 42.9547Z" fill="#4A4A49"/>
<path fill-rule="evenodd" clip-rule="evenodd" d="M137.949 44.7505C137.991 44.9242 137.884 45.0989 137.709 45.1407L137.633 44.8262L137.557 44.5117C137.732 44.4699 137.907 44.5769 137.949 44.7505ZM135.361 45.7622C134.036 46.1386 132.437 46.6393 131.295 47.1449C131.131 47.2174 130.939 47.1439 130.866 46.9807C130.793 46.8174 130.867 46.6263 131.031 46.5538C132.218 46.0285 133.854 45.5176 135.182 45.1402C135.849 44.9508 136.442 44.7938 136.869 44.6842C137.082 44.6293 137.254 44.5863 137.372 44.557C137.432 44.5423 137.478 44.531 137.509 44.5234L137.545 44.5147L137.557 44.5117C137.557 44.5117 137.557 44.5117 137.633 44.8262L137.709 45.1407L137.698 45.1434L137.663 45.1518C137.633 45.1592 137.588 45.1703 137.529 45.1847C137.412 45.2137 137.242 45.2562 137.031 45.3105C136.608 45.4191 136.021 45.5747 135.361 45.7622Z" fill="#4A4A49"/>
<path fill-rule="evenodd" clip-rule="evenodd" d="M150.155 68.5396C150.329 68.5712 150.442 68.7246 150.407 68.8822C150.298 69.3776 150.019 70.0395 149.777 70.5615C149.654 70.826 149.538 71.0609 149.453 71.2297C149.41 71.3142 149.375 71.3822 149.351 71.4293C149.348 71.4343 149.346 71.4391 149.343 71.4437L149.284 78.0645L151.095 78.6491C151.262 78.7032 151.35 78.8698 151.29 79.0212C151.23 79.1727 151.046 79.2516 150.879 79.1975L148.852 78.5433C148.723 78.5017 148.638 78.3907 148.639 78.2668L148.7 71.3746C148.701 71.3317 148.711 71.2893 148.732 71.2507L148.734 71.2465L148.741 71.2333C148.747 71.2216 148.757 71.2041 148.768 71.1814C148.792 71.1361 148.826 71.07 148.868 70.9877C148.951 70.823 149.064 70.594 149.183 70.3365C149.425 69.8146 149.68 69.2006 149.776 68.768C149.811 68.6104 149.98 68.5081 150.155 68.5396Z" fill="#4A4A49"/>
<path fill-rule="evenodd" clip-rule="evenodd" d="M141.549 52.6599C141.632 52.5152 141.81 52.4696 141.946 52.558C142.997 53.2401 144.007 53.991 144.969 54.8058C145.056 54.8787 145.095 54.9971 145.072 55.1114L144.789 55.0459C145.072 55.1114 145.072 55.1113 145.072 55.1114L145.067 55.1351C145.064 55.1507 145.059 55.1737 145.053 55.204C145.04 55.2647 145.021 55.3542 144.996 55.4701C144.947 55.702 144.874 56.0396 144.78 56.4631C144.593 57.31 144.321 58.5007 143.984 59.8767C143.309 62.6267 142.372 66.1244 141.322 69.0966C141.302 69.1557 141.264 69.2065 141.215 69.2421C140.847 69.5099 140.165 70.1882 139.556 70.8218C139.257 71.1341 138.981 71.4289 138.781 71.6456C138.68 71.7539 138.599 71.8427 138.542 71.9043C138.514 71.9351 138.492 71.9591 138.478 71.9754L138.461 71.9939L138.456 71.9997L138.455 72L138.247 71.7871C138.039 71.5742 138.039 71.5742 138.039 71.5742L138.039 71.5738L138.062 71.5486C138.077 71.532 138.099 71.5076 138.128 71.4764C138.185 71.4141 138.267 71.3245 138.368 71.2152C138.571 70.9966 138.849 70.6991 139.152 70.3834C139.714 69.7973 140.386 69.1238 140.812 68.7929C141.839 65.8694 142.758 62.4375 143.424 59.722C143.76 58.3516 144.031 57.1656 144.218 56.3224C144.311 55.9009 144.384 55.565 144.433 55.3348C144.446 55.2706 144.458 55.2146 144.468 55.1672C143.566 54.4139 142.624 53.7174 141.645 53.0819C141.509 52.9935 141.466 52.8046 141.549 52.6599ZM138.247 71.7871L138.039 71.5742C137.928 71.6963 137.932 71.8907 138.047 72.0083C138.162 72.1259 138.345 72.1221 138.455 72L138.247 71.7871Z" fill="#4A4A49"/>
<path fill-rule="evenodd" clip-rule="evenodd" d="M139.122 51.6372C139.296 51.586 139.481 51.6779 139.536 51.8423L139.22 51.9349C139.536 51.8423 139.536 51.8423 139.536 51.8423L139.536 51.8437L139.537 51.8466L139.54 51.8566C139.543 51.8651 139.547 51.8772 139.551 51.8925C139.561 51.9231 139.574 51.9666 139.588 52.0197C139.617 52.1257 139.654 52.2723 139.684 52.4331C139.714 52.5926 139.738 52.7741 139.738 52.9478C139.738 53.1131 139.718 53.3112 139.625 53.4769C139.569 53.5776 139.459 53.6412 139.339 53.643C139.216 53.6448 139.093 53.6442 138.969 53.6436C138.355 53.6407 137.741 53.6378 137.16 53.9303C136.494 54.2652 135.811 55.0353 135.412 56.9155C134.999 58.8608 134.046 61.9552 133.092 64.7473C132.614 66.1453 132.135 67.4719 131.72 68.5462C131.308 69.6131 130.953 70.4506 130.724 70.8568C130.636 71.0127 130.606 71.1382 130.608 71.2394C130.609 71.3388 130.64 71.4341 130.706 71.5316C130.845 71.739 131.134 71.9464 131.573 72.1538C132.003 72.3574 132.534 72.5409 133.106 72.7227C133.312 72.7883 133.526 72.8542 133.741 72.9205C134.112 73.0347 134.487 73.1504 134.839 73.2687C135.01 73.3265 135.1 73.5049 135.039 73.6671C134.978 73.8293 134.789 73.914 134.617 73.8562C134.272 73.74 133.914 73.6297 133.551 73.5178C133.333 73.4509 133.115 73.3834 132.895 73.3138C132.319 73.1309 131.752 72.9359 131.277 72.7115C130.811 72.4909 130.387 72.221 130.148 71.8661C130.025 71.6825 129.95 71.4754 129.948 71.2468C129.945 71.0199 130.013 70.7917 130.141 70.5637C130.345 70.2022 130.685 69.4056 131.1 68.3326C131.511 67.2671 131.988 65.9481 132.464 64.5557C133.417 61.767 134.359 58.7011 134.764 56.7929C135.183 54.8197 135.939 53.8382 136.849 53.3799C137.593 53.006 138.401 53.0133 139.015 53.0189C139.035 53.0191 139.056 53.0193 139.076 53.0194C139.077 52.9981 139.078 52.9748 139.078 52.9492C139.078 52.8245 139.06 52.6813 139.034 52.5405C139.008 52.401 138.975 52.2717 138.949 52.1768C138.936 52.1295 138.925 52.0913 138.917 52.0654C138.913 52.0524 138.91 52.0425 138.908 52.036L138.906 52.029L138.905 52.0276C138.905 52.0276 138.905 52.0276 138.905 52.0276C138.851 51.8632 138.948 51.6884 139.122 51.6372Z" fill="#4A4A49"/>
<path fill-rule="evenodd" clip-rule="evenodd" d="M148.663 55.3595C148.729 55.2129 148.909 55.144 149.065 55.2057C149.962 55.559 151.383 56.3154 152.566 56.9738C153.161 57.3049 153.7 57.6142 154.092 57.8408C154.287 57.9541 154.446 58.0468 154.555 58.1111C154.61 58.1433 154.653 58.1685 154.682 58.1856L154.726 58.2117C154.726 58.2117 154.726 58.2119 154.562 58.4552C154.397 58.6986 154.397 58.6986 154.397 58.6986L154.354 58.673C154.325 58.6561 154.283 58.6313 154.229 58.5993C154.12 58.5355 153.962 58.4435 153.768 58.3308C153.379 58.1055 152.843 57.798 152.252 57.4691C151.064 56.8077 149.678 56.0721 148.827 55.7368C148.67 55.6751 148.597 55.5062 148.663 55.3595ZM154.821 58.6093C154.73 58.7438 154.54 58.7837 154.397 58.6986L154.562 58.4552L154.726 58.2119C154.869 58.297 154.912 58.4749 154.821 58.6093Z" fill="#4A4A49"/>
<path fill-rule="evenodd" clip-rule="evenodd" d="M97.0152 35.9551C97.025 36.1618 96.896 36.3391 96.7271 36.3511C95.5996 36.4313 94.3089 36.5174 92.8907 36.612C84.0018 37.2049 70.1028 38.132 59.987 40.0478C59.8197 40.0795 59.6631 39.9394 59.6372 39.7348C59.6113 39.5302 59.7259 39.3387 59.8932 39.307C70.0427 37.3848 83.9797 36.4554 92.8641 35.863C94.2802 35.7685 95.5679 35.6827 96.6914 35.6027C96.8604 35.5907 97.0054 35.7485 97.0152 35.9551Z" fill="#4A4A49"/>
<path fill-rule="evenodd" clip-rule="evenodd" d="M29.25 45.3542L29.2503 45.354L29.2519 45.3532L29.2589 45.3497C29.2651 45.3466 29.2746 45.3419 29.2867 45.3359C29.3111 45.3239 29.3463 45.3068 29.3893 45.2866C29.4755 45.2461 29.5907 45.1943 29.7094 45.1473C29.8304 45.0994 29.9448 45.0607 30.0322 45.0419C30.0509 45.0379 30.0662 45.0353 30.0784 45.0336C30.1701 45.1197 30.3156 45.2631 30.4351 45.4276C30.5069 45.5265 30.5619 45.6231 30.592 45.7106C30.6219 45.7978 30.6215 45.859 30.6076 45.902C30.5381 46.1167 30.358 46.5597 30.1902 46.96C30.1567 47.04 30.1239 47.1177 30.093 47.1907L30.0318 47.0793C29.9786 46.9825 29.8703 46.9285 29.7599 46.9436L27.8224 47.2088C27.676 47.2288 27.5738 47.3622 27.5941 47.5067C27.6144 47.6512 27.7495 47.7521 27.8958 47.7321L29.6498 47.492L29.8876 47.9247C29.9365 48.0137 30.0326 48.0672 30.1349 48.0626C30.2373 48.058 30.3281 47.996 30.3685 47.903L30.1227 47.7988C30.3685 47.903 30.3685 47.903 30.3685 47.903L30.3945 47.8431C30.4111 47.8048 30.4349 47.7496 30.4639 47.682C30.522 47.5467 30.6009 47.3616 30.6846 47.1621C30.8498 46.7679 31.0396 46.3027 31.1172 46.0628C31.1768 45.8785 31.1519 45.6961 31.0987 45.5411C31.0456 45.3864 30.9589 45.2423 30.8698 45.1197C30.6945 44.8784 30.4812 44.6818 30.3985 44.6057L30.3948 44.6022C30.3038 44.5183 30.1916 44.5048 30.1278 44.503C30.0563 44.5008 29.9831 44.5118 29.9184 44.5257C29.7874 44.5539 29.6405 44.6054 29.5103 44.657C29.3777 44.7095 29.2517 44.7663 29.1595 44.8096C29.1132 44.8313 29.0749 44.8499 29.0481 44.8631C29.0346 44.8697 29.024 44.875 29.0166 44.8787L29.0081 44.883L29.0057 44.8842L29.0048 44.8847C29.0047 44.8847 29.0046 44.8847 29.1273 45.1194L29.0048 44.8847C28.8735 44.9516 28.8219 45.111 28.8896 45.2406C28.9574 45.3702 29.1187 45.4211 29.25 45.3542ZM30.1153 45.0313C30.1152 45.0313 30.114 45.0313 30.1118 45.031C30.1143 45.0311 30.1154 45.0312 30.1153 45.0313Z" fill="#4A4A49"/>
<path fill-rule="evenodd" clip-rule="evenodd" d="M26.7402 40.9323C26.7402 40.9323 26.7403 40.9323 26.6834 41.2291L26.7402 40.9323C26.7658 40.9377 26.7907 40.9468 26.814 40.9592C27.9479 41.5643 28.8444 42.5672 29.3481 43.7937C29.3705 43.8484 29.3771 43.909 29.367 43.9676C29.2868 44.4315 29.0023 45.3656 28.6354 46.2057C28.4514 46.6272 28.2407 47.0387 28.0163 47.3617C27.9041 47.5232 27.7835 47.6699 27.6554 47.7855C27.5288 47.8998 27.3804 47.9969 27.2127 48.0348C27.0674 48.0677 26.8777 48.0683 26.675 48.0532C26.4659 48.0376 26.2193 48.0032 25.9491 47.9534C25.4082 47.8535 24.7586 47.6888 24.0995 47.4762C23.4408 47.2637 22.7664 47.0013 22.1781 46.7042C21.5958 46.41 21.073 46.0698 20.7397 45.6919C20.0842 44.9488 19.805 43.8096 19.6817 42.9064C19.6189 42.4468 19.5945 42.0314 19.5856 41.731C19.5812 41.5805 19.5807 41.4583 19.5813 41.3731C19.5816 41.3305 19.5821 41.2971 19.5827 41.274C19.5829 41.2625 19.5832 41.2535 19.5833 41.2473L19.5836 41.2399L19.5836 41.2378L19.5837 41.2372C19.5837 41.2371 19.5837 41.2368 19.8717 41.2484L19.5837 41.2368C19.5853 41.1931 19.5959 41.1502 19.6147 41.1112C19.7635 40.8037 19.9282 40.5051 20.1083 40.2165C20.1533 40.1444 20.2255 40.0959 20.3066 40.0831C20.68 40.0243 21.2762 40.0558 21.93 40.125C22.5941 40.1954 23.3504 40.3088 24.0614 40.4282C24.7731 40.5476 25.4425 40.6736 25.9338 40.7697C26.1796 40.8177 26.3809 40.8583 26.521 40.8869C26.591 40.9013 26.6457 40.9126 26.6829 40.9203L26.7255 40.9292L26.7402 40.9323ZM20.1583 41.3249C20.269 41.1003 20.3888 40.881 20.5176 40.6673C20.824 40.6422 21.2988 40.6666 21.8721 40.7274C22.5205 40.7961 23.2645 40.9075 23.9704 41.026C24.6758 41.1444 25.3401 41.2694 25.8283 41.3649C26.0723 41.4126 26.2722 41.4529 26.4109 41.4812C26.4802 41.4954 26.5343 41.5066 26.571 41.5142L26.5877 41.5177C27.5588 42.0463 28.3319 42.9028 28.7829 43.9483C28.6939 44.3799 28.4409 45.199 28.1115 45.9533C27.9353 46.3567 27.7431 46.7278 27.5506 47.0049C27.4545 47.1433 27.3633 47.2509 27.2797 47.3264C27.1945 47.4032 27.1314 47.4339 27.0912 47.443C27.0286 47.4572 26.9057 47.4635 26.7158 47.4493C26.5323 47.4356 26.3063 47.4046 26.0489 47.3571C25.5343 47.2621 24.9079 47.1037 24.2688 46.8975C23.6294 46.6913 22.9835 46.4392 22.4279 46.1586C21.8664 45.875 21.4217 45.5743 21.1625 45.2804C20.633 44.6801 20.3724 43.7004 20.2523 42.8205C20.1933 42.3886 20.1702 41.9964 20.1618 41.7122C20.1576 41.5703 20.1571 41.4559 20.1577 41.3776C20.1578 41.3576 20.158 41.34 20.1583 41.3249Z" fill="#4A4A49"/>
<path fill-rule="evenodd" clip-rule="evenodd" d="M28.8818 47.1729C29.1077 47.1686 29.2949 47.3253 29.2999 47.523L29.3716 50.3671C29.3766 50.5648 29.1975 50.7286 28.9716 50.733C28.7457 50.7373 28.5585 50.5806 28.5535 50.3829L28.4818 47.5388C28.4768 47.3411 28.6559 47.1773 28.8818 47.1729Z" fill="#4A4A49"/>
<path fill-rule="evenodd" clip-rule="evenodd" d="M39.5815 17.8011C39.7624 17.8042 39.9063 17.94 39.9029 18.1045C39.7358 26.1413 39.8144 32.0112 40.1355 36.1914C40.296 38.2815 40.5168 39.9433 40.796 41.2392C41.076 42.5388 41.411 43.4522 41.7895 44.0575C41.879 44.2005 41.8239 44.3823 41.6666 44.4636C41.5093 44.5449 41.3092 44.4949 41.2198 44.3519C40.7903 43.6649 40.4384 42.6789 40.1529 41.3537C39.8666 40.0247 39.6433 38.3364 39.4818 36.2329C39.1586 32.026 39.0805 26.1352 39.2477 18.0932C39.2511 17.9288 39.4005 17.798 39.5815 17.8011Z" fill="#4A4A49"/>
<path fill-rule="evenodd" clip-rule="evenodd" d="M35.2934 41.8386C35.5001 41.8731 35.6352 42.0456 35.5951 42.2238L35.5861 42.2639C35.5802 42.2904 35.5715 42.3296 35.5604 42.3803C35.538 42.4816 35.5059 42.6288 35.4666 42.8116C35.388 43.1773 35.2811 43.6857 35.1675 44.256C34.9398 45.3997 34.6877 46.7818 34.5829 47.7643C34.5636 47.9451 34.378 48.0781 34.1683 48.0615C33.9587 48.0449 33.8044 47.8848 33.8236 47.7041C33.9315 46.6936 34.1882 45.2893 34.4161 44.1447C34.5303 43.5709 34.6379 43.0597 34.7169 42.6919C34.7564 42.508 34.7888 42.3598 34.8113 42.2576C34.8226 42.2065 34.8314 42.1669 34.8374 42.14L34.8466 42.0989C34.8466 42.0989 34.8466 42.0987 35.2106 42.1595L34.8466 42.0989C34.8866 41.9207 35.0867 41.804 35.2934 41.8386Z" fill="#4A4A49"/>
<path fill-rule="evenodd" clip-rule="evenodd" d="M38.1914 9.89068C38.2542 9.95836 38.2826 10.0501 38.2688 10.1405L37.765 13.4396C37.7396 13.606 37.5811 13.7208 37.411 13.6959C37.2409 13.6711 37.1235 13.516 37.149 13.3496L37.5965 10.4189L30.9401 10.7546L29.1041 43.3248C29.0947 43.4929 28.9478 43.6215 28.776 43.6123C28.6043 43.603 28.4727 43.4593 28.4822 43.2913L30.3336 10.4477C30.3423 10.2922 30.4695 10.1682 30.6285 10.1602L37.9448 9.79118C38.0381 9.78647 38.1286 9.823 38.1914 9.89068Z" fill="#4A4A49"/>
<path fill-rule="evenodd" clip-rule="evenodd" d="M16.9893 81.9988C17.1041 81.8595 17.303 81.846 17.4335 81.9684C19.7926 84.1829 22.2486 85.389 24.7512 85.6217C27.2534 85.8543 29.835 85.1169 32.451 83.3828C32.5986 83.2849 32.7927 83.3333 32.8844 83.4908C32.9761 83.6483 32.9308 83.8553 32.7832 83.9532C30.0756 85.748 27.3599 86.5383 24.6965 86.2907C22.0335 86.0431 19.4555 84.761 17.0177 82.4726C16.8872 82.3501 16.8745 82.138 16.9893 81.9988Z" fill="#4A4A49"/>
<path fill-rule="evenodd" clip-rule="evenodd" d="M162.809 59.3745C162.055 58.2549 161.058 57.5764 159.712 57.5938L159.708 57.5938C159.316 57.5986 158.676 57.6063 157.917 58.2854C157.141 58.9805 156.212 60.4063 155.351 63.3485C154.417 66.5483 154.339 70.6308 154.966 74.1885C155.279 75.9654 155.766 77.5987 156.401 78.9172C157.038 80.2397 157.812 81.2198 158.686 81.7302C159.557 82.2391 160.348 82.2479 161.058 81.9281C161.782 81.6023 162.448 80.9219 163.022 79.9992C164.171 78.1526 164.884 75.4373 164.94 73.1029C164.985 71.2093 165.06 67.2662 164.405 63.8115C164.077 62.0826 163.571 60.5068 162.809 59.3745ZM165.521 73.1192C165.566 71.2299 165.645 67.2191 164.974 63.6846C164.639 61.9189 164.112 60.2412 163.278 59.0031C162.436 57.7524 161.274 56.9436 159.705 56.9637C159.267 56.9691 158.461 56.981 157.547 57.7996C156.648 58.6044 155.674 60.1608 154.796 63.1579L154.796 63.1583C153.828 66.4775 153.754 70.6688 154.395 74.3067C154.716 76.1276 155.218 77.8227 155.886 79.2088C156.552 80.591 157.395 81.6919 158.41 82.2848C159.428 82.8792 160.402 82.9061 161.281 82.5099C162.148 82.1198 162.894 81.3325 163.504 80.3514C164.724 78.3906 165.463 75.5544 165.521 73.1192Z" fill="#4A4A49"/>
<path fill-rule="evenodd" clip-rule="evenodd" d="M162.142 57.3031C160.852 56.1984 159.16 55.6209 157.094 55.8392C156.932 55.8564 156.787 55.7343 156.771 55.5666C156.754 55.3989 156.872 55.249 157.034 55.2319C159.248 54.9978 161.1 55.6182 162.518 56.8328C163.931 58.0434 164.895 59.8272 165.373 61.8933C165.843 63.9246 166.391 67.0777 166.437 70.5011C166.482 73.9211 166.027 77.6369 164.469 80.7748C164.466 80.7821 164.462 80.7894 164.457 80.7964C163.53 82.3399 162.462 83.6484 161.204 84.2311C160.567 84.5261 159.884 84.6341 159.157 84.4941C158.434 84.3548 157.686 83.9736 156.911 83.3216C153.815 80.7175 152.241 75.9806 152.199 68.3511C152.198 68.1825 152.329 68.0451 152.492 68.0441C152.655 68.0431 152.788 68.179 152.789 68.3476C152.831 75.9253 154.399 80.4217 157.283 82.8478C158.003 83.4534 158.662 83.7778 159.265 83.8939C159.864 84.0093 160.426 83.9225 160.963 83.6738C162.049 83.1704 163.038 82.0009 163.95 80.4848C165.442 77.4734 165.892 73.8748 165.847 70.5096C165.802 67.1436 165.262 64.037 164.799 62.0354C164.344 60.0686 163.436 58.4118 162.142 57.3031Z" fill="#4A4A49"/>
<path fill-rule="evenodd" clip-rule="evenodd" d="M156.595 57.3229C155.601 58.4073 154.68 60.0396 153.658 62.1316C153.582 62.2872 153.4 62.3484 153.252 62.2684C153.105 62.1883 153.046 61.9973 153.122 61.8417C154.146 59.7482 155.1 58.0408 156.162 56.8829C157.236 55.7119 158.436 55.0852 159.929 55.1956C160.095 55.2078 160.22 55.3593 160.209 55.5338C160.197 55.7083 160.053 55.8399 159.887 55.8276C158.613 55.7335 157.577 56.2516 156.595 57.3229Z" fill="#4A4A49"/>
<path fill-rule="evenodd" clip-rule="evenodd" d="M140.842 81.0105C141.004 80.9549 141.177 81.0501 141.229 81.223C141.25 81.2916 141.273 81.3626 141.296 81.4282C141.789 82.8101 143.226 83.7614 144.818 83.7762L159.014 83.8968C159.184 83.8983 159.321 84.0467 159.319 84.2284C159.318 84.4101 159.179 84.5563 159.009 84.5548L144.813 84.4342C143.02 84.4176 141.321 83.3458 140.72 81.6611L140.719 81.6582C140.692 81.5827 140.666 81.5021 140.643 81.4244C140.591 81.2514 140.68 81.0661 140.842 81.0105Z" fill="#4A4A49"/>
<path fill-rule="evenodd" clip-rule="evenodd" d="M74.046 83.7016C74.1996 83.6159 74.3866 83.6849 74.4637 83.8557C74.9415 84.9141 75.919 86.0614 77.2238 86.9771C78.524 87.8898 80.1274 88.5568 81.8382 88.6799L92.2682 89.2036C92.4399 89.2122 92.5728 89.3739 92.565 89.5648C92.5573 89.7557 92.4118 89.9034 92.2401 89.8948L81.8071 89.371L81.8012 89.3707C79.9718 89.2396 78.2681 88.5285 76.8914 87.5622C75.5185 86.5986 74.4488 85.3654 73.9074 84.166C73.8303 83.9952 73.8923 83.7873 74.046 83.7016Z" fill="#4A4A49"/>
<path fill-rule="evenodd" clip-rule="evenodd" d="M166.698 62.3962C166.84 62.2759 167.076 62.2725 167.224 62.3887C167.667 62.7366 167.94 63.2721 168.086 63.8599C168.233 64.4546 168.258 65.1385 168.167 65.8223C167.987 67.1724 167.34 68.6139 166.149 69.3611C165.986 69.4632 165.753 69.4386 165.627 69.3061C165.502 69.1737 165.532 68.9835 165.695 68.8814C166.65 68.2823 167.256 67.0407 167.427 65.7571C167.511 65.1241 167.486 64.5035 167.356 63.9794C167.225 63.4484 166.995 63.0507 166.707 62.8244C166.559 62.7082 166.555 62.5165 166.698 62.3962Z" fill="#4A4A49"/>
<path fill-rule="evenodd" clip-rule="evenodd" d="M167.739 64.2623C167.8 64.1138 167.969 64.0441 168.116 64.1068C169.103 64.5287 170.029 65.2236 169.999 66.3362C169.985 66.8775 169.74 67.4658 169.244 68.1063C168.748 68.7477 167.985 69.4612 166.897 70.2587C166.768 70.3532 166.588 70.3238 166.494 70.1932C166.401 70.0625 166.43 69.8799 166.559 69.7855C167.623 69.0057 168.34 68.3288 168.791 67.7459C169.243 67.1621 169.414 66.6921 169.423 66.3204C169.443 65.6067 168.854 65.0558 167.892 64.6448C167.746 64.5822 167.677 64.4109 167.739 64.2623Z" fill="#4A4A49"/>
<path fill-rule="evenodd" clip-rule="evenodd" d="M169.692 65.8641C169.851 65.8565 169.986 65.9864 169.994 66.1543C170.053 67.538 169.68 70.1238 169.302 72.3297C169.111 73.4401 168.918 74.4659 168.771 75.2141C168.698 75.5882 168.637 75.893 168.594 76.1045C168.572 76.2102 168.555 76.2925 168.544 76.3485L168.53 76.4124L168.526 76.4344C168.526 76.4344 168.526 76.4345 168.243 76.3689L168.526 76.4344C168.503 76.542 168.427 76.6285 168.327 76.6603L165.922 77.4215C165.769 77.4699 165.608 77.3787 165.562 77.2178C165.516 77.0569 165.603 76.8873 165.756 76.8388L167.997 76.1292C168.006 76.086 168.016 76.0351 168.028 75.9771C168.071 75.7671 168.132 75.4638 168.204 75.0915C168.35 74.3466 168.543 73.3258 168.732 72.2217C169.114 69.9987 169.472 67.484 169.416 66.1817C169.408 66.0139 169.532 65.8717 169.692 65.8641Z" fill="#4A4A49"/>
<path fill-rule="evenodd" clip-rule="evenodd" d="M82.7748 84.0477C82.7757 84.2604 82.6393 84.4339 82.47 84.4351L66.1721 84.5548C66.0028 84.5561 65.8648 84.3846 65.8638 84.1719C65.8628 83.9592 65.9992 83.7857 66.1685 83.7845L82.4664 83.6648C82.6357 83.6636 82.7738 83.835 82.7748 84.0477Z" fill="#4A4A49"/>
<path fill-rule="evenodd" clip-rule="evenodd" d="M109.462 58.966C109.513 59.134 109.424 59.3134 109.261 59.3668C108.204 59.7148 107.284 60.4122 106.621 61.0356C106.291 61.3456 106.029 61.6333 105.85 61.8429C105.76 61.9476 105.691 62.0326 105.646 62.0907C105.623 62.1198 105.606 62.1421 105.595 62.1569C105.589 62.1643 105.585 62.1698 105.582 62.1732L105.58 62.1769L105.579 62.1775C105.476 62.3178 105.283 62.3452 105.148 62.2386C105.012 62.132 104.986 61.9318 105.089 61.7915L105.334 61.9845C105.089 61.7915 105.089 61.7915 105.089 61.7915L105.089 61.7906L105.091 61.7889L105.095 61.7831C105.098 61.7783 105.104 61.7714 105.11 61.7625C105.124 61.7449 105.143 61.7196 105.168 61.6874C105.219 61.6231 105.293 61.5314 105.389 61.4196C105.58 61.1962 105.858 60.8913 106.207 60.5627C106.903 59.9089 107.9 59.1454 109.075 58.7585C109.237 58.7051 109.41 58.798 109.462 58.966Z" fill="#4A4A49"/>
<path fill-rule="evenodd" clip-rule="evenodd" d="M105.787 51.6739C105.919 51.7682 105.956 51.9619 105.87 52.1065C105.531 52.6781 104.836 53.1709 104.219 53.5328C103.59 53.9016 102.98 54.1683 102.749 54.2695L102.746 54.271C102.6 54.3348 102.434 54.2565 102.376 54.0961C102.318 53.9357 102.389 53.7539 102.535 53.6901L102.537 53.6896C102.764 53.59 103.35 53.3336 103.951 52.9812C104.568 52.6195 105.142 52.1895 105.394 51.7649C105.48 51.6203 105.656 51.5795 105.787 51.6739Z" fill="#4A4A49"/>
<path fill-rule="evenodd" clip-rule="evenodd" d="M37.976 12.881L33.1678 45.3404L35.1522 40.9472L40.8132 8.88186L37.976 12.881ZM41.1591 7.12036L41.8323 7.38642L35.8704 41.1565L32.7509 48.0628L32.0417 47.8662L37.2641 12.6104L41.1591 7.12036Z" fill="#4A4A49"/>
</svg>
