<svg width="151" height="20" viewBox="0 0 151 20" fill="none" xmlns="http://www.w3.org/2000/svg">
<path d="M129.104 7.75305V19.5442H132.872V11.6834H146.656V19.5442H150.424V7.75305H129.104ZM132.442 3.93037H146.979C149.025 3.55348 150.478 1.7229 150.909 0H128.511C128.942 1.7229 130.45 3.49964 132.442 3.93037ZM117.636 19.5442C119.52 18.7365 120.543 17.3367 120.974 15.7215H104.014V0.0538406H100.191V19.5442H117.636ZM71.9248 3.87653H85.385C87.4309 3.28428 89.1 1.7229 89.5307 0.0538406H68.2098V11.5757H85.6542V15.6138H71.9787C69.8251 16.206 67.9945 17.6597 67.0792 19.5442H89.423V7.75305H71.9787L71.9248 3.87653ZM38.759 3.93037H53.296C55.3419 3.55348 56.8495 1.7229 57.2264 0H34.7748C35.2055 1.7229 36.7131 3.49964 38.759 3.93037ZM38.759 11.6296H53.296C55.3419 11.2527 56.8495 9.42211 57.2264 7.69921H34.7748C35.2055 9.42211 36.7131 11.1989 38.759 11.6296ZM38.759 19.5442H53.296C55.3419 19.1673 56.8495 17.3367 57.2264 15.6138H34.7748C35.2055 17.3367 36.7131 19.1673 38.759 19.5442Z" fill="black"/>
<path d="M0.90918 0.0538406C1.3399 1.77674 2.84744 3.49964 4.83955 3.93037H10.9774L11.3004 4.03805V19.4903H15.1231V4.03805L15.4462 3.93037H21.584C23.6299 3.39196 25.0836 1.77674 25.5144 0.0538406V0L0.90918 0.0538406Z" fill="black"/>
</svg>
