<svg width="138" height="60" viewBox="0 0 138 60" fill="none" xmlns="http://www.w3.org/2000/svg">
<g clip-path="url(#clip0_114_1765)">
<path fill-rule="evenodd" clip-rule="evenodd" d="M46.2874 17.6406H67.9304L69.8277 20.1868C69.922 20.3134 69.895 20.4919 69.7673 20.5855C69.6397 20.6791 69.4597 20.6523 69.3653 20.5257L67.6404 18.2108H46.5511L39.8017 25.987H41.6688C41.8275 25.987 41.9563 26.1147 41.9563 26.2721C41.9563 26.4296 41.8275 26.5572 41.6688 26.5572H38.5482L46.2874 17.6406Z" fill="#4A4A49"/>
<path fill-rule="evenodd" clip-rule="evenodd" d="M54.0228 36.0654C54.1816 36.0654 54.3103 36.1931 54.3103 36.3505V39.8288C54.3103 39.9863 54.1816 40.1139 54.0228 40.1139C53.8641 40.1139 53.7354 39.9863 53.7354 39.8288V36.3505C53.7354 36.1931 53.8641 36.0654 54.0228 36.0654Z" fill="#4A4A49"/>
<path fill-rule="evenodd" clip-rule="evenodd" d="M78.5737 13.2036L78.9392 40.0736L78.9393 40.0747C78.9393 40.076 78.9393 40.0773 78.9393 40.0785V58.5789L68.0273 57.3969C67.8695 57.3798 67.7555 57.239 67.7728 57.0825C67.79 56.926 67.9319 56.813 68.0898 56.8301L78.3643 57.9431V40.3565H53.7905L47.1523 42.9803V57.7264H41.4244V26.7785C41.4244 26.621 41.5531 26.4934 41.7119 26.4934C41.8707 26.4934 41.9994 26.621 41.9994 26.7785V57.1562H46.5773V42.5937L53.6802 39.7863H78.3603L78.0112 14.1238L70.0636 18.1015V22.452H68.2023C68.0435 22.452 67.9148 22.3244 67.9148 22.1669C67.9148 22.0095 68.0435 21.8818 68.2023 21.8818H69.4887V17.7505L78.5737 13.2036Z" fill="#4A4A49"/>
<path fill-rule="evenodd" clip-rule="evenodd" d="M78.3665 13.7211C78.3861 13.5649 78.5297 13.454 78.6873 13.4734L85.5223 14.317V19.1448H87.8077V17.135L115.872 21.0207V54.016L90.6752 55.6718V40.9632C88.8121 40.158 87.3584 39.7314 85.8922 39.7123C84.4247 39.6931 82.9156 40.082 80.9443 40.9607V56.4933C80.9443 56.6508 80.8156 56.7784 80.6569 56.7784C80.4981 56.7784 80.3694 56.6508 80.3694 56.4933V40.5939L80.5373 40.5177C82.6301 39.5681 84.2717 39.1209 85.8998 39.1421C87.526 39.1634 89.1079 39.6519 91.0789 40.5162L91.2501 40.5913V55.0625L115.297 53.4824V21.5169L88.3826 17.7903V19.715H84.9473V14.8207L78.6163 14.0392C78.4587 14.0198 78.3469 13.8774 78.3665 13.7211Z" fill="#4A4A49"/>
<path fill-rule="evenodd" clip-rule="evenodd" d="M47.0702 19.729C47.229 19.7314 47.3558 19.8609 47.3534 20.0183L47.0795 38.3688L53.7834 35.7797L78.6549 36.0512C78.8137 36.0529 78.941 36.182 78.9392 36.3394C78.9375 36.4969 78.8074 36.6231 78.6486 36.6214L53.8884 36.3511L46.4919 39.2076L46.7786 20.0099C46.7809 19.8524 46.9115 19.7267 47.0702 19.729Z" fill="#4A4A49"/>
<path fill-rule="evenodd" clip-rule="evenodd" d="M46.6407 19.729H66.844L68.3815 21.9407C68.4716 22.0703 68.4387 22.2478 68.308 22.3372C68.1772 22.4266 67.9982 22.394 67.9081 22.2643L66.5421 20.2992H46.9164L41.9361 26.4506C41.8367 26.5734 41.6557 26.593 41.5319 26.4944C41.4081 26.3958 41.3884 26.2164 41.4878 26.0936L46.6407 19.729Z" fill="#4A4A49"/>
<path fill-rule="evenodd" clip-rule="evenodd" d="M55.913 24.5688L64.458 25.1802V32.8364L55.913 32.2327V24.5688ZM56.4879 25.1817V31.7017L63.8831 32.2241V25.7107L56.4879 25.1817Z" fill="#4A4A49"/>
<path fill-rule="evenodd" clip-rule="evenodd" d="M81.2606 26.6655L89.8057 27.04V34.5625L81.2606 34.3256V26.6655ZM81.8356 27.2615V33.7711L89.2307 33.9761V27.5855L81.8356 27.2615Z" fill="#4A4A49"/>
<path fill-rule="evenodd" clip-rule="evenodd" d="M103.224 11.3594L117.324 20.0627V21.732L87.0531 17.5253V15.8783L103.224 11.3594ZM87.628 16.31V17.0294L116.749 21.0764V20.3794L103.136 11.9765L87.628 16.31Z" fill="#4A4A49"/>
<path fill-rule="evenodd" clip-rule="evenodd" d="M102.971 13.6475L113.594 19.3356L113.415 19.8685L91.6606 16.6611L91.6416 16.1005L102.971 13.6475ZM93.2967 16.3258L111.879 19.0656L102.886 14.2496L93.2967 16.3258Z" fill="#4A4A49"/>
<path fill-rule="evenodd" clip-rule="evenodd" d="M48.9562 44.0698C49.1149 44.0698 49.2436 44.1975 49.2436 44.3549V57.8546H46.7858C46.627 57.8546 46.4983 57.7269 46.4983 57.5695C46.4983 57.412 46.627 57.2844 46.7858 57.2844H48.6687V44.3549C48.6687 44.1975 48.7974 44.0698 48.9562 44.0698Z" fill="#4A4A49"/>
<path fill-rule="evenodd" clip-rule="evenodd" d="M54.1614 41.9741H67.7854C67.9442 41.9741 68.0729 42.1018 68.0729 42.2592C68.0729 42.4167 67.9442 42.5443 67.7854 42.5443H54.2722L49.063 44.6123C48.9156 44.6708 48.7482 44.5997 48.6892 44.4536C48.6302 44.3074 48.7019 44.1414 48.8493 44.0829L54.1614 41.9741Z" fill="#4A4A49"/>
<path fill-rule="evenodd" clip-rule="evenodd" d="M54.0229 42.188C54.1816 42.188 54.3103 42.3156 54.3103 42.4731V57.8544H48.2303C48.0716 57.8544 47.9429 57.7268 47.9429 57.5693C47.9429 57.4119 48.0716 57.2842 48.2303 57.2842H53.7354V42.4731C53.7354 42.3156 53.8641 42.188 54.0229 42.188Z" fill="#4A4A49"/>
<path fill-rule="evenodd" clip-rule="evenodd" d="M54.4612 23.1919L65.9025 23.7848V32.8152H64.0267C63.868 32.8152 63.7393 32.6875 63.7393 32.5301C63.7393 32.3726 63.868 32.245 64.0267 32.245H65.3276V24.326L55.0361 23.7927V31.6819H56.3369C56.4957 31.6819 56.6244 31.8095 56.6244 31.967C56.6244 32.1244 56.4957 32.2521 56.3369 32.2521H54.4612V23.1919Z" fill="#4A4A49"/>
<path fill-rule="evenodd" clip-rule="evenodd" d="M79.816 25.2734L91.2573 25.8663V34.5475H89.8847C89.7259 34.5475 89.5972 34.4198 89.5972 34.2624C89.5972 34.1049 89.7259 33.9772 89.8847 33.9772H90.6824V26.4075L80.391 25.8742V33.7634H81.6918C81.8505 33.7634 81.9793 33.8911 81.9793 34.0485C81.9793 34.206 81.8505 34.3336 81.6918 34.3336H79.816V25.2734Z" fill="#4A4A49"/>
<path fill-rule="evenodd" clip-rule="evenodd" d="M99.364 42.6729H108.34V54.0841C108.34 54.2416 108.212 54.3692 108.053 54.3692C107.894 54.3692 107.765 54.2416 107.765 54.0841V43.2431H99.939V54.7826C99.939 54.9401 99.8102 55.0677 99.6515 55.0677C99.4927 55.0677 99.364 54.9401 99.364 54.7826V42.6729Z" fill="#4A4A49"/>
<path fill-rule="evenodd" clip-rule="evenodd" d="M97.9194 41.2832H109.72V54.0843C109.72 54.2418 109.591 54.3694 109.433 54.3694C109.274 54.3694 109.145 54.2418 109.145 54.0843V41.8534H98.4944V54.7828C98.4944 54.9403 98.3657 55.068 98.2069 55.068C98.0481 55.068 97.9194 54.9403 97.9194 54.7828V41.2832Z" fill="#4A4A49"/>
<path fill-rule="evenodd" clip-rule="evenodd" d="M124.927 54.2939V56.0874L99.3667 58.7118L90.9565 57.5854L78.6781 58.7086C78.5201 58.7231 78.3801 58.6077 78.3655 58.4509C78.3509 58.2941 78.4672 58.1553 78.6253 58.1408L90.6752 57.0386V55.5218L99.6538 56.4278L124.927 54.2939ZM91.2501 57.0494L99.3757 58.1376L124.352 55.5732V54.9148L99.6491 57.0005L91.2501 56.153V57.0494Z" fill="#4A4A49"/>
<path fill-rule="evenodd" clip-rule="evenodd" d="M99.6515 56.5859C99.8102 56.5859 99.939 56.7136 99.939 56.871V58.2609C99.939 58.4184 99.8102 58.546 99.6515 58.546C99.4927 58.546 99.364 58.4184 99.364 58.2609V56.871C99.364 56.7136 99.4927 56.5859 99.6515 56.5859Z" fill="#4A4A49"/>
<path fill-rule="evenodd" clip-rule="evenodd" d="M91.2483 55.4487C91.2662 55.6051 91.1529 55.7464 90.9952 55.7642L78.6843 57.1541C78.5265 57.1719 78.3841 57.0595 78.3661 56.9031C78.3482 56.7466 78.4615 56.6053 78.6192 56.5875L90.9301 55.1977C91.0879 55.1798 91.2303 55.2922 91.2483 55.4487Z" fill="#4A4A49"/>
<path fill-rule="evenodd" clip-rule="evenodd" d="M115.665 53.7191C115.677 53.5622 115.816 53.4453 115.974 53.458L124.663 54.1565C124.821 54.1692 124.939 54.3067 124.926 54.4637C124.914 54.6206 124.775 54.7375 124.617 54.7248L115.928 54.0263C115.77 54.0136 115.652 53.8761 115.665 53.7191Z" fill="#4A4A49"/>
<path fill-rule="evenodd" clip-rule="evenodd" d="M104 42.6729C104.158 42.6729 104.287 42.8005 104.287 42.958V54.0841C104.287 54.2416 104.158 54.3692 104 54.3692C103.841 54.3692 103.712 54.2416 103.712 54.0841V42.958C103.712 42.8005 103.841 42.6729 104 42.6729Z" fill="#4A4A49"/>
<path fill-rule="evenodd" clip-rule="evenodd" d="M60.5411 25.2886C60.6999 25.2886 60.8286 25.4162 60.8286 25.5737V31.8317C60.8286 31.9892 60.6999 32.1168 60.5411 32.1168C60.3824 32.1168 60.2537 31.9892 60.2537 31.8317V25.5737C60.2537 25.4162 60.3824 25.2886 60.5411 25.2886Z" fill="#4A4A49"/>
<path fill-rule="evenodd" clip-rule="evenodd" d="M85.896 27.0278C86.0548 27.0278 86.1835 27.1555 86.1835 27.3129V33.9202C86.1835 34.0777 86.0548 34.2053 85.896 34.2053C85.7372 34.2053 85.6085 34.0777 85.6085 33.9202V27.3129C85.6085 27.1555 85.7372 27.0278 85.896 27.0278Z" fill="#4A4A49"/>
<path fill-rule="evenodd" clip-rule="evenodd" d="M68.0655 56.9947C68.072 57.152 67.9486 57.2848 67.79 57.2912L54.0345 57.8471C53.8759 57.8535 53.7421 57.7312 53.7356 57.5739C53.7291 57.4165 53.8525 57.2838 54.0111 57.2774L67.7666 56.7214C67.9252 56.715 68.059 56.8374 68.0655 56.9947Z" fill="#4A4A49"/>
<path fill-rule="evenodd" clip-rule="evenodd" d="M87.3798 15.8418C87.5084 15.9342 87.5371 16.1125 87.444 16.24L85.5539 18.8273C85.4607 18.9548 85.281 18.9833 85.1524 18.8909C85.0238 18.7985 84.9951 18.6203 85.0883 18.4928L86.9784 15.9054C87.0715 15.7779 87.2513 15.7495 87.3798 15.8418Z" fill="#4A4A49"/>
<path fill-rule="evenodd" clip-rule="evenodd" d="M104.122 25.6381C101.404 25.6381 99.2346 27.7497 99.2346 30.3138C99.2346 32.8779 101.404 34.9895 104.122 34.9895C106.839 34.9895 109.009 32.8779 109.009 30.3138C109.009 27.7497 106.839 25.6381 104.122 25.6381ZM98.6597 30.3138C98.6597 27.4181 101.104 25.0679 104.122 25.0679C107.139 25.0679 109.584 27.4181 109.584 30.3138C109.584 33.2094 107.139 35.5597 104.122 35.5597C101.104 35.5597 98.6597 33.2094 98.6597 30.3138Z" fill="#4A4A49"/>
<path fill-rule="evenodd" clip-rule="evenodd" d="M104.122 26.807C102.08 26.807 100.449 28.3985 100.449 30.3138C100.449 32.2291 102.08 33.8206 104.122 33.8206C106.164 33.8206 107.794 32.2359 107.794 30.3138C107.794 28.3985 106.164 26.807 104.122 26.807ZM99.8743 30.3138C99.8743 28.0666 101.78 26.2368 104.122 26.2368C106.464 26.2368 108.369 28.0666 108.369 30.3138C108.369 32.5685 106.463 34.3908 104.122 34.3908C101.78 34.3908 99.8743 32.561 99.8743 30.3138Z" fill="#4A4A49"/>
<path fill-rule="evenodd" clip-rule="evenodd" d="M89.1516 39.8789C89.3104 39.8789 89.4391 40.0066 89.4391 40.164V55.4741C89.4391 55.6315 89.3104 55.7592 89.1516 55.7592C88.9928 55.7592 88.8641 55.6315 88.8641 55.4741V40.164C88.8641 40.0066 88.9928 39.8789 89.1516 39.8789Z" fill="#4A4A49"/>
<path fill-rule="evenodd" clip-rule="evenodd" d="M67.7782 42.2095C67.937 42.2095 68.0657 42.3371 68.0657 42.4946V57.0063C68.0657 57.1638 67.937 57.2914 67.7782 57.2914C67.6194 57.2914 67.4907 57.1638 67.4907 57.0063V42.4946C67.4907 42.3371 67.6194 42.2095 67.7782 42.2095Z" fill="#4A4A49"/>
<path fill-rule="evenodd" clip-rule="evenodd" d="M68.3173 22.0029C68.476 22.0029 68.6047 22.1306 68.6047 22.288V36.0158C68.6047 36.1732 68.476 36.3009 68.3173 36.3009C68.1585 36.3009 68.0298 36.1732 68.0298 36.0158V22.288C68.0298 22.1306 68.1585 22.0029 68.3173 22.0029Z" fill="#4A4A49"/>
<path fill-rule="evenodd" clip-rule="evenodd" d="M69.6683 22.0029C69.8271 22.0029 69.9558 22.1306 69.9558 22.288V36.0158C69.9558 36.1732 69.8271 36.3009 69.6683 36.3009C69.5096 36.3009 69.3809 36.1732 69.3809 36.0158V22.288C69.3809 22.1306 69.5096 22.0029 69.6683 22.0029Z" fill="#4A4A49"/>
<path fill-rule="evenodd" clip-rule="evenodd" d="M70.9243 6.55171C71.0347 6.66488 71.0317 6.84537 70.9175 6.95486C65.9267 11.7434 60.0373 12.496 54.6483 13.1848C54.4741 13.207 54.3004 13.2292 54.1272 13.2515C48.5726 13.9659 43.6416 14.7472 40.5268 19.7856C39.7364 21.0655 38.9645 21.8076 38.1185 22.2478C37.278 22.685 36.3924 22.8082 35.421 22.9024C35.2755 22.9165 35.1273 22.93 34.9761 22.9437C33.1156 23.1132 30.7952 23.3246 27.4451 25.2227L27.4451 25.2228C24.5675 26.8526 23.398 29.2532 22.3933 31.3156C22.3089 31.4888 22.2257 31.6596 22.1427 31.8274C21.6143 32.8958 21.0791 33.8764 20.2834 34.4968C19.4629 35.1366 18.4055 35.3669 16.9062 35.0398C16.7511 35.006 16.6531 34.8539 16.6872 34.7001C16.7213 34.5463 16.8747 34.4491 17.0297 34.4829C18.4051 34.783 19.2746 34.5581 19.9281 34.0485C20.6064 33.5196 21.0921 32.6569 21.6265 31.5763C21.7097 31.4081 21.7937 31.2354 21.8794 31.0591C22.8805 29.0006 24.1216 26.4486 27.1599 24.7276L27.3025 24.9752L27.1599 24.7276C30.6187 22.7679 33.0401 22.5474 34.9215 22.3761C35.0728 22.3623 35.2205 22.3489 35.365 22.3349C36.3322 22.2411 37.1184 22.1241 37.8514 21.7428C38.5788 21.3644 39.282 20.7096 40.0366 19.4877L40.0367 19.4876C43.311 14.1911 48.5241 13.3972 54.0532 12.686C54.2132 12.6655 54.3735 12.645 54.534 12.6244C59.9484 11.9316 65.6661 11.2 70.5178 6.54504C70.6319 6.43556 70.8139 6.43855 70.9243 6.55171Z" fill="#4A4A49"/>
<path fill-rule="evenodd" clip-rule="evenodd" d="M5.5386 19.3192C4.71492 19.6899 3.69512 19.7903 2.33839 19.4197C2.18533 19.3778 2.09543 19.2209 2.13759 19.0691C2.17976 18.9173 2.33803 18.8281 2.49109 18.8699C3.74315 19.212 4.62155 19.1058 5.30103 18.8C5.99167 18.4892 6.51105 17.9583 7.02337 17.3774C7.09133 17.3004 7.15948 17.222 7.22813 17.1431C7.66236 16.6436 8.11632 16.1215 8.66557 15.7708C9.32925 15.3471 10.1252 15.1728 11.1888 15.4706L11.1894 15.4707C11.5143 15.5625 11.7037 15.7466 11.8642 15.9229C11.8891 15.9503 11.9133 15.9774 11.9372 16.0042C12.0666 16.1491 12.1883 16.2855 12.3834 16.4212C12.839 16.738 13.7378 17.0707 15.9833 17.0707C16.3426 17.0707 16.63 17.0993 16.8525 17.1626C17.0754 17.226 17.265 17.3337 17.3778 17.5149C17.4909 17.6965 17.4923 17.8967 17.4607 18.069C17.4296 18.2394 17.3596 18.4182 17.2857 18.5879C17.2473 18.6761 17.2071 18.7638 17.1669 18.8516C17.0434 19.1212 16.9195 19.3918 16.8438 19.6823C16.7473 20.0526 16.7435 20.412 16.9337 20.7633C17.5622 21.9232 18.8312 22.4153 20.3184 22.5476C21.8 22.6794 23.4205 22.4453 24.6356 22.2284C24.7918 22.2005 24.9413 22.3036 24.9694 22.4585C24.9975 22.6135 24.8936 22.7617 24.7374 22.7896C23.5162 23.0076 21.8308 23.2546 20.267 23.1155C18.7088 22.9769 17.1929 22.4463 16.4272 21.0331L16.4272 21.033C16.1466 20.5149 16.168 19.9967 16.2871 19.5396C16.3767 19.196 16.5302 18.8615 16.6573 18.5845C16.6937 18.5052 16.728 18.4305 16.7579 18.3617C16.8295 18.1973 16.8764 18.0692 16.895 17.9671C16.9134 17.867 16.8977 17.8291 16.8886 17.8145C16.8792 17.7995 16.8416 17.7527 16.6939 17.7107C16.5458 17.6686 16.3194 17.6409 15.9833 17.6409C13.7012 17.6409 12.6559 17.3071 12.0533 16.888C11.7983 16.7107 11.63 16.5213 11.5 16.3749C11.4781 16.3503 11.4573 16.3268 11.4373 16.3049C11.2993 16.1532 11.1995 16.0665 11.0323 16.0192C10.1233 15.7648 9.49817 15.9174 8.97677 16.2503C8.5032 16.5526 8.11016 17.0035 7.67047 17.5079C7.60038 17.5883 7.5291 17.6701 7.45612 17.7529C6.93983 18.3382 6.35111 18.9536 5.5386 19.3192Z" fill="#4A4A49"/>
<path fill-rule="evenodd" clip-rule="evenodd" d="M132.012 53.4674C131.354 53.5073 130.539 53.5568 129.017 53.5568H115.771C115.613 53.5568 115.484 53.4291 115.484 53.2717C115.484 53.1142 115.613 52.9865 115.771 52.9865H129.017C130.52 52.9865 131.317 52.9382 131.974 52.8984C132.15 52.8877 132.316 52.8777 132.483 52.8693C133.282 52.8293 134.078 52.8301 135.997 52.9875C136.155 53.0005 136.273 53.1382 136.26 53.2952C136.247 53.4521 136.108 53.5688 135.95 53.5558C134.046 53.3996 133.278 53.4004 132.512 53.4388C132.35 53.4469 132.187 53.4568 132.012 53.4674Z" fill="#4A4A49"/>
<path fill-rule="evenodd" clip-rule="evenodd" d="M46.8273 57.4331C46.8436 57.5897 46.7288 57.7298 46.5709 57.746L46.5414 57.4624L46.5119 57.1788C46.6698 57.1626 46.811 57.2765 46.8273 57.4331ZM46.5119 57.1788L46.5414 57.4624L46.5709 57.746L46.5347 57.7496L46.4317 57.7599C46.3423 57.7687 46.2126 57.7812 46.0516 57.7963C45.7298 57.8265 45.2824 57.8667 44.7804 57.9069C43.7793 57.9871 42.551 58.0682 41.6688 58.0682C41.6363 58.0682 41.5973 58.0695 41.4712 58.2483C41.4486 58.2804 41.4238 58.3173 41.3966 58.3579C41.2887 58.519 41.1416 58.7384 40.9306 58.9496C40.377 59.5037 39.4064 59.9998 37.3639 59.9998C36.101 59.9998 35.174 59.9891 34.5623 59.9784C34.2564 59.973 34.0294 59.9676 33.8785 59.9636C33.8031 59.9616 33.7468 59.9599 33.7092 59.9587L33.6668 59.9573L33.6525 59.9568C33.4939 59.9511 33.3696 59.8189 33.3754 59.6615C33.3812 59.5041 33.5146 59.3813 33.6732 59.387C33.6732 59.387 33.6732 59.387 33.6732 59.387L33.6864 59.3875L33.7274 59.3888C33.7641 59.39 33.8195 59.3916 33.894 59.3936C34.043 59.3976 34.2683 59.4029 34.5724 59.4082C35.1807 59.4189 36.1043 59.4296 37.3639 59.4296C39.31 59.4296 40.111 58.9599 40.5222 58.5482C40.6897 58.3805 40.7974 58.2205 40.903 58.0635C40.935 58.0159 40.9668 57.9687 41.0001 57.9215C41.1293 57.7382 41.3204 57.498 41.6688 57.498C42.5257 57.498 43.7338 57.4187 44.7341 57.3386C45.2329 57.2986 45.6776 57.2586 45.9976 57.2286C46.1575 57.2137 46.2863 57.2012 46.3749 57.1924L46.4768 57.1823L46.5119 57.1788Z" fill="#4A4A49"/>
<path d="M70.8398 54.2554C70.8973 54.3195 70.9548 54.3837 71.0195 54.4478C71.5513 54.9753 72.3994 55.4956 73.6858 55.4956C74.9722 55.4956 75.8203 54.9753 76.3521 54.4478C76.4168 54.3837 76.4743 54.3195 76.5317 54.2554V58.147H70.847V54.2554H70.8398Z" fill="white"/>
<path fill-rule="evenodd" clip-rule="evenodd" d="M76.8192 53.5054V58.432H70.5596V54.3717L70.1997 53.9701H71.1345V54.1541C71.1635 54.1855 71.1924 54.2159 71.2228 54.2461C71.7098 54.7291 72.4876 55.2103 73.6858 55.2103C74.884 55.2103 75.6618 54.7291 76.1488 54.2461C76.2066 54.1888 76.2587 54.1308 76.3169 54.0658L76.8192 53.5054ZM71.1345 54.9324V57.8618H76.2443V54.9267C75.666 55.3893 74.8355 55.7806 73.6858 55.7806C72.5409 55.7806 71.7125 55.3925 71.1345 54.9324Z" fill="#4A4A49"/>
<path d="M122.34 50.292C122.398 50.349 122.462 50.4132 122.534 50.4773C123.066 50.9406 123.914 51.3896 125.186 51.3896C126.458 51.3896 127.306 50.9406 127.838 50.4773C127.91 50.4132 127.974 50.3561 128.032 50.292V53.6348H122.347V50.292H122.34Z" fill="white"/>
<path fill-rule="evenodd" clip-rule="evenodd" d="M128.319 49.5425V53.9203H122.06V50.4176L121.646 50.0073H122.635V50.1805C122.664 50.2085 122.694 50.2366 122.725 50.2646C123.209 50.6855 123.99 51.1049 125.186 51.1049C126.382 51.1049 127.163 50.6855 127.647 50.2646L127.65 50.2617C127.723 50.1965 127.773 50.1517 127.817 50.1029L128.319 49.5425ZM127.744 50.9154C127.164 51.3295 126.332 51.6751 125.186 51.6751C124.045 51.6751 123.215 51.3324 122.635 50.9205V53.3501H127.744V50.9154Z" fill="#4A4A49"/>
<path fill-rule="evenodd" clip-rule="evenodd" d="M73.7504 46.2012C74.7422 46.2012 75.6046 46.7144 76.0645 47.4699C76.1795 47.4556 76.2945 47.4485 76.4095 47.4485C77.8756 47.4485 79.0686 48.5675 79.0686 49.9432C79.0686 50.5347 78.853 51.0764 78.4865 51.5041C78.853 51.9318 79.0686 52.4734 79.0686 53.065C79.0686 54.4407 77.8828 55.5597 76.4095 55.5597C76.1364 55.5597 75.8777 55.5241 75.6333 55.4528C75.1518 55.9018 74.4906 56.1869 73.7576 56.1869C72.9239 56.1869 72.1837 55.8305 71.695 55.2675C71.3213 55.4599 70.8901 55.5668 70.4373 55.5668C68.9712 55.5668 67.7782 54.4478 67.7782 53.0722C67.7782 52.2881 68.1591 51.5968 68.7556 51.1335C68.5544 50.7842 68.4394 50.3779 68.4394 49.9503C68.4394 48.5747 69.6252 47.4556 71.0985 47.4556C71.2135 47.4556 71.3285 47.4556 71.4434 47.477C71.9034 46.7215 72.7658 46.2083 73.7576 46.2083L73.7504 46.2012Z" fill="white"/>
<path fill-rule="evenodd" clip-rule="evenodd" d="M73.3811 46.3837C72.6176 46.5482 71.8716 47.1286 71.4174 47.6354L71.3331 47.7295L71.2079 47.7502C69.5447 48.0251 68.9157 48.6325 68.7082 49.1662C68.4915 49.7236 68.6721 50.3514 68.9382 50.7735L69.0712 50.9847L68.9171 51.1812C67.9766 52.3805 67.9452 53.549 68.4491 54.3134C68.9542 55.0794 70.0923 55.584 71.797 55.2459L72.0115 55.2034L72.1481 55.3727C72.6211 55.9592 73.256 56.0918 73.9102 55.9998C74.5778 55.906 75.225 55.5791 75.6113 55.3054L75.705 55.239H75.8202C76.787 55.239 77.4476 55.0673 77.8909 54.8177C78.3265 54.5725 78.5709 54.2422 78.6961 53.8769C78.9563 53.118 78.715 52.1557 78.3735 51.4782L78.2968 51.3261L78.3678 51.1714C78.708 50.4291 78.7826 49.8637 78.716 49.4379C78.6505 49.0188 78.4431 48.701 78.1489 48.4552C77.5393 47.9457 76.5623 47.755 75.8202 47.755L75.6088 47.755L75.5061 47.5717C75.1734 46.9778 74.8111 46.6518 74.4639 46.4874C74.1184 46.3238 73.7529 46.3036 73.3811 46.3837ZM76.029 47.0465C75.6655 46.4579 75.2413 46.0656 74.7735 45.8442C74.258 45.6001 73.7252 45.5802 73.2286 45.6872C72.3085 45.8854 71.4799 46.5241 70.9662 47.0684C69.2603 47.3751 68.3673 48.0619 68.0377 48.9097C67.7508 49.6475 67.9333 50.404 68.206 50.9356C67.2661 52.2496 67.1632 53.6654 67.8476 54.7034C68.5379 55.7505 69.9408 56.2797 71.7308 55.9826C72.3909 56.6785 73.2431 56.8135 74.011 56.7055C74.768 56.5992 75.4749 56.2565 75.9335 55.951C76.9233 55.9381 77.6817 55.7551 78.2457 55.4376C78.8388 55.1037 79.1963 54.6321 79.3765 54.1064C79.7041 53.1508 79.4344 52.0617 79.0901 51.3126C79.4147 50.5522 79.5146 49.8941 79.4262 49.3286C79.3308 48.7186 79.0216 48.2524 78.612 47.9101C77.8801 47.2986 76.8273 47.0786 76.029 47.0465Z" fill="#4A4A49"/>
<path fill-rule="evenodd" clip-rule="evenodd" d="M125.466 42.9791C126.379 42.9791 127.177 43.4495 127.594 44.148C127.694 44.1338 127.802 44.1266 127.91 44.1266C129.261 44.1266 130.353 45.153 130.353 46.4217C130.353 46.9634 130.152 47.4623 129.814 47.8544C130.152 48.2464 130.353 48.7453 130.353 49.287C130.353 50.5557 129.261 51.5821 127.91 51.5821C127.658 51.5821 127.421 51.5465 127.198 51.4823C126.753 51.8957 126.142 52.1523 125.466 52.1523C124.697 52.1523 124.022 51.8244 123.569 51.3041C123.224 51.4752 122.829 51.575 122.412 51.575C121.061 51.575 119.968 50.5486 119.968 49.2799C119.968 48.56 120.321 47.9185 120.874 47.498C120.687 47.1772 120.579 46.8066 120.579 46.4075C120.579 45.1388 121.672 44.1124 123.023 44.1124C123.131 44.1124 123.238 44.1124 123.339 44.1338C123.756 43.4353 124.554 42.9648 125.466 42.9648V42.9791Z" fill="white"/>
<path fill-rule="evenodd" clip-rule="evenodd" d="M10.3651 37.5352C6.36847 37.3118 2.49339 37.7558 1.04538 38.1848C0.893262 38.2299 0.733098 38.1442 0.687645 37.9933C0.642192 37.8424 0.728663 37.6836 0.880783 37.6385C2.41528 37.1838 6.36298 36.7404 10.3975 36.9659C12.4189 37.079 14.477 37.3605 16.2765 37.8993C18.0714 38.4368 19.6388 39.239 20.644 40.4144L20.6441 40.4144C22.0095 42.0117 22.7646 43.2472 23.2537 44.2552C23.4977 44.7582 23.674 45.2014 23.8255 45.5978C23.8551 45.6754 23.8836 45.7507 23.9114 45.824C24.0269 46.1291 24.1295 46.3999 24.2454 46.6564C24.5246 47.2738 24.8752 47.7933 25.6406 48.3586C26.4192 48.9337 27.6297 49.558 29.6381 50.363C30.1795 50.5799 30.6957 50.7856 31.1864 50.9811C32.5178 51.5117 33.6612 51.9672 34.6077 52.3694C35.8962 52.9169 36.8523 53.3785 37.4312 53.8121C37.7202 54.0286 37.9458 54.26 38.0581 54.5197C38.179 54.7991 38.1561 55.0819 38.0061 55.3487C37.8652 55.5992 37.617 55.8291 37.298 56.0511C36.9751 56.2759 36.5561 56.5084 36.046 56.7564C35.9034 56.8257 35.7312 56.7673 35.6613 56.6259C35.5914 56.4845 35.6503 56.3137 35.7929 56.2444C36.2907 56.0024 36.6798 55.7848 36.9678 55.5844C37.2597 55.3812 37.4253 55.2108 37.5039 55.071C37.5733 54.9476 37.5755 54.8502 37.5297 54.7445C37.4755 54.6191 37.3428 54.4605 37.0847 54.2671C36.5694 53.8811 35.6759 53.4437 34.3812 52.8935C33.4412 52.4941 32.307 52.0422 30.9782 51.5127C30.4864 51.3167 29.9679 51.1101 29.4227 50.8916C27.403 50.0822 26.1367 49.436 25.2972 48.8159C24.4444 48.186 24.0355 47.5855 23.7208 46.8897C23.5968 46.6154 23.4864 46.3237 23.3703 46.0171C23.3432 45.9455 23.3158 45.8731 23.2878 45.7998C23.1386 45.4094 22.9691 44.9838 22.7356 44.5025C22.2695 43.542 21.5423 42.3469 20.2055 40.7831C19.3027 39.7276 17.8562 38.968 16.1103 38.4452C14.3689 37.9238 12.3593 37.6467 10.3651 37.5352Z" fill="#4A4A49"/>
<path fill-rule="evenodd" clip-rule="evenodd" d="M17.7236 35.1088C13.8441 34.603 8.90681 34.8204 2.73588 35.5432L2.66846 34.9769C8.85156 34.2527 13.8463 34.0282 17.7986 34.5435C21.7549 35.0592 24.6957 36.3203 26.7338 38.5915C27.9988 40.0011 28.4082 41.1223 28.386 42.075C28.3668 42.8968 28.0211 43.5564 27.7446 44.0841C27.7062 44.1572 27.6692 44.2278 27.6346 44.296C27.4865 44.5876 27.3855 44.8236 27.3578 45.0425C27.3321 45.2448 27.3679 45.4427 27.5278 45.6665C27.6959 45.9018 28.007 46.1731 28.5519 46.4887C29.0942 46.8027 29.8492 47.1501 30.8842 47.5457C32.9658 48.3412 34.4556 48.8794 35.5769 49.2758C35.9595 49.4111 36.3003 49.5302 36.6078 49.6377C37.1986 49.8443 37.666 50.0077 38.0686 50.1592C39.3144 50.6278 39.9687 50.9935 41.81 52.1693L41.4987 52.6487C39.6676 51.4794 39.0535 51.1395 37.8647 50.6923C37.4684 50.5432 37.0112 50.3834 36.4258 50.1787C36.1174 50.0709 35.7734 49.9506 35.3839 49.8129C34.2586 49.4151 32.7641 48.8752 30.6774 48.0777C29.6282 47.6767 28.8415 47.3167 28.262 46.9811C27.6851 46.647 27.2946 46.3264 27.0587 45.9962C26.8145 45.6545 26.744 45.3132 26.7873 44.9714C26.8285 44.6462 26.9719 44.3332 27.1212 44.0394C27.1594 43.9641 27.1985 43.8891 27.2375 43.814C27.5154 43.2802 27.7953 42.7424 27.8112 42.0618C27.8289 41.3026 27.5115 40.3158 26.3043 38.9706L26.5191 38.781L26.3043 38.9706C24.3897 36.8369 21.5991 35.614 17.7236 35.1088Z" fill="#4A4A49"/>
<path fill-rule="evenodd" clip-rule="evenodd" d="M6.28127 38.1681C6.05848 38.218 5.8285 38.2465 5.59134 38.2465C4.03181 38.2465 2.76694 37.1061 2.76694 35.702C2.76694 35.3812 2.83163 35.0748 2.9538 34.7896C2.5729 34.2836 2.3573 33.6777 2.3573 33.022C2.3573 31.5822 3.42094 30.3705 4.87266 29.9785C4.83673 29.8146 4.81517 29.6507 4.81517 29.4796C4.81517 28.0541 6.1016 26.8994 7.68987 26.8994C8.2145 26.8994 8.7032 27.0277 9.12722 27.2415C9.55124 27.0206 10.0399 26.8994 10.5646 26.8994C12.1528 26.8994 13.4393 28.0541 13.4393 29.4796C13.4393 29.672 13.4177 29.8645 13.3674 30.0427C14.1579 30.6271 14.6682 31.511 14.6682 32.5017C14.6682 32.7369 14.6395 32.965 14.5891 33.1859C15.0922 33.6421 15.4013 34.2765 15.4013 34.9678C15.4013 36.372 14.1364 37.5124 12.5769 37.5124C12.5409 37.5124 12.505 37.5124 12.4691 37.5124C11.9516 38.6884 10.6724 39.5224 9.18471 39.5224C7.99171 39.5224 6.93526 38.9878 6.29564 38.1753L6.28127 38.1681Z" fill="white"/>
<path fill-rule="evenodd" clip-rule="evenodd" d="M18.0172 47.4481C17.8304 47.4909 17.6292 47.5123 17.4279 47.5123C16.0984 47.5123 15.0204 46.5429 15.0204 45.3455C15.0204 45.0675 15.0779 44.8109 15.1785 44.5686C14.8551 44.1338 14.6682 43.6206 14.6682 43.0575C14.6682 41.8316 15.5737 40.7981 16.8171 40.4631C16.7883 40.3277 16.7739 40.178 16.7739 40.0354C16.7739 38.8166 17.8735 37.833 19.2246 37.833C19.6702 37.833 20.087 37.9399 20.4464 38.1252C20.8057 37.9399 21.2225 37.833 21.6681 37.833C23.0192 37.833 24.1188 38.8166 24.1188 40.0354C24.1188 40.1994 24.0972 40.3633 24.0613 40.5201C24.7369 41.019 25.1681 41.7746 25.1681 42.6227C25.1681 42.8223 25.1465 43.0148 25.0962 43.2072C25.5274 43.5992 25.7861 44.1338 25.7861 44.7254C25.7861 45.9228 24.7081 46.8922 23.3786 46.8922C23.3498 46.8922 23.3139 46.8922 23.2851 46.8922C22.8467 47.8972 21.7543 48.6099 20.4823 48.6099C19.4618 48.6099 18.5634 48.1537 18.0172 47.4624V47.4481Z" fill="white"/>
<path fill-rule="evenodd" clip-rule="evenodd" d="M9.32084 31.9458C9.47961 31.9456 9.60846 32.0731 9.60863 32.2306L9.623 45.0959C9.62318 45.2533 9.49462 45.3811 9.33585 45.3813C9.17709 45.3815 9.04824 45.254 9.04806 45.0965L9.03369 32.2312C9.03352 32.0738 9.16208 31.946 9.32084 31.9458Z" fill="#4A4A49"/>
<path fill-rule="evenodd" clip-rule="evenodd" d="M20.604 42.1025C20.7628 42.1023 20.8916 42.2298 20.8918 42.3873L20.9062 53.3566C20.9064 53.5141 20.7779 53.6419 20.6191 53.6421C20.4603 53.6423 20.3315 53.5148 20.3313 53.3574L20.3169 42.388C20.3167 42.2306 20.4452 42.1027 20.604 42.1025Z" fill="#4A4A49"/>
<path fill-rule="evenodd" clip-rule="evenodd" d="M6.13898 34.9913C6.21725 34.8543 6.39268 34.8062 6.53081 34.8838C7.28421 35.3072 7.97502 35.7128 8.51084 36.1378C9.04456 36.5611 9.46038 37.0308 9.61328 37.5953C9.65447 37.7473 9.56356 37.9037 9.41024 37.9446C9.25691 37.9854 9.09922 37.8953 9.05802 37.7432C8.9522 37.3526 8.64934 36.9777 8.15177 36.5831C7.65629 36.1902 7.00317 35.8046 6.24736 35.3799C6.10923 35.3023 6.0607 35.1283 6.13898 34.9913Z" fill="#4A4A49"/>
<path fill-rule="evenodd" clip-rule="evenodd" d="M17.8537 44.7197C17.9323 44.5829 18.1078 44.5352 18.2458 44.6131C18.8876 44.9759 19.4794 45.3244 19.9386 45.6886C20.3953 46.0507 20.7581 46.4567 20.8895 46.9473C20.9302 47.0995 20.8388 47.2557 20.6854 47.2961C20.5319 47.3365 20.3745 47.2458 20.3338 47.0937C20.2495 46.7789 20.0015 46.4685 19.5796 46.1339C19.1602 45.8014 18.6057 45.4728 17.9611 45.1085C17.8232 45.0306 17.7751 44.8565 17.8537 44.7197Z" fill="#4A4A49"/>
<path fill-rule="evenodd" clip-rule="evenodd" d="M12.3988 33.7328C12.4872 33.8636 12.452 34.0407 12.3201 34.1284C12.0487 34.3089 11.7697 34.4771 11.5033 34.6379C11.4582 34.6651 11.4134 34.6921 11.3692 34.7189C11.06 34.9059 10.7726 35.0838 10.5199 35.2692C10.0104 35.6431 9.69177 36.0122 9.61967 36.4727C9.59531 36.6283 9.44838 36.7349 9.2915 36.7107C9.13461 36.6866 9.02718 36.5408 9.05154 36.3853C9.15911 35.6982 9.63104 35.2121 10.178 34.8108C10.4535 34.6086 10.7608 34.419 11.0697 34.2321C11.1152 34.2046 11.1608 34.1771 11.2063 34.1496C11.4732 33.9886 11.74 33.8276 11.9999 33.6548C12.1318 33.5671 12.3103 33.602 12.3988 33.7328Z" fill="#4A4A49"/>
<path fill-rule="evenodd" clip-rule="evenodd" d="M23.2653 43.6476C23.3536 43.7785 23.3182 43.9556 23.1862 44.0431C22.9544 44.1969 22.7164 44.3402 22.4901 44.4765C22.4504 44.5004 22.4111 44.5241 22.3722 44.5475C22.1084 44.707 21.8649 44.8576 21.6514 45.0144C21.2206 45.3308 20.9611 45.6373 20.903 46.0158C20.8791 46.1715 20.7325 46.2785 20.5756 46.2548C20.4186 46.2311 20.3107 46.0857 20.3346 45.93C20.4275 45.3249 20.8399 44.9009 21.3092 44.5562C21.5458 44.3824 21.8095 44.2199 22.0731 44.0606C22.1133 44.0363 22.1535 44.0121 22.1937 43.9879C22.4203 43.8514 22.6462 43.7154 22.8665 43.5692C22.9985 43.4816 23.177 43.5167 23.2653 43.6476Z" fill="#4A4A49"/>
<path fill-rule="evenodd" clip-rule="evenodd" d="M6.38904 45.4453C6.38904 45.2878 6.51774 45.1602 6.67651 45.1602H11.0029C11.1617 45.1602 11.2904 45.2878 11.2904 45.4453C11.2904 45.6027 11.1617 45.7304 11.0029 45.7304H6.67651C6.51774 45.7304 6.38904 45.6027 6.38904 45.4453Z" fill="#4A4A49"/>
<path fill-rule="evenodd" clip-rule="evenodd" d="M18.0819 53.6567C18.0819 53.4992 18.2106 53.3716 18.3694 53.3716H22.0777C22.2365 53.3716 22.3652 53.4992 22.3652 53.6567C22.3652 53.8141 22.2365 53.9418 22.0777 53.9418H18.3694C18.2106 53.9418 18.0819 53.8141 18.0819 53.6567Z" fill="#4A4A49"/>
<path fill-rule="evenodd" clip-rule="evenodd" d="M3.6947 8.99982C2.70824 10.0477 1.58687 10.9912 0.172748 11.4337L-0.000244141 10.8899C1.27348 10.4914 2.31262 9.63245 3.27445 8.6107C3.74256 8.11342 4.18666 7.58397 4.62994 7.05549C4.64159 7.04159 4.65325 7.0277 4.6649 7.01381C5.11763 6.47412 5.57066 5.93571 6.03827 5.44997C6.97021 4.4819 7.99651 3.68305 9.27238 3.48699C10.5565 3.28966 12.0221 3.7124 13.8113 5.02373C14.3919 5.44915 14.937 5.84488 15.4489 6.21647C17.5315 7.72826 19.064 8.84077 20.2005 9.92949C21.6304 11.2993 22.4472 12.6425 22.9887 14.699C24.3008 17.4306 26.7464 18.2829 29.2221 18.9498C29.4399 19.0084 29.6585 19.0658 29.8768 19.123C30.8883 19.3885 31.892 19.6518 32.7682 20.0324C33.844 20.4997 34.7666 21.1586 35.321 22.2526L34.8073 22.5087C34.3341 21.5749 33.5417 20.9909 32.5376 20.5547C31.706 20.1935 30.7557 19.9439 29.7458 19.6787C29.5237 19.6203 29.2987 19.5612 29.0714 19.5C26.5794 18.8288 23.8862 17.9201 22.4574 14.9186L22.4458 14.8944L22.4391 14.8684C21.9241 12.8985 21.1607 11.6421 19.801 10.3396C18.6954 9.28046 17.2047 8.1981 15.127 6.68962C14.6117 6.31547 14.0603 5.9151 13.4696 5.48236L13.4696 5.48233C11.7481 4.22063 10.436 3.88518 9.36041 4.05047C8.27656 4.21702 7.36109 4.9016 6.45412 5.84373C6.00228 6.31308 5.56157 6.83646 5.10688 7.37849C5.09389 7.39398 5.08089 7.40948 5.06787 7.425C4.6276 7.9499 4.17425 8.49039 3.6947 8.99982Z" fill="#4A4A49"/>
<path fill-rule="evenodd" clip-rule="evenodd" d="M5.93829 27.7032C5.46333 28.2384 5.33158 29.1679 5.38901 29.9083L5.41105 30.1925L5.13641 30.2763C3.35571 30.8197 2.73611 31.6877 2.59034 32.4767C2.43715 33.3059 2.78172 34.1718 3.1691 34.7206L3.24553 34.8289L3.23227 34.9604C3.10186 36.2538 3.60922 37.0212 4.27566 37.4841C4.96767 37.9648 5.85891 38.1324 6.46809 38.1324H6.58787L6.68369 38.2036C8.33601 39.4327 9.58166 39.4718 10.4567 39.1206C11.3615 38.7575 11.9696 37.9385 12.2451 37.2825L12.3237 37.0955L12.526 37.0668C13.4989 36.929 14.1145 36.6788 14.4887 36.3949C14.8514 36.1197 15 35.8043 15.0309 35.4795C15.0632 35.1405 14.9689 34.7626 14.7887 34.3846C14.6097 34.0092 14.3569 33.6575 14.1064 33.3815L13.9024 33.1566L14.0929 32.9204C14.3397 32.6145 14.4356 32.335 14.4493 32.0877C14.4632 31.8374 14.3944 31.5909 14.2642 31.3528C13.9983 30.8664 13.5015 30.4628 13.1172 30.2451L12.9362 30.1425V29.9356C12.9362 29.0513 12.7643 28.4598 12.5192 28.0709C12.2788 27.6895 11.9524 27.4773 11.5816 27.3743C10.8095 27.1599 9.83074 27.4193 9.14415 27.7597L8.98345 27.8394L8.82275 27.7597C7.99315 27.3484 7.37214 27.2198 6.91573 27.2477C6.4717 27.2747 6.16258 27.4505 5.93829 27.7032ZM8.98494 27.0453C8.15953 26.6575 7.46094 26.5003 6.87161 26.5362C6.2324 26.5752 5.74648 26.8405 5.39882 27.2323C4.80455 27.9019 4.64368 28.9025 4.6589 29.6812C2.88842 30.2883 2.08136 31.277 1.88344 32.3483C1.69434 33.3718 2.08197 34.3732 2.50576 35.0197C2.39577 36.5039 3.01519 37.4787 3.86337 38.0679C4.66352 38.6237 5.64391 38.823 6.34714 38.8434C8.10285 40.1155 9.57963 40.2416 10.7263 39.7813C11.7741 39.3608 12.469 38.4801 12.8247 37.7424C13.7626 37.5889 14.4497 37.3219 14.9254 36.9609C15.4453 36.5664 15.6965 36.071 15.7464 35.5465C15.795 35.0361 15.6511 34.526 15.4384 34.0799C15.2709 33.7287 15.0536 33.4021 14.8287 33.1242C15.0406 32.7943 15.1484 32.4591 15.1669 32.1269C15.1897 31.7165 15.0743 31.3393 14.896 31.0131C14.5892 30.4518 14.079 30.0087 13.6521 29.7341C13.6277 28.864 13.4435 28.1928 13.1286 27.6931C12.785 27.1479 12.3029 26.8345 11.7754 26.688C10.8218 26.4232 9.73609 26.7049 8.98494 27.0453Z" fill="#4A4A49"/>
<path fill-rule="evenodd" clip-rule="evenodd" d="M22.8122 38.4822C22.1485 38.3541 21.2616 38.5869 20.6051 38.8237L20.4874 38.8661L20.3686 38.8268C18.6824 38.2694 17.9093 38.5274 17.5614 38.887C17.1877 39.2732 17.1286 39.9424 17.2424 40.5633L17.3121 40.9432L16.9247 40.9816C16.2682 41.0467 15.8018 41.259 15.4782 41.5352C15.154 41.8121 14.9537 42.1698 14.8571 42.5569C14.6588 43.3515 14.9075 44.2164 15.3463 44.6515L15.477 44.7812L15.4466 44.9621C15.3685 45.4271 15.4428 45.7762 15.588 46.0427C15.7355 46.3134 15.9714 46.526 16.2579 46.6874C16.8448 47.0181 17.5726 47.0941 17.9161 47.0454L18.1058 47.0185L18.234 47.1598C18.8511 47.8398 19.4147 48.1962 19.9075 48.3502C20.3947 48.5023 20.8366 48.4643 21.2336 48.3129C22.0497 48.0016 22.6959 47.1997 23.0356 46.5261L23.1349 46.3291H23.357C24.1073 46.3291 24.5826 46.1873 24.8764 45.9972C25.1593 45.8141 25.3023 45.5681 25.3577 45.2818C25.4762 44.6699 25.1901 43.8746 24.8455 43.305L24.7346 43.1216L24.8455 42.9383C25.2034 42.3468 25.1246 41.8625 24.897 41.4744C24.6547 41.0614 24.2322 40.7467 23.9149 40.5894L23.6934 40.4795L23.7181 40.2352C23.7854 39.5679 23.6792 39.1616 23.5191 38.9162C23.3645 38.6794 23.1271 38.5429 22.8122 38.4822ZM24.4514 40.0701C24.4851 39.4245 24.3734 38.9135 24.1224 38.529C23.8361 38.0902 23.4042 37.8703 22.9495 37.7825C22.1244 37.6233 21.1409 37.8823 20.4772 38.1122C18.781 37.5751 17.6745 37.7406 17.0429 38.3935C16.5266 38.9271 16.431 39.6885 16.486 40.3243C15.8778 40.4376 15.3873 40.6724 15.0094 40.9951C14.5588 41.3797 14.2874 41.8729 14.1595 42.3856C13.9256 43.3228 14.1621 44.3693 14.7133 45.0204C14.6553 45.5488 14.7492 46.0025 14.9558 46.3816C15.1825 46.7977 15.5306 47.0973 15.9029 47.3071C16.5454 47.6692 17.3106 47.792 17.8225 47.7686C18.457 48.4351 19.0826 48.8398 19.6916 49.03C20.3452 49.2342 20.9544 49.1831 21.4916 48.9781C22.456 48.6103 23.1707 47.7568 23.5752 47.0381C24.299 47.0129 24.8578 46.8604 25.2692 46.5941C25.7319 46.2946 25.9752 45.8723 26.0635 45.4162C26.2169 44.6237 25.9042 43.7376 25.5654 43.1183C25.9498 42.3573 25.8393 41.6635 25.5181 41.116C25.2419 40.6451 24.8173 40.2907 24.4514 40.0701Z" fill="#4A4A49"/>
<path fill-rule="evenodd" clip-rule="evenodd" d="M125.117 43.1742C124.469 43.3311 123.888 43.8893 123.552 44.3888L123.432 44.567L123.217 44.5457C121.896 44.4147 121.247 44.9014 120.968 45.448C120.667 46.0372 120.749 46.7732 121.036 47.2008L121.169 47.3985L121.036 47.5962C120.534 48.3439 120.385 48.9994 120.433 49.5332C120.481 50.0678 120.728 50.5125 121.074 50.8369C121.8 51.5166 122.827 51.593 123.358 51.0667L123.668 50.7593L123.911 51.121C124.161 51.4935 124.443 51.7008 124.725 51.8077C125.011 51.9158 125.323 51.9305 125.645 51.8762C126.3 51.7657 126.942 51.3785 127.331 51.0481L127.444 50.9521L127.592 50.9634C128.494 51.0322 129.075 50.9253 129.436 50.7469C129.78 50.5769 129.944 50.3343 130.008 50.054C130.077 49.7564 130.039 49.3931 129.92 49.0076C129.802 48.6262 129.613 48.2513 129.418 47.9463L129.298 47.7605L129.413 47.5716C129.824 46.8919 129.962 46.3794 129.954 46.0021C129.947 45.6376 129.805 45.3705 129.583 45.1639C129.109 44.7232 128.254 44.5475 127.565 44.5475L127.373 44.5475L127.266 44.3888C126.859 43.7835 126.464 43.4481 126.109 43.2797C125.761 43.114 125.428 43.0987 125.117 43.1742ZM127.756 43.8386C127.332 43.2481 126.884 42.8573 126.42 42.6369C125.91 42.3949 125.407 42.3701 124.946 42.4818C124.138 42.6775 123.48 43.2849 123.077 43.8198C121.647 43.7367 120.746 44.3046 120.327 45.126C119.952 45.8611 119.993 46.7509 120.317 47.3893C119.833 48.1764 119.657 48.9248 119.717 49.5961C119.782 50.32 120.118 50.9222 120.581 51.3551C121.374 52.0988 122.641 52.4022 123.55 51.8242C123.823 52.1348 124.134 52.3469 124.469 52.4736C124.901 52.6372 125.348 52.6492 125.765 52.5788C126.523 52.4511 127.225 52.0456 127.683 51.6839C128.578 51.7368 129.259 51.6307 129.756 51.385C130.298 51.1176 130.597 50.6965 130.709 50.2135C130.817 49.7479 130.746 49.2485 130.607 48.7987C130.491 48.4229 130.321 48.0615 130.139 47.7505C130.513 47.0834 130.683 46.4993 130.673 45.9885C130.662 45.4175 130.427 44.9719 130.074 44.6439C129.454 44.0673 128.489 43.8676 127.756 43.8386Z" fill="#4A4A49"/>
<path fill-rule="evenodd" clip-rule="evenodd" d="M72.6378 1.36018C70.3709 0.863268 68.4617 1.0297 67.0551 2.09651C63.1578 5.05231 59.2358 6.9956 57.6155 7.49488C53.3684 9.22279 50.7067 11.9285 49.9178 13.7168L49.2594 13.4311C50.1465 11.4201 52.9895 8.60272 57.3579 6.82928L57.3729 6.8232L57.3884 6.81848C58.8921 6.3596 62.7511 4.46341 66.6185 1.53032C68.2663 0.280652 70.4296 0.146155 72.7929 0.664217C75.1589 1.18286 77.7889 2.36797 80.4432 3.84803C84.3385 6.02009 88.3466 8.86386 91.7096 11.2499C92.9256 12.1126 94.0573 12.9155 95.0687 13.6052C95.2323 13.7167 95.2737 13.9385 95.1613 14.1007C95.0488 14.2629 94.8251 14.304 94.6616 14.1925C93.6299 13.4891 92.4846 12.6765 91.2594 11.8072C87.9037 9.4264 83.949 6.62062 80.0909 4.46932C77.46 3.00227 74.902 1.85651 72.6378 1.36018Z" fill="#4A4A49"/>
<path fill-rule="evenodd" clip-rule="evenodd" d="M115.366 30.5358C115.429 30.349 115.632 30.2481 115.82 30.3104C116.023 30.3773 116.214 30.5134 116.386 30.6626C116.563 30.8159 116.747 31.0072 116.933 31.2144C117.111 31.4131 117.299 31.6341 117.49 31.8599C117.499 31.8703 117.508 31.8808 117.517 31.8913C117.719 32.1295 117.926 32.3736 118.14 32.6122C118.571 33.0922 119.012 33.5312 119.457 33.8322C119.902 34.134 120.309 34.2693 120.687 34.2158C121.992 34.031 123.184 34.1143 124.281 34.9549C125.353 35.7766 126.28 37.2831 127.185 39.7945C128.583 43.6775 131.248 45.3045 132.335 45.6302C133.775 46.0219 136.791 47.8983 137.974 52.2958C138.025 52.4859 137.911 52.6812 137.719 52.7319C137.527 52.7827 137.33 52.6696 137.279 52.4794C136.163 48.3285 133.339 46.6404 132.142 46.3166L132.133 46.3142L132.133 46.3141C130.823 45.9242 127.982 44.1292 126.508 40.0342C125.615 37.5562 124.746 36.2117 123.842 35.5188C122.962 34.8448 121.999 34.7499 120.788 34.9214C120.159 35.0105 119.569 34.7716 119.051 34.4208C118.532 34.0692 118.044 33.5771 117.603 33.086C117.382 32.839 117.168 32.5876 116.967 32.35C116.959 32.3406 116.951 32.3312 116.943 32.3218C116.749 32.0932 116.568 31.8793 116.396 31.6884C116.217 31.4892 116.057 31.3236 115.913 31.1993C115.765 31.0709 115.66 31.0087 115.593 30.9866C115.405 30.9243 115.303 30.7225 115.366 30.5358Z" fill="#4A4A49"/>
</g>
<defs>
<clipPath id="clip0_114_1765">
<rect width="138" height="60" fill="white"/>
</clipPath>
</defs>
</svg>
