<svg width="187" height="71" viewBox="0 0 187 71" fill="none" xmlns="http://www.w3.org/2000/svg">
<path fill-rule="evenodd" clip-rule="evenodd" d="M130.056 16.1699C128.199 15.5171 125.853 15.175 123.934 15.4339C122.053 15.6877 120.601 16.7363 119.61 17.7427C119.115 18.2444 118.741 18.7303 118.49 19.0902C118.465 19.126 118.441 19.1606 118.419 19.1938L127.691 19.7131C127.874 19.7234 128.017 19.8741 128.018 20.0571C128.019 20.2402 127.878 20.3924 127.695 20.4046L127.672 20.059C127.695 20.4046 127.695 20.4046 127.695 20.4046L127.315 20.4302C127.072 20.4467 126.723 20.4703 126.3 20.4992C125.455 20.5571 124.315 20.6361 123.133 20.7206C120.865 20.8828 118.466 21.0638 117.694 21.155C117.511 21.3172 117.35 21.5681 117.222 21.8873C117.08 22.2403 116.989 22.6497 116.95 23.0473C116.911 23.4464 116.925 23.8153 116.981 24.0869C117.009 24.2233 117.045 24.3207 117.079 24.3819C117.088 24.3974 117.095 24.4087 117.101 24.4169L120.319 24.7085C120.332 24.69 120.346 24.6701 120.361 24.6487C120.461 24.5057 120.604 24.2992 120.776 24.0459C121.12 23.539 121.579 22.8458 122.039 22.0992C122.105 21.9915 122.225 21.9285 122.352 21.935C125.244 22.0843 127.364 22.0441 128.918 21.8726C130.476 21.7006 131.439 21.3992 132.035 21.0459C132.614 20.7027 132.855 20.3072 132.968 19.8968C133.064 19.547 133.07 19.1901 133.076 18.7945C133.078 18.6881 133.08 18.5789 133.084 18.4663C133.094 18.144 132.867 17.746 132.311 17.3139C131.769 16.8928 130.984 16.4962 130.056 16.1699ZM120.487 25.0716L120.769 25.273C120.697 25.373 120.578 25.4277 120.456 25.4166L116.953 25.0991C116.923 25.0964 116.893 25.0896 116.864 25.079C116.676 25.0093 116.553 24.8603 116.474 24.7195C116.394 24.5756 116.339 24.4042 116.303 24.2265C116.229 23.8697 116.216 23.4283 116.26 22.9797C116.305 22.5295 116.408 22.0538 116.579 21.6287C116.748 21.2078 116.995 20.8084 117.345 20.5463C117.393 20.5108 117.448 20.4881 117.507 20.4802C118.093 20.4019 120.091 20.2467 122.151 20.0968L117.796 19.8528C117.677 19.8462 117.571 19.7794 117.513 19.6758C117.455 19.5722 117.454 19.4462 117.511 19.3419L117.815 19.507C117.511 19.3419 117.511 19.3418 117.511 19.3416L117.511 19.3413L117.512 19.3403L117.513 19.3373L117.519 19.3272C117.524 19.3186 117.53 19.3065 117.539 19.2909C117.557 19.2599 117.583 19.2153 117.617 19.159C117.686 19.0464 117.788 18.8867 117.922 18.6943C118.189 18.3097 118.589 17.7919 119.116 17.2565C120.168 16.1886 121.753 15.0291 123.841 14.7473C125.891 14.4708 128.348 14.8353 130.286 15.5163C131.255 15.857 132.115 16.2842 132.736 16.7668C133.343 17.2383 133.797 17.824 133.776 18.4886C133.773 18.5756 133.772 18.6675 133.77 18.7631C133.764 19.1675 133.758 19.6371 133.636 20.0803C133.476 20.6617 133.124 21.2061 132.388 21.6419C131.669 22.0677 130.595 22.3845 128.994 22.5612C127.427 22.7342 125.329 22.7753 122.52 22.6372C122.09 23.3278 121.67 23.9621 121.349 24.4349C121.175 24.6911 121.031 24.9003 120.929 25.0455C120.878 25.1181 120.839 25.1747 120.811 25.2133C120.798 25.2326 120.787 25.2474 120.78 25.2575L120.772 25.2689L120.769 25.273C120.769 25.273 120.769 25.273 120.487 25.0716Z" fill="#4A4A49"/>
<path fill-rule="evenodd" clip-rule="evenodd" d="M132.792 9.21297C132.574 9.22594 132.348 9.23934 132.114 9.25113C131.522 9.28088 131.1 9.4598 130.782 9.74245C130.457 10.0306 130.212 10.4511 130.022 11.0092C129.691 11.9822 129.558 13.2698 129.402 14.7762C129.376 15.0256 129.35 15.2809 129.322 15.5419C129.301 15.7321 129.13 15.8697 128.94 15.8493C128.75 15.8288 128.612 15.658 128.633 15.4678C128.66 15.2149 128.686 14.9642 128.711 14.7167C128.866 13.2206 129.008 11.8399 129.366 10.7862C129.578 10.1633 129.875 9.6206 130.322 9.2243C130.774 8.82251 131.353 8.59567 132.079 8.55919C132.298 8.54816 132.517 8.53521 132.732 8.52244C133.15 8.49766 133.556 8.47356 133.936 8.46554C134.516 8.45329 135.071 8.47673 135.576 8.59837C136.088 8.72142 136.553 8.94606 136.945 9.33614C137.335 9.72409 137.632 10.2553 137.841 10.9595C137.844 10.9673 137.846 10.9753 137.847 10.9832L137.509 11.0581C137.847 10.9832 137.847 10.9832 137.847 10.9832L138.018 11.7532C138.122 12.2263 138.266 12.8754 138.421 13.5799C138.721 14.9422 139.066 16.5124 139.261 17.4153C139.709 17.9381 139.905 18.6441 139.996 19.1896C140.044 19.4822 140.065 19.7439 140.073 19.9327C140.077 20.0273 140.078 20.1042 140.078 20.1583C140.078 20.1853 140.078 20.2067 140.078 20.2217C140.078 20.2292 140.078 20.2352 140.078 20.2395L140.077 20.2446L140.077 20.2469C140.077 20.247 140.077 20.2473 139.731 20.2358L140.077 20.2473C140.071 20.4385 139.911 20.5884 139.72 20.5821C139.529 20.5757 139.379 20.4158 139.385 20.2247L139.385 20.2244L139.385 20.2221L139.385 20.2102C139.385 20.1991 139.386 20.1819 139.386 20.1592C139.385 20.1139 139.384 20.0468 139.381 19.963C139.373 19.7948 139.355 19.5617 139.312 19.303C139.224 18.7721 139.041 18.1911 138.689 17.8145C138.646 17.7686 138.616 17.712 138.603 17.6507C138.413 16.767 138.055 15.1379 137.744 13.729C137.589 13.0247 137.446 12.3757 137.341 11.9028L137.174 11.1452C136.988 10.5267 136.742 10.1111 136.457 9.82728C136.172 9.54378 135.828 9.37147 135.414 9.27197C134.995 9.17107 134.509 9.14638 133.95 9.1582C133.583 9.16596 133.2 9.18871 132.792 9.21297Z" fill="#4A4A49"/>
<path fill-rule="evenodd" clip-rule="evenodd" d="M137.232 11.3564C137.238 11.1652 137.398 11.015 137.589 11.0209C144.595 11.2378 152.112 11.7649 157.654 12.4786C160.421 12.8349 162.714 13.2398 164.207 13.681C164.943 13.8985 165.531 14.1375 165.879 14.4118C166.053 14.549 166.215 14.7328 166.257 14.9722C166.303 15.2308 166.194 15.4546 166.033 15.6249C165.472 16.2365 164.594 16.7634 163.517 17.2237C162.432 17.6871 161.115 18.0951 159.65 18.4537C156.719 19.1711 153.16 19.6988 149.603 20.072C142.497 20.8177 135.337 20.9525 133.12 20.7323C132.929 20.7134 132.79 20.5437 132.809 20.3533C132.828 20.1629 132.998 20.0239 133.188 20.0428C135.334 20.256 142.439 20.1272 149.531 19.383C153.073 19.0113 156.597 18.4876 159.485 17.7807C160.929 17.4273 162.207 17.03 163.245 16.5866C164.288 16.1407 165.061 15.6602 165.524 15.1548L165.528 15.1503C165.558 15.1189 165.57 15.0991 165.574 15.0892C165.568 15.0757 165.543 15.0296 165.45 14.9557C165.215 14.7703 164.74 14.5609 164.011 14.3454C162.573 13.9207 160.327 13.5212 157.566 13.1657C152.052 12.4558 144.559 11.9299 137.568 11.7134C137.376 11.7075 137.226 11.5477 137.232 11.3564ZM165.576 15.0816C165.576 15.0816 165.576 15.0832 165.575 15.0867C165.575 15.0834 165.575 15.0817 165.576 15.0816Z" fill="#4A4A49"/>
<path fill-rule="evenodd" clip-rule="evenodd" d="M129.929 11.1785C129.954 11.3682 129.82 11.5423 129.631 11.5673C127.267 11.8795 124.704 12.1896 122.733 12.4215C121.747 12.5375 120.909 12.634 120.318 12.7015C120.022 12.7352 119.788 12.7617 119.627 12.7798L119.381 12.8075C119.381 12.8075 119.38 12.8075 119.342 12.4632C119.304 12.119 119.304 12.119 119.304 12.119L119.55 12.0913C119.71 12.0733 119.944 12.0468 120.239 12.0131C120.83 11.9457 121.667 11.8493 122.652 11.7335C124.622 11.5017 127.181 11.1921 129.54 10.8805C129.73 10.8554 129.904 10.9889 129.929 11.1785ZM118.998 12.5016C118.977 12.3115 119.114 12.1402 119.304 12.119L119.342 12.4632L119.381 12.8075C119.191 12.8287 119.019 12.6918 118.998 12.5016Z" fill="#4A4A49"/>
<path fill-rule="evenodd" clip-rule="evenodd" d="M129.296 12.2824C129.487 12.2769 129.646 12.4275 129.652 12.6188C129.657 12.81 129.507 12.9694 129.316 12.9749L129.306 12.6286L129.296 12.2824ZM125.126 13.1875C122.806 13.347 120.082 13.6107 118.383 14.0251C118.197 14.0704 118.009 13.9565 117.964 13.7706C117.919 13.5847 118.033 13.3973 118.219 13.352C119.983 12.9218 122.762 12.6555 125.078 12.4963C126.241 12.4163 127.295 12.3629 128.058 12.3294C128.44 12.3127 128.749 12.3009 128.963 12.2933C129.07 12.2896 129.153 12.2868 129.209 12.285L129.274 12.283L129.296 12.2824C129.296 12.2824 129.296 12.2824 129.306 12.6286C129.316 12.9749 129.316 12.9749 129.316 12.9749L129.294 12.9755L129.231 12.9775C129.175 12.9793 129.093 12.982 128.987 12.9857C128.775 12.9932 128.468 13.0049 128.088 13.0215C127.329 13.0548 126.282 13.108 125.126 13.1875Z" fill="#4A4A49"/>
<path fill-rule="evenodd" clip-rule="evenodd" d="M146.98 14.0934C144.182 13.5995 140.69 13.2803 137.943 13.3255C137.752 13.3286 137.594 13.1761 137.591 12.9848C137.588 12.7935 137.74 12.6359 137.932 12.6327C140.73 12.5868 144.266 12.9108 147.1 13.4112C148.516 13.6612 149.771 13.9576 150.676 14.2795C151.126 14.4395 151.509 14.6125 151.784 14.8004C152.036 14.972 152.309 15.2324 152.297 15.5909C152.287 15.9001 152.085 16.1576 151.866 16.3567C151.637 16.5663 151.32 16.7725 150.951 16.9748C150.21 17.3808 149.19 17.8048 148.049 18.2287C146.513 18.7993 144.723 19.3821 143.043 19.9287C142.227 20.1941 141.438 20.4509 140.717 20.6937C140.536 20.7548 140.339 20.6573 140.278 20.476C140.217 20.2947 140.315 20.0982 140.496 20.0371C141.231 19.7895 142.029 19.53 142.848 19.2633C144.52 18.7193 146.285 18.1451 147.808 17.5793C148.942 17.158 149.923 16.748 150.618 16.3672C150.967 16.176 151.229 16.0006 151.4 15.8448C151.567 15.6917 151.599 15.6018 151.604 15.5735C151.6 15.5651 151.574 15.4956 151.394 15.3728C151.19 15.2341 150.872 15.0847 150.444 14.9322C149.591 14.6292 148.38 14.3407 146.98 14.0934Z" fill="#4A4A49"/>
<path fill-rule="evenodd" clip-rule="evenodd" d="M179.478 22.4392C173.23 20.3946 167.827 20.4084 162.343 20.6674C162.152 20.6764 161.989 20.5288 161.98 20.3377C161.971 20.1466 162.119 19.9843 162.31 19.9753C167.817 19.7153 173.323 19.696 179.694 21.7807C179.876 21.8402 179.975 22.0359 179.915 22.2177C179.856 22.3995 179.66 22.4987 179.478 22.4392Z" fill="#4A4A49"/>
<path fill-rule="evenodd" clip-rule="evenodd" d="M182.893 24.569C183.012 24.7188 182.987 24.9367 182.838 25.0558C182.467 25.3506 181.941 25.7085 181.515 25.9885C181.329 26.1104 181.16 26.2189 181.029 26.3028C181.078 26.3846 181.139 26.4811 181.209 26.5877C181.431 26.9225 181.747 27.3491 182.129 27.7298C182.513 28.1132 182.946 28.4304 183.398 28.5762C183.835 28.7172 184.302 28.7031 184.801 28.4042C184.965 28.3059 185.178 28.3593 185.276 28.5235C185.375 28.6876 185.321 28.9004 185.157 28.9986C184.474 29.4077 183.798 29.4332 183.185 29.2355C182.587 29.0426 182.063 28.6426 181.639 28.2205C181.213 27.7955 180.868 27.328 180.631 26.97C180.512 26.7903 180.42 26.6364 180.356 26.5267C180.324 26.4718 180.3 26.4279 180.283 26.3972C180.274 26.3819 180.268 26.3698 180.263 26.3614L180.258 26.3514L180.257 26.3486L180.256 26.3473C180.256 26.3472 180.256 26.3471 180.563 26.1868L180.256 26.3473C180.172 26.1865 180.226 25.988 180.38 25.8925C180.38 25.8925 180.38 25.8925 180.38 25.8925L180.395 25.8834L180.438 25.8564C180.476 25.8328 180.531 25.7983 180.599 25.7552C180.735 25.6689 180.923 25.548 181.134 25.4095C181.559 25.1305 182.062 24.7873 182.406 24.5135C182.556 24.3945 182.774 24.4193 182.893 24.569Z" fill="#4A4A49"/>
<path fill-rule="evenodd" clip-rule="evenodd" d="M109.389 21.0882C109.58 21.0734 109.747 21.2159 109.762 21.4067L109.416 21.4336L109.071 21.4605C109.056 21.2698 109.199 21.1031 109.389 21.0882ZM109.416 21.4336C109.071 21.4605 109.071 21.4604 109.071 21.4605L109.071 21.4685L109.073 21.4939C109.075 21.5166 109.077 21.5508 109.081 21.5965C109.087 21.6878 109.096 21.8249 109.108 22.0073C109.131 22.372 109.162 22.9177 109.197 23.64C109.265 25.0847 109.345 27.2356 109.389 30.0574C109.477 35.7011 109.423 44.0283 108.852 54.7558C108.842 54.9469 108.989 55.11 109.18 55.1201C109.371 55.1303 109.534 54.9837 109.544 54.7926C110.116 44.0485 110.17 35.7053 110.082 30.0466C110.038 27.2172 109.958 25.0589 109.889 23.6072C109.854 22.8813 109.823 22.332 109.799 21.9638C109.788 21.7797 109.778 21.6408 109.772 21.5478C109.769 21.5013 109.766 21.4662 109.764 21.4427L109.762 21.416L109.762 21.4067C109.762 21.4065 109.762 21.4067 109.416 21.4336Z" fill="#4A4A49"/>
<path fill-rule="evenodd" clip-rule="evenodd" d="M146.53 19.7202C146.678 19.5985 146.896 19.6196 147.018 19.7673C147.509 20.364 148.051 20.8877 148.611 21.4289C148.875 21.6841 149.143 21.9431 149.411 22.2156C150.236 23.052 151.03 23.9823 151.58 25.2142C152.686 27.6894 152.762 31.2726 150.46 37.5867C148.16 43.8943 145.764 47.56 143.073 49.7265C140.374 51.8993 137.419 52.5294 134.096 52.8614C127.501 53.5204 108.776 55.9761 104.396 56.657C104.207 56.6864 104.03 56.557 104 56.3679C103.971 56.1789 104.1 56.0018 104.289 55.9724C108.681 55.2898 127.418 52.8324 134.027 52.172C137.307 51.8443 140.098 51.2322 142.638 49.1868C145.187 47.135 147.527 43.6061 149.809 37.3493C152.088 31.0988 151.944 27.7277 150.948 25.4967C150.447 24.3756 149.72 23.5148 148.918 22.702C148.675 22.4551 148.42 22.2093 148.163 21.9606C147.589 21.4049 147 20.8351 146.483 20.2078C146.361 20.0601 146.382 19.8418 146.53 19.7202Z" fill="#4A4A49"/>
<path fill-rule="evenodd" clip-rule="evenodd" d="M149.509 28.3321C149.64 28.3178 149.768 28.379 149.839 28.49C150.263 29.1548 150.414 29.9585 150.259 30.7319C150.226 30.898 150.077 31.0157 149.908 31.0101L143.554 30.8003C143.434 30.7963 143.325 30.7306 143.265 30.6265C143.205 30.5224 143.203 30.3948 143.261 30.2893C143.539 29.7739 144.001 29.4147 144.526 29.1604C145.05 28.9065 145.659 28.7469 146.269 28.6403C146.879 28.5333 147.505 28.4771 148.069 28.4371C148.256 28.4239 148.434 28.4125 148.602 28.4017C148.95 28.3794 149.255 28.3599 149.509 28.3321ZM144.278 30.131L149.619 30.3073C149.652 29.8704 149.562 29.4322 149.359 29.0426C149.138 29.0616 148.889 29.0776 148.626 29.0945C148.461 29.105 148.29 29.116 148.118 29.1282C147.561 29.1677 146.963 29.222 146.388 29.3227C145.811 29.4238 145.272 29.5692 144.828 29.784C144.617 29.8859 144.433 30.001 144.278 30.131Z" fill="#4A4A49"/>
<path fill-rule="evenodd" clip-rule="evenodd" d="M145.688 30.284C145.824 30.15 146.044 30.152 146.178 30.2885C146.54 30.6573 147.2 30.8851 147.855 30.9065C148.177 30.9169 148.474 30.8764 148.708 30.7935C148.945 30.7095 149.087 30.594 149.154 30.4762C149.248 30.3098 149.46 30.2515 149.626 30.3459C149.793 30.4403 149.851 30.6517 149.757 30.8181C149.579 31.1309 149.27 31.3297 148.939 31.4466C148.606 31.5646 148.22 31.6115 147.833 31.5989C147.071 31.5741 146.213 31.3133 145.683 30.7739C145.549 30.6374 145.551 30.4181 145.688 30.284Z" fill="#4A4A49"/>
<path fill-rule="evenodd" clip-rule="evenodd" d="M167.4 29.7469C165.21 31.9529 163.364 35.2933 161.8 39.7169C161.736 39.8973 161.538 39.9918 161.358 39.9281C161.178 39.8643 161.083 39.6664 161.147 39.486C162.727 35.0162 164.616 31.5678 166.908 29.2588C169.211 26.9393 171.917 25.775 175.09 25.8792C178.359 25.9866 180.664 28.5756 182.168 31.7293C183.679 34.8981 184.443 38.7524 184.583 41.6436C184.621 42.2314 184.55 43.1369 184.43 44.1413C184.308 45.1556 184.133 46.2967 183.953 47.3654C183.773 48.4347 183.589 49.4344 183.45 50.1666C183.38 50.5327 183.322 50.8322 183.28 51.0402C183.26 51.1442 183.244 51.2254 183.233 51.2806L183.22 51.3436L183.216 51.365L183.216 51.3653C183.216 51.3654 183.216 51.3654 182.876 51.2965L183.216 51.3653C183.178 51.5528 182.995 51.674 182.807 51.636C182.62 51.5979 182.499 51.4151 182.537 51.2276L182.583 51.237C182.537 51.2276 182.537 51.2276 182.537 51.2276L182.537 51.2273L182.537 51.2263L182.541 51.2066L182.553 51.1445C182.564 51.0899 182.58 51.0094 182.601 50.9061C182.642 50.6994 182.7 50.4015 182.769 50.0371C182.908 49.3081 183.091 48.3135 183.27 47.2505C183.449 46.187 183.622 45.0578 183.742 44.0588C183.863 43.0518 183.926 42.2026 183.891 41.6862L183.891 41.6801C183.755 38.8607 183.007 35.0984 181.543 32.0275C180.07 28.9403 177.934 26.6658 175.067 26.5717C172.104 26.4744 169.58 27.5514 167.4 29.7469Z" fill="#4A4A49"/>
<path fill-rule="evenodd" clip-rule="evenodd" d="M185.987 41.3749C186.178 41.3805 186.328 41.5401 186.323 41.7313C186.311 42.1182 186.172 42.5962 186.05 42.9506C185.987 43.1337 185.925 43.2949 185.878 43.4103C185.855 43.4682 185.836 43.5148 185.822 43.5473C185.815 43.5636 185.81 43.5763 185.806 43.5851L185.801 43.5954L185.8 43.5983L185.799 43.5994C185.799 43.5994 185.799 43.5996 185.482 43.4601L185.799 43.5994C185.796 43.6079 185.792 43.6163 185.787 43.6245L185.245 44.6296L185.521 45.5463C185.552 45.6466 185.535 45.7551 185.476 45.8416L184.907 46.6749L184.601 48.5595L184.888 48.5798C185.026 48.5895 185.144 48.6795 185.19 48.8092C185.237 48.9389 185.202 49.0836 185.101 49.1779L184.422 49.8155C184.283 49.9464 184.063 49.9395 183.933 49.8001C183.802 49.6606 183.808 49.4414 183.948 49.3104L184.067 49.1987C184.013 49.1764 183.964 49.1404 183.927 49.0935C183.867 49.0172 183.841 48.9191 183.857 48.823L184.235 46.4879C184.243 46.4377 184.262 46.3899 184.291 46.3479L184.81 45.5875L184.541 44.6916C184.514 44.6035 184.524 44.5084 184.567 44.4274L185.17 43.3087C185.174 43.3014 185.178 43.2909 185.184 43.2776C185.196 43.2484 185.214 43.2056 185.235 43.152C185.279 43.0445 185.336 42.8946 185.395 42.7254C185.515 42.3753 185.622 41.9839 185.63 41.711C185.636 41.5198 185.795 41.3693 185.987 41.3749Z" fill="#4A4A49"/>
<path fill-rule="evenodd" clip-rule="evenodd" d="M180.865 26.0178C180.959 26.1848 180.899 26.3959 180.732 26.4893C179.456 27.2039 178.232 28.0086 177.069 28.8968C176.917 29.013 176.7 28.9839 176.584 28.8319C176.467 28.6798 176.497 28.4624 176.649 28.3463C177.837 27.4382 179.089 26.6154 180.394 25.8848C180.561 25.7913 180.772 25.8509 180.865 26.0178Z" fill="#4A4A49"/>
<path fill-rule="evenodd" clip-rule="evenodd" d="M81.1286 3.22065C85.4707 2.43997 98.0279 0.292968 108.999 2.42661C111.727 2.95722 113.739 3.41059 115.202 3.81988C116.657 4.22671 117.602 4.59815 118.174 4.97736C118.463 5.16901 118.678 5.37671 118.81 5.6132C118.945 5.85813 118.977 6.10969 118.938 6.35636C118.9 6.59277 118.799 6.81683 118.683 7.02309C118.575 7.21425 118.442 7.41193 118.31 7.60633L118.279 7.65266C117.695 8.51931 115.05 12.0083 112.564 15.2653C111.318 16.8973 110.108 18.4757 109.21 19.6461C108.761 20.2313 108.39 20.7145 108.131 21.0514C108.001 21.2199 107.9 21.3518 107.831 21.4415L107.727 21.5768L107.726 21.5784C107.726 21.5784 107.725 21.579 107.451 21.3677C107.422 21.7129 107.421 21.7129 107.421 21.7129L106.932 21.6723C106.611 21.6457 106.141 21.6068 105.54 21.5572C104.338 21.4581 102.615 21.3164 100.529 21.1464C96.356 20.8064 90.7322 20.3528 84.9268 19.8986C73.3049 18.9894 60.9851 18.0803 58.094 18.0707C57.9027 18.07 57.7481 17.9144 57.7488 17.7231C57.7494 17.5318 57.905 17.3772 58.0963 17.3779C61.0211 17.3876 73.3789 18.3002 84.9808 19.2079C90.7873 19.6622 96.4118 20.1158 100.585 20.4559C102.671 20.6259 104.395 20.7676 105.597 20.8667C106.198 20.9163 106.668 20.9553 106.989 20.9818L107.291 21.0069C107.36 20.9176 107.458 20.7901 107.582 20.6292C107.84 20.2924 108.212 19.8093 108.661 19.2243C109.559 18.0542 110.768 16.4763 112.013 14.8449C114.509 11.5754 117.135 8.11005 117.705 7.26537L117.732 7.22531C117.868 7.02373 117.986 6.84859 118.079 6.6829C118.179 6.50623 118.235 6.36568 118.254 6.24757C118.271 6.13973 118.258 6.04687 118.204 5.94923C118.145 5.84315 118.025 5.71014 117.791 5.55469C117.316 5.23971 116.462 4.89142 115.016 4.48709C113.579 4.08523 111.588 3.636 108.867 3.10669C98.0376 1.00064 85.5983 3.12094 81.2512 3.90253C81.0629 3.93639 80.8828 3.81119 80.849 3.62289C80.8151 3.4346 80.9403 3.25451 81.1286 3.22065ZM107.451 21.3677L107.421 21.7129C107.539 21.7227 107.654 21.6717 107.726 21.5784L107.451 21.3677Z" fill="#4A4A49"/>
<path fill-rule="evenodd" clip-rule="evenodd" d="M22.3118 19.7159C22.5028 19.7266 22.649 19.8901 22.6384 20.0811C22.5889 20.9672 21.9695 21.9024 21.0971 22.8172C20.2105 23.7469 19.0009 24.7178 17.6524 25.6758C15.0162 27.5487 11.8004 29.406 9.31095 30.8437C9.25245 30.8775 9.19435 30.9111 9.13667 30.9444C8.97101 31.0401 8.75914 30.9833 8.66345 30.8177C8.56775 30.652 8.62448 30.4401 8.79014 30.3444C8.84425 30.3132 8.8987 30.2818 8.95348 30.2501C11.4501 28.8082 14.642 26.9647 17.2511 25.1111C18.5849 24.1635 19.7535 23.2221 20.5957 22.3391C21.452 21.4412 21.9119 20.6634 21.9466 20.0424C21.9573 19.8514 22.1208 19.7052 22.3118 19.7159Z" fill="#4A4A49"/>
<path fill-rule="evenodd" clip-rule="evenodd" d="M66.0024 24.5668C63.6239 25.0257 60.7223 26.1706 57.8405 28.135C54.9326 30.1172 52.948 31.936 52.002 33.4839C51.5309 34.2548 51.3363 34.9279 51.3816 35.5027C51.4257 36.0619 51.7006 36.5772 52.2741 37.041C53.6453 37.9798 55.5964 37.9719 57.9162 37.3186C60.2288 36.6673 62.8198 35.399 65.383 33.9509C67.8999 32.5289 69.6706 30.6057 70.6016 28.8624C71.0678 27.9897 71.3155 27.1773 71.3532 26.506C71.391 25.8343 71.2189 25.3405 70.8924 25.0352C70.5444 24.7097 69.9392 24.4684 69.0863 24.3744C68.2414 24.2812 67.1921 24.3373 66.0024 24.5668ZM69.1623 23.6858C70.0855 23.7875 70.8622 24.0583 71.3657 24.5291C71.8907 25.0202 72.0899 25.7453 72.0449 26.5449C72 27.3449 71.711 28.256 71.2127 29.1888C70.2151 31.0567 68.3465 33.0723 65.7238 34.5541C63.1475 36.0097 60.4983 37.3111 58.104 37.9854C55.7227 38.6561 53.5045 38.7312 51.8703 37.6042C51.8634 37.5994 51.8567 37.5944 51.8501 37.5892C51.1481 37.0255 50.7528 36.342 50.6909 35.5572C50.6301 34.7847 50.8962 33.9647 51.4109 33.1226C52.4364 31.4445 54.5231 29.5578 57.4503 27.5625C60.4036 25.5494 63.3923 24.3647 65.8711 23.8865C67.11 23.6475 68.2311 23.5831 69.1623 23.6858Z" fill="#4A4A49"/>
<path fill-rule="evenodd" clip-rule="evenodd" d="M58.37 27.4102C58.458 27.58 58.3917 27.7891 58.2219 27.8772C55.5644 29.2548 52.5274 31.022 50.4465 32.8247C49.4032 33.7284 48.6291 34.6169 48.2501 35.4451C47.8801 36.2534 47.8937 36.9777 48.3802 37.6411C48.8618 38.2979 49.7772 38.6186 50.9988 38.6708C52.2072 38.7224 53.6277 38.5065 54.9988 38.1875C56.3659 37.8694 57.6645 37.4535 58.6229 37.1162C59.1016 36.9478 59.4943 36.7994 59.7669 36.6933C59.9032 36.6402 60.0094 36.5977 60.0812 36.5687C60.1171 36.5541 60.1445 36.5429 60.1627 36.5354L60.1831 36.527L60.188 36.525L60.1891 36.5245L60.1894 36.5244C60.3658 36.4505 60.5688 36.5337 60.6426 36.7102C60.7165 36.8867 60.6333 37.0897 60.4568 37.1635L60.3231 36.8439C60.4568 37.1635 60.4567 37.1635 60.4566 37.1636L60.4561 37.1638L60.4545 37.1644L60.4487 37.1669L60.4264 37.1761C60.407 37.1841 60.3784 37.1958 60.3411 37.2109C60.2666 37.241 60.1575 37.2846 60.0182 37.3389C59.7396 37.4473 59.3397 37.5984 58.8528 37.7698C57.88 38.1121 56.5557 38.5366 55.1558 38.8623C53.7597 39.1871 52.2689 39.4184 50.9693 39.3629C49.6829 39.308 48.4936 38.9673 47.8215 38.0508C47.1541 37.1407 47.1706 36.1389 47.6201 35.1567C48.0606 34.1944 48.9228 33.228 49.9928 32.301C52.1385 30.4423 55.2361 28.6446 57.903 27.2621C58.0729 27.174 58.2819 27.2403 58.37 27.4102Z" fill="#4A4A49"/>
<path fill-rule="evenodd" clip-rule="evenodd" d="M5.20077 33.4146C5.36607 33.3183 5.57815 33.3742 5.67446 33.5395C5.84384 33.8302 6.09282 34.0664 6.39194 34.22C6.69116 34.3736 7.02815 34.4385 7.36308 34.4069C7.50146 34.3938 7.63424 34.4647 7.70035 34.587C7.76645 34.7092 7.75308 34.8592 7.66638 34.9678L7.34593 35.3694C7.43883 35.3849 7.54216 35.4021 7.65535 35.4209C8.22445 35.5154 9.04281 35.6494 10.0394 35.8072C12.0328 36.1228 14.7383 36.5337 17.5881 36.915C20.4387 37.2964 23.4297 37.6476 25.9951 37.8445C28.5772 38.0426 30.6804 38.0798 31.7846 37.8543C31.826 37.8459 31.8686 37.8451 31.9103 37.8519C33.141 38.0549 36.3092 38.2691 40.4713 38.464C44.6227 38.6584 49.7381 38.8325 54.8447 38.9584C59.9514 39.0843 65.0474 39.1619 69.1604 39.1632C73.2881 39.1645 76.3914 39.0885 77.5386 38.9139C77.7277 38.8852 77.9044 39.0152 77.9331 39.2043C77.9619 39.3934 77.8319 39.5701 77.6428 39.5989C76.4313 39.7832 73.2658 39.8573 69.1602 39.856C65.0398 39.8547 59.9378 39.777 54.8276 39.651C49.7173 39.525 44.5967 39.3507 40.4389 39.1561C36.3576 38.965 33.1796 38.7534 31.86 38.5456C30.6335 38.7794 28.4656 38.7289 25.9421 38.5353C23.358 38.337 20.3524 37.9839 17.4962 37.6017C14.6393 37.2195 11.9279 36.8076 9.93105 36.4915C8.93253 36.3333 8.11244 36.1991 7.54188 36.1044C7.25659 36.057 7.03367 36.0195 6.882 35.9939C6.80616 35.981 6.74814 35.9712 6.70904 35.9645L6.64988 35.9544C6.6497 35.9543 6.64961 35.9543 6.70833 35.6129L6.64988 35.9544C6.52915 35.9336 6.4281 35.8506 6.38456 35.7361C6.34101 35.6216 6.36117 35.4926 6.43758 35.3968L6.70784 35.0582C6.489 35.0137 6.27616 34.9394 6.07549 34.8363C5.65855 34.6222 5.31172 34.2931 5.07584 33.8883C4.97953 33.723 5.03546 33.5109 5.20077 33.4146Z" fill="#4A4A49"/>
<path fill-rule="evenodd" clip-rule="evenodd" d="M80.1192 36.1331C80.1337 36.3239 79.9908 36.4903 79.8 36.5048C74.1825 36.9324 71.4667 37.2483 69.9798 37.7037C69.2519 37.9267 68.8458 38.1759 68.5411 38.4715C68.2731 38.7315 68.0739 39.0334 67.8049 39.4412C67.7532 39.5197 67.6988 39.6021 67.6409 39.6888C67.5347 39.848 67.3196 39.8908 67.1605 39.7846C67.0013 39.6784 66.9585 39.4633 67.0647 39.3042C67.1164 39.2267 67.1668 39.1501 67.2165 39.0746C67.4845 38.6671 67.7316 38.2916 68.0587 37.9742C68.4613 37.5836 68.973 37.2876 69.7769 37.0413C71.3539 36.5583 74.1586 36.2394 79.7475 35.814C79.9382 35.7995 80.1046 35.9424 80.1192 36.1331Z" fill="#4A4A49"/>
<path fill-rule="evenodd" clip-rule="evenodd" d="M78.9317 37.6676C78.9523 37.8578 78.8149 38.0288 78.6247 38.0495L78.5873 37.7051L78.5498 37.3607C78.74 37.34 78.911 37.4774 78.9317 37.6676ZM75.7106 38.3395C74.0633 38.4917 72.0246 38.6595 70.4773 38.7192C70.2862 38.7266 70.1252 38.5776 70.1178 38.3864C70.1104 38.1952 70.2594 38.0343 70.4506 38.0269C71.9782 37.9679 74.0012 37.8017 75.6468 37.6496C76.4687 37.5737 77.1947 37.5014 77.7151 37.4482C77.9754 37.4215 78.1842 37.3996 78.3279 37.3844C78.3997 37.3768 78.4553 37.3709 78.4928 37.3669L78.5498 37.3607C78.5498 37.3607 78.5498 37.3607 78.5873 37.7051C78.6247 38.0495 78.6248 38.0494 78.6247 38.0495L78.5668 38.0557C78.5289 38.0598 78.473 38.0657 78.4008 38.0734C78.2564 38.0887 78.0468 38.1106 77.7857 38.1374C77.2635 38.1908 76.5352 38.2633 75.7106 38.3395Z" fill="#4A4A49"/>
<path fill-rule="evenodd" clip-rule="evenodd" d="M33.4351 19.9014C33.5009 20.0811 33.4086 20.2801 33.2289 20.3459C21.7254 24.559 14.1261 29.5529 7.33998 35.0297C7.1911 35.1498 6.973 35.1266 6.85285 34.9777C6.7327 34.8288 6.75599 34.6107 6.90486 34.4906C13.7377 28.9761 21.4023 23.9395 32.9907 19.6953C33.1703 19.6295 33.3693 19.7218 33.4351 19.9014Z" fill="#4A4A49"/>
<path fill-rule="evenodd" clip-rule="evenodd" d="M51.5588 29.5117C51.7425 29.4582 51.9347 29.5637 51.9883 29.7474C52.0418 29.9311 51.9363 30.1234 51.7526 30.1769L51.6557 29.8443L51.5588 29.5117ZM44.7323 32.5431C40.7404 34.0275 35.8168 36.1037 32.0384 38.4816C31.8765 38.5835 31.6626 38.5349 31.5607 38.3729C31.4588 38.211 31.5075 37.9971 31.6694 37.8952C35.5092 35.4787 40.4865 33.3828 44.4909 31.8937C46.4956 31.1483 48.2615 30.5531 49.5264 30.1442C50.1589 29.9398 50.6664 29.7818 51.016 29.6749C51.1908 29.6215 51.3262 29.5808 51.418 29.5534C51.4639 29.5397 51.4989 29.5293 51.5226 29.5224L51.5494 29.5145L51.5581 29.5119L51.5588 29.5117C51.5589 29.5117 51.5588 29.5117 51.6557 29.8443C51.7526 30.1769 51.7526 30.1769 51.7526 30.1769L51.7442 30.1793L51.7184 30.1869C51.6955 30.1937 51.6612 30.2038 51.616 30.2173C51.5256 30.2442 51.3918 30.2845 51.2186 30.3375C50.8722 30.4434 50.3682 30.6002 49.7395 30.8035C48.4819 31.21 46.7258 31.8019 44.7323 32.5431Z" fill="#4A4A49"/>
<path fill-rule="evenodd" clip-rule="evenodd" d="M93.3987 21.6919C84.6584 21.6231 75.6461 22.8583 67.9289 24.3328C67.741 24.3687 67.5596 24.2455 67.5237 24.0576C67.4878 23.8696 67.611 23.6882 67.7989 23.6523C75.539 22.1734 84.6006 20.9298 93.4042 20.9991C93.5955 21.0006 93.7493 21.1569 93.7478 21.3482C93.7463 21.5395 93.59 21.6934 93.3987 21.6919Z" fill="#4A4A49"/>
<path fill-rule="evenodd" clip-rule="evenodd" d="M1.52011 42.8534C1.55338 42.665 1.73308 42.5392 1.92148 42.5725C9.55495 43.9206 16.0978 45.0131 20.9511 45.7481C23.3781 46.1157 25.3802 46.3934 26.884 46.5691C28.2815 46.7323 29.2162 46.803 29.6663 46.7848C29.9985 46.5108 30.4513 46.2986 30.9886 46.1315C31.5845 45.9462 32.311 45.8084 33.149 45.7107C34.8251 45.5152 36.9839 45.4764 39.511 45.5595L39.5111 45.5595C46.0801 45.7759 49.4983 45.9977 51.3532 46.3093C52.279 46.4649 52.8558 46.6486 53.2472 46.8915C53.6584 47.1466 53.8368 47.4507 53.9983 47.7414C54.331 48.3402 54.8435 49.7103 55.2559 51.4382C55.6699 53.1731 55.9903 55.2994 55.9214 57.416C55.8803 58.6765 54.9199 59.4565 53.5079 59.927C52.0905 60.3994 50.0923 60.6103 47.6969 60.6703C44.1328 60.7596 39.6038 60.5149 34.6371 60.2466C32.9208 60.1538 31.1523 60.0583 29.3532 59.9727C29.1621 59.9636 29.0146 59.8013 29.0237 59.6102C29.0327 59.4191 29.195 59.2716 29.3861 59.2807C31.201 59.367 32.9795 59.4631 34.7014 59.5561C39.6578 59.8238 44.1452 60.0662 47.6795 59.9777C50.0631 59.918 51.9745 59.7078 53.2889 59.2697C54.6088 58.8298 55.2023 58.21 55.2289 57.3935C55.2953 55.3559 54.9864 53.2936 54.582 51.599C54.1759 49.8972 53.681 48.5969 53.3926 48.0778C53.2436 47.8095 53.136 47.6378 52.8819 47.4802C52.608 47.3102 52.1401 47.1441 51.2384 46.9925C49.438 46.6901 46.0689 46.4688 39.4883 46.2519C36.9753 46.1693 34.8557 46.2092 33.2292 46.3988C32.416 46.4936 31.7351 46.6249 31.1943 46.7931C30.649 46.9627 30.272 47.1619 30.042 47.3763C29.9859 47.4286 29.914 47.4608 29.8377 47.4679C29.3538 47.5126 28.3019 47.4322 26.8036 47.2572C25.2886 47.0803 23.2777 46.8012 20.8474 46.4331C15.9861 45.6969 9.43717 44.6033 1.80099 43.2547C1.61259 43.2215 1.48683 43.0418 1.52011 42.8534Z" fill="#4A4A49"/>
<path fill-rule="evenodd" clip-rule="evenodd" d="M30.0037 50.5991C30.0291 50.4095 30.2034 50.2763 30.393 50.3017C30.9189 50.3721 32.4996 50.4521 34.6033 50.5319C36.6965 50.6112 39.2835 50.6897 41.8032 50.759C44.3227 50.8284 46.7739 50.8886 48.5954 50.9314C49.5061 50.9528 50.2593 50.9699 50.7849 50.9817C51.0476 50.9876 51.2535 50.9921 51.3936 50.9951L51.6079 50.9998C51.6081 50.9998 51.6081 50.9998 51.6007 51.3461C51.5933 51.6925 51.5932 51.6925 51.5931 51.6925L51.3785 51.6878C51.2382 51.6847 51.0323 51.6802 50.7694 51.6743C50.2436 51.6626 49.4901 51.6455 48.5791 51.624C46.7571 51.5812 44.3048 51.5209 41.7841 51.4516C39.2637 51.3822 36.6739 51.3037 34.5771 51.2242C32.4908 51.1451 30.8682 51.0643 30.3011 50.9884C30.1115 50.963 29.9783 50.7887 30.0037 50.5991ZM51.947 51.3535C51.9429 51.5448 51.7843 51.6965 51.5931 51.6925L51.6007 51.3461L51.6079 50.9998C51.7992 51.0039 51.9511 51.1623 51.947 51.3535Z" fill="#4A4A49"/>
<path fill-rule="evenodd" clip-rule="evenodd" d="M29.479 53.2162C29.5041 53.0265 29.6783 52.8932 29.8679 52.9183C30.9399 53.0604 36.5042 53.2987 41.8342 53.5018C44.4918 53.603 47.0812 53.6952 49.0062 53.7621C49.9687 53.7955 50.7651 53.8227 51.3208 53.8414C51.5987 53.8508 51.8164 53.8581 51.9646 53.863L52.1913 53.8705C52.1915 53.8705 52.1916 53.8705 52.1801 54.2168C52.1687 54.563 52.1686 54.563 52.1685 54.563L51.9415 54.5554C51.7932 54.5505 51.5754 54.5432 51.2974 54.5338C50.7415 54.5151 49.9449 54.4879 48.9821 54.4545C47.0567 54.3876 44.4665 54.2954 41.8079 54.1941C36.5056 53.9921 30.891 53.7528 29.7769 53.6051C29.5872 53.58 29.4539 53.4059 29.479 53.2162ZM52.5264 54.2282C52.5201 54.4194 52.3597 54.5693 52.1685 54.563L52.1801 54.2168L52.1913 53.8705C52.3825 53.8768 52.5327 54.037 52.5264 54.2282Z" fill="#4A4A49"/>
<path fill-rule="evenodd" clip-rule="evenodd" d="M29.6096 55.866C29.6272 55.6755 29.7958 55.5352 29.9863 55.5527C31.835 55.7228 37.4123 55.9612 42.542 56.1574C45.1036 56.2554 47.5491 56.3427 49.3542 56.4054C50.2567 56.4368 50.9992 56.4621 51.5159 56.4795C51.7743 56.4882 51.9763 56.495 52.1136 56.4996L52.3235 56.5065C52.3236 56.5065 52.3237 56.5065 52.3124 56.8504L52.3235 56.5065C52.5147 56.5128 52.6648 56.6729 52.6585 56.8641C52.6523 57.0553 52.4922 57.2052 52.3009 57.199L52.3123 56.8527C52.3009 57.199 52.3011 57.199 52.3009 57.199L52.0906 57.192C51.9531 57.1874 51.7511 57.1807 51.4926 57.172C50.9756 57.1545 50.2329 57.1292 49.3301 57.0978C47.5245 57.035 45.0782 56.9477 42.5155 56.8497C37.3965 56.654 31.795 56.4149 29.9229 56.2426C29.7323 56.2251 29.5921 56.0565 29.6096 55.866Z" fill="#4A4A49"/>
<path fill-rule="evenodd" clip-rule="evenodd" d="M3.90953 45.7056C4.09949 45.6828 4.27195 45.8183 4.29475 46.0083L5.13931 53.0454C5.15566 53.0498 5.17294 53.0544 5.19116 53.0593C5.37563 53.1084 5.65581 53.1803 6.0357 53.271C6.79548 53.4525 7.95406 53.7089 9.54339 54.007C12.6496 54.5897 17.4011 55.3317 24.0363 55.9852C23.6408 54.0126 23.3734 52.0166 23.2359 50.0093C23.2228 49.8184 23.367 49.6531 23.5578 49.64C23.7487 49.627 23.914 49.7711 23.9271 49.962C24.0731 52.0939 24.3679 54.2129 24.8092 56.304C24.832 56.4119 24.8021 56.5242 24.7285 56.6064C24.655 56.6886 24.5468 56.7309 24.437 56.7203C17.5379 56.0542 12.6159 55.2882 9.41566 54.6879C7.81556 54.3878 6.6459 54.129 5.87479 53.9449C5.48923 53.8528 5.20332 53.7794 5.01305 53.7288C4.91791 53.7035 4.84669 53.6839 4.79888 53.6705C4.77497 53.6638 4.75692 53.6587 4.74466 53.6552L4.73061 53.6511L4.72682 53.65L4.72574 53.6497L4.7254 53.6496C4.72529 53.6495 4.72519 53.6495 4.82304 53.3172L4.72519 53.6495C4.59237 53.6104 4.4956 53.496 4.4791 53.3585L3.60687 46.0908C3.58408 45.9009 3.71958 45.7284 3.90953 45.7056Z" fill="#4A4A49"/>
<path fill-rule="evenodd" clip-rule="evenodd" d="M12.417 48.833C12.6082 48.8393 12.7581 48.9994 12.7518 49.1906C12.7237 50.0391 12.8443 51.4546 12.9753 52.677C13.0404 53.2842 13.1073 53.837 13.158 54.2381C13.1833 54.4386 13.2045 54.601 13.2194 54.7132C13.2269 54.7694 13.2328 54.8129 13.2367 54.8423L13.2428 54.8868L12.8997 54.9342C12.5565 54.9816 12.5565 54.9815 12.5565 54.9815L12.5502 54.9354C12.5461 54.9053 12.5402 54.8612 12.5327 54.8044C12.5176 54.6909 12.4962 54.527 12.4706 54.3249C12.4196 53.9208 12.3521 53.3635 12.2864 52.7509C12.156 51.534 12.0295 50.0719 12.0594 49.1677C12.0657 48.9765 12.2258 48.8266 12.417 48.833ZM12.947 55.2774C12.7575 55.3035 12.5826 55.171 12.5565 54.9815L12.8997 54.9342L13.2428 54.8868C13.2689 55.0763 13.1365 55.2512 12.947 55.2774Z" fill="#4A4A49"/>
<path fill-rule="evenodd" clip-rule="evenodd" d="M29.2579 56.6247L29.2736 56.6252C29.4648 56.6314 29.6148 56.7914 29.6086 56.9827C29.6023 57.1739 29.4423 57.3238 29.2511 57.3176C28.6892 57.2994 28.1207 57.2823 27.6901 57.3443C27.5489 57.3646 27.4385 57.3916 27.3558 57.4219C27.4274 57.44 27.511 57.4589 27.6071 57.4787C28.0512 57.57 28.7065 57.6669 29.5333 57.7642C31.184 57.9583 33.4879 58.1505 36.0844 58.3045C41.2794 58.6126 47.6208 58.7663 52.2169 58.4805C52.4078 58.4687 52.5722 58.6138 52.5841 58.8048C52.596 58.9957 52.4508 59.1601 52.2599 59.172C47.623 59.4603 41.2495 59.3049 36.0433 58.9961C33.4392 58.8417 31.121 58.6485 29.4524 58.4522C28.6196 58.3543 27.941 58.2547 27.4675 58.1573C27.2332 58.1091 27.0349 58.0587 26.8897 58.0045C26.8194 57.9782 26.7413 57.9438 26.6747 57.8966C26.6272 57.8628 26.4774 57.7468 26.4844 57.5394C26.4946 57.2347 26.6641 57.0181 26.8829 56.8834C27.0857 56.7584 27.341 56.6946 27.5913 56.6586C28.0902 56.5867 28.7191 56.6072 29.2579 56.6247Z" fill="#4A4A49"/>
<path fill-rule="evenodd" clip-rule="evenodd" d="M43.3878 48.4865C39.5226 48.3322 35.1507 48.1885 33.0778 48.2283C32.8865 48.232 32.7285 48.0799 32.7248 47.8886C32.7211 47.6973 32.8732 47.5393 33.0645 47.5356C35.1623 47.4954 39.5568 47.6402 43.4154 47.7943C45.3472 47.8714 47.1485 47.9511 48.4669 48.0114C49.126 48.0416 49.6645 48.067 50.0382 48.0848C50.2251 48.0937 50.3707 48.1007 50.4697 48.1055L50.6209 48.1129C50.621 48.1129 50.621 48.1129 50.604 48.4589C50.587 48.8048 50.587 48.8048 50.5869 48.8048L50.4362 48.7975C50.3374 48.7927 50.1919 48.7857 50.0052 48.7768C49.6319 48.759 49.0939 48.7337 48.4352 48.7035C47.1177 48.6432 45.3178 48.5636 43.3878 48.4865ZM50.95 48.4759C50.9406 48.6669 50.778 48.8142 50.5869 48.8048L50.604 48.4589L50.6209 48.1129C50.812 48.1222 50.9594 48.2848 50.95 48.4759Z" fill="#4A4A49"/>
<path fill-rule="evenodd" clip-rule="evenodd" d="M63.8276 24.6511C63.9456 24.8018 63.9191 25.0195 63.7685 25.1375C61.7507 26.7177 60.2241 29.3107 59.9025 31.4854C59.742 32.5707 59.8879 33.5025 60.3613 34.1577C60.8254 34.8001 61.6554 35.2461 63.0232 35.2611C63.2145 35.2632 63.3679 35.42 63.3658 35.6113C63.3637 35.8026 63.2069 35.956 63.0156 35.9539C61.4949 35.9372 60.4272 35.4319 59.7997 34.5634C59.1816 33.7078 59.0419 32.5691 59.2172 31.3841C59.567 29.0182 61.1967 26.2716 63.3413 24.592C63.4919 24.474 63.7097 24.5005 63.8276 24.6511Z" fill="#4A4A49"/>
<path fill-rule="evenodd" clip-rule="evenodd" d="M66.0365 24.0776C66.0749 23.8902 66.2579 23.7693 66.4453 23.8076C67.1331 23.9483 67.8281 24.0905 68.4294 24.3274C69.037 24.5667 69.5818 24.9146 69.9471 25.4875C70.3121 26.06 70.4685 26.811 70.3925 27.7994C70.3166 28.785 70.008 30.0308 69.4166 31.621C69.3499 31.8003 69.1505 31.8916 68.9712 31.8249C68.7919 31.7582 68.7006 31.5588 68.7673 31.3795C69.3476 29.8189 69.6328 28.6412 69.7017 27.7462C69.7704 26.8539 69.6225 26.267 69.3629 25.86C69.1037 25.4534 68.7039 25.1801 68.1755 24.972C67.6408 24.7614 67.0084 24.63 66.3065 24.4864C66.119 24.448 65.9982 24.265 66.0365 24.0776Z" fill="#4A4A49"/>
<path fill-rule="evenodd" clip-rule="evenodd" d="M21.4692 21.4238C21.629 21.579 21.717 21.7882 21.6932 22.0304C21.6746 22.2208 21.5051 22.36 21.3147 22.3414C21.1243 22.3227 20.9851 22.1533 21.0037 21.9629C21.0056 21.9442 21.0052 21.9389 20.9865 21.9208C20.9548 21.89 20.8818 21.8447 20.741 21.8041C20.461 21.7234 20.0385 21.6963 19.5461 21.7209C18.5582 21.7701 17.4512 22.0166 16.9595 22.2667C16.789 22.3535 16.5804 22.2856 16.4937 22.115C16.4069 21.9445 16.4748 21.736 16.6453 21.6492C17.2604 21.3363 18.4776 21.0804 19.5116 21.0289C20.0301 21.0031 20.5429 21.026 20.9328 21.1384C21.127 21.1943 21.3225 21.2812 21.4692 21.4238Z" fill="#4A4A49"/>
<path fill-rule="evenodd" clip-rule="evenodd" d="M14.7249 23.1766C14.898 23.2579 14.9724 23.4643 14.891 23.6374C14.4213 24.6365 14.215 25.4518 14.2524 25.9975C14.2706 26.2645 14.3449 26.4356 14.4417 26.5405C14.5339 26.6406 14.6824 26.7194 14.9348 26.7324C15.1259 26.7422 15.2728 26.9051 15.263 27.0961C15.2531 27.2872 15.0902 27.4341 14.8992 27.4243C14.5085 27.4041 14.1735 27.2718 13.9324 27.0102C13.6957 26.7536 13.5864 26.4127 13.5612 26.0448C13.5116 25.3208 13.7787 24.3751 14.264 23.3427C14.3454 23.1695 14.5517 23.0952 14.7249 23.1766Z" fill="#4A4A49"/>
<path fill-rule="evenodd" clip-rule="evenodd" d="M97.8247 41.7858C96.2864 38.994 93.9336 37.212 90.7108 37.3994L90.7104 37.3994C90.6442 37.4032 90.5755 37.4069 90.5044 37.4107C89.2716 37.4769 87.3233 37.5815 85.2852 38.8616C83.1355 40.2117 80.8367 42.9049 79.2456 48.3897C77.6633 53.844 78.5227 58.987 80.6011 62.6492C82.6871 66.3248 85.9538 68.4474 89.1784 68.0357C92.4603 67.6166 95.0858 65.4874 96.9318 62.5093C98.7783 59.5304 99.8234 55.7316 99.9445 52.0577C100.066 48.3745 99.3688 44.5882 97.8247 41.7858ZM98.4315 41.4515C100.052 44.3924 100.761 48.3112 100.637 52.0806C100.512 55.8593 99.4391 59.7794 97.5206 62.8744C95.6016 65.9702 92.8158 68.2697 89.2661 68.7229C85.6592 69.1834 82.1633 66.8055 79.9986 62.9912C77.8263 59.1636 76.9468 53.8274 78.5802 48.1967C80.2047 42.5965 82.5858 39.7388 84.9167 38.2749C87.1104 36.8971 89.2162 36.7853 90.4578 36.7193C90.5319 36.7154 90.6029 36.7116 90.6707 36.7078" fill="#4A4A49"/>
<path fill-rule="evenodd" clip-rule="evenodd" d="M82.4143 38.0569C79.5431 40.3845 76.9773 44.4778 76.7469 51.5119C76.5155 58.5786 78.1615 63.1452 80.5712 65.9657C82.9792 68.7843 86.188 69.9043 89.1782 70.0038C92.0792 70.1004 95.1772 68.1185 97.6196 64.5996C100.053 61.0931 101.791 56.1154 101.981 50.3684C102.171 44.6299 100.616 40.8943 98.3362 38.5692C96.0522 36.2396 92.9967 35.2806 90.1021 35.1861L90.1134 34.8399L90.1021 35.1861C88.5285 35.1347 85.3008 35.7168 82.4143 38.0569ZM81.978 37.5187C85.0073 35.0628 88.4027 34.4374 90.1248 34.4936C93.1481 34.5923 96.3914 35.5959 98.8309 38.0842C101.275 40.5771 102.868 44.5148 102.674 50.3913C102.48 56.2594 100.705 61.3689 98.1887 64.9947C95.6806 68.6082 92.3902 70.8039 89.1552 70.6962C86.0094 70.5915 82.602 69.4095 80.0444 66.4157C77.4885 63.424 75.8194 58.6679 76.0545 51.4892C76.2906 44.2777 78.9333 39.9869 81.978 37.5187Z" fill="#4A4A49"/>
<path fill-rule="evenodd" clip-rule="evenodd" d="M83.8358 34.4817C85.5587 34.4412 87.8065 34.4176 89.8983 34.4855C90.0895 34.4917 90.2395 34.6518 90.2333 34.843C90.2271 35.0342 90.067 35.1842 89.8758 35.178C87.8025 35.1107 85.5691 35.134 83.8521 35.1743C82.994 35.1944 82.2658 35.2188 81.7523 35.2381C81.4956 35.2477 81.2926 35.2561 81.1538 35.2621C81.0845 35.2651 81.0312 35.2675 80.9953 35.2691L80.9414 35.2716C80.9413 35.2716 80.9412 35.2716 80.9249 34.9302L80.9414 35.2716C80.7503 35.2807 80.5878 35.1332 80.5786 34.9421C80.5695 34.751 80.717 34.5887 80.9081 34.5796L80.9247 34.9256C80.9081 34.5796 80.9081 34.5796 80.9081 34.5796L80.9638 34.577C81.0002 34.5754 81.0541 34.573 81.124 34.5699C81.2639 34.5639 81.4682 34.5555 81.7263 34.5458C82.2424 34.5263 82.9739 34.5019 83.8358 34.4817Z" fill="#4A4A49"/>
<path fill-rule="evenodd" clip-rule="evenodd" d="M70.4856 64.3302C70.6501 64.2327 70.8626 64.287 70.9602 64.4515C71.8843 66.01 73.1078 67.4886 75.6105 68.533C78.133 69.5857 81.9795 70.2074 88.1683 69.9736C88.3594 69.9664 88.5203 70.1155 88.5275 70.3067C88.5347 70.4979 88.3856 70.6587 88.1944 70.6659C81.9622 70.9014 78 70.2809 75.3437 69.1724C72.6676 68.0556 71.342 66.4538 70.3643 64.8049C70.2667 64.6403 70.321 64.4278 70.4856 64.3302Z" fill="#4A4A49"/>
<path fill-rule="evenodd" clip-rule="evenodd" d="M29.2821 61.6123C29.4095 61.4696 29.6285 61.4572 29.7712 61.5846C31.8595 63.4492 34.5461 64.505 37.345 64.5605L37.3514 64.5607C39.0534 64.6258 40.8205 63.9697 42.4945 62.6988C42.6469 62.5831 42.8642 62.6128 42.9799 62.7652C43.0956 62.9176 43.0658 63.1349 42.9134 63.2506C41.1492 64.5901 39.2298 65.325 37.3281 65.2531C34.3648 65.1936 31.5206 64.0755 29.3098 62.1014C29.1671 61.974 29.1547 61.755 29.2821 61.6123Z" fill="#4A4A49"/>
<path fill-rule="evenodd" clip-rule="evenodd" d="M19.5067 60.1136C19.6587 59.9975 19.8761 60.0266 19.9922 60.1787C20.9192 61.3925 21.9273 62.5756 24.2125 63.4164C26.5228 64.2665 30.159 64.7732 36.3534 64.5391C36.5446 64.5319 36.7055 64.681 36.7127 64.8722C36.7199 65.0634 36.5708 65.2242 36.3796 65.2315C30.1531 65.4667 26.4099 64.9631 23.9733 64.0666C21.5116 63.1609 20.4054 61.8612 19.4416 60.5991C19.3255 60.4471 19.3546 60.2297 19.5067 60.1136Z" fill="#4A4A49"/>
<path fill-rule="evenodd" clip-rule="evenodd" d="M178.173 37.0067C176.879 34.7711 175.102 33.4072 173.199 33.4197C171.97 33.4297 170.138 34.3036 168.563 36.2699C166.999 38.2228 165.711 41.232 165.568 45.4396C165.313 53.1699 167.188 56.6418 169.02 58.1989C169.939 58.98 170.869 59.2996 171.567 59.4252C171.916 59.4881 172.207 59.5023 172.408 59.5011C172.508 59.5005 172.586 59.4961 172.637 59.492C172.662 59.49 172.681 59.488 172.692 59.4867C172.698 59.4861 172.702 59.4856 172.704 59.4853L172.705 59.4852C172.705 59.4852 172.705 59.4852 172.706 59.4851C172.706 59.4851 172.706 59.4851 172.706 59.4851C172.706 59.4851 172.706 59.4851 172.706 59.4851C172.726 59.4823 172.746 59.4812 172.766 59.4819C173.684 59.5117 174.588 59.0828 175.45 58.2698C176.311 57.4566 177.104 56.2818 177.784 54.8873C179.144 52.0983 180.02 48.5007 180.123 45.3697C180.226 42.2503 179.462 39.2315 178.173 37.0067ZM172.771 60.1751C172.771 60.1751 172.77 60.1751 172.77 60.1751C172.751 60.1773 172.725 60.18 172.692 60.1826C172.625 60.1879 172.53 60.1932 172.412 60.1939C172.175 60.1953 171.841 60.1785 171.444 60.107C170.649 59.9638 169.599 59.6007 168.571 58.7268C166.509 56.9736 164.617 53.2456 164.876 45.4166L164.876 45.4163C165.023 41.0756 166.355 37.9185 168.022 35.8368C169.679 33.7684 171.689 32.7391 173.193 32.7269L173.194 32.7269C175.455 32.7119 177.42 34.3236 178.773 36.6595C180.132 39.0062 180.922 42.1552 180.815 45.3925C180.709 48.6183 179.81 52.3118 178.406 55.1909C177.705 56.6304 176.868 57.884 175.925 58.7736C174.99 59.6565 173.924 60.2034 172.771 60.1751Z" fill="#4A4A49"/>
<path fill-rule="evenodd" clip-rule="evenodd" d="M156.76 54.244C156.949 54.2152 157.125 54.3452 157.154 54.5343C157.174 54.6618 157.192 54.7842 157.213 54.9032C157.559 56.7977 158.555 58.5123 160.028 59.7521C161.502 60.992 163.362 61.6792 165.289 61.6954L165.29 61.6954V61.6954L173.325 61.8031C173.517 61.8056 173.67 61.9628 173.667 62.1541C173.664 62.3454 173.507 62.4984 173.316 62.4958L165.283 62.3882C165.282 62.3882 165.282 62.3882 165.282 62.3882C163.195 62.3705 161.179 61.6257 159.582 60.2823L159.582 60.2823C157.985 58.9386 156.906 57.0802 156.532 55.0267L156.531 55.0252L156.531 55.0252C156.509 54.8964 156.489 54.7655 156.469 54.6396L156.469 54.6386C156.441 54.4494 156.571 54.2728 156.76 54.244Z" fill="#4A4A49"/>
<path fill-rule="evenodd" clip-rule="evenodd" d="M1.2517 54.091C1.42798 54.0167 1.63115 54.0993 1.70548 54.2756C1.76459 54.4158 1.81736 54.5441 1.86626 54.663C1.96705 54.9082 2.05138 55.1133 2.14089 55.2997C2.26917 55.5668 2.39442 55.7644 2.56225 55.9333C2.90262 56.276 3.47064 56.5559 4.77439 56.9284C4.87938 56.9584 4.99572 56.9924 5.12497 57.0301C8.17116 57.9186 18.3825 60.8972 55.8898 63.6233C56.0806 63.6372 56.2241 63.8031 56.2102 63.9939C56.1963 64.1848 56.0304 64.3282 55.8396 64.3143C18.2782 61.5842 8.0304 58.5982 4.93605 57.6966C4.80671 57.6589 4.68988 57.6248 4.58406 57.5946C3.27942 57.2218 2.55014 56.9042 2.07072 56.4216C1.82865 56.1779 1.6634 55.9058 1.51634 55.5995C1.41804 55.3948 1.32154 55.1602 1.21588 54.9034C1.16846 54.7881 1.1192 54.6684 1.0671 54.5448C0.992768 54.3685 1.07542 54.1654 1.2517 54.091Z" fill="#4A4A49"/>
<path fill-rule="evenodd" clip-rule="evenodd" d="M100.985 0.760917C106.771 1.00271 113.151 1.59041 117.538 2.63496C121.036 3.46769 122.837 4.5437 123.6 5.64881C123.992 6.21558 124.108 6.78748 124.032 7.30927C123.957 7.81583 123.707 8.24411 123.411 8.55728L113.218 20.8411H117.443C117.671 20.8411 117.857 21.0265 117.857 21.2552C117.857 21.4838 117.671 21.6692 117.443 21.6692H111.455L122.792 8.00651L122.802 7.99595C123.007 7.78102 123.167 7.50038 123.212 7.18916C123.257 6.88721 123.199 6.52465 122.919 6.1196C122.34 5.28106 120.805 4.26391 117.347 3.44051C113.039 2.41489 106.723 1.8295 100.95 1.58826C95.1695 1.34668 89.9991 1.45287 87.9764 1.79C85.9166 2.1333 84.8874 2.36814 83.5204 2.9683C82.4458 3.44006 81.1694 4.13407 79.0533 5.28466C78.4241 5.62677 77.7206 6.00925 76.9261 6.43826C71.4745 9.38217 65.9222 13.6606 63.7884 15.4644C63.0505 16.4865 60.5582 18.2731 55.9095 18.4945C53.4631 18.6109 49.0602 18.6783 44.5014 18.7481C43.6434 18.7613 42.7799 18.7745 41.9228 18.7881C36.4935 18.8746 31.344 18.9782 29.4358 19.1826L29.3571 19.191C27.3968 19.4009 23.466 19.8216 19.5253 21.4314C15.5359 23.0611 11.5748 25.8931 9.62832 30.9272L9.57843 31.0562L9.46099 31.1293C8.2689 31.8716 6.43536 33.2565 4.83622 34.9823C3.30549 36.6341 2.03415 38.5505 1.69238 40.4783C2.24164 40.8257 2.82193 41.6265 2.61282 42.9858L2.55881 43.3369H1.09495L3.08217 50.3584L2.9104 50.5302C2.47648 50.9641 1.91799 51.6882 1.63944 52.4379C1.3631 53.1818 1.38942 53.8483 1.93239 54.3495C1.94453 54.3607 1.99029 54.3946 2.09549 54.4461C2.19514 54.4947 2.32794 54.5495 2.49585 54.6096C2.83149 54.7298 3.28322 54.8629 3.84086 55.0065C4.95481 55.2933 6.46248 55.6148 8.24788 55.9549C11.817 56.6347 16.4725 57.3842 21.2564 58.0737C26.0398 58.7632 30.9472 59.3923 35.0191 59.8315C39.1053 60.2724 42.3145 60.5178 43.7251 60.4507C46.6435 60.3117 49.4497 60.4487 51.8003 61.0496C54.0675 61.6292 55.9587 62.6534 57.0888 64.3273C59.0475 64.4394 62.0402 64.569 64.9109 64.6078C67.7393 64.646 70.4036 64.5947 71.8574 64.3638C72.2343 63.1513 72.8651 60.5578 72.8651 58.242C72.8651 56.6302 73.0743 52.8758 73.9259 48.7224C74.7756 44.5781 76.2756 39.9804 78.891 36.7289C81.499 33.4865 84.6191 31.5987 88.039 30.9575C91.4535 30.3173 95.1287 30.9265 98.8439 32.6089C102.698 34.3541 104.632 38.5403 105.311 43.5399C105.969 48.378 105.47 54.0874 104.313 59.4051C113.15 58.1682 126.261 56.4579 137.631 55.2426C143.443 54.6213 148.806 54.1288 152.912 53.8953C154.964 53.7787 156.709 53.7262 158.043 53.7557C158.709 53.7704 159.28 53.8057 159.739 53.8654C159.913 53.8879 160.078 53.9148 160.23 53.9475C160.282 49.7855 160.91 43.7705 162.649 38.555C164.456 33.1322 167.532 28.385 172.595 27.7449C175.732 27.3483 178.042 28.3819 179.676 30.2556C181.29 32.1059 182.218 34.745 182.698 37.5393C183.18 40.3411 183.218 43.3438 183.016 45.9651C182.844 48.1859 182.498 50.1578 182.089 51.5157C182.874 51.289 184.078 50.6331 185.093 49.0607C184.774 48.7178 184.449 48.2342 184.335 47.6822C184.26 47.3211 184.274 46.9261 184.444 46.5337C184.582 46.2172 184.812 45.9232 185.142 45.6582C185.033 45.2245 184.963 44.665 185.053 44.1427C185.11 43.8125 185.236 43.4736 185.479 43.1957C185.659 42.991 185.89 42.8345 186.172 42.7373V39.9711C186.004 39.5675 185.801 38.939 185.684 38.2435C185.561 37.5053 185.528 36.6459 185.779 35.8914C186.296 34.3412 186.304 31.7018 184.982 29.3228C184.911 29.1959 184.84 29.067 184.768 28.9365C184.129 27.7858 183.426 26.5173 182.751 25.4433C182.375 24.8456 182.014 24.3177 181.684 23.909C181.343 23.4877 181.071 23.2389 180.88 23.1436C180.545 22.9757 180.044 22.758 179.47 22.5079C179.115 22.3537 178.733 22.1872 178.343 22.0125C177.351 21.5677 176.306 21.0669 175.711 20.6203C175.551 20.5005 175.319 20.3112 175.025 20.0723C174.227 19.4223 172.978 18.4054 171.519 17.4239C170.53 16.7588 169.465 16.1258 168.416 15.6603C167.363 15.1928 166.354 14.9066 165.47 14.9066C165.242 14.9066 165.056 14.7213 165.056 14.4926C165.056 14.2639 165.242 14.0786 165.47 14.0786C166.518 14.0786 167.649 14.4135 168.752 14.9034C169.86 15.3954 170.969 16.0563 171.981 16.7367C173.479 17.7439 174.812 18.8296 175.603 19.4742C175.872 19.693 176.078 19.861 176.208 19.9578C176.716 20.3393 177.673 20.8045 178.682 21.2569C179.045 21.4196 179.415 21.5807 179.765 21.7332C180.359 21.992 180.897 22.2263 181.251 22.4029C181.612 22.5836 181.978 22.9559 182.328 23.3885C182.688 23.8338 183.068 24.3927 183.452 25.0026C184.14 26.0972 184.855 27.3867 185.491 28.5341C185.564 28.665 185.635 28.794 185.706 28.9207C187.144 31.5101 187.152 34.3911 186.565 36.1532C186.375 36.7236 186.387 37.4283 186.501 38.107C186.613 38.7798 186.817 39.3819 186.965 39.7206L187 39.8V43.416L186.649 43.4701C186.377 43.5118 186.211 43.6172 186.102 43.7419C185.987 43.8729 185.909 44.055 185.869 44.2837C185.788 44.7513 185.887 45.3131 186.013 45.6901L186.113 45.9901L185.85 46.1655C185.487 46.4075 185.297 46.6493 185.204 46.8638C185.111 47.0765 185.1 47.294 185.145 47.5137C185.241 47.9729 185.584 48.4164 185.891 48.6824L186.152 48.9086L185.976 49.2059C184.474 51.7484 182.422 52.4456 181.48 52.4456H180.88L181.092 51.885C181.556 50.6607 181.991 48.4794 182.19 45.9013C182.389 43.3299 182.35 40.3981 181.882 37.6795C181.414 34.9534 180.522 32.4861 179.052 30.7998C177.602 29.137 175.566 28.204 172.699 28.5664C168.156 29.1408 165.229 33.4333 163.434 38.8168C161.651 44.1651 161.054 50.4042 161.054 54.5157V55.2072L160.444 54.8807C160.322 54.8151 160.064 54.7427 159.633 54.6865C159.215 54.6322 158.676 54.5979 158.025 54.5836C156.723 54.5548 155.002 54.6059 152.959 54.7221C148.874 54.9544 143.527 55.4452 137.719 56.066C126.105 57.3074 112.667 59.0664 103.837 60.3081L103.242 60.3918L103.376 59.8062C104.611 54.3849 105.155 48.5376 104.491 43.6514C103.824 38.7487 101.963 34.9302 98.5023 33.3632C94.903 31.7333 91.4016 31.1695 88.1916 31.7714C84.987 32.3722 82.0346 34.1418 79.5362 37.2479C77.0452 40.3448 75.578 44.7869 74.7371 48.8887C73.898 52.9814 73.6932 56.6796 73.6932 58.242C73.6932 60.8429 72.9433 63.733 72.5678 64.8595L72.4912 65.0893L72.2533 65.1351C70.7688 65.4206 67.8725 65.4759 64.8997 65.4358C61.91 65.3954 58.7915 65.2571 56.8315 65.1418L56.6181 65.1293L56.5048 64.948C55.5483 63.4176 53.8359 62.4247 51.5952 61.8519C49.3569 61.2797 46.6426 61.1407 43.7645 61.2778C42.277 61.3486 38.9996 61.0938 34.9303 60.6548C30.8466 60.2143 25.9293 59.5839 21.1383 58.8933C16.3477 58.2028 11.6788 57.4514 8.09294 56.7683C6.30084 56.427 4.77335 56.1016 3.63439 55.8084C3.06557 55.6619 2.5864 55.5216 2.21669 55.3892C2.03193 55.3231 1.86844 55.2567 1.73193 55.19C1.60098 55.126 1.47072 55.0503 1.37073 54.958C0.478384 54.1343 0.527711 53.0527 0.863214 52.1496C1.15883 51.3538 1.69747 50.6175 2.15468 50.122L0 42.5088H1.82745C1.85637 41.5387 1.30714 41.1743 1.1066 41.1074L0.783555 40.9998L0.826857 40.662C1.11933 38.3807 2.5813 36.1974 4.22884 34.4194C5.83344 32.6878 7.66078 31.2908 8.90629 30.5C10.9794 25.264 15.1266 22.3338 19.2121 20.6648C23.2623 19.0103 27.289 18.5795 29.2563 18.369C29.2873 18.3657 29.3177 18.3625 29.3476 18.3593C31.3038 18.1497 36.5051 18.0462 41.9096 17.9602C42.7691 17.9465 43.6343 17.9332 44.4933 17.9201C49.0536 17.8503 53.4385 17.7831 55.8701 17.6673C60.4221 17.4506 62.6358 15.6838 63.1387 14.9489L63.1701 14.9029L63.2126 14.8669C65.3414 13.062 70.9781 8.7091 76.5327 5.70964C77.3122 5.2887 78.0068 4.91102 78.6316 4.57126C80.7594 3.41421 82.0781 2.69712 83.1875 2.21008C84.6497 1.56815 85.7597 1.31997 87.8402 0.973205C89.9578 0.62028 95.2072 0.519463 100.985 0.760917Z" fill="#4A4A49"/>
<path fill-rule="evenodd" clip-rule="evenodd" d="M167.209 32.5465C168.725 31.1089 170.714 30.2554 173.288 30.4729C177.413 30.8214 179.874 33.5687 181.265 36.7651C182.651 39.9525 183.007 43.6483 182.914 46.0825C182.905 46.311 182.712 46.4891 182.484 46.4803C182.255 46.4715 182.077 46.2792 182.086 46.0507C182.177 43.7006 181.829 40.1369 180.505 37.0955C179.186 34.063 176.932 31.6119 173.218 31.298C170.893 31.1015 169.133 31.8634 167.779 33.1472C166.412 34.4438 165.446 36.2878 164.77 38.2603C163.416 42.2063 163.266 46.5273 163.266 47.554C163.266 47.6277 163.266 47.716 163.265 47.8177C163.255 49.0466 163.23 52.2244 164.253 55.2396C164.805 56.8669 165.655 58.4213 166.956 59.5917C168.245 60.7511 170 61.5557 172.412 61.6609C174.95 61.3846 180.236 59.0829 180.984 51.9578C181.008 51.7304 181.212 51.5654 181.439 51.5893C181.666 51.6131 181.831 51.8168 181.808 52.0442C181.006 59.6863 175.275 62.1971 172.468 62.4877L172.438 62.4907L172.408 62.4895C169.798 62.3823 167.847 61.5076 166.402 60.2073C164.964 58.9131 164.05 57.2194 163.469 55.5057C162.397 52.349 162.426 49.0376 162.437 47.8134C162.438 47.7122 162.438 47.6253 162.438 47.554C162.438 46.4921 162.589 42.0648 163.987 37.9917C164.685 35.9546 165.707 33.9713 167.209 32.5465Z" fill="#4A4A49"/>
</svg>
