<svg width="174" height="70" viewBox="0 0 174 70" fill="none" xmlns="http://www.w3.org/2000/svg">
<path fill-rule="evenodd" clip-rule="evenodd" d="M150.602 11.3388C158.739 14.8945 164.714 18.6538 167.614 21.3611C173.448 26.8081 174.379 35.2926 173.886 42.3351C173.638 45.8664 173.031 49.0595 172.487 51.3691C172.214 52.5243 171.957 53.4595 171.768 54.1066C171.673 54.4302 171.595 54.6819 171.541 54.8531C171.514 54.9387 171.493 55.0042 171.478 55.0485C171.471 55.0707 171.465 55.0876 171.461 55.099L171.457 55.1121L171.456 55.1156L171.456 55.1166C171.455 55.1168 171.455 55.117 171.151 55.0136L171.455 55.117C171.41 55.2518 171.281 55.3406 171.139 55.3355L170.004 55.2944C169.91 55.291 169.823 55.2468 169.764 55.1732C169.706 55.0996 169.682 55.0042 169.7 54.9118C170.537 50.5466 170.201 45.8691 168.661 42.2602C167.124 38.6592 164.409 36.1573 160.477 36.0106C154.108 35.7751 150.4 40.9714 148.269 46.4025C147.21 49.1029 146.558 51.8224 146.17 53.8694C145.976 54.8922 145.849 55.7455 145.771 56.3423C145.731 56.6406 145.704 56.8748 145.687 57.0339C145.678 57.1134 145.672 57.1742 145.668 57.2148C145.666 57.2311 145.665 57.2442 145.664 57.254L145.662 57.2717L145.662 57.2743L145.662 57.2749C145.648 57.4334 145.52 57.5578 145.362 57.5678L145.342 57.2464C145.362 57.5678 145.362 57.5678 145.361 57.5679L145.36 57.568L145.244 57.5752C145.166 57.5801 145.05 57.5873 144.899 57.5967C144.596 57.6154 144.149 57.6429 143.575 57.6776C142.426 57.7469 140.768 57.8454 138.728 57.9617C134.649 58.1942 129.043 58.4981 122.941 58.7833C110.74 59.3536 96.5344 59.8504 88.5609 59.5521C88.4646 59.5485 88.375 59.5018 88.3167 59.425C88.2585 59.3481 88.2377 59.2491 88.2601 59.1553C89.0579 55.8152 89.2863 49.7242 87.7125 44.3642C86.1404 39.0103 82.8054 34.4743 76.524 34.0184L76.5188 34.018C72.1881 33.6331 68.8927 35.0263 66.3701 37.3308C63.8375 39.6444 62.0728 42.888 60.8476 46.2087C59.6235 49.5263 58.9464 52.8975 58.5757 55.4427C58.3905 56.7145 58.282 57.778 58.2198 58.5228C58.1888 58.8951 58.1693 59.1877 58.1576 59.3866C58.1518 59.4861 58.1479 59.5622 58.1454 59.6131C58.1442 59.6386 58.1434 59.6578 58.1429 59.6704L58.1423 59.6846L58.1421 59.6879L58.1421 59.6886C58.1421 59.6888 58.1421 59.6888 57.8207 59.6768C57.8216 59.9988 57.8213 59.9988 57.8209 59.9988L57.6567 59.9992C57.548 59.9994 57.3868 59.9996 57.1765 59.9998C56.756 60.0001 56.1393 60.0002 55.3544 59.9993C53.7847 59.9975 51.5421 59.9916 48.8508 59.9753C43.4682 59.9426 36.2896 59.8681 29.1069 59.7007C21.9255 59.5334 14.735 59.2732 9.33051 58.8687C6.62995 58.6666 4.36586 58.4278 2.7693 58.1447C1.97353 58.0036 1.32752 57.8488 0.872302 57.6759C0.646203 57.59 0.448103 57.4927 0.299817 57.3778C0.155823 57.2661 0.00923896 57.0979 0.000242969 56.8662C2.4711e-05 56.8606 -4.65245e-05 56.855 2.93541e-05 56.8494C0.0615931 52.2867 0.299468 47.4859 1.02641 43.382C1.74974 39.2985 2.97018 35.8217 5.06076 33.9935C5.19454 33.8765 5.3977 33.8903 5.51451 34.0243C5.63133 34.1583 5.61757 34.3618 5.48379 34.4787C3.57436 36.1485 2.38096 39.4227 1.6597 43.4945C0.943914 47.5354 0.705823 52.2802 0.643633 56.8225C0.651068 56.8315 0.66586 56.8469 0.693543 56.8684C0.76917 56.927 0.89984 56.9975 1.10037 57.0736C1.4984 57.2248 2.09707 57.3713 2.88142 57.5104C4.44512 57.7877 6.68306 58.0246 9.37844 58.2263C14.7659 58.6295 21.9429 58.8895 29.1219 59.0567C36.2996 59.224 43.4742 59.2985 48.8547 59.3312C51.5448 59.3475 53.7863 59.3534 55.3552 59.3552C56.1396 59.3561 56.7559 59.3559 57.176 59.3556C57.309 59.3555 57.4224 59.3554 57.5152 59.3552C57.5153 59.3531 57.5154 59.351 57.5155 59.3488C57.5275 59.1449 57.5473 58.8471 57.5789 58.4691C57.6419 57.7132 57.7518 56.6365 57.9393 55.3497C58.3139 52.778 58.9994 49.3593 60.2443 45.9854C61.488 42.6145 63.2985 39.2649 65.9367 36.8549C68.5843 34.4361 72.0544 32.9752 76.5732 33.3762C83.233 33.8607 86.7198 38.7004 88.3295 44.1824C89.8796 49.4613 89.7216 55.4179 88.9722 58.9221C96.9816 59.1895 110.901 58.7012 122.911 58.1398C129.011 57.8547 134.613 57.551 138.691 57.3185C140.73 57.2023 142.388 57.1039 143.536 57.0346C144.11 56.9999 144.556 56.9725 144.859 56.9537C144.931 56.9493 144.994 56.9454 145.05 56.9419C145.068 56.7792 145.095 56.548 145.133 56.2579C145.213 55.651 145.342 54.7858 145.538 53.7494C145.93 51.6782 146.592 48.9169 147.671 46.1669C149.817 40.6973 153.683 35.1148 160.5 35.3669C164.752 35.5255 167.648 38.2501 169.252 42.0069C170.808 45.6528 171.169 50.3038 170.399 54.6642L170.92 54.683C170.923 54.675 170.925 54.6668 170.928 54.6584C170.981 54.4914 171.057 54.2443 171.15 53.9255C171.337 53.2879 171.591 52.3637 171.861 51.221C172.4 48.9346 173 45.7772 173.244 42.29C173.734 35.2956 172.787 27.0717 167.175 21.8323C164.352 19.1963 158.452 15.472 150.345 11.9292C142.246 8.38962 131.966 5.04109 120.397 3.14427C97.2627 -0.648733 68.9927 1.36508 42.684 19.2403C42.4869 19.4006 42.294 19.5671 42.0971 19.737C41.3904 20.3466 40.6324 21.0005 39.4471 21.5736C37.9211 22.3114 35.6927 22.9194 31.9 23.2368C28.1623 23.5496 24.3413 24.5497 21.4483 25.4753C20.0033 25.9375 18.793 26.3802 17.9445 26.707C17.5203 26.8704 17.1867 27.0048 16.9595 27.0982C16.8459 27.1449 16.7589 27.1813 16.7006 27.206C16.6714 27.2183 16.6494 27.2277 16.6348 27.234L16.6184 27.241L16.6145 27.2427L16.6136 27.2431C16.4506 27.3138 16.261 27.2388 16.1905 27.0755C16.1199 26.9123 16.1949 26.7227 16.3579 26.652L16.4856 26.9476C16.3579 26.652 16.3578 26.6521 16.3579 26.652L16.3584 26.6518L16.3642 26.6493L16.3819 26.6417C16.3975 26.635 16.4204 26.6252 16.4505 26.6125C16.5107 26.5871 16.5997 26.5498 16.7153 26.5023C16.9465 26.4072 17.2846 26.271 17.7136 26.1058C18.5715 25.7753 19.7937 25.3284 21.2526 24.8616C24.1674 23.9291 28.0403 22.9134 31.8464 22.5948C35.5977 22.2809 37.7396 21.6839 39.1674 20.9935C40.2698 20.4606 40.9502 19.8742 41.6473 19.2736C41.856 19.0937 42.0662 18.9126 42.2896 18.7313C42.2967 18.7256 42.304 18.7201 42.3115 18.715C68.794 0.716692 97.2471 -1.30402 120.501 2.50857C132.127 4.41481 142.458 7.77979 150.602 11.3388ZM57.8207 59.6768L57.8216 59.9988C57.9942 59.9984 58.1357 59.8614 58.1421 59.6886L57.8207 59.6768Z" fill="#4A4A49"/>
<path fill-rule="evenodd" clip-rule="evenodd" d="M17.1089 26.5338C17.1582 26.6902 17.0812 26.8583 16.9291 26.926C12.8831 28.7257 11.0061 30.071 10.0117 31.1892C9.51813 31.7442 9.2357 32.2505 9.01329 32.7456C8.9207 32.9518 8.83934 33.1539 8.75573 33.3617C8.73739 33.4073 8.71893 33.4531 8.70023 33.4994C8.59743 33.7534 8.48853 34.0148 8.35538 34.281C7.81437 35.3627 6.72998 36.4044 5.81414 36.9461C5.58237 37.0832 5.35259 37.1936 5.13695 37.2643C4.92619 37.3335 4.70249 37.3735 4.49454 37.3406C4.26913 37.3049 4.06818 37.1821 3.95662 36.9571C3.85545 36.753 3.84858 36.5055 3.89157 36.2463C3.89256 36.2403 3.89373 36.2343 3.89506 36.2284C5.06601 31.0265 10.0577 27.462 16.7346 26.3096C16.8991 26.2813 17.0595 26.3773 17.1089 26.5338ZM4.5447 36.3593C4.51385 36.5521 4.53771 36.6419 4.55305 36.6728C4.55342 36.6736 4.55377 36.6743 4.55412 36.675C4.55863 36.6845 4.56247 36.6926 4.60034 36.6986C4.65858 36.7079 4.76496 36.7007 4.92656 36.6477C5.08327 36.5963 5.26813 36.5096 5.47163 36.3893C6.29687 35.9011 7.28382 34.9467 7.75999 33.9947C7.88113 33.7524 7.98218 33.5107 8.08383 33.2595C8.10156 33.2157 8.11935 33.1715 8.13729 33.1269C8.22108 32.9187 8.3081 32.7024 8.4064 32.4835C8.64849 31.9446 8.96381 31.3781 9.51186 30.7618C10.3211 29.8518 11.6236 28.8492 13.9112 27.6505C8.9361 29.1949 5.46694 32.2809 4.5447 36.3593Z" fill="#4A4A49"/>
<path fill-rule="evenodd" clip-rule="evenodd" d="M53.3096 47.2989C53.4845 47.3252 53.6043 47.4837 53.5771 47.653C53.5531 47.8025 53.5294 47.953 53.5056 48.1043C53.2381 49.8028 52.9562 51.5928 52.0863 53.032C51.1153 54.6381 49.4368 55.7791 46.3903 56.008C43.4097 56.232 34.4688 56.1371 24.999 55.8695C15.5226 55.6017 5.48191 55.1597 0.290385 54.6854C0.11417 54.6693 -0.0151951 54.518 0.0014405 54.3475C0.018076 54.177 0.174413 54.0518 0.350628 54.0679C5.51931 54.5401 15.5414 54.9816 25.0177 55.2495C34.5005 55.5175 43.402 55.6104 46.3407 55.3896C49.2136 55.1737 50.6851 54.1214 51.533 52.7187C52.3377 51.3876 52.6021 49.716 52.8753 47.9884C52.8979 47.8452 52.9207 47.7016 52.9437 47.5578C52.9709 47.3885 53.1347 47.2726 53.3096 47.2989Z" fill="#4A4A49"/>
<path fill-rule="evenodd" clip-rule="evenodd" d="M53.5808 48.7184C53.5853 48.8988 53.4458 49.0488 53.2694 49.0533L38.3651 49.4357L40.7379 51.0168L52.6895 51.0607C52.866 51.0614 53.0086 51.2082 53.0079 51.3886C53.0073 51.5691 52.8637 51.7148 52.6872 51.7142L40.6413 51.6699C40.5797 51.6697 40.5195 51.6513 40.4679 51.6169L37.1546 49.4091C37.0374 49.331 36.9835 49.1839 37.0217 49.0463C37.0598 48.9086 37.1812 48.8124 37.3211 48.8088L53.2533 48.4C53.4298 48.3955 53.5764 48.5381 53.5808 48.7184Z" fill="#4A4A49"/>
<path fill-rule="evenodd" clip-rule="evenodd" d="M5.78557 51.801C5.47172 52.3154 5.16017 53.011 4.91674 53.6107C4.78451 53.9364 4.67455 54.2284 4.59769 54.4389C4.55928 54.544 4.52919 54.6287 4.50877 54.6868C4.49857 54.7159 4.49078 54.7384 4.48559 54.7534L4.47976 54.7704L4.47802 54.7755C4.47802 54.7755 4.47802 54.7755 4.47802 54.7755M5.78557 51.801C8.30417 51.7895 14.6263 52.0233 20.3909 52.2635C23.3402 52.3864 26.1396 52.5109 28.2018 52.6046C29.2329 52.6514 30.0796 52.6906 30.6685 52.718C30.963 52.7318 31.193 52.7426 31.3494 52.7499L31.4937 52.7567C32.7547 53.6554 33.8604 54.7507 34.7679 56.0004C34.8719 56.1436 35.0734 56.1762 35.218 56.0732C35.3627 55.9702 35.3956 55.7707 35.2916 55.6275C34.3243 54.2955 33.1414 53.1313 31.7907 52.1818C31.7404 52.1465 31.681 52.1262 31.6195 52.1232L31.604 52.4422C31.6195 52.1232 31.6196 52.1233 31.6195 52.1232L31.3801 52.1119C31.2236 52.1046 30.9934 52.0938 30.6989 52.08C30.1097 52.0526 29.2627 52.0134 28.2314 51.9665C26.1687 51.8728 23.3683 51.7483 20.418 51.6254C14.5226 51.3797 8.01263 51.1393 5.60298 51.1636C5.49509 51.1646 5.39489 51.2191 5.336 51.3086C4.95526 51.8875 4.5871 52.7101 4.31821 53.3725C4.18253 53.7068 4.06986 54.006 3.99108 54.2217C3.95167 54.3296 3.92068 54.4167 3.89948 54.4771C3.88887 54.5073 3.88071 54.5309 3.87516 54.5469L3.86882 54.5654L3.86658 54.572C3.86656 54.572 3.86651 54.5721 4.17223 54.6739" fill="#4A4A49"/>
<path fill-rule="evenodd" clip-rule="evenodd" d="M62.5661 27.9658C62.7329 27.9407 62.8922 28.0409 62.9325 28.1962C63.0665 28.713 62.8389 29.2118 62.4941 29.6504C62.1458 30.0934 61.6344 30.5317 61.0799 30.9521C60.628 31.2947 60.1326 31.6362 59.6544 31.9658C59.5441 32.0419 59.4346 32.1174 59.3268 32.1921C58.746 32.5945 58.2152 32.9736 57.8172 33.3258C57.6709 33.4552 57.5298 33.5853 57.3888 33.7153C56.7535 34.3011 56.1201 34.8851 55.019 35.4033C53.6789 36.0341 51.6557 36.5682 48.058 36.9876C40.878 37.8246 38.043 37.0912 36.5917 36.0982C36.5068 36.0401 36.4567 35.9467 36.4572 35.8475C36.4576 35.7482 36.5086 35.6553 36.5941 35.5979C38.4033 34.383 40.9373 33.3027 43.7013 32.3656C46.4698 31.4271 49.4891 30.6257 52.2814 29.9745C55.0745 29.3231 57.6447 28.8211 59.5166 28.4819C60.4526 28.3123 61.2144 28.1834 61.7424 28.0968C62.0064 28.0535 62.212 28.0208 62.3517 27.9989C62.4216 27.9879 62.475 27.9797 62.5111 27.9741L62.552 27.9679L62.5658 27.9658C62.566 27.9658 62.5661 27.9658 62.617 28.2696L62.5661 27.9658ZM62.3095 28.6293C62.1866 28.6488 62.0337 28.6734 61.8532 28.703C61.3285 28.7891 60.5706 28.9174 59.6387 29.0862C57.7746 29.424 55.2159 29.9238 52.4368 30.5719C49.6569 31.2201 46.6607 32.0159 43.9203 32.9449C41.3801 33.806 39.0768 34.7761 37.3708 35.8404C38.7536 36.5779 41.5091 37.1312 47.9786 36.3769C51.5509 35.9605 53.488 35.4369 54.7298 34.8524C55.733 34.3802 56.2886 33.869 56.917 33.2907C57.0631 33.1563 57.2132 33.0182 57.3737 32.8762C57.804 32.4954 58.3649 32.0962 58.9432 31.6955C59.054 31.6188 59.1655 31.5419 59.2772 31.4649C59.7546 31.1358 60.2348 30.8047 60.6739 30.4718C61.2176 30.0596 61.6758 29.661 61.9729 29.283C62.1679 29.035 62.2757 28.8191 62.3095 28.6293Z" fill="#4A4A49"/>
<path fill-rule="evenodd" clip-rule="evenodd" d="M83.6323 25.7526C83.8094 25.7476 83.957 25.8907 83.9619 26.0722C83.9668 26.2537 83.8271 26.405 83.65 26.41L83.6411 26.0813L83.6323 25.7526ZM62.8049 28.3765C63.6226 28.0238 65.3172 27.7157 67.4502 27.4579C69.5695 27.2018 72.0754 26.9998 74.4771 26.8444C76.8782 26.689 79.1716 26.5804 80.8651 26.5106C81.7117 26.4757 82.4082 26.4506 82.8929 26.4341C83.1353 26.4259 83.3247 26.4199 83.4534 26.4159C83.5178 26.4139 83.567 26.4124 83.6001 26.4114L83.65 26.41C83.6501 26.41 83.65 26.41 83.6411 26.0813C83.6323 25.7526 83.6324 25.7526 83.6323 25.7526L83.5816 25.754C83.5482 25.755 83.4987 25.7565 83.434 25.7585C83.3047 25.7625 83.1147 25.7686 82.8717 25.7768C82.3857 25.7933 81.6877 25.8185 80.8393 25.8535C79.1428 25.9234 76.8441 26.0323 74.4367 26.188C72.03 26.3438 69.511 26.5466 67.375 26.8048C65.2557 27.061 63.4662 27.3763 62.5515 27.7723C62.5491 27.7733 62.5467 27.7744 62.5443 27.7755L62.6764 28.0752C62.5443 27.7755 62.5443 27.7755 62.5443 27.7755L62.5371 27.7789L62.5166 27.7884C62.4985 27.7969 62.4716 27.8094 62.4361 27.8261C62.365 27.8595 62.2597 27.9092 62.1217 27.975C61.8458 28.1065 61.4397 28.302 60.9177 28.5585C59.8738 29.0716 58.3665 29.8289 56.5113 30.8064C54.703 31.7592 51.5867 32.6209 48.8301 33.0656C47.4544 33.2876 46.1863 33.4027 45.2312 33.3769C44.7518 33.364 44.3675 33.3159 44.093 33.2362C43.7999 33.151 43.7156 33.0546 43.6987 33.0167C43.6252 32.8514 43.435 32.7785 43.2737 32.8538C43.1124 32.9291 43.0413 33.1241 43.1148 33.2894C43.2558 33.6065 43.5882 33.7731 43.918 33.8689C44.2664 33.9701 44.7111 34.0208 45.2143 34.0344C46.224 34.0616 47.5348 33.9404 48.9299 33.7153C51.7148 33.2659 54.9083 32.3905 56.8047 31.3913C58.6541 30.4168 60.1561 29.6622 61.1952 29.1515C61.7148 28.8961 62.1186 28.7017 62.3923 28.5713C62.5292 28.5061 62.6335 28.4568 62.7034 28.424C62.7384 28.4075 62.7648 28.3952 62.7824 28.387L62.8022 28.3778L62.8049 28.3765Z" fill="#4A4A49"/>
<path fill-rule="evenodd" clip-rule="evenodd" d="M118.209 2.30694C118.218 2.48573 118.082 2.63838 117.904 2.6479C111.579 2.98645 107.507 3.86248 104.234 5.26768C100.958 6.67395 98.461 8.61804 95.2797 11.1415C93.7376 12.3648 92.3536 13.6902 90.9892 14.997L90.9012 15.0812C89.5122 16.4114 88.1387 17.7211 86.6536 18.8547C83.6687 21.133 80.2266 22.7045 75.2324 22.4005C67.5817 21.9348 51.0571 21.6967 43.4441 21.587C41.2993 21.5561 39.8618 21.5354 39.5293 21.5226C39.3513 21.5158 39.2124 21.3652 39.2192 21.1863C39.226 21.0074 39.3758 20.8679 39.5539 20.8747C39.8686 20.8868 41.2617 20.9068 43.351 20.9369C50.9124 21.0458 67.5925 21.286 75.2714 21.7533C80.0807 22.046 83.3742 20.5436 86.2634 18.3384C87.7152 17.2302 89.0633 15.9457 90.4562 14.6119L90.5521 14.52C91.9111 13.2184 93.3139 11.8749 94.88 10.6326C98.0553 8.11392 100.615 6.11625 103.981 4.67146C107.349 3.22559 111.502 2.34127 117.87 2.00047C118.048 1.99095 118.2 2.12816 118.209 2.30694Z" fill="#4A4A49"/>
<path fill-rule="evenodd" clip-rule="evenodd" d="M88.2355 23.944C88.6043 23.9096 89.1202 23.8624 89.7692 23.805C89.9473 23.7892 90.1046 23.9196 90.1205 24.0961C90.1364 24.2727 90.0049 24.4285 89.8268 24.4443C89.1192 24.5069 88.5702 24.5573 88.1983 24.5921C88.0123 24.6095 87.8706 24.623 87.7755 24.6321L87.6324 24.646L87.632 24.646C87.5085 24.6581 87.3888 24.5992 87.3239 24.4943C87.2591 24.3894 87.2605 24.257 87.3274 24.1535C92.9332 15.4858 105.314 0.0824966 126.889 5.24271C137.581 7.80005 144.612 10.394 148.977 12.353C151.159 13.3325 152.674 14.1533 153.647 14.7315C154.133 15.0206 154.484 15.249 154.715 15.4063C154.83 15.4849 154.915 15.5458 154.972 15.5875C155.001 15.6084 155.022 15.6245 155.037 15.6357C155.044 15.6413 155.05 15.6456 155.054 15.6487L155.059 15.6524L155.06 15.6535L155.061 15.6539C155.061 15.654 155.061 15.6542 154.86 15.906C155.172 15.8193 155.172 15.8198 155.172 15.8203L155.173 15.8215L155.174 15.8244L155.176 15.8319C155.177 15.8378 155.179 15.8452 155.181 15.8542C155.183 15.8655 155.186 15.8792 155.189 15.8953C155.191 15.9048 155.193 15.9151 155.195 15.9261C155.205 15.986 155.215 16.0691 155.218 16.1721C155.224 16.3784 155.204 16.6642 155.1 17.0015C154.892 17.682 154.359 18.5386 153.116 19.368C150.65 21.0132 145.348 22.5789 133.993 22.4996C124.647 22.4357 115.127 22.7883 107.168 23.2253C106.989 23.2351 106.836 23.0996 106.826 22.9226C106.817 22.7457 106.953 22.5943 107.132 22.5845C115.1 22.147 124.634 21.7938 133.997 21.8577C145.329 21.9369 150.46 20.3663 152.755 18.8355C153.892 18.077 154.322 17.3356 154.481 16.8152C154.561 16.5521 154.575 16.3368 154.571 16.192C154.57 16.151 154.567 16.1156 154.564 16.0864C154.513 16.0496 154.441 15.9988 154.347 15.935C154.128 15.7855 153.789 15.5643 153.314 15.2819C152.364 14.7172 150.87 13.9076 148.71 12.9377C144.388 10.9976 137.395 8.41591 126.737 5.86665C106.057 0.92033 93.9801 15.2294 88.2355 23.944ZM154.86 15.906L155.172 15.8193C155.154 15.754 155.115 15.6962 155.061 15.6542L154.86 15.906Z" fill="#4A4A49"/>
<path fill-rule="evenodd" clip-rule="evenodd" d="M124.913 24.6499C125.086 24.6292 125.244 24.7579 125.264 24.9374L125.941 30.9858C125.943 31.0054 125.943 31.0252 125.942 31.0449L124.919 46.9897C124.908 47.17 124.757 47.3065 124.582 47.2946C124.407 47.2827 124.275 47.1268 124.286 46.9465L125.308 31.0313L124.634 25.0125C124.614 24.833 124.739 24.6706 124.913 24.6499Z" fill="#4A4A49"/>
<path fill-rule="evenodd" clip-rule="evenodd" d="M89.2135 26.8615C89.3952 26.8324 89.5663 26.9547 89.5957 27.1347L90.5544 33.0145C90.5572 33.0316 90.5586 33.0489 90.5586 33.0662L90.5905 44.7547C90.591 44.937 90.4422 45.0853 90.2581 45.0857C90.0741 45.0862 89.9244 44.9388 89.9239 44.7565L89.8921 33.0941L88.9377 27.24C88.9083 27.06 89.0318 26.8905 89.2135 26.8615Z" fill="#4A4A49"/>
<path fill-rule="evenodd" clip-rule="evenodd" d="M153.849 24.1049C154.052 24.0611 154.256 24.1701 154.306 24.3484C154.43 24.7928 154.546 25.6759 154.652 26.7211C154.759 27.7767 154.857 29.026 154.941 30.2213C155.025 31.417 155.094 32.5605 155.143 33.4049C155.167 33.8271 155.186 34.1747 155.199 34.4168C155.205 34.5378 155.21 34.6325 155.214 34.6969L155.219 34.7956C155.219 34.7957 155.219 34.7957 154.842 34.8104C154.465 34.8251 154.465 34.8251 154.465 34.8251L154.46 34.7272C154.456 34.6631 154.451 34.5687 154.445 34.448C154.432 34.2066 154.413 33.8598 154.389 33.4384C154.341 32.5956 154.271 31.4547 154.188 30.2623C154.104 29.0695 154.006 27.827 153.9 26.7801C153.793 25.7229 153.681 24.8929 153.573 24.507C153.523 24.3287 153.647 24.1487 153.849 24.1049ZM154.858 35.1425C154.65 35.1506 154.474 35.0085 154.465 34.8251L154.842 34.8104L155.219 34.7956C155.228 34.979 155.067 35.1344 154.858 35.1425Z" fill="#4A4A49"/>
<path fill-rule="evenodd" clip-rule="evenodd" d="M150.591 26.3298C150.758 26.4048 150.843 26.6258 150.779 26.8232C150.76 26.8808 150.747 26.9302 150.731 26.9878C150.721 27.0239 150.71 27.0633 150.697 27.1099C150.666 27.2174 150.625 27.3424 150.563 27.4682C150.43 27.7368 150.221 27.9597 149.872 28.1266C149.535 28.2877 149.062 28.3996 148.385 28.4606C147.706 28.522 146.801 28.5334 145.589 28.4805C145.41 28.4727 145.27 28.2953 145.276 28.0842C145.283 27.8731 145.434 27.7083 145.613 27.7161C146.812 27.7684 147.69 27.7562 148.336 27.6979C148.985 27.6393 149.381 27.5356 149.627 27.4178C149.861 27.3059 149.95 27.1867 150.002 27.0827C150.032 27.0222 150.056 26.9533 150.082 26.8634C150.088 26.8397 150.096 26.8109 150.105 26.7794C150.125 26.7091 150.148 26.625 150.171 26.5513C150.235 26.3539 150.423 26.2547 150.591 26.3298Z" fill="#4A4A49"/>
<path fill-rule="evenodd" clip-rule="evenodd" d="M122.419 27.4347C122.587 27.5098 122.671 27.7306 122.607 27.928C122.589 27.9855 122.575 28.035 122.559 28.0927C122.549 28.1288 122.539 28.1681 122.525 28.2146C122.494 28.3222 122.454 28.4473 122.392 28.5731C122.259 28.8417 122.05 29.0649 121.7 29.232C121.363 29.3933 120.89 29.5053 120.214 29.5661C119.534 29.6273 118.629 29.6383 117.417 29.5847C117.238 29.5768 117.098 29.3993 117.105 29.1883C117.112 28.9773 117.262 28.8127 117.442 28.8206C118.641 28.8736 119.519 28.8618 120.164 28.8037C120.814 28.7453 121.209 28.6415 121.456 28.5236C121.69 28.4116 121.779 28.2922 121.831 28.1879C121.861 28.1273 121.884 28.0583 121.91 27.9684C121.917 27.9447 121.925 27.9159 121.934 27.8844C121.953 27.8141 121.976 27.7299 122 27.6562C122.064 27.4589 122.252 27.3597 122.419 27.4347Z" fill="#4A4A49"/>
<path fill-rule="evenodd" clip-rule="evenodd" d="M88.9122 32.0557C88.9627 32.1994 88.9206 32.3616 88.8082 32.4564L85.709 35.068C85.5694 35.1857 85.368 35.1622 85.2551 35.015L83.4842 32.7057C83.4059 32.6036 83.3876 32.4628 83.4369 32.3416C83.4862 32.2204 83.5947 32.1392 83.7175 32.1315L88.5876 31.8292C88.7303 31.8203 88.8617 31.9121 88.9122 32.0557ZM84.3983 32.793L85.5567 34.3036L87.5839 32.5953L84.3983 32.793Z" fill="#4A4A49"/>
<path fill-rule="evenodd" clip-rule="evenodd" d="M15.6052 58.4021C15.7508 58.2974 15.9503 58.3356 16.0507 58.4874C17.0784 60.0411 19.5749 62.1937 22.5665 62.9355C24.0548 63.3045 25.6573 63.3224 27.2615 62.7522C28.8649 62.1823 30.4917 61.0174 32.0179 58.9848C32.127 58.8396 32.3283 58.814 32.4676 58.9277C32.6069 59.0415 32.6314 59.2514 32.5224 59.3966C30.9309 61.516 29.2058 62.767 27.4682 63.3845C25.7315 64.0018 24.004 63.9786 22.4183 63.5854C19.2619 62.8028 16.6346 60.5467 15.5233 58.8667C15.4229 58.7149 15.4595 58.5068 15.6052 58.4021Z" fill="#4A4A49"/>
<path fill-rule="evenodd" clip-rule="evenodd" d="M11.2744 58.358C11.4452 58.3047 11.6274 58.3984 11.6814 58.5673C13.1743 63.244 17.9712 66.4838 23.1847 67.0153C28.3767 67.5446 33.9343 65.3799 36.9461 59.2896C37.0248 59.1305 37.219 59.0646 37.38 59.1424C37.5409 59.2202 37.6075 59.4123 37.5288 59.5715C34.3844 65.93 28.5497 68.2071 23.1182 67.6534C17.7082 67.1019 12.6505 63.7339 11.0627 58.7604C11.0088 58.5915 11.1036 58.4113 11.2744 58.358Z" fill="#4A4A49"/>
<path fill-rule="evenodd" clip-rule="evenodd" d="M78.5152 43.6295C73.0288 39.9441 66.8874 40.8374 62.8009 44.8725C62.676 44.9958 62.4743 44.995 62.3504 44.8707C62.2265 44.7464 62.2273 44.5457 62.3522 44.4224C66.6515 40.1772 73.1295 39.2467 78.8716 43.104L78.8716 43.104C82.7524 45.712 84.187 50.2683 83.9337 54.5888C83.6811 58.8983 81.7426 63.0808 78.7382 64.9551L78.7379 64.9553C73.7752 68.0439 66.4011 68.4801 61.6533 62.6119L61.6514 62.6095C59.9614 60.4787 58.9043 57.9199 58.6001 55.2221C58.5821 55.0682 58.5666 54.9192 58.5537 54.7778C58.5378 54.6034 58.6669 54.4492 58.8421 54.4334C59.0173 54.4175 59.1722 54.546 59.1881 54.7204C59.2006 54.8566 59.2155 55.0004 59.233 55.1493L59.2332 55.1507C59.5239 57.7306 60.5346 60.1777 62.1505 62.2155C66.6362 67.7585 73.6218 67.3914 78.3999 64.4179C81.1696 62.69 83.0523 58.7387 83.2977 54.5519C83.5425 50.3761 82.1522 46.0736 78.5152 43.6295Z" fill="#4A4A49"/>
<path fill-rule="evenodd" clip-rule="evenodd" d="M81.5937 43.436C77.2989 38.5856 71.9985 37.8431 67.4723 39.0689C67.3023 39.1149 67.1275 39.013 67.0819 38.8411C67.0364 38.6693 67.1373 38.4927 67.3073 38.4466C72.0311 37.1673 77.591 37.9494 82.0687 43.0064L82.0689 43.0065C88.0313 49.7498 86.9882 59.2393 82.1844 64.8733C77.3668 70.5234 67.6274 72.0245 61.3648 66.4158C61.3598 66.4114 61.3549 66.4067 61.3502 66.4019C59.6927 64.7178 58.8195 63.286 58.3095 62.1477C58.055 61.5797 57.8929 61.0893 57.7697 60.6862C57.739 60.5858 57.7113 60.493 57.6856 60.4072C57.6049 60.1367 57.5445 59.9344 57.4749 59.7754C57.4038 59.6127 57.4766 59.4225 57.6376 59.3506C57.7986 59.2787 57.9868 59.3523 58.058 59.515C58.1449 59.7138 58.2213 59.9698 58.3052 60.2513C58.329 60.3311 58.3534 60.4129 58.3788 60.496C58.498 60.8861 58.651 61.3482 58.8902 61.882C59.3668 62.9456 60.1936 64.3116 61.7951 65.9404C67.7645 71.2783 77.0932 69.8574 81.7015 64.4527C86.3255 59.0296 87.3142 49.9058 81.5937 43.436Z" fill="#4A4A49"/>
<path fill-rule="evenodd" clip-rule="evenodd" d="M50.5403 59.4633C50.7435 59.4044 50.9575 59.5157 51.0184 59.712C51.0918 59.9482 51.164 60.1973 51.2391 60.4565C51.7682 62.2825 52.4423 64.6087 54.6729 66.4135C57.2101 68.4663 61.8484 69.8954 70.8271 68.8494C71.0376 68.8249 71.2289 68.9699 71.2543 69.1733C71.2797 69.3768 71.1296 69.5616 70.919 69.5861C61.8512 70.6425 56.9543 69.2272 54.1799 66.9824C51.7536 65.0193 51.0174 62.4606 50.4935 60.6398C50.4205 60.3861 50.3517 60.1467 50.2829 59.9252C50.222 59.729 50.3372 59.5221 50.5403 59.4633Z" fill="#4A4A49"/>
<path fill-rule="evenodd" clip-rule="evenodd" d="M76.4329 35.1429C76.4366 35.1428 76.4404 35.1428 76.4441 35.1428C81.109 35.1962 84.2693 38.756 86.0604 43.4343C87.8217 48.0351 88.3065 53.8169 87.5998 58.7662C87.9064 58.8273 88.2242 58.8195 88.5292 58.7418C88.7022 58.6978 88.8786 58.801 88.9231 58.9724C88.9676 59.1438 88.8633 59.3185 88.6902 59.3625C88.1769 59.4932 87.6361 59.4729 87.1343 59.3046C86.9858 59.2548 86.8947 59.1067 86.9182 58.9531C87.6702 54.0371 87.206 48.2346 85.4553 43.6615C83.7014 39.0802 80.7054 35.8353 76.4422 35.7837C69.0386 35.9557 64.8973 40.2287 62.3731 45.115C61.1085 47.563 60.2548 50.1579 59.6074 52.4563C59.3535 53.3578 59.1294 54.2217 58.9242 55.0134C58.6113 56.2197 58.342 57.2584 58.0766 58.0069C58.0174 58.1738 57.8327 58.2617 57.6641 58.203C57.4955 58.1444 57.4068 57.9615 57.466 57.7945C57.7238 57.0675 57.9801 56.0779 58.285 54.9007C58.4907 54.1063 58.7186 53.2264 58.984 52.2841C59.6362 49.9689 60.5036 47.3268 61.797 44.8232C64.388 39.8075 68.7083 35.3202 76.4329 35.1429Z" fill="#4A4A49"/>
<path fill-rule="evenodd" clip-rule="evenodd" d="M146.654 54.7254C146.395 55.5209 146.144 56.2916 145.895 57.0229C145.839 57.1885 145.658 57.2773 145.492 57.2212C145.326 57.165 145.237 56.9852 145.293 56.8196C145.536 56.1051 145.783 55.3465 146.039 54.5591C147.241 50.8662 148.649 46.5403 150.812 43.1658C152.129 41.1119 153.741 39.3829 155.782 38.3568C157.831 37.327 160.283 37.0201 163.245 37.7607C163.249 37.7616 163.252 37.7626 163.256 37.7637C166.086 38.5819 167.888 41.4182 168.928 44.6493C169.975 47.8984 170.288 51.6516 170.066 54.4829C170.052 54.6573 169.9 54.7876 169.725 54.774C169.55 54.7604 169.419 54.608 169.433 54.4336C169.649 51.6753 169.342 48.0054 168.323 44.8429C167.3 41.6646 165.593 39.102 163.085 38.3736C160.256 37.6675 157.964 37.9694 156.068 38.9224C154.164 39.8797 152.628 41.5093 151.348 43.5069C149.233 46.8055 147.857 51.0326 146.654 54.7254Z" fill="#4A4A49"/>
<path fill-rule="evenodd" clip-rule="evenodd" d="M153.655 43.0592C151.913 45.2042 150.554 48.7316 150.354 54.1561C150.154 59.5799 151.316 62.8979 153.026 64.8786C154.733 66.8562 157.033 67.5545 159.227 67.6371C161.348 67.717 163.608 66.5654 165.286 64.0791C166.965 61.5922 168.058 57.7714 167.803 52.5622C167.548 47.3475 166.22 44.3003 164.587 42.5423C162.957 40.7884 160.983 40.2739 159.338 40.2118L159.337 40.2117C157.527 40.1364 155.394 40.9178 153.655 43.0592ZM159.362 39.5675C157.345 39.4837 155.023 40.3592 153.163 42.6495C151.306 44.9364 149.921 48.6159 149.718 54.1321C149.515 59.649 150.692 63.1538 152.547 65.3031C154.405 67.4556 156.897 68.1946 159.203 68.2815C161.583 68.3711 164.034 67.0759 165.812 64.4431C167.589 61.811 168.698 57.8405 168.439 52.5303C168.179 47.2257 166.823 44.0087 165.05 42.1004C163.273 40.1881 161.12 39.6339 159.362 39.5675Z" fill="#4A4A49"/>
<path fill-rule="evenodd" clip-rule="evenodd" d="M143.474 56.6871C143.655 56.7031 143.789 56.8608 143.772 57.0393C143.555 59.4452 144.072 61.8605 145.256 63.9735L145.257 63.974C145.809 64.9638 146.612 65.7951 147.587 66.3868C148.562 66.9784 149.676 67.3103 150.819 67.3497C152.485 67.4066 154.994 67.4972 158.769 67.6368C158.951 67.6435 159.092 67.7942 159.085 67.9733C159.079 68.1525 158.926 68.2923 158.745 68.2856C154.969 68.1459 152.461 68.0554 150.797 67.9985L150.796 67.9985C149.539 67.9552 148.315 67.5903 147.243 66.9399L147.243 66.9399C146.171 66.2896 145.289 65.3757 144.681 64.2878C143.433 62.0614 142.888 59.5165 143.118 56.9815C143.134 56.8029 143.294 56.6711 143.474 56.6871Z" fill="#4A4A49"/>
<path fill-rule="evenodd" clip-rule="evenodd" d="M143.771 10.3314C143.92 10.2412 144.114 10.2885 144.204 10.4368C144.542 10.9917 144.802 11.9455 145.006 13.0143C145.214 14.0977 145.374 15.3475 145.496 16.5288C145.617 17.7111 145.7 18.8299 145.753 19.6527C145.779 20.0643 145.798 20.4021 145.81 20.6372C145.817 20.7548 145.821 20.8467 145.824 20.9093C145.825 20.9406 145.826 20.9646 145.827 20.9808L145.828 21.0055C145.828 21.0056 145.828 21.0057 145.513 21.0189C145.198 21.0322 145.198 21.0322 145.198 21.0322L145.197 21.0087C145.196 20.9929 145.195 20.9694 145.194 20.9386C145.191 20.877 145.186 20.7861 145.18 20.6697C145.168 20.4367 145.15 20.1015 145.123 19.6928C145.071 18.8751 144.989 17.7648 144.868 16.5929C144.748 15.4199 144.59 14.1902 144.387 13.1322C144.181 12.0596 143.937 11.2101 143.665 10.7632C143.574 10.6148 143.622 10.4215 143.771 10.3314ZM145.526 21.333C145.352 21.3403 145.205 21.2056 145.198 21.0322L145.513 21.0189L145.828 21.0055C145.836 21.179 145.7 21.3256 145.526 21.333Z" fill="#4A4A49"/>
<path fill-rule="evenodd" clip-rule="evenodd" d="M124.477 4.78042C124.626 4.72148 124.79 4.80836 124.843 4.97447C125.542 7.16569 126.092 11.4639 126.466 15.1771C126.654 17.0415 126.8 18.7709 126.898 20.0341C126.947 20.6658 126.984 21.181 127.009 21.5385C127.022 21.7172 127.031 21.8565 127.037 21.9512C127.041 21.9986 127.043 22.0348 127.045 22.0592L127.047 22.0961C127.047 22.0962 127.047 22.0963 126.761 22.119C126.475 22.1417 126.475 22.1417 126.475 22.1416L126.472 22.1055C126.471 22.0814 126.468 22.0456 126.465 21.9986C126.459 21.9046 126.449 21.766 126.437 21.5881C126.412 21.2322 126.375 20.7187 126.326 20.089C126.228 18.8295 126.083 17.1058 125.896 15.2482C125.52 11.5175 124.975 7.29683 124.302 5.18791C124.249 5.0218 124.327 4.83936 124.477 4.78042ZM126.781 22.4373C126.623 22.4499 126.486 22.3174 126.475 22.1416L126.761 22.119L127.047 22.0961C127.058 22.2719 126.939 22.4248 126.781 22.4373Z" fill="#4A4A49"/>
<path fill-rule="evenodd" clip-rule="evenodd" d="M121.755 4.21617C121.912 4.18023 122.065 4.29249 122.097 4.4669C122.529 6.79958 122.631 11.2302 122.629 15.0448C122.627 16.9591 122.599 18.7295 122.571 20.0211C122.558 20.667 122.544 21.1934 122.533 21.5584C122.528 21.7409 122.524 21.8831 122.521 21.9797C122.52 22.028 122.518 22.0649 122.518 22.0898L122.516 22.1275C122.516 22.1276 122.516 22.1276 122.227 22.1156C121.937 22.1036 121.937 22.1035 121.937 22.1034L121.939 22.0666C121.939 22.042 121.94 22.0054 121.942 21.9574C121.945 21.8614 121.949 21.7199 121.954 21.5381C121.965 21.1746 121.978 20.6498 121.992 20.0057C122.02 18.7174 122.048 16.9523 122.049 15.0442C122.052 11.2142 121.947 6.85296 121.53 4.59704C121.498 4.42263 121.598 4.25211 121.755 4.21617ZM122.216 22.4378C122.056 22.4312 121.931 22.2814 121.937 22.1034L122.227 22.1156L122.516 22.1275C122.51 22.3054 122.376 22.4445 122.216 22.4378Z" fill="#4A4A49"/>
<path fill-rule="evenodd" clip-rule="evenodd" d="M138.637 48.0949C138.682 48.2721 138.58 48.4535 138.408 48.5002C135.723 49.2284 127.156 50.3704 117.981 51.3666C108.793 52.3641 98.9472 53.2203 93.6834 53.3713C93.5056 53.3764 93.3575 53.2321 93.3525 53.049C93.3476 52.8659 93.4877 52.7133 93.6655 52.7082C98.9024 52.558 108.727 51.7042 117.913 50.7069C127.11 49.7084 135.618 48.5709 138.243 47.8587C138.415 47.812 138.592 47.9178 138.637 48.0949Z" fill="#4A4A49"/>
<path fill-rule="evenodd" clip-rule="evenodd" d="M141.405 54.7548C141.434 54.9359 141.314 55.1067 141.137 55.1362C139.378 55.4298 129.492 56.1143 119.012 56.7138C108.523 57.3139 97.3898 57.8316 93.1218 57.7878C92.9423 57.7859 92.7983 57.6357 92.8001 57.4522C92.8019 57.2687 92.9488 57.1215 93.1283 57.1234C97.3702 57.1669 108.48 56.6509 118.976 56.0504C129.48 55.4495 139.318 54.7667 141.032 54.4805C141.209 54.4509 141.376 54.5737 141.405 54.7548Z" fill="#4A4A49"/>
<path fill-rule="evenodd" clip-rule="evenodd" d="M116.902 58.3643C117.066 58.4262 117.147 58.6049 117.083 58.7633C115.152 63.5301 110.698 65.2148 106.508 64.9438C104.415 64.8084 102.373 64.1861 100.718 63.2084C99.0657 62.232 97.7777 60.8874 97.2351 59.2973C97.18 59.1357 97.271 58.9616 97.4384 58.9084C97.6058 58.8551 97.7862 58.943 97.8413 59.1046C98.3235 60.5176 99.4869 61.7585 101.052 62.6829C102.614 63.6061 104.556 64.2 106.551 64.3291C110.538 64.587 114.684 62.9937 116.488 58.539C116.552 58.3805 116.738 58.3023 116.902 58.3643Z" fill="#4A4A49"/>
<path fill-rule="evenodd" clip-rule="evenodd" d="M15.9814 28.1161C16.0734 28.2659 16.0227 28.4596 15.8682 28.5488C13.8576 29.7096 11.6584 31.1136 10.6145 32.2605C10.3559 32.5448 10.1855 32.7951 10.1015 33.0056C10.0193 33.2117 10.0299 33.3508 10.0831 33.4531C10.1401 33.5629 10.281 33.6981 10.6036 33.8203C10.9243 33.9417 11.3895 34.0364 12.0341 34.0871C17.3044 34.501 27.4262 34.644 32.2606 34.3733C34.6223 34.241 37.2604 33.2448 40.0809 32.1407C40.2091 32.0905 40.3377 32.04 40.4667 31.9895C43.1502 30.9374 45.9769 29.8292 48.7843 29.3895C48.9618 29.3617 49.1289 29.4787 49.1576 29.6508C49.1863 29.8229 49.0656 29.9849 48.8881 30.0127C46.1553 30.4407 43.3908 31.5243 40.687 32.584C40.5661 32.6314 40.4453 32.6788 40.3246 32.726C37.5286 33.8206 34.7869 34.8641 32.2981 35.0035C27.4312 35.276 17.2791 35.1323 11.9816 34.7163C11.3052 34.6632 10.77 34.561 10.3667 34.4083C9.96538 34.2563 9.65903 34.0401 9.5016 33.7371C9.34028 33.4266 9.36918 33.0915 9.49429 32.7779C9.61764 32.4686 9.84357 32.1536 10.1264 31.8429C11.2484 30.61 13.538 29.1594 15.5351 28.0064C15.6896 27.9172 15.8894 27.9663 15.9814 28.1161Z" fill="#4A4A49"/>
<path fill-rule="evenodd" clip-rule="evenodd" d="M101.791 17.2736C102.333 17.373 102.908 17.4783 103.527 17.5716C105.064 17.8028 106.079 18.8171 106.714 19.9357C107.347 21.0494 107.628 22.3049 107.696 23.1304L107.714 23.3562L107.531 23.4845C107.264 23.6709 106.862 23.8095 106.401 23.9214C105.928 24.0361 105.349 24.1327 104.695 24.2144C103.388 24.3777 101.754 24.4848 100.022 24.5517C96.5556 24.6855 92.6668 24.6593 90.1429 24.5941L89.9896 24.5902L89.8811 24.4799C89.5364 24.1297 89.4445 23.732 89.5014 23.3766C89.5544 23.0454 89.7309 22.7791 89.881 22.6265L89.9936 22.5122H95.0158C95.0439 21.5638 95.3085 19.8996 96.23 18.4015C96.5853 17.8238 97.0169 17.4336 97.5334 17.1988C98.0433 16.9669 98.6072 16.8997 99.2079 16.9169C99.8066 16.934 100.467 17.0363 101.178 17.1624C101.378 17.1979 101.582 17.2353 101.791 17.2736ZM97.8472 17.9115C97.4873 18.0751 97.1666 18.3519 96.8816 18.8153C95.9089 20.3966 95.7475 22.2024 95.7867 22.8796L95.8107 23.293H90.3383C90.3026 23.3534 90.272 23.426 90.2598 23.5021C90.246 23.5883 90.2518 23.6948 90.3338 23.8179C92.8494 23.8796 96.6248 23.9015 99.9924 23.7715C101.716 23.7049 103.325 23.5989 104.602 23.4394C105.24 23.3596 105.788 23.2673 106.222 23.162C106.519 23.0899 106.744 23.0159 106.904 22.945C106.811 22.2164 106.553 21.2136 106.049 20.326C105.487 19.3366 104.644 18.529 103.415 18.3439C102.783 18.2487 102.19 18.14 101.644 18.04C101.437 18.0022 101.238 17.9657 101.046 17.9316C100.336 17.8056 99.7241 17.7127 99.1862 17.6973C98.6504 17.682 98.2137 17.7448 97.8472 17.9115Z" fill="#4A4A49"/>
<path fill-rule="evenodd" clip-rule="evenodd" d="M164.788 44.6318C166.437 46.9403 167.492 50.2099 167.36 53.7657C167.229 57.2926 166.313 60.5445 164.885 62.8954C163.463 65.2351 161.479 66.7614 159.205 66.6197C157.031 66.4842 155.008 65.5606 153.562 63.2882C152.132 61.041 151.291 57.5105 151.356 52.2024C151.408 47.9134 152.579 45.1771 154.074 43.508C155.554 41.8564 157.326 41.2777 158.555 41.2686C160.878 40.932 163.155 42.345 164.788 44.6318ZM164.157 45.0797C162.603 42.904 160.568 41.7454 158.642 42.0363L158.613 42.0407H158.584C157.576 42.0407 155.996 42.5213 154.652 44.0222C153.312 45.5188 152.181 48.0588 152.13 52.2119C152.066 57.4564 152.903 60.8108 154.216 62.8747C155.513 64.9135 157.297 65.7271 159.253 65.849C161.11 65.9647 162.868 64.7241 164.222 62.4954C165.569 60.2778 166.459 57.1595 166.586 53.7371C166.713 50.3437 165.703 47.2432 164.157 45.0797Z" fill="#4A4A49"/>
</svg>
