<svg width="191" height="71" viewBox="0 0 191 71" fill="none" xmlns="http://www.w3.org/2000/svg">
<path fill-rule="evenodd" clip-rule="evenodd" d="M124.705 1.45302C147.724 3.7426 166.053 12.6877 174.464 20.8762C176.94 23.2884 178.976 24.1344 180.863 24.9183C181.213 25.0637 181.558 25.207 181.9 25.3577C182.997 25.8419 184.058 26.4039 185.111 27.363C186.163 28.3207 187.192 29.6601 188.25 31.6825C190.773 36.5042 190.708 41.4327 190.021 45.1398C189.677 46.9945 189.176 48.5493 188.761 49.6413C188.554 50.1875 188.367 50.6185 188.232 50.9141C188.165 51.0619 188.11 51.1759 188.072 51.2536C188.053 51.2924 188.038 51.3222 188.028 51.3425C188.022 51.3527 188.018 51.3605 188.016 51.3659L188.011 51.3741L188.011 51.3747C188.011 51.3749 188.011 51.375 187.709 51.2167L188.011 51.375C187.991 51.4122 187.965 51.4455 187.934 51.4731L182.397 56.3355C182.29 56.4297 182.135 56.4472 182.01 56.3794C181.884 56.3116 181.814 56.1728 181.834 56.0315L181.834 56.0312L181.834 56.0294L181.835 56.0218L181.839 55.9902C181.843 55.962 181.849 55.9196 181.856 55.864C181.869 55.7527 181.889 55.5882 181.911 55.3769C181.955 54.9544 182.01 54.3454 182.053 53.6019C182.14 52.114 182.18 50.0928 181.992 47.9539C181.805 45.8127 181.391 43.5693 180.579 41.6291C179.768 39.6896 178.569 38.0776 176.826 37.1542C174.649 36.0012 172.78 35.8765 171.18 36.485C169.568 37.0984 168.171 38.4788 166.997 40.4535C164.646 44.4076 163.272 50.6088 162.837 57.1812C162.825 57.3595 162.678 57.4986 162.499 57.4999C162.016 57.5037 161.402 57.507 160.671 57.511C155.043 57.5414 142.503 57.6092 129.792 58.1992C122.611 58.5325 115.381 59.0322 109.315 59.785C106.282 60.1614 103.545 60.6006 101.254 61.1125C98.9565 61.6257 97.1285 62.2075 95.9002 62.8608C95.7684 62.9309 95.6064 62.9072 95.5002 62.8024C95.394 62.6975 95.3682 62.5358 95.4366 62.4031C99.0632 55.3646 99.0221 47.6767 96.3767 41.9055C93.7348 36.1416 88.5095 32.3037 81.7253 32.8715C75.2882 33.4102 71.2511 37.844 68.7627 43.65C66.2728 49.4599 65.3671 56.579 65.1774 62.3206L64.8363 62.3093L64.8797 62.6478C62.2266 62.9884 55.8154 62.8311 49.5215 62.5005C43.2194 62.1695 36.972 61.661 34.6293 61.2866C34.5661 61.2765 34.5069 61.2488 34.4587 61.2067C34.1965 60.9778 33.7165 60.7348 33.0298 60.4907C32.3527 60.2499 31.5091 60.0197 30.5499 59.8009C28.6321 59.3636 26.2791 58.9784 23.9268 58.6473C21.5757 58.3163 19.2324 58.0403 17.3351 57.8204C17.1571 57.7998 16.9828 57.7796 16.8127 57.7599C15.1798 57.5711 13.9273 57.4263 13.4082 57.3281C12.5104 57.1584 11.086 56.8655 9.60301 56.5604C7.36075 56.0993 4.98441 55.6105 4.09125 55.4785C3.4781 55.3878 2.98205 55.4845 2.5439 55.5699C2.49792 55.5788 2.45259 55.5877 2.40782 55.5962C2.18573 55.6382 1.93637 55.6806 1.70906 55.6472C1.44771 55.6088 1.22645 55.4736 1.07322 55.2134C0.896452 54.9131 0.951575 54.6005 1.06628 54.3576C1.17834 54.1202 1.36449 53.9057 1.54114 53.7346C1.72157 53.5597 1.91266 53.4105 2.05637 53.3062C2.05837 53.3048 2.06035 53.3034 2.06233 53.3019C1.23926 51.3553 0.659049 48.8711 0.328577 46.7711C0.155485 45.6712 0.0494803 44.6677 0.0136703 43.8916C-0.00420099 43.5042 -0.00491023 43.1671 0.0136736 42.8999C0.0229519 42.7665 0.0374401 42.6444 0.0589307 42.5391C0.0790862 42.4403 0.110683 42.3284 0.168657 42.2346C0.566731 41.5899 1.3548 39.9351 2.0844 37.5354C1.96825 34.782 2.48526 32.6525 4.02973 30.9692C5.56959 29.2909 8.08643 28.1073 11.8411 27.1321L11.8416 27.132C15.7382 26.1263 24.4893 24.8321 32.2419 23.7912C36.1235 23.27 39.7627 22.8114 42.4315 22.483C43.7659 22.3188 44.8578 22.1872 45.6161 22.0966C45.9953 22.0514 46.291 22.0163 46.4921 21.9926C46.5897 21.9811 46.665 21.9723 46.7166 21.9662C73.9615 3.52398 101.691 -0.836108 124.705 1.45302ZM46.839 22.2955C46.8786 22.6345 46.8785 22.6345 46.8783 22.6345L46.8774 22.6346L46.8006 22.6436C46.7491 22.6497 46.6724 22.6587 46.572 22.6705C46.3713 22.6942 46.0759 22.7292 45.697 22.7744C44.9394 22.8649 43.8483 22.9964 42.5148 23.1605C39.8477 23.4886 36.2111 23.9469 32.3327 24.4677C24.5657 25.5105 15.8609 26.7997 12.0124 27.7928C8.29152 28.7593 5.93522 29.9021 4.53268 31.4307C3.14568 32.9423 2.64739 34.8818 2.76885 37.5633C2.7706 37.6019 2.76578 37.6405 2.75461 37.6775C2.00951 40.1429 1.19132 41.8776 0.749424 42.5932C0.750219 42.5919 0.750619 42.5912 0.750673 42.5913C0.750981 42.5914 0.740292 42.614 0.727727 42.6756C0.714272 42.7415 0.702654 42.8316 0.694607 42.9473C0.678539 43.1783 0.678297 43.4868 0.695524 43.8601C0.729909 44.6053 0.832621 45.5833 1.00286 46.665C1.34403 48.833 1.9507 51.3819 2.79946 53.2859C2.86891 53.4417 2.81266 53.6249 2.66777 53.7148C2.66771 53.7149 2.66784 53.7148 2.66777 53.7148L2.48774 53.4249C2.66759 53.7149 2.66772 53.7149 2.66777 53.7148L2.6675 53.715L2.6653 53.7164L2.65487 53.723C2.64533 53.7291 2.63082 53.7385 2.61215 53.7509C2.57475 53.7758 2.52096 53.8125 2.45731 53.8586C2.32891 53.9518 2.16545 54.0801 2.01616 54.2247C1.86307 54.3731 1.7443 54.5203 1.68352 54.649C1.62536 54.7722 1.63969 54.8301 1.66144 54.8671C1.70674 54.944 1.74517 54.9626 1.80829 54.9718C1.90545 54.9861 2.04531 54.9701 2.28076 54.9255C2.32347 54.9174 2.36812 54.9086 2.41467 54.8995C2.85178 54.8136 3.45653 54.6947 4.19106 54.8032C5.09817 54.9373 7.5283 55.4369 9.7929 55.9025C11.2647 56.2051 12.6665 56.4933 13.5349 56.6574C14.0282 56.7507 15.2569 56.8928 16.9137 57.0845C17.0763 57.1033 17.2431 57.1226 17.4137 57.1424C19.3113 57.3623 21.6619 57.6391 24.0219 57.9714C26.3806 58.3034 28.7559 58.6917 30.7017 59.1354C31.6743 59.3572 32.5463 59.5943 33.2584 59.8475C33.9122 60.08 34.4623 60.3364 34.8288 60.627C34.7976 60.6221 34.767 60.6173 34.737 60.6126L34.6832 60.9496L34.9076 60.6925C34.8824 60.6704 34.8561 60.6486 34.8288 60.627C37.2007 60.9937 43.3342 61.492 49.5573 61.8189C55.6477 62.1388 61.7655 62.2909 64.5055 62.0041C64.7174 56.2767 65.6399 49.2037 68.1354 43.3811C70.6752 37.4549 74.878 32.7595 81.6683 32.1913C88.7886 31.5953 94.2575 35.6438 96.9973 41.621C99.6226 47.3486 99.7551 54.8602 96.4777 61.8337C97.7029 61.3147 99.2739 60.8554 101.105 60.4464C103.426 59.9279 106.186 59.4856 109.231 59.1076C115.322 58.3517 122.572 57.851 129.76 57.5173C142.487 56.9267 155.041 56.8588 160.668 56.8284C161.247 56.8253 161.753 56.8225 162.178 56.8197C162.638 50.3232 164.017 44.1307 166.41 40.1047C167.627 38.0567 169.128 36.5355 170.937 35.8471C172.759 35.1539 174.835 35.3273 177.146 36.551C179.073 37.5721 180.359 39.3355 181.209 41.3656C182.058 43.395 182.481 45.715 182.672 47.8943C182.863 50.076 182.823 52.1322 182.735 53.6417C182.697 54.2827 182.651 54.8259 182.611 55.2394L187.434 51.0036C187.437 50.9982 187.44 50.9924 187.443 50.9862C187.448 50.976 187.453 50.9648 187.459 50.9525C187.495 50.8804 187.547 50.7722 187.612 50.6305C187.741 50.347 187.922 49.9297 188.123 49.3988C188.527 48.3365 189.015 46.8217 189.35 45.0153C190.02 41.4003 190.074 36.6408 187.646 31.999C186.614 30.0279 185.63 28.7586 184.652 27.8677C183.675 26.9781 182.688 26.4515 181.624 25.9822C181.295 25.8368 180.958 25.697 180.612 25.5536C178.716 24.7668 176.563 23.8735 173.988 21.3652C165.714 13.3105 147.544 4.41064 124.638 2.13225C101.746 -0.144665 74.1522 4.19493 47.0305 22.578C46.9851 22.6088 46.933 22.6281 46.8786 22.6345L46.839 22.2955Z" fill="#4A4A49"/>
<path fill-rule="evenodd" clip-rule="evenodd" d="M123.581 13.7978C125.762 14.1555 127.871 14.9064 129.076 16.2239C129.692 16.897 129.923 17.6162 129.704 18.3129C129.494 18.9823 128.896 19.531 128.09 19.9551C126.471 20.8072 123.79 21.2769 120.615 21.1327L120.615 21.1327C117.551 20.991 114.06 21.1901 111.329 21.4259C109.965 21.5436 108.793 21.6703 107.963 21.7675C107.547 21.8161 107.218 21.8573 106.992 21.8864C106.879 21.9009 106.792 21.9123 106.734 21.9202C106.704 21.9241 106.682 21.9271 106.667 21.9291L106.646 21.9321C106.646 21.9321 106.645 21.9321 106.599 21.594C106.272 21.496 106.272 21.4959 106.272 21.4959L106.273 21.4933L106.275 21.4863L106.283 21.4606C106.289 21.4382 106.3 21.4057 106.313 21.3644C106.339 21.2817 106.378 21.1635 106.428 21.0196C106.527 20.7323 106.67 20.3409 106.847 19.9261C107.024 19.5124 107.236 19.0687 107.474 18.6796C107.708 18.2981 107.986 17.9355 108.305 17.7192C108.372 17.6742 108.452 17.654 108.532 17.6622L113.255 18.1463C113.274 18.0544 113.298 17.9463 113.328 17.8252C113.426 17.4382 113.594 16.9142 113.874 16.3691C114.435 15.2777 115.461 14.0752 117.288 13.7629C119.041 13.4638 121.386 13.4378 123.581 13.7978ZM113.878 18.557C113.857 18.7428 113.69 18.8769 113.504 18.8579L108.596 18.3549C108.425 18.5003 108.242 18.7337 108.056 19.036C107.842 19.3861 107.644 19.7967 107.475 20.1938C107.318 20.5632 107.187 20.915 107.093 21.1855C107.302 21.1591 107.569 21.1264 107.883 21.0896C108.719 20.9917 109.898 20.8643 111.27 20.7458C114.012 20.5091 117.538 20.3071 120.646 20.4509C123.761 20.5923 126.304 20.1237 127.772 19.351C128.51 18.9626 128.921 18.5272 129.053 18.1081C129.088 17.9973 128.971 16.9692 127.772 16.2239C127.067 15.7857 126.405 15.3458 125.299 14.9698C124.194 14.5939 123.6 14.4526 122.444 14.29C121.22 14.154 118.501 14.29 117.403 14.4357M113.878 18.557L113.878 18.5563L113.879 18.5503C113.879 18.5446 113.88 18.5354 113.882 18.523C113.886 18.498 113.892 18.46 113.9 18.4106C113.917 18.3118 113.946 18.168 113.99 17.9927C114.079 17.6412 114.231 17.1685 114.481 16.6809C114.981 15.707 115.858 14.6999 117.403 14.4357M106.599 21.594L106.272 21.4959C106.238 21.6072 106.264 21.7279 106.339 21.8161C106.415 21.9043 106.531 21.948 106.646 21.9321L106.599 21.594Z" fill="#4A4A49"/>
<path fill-rule="evenodd" clip-rule="evenodd" d="M121.572 1.56906C121.609 1.75388 121.489 1.9337 121.304 1.97069C117.045 2.82299 114.205 4.39166 111.545 6.88926C109.27 9.02551 107.132 11.8355 104.357 15.482C103.863 16.1311 103.348 16.8068 102.81 17.5099C101.169 19.6758 98.547 20.6164 91.3538 21.0291C87.834 21.2307 76.6791 21.6326 66.4105 21.984C61.2748 22.1598 56.3588 22.3229 52.7268 22.4422C50.9108 22.5018 49.4157 22.5504 48.3747 22.5842C47.8541 22.601 47.4471 22.6142 47.1702 22.6231L46.7469 22.6367C46.7467 22.6367 46.7465 22.6367 46.7356 22.2956C46.7246 21.9545 46.7248 21.9545 46.7251 21.9545L47.1482 21.9409C47.4251 21.9319 47.8321 21.9188 48.3526 21.9019C49.3935 21.8682 50.8885 21.8196 52.7044 21.76C56.3362 21.6407 61.2519 21.4776 66.3871 21.3018C76.6605 20.9503 87.805 20.5486 91.3148 20.3477C98.528 19.9338 100.834 18.9873 102.266 17.0967L102.268 17.0951C102.802 16.3975 103.314 15.725 103.807 15.0771C106.579 11.4343 108.758 8.57026 111.078 6.39169C113.831 3.80667 116.787 2.17864 121.17 1.30138C121.355 1.26439 121.535 1.38424 121.572 1.56906ZM46.7356 22.2956L46.7246 21.9545C46.5362 21.9605 46.3884 22.1181 46.3945 22.3065C46.4005 22.4949 46.5581 22.6428 46.7465 22.6367L46.7356 22.2956Z" fill="#4A4A49"/>
<path fill-rule="evenodd" clip-rule="evenodd" d="M125.62 4.37813C128.82 4.16857 132.488 4.39593 136.181 4.75257C142.942 5.40868 150.766 8.67044 155.098 10.8378C155.179 10.8787 155.264 10.921 155.352 10.9648C158.571 12.5687 165.803 16.1731 171.116 23.6589C171.2 23.7778 171.199 23.9371 171.114 24.0555C171.029 24.1739 170.878 24.2252 170.739 24.1832C168.543 23.5222 165.146 23.0612 161.136 22.7448C157.134 22.429 152.547 22.2588 147.984 22.1713C141.625 22.0494 135.329 22.0883 130.732 22.1167C128.729 22.129 127.048 22.1394 125.826 22.1336C121.918 22.116 117.05 22.2327 113.157 22.3541C111.211 22.4147 109.51 22.4765 108.295 22.5231C107.688 22.5464 107.202 22.5659 106.868 22.5795C106.701 22.5864 106.572 22.5918 106.485 22.5954L106.352 22.601C106.352 22.601 106.352 22.6011 106.338 22.2601L106.654 22.3891L106.854 21.8969C107.188 21.8833 107.67 21.864 108.269 21.841C109.485 21.7943 111.188 21.7325 113.136 21.6718C117.031 21.5504 121.908 21.4333 125.829 21.4511C127.04 21.4568 128.713 21.4465 130.71 21.4342C135.309 21.4058 141.63 21.3668 147.997 21.4888C152.567 21.5764 157.169 21.747 161.19 22.0644C164.68 22.3398 167.752 22.7271 169.987 23.273C164.839 16.4562 158.128 13.1111 155.038 11.5709C154.953 11.5287 154.871 11.4879 154.792 11.4483C150.482 9.29181 142.75 6.0758 136.115 5.43199C132.43 5.07613 128.808 4.85343 125.665 5.05925C122.512 5.26575 119.9 5.90086 118.19 7.21225C116.46 8.53952 114.514 10.5979 112.792 12.676C111.07 14.7525 109.59 16.8276 108.79 18.1756C108.694 18.3377 108.485 18.3911 108.323 18.2949C108.161 18.1987 108.107 17.9894 108.203 17.8273C109.027 16.4395 110.53 14.3348 112.266 12.2404C114.001 10.1476 115.985 8.04387 117.774 6.67074C119.649 5.2328 122.431 4.58703 125.62 4.37813ZM106.854 21.8969L106.926 21.7228C106.997 21.5483 106.913 21.3491 106.739 21.2778C106.564 21.2066 106.365 21.2903 106.294 21.4648L106.022 22.1311C105.978 22.2388 105.992 22.3614 106.059 22.4565C106.125 22.5516 106.236 22.6061 106.352 22.601L106.338 22.2601C106.323 21.9191 106.323 21.9191 106.323 21.9191L106.456 21.9135C106.544 21.9098 106.673 21.9044 106.84 21.8975C106.845 21.8973 106.85 21.8971 106.854 21.8969Z" fill="#4A4A49"/>
<path fill-rule="evenodd" clip-rule="evenodd" d="M137.973 5.20707C138.149 5.13816 138.347 5.22451 138.416 5.39995C140.225 10.0071 140.921 13.7406 141.665 17.7304C141.904 19.0113 142.148 20.3187 142.435 21.6898C142.474 21.8743 142.355 22.0552 142.171 22.0938C141.986 22.1324 141.805 22.0142 141.767 21.8297C141.474 20.4311 141.227 19.1076 140.987 17.818C140.245 13.8438 139.564 10.191 137.78 5.64951C137.711 5.47407 137.798 5.27598 137.973 5.20707Z" fill="#4A4A49"/>
<path fill-rule="evenodd" clip-rule="evenodd" d="M134.78 4.75354C134.964 4.71271 135.146 4.82877 135.187 5.01279C136.099 9.12434 136.291 13.4328 136.46 17.2199C136.532 18.8307 136.599 20.3473 136.716 21.7142C136.733 21.902 136.593 22.0672 136.406 22.0833C136.218 22.0994 136.052 21.9602 136.036 21.7724C135.915 20.3544 135.846 18.8067 135.774 17.177C135.606 13.4133 135.419 9.21222 134.52 5.16066C134.48 4.97665 134.596 4.79437 134.78 4.75354Z" fill="#4A4A49"/>
<path fill-rule="evenodd" clip-rule="evenodd" d="M106.266 22.156C106.451 22.1207 106.629 22.2422 106.665 22.4274C106.831 23.2996 107.037 24.1115 107.252 24.9575C107.688 26.6789 108.161 28.5416 108.407 31.3417C108.775 35.5397 108.649 41.8946 107.212 53.2826C107.188 53.4697 107.018 53.6021 106.831 53.5785C106.644 53.5549 106.511 53.3842 106.535 53.1972C107.969 41.829 108.089 35.529 107.727 31.4014C107.485 28.6504 107.036 26.8859 106.606 25.1954C106.387 24.3362 106.173 23.496 105.994 22.5551C105.959 22.37 106.08 22.1913 106.266 22.156Z" fill="#4A4A49"/>
<path fill-rule="evenodd" clip-rule="evenodd" d="M141.689 24.1236C141.851 24.0269 142.061 24.0797 142.157 24.2415C143.294 26.143 143.729 28.3828 143.585 32.0576C143.441 35.7251 142.716 40.8698 141.494 48.6075C141.465 48.7937 141.29 48.9208 141.104 48.8914C140.918 48.862 140.791 48.6872 140.82 48.501C142.043 40.7543 142.76 35.6508 142.902 32.0308C143.044 28.4182 142.611 26.3314 141.571 24.5916C141.475 24.4298 141.528 24.2202 141.689 24.1236Z" fill="#4A4A49"/>
<path fill-rule="evenodd" clip-rule="evenodd" d="M134.242 28.4683C134.243 28.4677 134.243 28.4668 134.243 28.4659C134.247 28.4554 134.259 28.4267 134.289 28.3856C134.35 28.3047 134.496 28.1594 134.836 28.0174C135.529 27.7286 136.974 27.4748 139.924 27.7694C140.112 27.7881 140.279 27.6513 140.298 27.4637C140.316 27.2761 140.18 27.1089 139.992 27.0902C137.005 26.7919 135.424 27.0331 134.574 27.3874C134.143 27.5669 133.889 27.7803 133.742 27.9776C133.722 28.0047 133.704 28.0313 133.688 28.057L131.807 27.884C131.619 27.8667 131.453 28.0049 131.435 28.1926C131.418 28.3803 131.556 28.5465 131.744 28.5637L133.873 28.7595C133.965 28.7679 134.055 28.7393 134.125 28.6801C134.189 28.626 134.231 28.5506 134.242 28.4683Z" fill="#4A4A49"/>
<path fill-rule="evenodd" clip-rule="evenodd" d="M165.954 28.6676C165.957 28.6621 165.963 28.6516 165.975 28.6371C166.013 28.5916 166.115 28.4937 166.367 28.3952C166.881 28.1943 167.959 28.012 170.16 28.2237C170.348 28.2417 170.514 28.1043 170.532 27.9166C170.551 27.729 170.413 27.5623 170.225 27.5442C167.988 27.329 166.781 27.5002 166.118 27.7595C165.782 27.8911 165.574 28.0501 165.448 28.2039C165.44 28.213 165.433 28.2221 165.426 28.2311L164.052 28.1096C163.865 28.093 163.699 28.2318 163.682 28.4195C163.666 28.6073 163.805 28.773 163.992 28.7896L165.591 28.931C165.763 28.9461 165.916 28.8317 165.954 28.6676Z" fill="#4A4A49"/>
<path fill-rule="evenodd" clip-rule="evenodd" d="M9.8027 31.7406C7.22967 31.8707 5.01573 32.13 3.58586 32.5694C3.40569 32.6248 3.21474 32.5236 3.15937 32.3435C3.10399 32.1633 3.20516 31.9723 3.38533 31.917C4.90197 31.4509 7.1887 31.1893 9.76823 31.0589C12.3561 30.928 15.2675 30.928 18.0494 30.9958C23.6005 31.131 28.6809 31.5375 29.656 31.723C30.2398 31.834 30.6925 32.203 31.0208 32.6837C31.3475 33.1621 31.5639 33.7674 31.6821 34.4029C31.9169 35.6651 31.7814 37.1446 31.2333 38.1621C31.1029 38.4043 30.9531 38.6864 30.7887 38.9961C30.3257 39.8682 29.7466 40.959 29.1556 41.9928C28.7546 42.6943 28.3448 43.3754 27.9578 43.9504C27.5752 44.519 27.1997 45.0072 26.8656 45.3041L26.8651 45.3046C26.2762 45.8257 25.2971 46.3404 23.582 46.7518C21.8655 47.1636 19.3896 47.477 15.7844 47.5793L15.7828 47.5794C13.7893 47.6265 11.8042 47.3354 9.90791 46.7201C8.32804 46.2181 6.77831 45.6147 5.27513 44.9152L5.2721 44.9138L5.27211 44.9138C4.75005 44.6646 4.28551 44.3063 3.91004 43.8718C3.53082 43.4333 3.24997 42.9216 3.07858 42.3699C2.56241 40.7657 2.23122 39.1093 2.08769 37.4311C2.07162 37.2433 2.21085 37.078 2.39865 37.0619C2.58646 37.0459 2.75172 37.1851 2.76778 37.3729C2.90702 39.0009 3.22831 40.6072 3.72889 42.1625L3.73 42.1659L3.72998 42.1659C3.8741 42.6306 4.10975 43.0592 4.42631 43.4253L4.42643 43.4254C4.74131 43.7899 5.1301 44.0894 5.56463 44.297C7.04115 44.984 8.56354 45.5768 10.1156 46.0699L10.1176 46.0705C11.941 46.6623 13.8495 46.9422 15.766 46.897C19.345 46.7954 21.7693 46.4847 23.4227 46.0881C25.0773 45.6912 25.938 45.2134 26.4124 44.7937C26.6779 44.5576 27.0135 44.1311 27.3915 43.5694C27.7653 43.0139 28.1659 42.3487 28.563 41.6541C29.1482 40.6304 29.7188 39.5556 30.1809 38.6852C30.3468 38.3726 30.4988 38.0864 30.6324 37.8384C31.0878 36.9931 31.2256 35.6811 31.011 34.5277C30.9046 33.9555 30.7155 33.447 30.4572 33.0687C30.2004 32.6927 29.8882 32.462 29.5284 32.3936C28.6162 32.2201 23.5898 31.8135 18.0327 31.6781C15.2605 31.6106 12.3674 31.6109 9.8027 31.7406Z" fill="#4A4A49"/>
<path fill-rule="evenodd" clip-rule="evenodd" d="M14.7596 30.9734C14.9352 31.0419 15.022 31.2397 14.9535 31.4153C13.2189 35.8629 13.1923 41.1686 13.6542 47.0974C13.6688 47.2853 13.5284 47.4495 13.3404 47.4642C13.1525 47.4788 12.9883 47.3383 12.9737 47.1504C12.511 41.2116 12.5224 35.7701 14.3176 31.1673C14.3861 30.9917 14.584 30.9049 14.7596 30.9734Z" fill="#4A4A49"/>
<path fill-rule="evenodd" clip-rule="evenodd" d="M2.20301 34.9161C2.22427 34.7288 2.39332 34.5942 2.58061 34.6155C4.84487 34.8725 12.0505 34.9478 18.7209 34.9577C22.0493 34.9626 25.2349 34.9513 27.5885 34.9388C28.7652 34.9325 29.7339 34.9259 30.4084 34.9209C30.7457 34.9184 31.0093 34.9163 31.1887 34.9148L31.4627 34.9125C31.4629 34.9125 31.463 34.9125 31.4661 35.2537C31.4691 35.595 31.469 35.595 31.4689 35.595L31.1943 35.5974C31.0148 35.5989 30.7509 35.601 30.4135 35.6035C29.7386 35.6085 28.7694 35.6151 27.5921 35.6213C25.2376 35.6339 22.0504 35.6452 18.7199 35.6402C12.0726 35.6304 4.81619 35.5562 2.50364 35.2937C2.31635 35.2725 2.18176 35.1034 2.20301 34.9161ZM31.8073 35.2507C31.809 35.4391 31.6576 35.5933 31.4691 35.595L31.4661 35.2537L31.4627 34.9125C31.6512 34.9108 31.8056 35.0622 31.8073 35.2507Z" fill="#4A4A49"/>
<path fill-rule="evenodd" clip-rule="evenodd" d="M2.0054 37.7853C2.05351 37.603 2.24025 37.4943 2.4225 37.5424C4.52814 38.0982 8.88434 38.6071 14.0514 38.8599C19.2099 39.1123 25.1452 39.108 30.3974 38.6474C30.5851 38.6309 30.7507 38.7698 30.7672 38.9575C30.7836 39.1453 30.6448 39.3109 30.457 39.3273C25.1659 39.7913 19.1982 39.7951 14.0181 39.5417C8.84654 39.2887 4.42847 38.7778 2.24829 38.2024C2.06604 38.1543 1.9573 37.9675 2.0054 37.7853Z" fill="#4A4A49"/>
<path fill-rule="evenodd" clip-rule="evenodd" d="M2.80478 41.2275C2.87132 41.0511 3.06822 40.9621 3.24458 41.0287C9.5182 43.3957 16.1209 43.5121 28.1025 42.7614C28.2907 42.7496 28.4527 42.8925 28.4645 43.0807C28.4763 43.2688 28.3333 43.4308 28.1452 43.4426C16.1686 44.193 9.42976 44.0919 3.00362 41.6673C2.82726 41.6008 2.73824 41.4038 2.80478 41.2275Z" fill="#4A4A49"/>
<path fill-rule="evenodd" clip-rule="evenodd" d="M4.30144 51.7362C4.241 52.0721 4.2411 52.0721 4.24129 52.0721L4.52464 52.1229C4.71003 52.156 4.98268 52.2046 5.33186 52.2666C6.03022 52.3905 7.0347 52.5676 8.25938 52.7809C10.7087 53.2073 14.039 53.778 17.563 54.3549C24.5978 55.5066 32.4429 56.6899 35.564 56.7901C35.6959 56.7943 35.8184 56.7221 35.8786 56.6047C35.9389 56.4873 35.926 56.3457 35.8456 56.241C33.7015 53.4507 32.0586 52.0037 30.7012 51.2001C29.5521 50.5199 28.6158 50.309 27.8202 50.1299C27.6736 50.0969 27.5318 50.0649 27.3943 50.0313C26.9179 49.9149 25.5408 49.7157 23.7391 49.48C21.9255 49.2427 19.6542 48.9651 17.3676 48.6928C14.4059 48.3401 11.4312 47.9976 9.37846 47.7612C8.25336 47.6317 7.40523 47.534 6.98804 47.484C6.39963 47.4136 5.92045 47.3959 5.53836 47.4924C5.12467 47.5969 4.83913 47.831 4.64431 48.201C4.46419 48.543 4.36294 48.9994 4.27287 49.5516C4.22531 49.8432 4.17784 50.1841 4.12441 50.5679C4.07703 50.9081 4.02496 51.2821 3.96399 51.6851L4.30144 51.7362ZM4.8023 50.6489C4.76792 50.8964 4.73062 51.1648 4.68771 51.4586C4.871 51.4914 5.12829 51.5372 5.45108 51.5945C6.14882 51.7183 7.15258 51.8953 8.37646 52.1084C10.8243 52.5346 14.1523 53.1049 17.6733 53.6813C24.2159 54.7525 31.3917 55.8391 34.8448 56.0698C32.9582 53.7056 31.5162 52.4758 30.3535 51.7875C29.3031 51.1657 28.473 50.9778 27.6834 50.7992C27.532 50.7649 27.382 50.731 27.2323 50.6944C26.8018 50.5892 25.4721 50.3951 23.6505 50.1568C21.8409 49.92 19.5726 49.6428 17.2868 49.3706C14.3365 49.0192 11.3443 48.6747 9.28523 48.4376C8.16198 48.3082 7.31643 48.2108 6.90687 48.1618C6.32591 48.0922 5.95595 48.0909 5.70552 48.1542C5.48669 48.2094 5.35631 48.3138 5.24826 48.519C5.1255 48.7521 5.0369 49.1075 4.94655 49.6615C4.89899 49.9531 4.85393 50.2773 4.8023 50.6489Z" fill="#4A4A49"/>
<path fill-rule="evenodd" clip-rule="evenodd" d="M3.85484 52.9792L3.77401 53.3108C3.85484 52.9792 3.85477 52.9792 3.85484 52.9792L3.86368 52.9813L3.89123 52.988C3.9158 52.9939 3.95275 53.0027 4.00187 53.0143C4.10011 53.0376 4.24705 53.072 4.44114 53.1164C4.82932 53.2054 5.40605 53.3345 6.1588 53.4952C7.66432 53.8165 9.87387 54.2637 12.6872 54.7666C18.314 55.7724 26.3552 57.0008 36.0089 57.8904C36.1055 57.8993 36.1937 57.9489 36.2516 58.0267C36.3094 58.1046 36.3314 58.2034 36.312 58.2984C36.2293 58.7038 36.0001 59.079 35.8043 59.3443C35.9811 59.3624 36.1993 59.3793 36.4601 59.39C37.3179 59.4255 38.6371 59.3949 40.458 59.1245C40.6445 59.0969 40.8181 59.2256 40.8457 59.412C40.8734 59.5985 40.7447 59.7721 40.5583 59.7997C38.6972 60.076 37.335 60.1093 36.4319 60.072C35.9804 60.0534 35.6439 60.0171 35.4173 59.9847C35.304 59.9685 35.2183 59.9533 35.1594 59.9418C35.13 59.9361 35.1073 59.9313 35.0912 59.9277C35.0832 59.9259 35.0768 59.9244 35.0721 59.9233L35.0663 59.9219L35.0643 59.9215L35.0635 59.9213L35.0632 59.9212C35.063 59.9212 35.0629 59.9211 35.1454 59.59L35.0629 59.9211C34.9425 59.8911 34.8478 59.7981 34.8158 59.6782C34.7837 59.5584 34.8191 59.4306 34.9084 59.3444M35.5099 58.5295C35.4335 58.6825 35.3359 58.8317 35.2357 58.9651C35.1484 59.0811 35.065 59.1776 35.0036 59.2448C34.973 59.2783 34.9482 59.3042 34.9315 59.3212C34.9232 59.3297 34.9169 59.336 34.913 59.3399L34.9084 59.3444M35.5099 58.5295C26.0279 57.6414 18.1246 56.4319 12.5671 55.4385C9.74573 54.9342 7.52871 54.4855 6.01633 54.1627C5.26014 54.0013 4.68009 53.8714 4.28872 53.7818C4.10059 53.7387 3.95606 53.7049 3.85651 53.6814L2.78463 54.535C2.63718 54.6524 2.42246 54.6281 2.30504 54.4806C2.18762 54.3332 2.21196 54.1185 2.3594 54.001L3.56139 53.0438C3.64396 52.9781 3.75229 52.9542 3.85484 52.9792" fill="#4A4A49"/>
<path fill-rule="evenodd" clip-rule="evenodd" d="M55.1059 28.7347C63.0605 28.089 69.883 30.1607 76.3778 33.5476C76.545 33.6348 76.6098 33.8409 76.5226 34.008C76.4355 34.1752 76.2293 34.24 76.0622 34.1528C73.8902 33.0202 71.6866 32.0391 69.4195 31.2612C69.4001 31.297 69.3738 31.3299 69.3409 31.3579C65.3591 34.7511 62.7634 36.4252 60.4759 37.2903C58.4333 38.0629 56.651 38.1825 54.4139 38.3326C54.1441 38.3507 53.8676 38.3693 53.5833 38.3895C53.0603 38.4268 52.4957 38.4716 51.9003 38.5189C49.5451 38.7057 46.708 38.9307 44.062 38.8862C42.4029 38.8583 40.8022 38.7246 39.4286 38.404C38.0614 38.0849 36.8796 37.5717 36.0992 36.7549C35.4356 36.0725 35.0683 35.4044 35.0238 34.7471C34.9783 34.0766 35.2732 33.4926 35.7704 32.9988C36.2624 32.5103 36.9698 32.0902 37.8105 31.7238C38.6549 31.3558 39.6544 31.0331 40.7482 30.7488C45.1148 29.6137 51.1124 29.058 55.1059 28.7347ZM55.1335 29.0749L55.1059 28.7347L55.1335 29.0749ZM68.6872 31.0177C64.4737 29.6625 60.032 29.0197 55.1611 29.4151L55.1611 29.4151C51.1594 29.739 45.2201 30.2915 40.9199 31.4094C39.8469 31.6884 38.8841 32.0005 38.0832 32.3496C37.2787 32.7002 36.6579 33.0795 36.2514 33.4832C35.8502 33.8816 35.6764 34.2828 35.7048 34.701C35.734 35.1322 35.9824 35.656 36.5895 36.28L36.5918 36.2823L36.5918 36.2823C37.2391 36.9605 38.2707 37.4328 39.5837 37.7393C40.8908 38.0444 42.4377 38.1763 44.0735 38.2038C46.6829 38.2476 49.476 38.0262 51.8296 37.8396C52.43 37.792 53.0018 37.7467 53.5346 37.7086L53.5348 37.7086C53.82 37.6884 54.0957 37.6698 54.3634 37.6517C56.6115 37.5001 58.2916 37.3867 60.2344 36.6519C62.3713 35.8437 64.8438 34.274 68.6872 31.0177Z" fill="#4A4A49"/>
<path fill-rule="evenodd" clip-rule="evenodd" d="M61.1388 31.0474C59.6498 30.9358 57.7833 30.8461 56.2418 30.9278C45.2457 31.5071 40.4296 33.1796 38.2443 33.9385C38.1701 33.9642 38.0989 33.9889 38.0307 34.0125C38.0306 34.0125 38.0307 34.0125 38.0307 34.0125C37.5376 34.1831 37.4953 34.3267 37.4909 34.3624C37.4868 34.3953 37.4925 34.462 37.5525 34.58C37.6121 34.6973 37.7118 34.8389 37.8565 35.0104C38.1004 35.2997 38.4352 35.632 38.8369 36.0308C38.9153 36.1086 38.9962 36.189 39.0795 36.272C39.5833 36.7742 40.1587 37.3611 40.7317 38.0448C40.8527 38.1893 40.8338 38.4045 40.6893 38.5256C40.5448 38.6467 40.3296 38.6277 40.2085 38.4832C39.6556 37.8235 39.0977 37.254 38.5976 36.7554C38.518 36.6761 38.4395 36.5981 38.3624 36.5216C37.9615 36.1238 37.6 35.765 37.3347 35.4505C37.1755 35.2617 37.038 35.0741 36.944 34.8893C36.8505 34.7054 36.7865 34.4972 36.8135 34.2786C36.8713 33.8111 37.2947 33.5448 37.8077 33.3674C37.8743 33.3444 37.9437 33.3203 38.0157 33.2953C40.2419 32.5226 45.1179 30.8304 56.2057 30.2462C57.7916 30.1621 59.6929 30.2546 61.1898 30.3667C61.94 30.4229 62.5918 30.4843 63.0563 30.5316C63.2886 30.5553 63.4741 30.5755 63.6018 30.5898C63.6656 30.597 63.715 30.6026 63.7485 30.6065L63.7867 30.611L63.7998 30.6126C63.7999 30.6126 63.8001 30.6126 63.7596 30.9493L63.8001 30.6126C63.9872 30.6351 64.1207 30.8051 64.0982 30.9922C64.0757 31.1793 63.9057 31.3128 63.7186 31.2903L63.7065 31.2888L63.6696 31.2845C63.6371 31.2807 63.5887 31.2752 63.5258 31.2681C63.4002 31.2541 63.2169 31.2341 62.9871 31.2107C62.5273 31.1638 61.8816 31.103 61.1388 31.0474Z" fill="#4A4A49"/>
<path fill-rule="evenodd" clip-rule="evenodd" d="M51.7949 32.3467C51.8039 32.535 51.6586 32.6949 51.4703 32.7039C50.4919 32.7508 49.7313 33.0099 49.2506 33.4046C48.7857 33.7863 48.5609 34.3096 48.6589 34.9786C48.7661 35.7102 49.0202 36.1671 49.4876 36.4294C49.9825 36.7071 50.7899 36.8111 52.1096 36.6316C52.2964 36.6062 52.4684 36.737 52.4938 36.9237C52.5192 37.1105 52.3884 37.2825 52.2016 37.3079C50.8427 37.4928 49.8484 37.4146 49.1536 37.0247C48.4313 36.6194 48.1075 35.9233 47.9835 35.0776C47.8504 34.1693 48.1695 33.409 48.8175 32.877C49.4497 32.3579 50.3711 32.0732 51.4377 32.0221C51.626 32.0131 51.7859 32.1584 51.7949 32.3467Z" fill="#4A4A49"/>
<path fill-rule="evenodd" clip-rule="evenodd" d="M13.57 56.825C13.6986 56.6872 13.9146 56.6797 14.0524 56.8083C15.9587 58.5872 19.1601 60.3701 22.5843 61.1718C26.0097 61.9739 29.592 61.7807 32.3229 59.7067C32.473 59.5927 32.6871 59.622 32.8011 59.7721C32.9151 59.9222 32.8858 60.1363 32.7357 60.2503C29.7803 62.4948 25.9602 62.6633 22.4287 61.8364C18.8958 61.0092 15.5855 59.1725 13.5867 57.3074C13.4489 57.1788 13.4414 56.9628 13.57 56.825Z" fill="#4A4A49"/>
<path fill-rule="evenodd" clip-rule="evenodd" d="M0.0394599 43.9131C0.106621 43.737 0.303837 43.6487 0.479955 43.7159C1.3204 44.0363 2.07216 44.3817 2.67501 44.7869C3.27816 45.1924 3.7537 45.6721 4.00892 46.2692C4.14483 46.5872 4.16372 46.8676 4.05222 47.1307C3.96525 47.336 3.80397 47.5042 3.67836 47.6351C3.6655 47.6485 3.65302 47.6616 3.64104 47.6742C3.49705 47.8258 3.35886 47.9793 3.24556 48.1943C3.13347 48.407 3.03813 48.6953 3.01042 49.1154C2.97966 49.5815 2.94333 49.9529 2.89058 50.2383C2.84002 50.512 2.76578 50.7613 2.62245 50.9361C2.54433 51.0314 2.44475 51.1061 2.32265 51.1475C2.20378 51.1878 2.08548 51.1891 1.97876 51.1738C1.77851 51.1449 1.56336 51.0475 1.35486 50.9422C1.1866 50.8573 1.11906 50.652 1.20401 50.4837C1.28895 50.3155 1.49422 50.2479 1.66248 50.3329C1.87414 50.4397 1.99892 50.4871 2.07605 50.4982C2.08519 50.4995 2.09211 50.5 2.09711 50.5002C2.12435 50.4645 2.17351 50.3625 2.21937 50.1143C2.26451 49.87 2.29889 49.5316 2.32932 49.0704C2.36279 48.5631 2.48128 48.1805 2.64172 47.876C2.80096 47.5739 2.99403 47.3642 3.14613 47.2041C3.31306 47.0283 3.38779 46.9493 3.42372 46.8645C3.44403 46.8165 3.46564 46.7349 3.38128 46.5375C3.19595 46.1039 2.8339 45.7162 2.29421 45.3534C1.75421 44.9904 1.05787 44.6668 0.236743 44.3536C0.0606257 44.2865 -0.0277011 44.0893 0.0394599 43.9131Z" fill="#4A4A49"/>
<path fill-rule="evenodd" clip-rule="evenodd" d="M1.21208 47.3839C1.30276 47.2187 1.51023 47.1583 1.67547 47.2489C2.08914 47.476 2.53811 47.6348 3.00195 47.718C3.18748 47.7513 3.3109 47.9287 3.27763 48.1142C3.24435 48.2997 3.06698 48.4232 2.88145 48.3899C2.34454 48.2936 1.82539 48.1098 1.34708 47.8473C1.18184 47.7567 1.1214 47.5492 1.21208 47.3839Z" fill="#4A4A49"/>
<path fill-rule="evenodd" clip-rule="evenodd" d="M36.7292 51.0543C36.7953 50.9631 36.9022 50.9104 37.0148 50.9135L53.277 51.3567C53.3697 51.3593 53.4574 51.3994 53.5199 51.4679L53.2677 51.6979C53.5199 51.4679 53.5199 51.4679 53.5199 51.4679L53.556 51.5076C53.5795 51.5336 53.6144 51.5721 53.6597 51.6224C53.7504 51.7229 53.883 51.8706 54.0512 52.0594C54.3875 52.4371 54.8661 52.9796 55.4358 53.6396C56.5748 54.9591 58.0794 56.75 59.5392 58.6327L59.2695 58.8419C59.256 59.1829 59.2559 59.1829 59.2559 59.1829L59.1581 59.1791C59.0937 59.1766 58.9984 59.173 58.8751 59.1685C58.6286 59.1594 58.2701 59.1465 57.8226 59.1315C56.9276 59.1016 55.6766 59.063 54.2531 59.0287C51.4045 58.9601 47.8707 58.9086 45.1151 58.9764C42.2351 59.0472 40.1178 57.0845 38.7493 55.1951C38.0596 54.2429 37.5446 53.2888 37.2021 52.574C37.0306 52.2162 36.9019 51.9171 36.8157 51.7066C36.7726 51.6013 36.74 51.5181 36.7181 51.4607C36.7072 51.432 36.6989 51.4098 36.6932 51.3944L36.6867 51.3766L36.6849 51.3717L36.6842 51.3698C36.6842 51.3697 36.6841 51.3695 37.0055 51.2546L36.6841 51.3695C36.6462 51.2635 36.663 51.1455 36.7292 51.0543ZM37.5149 51.6099C37.5921 51.7917 37.6931 52.019 37.8177 52.2791C38.1482 52.969 38.6432 53.885 39.3021 54.7947C40.6306 56.6288 42.5638 58.3564 45.0983 58.294C47.8713 58.2258 51.4189 58.2776 54.2695 58.3463C55.6957 58.3807 56.9488 58.4193 57.8454 58.4493C58.1132 58.4583 58.3492 58.4665 58.5485 58.4736C57.244 56.8172 55.9361 55.2638 54.9191 54.0856C54.352 53.4286 53.8758 52.8888 53.5414 52.5134C53.3743 52.3257 53.2426 52.1791 53.1528 52.0795C53.1383 52.0635 53.125 52.0486 53.1127 52.0351L37.5149 51.6099Z" fill="#4A4A49"/>
<path fill-rule="evenodd" clip-rule="evenodd" d="M39.2789 55.7341C39.2953 55.5463 39.4607 55.4073 39.6485 55.4237C41.4655 55.582 45.261 55.7646 48.6107 55.9078C50.2837 55.9793 51.8427 56.0409 52.9834 56.0846C53.5538 56.1065 54.0196 56.1238 54.3427 56.1358C54.5043 56.1417 54.6303 56.1463 54.7158 56.1494L54.8462 56.1541C54.8463 56.1541 54.8463 56.1541 54.8342 56.493L54.8462 56.1541C55.0346 56.1609 55.1819 56.319 55.1752 56.5074C55.1685 56.6958 55.0103 56.843 54.822 56.8363L54.8341 56.4952C54.822 56.8363 54.822 56.8363 54.822 56.8363L54.691 56.8315C54.6054 56.8284 54.4793 56.8238 54.3176 56.8179C53.9941 56.8059 53.528 56.7886 52.9573 56.7667C51.8158 56.7229 50.2558 56.6613 48.5815 56.5897C45.2366 56.4467 41.4245 56.2636 39.5893 56.1037C39.4015 56.0873 39.2625 55.9218 39.2789 55.7341Z" fill="#4A4A49"/>
<path fill-rule="evenodd" clip-rule="evenodd" d="M31.5377 29.029C32.8117 29.1424 33.8255 29.2721 34.3078 29.4208C34.785 29.5678 35.1706 29.7753 35.463 30.0577C35.7583 30.3429 35.9418 30.6883 36.0371 31.0821C36.2221 31.8469 36.075 32.8043 35.8032 33.9077C35.7581 34.0907 35.5732 34.2025 35.3902 34.1574C35.2072 34.1124 35.0954 33.9275 35.1404 33.7444C35.4126 32.6396 35.5156 31.8294 35.3736 31.2426C35.3054 30.9606 35.1811 30.7343 34.9888 30.5487C34.7937 30.3602 34.5121 30.198 34.1068 30.0731C33.7066 29.9497 32.7696 29.8239 31.4772 29.7089C30.2003 29.5953 28.6144 29.495 26.9447 29.4137C23.6043 29.2511 19.9431 29.1651 17.7709 29.1989C15.6406 29.2313 12.5944 29.5017 10.0721 29.7655C8.81281 29.8971 7.68739 30.0268 6.8768 30.1235C6.47153 30.1719 6.14505 30.212 5.91997 30.24C5.80743 30.254 5.72025 30.265 5.66125 30.2725L5.57199 30.2839C5.57194 30.2839 5.57166 30.2839 5.52809 29.9454C5.48452 29.6069 5.48456 29.6069 5.48463 29.6069L5.57545 29.5953C5.63491 29.5878 5.72258 29.5768 5.83563 29.5627C6.06174 29.5345 6.38938 29.4943 6.79591 29.4458C7.60891 29.3487 8.73773 29.2187 10.0011 29.0866C12.5239 28.8228 15.5966 28.5493 17.7602 28.5164M31.5377 29.029C30.2483 28.9143 28.6525 28.8135 26.9779 28.7319L31.5377 29.029ZM26.9779 28.7319C23.6299 28.5689 19.9527 28.4823 17.7602 28.5164L26.9779 28.7319ZM5.1896 29.989C5.16553 29.802 5.29768 29.631 5.48463 29.6069L5.52809 29.9454L5.57166 30.2839C5.38472 30.308 5.21366 30.1759 5.1896 29.989Z" fill="#4A4A49"/>
<path fill-rule="evenodd" clip-rule="evenodd" d="M62.8151 23.186C62.8459 23.372 62.7201 23.5477 62.5341 23.5784C62.3029 23.6167 62.0712 23.655 61.8392 23.6934C57.1328 24.472 52.2938 25.2725 47.9797 26.1541C43.4463 27.0806 39.5225 28.091 36.9496 29.2475C36.7776 29.3248 36.5756 29.2481 36.4983 29.0762C36.4211 28.9042 36.4978 28.7022 36.6697 28.6249C39.3181 27.4346 43.3078 26.4122 47.8431 25.4854C52.1701 24.6011 57.0209 23.7986 61.7232 23.0208C61.9567 22.9821 62.1899 22.9435 62.4227 22.905C62.6086 22.8742 62.7843 23 62.8151 23.186Z" fill="#4A4A49"/>
<path fill-rule="evenodd" clip-rule="evenodd" d="M97.5876 23.7648C97.5917 23.9532 97.4422 24.1093 97.2538 24.1134C94.757 24.1676 86.5769 24.5993 78.448 25.4547C74.3836 25.8824 70.3391 26.4153 67.0276 27.0584C65.3715 27.38 63.9048 27.728 62.7134 28.1022C61.5134 28.4791 60.6244 28.8731 60.099 29.2732C59.949 29.3874 59.7349 29.3584 59.6207 29.2084C59.5065 29.0585 59.5355 28.8444 59.6854 28.7302C60.309 28.2553 61.2923 27.8331 62.5088 27.451C63.7339 27.0662 65.2279 26.7125 66.8974 26.3883C70.2371 25.7398 74.3037 25.2044 78.3765 24.7758C86.5221 23.9187 94.7212 23.4856 97.239 23.431C97.4274 23.4269 97.5835 23.5764 97.5876 23.7648Z" fill="#4A4A49"/>
<path fill-rule="evenodd" clip-rule="evenodd" d="M172.581 25.2102C172.745 25.1173 172.953 25.1748 173.046 25.3388C173.11 25.4524 173.175 25.5652 173.239 25.6775C173.899 26.8344 174.523 27.9282 174.706 29.0832C174.913 30.3931 174.554 31.7401 173.248 33.3501L173.248 33.3504C172.291 34.5273 171.476 35.2011 170.728 35.819C170.484 36.0202 170.248 36.2155 170.016 36.4203C169.077 37.2496 168.132 38.2962 166.915 40.6791C166.829 40.8469 166.624 40.9135 166.456 40.8278C166.288 40.7421 166.221 40.5365 166.307 40.3686C167.56 37.9164 168.556 36.7996 169.564 35.9089C169.819 35.6834 170.069 35.4764 170.321 35.2683C170.556 35.0745 171.394 34.4136 172.482 33.1899C173.454 31.8302 174.181 30.4704 173.977 29.2467C173.592 26.9352 172.632 25.9926 172.632 25.9926M172.581 25.2102C172.417 25.3032 172.632 25.9926 172.632 25.9926L172.581 25.2102Z" fill="#4A4A49"/>
<path fill-rule="evenodd" clip-rule="evenodd" d="M155.436 61.1764C155.603 61.0901 155.809 61.156 155.895 61.3235C156.499 62.4964 157.239 63.215 158.299 63.952C160.533 64.0435 164.035 64.1496 166.998 64.2334C168.502 64.2758 169.865 64.3125 170.853 64.3386C171.347 64.3517 171.747 64.3621 172.023 64.3692L172.453 64.3802C172.453 64.3802 172.453 64.3802 172.444 64.7214C172.436 65.0625 172.436 65.0625 172.436 65.0625L172.006 65.0515C171.729 65.0444 171.329 65.034 170.835 65.021C169.847 64.9949 168.483 64.9582 166.979 64.9157C163.973 64.8307 160.406 64.7225 158.172 64.63C158.108 64.6273 158.046 64.6067 157.993 64.5704C156.829 63.7716 155.975 62.9683 155.289 61.6361C155.202 61.4685 155.268 61.2627 155.436 61.1764ZM172.444 64.7214L172.436 65.0625C172.624 65.0673 172.781 64.9184 172.785 64.73C172.79 64.5415 172.641 64.3849 172.453 64.3802L172.444 64.7214Z" fill="#4A4A49"/>
<path fill-rule="evenodd" clip-rule="evenodd" d="M80.1219 37.6002C77.3163 37.1454 74.4416 37.4911 71.8248 38.5974C71.6512 38.6708 71.4509 38.5896 71.3775 38.416C71.3041 38.2423 71.3854 38.0421 71.559 37.9687C74.294 36.8124 77.2987 36.4511 80.2311 36.9264L80.2312 36.9264C83.1606 37.4017 85.8984 38.6913 88.1303 40.6508C90.3624 42.6105 91.994 45.1594 92.8417 48.0055C93.6894 50.8517 93.7172 53.8785 92.9251 56.7385L92.925 56.7388C92.1301 59.5988 90.5458 62.1782 88.3528 64.1794C86.1597 66.1807 83.4469 67.5232 80.5255 68.0514C77.6045 68.5794 74.5915 68.2766 71.8366 67.1702C69.0793 66.0666 66.6918 64.2071 64.9437 61.8058C64.8328 61.6534 64.8664 61.44 65.0187 61.329C65.1711 61.2181 65.3846 61.2517 65.4955 61.4041C67.1683 63.7019 69.4527 65.4809 72.0906 66.5366L72.091 66.5368C74.7261 67.595 77.6088 67.885 80.4041 67.3797C83.1989 66.8744 85.7944 65.59 87.8926 63.6753C89.9909 61.7605 91.5067 59.2926 92.2674 56.556C93.0252 53.8195 92.9986 50.9235 92.1875 48.2004C91.3764 45.4771 89.8153 43.0385 87.68 41.1638C85.5445 39.2889 82.925 38.0549 80.1219 37.6002Z" fill="#4A4A49"/>
<path fill-rule="evenodd" clip-rule="evenodd" d="M75.7151 34.1167C78.9789 33.6262 82.3119 34.0197 85.3732 35.2525C88.4349 36.4855 91.1085 38.5164 93.1198 41.1317C95.1313 43.7472 96.4057 46.853 96.813 50.1277C97.2203 53.4025 96.7437 56.7245 95.4304 59.7529C94.1172 62.781 92.02 65.4019 89.3548 67.3468L89.3546 67.3469C86.6894 69.289 83.5504 70.4859 80.2671 70.8073C76.984 71.1287 73.6732 70.5663 70.681 69.1782C67.6887 67.7901 65.1231 65.6263 63.2475 62.9112C63.1404 62.7562 63.1793 62.5436 63.3344 62.4365C63.4894 62.3293 63.702 62.3682 63.8091 62.5233C65.6157 65.1383 68.0865 67.2222 70.9682 68.559C73.8499 69.8958 77.0386 70.4375 80.2006 70.128C83.3624 69.8185 86.3856 68.6658 88.9526 66.7952C91.5195 64.9221 93.5394 62.3978 94.8042 59.4813C96.0689 56.565 96.5279 53.3658 96.1356 50.2119C95.7434 47.0579 94.5159 44.0667 92.5788 41.5478C90.6415 39.0289 88.0666 37.073 85.1183 35.8857C82.1696 34.6982 78.9596 34.3194 75.8165 34.7917C75.6301 34.8197 75.4563 34.6913 75.4283 34.5049C75.4003 34.3185 75.5287 34.1447 75.7151 34.1167Z" fill="#4A4A49"/>
<path fill-rule="evenodd" clip-rule="evenodd" d="M167.384 42.0586C168.741 39.6252 170.668 38.0232 172.877 38.0232C175.085 38.0232 177.013 39.6252 178.369 42.0586C179.731 44.5033 180.563 47.8573 180.563 51.5429C180.563 55.2285 179.731 58.5825 178.369 61.0272C177.013 63.4605 175.085 65.0626 172.877 65.0626C170.668 65.0626 168.741 63.4605 167.384 61.0272C166.022 58.5825 165.19 55.2285 165.19 51.5429C165.19 47.8573 166.022 44.5033 167.384 42.0586ZM167.981 42.3909C166.685 44.7161 165.873 47.9513 165.873 51.5429C165.873 55.1345 166.685 58.3697 167.981 60.6949C169.283 63.0314 171.028 64.38 172.877 64.38C174.726 64.38 176.471 63.0314 177.773 60.6949C179.069 58.3697 179.881 55.1345 179.881 51.5429C179.881 47.9513 179.069 44.7161 177.773 42.3909C176.471 40.0543 174.726 38.7058 172.877 38.7058C171.028 38.7058 169.283 40.0543 167.981 42.3909Z" fill="#4A4A49"/>
<path fill-rule="evenodd" clip-rule="evenodd" d="M168.751 43.601C169.745 41.5732 171.183 40.1826 172.877 40.1826C174.571 40.1826 176.008 41.5732 177.002 43.601C178.007 45.6511 178.619 48.4595 178.619 51.5431C178.619 54.6267 178.007 57.435 177.002 59.4851C176.008 61.5129 174.571 62.9035 172.877 62.9035C171.183 62.9035 169.745 61.5129 168.751 59.4851C167.746 57.435 167.135 54.6267 167.135 51.5431C167.135 48.4595 167.746 45.6511 168.751 43.601ZM169.364 43.9014C168.414 45.8393 167.817 48.5406 167.817 51.5431C167.817 54.5456 168.414 57.2468 169.364 59.1847C170.325 61.145 171.588 62.2209 172.877 62.2209C174.166 62.2209 175.429 61.145 176.389 59.1847C177.339 57.2468 177.936 54.5456 177.936 51.5431C177.936 48.5406 177.339 45.8393 176.389 43.9014C175.429 41.9411 174.166 40.8652 172.877 40.8652C171.588 40.8652 170.325 41.9411 169.364 43.9014Z" fill="#4A4A49"/>
<path fill-rule="evenodd" clip-rule="evenodd" d="M162.54 56.8192C162.727 56.8385 162.864 57.0062 162.844 57.1937C162.719 58.411 162.15 59.54 161.251 60.3684C160.353 61.1971 159.18 61.6697 157.957 61.696C144.516 61.9923 102.454 62.9008 95.748 62.9008C95.5595 62.9008 95.4067 62.748 95.4067 62.5595C95.4067 62.371 95.5595 62.2182 95.748 62.2182C102.444 62.2182 144.494 61.3101 157.942 61.0136L157.942 61.0136C158.999 60.9909 160.012 60.5824 160.789 59.8665C161.565 59.1502 162.057 58.1744 162.165 57.1237C162.185 56.9362 162.352 56.7999 162.54 56.8192Z" fill="#4A4A49"/>
</svg>
